<?xml version="1.0" encoding="UTF-8"?>
<svg width="554px" height="149px" viewBox="0 0 554 149" version="1.1" xmlns="http://www.w3.org/2000/svg" xmlns:xlink="http://www.w3.org/1999/xlink">
    <title>about</title>
    <defs>
        <filter id="filter-1">
            <feColorMatrix in="SourceGraphic" type="matrix" values="0 0 0 0 1.000000 0 0 0 0 1.000000 0 0 0 0 1.000000 0 0 0 1.000000 0"></feColorMatrix>
        </filter>
    </defs>
    <g id="Page-1" stroke="none" stroke-width="1" fill="none" fill-rule="evenodd">
        <g filter="url(#filter-1)" id="about">
            <g id="Group" transform="translate(276.600000, 74.850000) scale(-1, 1) rotate(-180.000000) translate(-276.600000, -74.850000) translate(0.300000, 0.900000)" fill="#000000" fill-rule="nonzero">
                <path d="M62,146.7 C59,145.4 57.7,144.3 57.7,142.9 C57.7,141.8 57.2,140.6 56.6,140.3 C56,139.9 55.8,138.9 56.1,138.1 C56.4,137.3 56.2,137 55.7,137.3 C55.1,137.6 54.7,137.3 54.7,136.6 C54.7,135.9 53.1,132 51.1,128 C46.8,119.1 45.3,115.6 45.2,114.3 C45.2,113.8 44.9,112.9 44.5,112.3 C42.2,108.5 39.7,103.6 39.7,102.8 C39.7,102.3 37.2,96.6 34.1,90.2 C31,83.7 27.6,75.9 26.5,72.8 C25.4,69.8 23.2,64.4 21.5,60.8 C19.8,57.2 18.4,53.9 18.2,53.3 C18.1,52.8 16.7,49.6 15.2,46.3 C13.7,43 11.1,36.3 9.5,31.3 C6.7,22.7 5.8,20.4 1.5,11 C-0.9,5.8 -0.4,4.2 3.7,3.6 C7.2,3.1 8,4.2 11.7,15.8 C12.8,19.4 14.1,23 14.4,23.8 C14.7,24.6 15.1,26 15.3,26.8 C15.5,27.6 16,29.1 16.5,30.3 C17,31.4 18.4,35 19.6,38.3 C20.8,41.6 22.9,46.6 24.2,49.5 C26.6,54.6 26.6,54.7 29.9,53.7 C31.8,53.2 39.8,53.1 48.8,53.4 L64.5,54.1 L65.1,47.7 C65.5,44.2 66.1,38.8 66.4,35.8 C66.7,32.8 67.1,29.4 67.4,28.3 C68.5,23.2 69.8,10 69.3,7.6 C69,6.2 69.3,4.5 70,4 C71.8,2.6 80,1 84.4,1.3 C86.5,1.4 88.8,1.1 89.5,0.6 C90.3,-0.1 90.7,-0.1 90.7,0.6 C90.7,1.2 91.3,1.5 92.1,1.2 C94.2,0.4 97,3.7 95.7,5.4 C95,6.1 94.8,7.5 95.1,8.5 C95.4,9.5 95.2,12.1 94.6,14.3 C94,16.5 93.4,21 93.2,24.3 C92.6,32.5 92.5,32.8 91.4,32.8 C90.9,32.8 90.8,33.9 91.1,35.3 C91.5,36.7 91.4,37.8 91,37.8 C90.5,37.8 90.2,40.4 90.2,43.6 C90.2,46.7 89.9,50.4 89.5,51.8 C88.5,55.4 85.3,79.9 85.5,82.6 C85.7,85.5 85.7,86.4 85.3,92.3 C85.1,95.1 84.6,101.4 84.3,106.3 C83.9,111.3 83.2,116.9 82.8,118.8 C81.9,122.3 82.1,132.6 83.1,138.3 C83.8,142.3 80.2,144.9 72.9,145.9 C69.9,146.3 67.1,147.1 66.8,147.6 C66.5,148.1 64.4,147.7 62,146.7 Z M61.5,100.8 C61.6,90.1 61.9,77.2 62.3,72.2 L62.9,63.1 L52.6,61.9 C46.9,61.2 39.4,60.3 36,59.9 C28.8,59 28.3,59.7 31.8,65.4 C32.9,67.3 33.6,68.8 33.2,68.8 C32.9,68.8 33.3,70 34.1,71.6 C35.6,74.2 40.9,85.7 44.8,94.6 C45.8,96.9 47.1,98.8 47.7,98.8 C48.3,98.8 48.7,99.4 48.6,100.1 C48.3,101.7 49.6,104.5 52.4,108.7 C53.7,110.6 54.7,113.1 54.7,114.4 C54.7,115.6 55.4,117.3 56.2,118.2 C57,119 57.7,120.3 57.7,121 C57.7,121.8 58.3,123 59,123.7 C61,125.7 61.4,122 61.5,100.8 Z" id="Shape"></path>
                <path d="M153.9,145.6 C148.8,145.3 144.3,144.7 144,144.4 C143.6,144.1 144.1,143.8 145,143.8 C146.5,143.8 146.4,143.5 144.7,141.8 C143.6,140.7 142.7,139.1 142.7,138.3 C142.7,137.5 142.3,136.8 141.9,136.8 C140.5,136.8 133.2,116.6 128.3,98.8 C127.4,95.8 125.8,90.4 124.7,86.8 C121.2,76.1 119.6,69.7 120.3,68.7 C120.6,68.2 120.2,67.5 119.4,67.2 C118.7,67 118,66.2 118,65.5 C118,64.8 116.6,59.5 114.8,53.7 C113.1,47.8 111.7,42.1 111.7,40.9 C111.7,39.8 111.3,37.9 110.8,36.6 C110.3,35.3 108.9,30.5 107.7,25.8 C106.5,21.1 104.7,14.6 103.7,11.4 C102.6,8.1 102,5.2 102.2,5 C103.5,3.7 114.6,2.5 125.7,2.4 C138.3,2.3 146.5,3 156,4.9 C158.9,5.5 161.8,6.1 162.4,6.2 C163.1,6.3 164.8,7.4 166.2,8.6 C167.6,9.8 169,10.8 169.3,10.8 C170.4,10.8 177.7,17 184.2,23.5 C188.4,27.7 191,31.3 192.1,34.5 C193.1,37.1 194.6,40.9 195.5,42.8 C197.8,47.8 197.8,49.4 195.6,58 C193.4,66.8 189,74.1 184,77 C180.7,79 180.4,80.8 183.4,80.8 C184.3,80.8 186.5,81.9 188.3,83.3 C190.1,84.7 192.1,85.8 192.6,85.8 C194.2,85.8 197.4,87.9 200.9,91.1 C202.6,92.6 204.2,93.8 204.6,93.8 C207.3,93.8 212.6,109.7 212.8,118.1 C213,128.1 211.2,133.1 206,137.5 C203.5,139.6 200.9,141.8 200.2,142.5 C199.2,143.5 196.4,144.5 192.5,145.4 C192,145.5 191.6,145.6 191.5,145.7 C190.6,146.3 161.7,146.2 153.9,145.6 Z M191.5,135.6 C195.2,133.3 196.2,130.4 195.3,124.5 C194.9,122.2 194.6,119.3 194.6,118.1 C194.7,116.8 194.3,115.8 193.8,115.8 C193.3,115.8 192.6,114 192.2,111.9 C191.8,109.7 190.5,106.9 189.3,105.6 C188,104.3 186.7,102.4 186.3,101.3 C185.6,99 180,92.9 175.3,89.3 C172.2,87 171.2,86.8 160.7,86.8 L149.5,86.8 L150,89.6 C150.3,91.1 151.9,96.4 153.6,101.3 C155.2,106.3 158.6,116.3 160.9,123.7 C164.1,133.6 165.7,137.3 167.2,137.9 C170.8,139.5 187.8,137.9 191.5,135.6 Z M159.7,76.3 C159.7,75.5 160.3,74.8 161.1,74.8 C162.6,74.8 165.8,68 167.7,60.8 C170.7,49.7 167.8,35.4 160.5,24.7 C152.5,12.8 151,11.9 138.5,10.4 C137.5,10.3 136.4,9.9 136.1,9.5 C135.7,9.1 133.4,8.8 131.1,8.8 L126.8,8.8 L128.3,12.3 C129,14.2 129.7,16.8 129.7,18 C129.7,19.3 130.8,23.7 132.1,27.8 C133.3,31.9 134.5,35.8 134.7,36.3 C134.8,36.9 135.3,38.3 135.8,39.6 C136.3,40.9 136.7,42.8 136.7,43.8 C136.7,44.8 137.9,49.4 139.3,54 C140.7,58.6 142.3,63.9 142.7,65.8 C145.3,76 145.8,77 148.2,76.5 C149.5,76.3 151.2,76.5 151.9,76.9 C154.2,78.4 159.7,78 159.7,76.3 Z" id="Shape"></path>
                <path d="M467.8,144 C465.4,143.8 462.4,143 461.1,142.2 C459.8,141.3 458.6,140.7 458.3,140.7 C453.7,141.4 454.1,140.4 459.2,137.9 C467.6,133.9 471.8,132.5 474.7,132.7 C481.2,133 482.5,133 486.9,132.7 C491.1,132.3 491.7,132 491.7,130 C491.7,128.8 491.3,127 490.8,126 C490.2,125.1 487.9,118.2 485.6,110.8 C480.3,93.7 474.9,77 473.6,74.1 C471.3,68.4 470.8,67 469.3,62.3 C468.5,59.6 467.5,55.7 467.1,53.8 C466.1,49.2 466,48.8 465.7,48.6 C465.6,48.4 465.4,47.6 465.2,46.8 C465.1,46 463.7,41.5 462.2,36.8 C460.7,32.1 459.4,27.9 459.3,27.3 C459.1,26.8 458.8,25.6 458.5,24.8 C457.8,22.8 454.9,12.9 454.3,10.3 C454,9.2 454.1,7.7 454.6,6.9 C455.3,5.8 455.7,5.9 456.5,7.4 C457.1,8.4 457.9,8.9 458.3,8.5 C458.8,8 458.5,7.3 457.7,6.7 C456.4,5.9 456.4,5.7 457.7,4.8 C459.4,3.7 463.8,3.4 471.5,3.7 C474.4,3.9 477.3,3.5 478,2.9 C479.9,1.4 483.4,4.1 483.9,7.5 C484.2,9.1 486,15.7 488,22.3 C490,28.9 492,36.1 492.6,38.3 C495.4,50.2 500.8,68 505.7,82.3 C508.6,90.7 510.2,96.1 513.7,109.3 C514.9,113.7 516.7,119 517.8,121 C518.8,123 519.7,125.5 519.7,126.5 C519.8,127.5 520.4,129.4 521.1,130.8 C522.3,132.8 523.2,133.2 526,133 C527.9,132.8 531.3,133.2 533.6,133.8 C535.9,134.4 540.9,134.9 544.8,134.9 C552.6,134.9 554,136.1 551.4,140.2 C549.8,142.6 543.7,144.3 537.2,144.1 C526.8,143.8 473.7,143.6 473,143.9 C472.6,144.1 470.2,144.2 467.8,144 Z" id="Path"></path>
                <path d="M408.3,139.2 C402.2,138.4 399.1,137.5 398.5,136.4 C398,135.6 397,135.1 396.2,135.4 C395,135.9 394.7,135.1 394.7,131.8 C394.7,127.1 392.1,116 390.5,114.1 C390,113.4 389.4,110.6 389.2,107.9 C389.1,105.1 388.5,102.3 388,101.6 C387.5,100.9 386.3,98.1 385.3,95.3 C384.3,92.6 383.1,89.4 382.6,88.3 C382.2,87.2 380.6,82.7 379.2,78.3 C376.3,69.5 376.3,69.5 371.7,58.8 C368.8,51.9 367.3,47.2 366.1,40.8 C365.3,36.7 360.9,29.5 355.4,23.4 C351.2,18.7 349.4,17.5 346.1,16.9 C342,16.1 341.8,16.2 337.6,21 C333.2,25.8 333.2,25.9 333.1,33.6 C333,37.8 333.4,42.2 334,43.3 C334.6,44.4 335.2,46.2 335.4,47.3 C336.1,51.4 340,66.2 340.8,67.7 C341.9,69.7 344.6,82.7 345.4,89.3 C345.7,92.1 346.8,96.2 347.9,98.4 C348.9,100.7 349.9,103.8 350.1,105.2 C350.3,106.7 350.9,108.4 351.5,109 C352.2,109.7 352.7,111.1 352.7,112.1 C352.7,113.1 353.7,115.4 355,117.1 C356.2,118.9 357.3,121 357.4,121.8 C357.6,122.6 357.9,124.7 358.3,126.3 C359,130 356,132.3 351.8,131.3 C349.5,130.8 349.1,130.3 349.5,128.3 C349.7,127 349,123.1 347.9,119.6 C344.8,110.2 336.9,84.7 336.2,81.8 C335.9,80.4 335.2,78.4 334.7,77.3 C332,71.1 325.3,49.2 324.1,42.8 C322.5,33.8 322.3,26.2 323.7,25.3 C324.3,25 324.7,23.9 324.7,22.9 C324.7,21.5 334.8,9.6 335.1,10.6 C335.2,11 337.9,10.2 341.5,8.7 C342.8,8.2 344.7,7.8 345.7,7.8 C346.8,7.8 347.7,7.4 347.7,6.9 C347.7,6.4 349.5,6.1 351.7,6.1 C353.9,6.1 355.7,6.4 355.7,6.8 C355.7,7.1 356.5,7.4 357.5,7.5 C359.2,7.7 363.4,8.4 368.1,9.2 C372.1,9.9 374.4,11.6 378.4,16.5 C380.5,19.2 382.5,21.5 382.8,21.8 C384.3,23.2 391.5,34.6 392.2,36.8 C392.6,38.2 393.7,41.1 394.7,43.3 C395.7,45.5 397.3,50.5 398.2,54.3 C399.2,58.2 400.5,62.4 401.1,63.8 C401.8,65.2 402.3,67 402.2,67.8 C402.1,68.6 402.9,70.5 404,72 C405,73.6 405.5,75.3 405.2,75.9 C404.8,76.5 405.1,77.5 405.9,78.1 C406.7,78.8 408.2,81.4 409.1,84.1 C410.1,86.7 411.5,89.5 412.3,90.2 C413.1,91 413.7,92.5 413.7,93.6 C413.7,94.6 414.3,96.8 415.1,98.4 C415.9,100 417.2,103.1 418.2,105.3 C419.1,107.5 420.7,111.1 421.8,113.3 C422.8,115.5 423.7,118 423.7,118.9 C423.7,119.7 424.1,120.8 424.6,121.4 C425.1,121.9 425.7,123.9 425.8,125.8 C426,127.7 426.3,129.8 426.6,130.3 C427.9,132.7 427.6,135.7 426,137.6 C423.7,140.3 419.2,140.7 408.3,139.2 Z" id="Path"></path>
                <path d="M276.2,135.8 C275.1,135.3 272.2,134.9 269.9,134.9 C263.5,134.8 250.3,128 243.9,121.6 C238.5,116.2 232.9,106.4 228.3,94.3 C226.8,90.5 224.3,84.6 222.7,81.2 C221.2,77.9 218.4,70.7 216.6,65.2 C213.5,56 213.3,54.4 213.3,41.3 C213.2,27.4 213.2,27.2 216.5,20.5 C218.3,16.8 220.8,13.3 222,12.6 C223.2,12 224.8,10.7 225.5,9.6 C226.2,8.6 227.5,7.8 228.3,7.8 C229.1,7.8 229.7,7.4 229.7,7 C229.7,5.9 235.7,2.5 238.2,2.2 C239.3,2.1 242.2,1.5 244.7,0.9 C247.1,0.4 249.4,0.3 249.7,0.7 C250,1.2 251.1,1.4 252.2,1.2 C253.2,1 254.7,1.4 255.4,2 C256.2,2.6 257.7,3.2 259,3.3 C262.7,3.8 266.7,5.7 267.3,7.3 C267.7,8.1 268.3,8.8 268.8,8.8 C270.1,8.8 274.3,12.4 280.1,18.6 C285,23.8 289.3,29.8 288,29.8 C287.7,29.8 288.1,30.6 289,31.6 C290.4,33.2 297.7,48 297.7,49.3 C297.7,49.6 299.2,53.1 301,57.1 C302.9,61.1 305.2,66.1 306.2,68.3 C307.2,70.5 309.9,76.3 312.3,81.2 C319,94.8 323.3,110.9 322.1,117.8 C320.9,124.2 317,130 312.2,132.6 C307.9,134.9 280,137.3 276.2,135.8 Z M286.3,128.3 C286.7,127.5 287.3,127 287.7,127.3 C288.2,127.6 290.9,126.4 293.6,124.7 C299.1,121.4 300.2,119.2 299.3,113.1 C298.7,108.8 292.2,90.1 290.7,88.3 C290.2,87.6 290,86.9 290.3,86.6 C290.7,86.1 289.4,83 281.6,66.3 C280.4,63.6 279.3,61.1 279.2,60.8 C279.1,60.5 278.7,59 278.2,57.3 C277.8,55.7 277,53.7 276.4,53.1 C275.9,52.4 275.8,51.8 276.3,51.8 C276.8,51.8 276.5,51.3 275.7,50.8 C274.9,50.3 274.2,49.5 274.1,49.1 C273.9,46.6 272.4,42.8 271.6,42.8 C271.1,42.8 271,42.2 271.3,41.4 C271.6,40.7 271.2,39.4 270.4,38.7 C269.7,37.9 267.9,34.8 266.5,31.8 C265,28.8 262.7,24.6 261.3,22.5 C259.9,20.4 258.7,18.5 258.7,18.3 C258.7,18.1 257.2,16.4 255.4,14.5 C252,10.8 245.4,8.3 240.4,8.7 C238.9,8.8 235.9,10.1 233.7,11.5 C230.3,13.8 229.6,14.9 228.6,19.6 C227.8,23.8 227.8,25.7 228.7,27.7 C230.9,32.3 232.9,37.6 233.4,40.3 C233.6,41.3 235.1,46.1 236.7,50.9 C238.4,55.6 239.7,60.1 239.7,60.8 C239.7,61.4 240.5,63.2 241.6,64.6 C242.6,66.1 244.2,69.8 245.2,72.8 C246.1,75.8 247.5,79.2 248.2,80.3 C248.8,81.4 249.7,83.5 250.1,85 C251.3,90.3 263.5,113.8 264.9,113.8 C265.3,113.8 265.7,114.5 265.7,115.3 C265.7,116.2 266.4,117.1 267.2,117.4 C268,117.8 268.7,118.5 268.7,119.2 C268.7,119.8 269.8,121.6 271.2,123.2 C272.6,124.8 273.7,126.5 273.7,126.9 C273.7,129.3 285.5,130.6 286.3,128.3 Z" id="Shape"></path>
                <path d="M174.5,5.1 C175.1,4.9 176.3,4.9 177,5.1 C177.6,5.4 177.1,5.6 175.7,5.6 C174.3,5.6 173.8,5.4 174.5,5.1 Z" id="Path"></path>
            </g>
        </g>
    </g>
</svg>