<?xml version="1.0" standalone="no"?>
<!DOCTYPE svg PUBLIC "-//W3C//DTD SVG 20010904//EN"
 "http://www.w3.org/TR/2001/REC-SVG-20010904/DTD/svg10.dtd">
<svg version="1.0" xmlns="http://www.w3.org/2000/svg"
 width="1064.000000pt" height="1136.000000pt" viewBox="0 0 1064.000000 1136.000000"
 preserveAspectRatio="xMidYMid meet">
<metadata>
Created by potrace 1.15, written by Peter Selinger 2001-2017
</metadata>
<g transform="translate(0.000000,1136.000000) scale(0.100000,-0.100000)"
fill="#000000" stroke="none">
<path d="M7150 11154 c-19 -8 -50 -29 -68 -47 -58 -55 -65 -79 -63 -204 1 -69
-3 -113 -9 -113 -9 0 -47 23 -192 115 -155 98 -308 166 -428 189 -51 10 -79
10 -130 0 -148 -28 -157 -32 -258 -131 -50 -49 -74 -82 -86 -118 -24 -66 -30
-241 -11 -310 22 -77 21 -77 -52 -41 -227 112 -560 161 -722 106 -35 -11 -79
-31 -99 -44 -75 -48 -142 -140 -148 -204 -2 -20 -5 -59 -8 -87 -5 -62 19 -206
44 -260 10 -22 31 -67 46 -100 16 -33 30 -64 32 -69 3 -5 -18 -6 -49 -1 -121
19 -267 7 -350 -28 -19 -8 -60 -37 -90 -65 -57 -53 -84 -108 -92 -187 -6 -53
10 -179 27 -220 24 -56 103 -167 171 -239 60 -64 71 -86 42 -86 -30 0 -304
-92 -363 -122 -36 -18 -89 -55 -119 -83 -44 -42 -57 -61 -76 -122 l-22 -72 18
-107 c29 -172 55 -214 254 -413 l166 -166 -50 -24 c-48 -24 -137 -105 -169
-153 -30 -46 -54 -141 -49 -195 4 -45 2 -54 -13 -59 -63 -19 -194 -111 -194
-136 0 -5 -9 -19 -21 -31 -36 -38 -87 -124 -99 -166 -6 -22 -16 -46 -23 -53
-30 -30 -93 -198 -74 -198 3 0 17 20 31 44 14 24 33 46 41 50 9 3 13 11 10 17
-4 6 2 20 12 32 11 12 37 48 59 81 21 32 77 96 123 142 158 157 309 204 476
149 l20 -7 -20 14 c-11 7 -47 18 -80 24 -79 16 -178 -4 -266 -51 -61 -33 -167
-127 -237 -211 l-33 -39 33 60 c18 33 31 61 30 63 -5 6 -1 25 4 19 4 -4 21 12
39 35 91 114 193 170 313 170 141 0 207 -26 277 -106 50 -56 60 -83 17 -45
-64 57 -73 60 -16 4 66 -64 63 -58 80 -210 l7 -60 -29 25 c-16 14 -69 66 -119
117 -82 83 -94 92 -138 98 -102 15 -238 -26 -355 -109 -69 -48 -196 -181 -188
-195 3 -5 -3 -20 -14 -34 -29 -36 -25 -43 6 -10 77 84 99 104 130 119 21 10
46 14 64 10 17 -3 30 -1 30 4 0 11 -20 14 -64 11 -39 -3 -28 9 54 64 93 60
227 113 249 96 54 -39 83 -52 153 -67 53 -12 84 -23 93 -37 12 -17 9 -24 -33
-67 l-46 -48 -35 22 c-54 34 -139 58 -201 58 -95 0 -172 -43 -285 -158 -52
-53 -97 -105 -100 -115 -3 -9 -18 -20 -33 -24 -15 -4 -21 -10 -14 -12 17 -6
15 -28 -3 -43 -9 -7 -13 -15 -11 -18 3 -2 13 4 23 14 17 17 18 17 22 -2 2 -10
8 -22 13 -25 5 -3 10 -12 11 -20 2 -8 7 -21 12 -29 5 -8 10 -25 11 -38 2 -13
9 -32 17 -41 12 -15 37 -69 51 -115 4 -10 9 -16 12 -14 3 3 -1 21 -9 39 -8 19
-14 36 -14 39 0 8 -14 53 -22 75 -62 153 -63 161 -19 139 57 -28 161 -101 221
-154 66 -59 74 -59 20 2 -25 27 -31 37 -17 30 32 -17 86 -82 80 -97 -3 -8 3
-19 12 -27 15 -12 16 -11 3 5 -10 12 -10 17 -2 17 13 0 -19 51 -53 86 -19 18
-85 54 -100 54 -4 0 -41 23 -83 52 l-76 52 54 24 c60 27 93 29 147 6 49 -20
70 -41 97 -95 34 -66 53 -192 33 -217 -8 -9 -7 -11 6 -6 37 14 6 226 -40 272
-24 23 -83 61 -117 75 l-31 13 68 23 c86 29 124 23 301 -44 18 -7 18 -6 5 8
-22 23 -147 69 -203 74 -57 6 -99 -8 -240 -79 -69 -34 -102 -46 -113 -40 -14
8 -11 15 17 48 140 162 236 231 336 239 53 4 176 -30 251 -70 125 -66 204
-169 218 -285 l7 -55 -26 24 c-15 13 -31 20 -38 16 -7 -5 -10 -4 -6 1 3 5 -8
17 -24 27 -17 9 -27 11 -23 5 4 -7 -8 -1 -27 13 -18 13 -49 32 -66 42 l-33 17
0 -32 c0 -84 53 -162 134 -199 44 -20 126 -25 142 -9 6 6 8 -16 6 -63 -4 -83
14 -167 60 -272 17 -38 31 -75 31 -82 0 -7 6 -14 14 -17 33 -13 7 -23 -59 -22
-40 0 -119 -3 -175 -8 -70 -6 -103 -6 -103 1 0 7 -31 10 -80 9 -47 0 -80 3
-80 9 0 6 -5 3 -10 -7 -6 -10 -18 -14 -30 -11 -11 3 -17 9 -14 14 7 12 -98 10
-161 -2 -60 -12 -145 -17 -145 -10 0 11 29 96 29 88 1 -4 10 -3 21 3 16 8 20
21 20 60 0 27 -4 52 -10 55 -6 4 -10 -12 -10 -41 0 -40 -2 -45 -15 -34 -23 19
-41 -3 -49 -61 -11 -80 -63 -213 -88 -224 -20 -9 -21 -18 -22 -117 -1 -60 2
-108 5 -108 4 0 5 -10 1 -22 -4 -17 -2 -20 11 -15 11 4 14 2 10 -9 -3 -7 -8
-14 -12 -14 -4 0 -8 -27 -9 -60 0 -33 -4 -64 -7 -69 -3 -5 -1 -12 3 -15 10 -6
7 -396 -4 -527 -9 -109 -3 -135 33 -142 62 -12 145 -39 205 -67 35 -17 68 -30
74 -30 7 0 14 -7 18 -15 3 -8 12 -15 19 -15 8 0 27 -11 43 -25 16 -14 39 -25
51 -25 13 0 24 -8 28 -21 4 -12 12 -18 21 -15 16 6 54 -22 54 -40 0 -15 28
-26 42 -17 6 3 8 1 5 -4 -8 -12 20 -27 42 -24 7 1 10 -2 7 -8 -4 -5 3 -12 13
-16 11 -3 23 -15 26 -26 4 -10 10 -17 13 -15 12 7 39 -17 46 -42 6 -19 18 -25
42 -21 3 1 19 -12 35 -27 16 -15 29 -24 30 -18 0 5 5 -2 11 -16 6 -14 10 -28
9 -33 0 -4 11 -5 26 -1 22 4 25 3 13 -5 -8 -6 -10 -11 -4 -11 18 0 118 -104
169 -176 27 -38 51 -71 54 -74 5 -4 18 -27 65 -115 6 -11 13 -22 16 -25 16
-14 120 -259 134 -314 4 -15 16 -49 27 -75 33 -72 37 -84 42 -111 3 -14 13
-46 23 -72 10 -26 15 -50 11 -54 -3 -4 -26 2 -49 14 -24 11 -63 26 -88 32 -25
7 -53 16 -62 21 -23 12 -78 12 -78 0 0 -5 19 -12 42 -16 58 -10 216 -70 239
-91 19 -17 43 -85 53 -149 47 -291 47 -296 35 -311 -10 -12 -9 -13 5 -8 13 5
16 -1 16 -27 1 -36 27 -164 29 -140 3 39 14 -8 21 -91 4 -51 9 -97 10 -103 5
-24 -1 -158 -7 -152 -3 4 -10 24 -14 44 -5 26 -7 11 -4 -47 16 -335 17 -345 3
-329 -14 18 -38 109 -59 224 -7 39 -18 84 -26 100 -13 30 -14 29 -8 -15 4 -25
16 -88 27 -140 35 -160 35 -154 6 -138 -29 16 -167 116 -250 180 -33 27 -66
48 -72 48 -6 0 -22 12 -35 26 -14 14 -51 44 -83 65 -49 34 -58 45 -59 72 -1
18 -3 39 -4 47 -1 8 -3 36 -4 63 0 30 -5 46 -13 45 -6 -2 -14 11 -18 27 -4 17
-12 40 -18 50 -13 22 -11 5 9 -98 5 -26 9 -68 9 -92 l0 -44 -47 27 c-27 16
-70 39 -98 51 -60 27 -78 37 -170 90 -38 22 -81 42 -95 46 -18 5 -37 28 -69
86 -60 108 -80 131 -36 41 20 -41 40 -85 45 -98 l10 -24 -36 15 c-20 8 -46 15
-58 15 -12 0 -27 5 -34 12 -7 7 -12 9 -12 5 0 -4 -9 -3 -20 3 -16 9 -19 20
-18 63 3 85 -13 491 -19 507 -4 8 -10 42 -14 75 -7 59 -7 22 6 -445 3 -107 10
-233 16 -280 5 -47 8 -106 5 -133 -2 -26 0 -47 5 -47 5 0 10 6 11 13 10 79 11
194 2 208 -9 15 57 4 96 -16 14 -7 50 -18 80 -25 94 -21 309 -128 424 -211 26
-19 87 -65 137 -102 50 -37 132 -95 182 -129 51 -34 116 -79 145 -101 30 -21
60 -40 68 -41 7 -1 25 -12 38 -25 14 -13 29 -20 35 -16 6 3 11 2 11 -4 0 -14
41 -51 50 -46 4 3 15 -6 24 -20 9 -14 20 -25 25 -25 13 0 112 -100 173 -175
61 -75 67 -81 143 -137 28 -20 102 -90 166 -155 115 -118 187 -210 228 -290
12 -23 34 -57 49 -75 40 -46 102 -161 221 -409 89 -185 120 -279 130 -399 5
-53 19 -128 30 -168 19 -64 25 -72 46 -72 16 0 25 6 25 15 0 19 14 19 30 0 11
-13 235 -15 1901 -15 l1889 0 0 1171 0 1171 -22 -7 c-51 -15 -187 -38 -201
-32 -13 5 -397 754 -397 775 0 13 32 20 165 36 61 8 117 17 125 20 12 5 44
-48 142 -241 70 -137 141 -273 157 -303 l31 -55 -1 1870 c0 1029 -3 1865 -5
1858 -6 -15 -168 -18 -629 -15 -104 1 -248 0 -318 -3 l-128 -6 17 26 c9 13 19
23 23 20 15 -9 76 158 65 176 -5 8 -3 9 6 4 10 -6 12 -1 8 18 -3 15 -1 28 4
29 27 9 7 134 -34 216 -28 55 -57 78 -125 98 -29 8 -53 19 -53 24 0 5 5 44 11
87 12 82 47 174 79 208 22 24 80 143 80 165 0 9 5 21 12 28 6 6 14 49 16 95 4
73 0 99 -33 218 -21 74 -40 145 -42 159 -5 28 -7 30 47 -69 11 -20 30 -79 43
-131 39 -155 21 -249 -85 -438 -55 -100 -87 -175 -102 -247 -6 -30 -6 -30 11
-10 24 28 108 33 153 10 40 -21 119 -21 158 -1 47 24 87 70 101 116 11 37 10
47 -9 87 -11 24 -41 64 -65 89 -25 24 -45 47 -45 49 0 3 16 5 36 5 45 0 149
44 187 79 115 104 55 286 -138 417 -27 19 -48 34 -45 35 3 0 31 3 63 5 70 5
138 30 226 83 91 55 141 124 162 222 10 45 8 58 -17 132 -43 126 -105 192
-273 292 -28 17 -49 34 -47 40 1 5 24 18 50 28 62 23 166 91 234 152 90 81
124 184 88 267 -8 18 -20 47 -26 65 -25 67 -132 147 -262 194 l-57 21 26 47
c15 25 34 57 43 71 95 147 94 359 -1 459 -64 66 -132 93 -237 94 -81 1 -205
-13 -261 -29 -21 -6 -23 -5 -17 12 19 50 48 226 47 289 -2 130 -17 184 -72
270 -35 53 -54 69 -119 99 -94 44 -222 33 -360 -32 -19 -9 -42 -22 -50 -29
-75 -60 -111 -83 -106 -66 3 10 12 56 21 103 8 47 20 101 26 120 6 19 13 53
15 75 3 22 6 48 8 57 7 33 -25 116 -58 151 -18 19 -52 45 -76 57 -44 23 -87
23 -190 3 -93 -19 -228 -141 -295 -268 -52 -96 -59 -90 -33 30 10 50 17 107
14 128 -13 109 -147 187 -252 147 -33 -13 -149 -103 -184 -143 -45 -53 -80
-110 -97 -157 l-17 -47 -17 34 c-10 19 -21 48 -24 64 -4 16 -11 31 -16 35 -5
3 -18 22 -28 42 -53 103 -165 195 -283 233 -73 23 -188 25 -238 3z m129 -904
c97 -26 157 -48 202 -76 117 -73 280 -131 412 -149 70 -9 50 -18 -42 -17 -75
1 -154 15 -176 32 -5 4 -37 17 -69 29 -33 12 -74 29 -90 38 -62 32 -70 36
-125 55 -226 80 -398 59 -636 -79 -44 -25 -93 -57 -109 -70 -16 -13 -69 -45
-118 -69 -155 -78 -286 -118 -423 -129 -92 -8 -293 -63 -380 -104 -71 -33
-142 -94 -194 -165 -20 -28 -72 -122 -115 -210 -83 -168 -91 -178 -251 -321
-81 -73 -135 -146 -161 -218 -8 -23 -19 -94 -25 -157 -15 -184 -25 -185 -23
-3 2 241 29 310 166 426 122 103 135 121 208 282 18 39 43 93 56 122 13 28 24
55 24 58 0 3 18 32 39 64 99 145 249 224 511 271 230 40 454 122 541 197 9 8
32 22 50 32 19 9 80 43 136 74 123 69 197 93 323 106 114 11 168 7 269 -19z
m1254 -373 c185 -207 245 -256 377 -307 130 -50 177 -80 253 -159 118 -124
142 -175 202 -441 38 -168 70 -246 133 -330 56 -73 97 -160 116 -243 29 -124
14 -147 -18 -28 -20 72 -38 108 -104 201 -63 90 -93 146 -108 202 -8 26 -21
72 -29 101 -8 28 -19 61 -24 72 -5 11 -19 56 -31 100 -31 112 -92 222 -147
265 -24 19 -52 43 -63 52 -25 22 -150 83 -223 108 -67 22 -169 95 -210 148
-15 20 -65 86 -109 147 -97 130 -121 155 -221 229 -42 31 -79 61 -83 67 -3 6
44 -15 105 -46 99 -51 119 -65 184 -138z m-823 -722 c58 -10 143 -30 190 -45
47 -15 119 -38 160 -50 137 -42 444 -234 550 -345 25 -26 68 -64 96 -85 46
-35 55 -48 94 -142 23 -57 46 -110 51 -118 5 -8 13 -24 18 -35 5 -11 30 -47
54 -79 51 -67 82 -155 93 -261 3 -38 8 -79 9 -90 5 -32 39 -119 58 -149 72
-109 93 -170 90 -261 -5 -161 -2 -188 42 -335 9 -30 21 -111 27 -180 9 -106 8
-147 -6 -260 -10 -74 -26 -166 -37 -205 -23 -80 -38 -280 -19 -255 9 13 11 12
8 -5 -2 -13 -14 -21 -37 -26 -43 -9 -335 -19 -676 -24 -143 -2 -300 -5 -348
-8 -75 -4 -90 -2 -95 12 -3 8 -20 27 -36 41 -17 14 -50 45 -73 69 -23 25 -45
42 -48 39 -8 -7 60 -85 109 -126 22 -19 32 -32 23 -32 -9 0 -19 5 -22 10 -3 6
-21 17 -38 26 l-32 16 30 -26 c17 -14 26 -26 20 -27 -5 0 -38 -2 -72 -4 -68
-4 -53 -14 -168 113 -27 29 -50 50 -52 48 -2 -2 16 -35 41 -74 26 -39 46 -75
46 -81 0 -7 -44 -11 -127 -12 -71 0 -135 -2 -144 -4 -9 -1 -88 -6 -175 -9 -88
-4 -201 -9 -251 -12 -51 -3 -97 -3 -102 0 -5 4 -6 20 -1 39 16 65 19 117 5
117 -14 0 -34 -39 -60 -117 l-17 -53 -51 -1 c-337 -10 -796 -13 -817 -5 -8 3
-251 7 -539 9 -433 4 -525 7 -532 18 -68 102 -95 171 -111 289 -9 73 -9 93 6
142 37 127 135 179 242 127 40 -19 66 -44 122 -114 24 -33 24 -32 28 -163 l2
-93 -59 120 c-64 128 -103 172 -167 186 l-33 7 49 -49 c84 -85 176 -239 223
-378 41 -122 67 -109 49 24 -5 42 -8 123 -6 181 1 58 -3 148 -11 200 -13 96
-20 365 -10 410 4 14 9 72 12 130 8 146 23 275 40 360 1 3 5 25 9 50 7 45 31
129 87 310 16 52 51 142 78 200 27 58 58 127 70 153 38 85 183 249 323 366 36
31 98 84 137 118 158 139 544 326 731 353 30 5 118 21 195 36 77 14 185 30
240 34 149 11 396 4 515 -15z m-2840 -902 c0 -16 10 -48 21 -73 72 -156 85
-235 65 -377 -17 -119 -8 -181 38 -269 45 -86 53 -146 32 -237 -32 -136 -18
-212 57 -310 36 -47 53 -84 44 -94 -10 -10 -114 142 -130 191 -21 62 -21 116
-1 203 21 92 15 134 -37 234 -48 93 -49 100 -38 374 4 101 2 114 -20 155 -40
75 -68 230 -41 230 6 0 10 -12 10 -27z m4671 -1459 c67 -27 112 -121 110 -229
-1 -27 -12 -92 -25 -144 -14 -51 -22 -101 -19 -110 4 -12 3 -13 -5 -3 -7 10
-12 6 -22 -17 -6 -17 -18 -35 -25 -41 -16 -13 -355 -23 -355 -10 0 43 83 373
111 437 48 113 132 156 230 117z m-278 -114 c-7 -28 -13 -25 -13 6 0 14 4 23
9 20 5 -3 7 -15 4 -26z m-5209 -585 c-6 -16 -24 -21 -24 -7 0 11 11 22 21 22
5 0 6 -7 3 -15z m4774 -68 c13 -23 66 -125 119 -227 52 -102 104 -200 115
-218 11 -18 18 -36 15 -39 -4 -3 -48 -9 -99 -14 -51 -5 -113 -14 -137 -19 -24
-6 -45 -10 -46 -8 -8 8 -223 446 -229 465 -6 19 -2 23 36 34 24 6 77 24 118
39 41 16 77 28 80 29 3 0 15 -18 28 -42z m-2963 -64 c39 -8 73 -18 77 -22 4
-3 -22 -51 -57 -106 -35 -55 -81 -128 -101 -162 -21 -35 -41 -63 -44 -63 -40
2 -233 39 -241 47 -7 7 19 58 87 164 54 85 102 157 107 160 12 9 89 1 172 -18z
m-420 -573 c133 -19 145 -21 145 -25 0 -10 -283 -455 -289 -455 -4 0 -34 8
-67 19 -32 10 -85 24 -116 30 -32 7 -58 15 -58 18 0 2 37 64 82 136 44 73 104
169 132 215 41 66 55 82 71 78 11 -2 56 -10 100 -16z m3858 -272 c65 -121 277
-534 277 -540 0 -3 -30 -8 -67 -11 -38 -4 -95 -10 -128 -14 -119 -14 -92 -44
-262 292 -84 165 -151 304 -150 309 3 10 16 13 87 22 25 3 68 9 95 13 103 17
99 20 148 -71z m-4319 -482 c54 -19 103 -39 109 -45 10 -10 -94 -188 -142
-239 l-24 -26 -10 22 c-5 12 -19 24 -30 28 -11 3 -37 24 -58 45 -21 22 -50 44
-65 49 -26 10 -26 11 -8 38 79 121 108 162 118 162 6 0 55 -16 110 -34z m4969
-774 c77 -150 137 -275 135 -276 -3 -3 -233 -27 -286 -30 -21 -1 -39 30 -162
269 -77 149 -140 275 -140 281 0 13 141 29 250 29 l64 0 139 -273z m-4416
-1589 c-3 -10 -5 -4 -5 12 0 17 2 24 5 18 2 -7 2 -21 0 -30z m57 -319 c4 -10
1 -14 -6 -12 -15 5 -23 28 -10 28 5 0 13 -7 16 -16z"/>
<path d="M8310 7654 c-165 -13 -344 -70 -371 -120 -7 -13 -18 -24 -24 -24 -7
0 -16 -15 -20 -32 -7 -33 -7 -33 -15 -8 -6 20 -8 16 -9 -23 -1 -56 18 -108 49
-130 44 -30 192 -3 345 63 39 17 115 38 165 47 14 2 78 7 143 10 112 5 122 4
220 -26 56 -18 124 -43 151 -58 39 -21 50 -23 57 -12 7 11 11 10 23 -6 9 -11
16 -16 16 -12 0 14 -83 137 -93 137 -5 0 0 -12 11 -27 49 -72 40 -68 -29 12
-23 28 -48 50 -54 50 -7 0 -29 16 -51 34 -97 86 -317 139 -514 125z"/>
<path d="M7841 7425 c-1 -37 29 -104 58 -129 37 -33 35 -9 -3 30 -22 23 -38
50 -42 73 -8 52 -12 60 -13 26z"/>
<path d="M5825 7246 c-33 -7 -78 -23 -100 -35 -92 -52 -130 -78 -130 -92 0 -8
-7 -20 -15 -27 -11 -9 -5 -9 25 1 104 36 124 41 182 43 60 3 74 0 172 -34 87
-29 238 -126 386 -247 116 -94 223 -162 273 -171 23 -5 46 -1 71 11 l36 17
-20 -23 -20 -23 35 22 c19 11 43 36 52 54 19 35 24 113 8 123 -6 4 -10 -12
-10 -40 0 -57 -15 -51 -23 8 -8 54 -27 98 -39 91 -5 -3 -4 -12 3 -20 6 -8 9
-17 7 -20 -3 -3 -16 11 -28 31 -12 19 -26 32 -31 29 -6 -3 -24 5 -42 19 -97
74 -437 253 -523 276 -66 17 -204 21 -269 7z"/>
<path d="M9106 7053 c25 -57 30 -231 10 -316 -20 -84 -19 -94 1 -42 25 65 30
263 8 336 -10 32 -22 59 -27 59 -4 0 -1 -17 8 -37z"/>
<path d="M8640 7019 c-124 -20 -207 -53 -304 -118 -62 -42 -147 -123 -196
-187 -74 -95 -171 -254 -155 -254 2 0 12 15 21 33 19 37 92 146 110 164 7 7
16 13 20 13 4 0 16 8 27 18 15 12 12 4 -9 -28 -41 -65 -51 -80 -73 -125 -25
-50 -42 -95 -36 -95 6 0 51 70 78 120 39 72 157 206 236 268 48 39 201 112
276 133 133 36 260 0 313 -89 25 -43 27 -56 27 -147 0 -93 -23 -217 -43 -237
-4 -3 -70 -11 -147 -17 -77 -7 -150 -14 -162 -16 -32 -7 -28 7 7 27 40 23 88
100 96 155 8 54 -11 125 -44 165 -30 36 -92 68 -129 68 -113 -1 -229 -156
-208 -278 12 -71 75 -142 128 -142 9 0 17 -4 17 -8 0 -5 -62 -17 -137 -27
-194 -25 -230 -35 -103 -29 101 4 145 9 200 20 16 4 22 2 15 -4 -16 -16 -224
-48 -345 -53 l-45 -2 45 -8 c57 -10 229 -10 306 1 243 32 367 52 389 60 15 6
38 10 52 10 16 0 27 7 30 20 3 11 12 20 20 20 8 0 11 5 8 10 -3 6 1 13 9 16
19 7 83 132 92 178 3 20 11 34 17 33 5 -1 14 16 19 38 25 110 -39 232 -148
281 -67 30 -146 34 -274 13z m307 -81 c11 -13 23 -30 27 -38 4 -8 -2 -4 -14 9
-12 14 -29 30 -38 38 -9 7 -12 13 -6 13 6 0 20 -10 31 -22z m-338 -108 c173
-88 102 -359 -94 -360 -88 0 -135 45 -149 143 -9 57 17 116 75 173 69 67 105
77 168 44z m388 -57 c-3 -10 -5 -2 -5 17 0 19 2 27 5 18 2 -10 2 -26 0 -35z
m50 5 c-3 -7 -5 -2 -5 12 0 14 2 19 5 13 2 -7 2 -19 0 -25z m-822 -8 c-10 -11
-23 -20 -28 -20 -6 0 -2 9 8 20 10 11 23 20 28 20 6 0 2 -9 -8 -20z m825 -50
c0 -11 -4 -20 -9 -20 -5 0 -7 9 -4 20 3 11 7 20 9 20 2 0 4 -9 4 -20z"/>
<path d="M8519 6704 c-49 -25 -45 -104 5 -104 31 0 56 30 56 68 0 40 -25 55
-61 36z m41 -32 c0 -23 -35 -57 -44 -43 -4 5 -4 22 0 36 7 30 44 36 44 7z"/>
<path d="M6948 6932 c5 -127 -47 -242 -147 -326 -35 -30 -40 -37 -21 -31 41
12 133 73 156 103 28 36 54 113 54 161 0 55 -18 144 -33 158 -9 10 -11 -4 -9
-65z"/>
<path d="M7797 6901 c-16 -74 7 -245 36 -270 16 -12 15 11 -2 90 -6 30 -15 91
-19 135 -6 67 -9 74 -15 45z"/>
<path d="M5471 6831 c-16 -65 -19 -228 -4 -255 8 -15 12 6 18 95 4 63 5 137 3
164 l-3 50 -14 -54z"/>
<path d="M5780 6723 c-14 -7 -32 -13 -41 -13 -24 0 -123 -63 -159 -101 -36
-39 -75 -117 -84 -171 -6 -32 -4 -36 12 -31 10 2 27 21 38 41 30 56 144 164
202 191 29 14 54 22 57 19 3 -3 -2 -22 -11 -44 -24 -58 -16 -150 19 -203 l27
-41 -62 -1 c-35 -1 -79 -3 -98 -4 -19 -2 -51 -4 -70 -5 l-35 -2 34 -15 c45
-19 854 -33 865 -14 4 6 17 12 29 12 69 4 -120 26 -238 28 -76 1 -140 3 -142
4 -1 2 7 21 18 43 24 50 36 162 20 192 -15 28 -14 28 66 -10 101 -46 163 -89
242 -164 39 -37 74 -64 77 -61 3 3 -9 19 -28 36 -18 17 -25 28 -15 25 9 -3 17
-9 17 -13 0 -9 51 -34 57 -28 7 8 -89 87 -98 81 -5 -3 -8 0 -7 8 2 7 -3 12
-10 10 -6 -1 -11 4 -10 10 2 7 -3 12 -10 10 -8 -1 -11 2 -7 7 8 14 -110 100
-204 148 -91 47 -197 78 -220 63 -7 -4 4 -7 22 -8 35 -1 84 -17 167 -54 54
-24 193 -113 211 -134 12 -14 -60 25 -121 66 -70 47 -261 119 -319 120 -3 0 1
5 9 10 23 15 -170 8 -200 -7z m336 -89 c43 -53 43 -163 1 -226 l-23 -33 -106
-3 -105 -3 -31 36 c-45 51 -59 104 -44 172 19 92 26 96 166 91 117 -5 120 -6
142 -34z"/>
<path d="M5938 6555 c-8 -18 -9 -35 -2 -53 18 -52 104 -33 104 23 0 53 -81 76
-102 30z m76 -11 c8 -20 -10 -54 -29 -54 -18 0 -38 37 -31 56 7 19 52 18 60
-2z"/>
<path d="M4914 6434 c4 -53 39 -148 63 -174 12 -13 13 -13 8 5 -4 11 -10 29
-15 40 -4 11 -20 56 -34 100 -26 79 -26 80 -22 29z"/>
<path d="M8966 6385 c-3 -9 -6 -22 -5 -28 0 -7 5 -1 10 12 5 13 8 26 5 28 -2
2 -6 -3 -10 -12z"/>
<path d="M6634 6243 c-26 -32 -54 -66 -62 -75 -9 -10 -10 -18 -4 -18 9 0 96
102 116 138 16 27 -4 9 -50 -45z"/>
<path d="M6666 6229 c-62 -77 -71 -101 -14 -41 32 33 85 112 76 112 -2 0 -30
-32 -62 -71z"/>
<path d="M9484 6714 c-84 -41 -159 -153 -169 -254 l-6 -55 21 30 c11 17 28 46
37 65 26 55 73 120 126 178 50 53 48 64 -9 36z"/>
<path d="M9520 6653 c0 -5 5 -14 11 -20 21 -21 21 -133 0 -218 -11 -44 -18
-81 -17 -83 2 -1 15 25 30 58 36 81 43 157 17 214 -17 41 -41 68 -41 49z"/>
<path d="M4435 10999 c-38 -5 -77 -12 -85 -16 -21 -9 -27 -10 -50 -12 -10 0
-37 -18 -60 -39 -34 -33 -40 -45 -40 -80 0 -96 46 -125 231 -148 159 -21 524
-15 580 9 73 30 101 115 59 182 -48 78 -147 106 -390 110 -96 2 -206 -1 -245
-6z"/>
<path d="M9785 10863 c-114 -6 -162 -22 -220 -77 l-54 -51 4 -70 c8 -112 13
-128 58 -178 59 -67 139 -93 307 -101 188 -9 226 -20 274 -77 18 -21 26 -42
26 -69 0 -45 51 -128 92 -147 40 -20 178 -35 273 -32 l84 4 4 -95 c2 -52 1 69
-1 270 -2 201 -5 385 -7 410 -2 25 -4 86 -5 135 -1 50 -4 84 -7 78 -3 -9 -17
-11 -41 -8 -38 6 -699 12 -787 8z"/>
<path d="M1697 10634 c-1 -1 -51 -4 -112 -8 -121 -6 -141 -9 -200 -24 -22 -6
-56 -14 -75 -17 -119 -20 -235 -149 -210 -234 21 -74 87 -141 155 -157 17 -4
34 -9 39 -12 19 -11 65 -14 291 -17 489 -6 547 -24 515 -161 -10 -42 -10 -55
3 -80 20 -39 55 -70 97 -88 85 -35 154 -38 799 -38 668 1 779 5 788 29 5 12 7
12 14 2 6 -10 31 -11 128 -2 183 18 249 56 258 150 11 115 -39 183 -148 201
-179 31 -147 30 -484 17 -450 -17 -636 -3 -697 52 -38 34 -12 73 50 73 52 0
129 29 146 55 31 47 11 130 -38 154 -39 18 -200 59 -301 75 -122 19 -326 28
-718 30 -164 0 -299 0 -300 0z"/>
<path d="M1913 9687 c-111 -57 -190 -148 -269 -307 -78 -158 -94 -224 -110
-435 -11 -157 -12 -181 -4 -160 5 11 9 32 9 46 1 15 8 32 16 39 8 6 17 21 21
33 16 51 108 185 184 267 81 87 131 151 125 160 -3 5 0 10 8 10 15 0 84 132
89 172 2 12 9 32 15 43 6 11 14 38 18 60 4 22 9 47 11 56 5 18 -20 49 -39 49
-7 -1 -40 -15 -74 -33z m73 -39 c-4 -24 -18 -73 -30 -110 -16 -46 -20 -69 -12
-72 6 -2 5 -5 -4 -5 -8 -1 -26 -26 -38 -55 -26 -59 -81 -140 -90 -132 -2 3 6
20 20 38 31 41 40 66 28 73 -6 4 -10 2 -10 -4 0 -5 -6 -16 -12 -23 -16 -16
-47 -71 -94 -163 -20 -38 -54 -87 -76 -109 -22 -21 -55 -71 -74 -110 -19 -39
-34 -66 -34 -60 0 18 36 116 69 186 17 36 31 70 31 74 0 4 20 47 45 97 25 50
40 85 32 79 -8 -7 -33 -51 -56 -100 -85 -177 -111 -226 -106 -202 3 14 12 61
20 104 8 44 23 98 33 120 90 187 109 220 159 275 65 73 88 87 109 70 12 -10
14 -8 12 11 -2 16 6 27 32 41 49 27 53 24 46 -23z m-200 -416 c-17 -16 -18
-16 -5 5 7 12 15 20 18 17 3 -2 -3 -12 -13 -22z"/>
<path d="M1900 9585 c0 -8 4 -15 10 -15 5 0 7 7 4 15 -4 8 -8 15 -10 15 -2 0
-4 -7 -4 -15z"/>
<path d="M1897 9554 c-4 -4 -7 -17 -7 -28 1 -19 1 -20 11 -3 11 19 8 43 -4 31z"/>
<path d="M1880 9475 c0 -13 -4 -35 -9 -48 -6 -14 -7 -28 -3 -31 4 -5 42 76 42
90 0 1 -7 4 -15 8 -11 4 -15 -1 -15 -19z"/>
<path d="M940 9433 c-81 -6 -198 -27 -244 -45 -96 -37 -202 -127 -269 -226
-17 -26 -37 -51 -44 -55 -7 -4 -13 -12 -13 -16 0 -12 33 -10 50 4 8 7 33 18
55 25 22 7 56 21 76 31 54 27 221 58 266 49 102 -20 253 -114 391 -244 41 -38
119 -168 90 -149 -7 4 -53 34 -101 66 -84 55 -130 76 -242 109 -77 22 -182 8
-252 -34 -55 -33 -141 -122 -192 -197 -14 -22 -45 -66 -69 -100 -52 -74 -101
-162 -112 -202 -16 -55 13 -27 61 60 26 45 56 92 67 104 12 12 20 26 19 30 -1
4 13 29 31 55 18 26 43 63 55 82 13 19 38 43 57 53 24 12 27 15 10 11 l-25 -7
20 24 c34 40 58 58 113 85 49 25 60 26 145 22 98 -5 196 -39 233 -79 9 -11 23
-19 31 -19 7 0 13 -3 13 -8 0 -4 21 -17 48 -29 47 -22 152 -107 152 -123 0 -5
-42 13 -92 40 -88 46 -224 97 -233 88 -3 -3 19 -12 48 -21 29 -9 101 -42 161
-72 59 -30 111 -53 114 -51 8 5 48 -22 45 -29 -1 -3 5 -21 13 -41 8 -20 14
-39 12 -43 -2 -5 -41 4 -88 19 -65 21 -115 30 -210 35 l-125 7 -89 -36 c-76
-31 -99 -45 -156 -103 -61 -62 -69 -75 -93 -153 -38 -125 -47 -175 -49 -275
-2 -98 3 -155 13 -155 9 0 30 27 33 42 2 12 10 28 44 83 6 11 25 45 42 77 31
59 102 164 142 210 25 28 105 74 114 65 3 -3 -1 -18 -9 -34 -15 -29 -32 -94
-41 -153 -5 -31 -4 -33 8 -17 7 9 16 37 20 62 12 93 71 185 116 185 20 0 70
23 70 32 0 13 -63 -6 -185 -55 -110 -44 -201 -107 -235 -162 -12 -19 -23 -35
-26 -35 -5 0 35 101 50 125 7 11 16 29 19 40 12 36 -51 -46 -80 -104 -34 -69
-32 -65 -37 -60 -7 7 30 142 52 191 27 58 106 129 192 170 56 28 76 32 145 32
114 0 195 -5 195 -14 0 -4 -26 -10 -57 -14 -74 -8 -146 -30 -181 -54 -15 -11
-38 -22 -52 -26 -14 -3 -36 -15 -50 -26 -17 -13 7 -7 74 20 143 57 198 67 293
51 87 -14 108 -15 141 -6 l23 6 -22 -43 c-12 -24 -33 -57 -46 -74 -13 -17 -39
-69 -59 -115 -20 -46 -52 -115 -71 -154 -20 -38 -31 -65 -25 -60 15 14 57 89
84 150 31 71 93 187 123 231 14 20 25 41 25 45 0 5 4 9 10 9 12 0 3 -69 -11
-87 -6 -7 -9 -20 -5 -28 3 -8 2 -15 -3 -15 -5 0 -12 -16 -15 -35 -8 -43 -94
-217 -113 -228 -7 -5 -11 -12 -8 -17 3 -5 -4 -25 -16 -44 -11 -20 -18 -36 -13
-36 4 0 0 -8 -8 -17 -8 -10 -31 -70 -52 -133 -54 -166 -57 -174 -68 -158 -7 9
-8 5 -4 -12 3 -17 -5 -43 -24 -78 -31 -58 -25 -69 13 -21 27 34 30 32 41 -31
6 -40 55 -143 79 -168 17 -18 23 -40 27 -97 l5 -73 -320 0 c-176 1 -333 -2
-350 -5 -16 -3 -68 -9 -114 -12 -47 -4 -95 -11 -108 -16 -14 -5 -35 -9 -48 -9
-66 0 -166 -56 -180 -101 -10 -29 20 -83 61 -111 52 -35 160 -65 264 -73 107
-8 449 -7 641 1 171 8 158 17 159 -116 1 -47 2 -103 2 -125 2 -75 -2 -438 -5
-442 -7 -6 -132 -6 -307 1 -102 4 -249 7 -327 7 -79 0 -143 3 -143 7 0 4 -39
7 -88 8 -153 2 -336 26 -410 55 -22 9 -22 8 -22 -84 l0 -92 67 -13 c65 -12
203 -57 313 -102 58 -23 167 -41 393 -64 76 -8 144 -19 150 -24 12 -10 92 -36
137 -45 14 -3 76 -21 138 -40 62 -19 114 -32 116 -28 13 22 30 398 28 646 0
28 0 143 -1 258 -1 114 1 211 4 216 3 5 1 12 -3 15 -7 4 -27 370 -24 439 0 9
-6 17 -14 17 -7 0 -24 21 -36 48 -12 26 -26 49 -30 50 -4 2 -8 12 -8 23 0 10
-7 19 -15 19 -8 0 -14 3 -13 8 3 14 -14 82 -22 87 -5 3 2 29 14 58 13 28 33
84 45 122 41 126 84 228 138 332 30 55 56 112 59 125 9 38 9 40 32 108 11 36
22 88 24 115 3 42 0 50 -14 49 -10 -1 -18 2 -18 7 0 19 33 7 59 -21 71 -79
117 -196 174 -455 3 -13 5 -9 6 11 0 17 -8 66 -19 110 -12 43 -25 112 -31 153
-7 46 -19 88 -35 112 -13 21 -24 41 -24 44 0 3 -17 24 -37 46 -36 39 -44 41
-85 24 -13 -5 -21 3 -36 37 -11 24 -38 60 -60 82 -24 22 -38 44 -35 53 5 13
-23 102 -36 113 -3 3 -28 34 -56 70 -27 36 -65 78 -83 93 -48 43 -193 137
-222 144 -14 3 -31 10 -38 16 -7 6 -50 12 -94 13 -84 3 -235 -28 -298 -61 -64
-33 -55 -8 28 82 33 37 141 99 184 107 31 5 58 18 58 27 0 6 10 9 23 8 12 -2
27 0 32 3 26 16 112 17 164 2 203 -59 328 -198 398 -441 16 -59 18 -61 30 -40
8 14 10 40 6 72 -7 65 -22 81 -17 18 4 -44 3 -42 -14 24 -10 39 -34 98 -53
129 -45 77 -153 183 -214 212 -28 13 -63 30 -80 39 -42 21 -74 29 -115 26z
m-219 -1294 c-23 -41 -41 -67 -40 -59 0 8 8 29 17 45 66 114 83 125 23 14z
m-74 -26 c-3 -10 -5 -4 -5 12 0 17 2 24 5 18 2 -7 2 -21 0 -30z m413 -1877 c0
-3 -4 -8 -10 -11 -5 -3 -10 -1 -10 4 0 6 5 11 10 11 6 0 10 -2 10 -4z"/>
<path d="M1426 9398 c-4 -24 -10 -56 -13 -73 -2 -16 -6 -62 -8 -102 -1 -39 -5
-75 -8 -80 -3 -5 0 -27 8 -49 13 -38 13 -37 15 61 1 88 5 150 10 150 1 0 3 18
5 40 3 22 7 52 9 68 3 15 2 27 -3 27 -5 0 -12 -19 -15 -42z"/>
<path d="M1464 9384 c-9 -34 -10 -295 -1 -369 3 -33 9 -125 11 -205 5 -119 8
-146 21 -148 12 -3 15 7 15 45 0 26 -4 64 -9 83 -12 46 -23 275 -24 468 0 83
-1 152 -3 152 -2 0 -7 -11 -10 -26z"/>
<path d="M744 9341 c-54 -34 -80 -61 -109 -110 -11 -19 50 24 67 47 11 14 65
59 102 84 6 4 8 9 5 12 -2 3 -32 -12 -65 -33z"/>
<path d="M1947 9274 c-32 -8 -68 -21 -80 -30 -20 -15 -20 -16 -2 -9 148 55
272 58 324 6 26 -26 61 -30 40 -5 -42 50 -164 67 -282 38z"/>
<path d="M1070 9255 c0 -2 15 -12 33 -21 67 -34 187 -188 235 -299 15 -36 21
-43 22 -26 1 69 -122 248 -214 310 -41 28 -76 44 -76 36z"/>
<path d="M2260 9171 c0 -5 7 -15 17 -22 15 -13 15 -12 4 9 -12 23 -21 28 -21
13z"/>
<path d="M1871 9131 c-106 -42 -139 -66 -209 -156 -83 -105 -83 -106 4 -23 44
43 88 84 99 92 54 37 190 106 228 115 l42 9 -39 -1 c-22 -1 -78 -17 -125 -36z"/>
<path d="M2300 9094 c0 -13 18 -39 24 -34 2 3 -2 14 -10 24 -8 11 -14 16 -14
10z"/>
<path d="M2326 9018 c4 -18 7 -41 6 -50 -1 -19 24 -43 32 -30 7 12 -4 52 -15
52 -5 0 -6 7 -3 15 4 8 1 15 -5 15 -6 0 -8 7 -5 15 4 8 1 15 -6 15 -8 0 -9
-10 -4 -32z"/>
<path d="M1915 9033 c-52 -11 -85 -26 -86 -36 0 -7 -35 -29 -77 -49 -42 -20
-96 -53 -120 -73 -38 -34 -102 -114 -102 -130 0 -4 23 11 51 34 114 90 291
119 403 65 l31 -15 -22 20 c-34 29 -152 47 -217 34 -28 -6 -60 -15 -71 -19
-37 -13 -3 13 66 50 36 20 97 47 135 60 58 21 70 22 77 10 5 -8 12 -12 16 -9
5 2 14 -2 21 -10 7 -8 19 -15 26 -15 8 0 14 -3 14 -7 0 -5 23 -24 51 -43 28
-19 64 -51 81 -72 16 -21 34 -38 39 -38 6 0 7 5 4 10 -3 6 1 10 9 10 9 0 15
-6 13 -12 -1 -7 3 -12 10 -11 7 2 10 -4 6 -13 -3 -8 -11 -13 -18 -10 -8 3 -11
-2 -8 -15 3 -10 9 -19 13 -19 4 0 11 -11 14 -25 4 -14 11 -25 17 -25 14 0 1
42 -19 58 -12 9 -12 12 -3 12 36 0 129 -173 137 -255 5 -49 6 -196 2 -201 -3
-2 -28 31 -57 73 -47 69 -51 79 -36 89 12 9 17 32 20 86 3 68 -5 98 -26 98
-13 0 -11 -34 2 -47 6 -6 8 -21 4 -34 -7 -22 -8 -22 -25 12 -10 19 -38 49 -61
68 l-44 34 30 -34 c17 -18 33 -36 36 -39 3 -3 14 -23 25 -45 10 -22 22 -43 27
-46 6 -4 7 -15 3 -25 -6 -16 -11 -14 -41 19 -19 20 -39 37 -45 37 -7 0 -31 16
-54 35 -42 34 -244 134 -281 139 -11 1 -42 13 -70 26 -45 21 -54 22 -111 11
-34 -6 -77 -18 -96 -26 -32 -15 -31 -15 37 -8 39 4 84 7 100 7 42 -1 137 -48
175 -87 37 -38 122 -211 113 -232 -3 -8 -1 -15 5 -15 28 0 38 -124 22 -269
-14 -118 -29 -165 -30 -88 0 26 -4 47 -9 47 -5 0 -12 10 -16 23 -11 38 -38 97
-45 97 -4 0 -7 6 -7 13 0 16 -53 97 -64 97 -4 0 -10 9 -14 19 -6 19 -19 34
-142 165 -59 63 -108 106 -167 145 -12 8 8 -14 43 -47 35 -34 67 -62 73 -62 5
0 7 -4 3 -9 -3 -6 17 -31 45 -57 28 -26 49 -53 48 -60 -2 -7 0 -12 3 -11 10 3
49 -34 49 -46 0 -6 -10 -2 -22 9 -21 19 -21 18 1 -14 13 -18 26 -31 29 -28 3
3 21 -25 40 -62 19 -37 39 -68 43 -70 5 -2 9 -10 9 -18 0 -9 5 -12 12 -8 8 5
9 0 5 -16 -3 -14 0 -28 9 -37 8 -8 12 -18 9 -22 -2 -5 4 -16 15 -26 11 -10 20
-26 20 -35 0 -9 4 -20 9 -25 5 -6 11 -22 13 -37 3 -23 5 -25 20 -14 12 9 21
38 28 92 6 43 13 90 16 104 6 32 6 177 0 210 -14 76 -29 128 -41 152 -8 14
-15 32 -15 40 0 8 -11 25 -25 38 -14 13 -25 28 -25 34 0 5 -10 20 -22 33 -31
33 -12 29 78 -18 122 -64 228 -155 274 -237 9 -15 29 -49 45 -77 17 -27 30
-54 30 -59 0 -17 34 -31 46 -19 16 16 25 278 10 288 -6 3 -11 17 -11 31 0 14
-3 23 -7 21 -5 -3 -9 6 -9 19 -3 40 -71 146 -141 220 -68 70 -103 97 -200 151
-29 16 -50 33 -46 36 18 19 213 -2 264 -29 41 -21 36 -10 -6 15 -64 37 -283
64 -370 44z"/>
<path d="M2800 8937 c-49 -17 -70 -31 -88 -57 -35 -52 -38 -79 -15 -120 36
-62 57 -68 258 -74 99 -3 236 -10 305 -17 188 -17 355 -1 409 39 36 27 45 85
20 130 -38 67 -51 81 -92 101 -39 19 -63 20 -387 20 -332 0 -347 0 -410 -22z"/>
<path d="M748 8873 c7 -3 16 -2 19 1 4 3 -2 6 -13 5 -11 0 -14 -3 -6 -6z"/>
<path d="M675 8860 l-20 -9 20 0 c11 0 29 4 40 9 l20 9 -20 0 c-11 0 -29 -4
-40 -9z"/>
<path d="M2020 8826 c0 -3 15 -15 33 -27 23 -17 28 -18 18 -6 -14 18 -51 42
-51 33z"/>
<path d="M2110 8755 c13 -14 26 -25 28 -25 3 0 -5 11 -18 25 -13 14 -26 25
-28 25 -3 0 5 -11 18 -25z"/>
<path d="M685 8758 c-65 -22 -113 -49 -165 -92 -41 -33 -35 -31 45 16 76 45
110 57 102 35 -3 -9 -3 -18 1 -20 4 -2 2 -2 -5 -1 -6 2 -24 -14 -39 -34 -74
-98 -160 -180 -247 -236 -16 -10 -26 -20 -23 -24 4 -3 12 0 18 6 7 7 18 12 25
12 32 0 197 146 253 223 8 11 31 37 50 57 l35 36 90 -7 c129 -11 289 -44 281
-58 -2 -3 10 -6 27 -7 18 0 60 -7 94 -16 34 -8 60 -12 58 -7 -3 4 -20 10 -38
14 -17 4 -41 12 -52 19 -29 18 -135 49 -142 42 -3 -3 -14 -1 -24 5 -10 5 -40
12 -66 15 -26 3 -55 7 -63 9 -8 3 -41 5 -73 6 -32 1 -60 6 -63 11 -7 10 -41 9
-79 -4z"/>
<path d="M2150 8716 c0 -2 8 -10 18 -17 15 -13 16 -12 3 4 -13 16 -21 21 -21
13z"/>
<path d="M1563 8693 c-40 -8 -25 -18 28 -20 65 -2 111 -18 179 -60 58 -37 75
-54 117 -118 27 -40 115 -207 125 -235 3 -8 8 -12 12 -9 3 3 -22 62 -56 130
-53 105 -73 135 -134 195 -105 104 -178 135 -271 117z"/>
<path d="M2290 8666 c0 -2 7 -7 16 -10 8 -3 12 -2 9 4 -6 10 -25 14 -25 6z"/>
<path d="M1308 8633 c7 -3 16 -2 19 1 4 3 -2 6 -13 5 -11 0 -14 -3 -6 -6z"/>
<path d="M1322 8469 c-47 -46 -132 -190 -132 -222 0 -7 -6 -24 -14 -39 -18
-34 -74 -260 -78 -313 -3 -38 -4 -36 -30 45 -22 69 -28 106 -29 198 -3 121 -8
129 -46 72 -28 -40 -30 -64 -4 -32 11 12 21 22 23 22 1 0 4 -52 6 -116 1 -63
6 -124 12 -134 5 -10 7 -26 4 -34 -4 -10 -1 -16 7 -16 7 0 9 -3 6 -7 -4 -3 1
-12 11 -19 14 -11 15 -16 5 -33 -14 -22 -3 -34 21 -25 13 5 16 -2 17 -32 1
-40 15 -107 18 -89 1 6 4 66 6 135 2 69 9 145 15 170 6 25 12 53 13 63 1 9 5
17 9 17 4 0 8 8 8 19 0 10 11 50 25 87 31 82 30 81 54 119 11 17 20 36 20 44
1 15 49 79 100 134 55 58 13 46 -47 -14z"/>
<path d="M1186 8472 c-2 -4 12 -6 32 -4 56 5 62 10 15 11 -23 1 -44 -3 -47 -7z"/>
<path d="M1700 8451 c0 -12 5 -21 10 -21 6 0 10 6 10 14 0 8 -4 18 -10 21 -5
3 -10 -3 -10 -14z"/>
<path d="M810 8419 c0 -5 5 -7 10 -4 6 3 10 8 10 11 0 2 -4 4 -10 4 -5 0 -10
-5 -10 -11z"/>
<path d="M1134 8409 c-19 -24 -40 -92 -43 -136 -2 -37 0 -43 17 -43 14 0 28
19 51 70 18 39 31 75 29 81 -2 7 -17 -18 -32 -55 -16 -36 -32 -66 -36 -66 -9
0 6 83 20 111 6 11 10 27 8 36 -3 14 -5 14 -14 2z"/>
<path d="M1539 8394 c-1 -10 -3 -30 -4 -44 -3 -23 10 -176 17 -210 2 -8 8 -16
13 -17 11 -3 11 24 0 102 -4 28 -8 78 -10 113 -3 60 -14 97 -16 56z"/>
<path d="M1744 8372 c-11 -8 -11 -8 0 -72 4 -25 9 -90 11 -145 3 -55 5 -104 5
-110 3 -33 -13 -235 -20 -262 -9 -34 -5 -39 20 -23 15 9 15 16 27 299 4 106 2
135 -9 142 -7 5 -8 9 -2 9 7 0 8 18 3 53 -3 28 -5 55 -2 60 2 4 -3 10 -12 13
-10 4 -12 9 -6 13 5 4 7 12 3 18 -4 7 -12 9 -18 5z"/>
<path d="M1453 8204 c-9 -23 3 -215 16 -244 8 -19 9 -1 4 70 -4 52 -7 116 -7
143 0 50 -3 57 -13 31z"/>
<path d="M2040 8205 c-1 -11 -5 -41 -9 -67 -4 -27 -4 -48 0 -48 9 0 23 104 16
122 -3 8 -6 5 -7 -7z"/>
<path d="M1522 8110 c0 -14 2 -19 5 -12 2 6 2 18 0 25 -3 6 -5 1 -5 -13z"/>
<path d="M1564 8068 c10 -69 19 -109 27 -114 4 -2 6 -11 3 -18 -3 -7 2 -16 11
-20 9 -3 13 -11 10 -16 -4 -6 5 -26 19 -45 14 -18 26 -38 26 -43 0 -5 10 -16
23 -25 l22 -15 -26 -50 c-18 -34 -21 -48 -11 -45 16 6 52 85 52 113 0 9 -7 23
-15 30 -8 7 -15 18 -15 25 0 8 -11 26 -24 42 -13 15 -31 51 -40 78 -32 98 -48
135 -57 135 -5 0 -7 -15 -5 -32z"/>
<path d="M1211 8064 c0 -11 3 -14 6 -6 3 7 2 16 -1 19 -3 4 -6 -2 -5 -13z"/>
<path d="M1512 8057 c-7 -16 -12 -40 -12 -55 0 -15 -4 -42 -9 -60 -15 -51 6
-28 24 28 9 27 15 64 13 82 l-4 33 -12 -28z"/>
<path d="M3593 8060 c-85 -17 -133 -58 -133 -113 0 -76 42 -97 219 -106 75 -4
190 -7 256 -7 117 1 121 2 158 30 51 39 58 55 45 99 -15 49 -33 63 -103 83
-68 18 -371 28 -442 14z"/>
<path d="M1376 7948 c-10 -46 -24 -100 -31 -122 -19 -55 4 -28 27 31 17 43 37
173 27 173 -2 0 -12 -37 -23 -82z"/>
<path d="M1327 7943 c-8 -84 -9 -138 -2 -131 7 7 19 198 13 198 -3 0 -8 -30
-11 -67z"/>
<path d="M1521 7874 c-13 -49 -25 -96 -28 -104 -2 -8 4 -5 14 8 21 26 47 126
41 162 -2 14 -12 -12 -27 -66z"/>
<path d="M1571 7870 c-7 -25 -19 -62 -27 -83 -16 -44 -17 -50 -5 -42 14 8 53
132 48 152 -2 11 -8 0 -16 -27z"/>
<path d="M1075 7790 c3 -5 8 -10 11 -10 2 0 4 5 4 10 0 6 -5 10 -11 10 -5 0
-7 -4 -4 -10z"/>
<path d="M1626 7733 c-9 -9 -7 -33 3 -33 12 0 22 28 12 34 -5 3 -11 3 -15 -1z"/>
<path d="M1283 7676 c8 -59 43 -140 57 -131 15 10 12 40 -8 66 -28 38 -45 76
-38 87 3 6 1 14 -5 18 -9 5 -10 -5 -6 -40z"/>
<path d="M1391 7684 c0 -38 34 -120 43 -106 6 11 -24 115 -38 129 -3 3 -6 -7
-5 -23z"/>
<path d="M3831 7638 c-40 -27 -67 -69 -76 -117 -3 -19 -8 -37 -10 -41 -7 -11
-8 -252 -1 -305 l7 -50 -31 65 c-50 105 -97 143 -175 139 -30 -2 -50 3 -63 14
-36 33 -132 58 -217 58 -112 0 -253 -24 -310 -53 -47 -23 -70 -48 -44 -48 7 0
20 -6 28 -14 18 -16 125 -72 186 -98 59 -25 193 -68 213 -68 9 0 34 -5 56 -11
l39 -11 -30 -18 c-17 -10 -46 -34 -65 -53 -30 -30 -42 -35 -99 -39 -50 -4 -83
-15 -154 -52 -49 -25 -101 -56 -115 -69 -50 -45 -130 -146 -122 -151 5 -3 47
14 93 37 88 45 154 72 307 125 65 23 44 24 -39 3 -107 -27 -242 -84 -302 -127
l-52 -37 40 45 c22 26 44 47 49 47 5 1 23 16 41 34 42 43 166 108 233 122 110
23 215 -3 325 -81 26 -19 49 -34 50 -34 2 0 26 -21 53 -46 l49 -46 -65 7 c-36
4 -78 8 -95 10 -16 2 -48 7 -70 12 -22 5 -91 10 -153 12 l-113 3 -70 -44 c-39
-24 -82 -51 -97 -60 -15 -9 -37 -17 -50 -17 -13 -1 -31 -5 -40 -10 -9 -5 -39
-5 -65 -1 -26 4 -50 4 -52 0 -7 -11 116 -20 155 -11 37 8 81 31 165 83 44 27
59 31 120 30 87 -1 181 -9 219 -20 l30 -8 -36 -22 c-19 -12 -40 -22 -46 -22
-29 0 -192 -220 -192 -259 0 -8 19 12 43 44 101 137 140 176 217 217 70 37 79
39 135 34 33 -4 75 -2 93 3 l33 10 -7 -57 c-18 -130 -1 -316 31 -342 8 -7 12
-16 10 -21 -3 -4 3 -25 14 -46 25 -47 70 -102 71 -85 0 6 -3 12 -8 12 -12 0
-49 78 -76 160 -22 66 -25 91 -24 210 1 165 4 179 38 169 14 -4 19 -7 12 -8
-8 -1 -6 -8 8 -23 11 -12 20 -27 20 -34 0 -7 7 -17 15 -21 45 -25 79 -227 73
-428 -2 -66 1 -114 6 -112 10 3 11 9 21 179 6 92 4 126 -8 165 -9 26 -20 68
-26 93 -22 101 -44 142 -108 208 -34 36 -63 66 -63 68 0 2 7 1 16 -3 15 -5 16
-1 9 33 -13 62 -12 89 4 86 10 -2 11 2 5 15 -4 10 -9 45 -10 78 -2 33 -8 101
-13 150 -24 205 -5 358 49 410 34 32 96 43 142 25 37 -15 88 -58 88 -75 0 -6
-20 -51 -45 -101 -48 -97 -67 -144 -60 -144 9 0 36 48 40 71 3 13 14 36 25 51
11 15 20 30 20 33 0 4 12 22 26 40 25 33 25 35 9 62 -27 47 -89 84 -148 90
-43 4 -58 1 -86 -19z m-434 -275 c85 -29 178 -115 259 -240 19 -29 34 -55 34
-58 0 -3 -27 21 -59 52 -55 54 -185 132 -198 120 -3 -3 26 -21 64 -41 72 -36
168 -127 199 -189 9 -18 23 -40 32 -50 8 -9 13 -19 10 -22 -3 -3 -25 19 -49
47 -24 29 -47 55 -51 56 -5 2 -14 10 -22 17 -22 23 -136 65 -216 81 -159 32
-166 33 -265 72 -111 43 -208 98 -199 113 10 16 140 51 189 50 28 0 57 4 65
10 21 14 143 3 207 -18z m221 -73 c40 -25 87 -96 107 -166 25 -86 16 -97 -20
-27 -26 51 -110 163 -135 180 -48 34 -5 45 48 13z m-73 -250 c78 -41 130 -83
166 -137 36 -51 31 -68 -9 -32 -33 30 -101 82 -122 94 -8 4 10 -16 40 -46 30
-30 72 -73 94 -97 21 -23 42 -39 47 -36 5 3 9 0 9 -5 0 -23 -29 -9 -134 64
-137 96 -193 124 -264 133 l-57 7 23 23 c12 12 34 22 50 23 15 0 21 3 14 6
-10 4 -10 8 -1 19 19 23 82 16 144 -16z"/>
<path d="M3210 7293 c31 -4 141 -31 195 -48 12 -4 9 0 -6 9 -37 22 -105 38
-169 41 -30 2 -39 1 -20 -2z"/>
<path d="M3510 7000 c8 -5 20 -10 25 -10 6 0 3 5 -5 10 -8 5 -19 10 -25 10 -5
0 -3 -5 5 -10z"/>
<path d="M1586 7606 c-8 -18 -22 -39 -31 -46 -8 -7 -15 -17 -15 -22 0 -16 -52
-78 -65 -78 -10 0 -12 -23 -9 -97 4 -125 17 -745 18 -885 1 -58 5 -104 9 -101
5 3 4 -4 -3 -16 -8 -15 -11 -100 -9 -276 l1 -255 37 -6 c20 -3 108 -23 196
-45 88 -21 189 -43 223 -48 35 -6 69 -14 75 -19 7 -5 55 -24 107 -42 52 -18
99 -36 105 -41 5 -5 17 -9 27 -9 11 0 37 -9 59 -21 23 -11 43 -18 46 -15 3 2
-9 12 -26 21 -17 8 -31 18 -31 21 0 2 9 0 20 -6 11 -6 20 -7 20 -3 0 4 4 3 8
-4 10 -15 120 -53 137 -47 7 3 23 -4 34 -15 l21 -21 -21 0 c-18 0 -19 -2 -9
-15 7 -8 18 -15 25 -15 8 0 26 -7 42 -15 15 -9 39 -20 53 -26 14 -5 36 -16 50
-24 15 -9 36 -13 53 -9 17 3 27 1 27 -6 0 -6 4 -9 9 -5 5 3 12 1 15 -4 4 -6
-6 -8 -23 -6 -24 3 -29 1 -24 -11 3 -9 15 -20 27 -25 56 -25 246 -142 246
-151 0 -4 11 -8 24 -8 14 0 28 -5 31 -10 4 -6 10 -8 15 -5 5 3 35 -8 68 -25
33 -16 67 -30 76 -30 9 0 16 -5 16 -11 0 -6 9 -8 20 -4 13 4 31 -2 53 -19 19
-14 37 -23 41 -18 4 4 14 -1 21 -11 7 -10 17 -17 21 -15 9 2 106 -32 161 -57
17 -8 36 -15 43 -15 7 0 26 -6 43 -14 127 -55 164 -63 190 -37 8 8 11 49 9
144 -10 452 -10 512 -1 523 6 8 6 29 -2 60 -7 32 -9 99 -4 192 6 138 5 143
-13 138 -36 -12 -93 72 -83 123 1 7 -4 11 -11 9 -7 -3 -14 -15 -16 -27 -3 -19
-6 -20 -20 -9 -15 12 -16 11 -4 -4 8 -9 11 -21 8 -27 -9 -14 -48 -1 -42 15 3
7 -4 14 -17 17 -22 4 -22 4 -1 6 24 1 40 41 22 52 -6 4 -8 11 -5 16 3 5 -2 9
-13 8 -10 -1 -43 2 -74 5 -30 3 -52 2 -49 -3 2 -4 -19 -5 -49 -1 -82 12 -113
10 -110 -5 2 -9 -3 -11 -13 -7 -9 3 -19 6 -21 6 -3 0 -2 5 2 11 3 6 -4 4 -17
-4 -14 -8 -37 -13 -54 -11 -53 8 -104 10 -100 5 4 -8 -186 -2 -205 6 -8 4 -26
8 -40 9 -14 2 -38 5 -55 8 -27 5 -61 6 -150 4 -16 0 -82 2 -145 6 -63 3 -149
6 -190 5 -41 0 -88 0 -105 0 -47 0 -203 18 -215 26 -5 3 -10 2 -10 -3 0 -9
-94 -8 -190 2 -25 2 -105 7 -178 10 -73 3 -137 8 -142 11 -6 3 -9 47 -9 98 1
51 -2 160 -5 242 -4 83 -8 189 -8 238 -1 48 -4 87 -9 87 -4 0 -6 8 -4 18 2 9
4 20 4 24 1 5 110 8 244 8 198 -1 379 5 443 14 6 1 34 18 62 39 48 34 52 40
52 77 0 68 -77 136 -175 155 -22 4 -171 7 -332 6 -273 -1 -292 0 -292 16 0 10
-2 47 -6 83 -7 65 -6 66 28 102 20 21 38 51 42 68 4 16 10 32 15 35 8 5 40 63
40 72 0 1 -4 3 -9 3 -5 0 -16 -15 -25 -34z m641 -1933 c10 -10 13 -14 7 -10
-7 5 -25 12 -41 17 -23 7 -24 8 -7 9 12 1 30 -7 41 -16z m466 -213 c15 -7 27
-17 27 -21 0 -5 -16 1 -35 12 -19 12 -35 23 -35 26 0 4 0 4 43 -17z"/>
<path d="M2030 7594 c-85 -13 -90 -16 -105 -45 -27 -52 3 -93 75 -103 86 -13
202 -26 275 -31 68 -5 85 -3 115 13 28 15 36 26 38 54 4 46 -35 94 -88 108
-32 9 -259 11 -310 4z"/>
<path d="M3906 7573 c-21 -43 -76 -220 -76 -249 0 -14 -4 -44 -10 -67 -12 -53
-19 -157 -10 -157 3 0 12 35 18 78 29 183 46 261 71 339 15 46 26 83 24 83 -1
0 -9 -12 -17 -27z"/>
<path d="M3907 7239 c-15 -35 -20 -56 -12 -49 13 11 48 100 42 107 -2 2 -16
-24 -30 -58z"/>
<path d="M4225 7031 c-6 -5 -28 -14 -50 -21 -22 -7 -53 -23 -68 -36 -35 -29
-26 -32 12 -4 34 24 104 48 160 55 40 5 170 -18 181 -33 5 -7 27 -22 74 -50
16 -9 72 -55 125 -102 54 -48 86 -72 73 -54 -32 46 -133 136 -178 159 -21 10
-46 27 -54 36 -36 41 -244 79 -275 50z"/>
<path d="M10173 6950 c-29 -4 -74 -18 -100 -31 l-48 -24 -3 -58 c-3 -52 0 -60
26 -87 39 -39 113 -58 254 -66 120 -7 130 -5 216 34 35 16 62 57 62 95 0 52
-66 116 -136 131 -48 10 -215 14 -271 6z"/>
<path d="M3682 6702 c-75 -62 -241 -219 -299 -283 -35 -38 -75 -93 -89 -122
-29 -57 -25 -55 26 13 51 67 190 219 212 231 18 10 19 8 13 -25 -4 -20 -2 -59
5 -88 18 -75 28 -89 22 -30 -4 49 8 125 30 187 11 29 73 95 89 95 9 0 33 40
27 45 -2 2 -18 -9 -36 -23z"/>
<path d="M3584 6678 l-19 -21 28 18 c28 18 33 25 19 25 -5 0 -17 -10 -28 -22z"/>
<path d="M3452 6590 c-45 -34 -90 -73 -100 -88 -29 -40 -70 -128 -77 -165 -4
-24 3 -15 28 33 63 123 79 143 212 254 55 47 19 27 -63 -34z"/>
<path d="M3668 6624 c-4 -5 -9 -27 -12 -49 l-6 -40 15 39 c14 38 16 72 3 50z"/>
<path d="M4180 6480 c51 -68 105 -147 121 -176 16 -28 41 -64 54 -78 31 -33
15 -33 -44 0 l-46 25 30 -26 c35 -31 67 -45 101 -45 24 0 24 2 18 53 -13 107
-46 197 -92 252 -14 17 -23 26 -21 20 3 -5 17 -36 32 -68 24 -54 61 -196 52
-205 -2 -2 -12 13 -23 35 -20 39 -108 157 -162 216 -97 109 -101 108 -20 -3z"/>
<path d="M3821 6530 c-1 -28 39 -192 63 -264 14 -39 27 -80 29 -91 3 -12 5 -8
6 12 0 18 -4 45 -10 60 -7 15 -17 42 -24 58 -7 17 -20 68 -29 115 -18 87 -34
138 -35 110z"/>
<path d="M3623 6390 c0 -30 2 -43 4 -27 2 15 2 39 0 55 -2 15 -4 2 -4 -28z"/>
<path d="M4085 6410 c10 -11 20 -20 23 -20 3 0 -3 9 -13 20 -10 11 -20 20 -23
20 -3 0 3 -9 13 -20z"/>
<path d="M4620 6160 c-23 -7 -23 -8 -3 -9 12 -1 25 4 28 9 3 6 5 10 3 9 -2 -1
-14 -5 -28 -9z"/>
<path d="M2394 5565 c11 -8 25 -15 30 -15 6 0 2 7 -8 15 -11 8 -25 15 -30 15
-6 0 -2 -7 8 -15z"/>
<path d="M2243 4918 c-66 -137 -88 -250 -74 -388 2 -23 3 -23 10 -5 5 11 5 28
0 37 -6 10 -5 19 1 23 5 3 10 25 10 48 1 85 47 241 91 307 l15 23 21 -29 c31
-45 42 -104 31 -166 -10 -57 -77 -195 -108 -223 -19 -17 -19 -16 -13 21 3 22
11 50 18 64 7 14 15 39 18 55 4 19 -4 8 -23 -30 -15 -33 -31 -81 -35 -107 -6
-40 -12 -51 -41 -68 -49 -31 -93 -93 -136 -192 -4 -10 -5 -18 -3 -18 6 0 75
106 75 116 0 12 40 37 47 30 3 -3 -1 -20 -10 -38 -8 -18 -18 -49 -22 -68 -28
-132 -125 -350 -173 -387 -14 -12 -13 -13 5 -13 12 0 30 11 41 25 28 35 32 31
16 -12 -15 -43 -18 -121 -5 -142 13 -20 21 0 28 74 7 75 16 88 32 45 14 -41
41 -80 41 -59 0 8 -16 41 -35 73 l-34 57 27 59 c15 33 29 60 32 60 3 0 7 -17
8 -37 5 -68 12 -47 12 35 0 44 4 83 9 86 14 9 20 -16 9 -38 -11 -21 -1 -106
12 -106 5 0 7 24 5 53 l-4 52 19 -23 19 -23 15 23 c8 13 18 51 22 86 3 34 11
62 16 62 5 0 7 -4 3 -9 -3 -5 -1 -12 5 -16 6 -4 10 6 10 24 0 36 9 61 21 61 6
0 5 -8 -1 -19 -5 -11 -10 -41 -9 -68 l1 -48 12 40 13 40 27 -60 c20 -42 27
-72 24 -101 -1 -23 0 -40 5 -37 4 2 7 13 7 24 0 30 16 22 35 -17 14 -30 15
-38 4 -45 -8 -5 -10 -9 -5 -9 5 0 2 -8 -6 -17 -9 -10 -23 -44 -32 -75 -9 -31
-22 -59 -29 -61 -6 -3 -2 -6 10 -6 14 -1 28 9 38 27 9 15 14 19 11 9 -4 -11
-9 -31 -12 -45 -3 -15 -17 -57 -31 -94 -26 -71 -48 -91 -39 -37 2 17 2 37 -1
45 -6 17 -33 19 -34 2 -2 -31 4 -84 12 -106 7 -18 6 -29 -4 -41 -19 -21 -22
-171 -4 -171 9 0 9 -2 0 -8 -8 -5 -12 -43 -12 -122 0 -63 0 -189 -1 -280 -3
-303 0 -392 16 -379 8 7 14 38 16 87 l3 77 40 -3 c22 -2 56 3 75 11 65 27 329
44 420 27 73 -14 257 -37 405 -50 156 -15 181 -18 238 -30 27 -5 51 -9 55 -8
4 1 32 -2 62 -6 30 -4 129 -8 220 -10 170 -2 174 -3 250 -31 25 -9 67 -22 94
-29 26 -8 52 -20 56 -27 5 -7 9 -56 10 -108 2 -126 2 -123 13 -112 11 11 13
88 4 151 -4 25 -9 194 -11 375 -2 182 -6 346 -10 365 -14 67 -26 56 -26 -23 0
-42 4 -77 9 -77 11 0 16 -238 11 -501 0 -14 -7 -15 -67 -4 -85 16 -130 32
-130 48 0 37 -39 179 -60 217 -13 25 -21 36 -17 25 12 -35 33 -128 42 -185 l8
-55 -173 1 c-95 1 -180 4 -188 8 -8 3 -15 13 -16 23 0 10 -9 36 -20 58 -10 22
-17 31 -15 20 3 -11 8 -37 12 -57 6 -38 6 -38 -27 -38 -19 1 -59 7 -89 14 -41
9 -56 17 -58 32 -1 10 -6 60 -11 109 l-8 90 -2 -105 -1 -105 -167 12 c-93 7
-193 15 -223 17 -30 2 -68 9 -85 16 -16 7 -78 13 -137 13 -97 2 -108 4 -108
20 0 24 -32 149 -37 144 -2 -2 1 -37 8 -77 6 -40 7 -76 2 -80 -4 -4 -40 -10
-79 -12 l-71 -3 -13 43 c-7 24 -22 56 -34 70 -12 15 -30 44 -41 65 -11 21 -24
41 -29 44 -5 4 -7 2 -5 -3 65 -130 84 -209 55 -233 -16 -13 -125 -35 -134 -26
-3 3 -5 90 -3 193 2 103 4 278 4 390 1 131 5 202 12 202 16 1 40 41 60 100 17
50 20 52 25 28 8 -43 26 -20 38 47 13 80 11 177 -5 183 -7 2 -13 11 -13 20 0
13 6 10 24 -10 26 -31 31 -28 52 21 22 52 16 109 -20 196 -18 44 -32 81 -31
83 1 1 19 -5 39 -13 21 -9 45 -15 55 -13 15 2 53 -33 104 -97 52 -65 70 -85
78 -85 9 0 -63 95 -83 110 -3 3 -26 30 -50 61 -46 60 -114 117 -170 144 -32
15 -33 15 -8 -2 68 -50 132 -107 122 -111 -26 -8 -95 22 -134 58 -23 22 -45
40 -49 40 -4 0 -10 9 -14 19 -3 10 -13 22 -23 25 -9 3 -24 9 -32 12 -8 4 1
-11 21 -32 21 -22 48 -51 62 -66 22 -24 87 -142 94 -172 24 -97 30 -174 12
-146 -46 72 -88 151 -125 240 -25 58 -56 115 -69 127 -14 12 -25 29 -25 37 0
21 -17 29 -24 10 -3 -8 -11 -12 -17 -9 -13 8 21 45 35 37 4 -2 5 6 2 19 -3 13
-3 19 0 12 4 -9 15 -7 40 8 19 10 41 19 49 19 8 0 15 4 15 9 0 5 17 20 38 32
20 13 39 26 42 29 22 29 229 113 307 125 35 5 51 2 92 -21 49 -26 89 -60 80
-68 -2 -2 -29 5 -59 15 -71 24 -99 23 -190 -2 -73 -20 -215 -82 -255 -113 -18
-13 -16 -14 28 -4 88 18 132 -3 172 -81 9 -18 13 -31 8 -29 -169 84 -167 83
-233 82 -36 -1 -78 -7 -95 -14 -30 -13 -30 -14 -6 -18 13 -2 43 -15 65 -28 40
-24 40 -24 15 -2 -14 13 -35 28 -45 35 -18 11 -18 12 2 12 12 1 39 -6 60 -14
35 -14 37 -14 20 0 -19 15 -19 15 5 15 29 0 133 -48 194 -90 61 -42 89 -74
126 -144 28 -51 32 -70 32 -133 0 -68 7 -87 22 -63 6 9 9 102 6 177 -1 23 -10
41 -31 60 -16 14 -30 29 -30 33 0 3 -20 28 -45 53 -57 60 -59 81 -7 71 37 -7
120 -56 135 -80 4 -7 38 -35 75 -62 37 -27 91 -70 120 -97 29 -26 71 -60 95
-76 76 -50 71 -42 127 -204 35 -99 39 -74 6 31 -14 42 -21 73 -16 68 12 -13
70 -188 70 -213 0 -11 4 -21 8 -21 14 0 -8 133 -27 165 -22 39 -37 105 -19 87
7 -7 22 -12 35 -12 13 0 23 -4 23 -10 0 -5 5 -10 11 -10 12 0 82 -53 135 -102
l31 -29 -18 -52 c-10 -28 -16 -53 -14 -55 6 -7 40 16 80 55 23 21 66 50 96 66
50 25 64 27 164 26 61 0 128 -4 150 -8 l40 -7 -35 -12 c-70 -25 -144 -117
-157 -198 -8 -41 -12 -48 -28 -46 -43 8 -87 37 -154 103 -93 92 -92 77 2 -18
75 -78 135 -117 161 -107 13 5 16 -2 17 -32 0 -22 4 -48 8 -58 4 -11 6 19 3
66 -5 96 5 128 65 197 50 59 141 105 179 90 17 -6 16 -8 -9 -18 -16 -6 -32
-11 -37 -11 -15 0 -140 -124 -140 -139 0 -7 33 18 73 56 55 52 85 73 118 81
24 6 48 7 52 3 5 -5 -4 -12 -19 -15 -26 -7 -103 -61 -148 -103 -24 -23 -82
-114 -99 -155 -18 -44 -32 -119 -18 -98 6 8 11 22 11 31 0 23 58 132 76 142 8
4 14 14 14 22 0 14 80 89 115 107 19 11 19 10 1 -16 -16 -26 -31 -76 -23 -76
3 0 21 27 42 61 21 33 47 64 57 70 31 17 20 39 -28 60 -61 25 -160 39 -292 40
-75 0 -102 3 -89 10 34 20 113 39 162 40 42 1 46 2 23 9 -38 11 -165 -13 -224
-43 -27 -14 -80 -54 -118 -88 -54 -49 -67 -58 -61 -38 9 28 104 139 149 174
44 33 119 65 175 75 l46 8 -40 1 c-84 2 -180 -46 -259 -128 -57 -61 -59 -62
-73 -41 -36 51 -104 104 -188 146 -49 25 -94 50 -99 55 -6 5 -17 9 -24 9 -8 0
-34 16 -58 35 -23 19 -47 35 -53 35 -6 0 -16 9 -23 20 -7 11 -18 20 -25 20 -6
0 -32 19 -56 43 -25 23 -56 49 -71 56 -14 8 -26 18 -26 23 0 4 -7 8 -15 8 -9
0 -18 7 -22 16 -18 47 -83 88 -157 99 -34 5 -55 14 -68 30 -10 13 -32 26 -48
30 -43 9 -37 21 20 40 49 16 51 16 111 -8 77 -31 94 -27 94 21 0 35 1 37 30
34 32 -4 119 -26 148 -37 21 -9 22 4 2 31 -8 10 -15 27 -15 36 0 27 -136 108
-180 108 -10 0 -34 18 -52 41 -42 52 -79 71 -144 75 -43 2 -60 -2 -98 -27 -49
-30 -58 -34 -54 -21 9 27 -70 142 -97 142 -7 0 -25 -28 -42 -62z m355 -65 c33
-20 72 -54 72 -62 0 -3 -24 -6 -53 -6 -28 0 -74 -6 -102 -12 -27 -7 -52 -13
-55 -13 -3 0 16 14 42 30 27 17 52 30 57 30 5 0 14 7 21 15 7 8 8 15 3 15 -11
0 -154 -89 -168 -104 -5 -6 -20 -19 -31 -29 l-21 -18 17 53 c32 99 141 149
218 101z m102 -113 c0 -5 -10 -10 -21 -10 -69 0 -340 -135 -388 -193 -7 -10
-21 -17 -29 -17 -10 0 14 31 58 76 92 93 120 113 184 135 56 19 196 25 196 9z
m13 -136 c4 -25 3 -26 -32 -19 -60 11 -70 22 -31 33 53 15 57 14 63 -14z
m-529 -201 c18 -87 14 -289 -5 -277 -5 2 -18 26 -29 51 -16 37 -19 53 -10 73
12 32 31 161 24 172 -3 4 -1 8 5 8 5 0 12 -12 15 -27z m69 -29 c5 -28 -16
-113 -25 -98 -8 13 3 124 12 124 4 0 10 -12 13 -26z"/>
<path d="M1782 4813 c-55 -19 -147 -106 -168 -157 -14 -36 -14 -38 2 -32 9 4
47 14 83 23 36 9 69 21 73 27 4 6 22 3 50 -9 60 -27 183 -102 199 -122 13 -15
11 -16 -23 -10 -21 3 -38 3 -38 -1 0 -4 -16 -8 -37 -10 -45 -3 -147 -47 -195
-85 -62 -49 -174 -158 -155 -151 9 3 17 10 17 14 0 5 8 11 19 15 10 3 30 16
43 28 109 101 196 147 296 155 43 3 63 2 59 -5 -4 -6 -19 -13 -35 -16 -37 -7
-128 -51 -222 -106 -51 -29 -107 -76 -174 -144 -92 -94 -98 -99 -91 -66 24
110 74 207 138 265 112 101 172 128 267 120 l55 -5 -45 10 c-75 17 -162 7
-207 -23 -22 -14 -58 -29 -79 -32 -21 -4 -55 -11 -74 -15 -19 -5 -67 -12 -106
-15 -39 -3 -77 -8 -85 -11 -8 -3 -43 -11 -79 -19 -249 -54 -311 -72 -470 -142
-91 -39 -206 -62 -400 -79 -61 -5 -157 -23 -258 -47 -46 -12 -92 -42 -92 -61
0 -8 3 -7 9 1 9 15 130 52 168 52 17 0 27 -10 39 -37 32 -77 89 -184 103 -196
10 -8 8 0 -5 24 -12 19 -29 60 -39 90 -10 30 -21 58 -26 63 -5 6 -9 24 -9 42
0 31 1 31 61 38 34 3 81 6 105 6 57 0 172 18 257 41 l67 18 44 -67 c45 -67
166 -196 166 -175 0 6 -7 17 -17 24 -35 30 -133 201 -133 234 0 19 147 73 303
111 78 19 156 38 172 43 17 5 73 15 125 21 52 6 110 15 128 20 38 10 41 1 7
-28 -13 -12 -33 -39 -45 -61 -24 -48 -66 -180 -75 -236 -3 -22 -8 -50 -11 -62
-7 -35 17 -28 61 17 21 22 44 40 50 40 6 0 26 -27 45 -60 18 -32 51 -76 73
-97 45 -43 40 -30 -15 40 -33 42 -47 76 -60 138 -7 35 117 138 205 172 16 6
16 3 -4 -24 -36 -50 -75 -199 -53 -199 12 0 109 62 128 82 10 11 19 18 21 16
2 -2 -3 -28 -11 -58 -17 -64 -31 -209 -18 -197 4 4 13 -5 20 -20 11 -24 12
-19 7 43 -3 42 0 101 7 140 16 88 84 227 145 298 l47 56 -23 21 -24 20 43 -5
c54 -8 54 5 -1 37 -23 14 -51 34 -61 46 -11 12 -24 21 -31 21 -6 0 -38 16 -70
36 -33 19 -96 47 -142 62 -46 15 -83 31 -83 35 0 15 114 60 154 61 69 1 158
-48 228 -123 56 -61 59 -63 40 -26 -30 60 -82 108 -153 142 -82 39 -132 46
-187 26z m-64 -109 c34 -9 27 -18 -27 -35 l-50 -15 20 28 c22 30 23 31 57 22z
m267 -340 c-25 -36 -45 -70 -45 -76 0 -20 -42 -68 -60 -68 -10 0 -21 -7 -24
-16 -4 -9 -9 -14 -12 -11 -10 9 34 81 80 132 26 28 49 60 52 72 5 19 17 27 46
32 5 0 -12 -29 -37 -65z m-64 8 c-5 -10 -16 -24 -24 -30 -8 -7 -29 -47 -48
-90 -36 -86 -44 -99 -70 -113 -17 -8 -18 -6 -13 23 13 70 88 188 136 215 30
16 30 16 19 -5z"/>
<path d="M1850 4746 c0 -2 27 -13 59 -25 50 -18 72 -35 135 -102 42 -45 81
-79 89 -77 17 3 -99 132 -143 159 -35 22 -140 56 -140 45z"/>
<path d="M2275 4739 c-4 -6 -5 -12 -2 -15 2 -3 7 2 10 11 7 17 1 20 -8 4z"/>
<path d="M2400 4456 c0 -2 21 -17 48 -32 26 -15 74 -55 106 -88 46 -46 55 -53
40 -27 -32 56 -194 178 -194 147z"/>
<path d="M4240 4302 c-59 -23 -115 -96 -132 -174 l-13 -58 -50 59 c-28 33 -68
69 -90 82 -40 23 -40 22 17 -36 57 -58 121 -169 133 -230 5 -26 4 -28 -7 -12
-7 10 -32 44 -55 75 -24 31 -56 85 -73 120 -17 34 -35 62 -40 62 -19 0 33 -95
108 -200 24 -33 39 -60 34 -60 -5 0 -15 7 -22 15 -7 8 -17 15 -22 15 -5 0 7
-14 26 -30 21 -19 40 -28 50 -24 9 3 16 1 16 -4 0 -8 9 -8 31 0 16 6 31 9 33
7 33 -49 53 -106 22 -64 -12 17 -16 17 -30 6 -20 -17 -58 -95 -86 -176 -24
-69 -24 -71 -6 -56 8 7 22 36 31 65 9 30 25 66 35 82 l19 28 -6 -60 c-5 -55
-32 -154 -55 -198 -6 -10 -29 -40 -51 -65 -29 -32 -32 -38 -12 -21 16 14 33
29 36 34 4 5 9 0 11 -10 3 -13 8 -7 17 21 7 22 15 47 18 55 35 93 53 149 53
168 0 37 17 16 24 -30 10 -60 27 -30 24 42 -1 30 3 64 10 75 6 11 12 16 13 10
5 -25 6 -43 8 -88 1 -34 5 -47 14 -44 8 2 11 20 9 51 -4 46 -3 47 17 37 17
-10 19 -15 10 -38 -7 -19 -6 -35 2 -55 16 -39 32 -24 25 23 -3 22 -2 39 2 39
17 0 41 -36 36 -55 -2 -11 0 -33 5 -50 9 -29 9 -29 10 13 1 23 4 42 8 42 8 0
100 -70 136 -104 27 -25 54 -36 42 -17 -3 5 -1 12 5 16 6 4 -2 28 -21 63 -66
120 -92 159 -118 170 -14 6 -37 22 -51 35 -14 13 -34 28 -45 35 -14 8 -15 11
-5 11 8 0 24 -6 34 -14 11 -8 29 -15 41 -15 23 0 93 -34 115 -57 13 -14 13
-15 -7 -10 -13 3 -23 2 -23 -3 0 -8 35 -20 62 -20 33 0 -67 79 -125 99 -104
36 -113 47 -59 74 32 15 32 16 138 -55 39 -27 73 -48 77 -48 4 0 7 8 7 18 0
19 -32 107 -43 118 -17 17 -3 22 56 17 84 -8 70 3 -21 15 -67 10 -79 9 -138
-14 -64 -24 -105 -44 -114 -55 -8 -11 -72 -22 -129 -23 -48 -1 -54 1 -63 24
-5 13 -16 39 -24 56 -13 27 -13 38 1 100 9 38 27 86 41 107 24 36 77 77 100
77 6 0 -3 -35 -22 -82 -18 -46 -41 -125 -52 -175 -19 -90 -19 -93 -2 -93 11 0
22 5 25 10 9 15 27 12 19 -2 -4 -7 23 16 59 52 75 74 109 95 182 111 43 9 61
9 109 -5 31 -9 54 -21 51 -26 -3 -4 8 -11 24 -15 32 -7 81 -41 81 -56 0 -5
-10 -9 -22 -9 -26 0 -19 -9 11 -15 49 -9 53 5 14 48 -42 47 -116 85 -181 94
-24 3 -51 14 -61 23 -23 25 -87 43 -125 36 -46 -9 -118 -81 -134 -133 -19 -63
-30 -60 -20 5 12 68 11 66 28 120 11 34 18 42 37 42 12 0 24 0 26 1 56 11 93
23 113 36 37 24 24 25 -34 3 -52 -20 -112 -27 -112 -12 0 4 9 18 19 31 17 22
24 24 72 18 52 -5 53 -5 24 8 -41 19 -101 17 -155 -3z m223 -148 l31 -17 -59
-19 c-70 -22 -122 -56 -150 -98 -25 -38 -36 -39 -26 -2 15 51 40 90 78 121 43
35 78 39 126 15z m100 -216 c14 -35 24 -65 22 -66 -2 -2 -16 5 -32 16 -15 11
-47 32 -70 46 -50 31 -53 41 -15 54 58 22 68 16 95 -50z m-236 -69 c77 -37
162 -118 197 -187 l27 -53 -23 12 -23 12 20 -23 c17 -20 -36 14 -165 107 -57
41 -99 81 -124 122 -14 22 -26 43 -26 46 0 10 55 -7 117 -36z m-97 -59 c0 -5
-5 -10 -11 -10 -5 0 -7 5 -4 10 3 6 8 10 11 10 2 0 4 -4 4 -10z m334 -206 c3
-8 2 -12 -4 -9 -6 3 -10 10 -10 16 0 14 7 11 14 -7z"/>
<path d="M4325 3814 c53 -48 95 -77 95 -67 -1 4 -25 26 -55 48 -30 22 -55 43
-55 48 0 4 -6 7 -12 7 -7 -1 5 -17 27 -36z"/>
<path d="M4440 3726 c0 -2 8 -10 18 -17 15 -13 16 -12 3 4 -13 16 -21 21 -21
13z"/>
<path d="M2610 4266 c0 -2 8 -10 18 -17 15 -13 16 -12 3 4 -13 16 -21 21 -21
13z"/>
<path d="M3771 4259 c7 -5 24 -9 36 -9 23 0 33 -21 37 -75 0 -14 4 -25 8 -25
3 0 18 -20 33 -45 32 -56 83 -115 99 -115 6 0 -1 10 -15 23 -36 30 -83 112
-102 175 -14 48 -13 52 2 53 27 1 -18 15 -68 22 -29 4 -40 2 -30 -4z"/>
<path d="M3730 4256 c0 -8 66 -67 89 -80 9 -5 0 6 -19 25 -43 43 -70 64 -70
55z"/>
<path d="M1256 4176 c20 -31 40 -56 45 -56 13 0 -37 80 -61 97 -17 12 -14 3
16 -41z"/>
<path d="M1081 4134 c61 -66 78 -87 102 -121 30 -45 41 -42 15 5 -29 50 -96
124 -127 141 -22 11 -21 8 10 -25z"/>
<path d="M717 4109 c23 -47 45 -78 81 -115 18 -19 36 -18 28 2 -8 21 -119 162
-128 163 -4 1 4 -22 19 -50z"/>
<path d="M2296 4118 c-4 -24 -10 -54 -13 -68 -6 -22 -5 -24 10 -11 31 25 44
121 17 121 -4 0 -10 -19 -14 -42z"/>
<path d="M2245 4075 c-9 -35 -15 -70 -12 -77 4 -9 6 -8 6 3 1 9 10 36 21 60
21 47 26 79 11 79 -4 0 -16 -29 -26 -65z"/>
<path d="M1306 4095 c4 -8 8 -15 10 -15 2 0 4 7 4 15 0 8 -4 15 -10 15 -5 0
-7 -7 -4 -15z"/>
<path d="M1951 4093 c-1 -6 -4 -20 -7 -30 -5 -17 -5 -17 6 0 6 10 9 23 6 30
-3 9 -5 9 -5 0z"/>
<path d="M2910 4074 c0 -16 49 -169 81 -254 15 -41 33 -95 39 -119 6 -23 13
-41 16 -39 2 3 -2 29 -10 59 -7 30 -17 72 -21 94 -13 76 -105 302 -105 259z"/>
<path d="M3840 4076 c0 -2 7 -7 16 -10 8 -3 12 -2 9 4 -6 10 -25 14 -25 6z"/>
<path d="M4374 4035 c-10 -8 -14 -15 -8 -15 5 0 19 7 30 15 10 8 14 15 8 15
-5 0 -19 -7 -30 -15z"/>
<path d="M2614 3975 c27 -77 38 -93 25 -35 -9 41 -35 100 -44 100 -2 0 6 -29
19 -65z"/>
<path d="M430 4017 c0 -12 48 -85 62 -93 6 -4 1 10 -12 32 -25 42 -50 73 -50
61z"/>
<path d="M4309 3989 c-19 -16 -25 -25 -14 -20 31 16 59 40 54 46 -3 2 -21 -9
-40 -26z"/>
<path d="M2274 3958 l-8 -43 -6 35 c-6 35 -6 35 -13 -15 -5 -27 -10 -59 -12
-70 -3 -11 2 -6 10 10 l16 30 -6 -37 c-3 -21 -4 -38 -1 -38 12 0 35 60 42 107
8 63 -11 81 -22 21z"/>
<path d="M751 3935 c17 -25 33 -45 36 -45 3 0 -1 10 -9 23 -8 12 -21 32 -29
45 -8 12 -17 22 -21 22 -4 0 6 -20 23 -45z"/>
<path d="M2130 3951 c6 -12 9 -30 7 -39 -3 -13 -7 -9 -17 13 -7 17 -14 24 -17
18 -2 -7 7 -36 21 -65 23 -50 24 -51 20 -18 l-4 35 14 -30 c11 -23 16 -26 21
-14 8 20 -26 111 -43 117 -11 3 -12 0 -2 -17z"/>
<path d="M1796 3927 c3 -10 9 -15 12 -12 3 3 0 11 -7 18 -10 9 -11 8 -5 -6z"/>
<path d="M2786 3887 c3 -10 9 -15 12 -12 3 3 0 11 -7 18 -10 9 -11 8 -5 -6z"/>
<path d="M4138 3873 c-9 -10 -30 -43 -46 -73 -17 -31 -47 -71 -67 -90 -19 -19
-35 -38 -35 -44 0 -5 11 1 25 14 l24 23 -10 -34 c-42 -131 -49 -169 -47 -231
2 -42 6 -64 12 -58 5 5 8 33 7 62 -1 29 4 77 10 108 10 51 56 165 79 200 6 8
17 29 25 45 9 17 24 45 35 63 21 34 13 44 -12 15z"/>
<path d="M211 3878 c-1 -11 51 -119 55 -115 2 2 -9 30 -25 63 -17 32 -30 56
-30 52z"/>
<path d="M1841 3850 c9 -14 26 -45 38 -68 12 -24 24 -42 27 -40 6 6 -55 116
-69 125 -7 4 -5 -4 4 -17z"/>
<path d="M2852 3758 c53 -109 65 -128 53 -88 -14 49 -85 190 -94 190 -6 0 13
-46 41 -102z"/>
<path d="M971 3812 c-66 -7 -111 -59 -138 -162 l-10 -35 -12 43 c-28 98 -84
148 -163 145 -21 -1 -64 -16 -97 -33 -70 -37 -95 -77 -113 -176 l-12 -69 -70
-35 c-69 -34 -186 -136 -186 -163 0 -6 -9 -23 -20 -37 -11 -14 -20 -33 -20
-43 0 -10 -9 -36 -21 -58 l-20 -40 23 12 c13 7 48 29 78 49 116 78 310 190
329 190 8 0 52 12 98 26 45 14 88 24 95 22 6 -2 -13 -18 -43 -36 -99 -57 -216
-199 -260 -317 -16 -43 -22 -112 -11 -131 6 -11 11 5 16 56 8 90 23 126 88
209 67 86 91 109 157 150 30 18 61 39 68 47 8 8 19 14 25 14 5 0 8 6 5 13 -4
13 -53 12 -103 -4 -17 -5 -41 -12 -54 -14 -35 -7 -123 -35 -142 -46 -10 -5
-27 -9 -38 -9 -12 0 -40 -9 -62 -20 -23 -11 -49 -20 -58 -20 -8 0 -32 -9 -53
-20 -37 -20 -38 -20 -27 -1 7 14 7 22 0 26 -23 14 103 125 142 125 5 0 23 10
40 21 26 19 47 22 149 26 93 3 119 1 117 -9 -2 -9 12 -14 42 -16 25 -1 52 -5
60 -9 8 -3 23 -7 32 -8 10 -1 21 -4 24 -8 5 -5 -32 -83 -46 -97 -3 -3 -22 -31
-42 -62 -48 -73 -134 -173 -236 -272 -82 -80 -101 -110 -40 -64 18 14 72 64
120 111 l87 86 -3 -105 c-2 -73 0 -107 9 -114 9 -8 13 20 18 123 5 132 20 188
55 210 6 4 12 15 12 22 0 8 3 15 8 15 4 0 6 -40 5 -88 -2 -100 20 -207 48
-237 19 -19 19 -19 33 0 8 11 20 38 27 60 l14 40 3 -38 c4 -49 22 -38 23 16
l2 42 7 -35 7 -35 3 30 c1 17 1 55 1 85 l-1 55 22 -40 c13 -25 21 -55 20 -80
l-1 -40 14 35 15 35 -5 -45 -5 -45 16 28 c15 27 17 28 37 13 12 -9 48 -30 79
-48 32 -18 58 -38 58 -44 0 -11 95 -34 108 -25 4 3 7 13 7 21 -1 17 -57 141
-81 180 -8 14 -18 33 -21 43 -3 9 -9 17 -13 17 -5 0 -13 12 -19 28 -5 15 -26
48 -46 75 -46 59 -29 62 26 5 54 -55 86 -98 92 -123 3 -11 4 17 2 62 -3 45
-11 99 -20 119 -8 20 -14 39 -12 40 6 6 82 -49 152 -110 81 -70 107 -98 136
-143 22 -36 33 -40 52 -21 14 13 7 51 -31 160 -26 71 -34 87 -93 170 -27 37
-49 75 -49 84 0 17 -66 164 -74 164 -3 0 7 -32 20 -70 14 -39 24 -75 22 -80
-2 -6 -18 0 -37 14 -40 30 -154 66 -207 66 -25 0 -46 8 -63 23 l-26 22 24 -27
c14 -16 20 -28 14 -28 -5 0 -38 -18 -72 -40 l-62 -40 28 50 c15 27 42 66 60
85 26 29 29 35 14 35 -30 0 -91 -76 -132 -166 -22 -45 -39 -87 -39 -93 0 -6
-4 -11 -8 -11 -11 0 12 206 28 247 6 17 28 43 49 57 48 34 108 34 179 1 62
-29 70 -24 10 6 -51 26 -91 35 -137 31z m-254 -59 c20 -21 46 -61 59 -89 23
-49 49 -153 40 -162 -12 -12 -53 17 -128 91 -46 45 -104 93 -130 106 -27 13
-48 27 -48 31 0 10 69 40 93 40 13 0 29 -6 37 -12 12 -11 12 -10 2 3 -6 9 -9
19 -5 22 16 16 48 4 80 -30z m-138 -97 c30 -25 58 -43 63 -40 4 3 8 -2 8 -10
0 -8 11 -23 25 -34 36 -28 31 -33 -23 -26 -27 3 -83 1 -127 -5 -43 -6 -80 -10
-81 -8 -2 2 9 40 23 85 19 56 32 82 43 82 8 0 40 -20 69 -44z m709 -73 c90
-62 166 -176 203 -303 7 -25 17 -51 22 -57 5 -7 6 -13 3 -13 -4 0 -46 40 -94
89 -100 101 -149 140 -212 169 -93 41 -171 52 -252 33 -21 -5 -38 -7 -38 -5 0
13 74 37 148 49 61 9 75 13 46 14 -50 1 -154 -18 -174 -33 -8 -6 -4 2 10 17
56 63 132 90 234 82 36 -3 63 -14 104 -42z m-401 -160 c1 -43 8 -96 15 -117
12 -34 12 -49 1 -100 -16 -69 -63 -219 -68 -214 -2 2 -8 39 -14 83 -6 44 -13
100 -17 125 -16 123 4 217 59 278 11 12 21 22 21 22 1 0 2 -35 3 -77z m228 38
c46 -16 52 -22 82 -82 17 -35 34 -77 38 -94 l6 -30 -33 40 c-51 62 -78 84
-113 94 -34 9 -124 70 -125 84 0 13 94 6 145 -12z m-205 -9 c0 -5 9 -20 20
-33 33 -38 109 -138 185 -242 38 -53 71 -94 73 -92 4 4 -80 124 -163 230 -105
137 -120 171 -44 102 20 -17 56 -49 81 -69 69 -56 143 -176 199 -323 10 -27
19 -51 19 -52 0 -13 -122 52 -185 100 -80 61 -159 175 -171 247 -3 14 -9 39
-13 55 -18 61 -21 85 -11 85 5 0 10 -4 10 -8z m-120 -106 c0 -3 -4 -8 -10 -11
-5 -3 -10 -1 -10 4 0 6 5 11 10 11 6 0 10 -2 10 -4z m-480 -21 c0 -3 -26 -21
-57 -42 -32 -20 -70 -48 -85 -62 -34 -30 -36 -22 -5 24 19 30 53 51 122 76 11
4 21 7 23 8 1 1 2 -1 2 -4z"/>
<path d="M831 3284 c0 -11 3 -14 6 -6 3 7 2 16 -1 19 -3 4 -6 -2 -5 -13z"/>
<path d="M1520 3800 c6 -11 13 -20 16 -20 2 0 0 9 -6 20 -6 11 -13 20 -16 20
-2 0 0 -9 6 -20z"/>
<path d="M2046 3813 c-11 -11 -7 -47 11 -98 13 -40 18 -46 26 -33 9 13 16 8
44 -28 18 -24 33 -48 33 -53 0 -5 5 -11 12 -13 8 -3 10 -49 8 -169 -8 -308 -1
-747 12 -755 11 -7 10 -28 13 493 1 255 -1 461 -5 458 -4 -3 -20 13 -35 35
-15 22 -31 40 -35 40 -4 0 -15 18 -25 40 -10 22 -24 45 -31 51 -8 6 -12 15 -9
19 7 11 -10 22 -19 13z"/>
<path d="M954 3765 c-30 -30 -98 -169 -91 -187 3 -7 10 0 16 17 27 72 48 113
78 152 37 48 35 56 -3 18z"/>
<path d="M2226 3768 c-4 -10 -1 -46 7 -80 l15 -63 0 50 c0 28 -4 64 -8 80 -5
24 -8 27 -14 13z"/>
<path d="M2577 3745 c6 -11 14 -38 17 -59 4 -22 16 -58 25 -80 10 -23 25 -61
32 -86 l14 -45 3 37 c3 36 -25 146 -49 190 -6 12 -21 31 -32 42 -19 20 -19 20
-10 1z"/>
<path d="M1065 3743 c11 -3 25 -12 32 -20 6 -8 16 -12 21 -9 6 3 24 -7 40 -24
40 -40 54 -39 16 1 -31 33 -82 60 -111 58 -15 -1 -15 -2 2 -6z"/>
<path d="M1710 3702 c0 -10 61 -183 91 -259 8 -18 16 -33 20 -33 9 0 -8 76
-25 109 -8 14 -28 62 -45 106 -33 82 -41 97 -41 77z"/>
<path d="M3176 3690 c16 -57 52 -144 63 -148 7 -2 6 10 -3 36 -18 49 -69 146
-60 112z"/>
<path d="M1586 3687 c3 -10 9 -15 12 -12 3 3 0 11 -7 18 -10 9 -11 8 -5 -6z"/>
<path d="M3522 3675 c0 -16 2 -22 5 -12 2 9 2 23 0 30 -3 6 -5 -1 -5 -18z"/>
<path d="M4277 3637 c-10 -26 -9 -79 3 -97 15 -24 21 7 12 65 -5 36 -10 45
-15 32z"/>
<path d="M3648 3628 c6 -7 23 -44 38 -83 18 -43 30 -63 32 -52 5 23 -55 147
-70 147 -7 0 -7 -4 0 -12z"/>
<path d="M4360 3603 c0 -4 5 -15 10 -23 8 -13 10 -13 10 2 0 9 -4 20 -10 23
-5 3 -10 3 -10 -2z"/>
<path d="M3840 3591 c0 -6 15 -11 33 -11 17 0 50 -5 72 -10 45 -10 56 -7 27 9
-31 17 -132 26 -132 12z"/>
<path d="M4159 3575 c-3 -11 0 -36 7 -55 l12 -35 0 30 c0 17 -3 41 -7 55 -7
23 -8 23 -12 5z"/>
<path d="M4340 3565 c0 -16 5 -37 10 -45 7 -12 10 -8 10 15 0 17 -5 37 -10 45
-7 12 -10 8 -10 -15z"/>
<path d="M4222 3540 c0 -19 2 -27 5 -17 2 9 2 25 0 35 -3 9 -5 1 -5 -18z"/>
<path d="M1531 3500 c43 -131 72 -206 98 -250 14 -25 38 -70 54 -100 27 -54
28 -49 2 40 -18 63 -133 320 -156 350 -18 24 -18 22 2 -40z"/>
<path d="M2846 3480 c13 -38 26 -87 30 -107 11 -65 65 -276 74 -293 18 -29 10
73 -11 155 -11 44 -26 104 -34 133 -12 49 -69 182 -78 182 -2 0 7 -31 19 -70z"/>
<path d="M4382 3530 c0 -14 2 -19 5 -12 2 6 2 18 0 25 -3 6 -5 1 -5 -13z"/>
<path d="M4464 3536 c22 -10 34 -27 52 -77 13 -35 32 -77 41 -94 9 -16 25 -46
35 -65 l19 -35 -7 35 c-3 19 -17 59 -30 88 -13 29 -24 55 -24 58 0 3 -10 20
-22 36 l-21 31 26 -5 c42 -8 22 8 -32 26 -58 19 -78 20 -37 2z"/>
<path d="M4310 3484 c0 -34 21 -116 28 -109 11 10 11 39 1 87 -11 51 -29 65
-29 22z"/>
<path d="M3616 3485 c4 -11 19 -52 33 -92 28 -77 41 -98 41 -66 0 39 -31 123
-56 150 -20 22 -24 23 -18 8z"/>
<path d="M4350 3476 c0 -31 6 -34 13 -6 3 11 1 23 -4 26 -5 3 -9 -6 -9 -20z"/>
<path d="M4600 3483 c19 -8 45 -19 56 -23 13 -5 28 -26 38 -52 15 -40 15 -41
10 -8 -4 19 -7 39 -8 44 0 6 13 13 29 17 26 6 23 7 -18 8 -27 0 -56 5 -65 10
-9 4 -30 11 -47 14 -29 6 -29 6 5 -10z"/>
<path d="M1960 3483 c0 -11 79 -133 86 -133 6 0 -9 27 -50 90 -20 30 -36 50
-36 43z"/>
<path d="M4226 3477 c3 -10 9 -15 12 -12 3 3 0 11 -7 18 -10 9 -11 8 -5 -6z"/>
<path d="M385 3456 c-16 -8 -39 -21 -50 -30 -16 -13 77 27 94 41 11 8 -17 1
-44 -11z"/>
<path d="M3330 3445 c5 -14 18 -43 29 -66 11 -23 27 -73 36 -113 9 -39 23 -94
30 -122 8 -28 15 -58 15 -67 0 -9 4 -18 8 -21 16 -10 4 120 -17 182 -24 71
-97 232 -105 232 -3 0 -1 -11 4 -25z"/>
<path d="M4126 3452 c-4 -6 -10 -35 -13 -63 -8 -65 13 -60 22 6 8 49 3 77 -9
57z"/>
<path d="M4805 3449 c22 -4 54 -8 70 -7 22 0 19 3 -15 9 -60 10 -108 9 -55 -2z"/>
<path d="M2486 3430 c3 -14 14 -56 24 -95 l20 -70 -5 52 c-2 29 -13 72 -24 95
-11 25 -18 32 -15 18z"/>
<path d="M4070 3429 c0 -5 5 -7 10 -4 6 3 10 8 10 11 0 2 -4 4 -10 4 -5 0 -10
-5 -10 -11z"/>
<path d="M4923 3413 c8 -43 76 -210 77 -188 0 17 -23 114 -46 193 -10 33 -38
29 -31 -5z"/>
<path d="M4973 3433 c9 -2 25 -2 35 0 9 3 1 5 -18 5 -19 0 -27 -2 -17 -5z"/>
<path d="M5045 3420 c28 -12 37 -12 30 0 -3 6 -16 10 -28 9 -21 0 -21 -1 -2
-9z"/>
<path d="M274 3378 l-29 -33 33 29 c30 28 37 36 29 36 -2 0 -16 -15 -33 -32z"/>
<path d="M657 3338 c-46 -46 -88 -99 -112 -143 -21 -38 -47 -83 -58 -98 -10
-16 -18 -30 -16 -32 5 -4 35 38 98 135 26 41 76 105 110 143 35 37 60 67 57
67 -3 0 -38 -33 -79 -72z"/>
<path d="M2383 3385 c3 -11 11 -40 17 -65 24 -94 33 -119 42 -114 4 3 6 10 3
15 -4 5 -8 17 -10 26 -14 65 -38 140 -47 148 -7 7 -9 4 -5 -10z"/>
<path d="M4297 3338 c8 -84 13 -86 13 -5 0 37 -4 67 -10 67 -6 0 -7 -24 -3
-62z"/>
<path d="M4605 3365 c37 -106 59 -162 67 -170 7 -7 8 -3 5 10 -3 11 -9 36 -12
56 -4 20 -20 56 -37 80 -17 24 -27 35 -23 24z"/>
<path d="M3221 3288 c14 -46 37 -132 50 -193 18 -87 24 -104 29 -80 3 17 3 44
-1 60 -4 17 -10 53 -13 80 -11 89 -18 109 -53 163 -19 28 -35 52 -37 52 -1 0
10 -37 25 -82z"/>
<path d="M5014 3323 c3 -21 11 -75 17 -120 6 -46 15 -83 20 -83 5 0 9 9 9 20
0 11 5 20 11 20 14 0 6 74 -17 149 -9 33 -20 51 -30 51 -13 0 -15 -8 -10 -37z"/>
<path d="M4774 3310 c46 -154 68 -221 72 -218 7 8 -15 107 -31 137 -8 17 -15
36 -15 44 0 7 -7 22 -15 33 -9 12 -13 13 -11 4z"/>
<path d="M3071 3290 c0 -8 4 -22 9 -30 12 -18 12 -2 0 25 -6 13 -9 15 -9 5z"/>
<path d="M3802 3290 c0 -8 4 -26 8 -40 6 -20 8 -21 8 -5 0 11 -3 29 -8 40 -5
12 -8 14 -8 5z"/>
<path d="M4390 3272 c0 -36 30 -118 60 -162 38 -57 38 -44 1 35 -16 34 -34 80
-41 103 -11 44 -20 54 -20 24z"/>
<path d="M5180 3287 c0 -4 8 -28 18 -54 11 -26 22 -57 26 -67 3 -10 9 -16 12
-13 9 9 -24 113 -41 127 -8 7 -15 10 -15 7z"/>
<path d="M1335 3205 c4 -11 15 -51 25 -90 15 -62 73 -195 85 -195 2 0 -11 34
-30 76 -19 42 -35 84 -35 93 0 19 -36 121 -46 130 -4 3 -4 -3 1 -14z"/>
<path d="M4924 3200 c3 -14 8 -50 11 -80 7 -63 40 -198 51 -208 9 -9 -4 138
-16 175 -4 15 -11 44 -14 64 -4 19 -13 44 -21 55 -15 18 -15 18 -11 -6z"/>
<path d="M3090 3205 c0 -5 5 -17 10 -25 5 -8 10 -10 10 -5 0 6 -5 17 -10 25
-5 8 -10 11 -10 5z"/>
<path d="M1792 3195 c2 -5 18 -39 35 -75 17 -36 39 -89 48 -118 20 -61 37 -61
24 0 -12 54 -51 134 -85 173 -14 17 -24 26 -22 20z"/>
<path d="M5001 3184 c0 -11 3 -14 6 -6 3 7 2 16 -1 19 -3 4 -6 -2 -5 -13z"/>
<path d="M3660 3127 c26 -63 26 -81 -1 -38 -32 52 -32 31 -1 -45 46 -110 65
-142 90 -147 28 -5 29 12 3 62 -10 20 -31 65 -45 101 -15 36 -36 76 -46 90
-20 25 -20 24 0 -23z m40 -112 c0 -5 -5 -3 -10 5 -5 8 -10 20 -10 25 0 6 5 3
10 -5 5 -8 10 -19 10 -25z"/>
<path d="M2051 3099 c11 -29 24 -60 29 -69 18 -30 10 23 -9 66 -28 62 -44 64
-20 3z"/>
<path d="M1460 3128 c0 -14 54 -118 62 -118 4 0 8 4 8 8 0 10 -69 119 -70 110z"/>
<path d="M3201 3100 c0 -14 6 -50 14 -80 l15 -55 -5 56 c-2 30 -9 66 -14 80
l-10 24 0 -25z"/>
<path d="M4567 3095 c3 -16 12 -41 20 -55 l14 -25 -7 25 c-4 14 -12 39 -20 55
l-13 30 6 -30z"/>
<path d="M5120 3104 c0 -11 7 -67 15 -125 30 -210 27 -197 36 -169 7 25 7 25
8 -4 1 -16 4 -26 8 -22 12 11 3 134 -13 197 -18 71 -53 152 -54 123z"/>
<path d="M5356 3008 c27 -113 40 -140 31 -63 -11 89 -32 165 -47 165 -4 0 3
-46 16 -102z"/>
<path d="M711 3068 c1 -13 5 -34 9 -48 7 -21 8 -19 9 17 1 23 -3 45 -9 48 -6
3 -10 -4 -9 -17z"/>
<path d="M4000 3084 c0 -14 50 -165 60 -183 17 -29 10 0 -21 92 -31 91 -39
109 -39 91z"/>
<path d="M1045 3028 c-4 -18 -18 -46 -31 -61 -18 -21 -24 -41 -24 -73 0 -48
-14 -84 -37 -97 -9 -6 -12 -18 -9 -35 3 -15 13 -88 21 -162 8 -74 17 -151 20
-170 2 -19 5 -56 6 -81 l2 -46 31 10 c17 6 61 23 99 38 37 16 71 29 76 29 18
0 186 84 194 97 4 7 13 13 18 13 11 0 130 55 294 135 50 25 117 54 150 66 33
12 66 27 74 33 8 6 24 12 35 12 56 4 177 28 191 38 26 19 9 46 -24 40 -27 -6
-30 -2 -63 68 -19 40 -41 87 -48 105 -7 18 -19 38 -26 44 -13 10 -13 8 -4 -17
6 -16 16 -51 21 -78 5 -28 13 -52 17 -55 4 -4 15 -23 25 -44 14 -31 15 -41 5
-51 -17 -16 -51 -29 -43 -16 9 15 -4 12 -80 -16 -90 -34 -176 -55 -196 -48 -9
2 -19 12 -23 22 -6 18 -27 53 -37 62 -3 3 -9 14 -12 24 -4 10 -10 16 -13 14
-3 -3 5 -32 16 -64 12 -33 24 -66 26 -74 4 -11 -8 -21 -38 -34 -151 -64 -204
-90 -214 -102 -6 -8 -18 -14 -26 -14 -9 0 -26 -8 -39 -19 -13 -10 -42 -28 -63
-39 l-39 -21 -27 57 c-15 31 -33 75 -40 97 -16 52 -30 67 -30 33 0 -15 4 -29
9 -32 5 -3 11 -20 14 -38 6 -42 12 -66 27 -103 9 -25 9 -31 -7 -43 -24 -18
-101 -52 -119 -52 -8 0 -14 -4 -14 -9 0 -9 -58 -36 -64 -30 -13 16 -39 207
-42 312 -3 70 -5 131 -6 135 -2 4 6 19 16 34 11 17 19 48 19 80 2 37 7 58 20
68 20 17 39 77 27 85 -5 3 -12 -9 -15 -27z"/>
<path d="M5052 2955 c1 -100 14 -294 16 -240 3 52 19 34 25 -25 2 -25 4 0 5
55 2 115 -12 225 -33 263 -13 25 -14 22 -13 -53z"/>
<path d="M300 3003 c0 -6 8 -17 18 -24 16 -13 16 -13 2 6 -8 11 -16 22 -17 24
-2 2 -3 0 -3 -6z"/>
<path d="M947 3000 c-11 -30 -28 -113 -23 -117 7 -8 38 96 33 114 -3 15 -5 15
-10 3z"/>
<path d="M4601 2994 c0 -11 3 -14 6 -6 3 7 2 16 -1 19 -3 4 -6 -2 -5 -13z"/>
<path d="M1531 2984 c0 -11 3 -14 6 -6 3 7 2 16 -1 19 -3 4 -6 -2 -5 -13z"/>
<path d="M4400 2939 c12 -23 19 -47 16 -55 -7 -19 65 -127 77 -115 9 9 -15 63
-71 154 -41 67 -51 75 -22 16z"/>
<path d="M777 2948 c-3 -10 -2 -20 3 -23 6 -4 10 -16 11 -28 0 -12 3 -17 5
-10 3 6 1 26 -4 44 -6 25 -10 29 -15 17z"/>
<path d="M853 2920 c0 -25 2 -35 4 -22 2 12 2 32 0 45 -2 12 -4 2 -4 -23z"/>
<path d="M4905 2884 c18 -41 36 -78 40 -82 13 -13 -8 53 -31 100 -38 76 -45
64 -9 -18z"/>
<path d="M720 2914 c0 -8 5 -25 11 -37 16 -30 99 -107 115 -107 8 0 14 -3 14
-7 0 -5 7 -39 15 -78 8 -38 18 -108 21 -155 3 -47 9 -120 13 -162 7 -76 5 -87
-14 -69 -6 6 -32 -6 -67 -29 -31 -21 -65 -40 -75 -42 -10 -2 -17 -11 -15 -19
2 -8 1 -11 -3 -7 -4 4 -31 -4 -60 -17 l-53 -23 -12 37 c-10 32 -52 91 -64 91
-3 0 2 -12 10 -27 7 -16 14 -35 14 -43 0 -9 7 -26 16 -38 9 -13 14 -24 13 -26
-36 -26 -69 -46 -77 -46 -15 0 -92 -52 -92 -62 0 -4 -3 -8 -7 -7 -16 2 -53
-14 -48 -21 2 -4 -8 -13 -23 -20 -15 -7 -22 -14 -16 -17 5 -2 48 19 95 47 85
52 248 134 414 209 l90 41 -1 37 c-1 77 -23 320 -35 391 -10 60 -16 75 -34 82
-36 14 -85 61 -106 101 -20 40 -39 51 -39 23z"/>
<path d="M945 2880 c-8 -16 -15 -32 -15 -37 0 -10 25 27 33 50 10 27 -1 20
-18 -13z"/>
<path d="M1461 2880 c0 -8 4 -22 9 -30 12 -18 12 -2 0 25 -6 13 -9 15 -9 5z"/>
<path d="M1830 2860 c6 -11 13 -20 16 -20 2 0 0 9 -6 20 -6 11 -13 20 -16 20
-2 0 0 -9 6 -20z"/>
<path d="M1850 2821 c0 -5 5 -13 10 -16 6 -3 10 -2 10 4 0 5 -4 13 -10 16 -5
3 -10 2 -10 -4z"/>
<path d="M4741 2815 c1 -19 18 -51 18 -35 0 8 -4 22 -9 30 -5 8 -9 11 -9 5z"/>
<path d="M609 2792 c6 -12 16 -24 22 -28 8 -4 8 -1 0 14 -6 12 -16 24 -22 28
-8 4 -8 1 0 -14z"/>
<path d="M1250 2786 c0 -2 16 -44 35 -93 26 -64 34 -77 29 -48 -7 48 -64 172
-64 141z"/>
<path d="M255 2748 c50 -119 86 -168 158 -220 l27 -20 -11 26 c-7 14 -19 26
-26 26 -8 0 -11 5 -8 10 3 6 2 10 -4 10 -6 0 -40 45 -76 100 -37 55 -68 100
-70 100 -2 0 2 -15 10 -32z"/>
<path d="M4735 2764 c3 -12 11 -52 19 -90 9 -51 20 -78 41 -99 15 -17 25 -23
22 -15 -3 8 -11 33 -18 55 -7 22 -18 43 -24 48 -6 4 -5 10 5 17 13 8 12 10 -2
10 -10 0 -18 8 -18 18 -1 9 -7 31 -15 47 -8 17 -12 20 -10 9z"/>
<path d="M5307 2767 c-5 -14 18 -155 28 -165 12 -12 17 33 6 67 -6 21 -11 49
-11 62 0 33 -15 56 -23 36z"/>
<path d="M410 2736 c0 -2 8 -10 18 -17 15 -13 16 -12 3 4 -13 16 -21 21 -21
13z"/>
<path d="M4771 2714 c0 -11 3 -14 6 -6 3 7 2 16 -1 19 -3 4 -6 -2 -5 -13z"/>
<path d="M445 2690 c5 -8 18 -28 30 -45 12 -16 41 -63 65 -103 23 -40 45 -71
47 -68 7 6 -19 76 -28 76 -4 0 -9 10 -12 23 -4 12 -29 47 -58 77 -28 30 -48
48 -44 40z"/>
<path d="M5436 2615 c4 -38 8 -79 10 -90 1 -11 3 -31 3 -44 1 -13 4 -21 8 -17
12 11 5 108 -12 167 l-15 54 6 -70z"/>
<path d="M4932 2600 c0 -14 2 -19 5 -12 2 6 2 18 0 25 -3 6 -5 1 -5 -13z"/>
<path d="M690 2576 c0 -3 9 -22 20 -43 11 -21 31 -65 45 -98 19 -44 24 -51 19
-25 -10 54 -84 200 -84 166z"/>
<path d="M5154 2497 c3 -10 13 -46 22 -80 15 -58 43 -123 44 -103 0 20 -35
132 -53 166 -10 19 -16 27 -13 17z"/>
<path d="M5281 2465 c-1 -25 30 -149 39 -160 6 -7 10 -17 9 -21 -1 -5 -1 -18
0 -28 1 -14 4 -17 12 -9 7 7 4 34 -10 92 -18 72 -50 152 -50 126z"/>
<path d="M302 2383 c29 -43 62 -95 73 -117 11 -21 30 -46 42 -56 12 -9 20 -19
18 -22 -3 -3 7 -15 22 -29 l26 -24 -6 25 c-4 14 -7 31 -7 38 0 6 -7 12 -16 12
-8 0 -12 5 -9 11 9 13 -54 108 -113 172 -75 79 -88 75 -30 -10z"/>
<path d="M526 2317 c3 -10 9 -15 12 -12 3 3 0 11 -7 18 -10 9 -11 8 -5 -6z"/>
</g>
</svg>
