<?xml version="1.0" encoding="UTF-8"?>
<svg width="620px" height="154px" viewBox="0 0 620 154" version="1.1" xmlns="http://www.w3.org/2000/svg" xmlns:xlink="http://www.w3.org/1999/xlink">
    <title>facelookingdownneuertest</title>
    <g id="Home-pages" stroke="none" stroke-width="1" fill="none" fill-rule="evenodd">
        <g id="Facedown" transform="translate(-147.000000, -573.000000)" fill="#000000" fill-rule="nonzero">
            <g id="facelookingdownneuertest" transform="translate(147.000000, 573.000000)">
                <g id="Group" transform="translate(310.000000, 77.000000) scale(-1, 1) rotate(-180.000000) translate(-310.000000, -77.000000) translate(0.000000, -0.000000)">
                    <path d="M29,104.988037 L43,88.9880371 C43.8840061,87.828098 44.2173394,86.1614313 44,83.9880371 C43.9864672,83.8527095 41.4731618,74.4235832 41.5306248,74.2942854 C42.5102083,72.0901199 42.6666667,70.3213705 42,68.9880371 C46,66.9880371 54.5311362,42.1519304 68,49.9880371 C73.8954996,53.4180045 77,37.9880371 89,41.9880371 C111.89154,49.6185503 95.968376,44.7496581 113,53.9880371 C123.354078,59.6043483 131.554657,54.2769965 141,57.9880371 C160.202167,65.5324982 177.681355,58.1025024 189,56.9880371 C192.065614,56.6861882 191,43.9880371 192,29.9880371 C193,15.9880371 186.846155,6.68073013 203,3.98803712 C235.259943,-1.38938975 221,0.377114123 221,0.988037122 C221,1.78803712 256.5,0.988037122 257,0.988037122 C257.315093,0.988037122 281.490619,9.13192878 289,25.9880371 C295.789962,41.2292863 318,38.3679126 318,37.9880371 C318,36.8258299 307.743261,32.5847341 425.686588,45.5839947 C439.670096,47.1252032 457.062092,54.9880371 474,54.9880371 L482,58.9880371 L534,65.9880371 L564,92.9880371 L573,115.988037 L574,133.988037 L572.1,153.988037 L571.7,151.788037 L571.3,149.488037 L571.1,151.788037 C571.1,152.988037 570.7,153.988037 570.3,153.988037 C569.8,153.988037 569.5,147.788037 569.5,140.188037 C569.5,129.388037 569.2,125.988037 567.9,123.988037 C567,122.588037 565.3,118.088037 564.1,113.988037 C562.8,109.888037 561.4,105.688037 560.9,104.788037 C560.4,103.788037 560,102.488037 560,101.888037 C560,99.7880371 544.5,82.7880371 541.6,81.6880371 C540,81.0880371 539.3,78.9880371 540.8,78.9880371 C541.2,78.9880371 542.6,79.6880371 543.8,80.5880371 C545,81.3880371 546,81.5880371 546,81.0880371 C546,80.4880371 545.6,79.9880371 545.2,79.9880371 C544.7,79.9880371 542.3,78.6880371 539.9,76.9880371 C537.5,75.3880371 534.9,73.9880371 534.2,73.9880371 C533.4,73.9880371 531.7,73.0880371 530.3,71.9880371 C528.9,70.8880371 527.2,69.9880371 526.6,69.9880371 C526,70.0880371 526.7,70.7880371 528.3,71.5880371 C529.8,72.3880371 531,73.4880371 531,73.9880371 C531,75.8880371 526.5,74.8880371 521,71.8880371 L515.5,68.8880371 L520.5,69.3880371 L525.5,69.9880371 L520,68.4880371 C517,67.6880371 514.4,67.0880371 514.3,66.9880371 C514.1,66.9880371 514,67.6880371 514,68.4880371 C514,70.1880371 512.4,70.4880371 511.5,68.9880371 C511.2,68.4880371 508.3,67.9880371 505.2,67.8880371 C502.1,67.8880371 497.5,67.4880371 495,67.0880371 C490.8,66.3880371 490.7,66.2880371 492.9,65.2880371 C495,64.4880371 494.6,64.2880371 490.5,64.2880371 C487.2,64.2880371 486.2,64.5880371 487.5,65.0880371 C489.3,65.7880371 489.2,65.8880371 487,65.9880371 C485.6,66.0880371 483.8,66.2880371 483,66.3880371 C481.2,66.5880371 474.6,64.3880371 470.9,62.3880371 C469.5,61.6880371 468,61.2880371 467.7,61.6880371 C467.3,61.9880371 465.9,61.4880371 464.6,60.5880371 C463.2,59.6880371 461,58.9880371 459.6,58.9880371 C458.2,58.9880371 456.8,58.5880371 456.5,57.9880371 C456.2,57.4880371 455,56.9880371 454,56.9880371 C453,56.9880371 451.5,56.2880371 450.6,55.4880371 C449.8,54.6880371 448.7,53.9880371 448.2,53.9880371 C447.7,53.9880371 445.9,53.2880371 444.4,52.4880371 C440.9,50.6880371 437.3,50.5880371 436.8,52.1880371 C436.3,53.5880371 438.2,57.9880371 439.3,57.9880371 C439.7,57.9880371 440,58.5880371 440,59.3880371 C440,61.6880371 441.8,62.2880371 448.7,62.4880371 C452.1,62.6880371 456.5,63.4880371 458.3,64.2880371 C460.1,65.1880371 462.7,66.0880371 464.2,66.3880371 C467.8,66.9880371 474,69.9880371 474,71.0880371 C474,71.5880371 474.6,71.9880371 475.3,71.9880371 C476.5,71.9880371 486.5,81.1880371 488.5,84.0880371 C492.3,89.6880371 494.4,95.8880371 495.5,104.988037 C495.9,108.688037 495.8,110.188037 495.1,109.488037 C494.6,108.888037 494,106.788037 493.8,104.688037 C493.7,102.588037 493.2,100.588037 492.8,100.388037 C492.4,100.088037 492,98.9880371 492,97.8880371 C492,96.7880371 491.6,96.1880371 491,96.4880371 C490.4,96.7880371 490,96.3880371 490,95.5880371 C490,93.3880371 486.7,85.9880371 485.8,85.9880371 C485.3,85.9880371 485,85.0880371 485,84.0880371 C485,83.0880371 484.3,81.9880371 483.5,81.5880371 C481.6,80.8880371 481.5,83.2880371 483.3,85.1880371 C485,86.9880371 487.6,92.5880371 489,97.7880371 C490.3,102.688037 490.9,136.988037 489.7,136.988037 C489.2,136.988037 489.1,138.288037 489.5,139.988037 C489.9,141.988037 489.6,143.688037 488.6,145.188037 C487.7,146.388037 487,148.388037 487,149.488037 C487,152.388037 485.1,153.988037 481.8,153.988037 C480,153.988037 478.7,153.388037 478.3,152.288037 C477,148.688037 469.6,138.888037 466.1,136.288037 C460.9,132.188037 446.8,122.988037 445.8,122.988037 C445.4,122.988037 444.3,121.788037 443.3,120.288037 C442.3,118.688037 441.1,117.188037 440.6,116.788037 C440.1,116.488037 439.5,115.588037 439.4,114.788037 C439.3,114.088037 438.7,112.188037 438.1,110.488037 C437.6,108.888037 436.7,103.988037 436.2,99.6880371 C435.4,92.9880371 434.8,91.5880371 432,88.6880371 C427.4,84.0880371 425.7,79.5880371 426.5,74.0880371 C427.3,68.3880371 429.6,61.3880371 431.5,58.6880371 C432.3,57.4880371 433,55.5880371 433,54.3880371 C433,52.5880371 432,51.9880371 426.3,50.5880371 C422.5,49.6880371 414.3,48.3880371 408,47.5880371 C401.7,46.7880371 390.2,45.2880371 382.5,44.1880371 C360.1,40.9880371 343.8,39.8880371 323.8,40.1880371 C306.2,40.4880371 305,40.5880371 304.1,42.4880371 C303.2,44.3880371 303.1,44.3880371 303.1,42.2880371 C303,39.8880371 302.3,39.4880371 300.2,40.8880371 C298.8,41.6880371 299.3,42.9880371 308.6,62.6880371 C311,67.7880371 313,72.2880371 313,72.7880371 C313,73.2880371 313.7,74.2880371 314.5,74.9880371 C315.3,75.6880371 316,77.7880371 316,79.5880371 C316,82.6880371 317.9,84.6880371 318.1,81.7880371 C318.1,81.0880371 318.5,81.3880371 319,82.4880371 C319.7,84.0880371 319.9,84.1880371 319.9,82.7880371 C320,81.8880371 320.5,80.7880371 321.2,80.3880371 C321.9,79.8880371 322,80.0880371 321.5,81.0880371 C321,81.8880371 321.5,81.7880371 322.7,80.7880371 C323.8,79.7880371 325.2,78.9880371 325.9,78.9880371 C326.5,78.9880371 327.3,78.2880371 327.6,77.4880371 C328,76.6880371 328.8,75.9880371 329.5,75.9880371 C330.2,75.9880371 331.8,74.6880371 333.1,72.9880371 C334.6,71.0880371 336.4,69.9880371 338,69.9880371 C339.8,69.9880371 340.1,69.6880371 339.2,69.0880371 C338.2,68.4880371 339.3,67.3880371 343.3,65.0880371 C347.9,62.4880371 349.7,61.9880371 353.7,62.2880371 C356.4,62.4880371 359.5,63.1880371 360.7,63.7880371 C363.9,65.4880371 367.8,65.2880371 372.5,62.9880371 C377.2,60.6880371 381,61.0880371 378.5,63.5880371 C377.8,64.3880371 376.5,64.9880371 375.7,64.9880371 C374.9,64.9880371 372.9,65.6880371 371.4,66.4880371 C366.9,68.7880371 370.9,68.3880371 382,65.3880371 C391.4,62.7880371 402.4,60.9880371 397,62.8880371 C390.2,65.2880371 380.8,67.9880371 379.3,67.9880371 C378.4,67.9880371 377.9,68.2880371 378.3,68.5880371 C378.8,69.0880371 388.6,67.4880371 392,66.1880371 C392.8,65.8880371 394.2,65.5880371 395.1,65.3880371 C396,65.1880371 398,64.5880371 399.6,63.9880371 C401.9,63.0880371 402.1,62.6880371 401,61.9880371 C400.1,61.3880371 400,60.9880371 400.7,60.9880371 C401.3,60.9880371 402.2,61.4880371 402.5,61.9880371 C403.4,63.4880371 407.1,62.1880371 409.8,59.3880371 C412,57.0880371 414.1,56.3880371 415.3,57.5880371 C416,58.3880371 412.3,61.9880371 410.7,61.9880371 C410,61.9880371 409,62.3880371 408.5,62.7880371 C405.4,65.4880371 387.3,70.3880371 378.3,70.8880371 C377.6,70.9880371 377,72.2880371 377,73.8880371 C377,75.4880371 376.3,77.4880371 375.5,78.3880371 C373.9,79.9880371 373.4,83.9880371 374.9,83.9880371 C375.4,83.9880371 376.1,84.7880371 376.4,85.7880371 C376.7,86.6880371 378,88.5880371 379.2,89.9880371 C384.4,95.6880371 386.6,101.888037 384.1,103.488037 C383.2,103.988037 381,98.1880371 381,95.4880371 C381,94.8880371 380.1,93.8880371 379,93.1880371 C377.9,92.4880371 377,91.3880371 377,90.5880371 C377,89.7880371 375.9,88.1880371 374.5,86.8880371 C373.2,85.5880371 372,83.3880371 372,81.9880371 C372,80.0880371 371.7,79.8880371 371.1,80.8880371 C370.6,81.6880371 370.4,82.9880371 370.7,83.8880371 C371,84.7880371 370.5,84.4880371 369.5,83.1880371 C367.9,80.9880371 368.1,77.2880371 369.7,78.2880371 C370.2,78.5880371 371.3,77.6880371 372.3,76.3880371 C373.5,74.7880371 373.7,73.9880371 372.9,73.9880371 C372.2,73.9880371 370.7,73.0880371 369.6,72.0880371 C368.4,70.9880371 364.2,69.1880371 360.2,68.0880371 C353.2,66.1880371 352.6,66.1880371 348.7,67.6880371 C344.9,69.1880371 338.8,73.2880371 335.1,76.7880371 C332.5,79.2880371 308.1,94.7880371 300.2,98.9880371 C295.2,101.688037 291.7,104.388037 286,110.088037 C278.1,117.988037 276.8,120.888037 279.2,125.288037 C280.2,127.288037 280.2,127.388037 278.5,125.988037 C276.8,124.588037 276.8,124.688037 277.5,126.988037 C280.4,136.588037 285.1,141.288037 293.5,142.788037 C304.2,144.788037 308,145.088037 310,143.988037 C311,143.488037 316.1,142.688037 321.3,142.388037 C331.5,141.788037 338.8,143.188037 348.5,147.688037 C351.3,148.888037 355.8,150.588037 358.5,151.488037 C363.7,152.988037 377,153.588037 377,152.188037 C377,151.788037 378.2,151.288037 379.7,151.188037 C381.2,151.088037 383.8,149.588037 385.5,147.988037 C388.3,145.188037 388.5,144.388037 388.5,137.988037 C388.5,131.888037 388.2,130.788037 386.3,129.488037 C384.4,128.188037 381.7,121.888037 381.5,118.488037 C381.5,117.988037 381.1,117.188037 380.6,116.888037 C380.2,116.488037 380.1,115.188037 380.5,113.888037 C381.3,111.588037 381.3,111.588037 382.2,113.488037 C382.9,115.088037 383,114.988037 382.6,112.688037 C382.4,111.188037 382.7,109.688037 383.1,109.388037 C383.6,109.088037 384,107.988037 384,106.888037 C384,105.888037 384.7,104.988037 385.5,104.988037 C387.4,104.988037 387.4,105.888037 385.4,112.688037 C384,117.388037 384,118.888037 385,122.088037 C385.7,124.288037 386.6,125.988037 386.9,125.988037 C387.2,125.988037 388.7,127.888037 390.2,130.288037 C392.9,134.488037 392.9,134.788037 391.7,141.088037 C390.4,147.988037 388.8,150.988037 385.3,152.788037 C382.7,154.188037 353.9,154.488037 351.2,153.088037 C348.2,151.588037 344.7,150.288037 337.5,148.188037 C331.7,146.488037 328.9,146.188037 321,146.688037 C312.1,147.288037 311.7,147.388037 314.5,148.588037 C316.2,149.388037 318.6,149.888037 320,149.788037 C322.9,149.588037 332.8,151.788037 335,153.188037 C335.9,153.788037 332.2,153.888037 325,153.488037 C313.6,152.788037 306.8,152.688037 285.5,153.088037 L274.6,153.288037 L271.7,149.888037 C261.8,138.088037 257.7,126.688037 261.5,121.588037 C262.3,120.588037 265.3,118.888037 268.2,117.888037 C272.9,116.288037 273,116.088037 269.5,116.788037 C267.3,117.188037 261.7,117.488037 257,117.488037 C249.5,117.488037 247.9,117.088037 243.1,114.488037 C236.4,110.788037 227.9,102.488037 224.2,95.9880371 C222.6,93.2880371 221,91.2880371 220.7,91.6880371 C220.3,91.9880371 220,91.3880371 220,90.2880371 C220,88.4880371 215.8,77.2880371 211.3,67.1880371 C209.9,63.8880371 207,62.7880371 207,65.5880371 C207,66.3880371 207.4,66.8880371 207.9,66.4880371 C208.5,66.1880371 208.8,66.7880371 208.8,67.6880371 C208.7,69.6880371 213.2,81.6880371 215.8,86.4880371 C220.4,95.0880371 227.4,104.288037 236.2,113.488037 C241.6,119.188037 246,124.288037 246,124.888037 C246,125.488037 246.6,125.688037 247.4,125.388037 C248.4,124.988037 248.9,126.488037 249.4,131.588037 C249.8,135.288037 250.7,139.188037 251.5,140.388037 C252.3,141.488037 253,143.288037 253,144.288037 C253,145.288037 253.9,147.888037 254.9,149.988037 L256.8,153.988037 L254.5,153.988037 C252.7,153.988037 252,153.088037 251,149.488037 C250.3,146.988037 249.4,144.688037 248.9,144.488037 C248.5,144.188037 247.9,142.088037 247.5,139.688037 C245.9,129.688037 243.3,124.088037 237.8,119.088037 C235.6,117.088037 232.9,114.588037 231.7,113.488037 C230.5,112.388037 227.1,108.288037 224.3,104.488037 C221.4,100.588037 218.5,96.8880371 217.8,96.0880371 C217.1,95.2880371 216.5,94.0880371 216.4,93.4880371 C216.3,92.8880371 215.4,90.7880371 214.3,88.7880371 C212.7,85.7880371 212,85.2880371 211,86.2880371 C209.8,87.2880371 209.8,87.1880371 210.8,85.8880371 C211.7,84.5880371 211.5,82.9880371 209.4,77.8880371 C205.1,67.3880371 204.9,67.0880371 205.5,71.4880371 C206.4,79.4880371 207.2,83.4880371 208,84.4880371 C209.1,85.9880371 209.9,95.0880371 208.9,94.3880371 C208.4,94.0880371 208,94.3880371 208,94.8880371 C208,95.4880371 208.7,95.9880371 209.5,95.9880371 C210.3,95.9880371 211,96.5880371 211,97.3880371 C211,98.0880371 212,98.9880371 213.2,99.2880371 C214.9,99.7880371 215.1,100.188037 214.2,101.288037 C213.2,102.488037 213.7,102.688037 217,102.488037 L221.1,102.288037 L218.9,104.588037 C217.2,106.388037 216.4,106.688037 215.8,105.788037 C214.7,104.188037 215.9,109.788037 217.1,112.188037 C217.6,113.088037 218,114.788037 218,115.888037 C218,116.888037 218.6,118.088037 219.2,118.288037 C220.2,118.688037 220.2,118.888037 219.3,118.888037 C218.6,118.988037 218.3,119.688037 218.6,120.488037 C219.2,121.888037 219.4,121.788037 220.6,120.288037 C221.3,119.288037 222,117.688037 222,116.788037 C222,114.688037 223.6,114.388037 224.3,116.388037 C225.7,119.988037 213.6,133.588037 207.9,134.888037 C204.2,135.688037 201.7,135.288037 202.5,133.988037 C202.8,133.488037 202,130.888037 200.6,128.288037 C199.2,125.688037 197.1,121.388037 195.9,118.788037 C194.7,116.088037 193.3,113.988037 192.9,113.988037 C192.6,113.988037 192,112.988037 191.7,111.788037 C191.2,109.388037 186.5,95.8880371 185.1,92.4880371 C183,87.5880371 182,81.7880371 182.5,76.7880371 C182.8,73.0880371 183.8,76.4880371 183,75.9880371 C182.6,75.6880371 183,74.9880371 183,74.9880371 C183,74.9880371 183.7,70.8880371 183,68.9880371 C182.2,67.0880371 167.6,71.6880371 168,70.9880371 C168.4,70.2880371 156.818663,73.9880371 158,73.9880371 C151.4,76.6547038 147.733333,77.9880371 147,77.9880371 C146.2,77.9880371 136,82.8880371 136,83.9880371 C136,85.5880371 127.8,90.9880371 125,90.9880371 C122.3,90.9880371 107,103.288037 107,101.988037 C107,99.4880371 100.7,105.588037 103,104.988037 C104.3,104.688037 100.1,110.088037 98,109.988037 C94.9,109.888037 82,122.688037 82,125.988037 L73,143.988037 L69,153.988037 L0,153.988037 C3.88101946,137.208669 8.54768613,125.208669 14,117.988037 C19.4523139,110.767405 24.4523139,106.434072 29,104.988037 Z M484.6,147.888037 C484.3,146.388037 484.4,144.788037 484.9,144.588037 C486.9,143.288037 488.3,128.588037 487.8,114.288037 C487.3,102.288037 486.8,98.3880371 485,93.6880371 C481.9,85.4880371 472.4,73.8880371 466.5,70.9880371 C459.6,67.6880371 442,64.4880371 443.4,66.8880371 C443.8,67.3880371 443.4,68.0880371 442.8,68.2880371 C441.9,68.6880371 442,68.8880371 443.1,68.8880371 C444.7,68.9880371 448.5,75.4880371 448.3,77.6880371 C448.3,78.3880371 448.5,78.7880371 448.9,78.5880371 C450.4,77.5880371 452.3,79.9880371 452.4,82.8880371 C452.5,86.0880371 453.4,86.9880371 454.3,84.7880371 C454.7,83.7880371 455.1,83.8880371 455.9,84.9880371 C456.6,85.9880371 456.5,86.7880371 455.8,87.6880371 C455,88.6880371 455.3,90.1880371 456.8,93.2880371 C458,95.5880371 459.6,99.9880371 460.5,102.988037 L462,108.488037 L461.5,103.088037 C461.3,100.188037 460.5,97.1880371 459.9,96.3880371 C459.3,95.5880371 459,94.9880371 459.4,94.9880371 C459.7,94.9880371 459.1,93.3880371 458,91.4880371 C455.6,87.1880371 457.2,86.7880371 459.7,90.9880371 C460.6,92.6880371 461.7,93.9880371 462.1,93.9880371 C463.2,93.9880371 464.4,103.788037 464.2,110.788037 C464.1,114.888037 464.4,116.988037 465.2,116.988037 C465.8,116.988037 466,117.288037 465.7,117.588037 C465.4,117.988037 466.3,120.288037 467.7,122.788037 C469.5,125.888037 470,127.488037 469.2,127.788037 C467.4,128.388037 467.8,129.788037 470,130.488037 C471.1,130.788037 472,131.788037 472,132.488037 C472,133.288037 472.8,134.488037 473.8,135.188037 C474.9,135.888037 476.2,138.088037 476.9,140.088037 C477.5,142.088037 479.2,145.088037 480.5,146.588037 C481.9,148.188037 483,150.088037 483,150.788037 C483,151.488037 483.5,151.788037 484.1,151.388037 C484.7,151.088037 485,149.488037 484.6,147.888037 Z M4,148.988037 C4,148.488037 3.8,147.988037 3.6,147.988037 C3.3,147.988037 2.8,148.488037 2.5,148.988037 C2.2,149.588037 2.4,149.988037 2.9,149.988037 C3.5,149.988037 4,149.588037 4,148.988037 Z M300.8,149.188037 C307.6,148.788037 303.2,146.588037 293.1,145.388037 C291.9,145.188037 288.7,143.988037 286.1,142.688037 C282.2,140.588037 281,139.288037 277.7,132.788037 C274.6,126.588037 274.1,124.788037 274.9,122.788037 C275.8,120.488037 275.6,120.288037 273.9,120.688037 C272.9,120.988037 272,121.588037 272,121.988037 C272,122.388037 270.6,122.988037 268.8,123.388037 C267.1,123.688037 266,124.288037 266.3,124.588037 C266.6,124.988037 266.2,125.888037 265.3,126.788037 C263.1,129.088037 264.3,134.288037 268.5,140.688037 C270.5,143.688037 273.3,146.588037 274.8,147.188037 C279,148.988037 289.3,149.788037 300.8,149.188037 Z M309.7,148.388037 C309.4,148.088037 308.5,147.988037 307.8,148.288037 C307,148.588037 307.3,148.888037 308.4,148.888037 C309.5,148.988037 310.1,148.688037 309.7,148.388037 Z M7.5,146.988037 C7.8,146.488037 7.6,145.988037 7.1,145.988037 C6.5,145.988037 6,146.488037 6,146.988037 C6,147.588037 6.2,147.988037 6.4,147.988037 C6.7,147.988037 7.2,147.588037 7.5,146.988037 Z M572.7,133.388037 C572.4,124.088037 571.8,118.388037 571.1,117.688037 C570.2,116.788037 570,116.888037 570.5,118.088037 C571.2,120.088037 571.7,127.088037 571.9,138.788037 C571.9,143.788037 572.3,147.988037 572.6,147.988037 C573,147.988037 573,141.388037 572.7,133.388037 Z M33.8,143.988037 C35.1,142.388037 35.8,140.988037 35.6,140.988037 C34.8,140.988037 31,145.288037 31,146.188037 C31,147.488037 31.5,147.088037 33.8,143.988037 Z M80.7,141.788037 C80.4,141.088037 80.2,141.588037 80.2,142.988037 C80.2,144.388037 80.4,144.888037 80.7,144.288037 C80.9,143.588037 80.9,142.388037 80.7,141.788037 Z M154.7,142.788037 C154.4,141.988037 154.1,142.288037 154.1,143.388037 C154,144.488037 154.3,145.088037 154.6,144.688037 C154.9,144.388037 155,143.488037 154.7,142.788037 Z M26,136.688037 C26,136.288037 25.3,136.488037 24.5,137.388037 C23.7,138.188037 23,139.488037 23,140.188037 C23.1,141.588037 26,138.188037 26,136.688037 Z M74.7,138.788037 C74.4,137.988037 74.1,138.288037 74.1,139.388037 C74,140.488037 74.3,141.088037 74.6,140.688037 C74.9,140.388037 75,139.488037 74.7,138.788037 Z M31.9,135.488037 C31.9,134.988037 31.3,135.388037 30.5,136.388037 C29.7,137.488037 29,138.788037 29,139.388037 C29,139.888037 29.7,139.488037 30.5,138.388037 C31.3,137.388037 31.9,136.088037 31.9,135.488037 Z M9,136.888037 C9,136.288037 8.6,136.188037 8,136.488037 C7.5,136.788037 7,137.588037 7,138.088037 C7,138.688037 7.5,138.788037 8,138.488037 C8.6,138.188037 9,137.388037 9,136.888037 Z M39.5,137.988037 C39.8,137.488037 39.6,136.988037 39.1,136.988037 C38.5,136.988037 38,137.488037 38,137.988037 C38,138.588037 38.2,138.988037 38.4,138.988037 C38.7,138.988037 39.2,138.588037 39.5,137.988037 Z M78.5,131.388037 C79.3,129.388037 80,127.488037 80,127.188037 C80,125.988037 77.3,130.488037 76.6,132.788037 C75.4,136.288037 76.8,135.388037 78.5,131.388037 Z M83,131.488037 C83,130.988037 82.5,131.188037 82,131.988037 C81.5,132.788037 81,133.988037 81,134.488037 C81,135.088037 81.5,134.788037 82,133.988037 C82.5,133.188037 83,132.088037 83,131.488037 Z M52.8,133.288037 C51.8,133.088037 50.2,133.088037 49.3,133.288037 C48.3,133.588037 49.1,133.788037 51,133.788037 C52.9,133.788037 53.7,133.588037 52.8,133.288037 Z M87.8,131.888037 C89.7,128.888037 88.6,128.488037 86.6,131.488037 C85.7,132.888037 85.3,133.988037 85.7,133.988037 C86.2,133.988037 87.1,133.088037 87.8,131.888037 Z M38.5,131.988037 C38.8,131.488037 38.4,130.988037 37.6,130.988037 C36.7,130.988037 36,131.488037 36,131.988037 C36,132.588037 36.4,132.988037 36.9,132.988037 C37.5,132.988037 38.2,132.588037 38.5,131.988037 Z M466,131.988037 C466,131.488037 465.6,130.988037 465.1,130.988037 C464.3,130.988037 463.4,129.088037 461.1,121.888037 C459.7,117.388037 459.7,111.988037 461.1,111.988037 C461.7,111.988037 462,111.388037 461.7,110.788037 C461.5,110.088037 460.7,109.588037 460.1,109.788037 C459.5,109.888037 459,108.988037 459,107.688037 C459,106.488037 458.2,103.888037 457.2,102.088037 C455.8,99.3880371 454.2,98.2880371 450.3,97.0880371 C444.4,95.1880371 443.1,94.2880371 445.3,93.4880371 C446.1,93.0880371 448.7,93.7880371 450.9,94.7880371 C455,96.7880371 456.2,96.3880371 453.7,93.7880371 C451.2,91.2880371 448.8,87.0880371 449.4,86.0880371 C449.7,85.5880371 449.7,84.9880371 449.2,84.7880371 C447.9,84.1880371 442.3,76.5880371 439,70.7880371 C435.8,64.8880371 434.1,63.5880371 433.9,66.7880371 C433.9,68.0880371 433.6,67.8880371 432.7,65.9880371 C431.6,63.6880371 431.4,63.9880371 429.9,70.4880371 C429,74.3880371 428.7,77.6880371 429.2,77.7880371 C429.6,77.9880371 430,78.6880371 430,79.3880371 C430,80.0880371 430.9,81.4880371 432,82.4880371 C433.1,83.4880371 434,84.8880371 434,85.6880371 C434,86.4880371 434.5,86.7880371 435,86.4880371 C435.6,86.1880371 436,86.7880371 436,87.9880371 C436,89.1880371 436.5,91.0880371 437.1,92.1880371 C437.7,93.3880371 438.3,96.4880371 438.3,99.1880371 C438.3,101.788037 438.7,103.988037 439.2,103.988037 C439.6,103.988037 440,105.488037 440,107.288037 C440,111.788037 445.4,118.088037 455.7,125.488037 C460.2,128.788037 464,131.788037 464,132.288037 C464,133.388037 466,133.088037 466,131.988037 Z M76.4,128.388037 C76.7,127.588037 76.6,127.188037 76,127.488037 C75.4,127.788037 75,128.488037 75,129.088037 C75,130.488037 75.7,130.188037 76.4,128.388037 Z M83.9,117.588037 C83,116.788037 82.9,116.788037 83.3,117.588037 C83.7,118.288037 83.3,120.088037 82.5,121.588037 C81.7,123.188037 81,124.988037 81,125.488037 C81.1,126.088037 82,124.688037 83,122.588037 C84.5,119.588037 84.7,118.288037 83.9,117.588037 Z M93.9,113.988037 C94.9,112.088037 94.4,112.288037 92.1,114.988037 C90.4,116.888037 89,118.888037 89,119.288037 C89,120.588037 92.7,116.688037 93.9,113.988037 Z M18.1,117.288037 C19.4,115.688037 19.3,115.588037 17.8,116.888037 C16.8,117.588037 16,118.388037 16,118.588037 C16,119.388037 16.8,118.888037 18.1,117.288037 Z M569.3,112.488037 C569,110.888037 567.9,108.288037 566.9,106.788037 C565.8,105.388037 565,103.688037 565,103.088037 C565,102.488037 564.6,101.988037 564,101.988037 C562.6,101.988037 562.8,103.588037 564.3,105.188037 C566.7,107.488037 568.1,110.888037 568.2,114.488037 C568.3,116.688037 568.6,117.588037 569.1,116.788037 C569.5,116.188037 569.6,114.188037 569.3,112.488037 Z M24.4,113.088037 C24.2,112.788037 23.2,113.388037 22.2,114.388037 C20.6,116.088037 20.6,116.188037 22.7,114.888037 C23.9,114.188037 24.7,113.388037 24.4,113.088037 Z M260.9,114.388037 C264.2,113.688037 264.2,111.988037 260.9,111.988037 C259.8,111.988037 259.2,112.488037 259.5,112.988037 C259.8,113.588037 259.6,113.988037 259.1,113.988037 C258.5,113.988037 258,113.288037 258,112.488037 C258,110.788037 257.1,110.588037 255,111.988037 C253.7,112.888037 253.7,113.088037 255,113.988037 C256.8,115.188037 256.9,115.188037 260.9,114.388037 Z M89,110.888037 C89,110.288037 88.6,110.188037 88,110.488037 C87.5,110.788037 87,111.588037 87,112.088037 C87,112.688037 87.5,112.788037 88,112.488037 C88.6,112.188037 89,111.388037 89,110.888037 Z M274.8,108.788037 C279,101.588037 282.2,95.0880371 285.5,86.4880371 C287.9,80.3880371 288.9,78.5880371 288.6,80.9880371 C288.2,85.1880371 281.8,101.888037 278.9,106.588037 C276,111.388037 277.6,110.788037 282.7,105.388037 C285.1,102.788037 287,100.988037 287,101.188037 C287,101.488037 289.5,99.2880371 292.5,96.2880371 C295.6,93.3880371 298.5,91.1880371 298.9,91.4880371 C299.4,91.6880371 300.1,91.2880371 300.4,90.3880371 C300.7,89.5880371 301.4,89.1880371 302,89.4880371 C303.6,90.4880371 303.2,81.9880371 301.4,77.2880371 C300.5,74.8880371 299.3,72.9880371 298.9,72.9880371 C298.4,72.9880371 298,72.0880371 298,70.9880371 C298,69.0880371 295.1,61.9880371 293.9,60.9880371 C293.5,60.6880371 293,59.5880371 292.6,58.4880371 C291.4,54.4880371 287.2,50.6880371 284.8,51.2880371 C277.7,52.9880371 275.1,53.8880371 271.3,55.7880371 C269,56.9880371 266.3,57.9880371 265.2,57.9880371 C264.2,57.9880371 263,58.3880371 262.5,58.8880371 C261.9,59.3880371 259.8,60.2880371 257.7,60.9880371 C255.1,61.7880371 254.1,62.4880371 254.8,63.1880371 C255.4,63.7880371 256.4,63.8880371 257.1,63.4880371 C258.6,62.4880371 270.8,62.7880371 276.7,63.8880371 C279.2,64.3880371 281,64.3880371 281,63.7880371 C281,63.2880371 282,63.7880371 283.2,64.9880371 C284.4,66.0880371 285.8,66.9880371 286.3,66.9880371 C286.7,66.9880371 287.9,67.7880371 288.8,68.6880371 C290.4,70.1880371 290.3,70.2880371 287.5,69.6880371 C285.8,69.3880371 281.2,68.3880371 277.1,67.4880371 C273.1,66.5880371 269.6,66.0880371 269.3,66.2880371 C269.1,66.5880371 269.5,67.8880371 270.1,69.3880371 C271,71.3880371 271.6,71.6880371 272.2,70.7880371 C272.8,69.8880371 272.9,70.2880371 272.5,71.6880371 C272.2,72.8880371 272.6,76.2880371 273.4,79.0880371 C274.3,81.9880371 275,86.6880371 275,89.5880371 C275,95.1880371 276.4,97.4880371 277.4,93.6880371 C277.7,92.4880371 278,89.6880371 278,87.4880371 C278,83.0880371 279.8,78.8880371 280.1,82.4880371 C280.7,90.1880371 278.5,99.3880371 274.3,106.788037 C269.8,114.388037 269.3,111.188037 273.6,102.788037 C274.7,100.588037 275,98.4880371 274.6,95.5880371 C273.5,88.6880371 269.7,73.4880371 268.9,72.9880371 C268.5,72.6880371 267.8,71.2880371 267.5,69.6880371 C267.1,68.1880371 266.4,67.2880371 265.9,67.5880371 C265.4,67.8880371 265,67.5880371 265,67.0880371 C265,66.4880371 263.9,65.9880371 262.5,65.9880371 L260.1,65.9880371 L262.5,69.5880371 C266,74.7880371 266.9,78.6880371 268.2,93.8880371 C269,103.888037 269,107.688037 268.2,109.088037 C266.5,111.788037 266.7,111.988037 269.9,111.988037 C272.1,111.988037 273.3,111.188037 274.8,108.788037 Z M96.5,109.988037 C96.8,109.488037 96.6,108.988037 96.1,108.988037 C95.5,108.988037 95,109.488037 95,109.988037 C95,110.588037 95.2,110.988037 95.4,110.988037 C95.7,110.988037 96.2,110.588037 96.5,109.988037 Z M247.8,109.288037 C246.8,109.088037 246,108.388037 246,107.888037 C246,107.388037 245.5,106.988037 244.9,106.988037 C243,106.988037 233.7,101.988037 232.4,100.188037 C231.6,99.2880371 231,98.9880371 231,99.5880371 C231,100.788037 235.3,104.888037 239,107.188037 C241.9,108.988037 244.5,109.788037 247.5,109.788037 C249.1,109.788037 249.2,109.688037 247.8,109.288037 Z M265.7,97.7880371 C264.9,82.8880371 264.2,78.3880371 262.4,76.8880371 C261.6,76.2880371 261,75.1880371 261,74.5880371 C260.9,73.2880371 254.4,68.9880371 253.6,69.7880371 C253.3,70.0880371 253,71.1880371 253,72.1880371 C253,73.1880371 252.1,74.8880371 251,75.9880371 C249.8,77.1880371 249.1,78.3880371 249.4,78.7880371 C249.9,79.6880371 249.1,79.7880371 240.3,80.5880371 C235,81.0880371 233.5,80.7880371 230.5,78.9880371 C226.5,76.4880371 226.4,76.7880371 228.6,81.7880371 C231.9,89.6880371 234.9,94.4880371 236.9,95.4880371 C238.1,95.9880371 239,96.8880371 239,97.4880371 C239.1,98.4880371 247.4,103.988037 248.9,103.988037 C249.3,103.988037 251.5,104.888037 253.8,105.988037 C256,107.088037 259,107.988037 260.4,107.988037 C261.8,107.988037 263.2,108.488037 263.5,108.988037 C263.8,109.588037 264.6,109.988037 265.2,109.988037 C266,109.988037 266.1,106.288037 265.7,97.7880371 Z M47,106.988037 C46.2,106.488037 45.1,105.988037 44.5,105.988037 C44,105.988037 44.2,106.488037 45,106.988037 C45.8,107.488037 47,107.988037 47.5,107.988037 C48.1,107.988037 47.8,107.488037 47,106.988037 Z M49.5,103.988037 C49.8,103.388037 49.4,103.288037 48.6,103.588037 C46.8,104.288037 46.5,104.988037 47.9,104.988037 C48.5,104.988037 49.2,104.588037 49.5,103.988037 Z M86,99.8880371 C86,98.7880371 85.6,98.0880371 85,98.4880371 C84.5,98.7880371 84.3,99.6880371 84.7,100.488037 C85.4,102.588037 86,102.388037 86,99.8880371 Z M55.9,96.5880371 C55.7,96.3880371 54.6,97.3880371 53.6,98.7880371 L51.7,101.488037 L54.1,99.2880371 C55.3,98.0880371 56.2,96.8880371 55.9,96.5880371 Z M36.5,98.1880371 C36.2,97.8880371 35.4,98.1880371 34.7,98.8880371 C33.8,99.8880371 33.9,99.9880371 35.3,99.3880371 C36.3,99.0880371 36.8,98.4880371 36.5,98.1880371 Z M47,98.9880371 C47,98.4880371 46.8,97.9880371 46.6,97.9880371 C46.3,97.9880371 45.8,98.4880371 45.5,98.9880371 C45.2,99.5880371 45.4,99.9880371 45.9,99.9880371 C46.5,99.9880371 47,99.5880371 47,98.9880371 Z M108,97.6880371 C109.1,97.1880371 108.9,97.0880371 107.6,97.2880371 C106.5,97.3880371 105.5,98.1880371 105.3,98.9880371 C105,99.9880371 105.1,100.088037 105.7,99.3880371 C106.1,98.7880371 107.2,97.9880371 108,97.6880371 Z M98.8,95.8880371 C98.5,95.0880371 98.1,95.5880371 97.7,96.8880371 C97.3,98.5880371 97.4,98.9880371 98.2,98.1880371 C98.7,97.6880371 99,96.5880371 98.8,95.8880371 Z M51,95.8880371 C51,95.2880371 50.6,95.1880371 50,95.4880371 C49.5,95.7880371 49,96.5880371 49,97.0880371 C49,97.6880371 49.5,97.7880371 50,97.4880371 C50.6,97.1880371 51,96.3880371 51,95.8880371 Z M193.1,95.2880371 C192.5,94.2880371 191.5,92.1880371 190.8,90.4880371 C190,88.3880371 189.6,87.9880371 189.3,89.0880371 C188.9,90.7880371 192.9,98.4880371 193.7,97.5880371 C193.9,97.3880371 193.7,96.3880371 193.1,95.2880371 Z M40.5,94.9880371 C41.5,93.8880371 42.1,92.9880371 41.8,92.9880371 C41.5,92.9880371 40.5,93.8880371 39.5,94.9880371 C38.5,96.0880371 37.9,96.9880371 38.2,96.9880371 C38.5,96.9880371 39.5,96.0880371 40.5,94.9880371 Z M102.5,93.9880371 C102.8,93.4880371 102.7,92.9880371 102.1,92.9880371 C101.6,92.9880371 100.8,93.4880371 100.5,93.9880371 C100.2,94.5880371 100.3,94.9880371 100.9,94.9880371 C101.4,94.9880371 102.2,94.5880371 102.5,93.9880371 Z M557.5,90.4880371 C556.1,89.0880371 554.6,87.9880371 554.2,87.9880371 C553.9,87.9880371 552,86.4880371 550,84.7880371 C548.1,82.9880371 549.4,84.4880371 553,88.1880371 C556.6,91.8880371 559.7,94.4880371 559.8,93.8880371 C560,93.3880371 559,91.7880371 557.5,90.4880371 Z M115,92.7880371 C115,91.6880371 113.8,91.7880371 112,92.9880371 C110.8,93.6880371 111,93.8880371 112.8,93.6880371 C114,93.6880371 115,93.1880371 115,92.7880371 Z M603,93.9880371 L603,92.9880371 M618.7,87.7880371 C618.619255,87.2631921 618.636306,87.3577298 618.672189,87.5781077 C618.725184,87.9035887 618.819255,88.5035648 618.7,87.7880371 Z M45,89.4880371 C45,88.9880371 44.5,89.1880371 44,89.9880371 C43.5,90.7880371 43,91.9880371 43,92.4880371 C43,93.0880371 43.5,92.7880371 44,91.9880371 C44.5,91.1880371 45,90.0880371 45,89.4880371 Z M57,86.2880371 C56.9,85.2880371 53.1,90.1880371 53,91.3880371 C53,91.8880371 53.9,91.0880371 55,89.6880371 C56.1,88.2880371 57,86.7880371 57,86.2880371 Z M107.4,90.4880371 C108.4,89.7880371 109,88.7880371 108.9,88.2880371 C108.7,87.8880371 107.5,88.4880371 106.3,89.7880371 C103.8,92.1880371 104.5,92.6880371 107.4,90.4880371 Z M205,84.9880371 C204.4,83.8880371 203.5,80.5880371 203,77.6880371 C202.5,74.7880371 201.8,71.5880371 201.4,70.5880371 C200.9,69.1880371 201,68.8880371 201.8,69.3880371 C202.7,69.9880371 202.7,69.4880371 201.9,67.5880371 C200.8,65.1880371 198.1,64.9880371 197.9,67.3880371 C197.4,73.2880371 199.5,83.9880371 201.2,83.9880371 C201.6,83.9880371 202,84.6880371 202,85.4880371 C202,86.2880371 202.4,86.9880371 202.9,86.9880371 C203.4,86.9880371 204.2,87.9880371 204.6,89.2880371 L205.4,91.4880371 L205.8,89.2880371 C206,88.0880371 205.6,86.1880371 205,84.9880371 Z M122,88.9880371 C122,88.4880371 121.6,87.9880371 121.1,87.9880371 C120.5,87.9880371 119.8,88.4880371 119.5,88.9880371 C119.2,89.5880371 119.6,89.9880371 120.4,89.9880371 C121.3,89.9880371 122,89.5880371 122,88.9880371 Z M220.5,77.9880371 C218.6,72.2880371 217,67.4880371 217,67.2880371 C217,67.1880371 216.4,66.9880371 215.6,66.9880371 C214.6,66.9880371 215.6,70.1880371 218.8,77.9880371 C221.3,84.0880371 223.5,88.8880371 223.7,88.5880371 C223.9,88.3880371 222.5,83.5880371 220.5,77.9880371 Z M187.7,85.7880371 C187.4,84.9880371 187.1,85.2880371 187.1,86.3880371 C187,87.4880371 187.3,88.0880371 187.6,87.6880371 C187.9,87.3880371 188,86.4880371 187.7,85.7880371 Z M63.4,86.0880371 C63.7,85.6880371 66,84.6880371 68.5,83.9880371 C71,83.2880371 72.9,82.4880371 72.6,82.2880371 C71.9,81.5880371 64.6,83.8880371 62.5,85.3880371 C61.4,86.2880371 61,86.9880371 61.7,86.9880371 C62.3,86.9880371 63.1,86.5880371 63.4,86.0880371 Z M308,82.0880371 C308,78.4880371 306.1,73.7880371 298.2,58.2880371 C295.5,52.7880371 294,50.9880371 292.5,50.9880371 C290.5,51.0880371 290.5,51.0880371 292.5,52.2880371 C293.6,52.9880371 294.7,54.3880371 294.8,55.4880371 C295,56.5880371 296.1,58.6880371 297.2,60.1880371 C298.2,61.7880371 298.9,62.9880371 298.7,62.9880371 C298.4,62.9880371 299.5,65.7880371 301.2,69.2880371 C302.9,72.6880371 304.7,78.0880371 305.3,81.1880371 C306.5,87.4880371 308,87.9880371 308,82.0880371 Z M116.4,82.4880371 C119.3,80.5880371 122.1,79.3880371 122.5,79.7880371 C123,80.1880371 123,79.8880371 122.6,79.1880371 C122.2,78.4880371 121.5,78.1880371 121.1,78.4880371 C119.3,79.4880371 114.4,81.2880371 113.7,81.0880371 C113.2,80.9880371 113.1,81.3880371 113.5,81.9880371 C113.8,82.4880371 113.5,82.9880371 112.7,82.9880371 C111.9,82.9880371 110.7,83.6880371 110,84.4880371 C107.9,87.0880371 110.6,86.1880371 116.4,82.4880371 Z M130.1,84.2880371 C131.4,82.7880371 131.3,82.7880371 129.3,83.8880371 C126.9,85.0880371 126.4,85.9880371 127.9,85.9880371 C128.4,85.9880371 129.4,85.2880371 130.1,84.2880371 Z M313,80.8880371 C313,78.7880371 312.6,76.9880371 312,76.9880371 C311.5,76.9880371 311,76.4880371 311,75.8880371 C311,75.1880371 309.2,71.0880371 307.1,66.5880371 C304.9,62.1880371 301.8,55.5880371 300.2,51.9880371 C297,44.8880371 294.5,41.1880371 293.6,42.0880371 C293.3,42.3880371 295.9,48.3880371 299.5,55.4880371 C306.3,68.6880371 311.4,81.5880371 310.4,83.0880371 C309.7,84.2880371 310.9,86.1880371 312.1,85.4880371 C312.6,85.0880371 313,83.0880371 313,80.8880371 Z M75,83.9880371 C75.8,83.4880371 76.1,82.9880371 75.5,82.9880371 C75,82.9880371 73.8,83.4880371 73,83.9880371 C72.2,84.4880371 72,84.9880371 72.5,84.9880371 C73.1,84.9880371 74.2,84.4880371 75,83.9880371 Z M44.7,79.7880371 C44.4,79.0880371 44.2,79.5880371 44.2,80.9880371 C44.2,82.3880371 44.4,82.8880371 44.7,82.2880371 C44.9,81.5880371 44.9,80.3880371 44.7,79.7880371 Z M67.5,79.9880371 C69,79.3880371 68.6,79.2880371 65.8,79.2880371 C63.5,79.3880371 62.5,79.6880371 63.3,80.1880371 C64.7,81.0880371 64.9,81.0880371 67.5,79.9880371 Z M126.5,77.9880371 C126.8,77.4880371 126.4,76.9880371 125.5,76.9880371 C124.6,76.9880371 124.2,77.4880371 124.5,77.9880371 C124.8,78.5880371 125.3,78.9880371 125.5,78.9880371 C125.7,78.9880371 126.2,78.5880371 126.5,77.9880371 Z M44.9,72.9880371 C45,71.6880371 44.9,71.6880371 44,72.9880371 C43.5,73.7880371 43.1,75.3880371 43.1,76.4880371 L43.1,78.4880371 L44,76.4880371 C44.5,75.3880371 44.9,73.7880371 44.9,72.9880371 Z M244.1,76.1880371 C246.5,75.1880371 250,71.4880371 250,69.9880371 C250,69.6880371 248.4,69.5880371 246.5,69.7880371 C243.3,70.1880371 242.5,71.0880371 242.8,73.9880371 C242.9,74.7880371 238.9,74.5880371 236.3,73.5880371 C235,73.1880371 234,72.3880371 234,71.8880371 C234,71.3880371 232.7,71.0880371 231,71.1880371 C227.6,71.4880371 226.9,73.8880371 230,74.6880371 C231.1,74.9880371 232,75.5880371 232,75.9880371 C232,77.7880371 239.9,77.8880371 244.1,76.1880371 Z M132,74.9880371 C132,74.4880371 132,73.7880371 132,73.4880371 C132,73.1880371 131.7,72.9880371 131.3,73.0880371 C130.8,73.1880371 130.6,73.5880371 130.7,74.0880371 C130.9,74.4880371 130.3,74.6880371 129.5,74.3880371 C128.7,73.9880371 128,74.2880371 128,74.8880371 C128,75.4880371 128.9,75.9880371 130,75.9880371 C131.1,75.9880371 132,75.5880371 132,74.9880371 Z M445,75.2880371 C445,74.7880371 444.2,73.5880371 443.3,72.4880371 C441.9,70.6880371 441.8,70.6880371 442.4,72.2880371 C442.7,73.2880371 443,74.5880371 443,75.0880371 C443,75.5880371 443.5,75.9880371 444,75.9880371 C444.6,75.9880371 445,75.6880371 445,75.2880371 Z M141.1,70.9880371 C142,70.9880371 143.5,70.3880371 144.2,69.5880371 C145.5,68.2880371 148.8,67.3880371 156.4,66.2880371 C161,65.6880371 159.4,63.9880371 154,63.9880371 C151.2,63.9880371 150.8,64.2880371 152,65.0880371 C153.2,65.9880371 153,66.0880371 151.1,65.5880371 C147.1,64.6880371 143,65.9880371 143,68.1880371 C143,69.1880371 142.6,69.8880371 142.1,69.4880371 C141,68.8880371 135.9,70.9880371 134.8,72.4880371 C133.2,74.6880371 134.1,74.9880371 136.6,73.0880371 C138.1,71.8880371 140.1,70.9880371 141.1,70.9880371 Z M191.7,69.9880371 C191.9,67.6880371 191.5,66.9880371 190.2,67.0880371 C189.2,67.0880371 189,67.3880371 189.7,67.6880371 C190.5,67.9880371 190.8,69.0880371 190.4,70.5880371 C190.1,71.8880371 190.2,72.9880371 190.6,72.9880371 C191.1,72.9880371 191.6,71.5880371 191.7,69.9880371 Z M171,70.9880371 C172.1,70.1880371 171.7,70.0880371 169.5,70.5880371 C165.8,71.3880371 165,71.9880371 167.6,71.9880371 C168.6,71.9880371 170.2,71.4880371 171,70.9880371 Z M45.7,69.4880371 C45.7,68.6880371 45.3,68.2880371 44.8,68.5880371 C44.3,68.8880371 44.2,69.5880371 44.5,70.0880371 C45.4,71.3880371 45.7,71.1880371 45.7,69.4880371 Z M133,69.9880371 C133,69.4880371 132.6,68.9880371 132,68.9880371 C131.5,68.9880371 131,69.4880371 131,69.9880371 C131,70.5880371 131.5,70.9880371 132,70.9880371 C132.6,70.9880371 133,70.5880371 133,69.9880371 Z M230.5,66.8880371 C231.8,66.7880371 231.5,66.4880371 229.5,66.0880371 C226.2,65.2880371 224.4,66.1880371 225.5,67.9880371 C226,68.7880371 226.5,68.8880371 227.3,68.0880371 C227.9,67.4880371 229.3,66.8880371 230.5,66.8880371 Z M132.6,65.9880371 C133.4,65.9880371 134,66.4880371 134,66.9880371 C134,67.5880371 134.8,67.9880371 135.7,67.9880371 C138.1,67.9880371 131.1,62.0880371 128.6,61.9880371 C127.1,61.9880371 127,62.2880371 128,63.4880371 C128.7,64.2880371 129.7,64.6880371 130.2,64.3880371 C130.8,63.9880371 131,64.6880371 130.6,66.0880371 C130.3,67.3880371 130.3,67.8880371 130.6,67.2880371 C130.9,66.5880371 131.8,65.9880371 132.6,65.9880371 Z M512.5,67.0880371 C511.9,66.5880371 509.7,65.9880371 507.5,65.6880371 L503.5,65.0880371 L507.5,66.4880371 C512.4,68.0880371 513.7,68.2880371 512.5,67.0880371 Z M48,65.8880371 C48,65.3880371 48.5,65.1880371 49,65.4880371 C49.6,65.7880371 50,65.5880371 50,65.0880371 C50,63.4880371 48.4,63.7880371 47,65.4880371 C46.1,66.4880371 46.1,66.9880371 46.9,66.9880371 C47.5,66.9880371 48,66.4880371 48,65.8880371 Z M115,65.4880371 C114.3,64.6880371 112.4,64.0880371 110.6,64.1880371 L107.5,64.2880371 L110.8,64.6880371 C112.6,64.8880371 113.8,65.5880371 113.5,66.0880371 C113.1,66.5880371 113.6,66.9880371 114.6,66.9880371 C115.9,66.9880371 116,66.6880371 115,65.4880371 Z M438.3,58.9880371 C436.4,54.8880371 435,53.7880371 435,56.4880371 C435,57.2880371 435.4,57.9880371 435.8,57.9880371 C436.2,57.9880371 437.2,60.0880371 438,62.7880371 C439,66.3880371 439.4,66.9880371 439.7,65.1880371 C440,63.9880371 439.3,61.1880371 438.3,58.9880371 Z M554,43.9880371 L555,44.9880371 M236.3,65.2880371 C235.6,65.0880371 234.4,65.0880371 233.8,65.2880371 C233.1,65.5880371 233.6,65.7880371 235,65.7880371 C236.4,65.7880371 236.9,65.5880371 236.3,65.2880371 Z M500.3,65.2880371 C499.6,65.0880371 498.2,65.0880371 497.3,65.2880371 C496.3,65.5880371 496.9,65.7880371 498.5,65.7880371 C500.2,65.7880371 500.9,65.5880371 500.3,65.2880371 Z M119.4,63.4880371 C117.5,61.9880371 117.5,61.9880371 121.6,61.5880371 C122.2,61.4880371 123.5,60.6880371 124.4,59.6880371 C126.3,57.8880371 129,57.3880371 129,58.8880371 C129,59.3880371 129.9,59.5880371 131,59.2880371 C132.1,58.9880371 133,59.1880371 133,59.6880371 C133,60.1880371 134.2,61.1880371 135.7,61.8880371 L138.3,63.0880371 L135.9,60.4880371 C131.6,55.7880371 129.5,55.5880371 122.4,59.0880371 C117.3,61.6880371 116.3,62.5880371 117.1,63.6880371 C117.7,64.3880371 119,64.9880371 119.8,64.9880371 C121.1,64.9880371 121,64.6880371 119.4,63.4880371 Z M249.3,64.2880371 C248.6,64.0880371 247.2,64.0880371 246.3,64.2880371 C245.3,64.5880371 245.9,64.7880371 247.5,64.7880371 C249.2,64.7880371 249.9,64.5880371 249.3,64.2880371 Z M358.5,63.9880371 C358.2,63.4880371 357.3,63.2880371 356.5,63.6880371 C354.4,64.3880371 354.6,64.9880371 357.1,64.9880371 C358.2,64.9880371 358.9,64.5880371 358.5,63.9880371 Z M484.3,63.2880371 C483.6,63.0880371 482.4,63.0880371 481.8,63.2880371 C481.1,63.5880371 481.6,63.7880371 483,63.7880371 C484.4,63.7880371 484.9,63.5880371 484.3,63.2880371 Z M174.8,61.3880371 C176,60.5880371 177,60.3880371 177,60.8880371 C177,62.0880371 181.9,62.3880371 184.7,61.2880371 C186.3,60.6880371 186.2,60.4880371 184,59.8880371 C181.6,59.1880371 181.6,59.1880371 184.5,59.0880371 C186.7,58.9880371 187.1,58.6880371 186,58.0880371 C183.9,56.8880371 177.8,57.8880371 178.7,59.3880371 C179.2,60.1880371 179,60.1880371 177.9,59.2880371 C176.8,58.3880371 175.9,58.6880371 173.7,60.5880371 C170.6,63.2880371 171.3,63.8880371 174.8,61.3880371 Z M493,61.5880371 C493,61.3880371 492.3,60.9880371 491.5,60.5880371 C490.7,60.2880371 490,60.4880371 490,60.9880371 C490,61.5880371 490.7,61.9880371 491.5,61.9880371 C492.3,61.9880371 493,61.7880371 493,61.5880371 Z M215,60.0880371 C215,59.5880371 215.6,59.1880371 216.3,59.2880371 C216.9,59.2880371 219.3,59.1880371 221.5,59.0880371 C225.5,58.8880371 225.5,58.8880371 223,57.5880371 C221.5,56.6880371 219.9,56.4880371 219,56.9880371 C218.2,57.3880371 216.2,57.5880371 214.7,57.2880371 C213.1,56.9880371 212,57.1880371 212,57.8880371 C212,58.4880371 212.5,58.9880371 213.1,58.9880371 C213.6,58.9880371 213.8,59.4880371 213.5,59.9880371 C213.2,60.5880371 213.4,60.9880371 213.9,60.9880371 C214.5,60.9880371 215,60.5880371 215,60.0880371 Z M479,59.3880371 C479,57.6880371 476.6,57.5880371 475.2,59.2880371 C474.4,60.1880371 474.8,60.4880371 476.6,60.5880371 C478.1,60.6880371 479,60.1880371 479,59.3880371 Z M81,58.9880371 C81,58.4880371 80.6,57.9880371 80,57.9880371 C79.5,57.9880371 79,58.4880371 79,58.9880371 C79,59.5880371 79.5,59.9880371 80,59.9880371 C80.6,59.9880371 81,59.5880371 81,58.9880371 Z M99.4,57.4880371 C97.3,55.8880371 96,55.5880371 96,56.7880371 C96,57.5880371 100.2,59.7880371 100.9,59.2880371 C101.2,59.0880371 100.5,58.2880371 99.4,57.4880371 Z M472.5,57.7880371 C471.6,57.2880371 470.1,57.0880371 469.2,57.4880371 C467.7,58.0880371 467.7,58.2880371 469.5,58.9880371 C472.3,59.9880371 474.8,58.9880371 472.5,57.7880371 Z M249.7,57.5880371 C253.5,56.7880371 258.4,55.1880371 260.6,54.0880371 C266.8,50.8880371 275.2,47.2880371 279.6,45.8880371 C283.3,44.6880371 283.6,44.4880371 282.6,42.2880371 C282,41.0880371 281.2,39.9880371 280.8,39.9880371 C280.4,39.9880371 279.4,38.6880371 278.5,37.0880371 C276.4,32.9880371 264.7,21.4880371 261.1,19.8880371 C259.4,19.0880371 258,18.1880371 258,17.7880371 C258,17.2880371 257.2,16.9880371 256.1,16.9880371 C255.1,16.9880371 252.3,16.2880371 249.9,15.3880371 C244.7,13.5880371 229.6,13.2880371 227.5,14.9880371 C226.7,15.6880371 226,15.6880371 225.6,15.0880371 C223.6,11.8880371 220.2,18.4880371 218.5,28.8880371 C218.2,30.7880371 217.7,32.6880371 217.4,33.0880371 C217.1,33.5880371 216.3,37.3880371 215.5,41.4880371 C214.7,45.6880371 213.8,50.0880371 213.4,51.3880371 C212.9,53.5880371 213.2,53.6880371 220.2,54.3880371 C224.2,54.7880371 230,55.9880371 233,56.9880371 C239.7,59.2880371 241,59.3880371 249.7,57.5880371 Z M116.7,55.3880371 C115.8,54.4880371 113.9,55.9880371 114.6,57.1880371 C115,57.7880371 115.6,57.7880371 116.3,57.0880371 C116.9,56.4880371 117.1,55.7880371 116.7,55.3880371 Z M200.6,55.7880371 C201,55.2880371 200.8,53.7880371 200.3,52.6880371 C199.7,51.4880371 198.6,47.9880371 197.7,44.9880371 C196.8,41.9880371 195.9,38.7880371 195.6,37.9880371 C195.4,37.1880371 195.1,38.0880371 195,39.9880371 C194.7,43.6880371 194.6,44.4880371 193.5,52.5880371 L192.8,57.5880371 L196.4,57.1880371 C198.4,56.9880371 200.3,56.2880371 200.6,55.7880371 Z M83.6,54.2880371 C82.9,53.5880371 81,54.9880371 81,56.1880371 C81,56.7880371 81.6,56.7880371 82.5,55.9880371 C83.4,55.2880371 83.8,54.4880371 83.6,54.2880371 Z M205.8,52.6880371 C205.3,50.9880371 204.6,48.6880371 204.3,47.7880371 C204,46.7880371 203.3,46.2880371 202.8,46.5880371 C202.2,46.9880371 202.3,46.2880371 202.9,45.0880371 C203.7,43.6880371 203.8,39.4880371 203.4,32.0880371 C202.8,22.2880371 202.9,20.7880371 204.6,18.2880371 C205.6,16.7880371 206.4,15.2880371 206.3,14.9880371 C206.2,14.6880371 210.2,12.3880371 215.2,9.98803712 C223.8,5.88803712 224.6,5.68803712 233.5,5.58803712 C238.6,5.48803712 242.6,5.78803712 242.4,6.08803712 C242.2,6.38803712 243.3,6.68803712 244.8,6.78803712 C252.8,7.08803712 255.1,7.38803712 261.3,9.18803712 C265,10.2880371 269,11.9880371 270.3,13.0880371 L272.5,14.8880371 L270,14.2880371 C267.8,13.8880371 267.9,13.9880371 270.8,15.8880371 C272.6,17.0880371 274.4,17.9880371 274.8,17.9880371 C275.2,17.9880371 276.6,19.4880371 278,21.1880371 C279.4,22.9880371 281.3,25.1880371 282.3,26.1880371 C283.2,27.1880371 284,28.1880371 284,28.4880371 C284,28.7880371 285.3,30.7880371 286.9,33.0880371 C288.6,35.2880371 290,37.5880371 290.2,38.1880371 C290.5,38.8880371 291.4,39.0880371 292.6,38.5880371 C294.4,37.8880371 294.4,37.7880371 292.8,36.8880371 C291.8,36.2880371 291,35.3880371 291,34.8880371 C291,32.0880371 275.7,14.4880371 274.1,15.4880371 C273.5,15.7880371 273.2,15.4880371 273.5,14.7880371 C274,13.3880371 266.3,7.98803712 263.8,7.98803712 C263.1,7.98803712 262,7.58803712 261.5,7.08803712 C258.8,4.38803712 248.4,2.88803712 237,3.48803712 C230.7,3.88803712 224.8,4.38803712 224,4.68803712 C223.2,4.98803712 220.9,5.38803712 219,5.58803712 C210.5,6.38803712 210,6.48803712 210.5,7.78803712 C210.7,8.38803712 210.6,8.98803712 210.1,8.98803712 C208.7,8.98803712 203.9,13.9880371 204.4,14.7880371 C204.7,15.2880371 204.3,15.6880371 203.6,15.6880371 C202.8,15.6880371 202.3,14.0880371 202.1,11.2880371 C201.9,7.48803712 202.2,6.98803712 204,6.98803712 C205.2,6.98803712 205.9,6.58803712 205.6,6.08803712 C205.3,5.68803712 206.3,5.48803712 207.8,5.68803712 C209.9,6.08803712 210.2,5.88803712 209,5.08803712 C207.9,4.28803712 207.8,3.98803712 208.8,3.98803712 C209.5,3.98803712 209.9,3.58803712 209.6,3.08803712 C209.2,2.58803712 210,2.48803712 211.2,2.78803712 C213.1,3.28803712 213.2,3.48803712 211.7,3.78803712 C210.8,3.98803712 210.2,4.58803712 210.5,5.08803712 C211.3,6.18803712 213.1,6.18803712 214.9,5.08803712 C216.1,4.28803712 216,3.88803712 214.6,2.38803712 C211.2,-1.01196288 200.8,1.58803712 197.9,6.48803712 C195.6,10.3880371 195.4,13.0880371 197.6,10.3880371 C199.1,8.58803712 199.1,8.58803712 198.5,11.2880371 C198.1,13.1880371 198.3,13.8880371 199,13.4880371 C199.5,13.1880371 200.1,11.1880371 200.2,9.18803712 C200.3,5.58803712 200.3,5.58803712 200.9,9.98803712 C201.6,14.3880371 199.9,18.6880371 197.9,17.4880371 C196.5,16.4880371 195.7,25.9880371 196.9,31.2880371 C200,45.4880371 204.3,57.5880371 205.9,56.4880371 C206.5,56.1880371 206.4,54.6880371 205.8,52.6880371 Z M108.7,55.3880371 C108.4,55.0880371 107.5,54.9880371 106.8,55.2880371 C106,55.5880371 106.3,55.8880371 107.4,55.8880371 C108.5,55.9880371 109.1,55.6880371 108.7,55.3880371 Z M461,54.9880371 C460.2,54.4880371 459.1,53.9880371 458.5,53.9880371 C458,53.9880371 458.2,54.4880371 459,54.9880371 C459.8,55.4880371 461,55.9880371 461.5,55.9880371 C462.1,55.9880371 461.8,55.4880371 461,54.9880371 Z M473.7,55.3880371 C473.4,55.0880371 472.5,54.9880371 471.8,55.2880371 C471,55.5880371 471.3,55.8880371 472.4,55.8880371 C473.5,55.9880371 474.1,55.6880371 473.7,55.3880371 Z M211.1,38.7880371 C210.3,37.4880371 210.3,37.1880371 211.4,37.5880371 C213.3,38.2880371 214.7,30.9880371 212.8,29.8880371 C211.8,29.1880371 211.9,28.9880371 213.1,28.9880371 C216.1,28.9880371 217.1,20.3880371 214.3,19.6880371 C213.2,19.3880371 213.6,19.1880371 215.3,19.0880371 C216.8,19.0880371 218,18.4880371 218,17.8880371 C218,16.8880371 216.4,17.1880371 211.2,19.0880371 C209.9,19.5880371 208.6,20.8880371 208.3,21.9880371 C208,23.0880371 207.1,23.9880371 206.4,23.9880371 C204.6,23.9880371 204.6,28.7880371 206.4,37.6880371 C207.2,41.3880371 208.1,46.7880371 208.5,49.4880371 L209.3,54.4880371 L210.7,47.4880371 C211.8,42.3880371 211.9,39.9880371 211.1,38.7880371 Z M456.6,53.0880371 C456.3,52.5880371 454.9,51.9880371 453.4,51.6880371 C450.5,51.1880371 451.4,52.5880371 454.5,53.2880371 C455.6,53.5880371 456.6,53.7880371 456.8,53.8880371 C457,53.8880371 456.9,53.5880371 456.6,53.0880371 Z M79.1,50.5880371 C79.9,50.9880371 80.1,50.8880371 79.6,50.1880371 C79.2,49.4880371 79.5,48.9880371 80.5,48.9880371 C81.4,48.9880371 81.8,48.4880371 81.5,47.9880371 C80.8,46.8880371 77.6,48.2880371 75.3,50.5880371 C73.2,52.5880371 73.8,53.4880371 75.9,51.5880371 C77,50.5880371 78.4,50.0880371 79.1,50.5880371 Z M94.6,46.1880371 C93.6,45.9880371 92.4,46.1880371 91.8,46.7880371 C91.2,47.3880371 91.8,47.4880371 93.7,47.1880371 C95.8,46.6880371 96,46.4880371 94.6,46.1880371 Z M90,44.4880371 C90,43.6880371 89.6,42.9880371 89,42.9880371 C88.5,42.9880371 88,43.6880371 88,44.4880371 C88,45.2880371 88.5,45.9880371 89,45.9880371 C89.6,45.9880371 90,45.2880371 90,44.4880371 Z M289.4,41.7880371 C289,40.4880371 287.4,37.8880371 285.9,35.9880371 C284.3,34.0880371 283,32.0880371 283,31.4880371 C283,30.8880371 282.2,29.6880371 281.3,28.7880371 C280.3,27.8880371 278.7,26.0880371 277.8,24.6880371 C275.7,21.6880371 265.5,15.5880371 263.7,16.2880371 C262.9,16.6880371 263,16.8880371 264,16.8880371 C264.8,16.9880371 267.5,18.7880371 269.9,20.9880371 C272.4,23.1880371 274.7,24.9880371 275.2,24.9880371 C275.6,24.9880371 276,25.4880371 276,25.9880371 C276,26.5880371 276.5,27.5880371 277,28.2880371 C277.6,28.9880371 280.3,32.7880371 283.1,36.7880371 C288.1,43.9880371 290.8,46.0880371 289.4,41.7880371 Z M261.8,13.7880371 C261.3,12.3880371 251.2,10.0880371 246,10.0880371 C243.7,10.1880371 245.4,10.7880371 250.7,11.7880371 C255.2,12.7880371 259.2,13.7880371 259.6,14.2880371 C260.8,15.3880371 262.2,15.0880371 261.8,13.7880371 Z M234.3,10.0880371 L242.5,9.28803712 L235,9.08803712 C226.8,8.98803712 222.7,9.68803712 223.6,11.0880371 C223.9,11.5880371 224.6,11.7880371 225.1,11.3880371 C225.6,11.0880371 229.7,10.4880371 234.3,10.0880371 Z" id="Shape"></path>
                    <path d="M213,133.2 C213,133 214.9,130.8 217.3,128.4 C219.6,125.9 222.3,122.5 223.2,120.7 C225.7,116.1 227.2,116.7 224.9,121.5 C223.9,123.6 223,125.8 223,126.3 C223,127.8 216.2,133.5 214.5,133.5 C213.7,133.5 213,133.3 213,133.2 Z" id="augenbrauen"></path>
                    <path d="M399.5,110.9 C399.2,110.6 402.5,110 406.8,109.6 C412.3,109.2 416.2,108.2 420.3,106.2 C423.8,104.4 426,103.8 426,104.5 C426,106.7 423.3,108.1 415.3,110.1 C407.8,111.9 400.3,112.3 399.5,110.9 Z" id="nase2"></path>
                    <path d="M427,99.5 C427,98.1 427.5,97 428,97 C428.6,97 429,98.1 429,99.5 C429,100.9 428.6,102 428,102 C427.5,102 427,100.9 427,99.5 Z" id="nase1"></path>
                    <path d="M397.4,92.7 C397.7,92.2 399.2,91.8 400.8,91.7 C402.4,91.7 406.4,90.7 409.8,89.6 C416.4,87.3 421.5,86.9 422.5,88.5 C422.8,89.1 422.1,89.5 420.8,89.5 C419.5,89.5 416,90.1 413,90.9 C405.5,92.8 396.7,93.8 397.4,92.7 Z" id="nase"></path>
                </g>
            </g>
        </g>
    </g>
</svg>