<?xml version="1.0" encoding="UTF-8"?>
<svg width="900px" height="1216px" viewBox="0 0 900 1216" version="1.1" xmlns="http://www.w3.org/2000/svg" xmlns:xlink="http://www.w3.org/1999/xlink">
    <title>laura-portrait</title>
    <g id="Home-pages" stroke="none" stroke-width="1" fill="none" fill-rule="evenodd">
        <g id="laura-portrait-video-section" transform="translate(-94.000000, -146.000000)" fill-rule="nonzero">
            <g id="laura-portrait" transform="translate(94.000000, 146.000000)">
                <g id="Group" transform="translate(450.000000, 608.000000) scale(-1, 1) rotate(-180.000000) translate(-450.000000, -608.000000) ">
                    <path d="M282,1065 C281.724609,1064.55937 272.35729,1075.73328 259,1082 C248.10579,1087.11114 233.611784,1087.60267 227,1087 C222.229756,1086.56519 195.608368,1077.19937 196,1076 C196.569578,1074.29127 182.7871,1069.63732 173,1034 C171.218701,1027.51384 171.218701,1011.84717 173,987 C127.928986,979.972667 104.262319,968.639334 102,953 C100.572476,943.131575 96,922 107,898 C112.548298,885.894623 125,873 132,864 C136.630878,858.046014 143.597746,853.604571 148,850 C150.25216,848.155929 153.040187,847.01045 152,845 C149.169825,839.529899 140.035177,840.031966 132,837 C125.190961,834.430701 119.700098,828.478876 114,823 C103.527873,812.934299 97,792 97,780 C97,767.674709 106.48055,752.999968 121,745 C131.834068,739.030615 149.038229,740.022276 148,731 C146.602675,718.857157 132.999238,708.723499 128,694 C124.148334,682.656271 120.525554,651.278378 138,641 C142.268758,638.489139 153.472945,638.245392 163,641 C174.493108,644.323063 182,649 182,644 C182,642.414294 169.924743,620.910116 165,596 C162.098567,581.324103 166.221008,566.621625 164.540654,551.005408 C163.516227,541.484987 162.920618,532.282815 163,524 C163.266283,496.215835 184.945444,489.103539 182,484 C178.455043,477.85769 175.605689,488.060748 165,484 C145.85747,476.670633 134.85747,468.337299 132,459 C129.745545,463.021576 129.745545,443.35491 132,400 C132.570384,389.031075 142.473016,349.692628 154,334 C164.66541,319.480303 176.998159,328.781178 178,314 C178.808154,302.076494 182,284 178,257 C176.443009,246.490314 170.238755,255.146063 163,246 C159.560598,241.654366 157.227265,233.321032 156,221 C160.802777,212.554237 165.469444,207.220904 170,205 C178.248643,200.95647 196,210 204,215 C205.730375,216.081484 212,238 208,243 C204,248 196,244.137494 196,253 C196,277 193.093151,316.825164 196,314 C197.169003,312.863847 190.74761,324.631923 192,322 C193.30699,319.253334 202.297575,302.066244 204,299 C211.094212,286.222586 204.179434,286.739521 214,265 C235.646038,217.082752 277.062025,139.08458 294,124 C317.110882,103.417968 336.056617,83.4951578 355,68 C377.687343,49.4423875 405.687343,32.1090541 439,16 L477,16 C510.290774,23.4501116 531.624107,28.1167782 541,30 C548.107813,31.4276601 548.747507,35 553,35 C556.868372,35 632,114 642,131 C658.585332,159.195065 679.164867,190.647778 697,231 C701.154495,240.399599 704.074987,251.77444 708,262 C712.027353,272.492181 716.69402,289.825514 722,314 C726,316.666667 728.333333,316.666667 729,314 C730,310 729.642401,279.337861 729,274 C728.461934,269.529086 721.265965,266.208696 718,262 C714.075509,256.942694 714.022962,251.226499 714,249 C713.746007,224.371796 721.40635,227.71873 725,227 C730.620973,225.875805 738.954307,224.875805 750,224 C757.089995,230.672937 759.493423,219.536151 764,257 C764.88752,264.378091 751.030704,266.17014 744,274 C740.842677,277.516205 740.512525,314.033858 741,319 C741.507656,324.171728 745.576403,324.723058 750,328 C754.849012,331.592083 760.216634,337.948349 764,345 C776.310159,367.944371 782.496798,398.65765 792,433 C792.464444,434.678393 791.624888,444.924681 790,450 C787.053,459.204922 783.247192,472.640728 776,481 C767.226824,491.119418 754.275912,491.360001 757,495 C770.680875,513.280748 767.647224,502.919514 783,524 C786.845433,529.280062 781.726369,568.535077 786,575 C791.009635,582.578311 794.768334,591.316302 797,600 C798.538454,605.986322 790.063653,619.181733 794,624 C798.880476,629.973924 815.930172,625.86316 822,631 C834.684254,641.734568 841.006375,647.875729 847,663 C848.388084,666.502681 844.538356,681.242902 839,689 C833.859274,696.200172 827.005064,696.383096 828,701 C829.121838,706.205781 860,726.691551 860,731 C862,738.333333 863.666667,746 865,754 C867,766 845.849343,780.719642 847,788 C848.814883,799.482999 868.288501,804.735749 871,820 C872.599457,829.004063 877.712252,841.589864 880,855 C881.07697,861.312895 873.339025,879.486017 862,890 C858.863626,892.908167 853.299066,893.297977 849,894 C845.329289,894.599415 842.587295,895.453526 843,898 C844.609457,907.930671 861.930666,907.142057 865,925 C866.139453,931.629546 861.177076,952.105538 847,964 C839.175554,970.564652 824.602977,969.180014 816,974 C805.89386,979.662162 780.791798,965.869922 783,976 C786.815731,993.504581 800.34027,1021.5903 783,1061 C772,1086 749.781506,1083.764 738,1087 C724.995585,1090.57189 700.328918,1083.23855 664,1065 C658.188428,1102.49903 650.855095,1128.1657 642,1142 C631.791797,1157.94826 612.482128,1166 591,1166 C581.675012,1166 565.174539,1153.26609 553,1139 C544.285222,1128.78805 538.832269,1115.53384 535,1116 C524.253483,1117.30722 520.174438,1153.94098 503,1168 C495.997351,1173.73238 480.664018,1176.06571 457,1175 C447.607626,1175 432.85318,1159.53424 428,1143 C424.301762,1130.40052 429.710453,1119.55977 423,1120 C409.578802,1120.88049 406.997279,1138.06198 393,1150 C380.254182,1160.87067 358.143988,1165.75982 347,1165 C333.587473,1164.08551 329.282284,1159.72631 324,1157 C311.953671,1150.78261 309.266664,1147.29666 301,1139 C272.866293,1110.76422 282.174906,1065.29196 282,1065 Z M362,1215 C362,1214.5 361.6,1214 361,1214 C360.5,1214 360,1214.5 360,1215 C360,1215.6 360.5,1216 361,1216 C361.6,1216 362,1215.6 362,1215 Z M582,670 C579.153802,661.621194 735.0131,512.582657 725,504 C721.7,501.3 737.7,385.4 737,385 C736.2,384.6 750,334.5 750,334 C750,333.513155 744.365933,364.464331 741,362 C739.249332,360.718268 736.915999,347.384935 734,322 C733.933333,284.266667 733.933333,264.933333 734,264 C734.1,261.6 744.7,237.6 745,249 C745.094093,258.691549 735.486066,270.816874 736,271 C737.2,271.4 737.3,320.8 736,322 C735.5,322.6 747.6,354.9 747,354 C746.6,353.5 739.827716,537.905156 737,539 C734.623065,539.920309 510.962273,526.426165 426,542 C361.047554,553.905975 186.17676,410.949497 186,411 C185.1,411.1 190.5,309.6 190.3,284.5 C190.1,252.8 191.1,229.1 190,229 C187.8,228.8 183,237.3 183,237 C183,236.1 177.2,221.8 178,231 C178.7,239.1 182.5,226.3 190,230 C193.3,231.7 191.477271,273.210966 192,293 C192.087117,296.634027 188.341075,316.683739 196,329 C249.881792,415.64691 472.878026,673.67508 477,675 C482.6,676.8 539.1,701.3 540,702 C541.6,703.1 571,702.6 571,702 C571,701.4 582.1384,670.407431 582,670 Z M2.5,887.2 C2.2,886.9 1.4,887.2 0.7,887.9 C-0.2,888.9 -0.1,889 1.3,888.4 C2.3,888.1 2.8,887.5 2.5,887.2 Z M899.4,426.8 C899.1,426.4 898.5,426 897.9,426 C897.4,426 897,426.4 897,426.8 C897,427.3 897.7,427.7 898.5,427.7 C899.3,427.7 899.7,427.3 899.4,426.8 Z M739.5,1 C739.2,0.5 738.4,0 737.9,0 C737.3,0 737.2,0.5 737.5,1 C737.8,1.6 738.6,2 739.1,2 C739.7,2 739.8,1.6 739.5,1 Z" id="inner-fill-shape" fill="#FFFFFF"></path>
                    <path d="M282,1065 C281.724609,1064.55937 272.35729,1075.73328 259,1082 C248.10579,1087.11114 233.611784,1087.60267 227,1087 C222.229756,1086.56519 195.608368,1077.19937 196,1076 C196.569578,1074.29127 182.7871,1069.63732 173,1034 C171.218701,1027.51384 171.218701,1011.84717 173,987 C127.928986,979.972667 104.262319,968.639334 102,953 C100.572476,943.131575 96,922 107,898 C112.548298,885.894623 125,873 132,864 C136.630878,858.046014 143.597746,853.604571 148,850 C150.25216,848.155929 153.040187,847.01045 152,845 C149.169825,839.529899 140.035177,840.031966 132,837 C125.190961,834.430701 119.700098,828.478876 114,823 C103.527873,812.934299 97,792 97,780 C97,767.674709 106.48055,752.999968 121,745 C131.834068,739.030615 149.038229,740.022276 148,731 C146.602675,718.857157 132.999238,708.723499 128,694 C124.148334,682.656271 120.525554,651.278378 138,641 C142.268758,638.489139 153.472945,638.245392 163,641 C174.493108,644.323063 182,649 182,644 C182,642.414294 169.924743,620.910116 165,596 C162.098567,581.324103 166.221008,566.621625 164.540654,551.005408 C163.516227,541.484987 162.920618,532.282815 163,524 C163.266283,496.215835 184.945444,489.103539 182,484 C178.455043,477.85769 175.605689,488.060748 165,484 C145.85747,476.670633 134.85747,468.337299 132,459 C129.745545,463.021576 129.745545,443.35491 132,400 C132.570384,389.031075 142.473016,349.692628 154,334 C164.66541,319.480303 176.998159,328.781178 178,314 C178.808154,302.076494 182,284 178,257 C176.443009,246.490314 170.238755,255.146063 163,246 C159.560598,241.654366 157.227265,233.321032 156,221 C160.802777,212.554237 165.469444,207.220904 170,205 C178.248643,200.95647 196,210 204,215 C205.730375,216.081484 212,238 208,243 C204,248 196,244.137494 196,253 C196,277 193.093151,316.825164 196,314 C198.388971,311.678162 200.66627,305.004395 204,299 C211.094212,286.222586 204.179434,286.739521 214,265 C235.646038,217.082752 277.062025,139.08458 294,124 C317.110882,103.417968 336.056617,83.4951578 355,68 C377.687343,49.4423875 405.687343,32.1090541 439,16 L477,16 C510.290774,23.4501116 531.624107,28.1167782 541,30 C548.107813,31.4276601 548.747507,35 553,35 C556.868372,35 632,114 642,131 C658.585332,159.195065 679.164867,190.647778 697,231 C701.154495,240.399599 704.074987,251.77444 708,262 C712.027353,272.492181 716.69402,289.825514 722,314 C726,316.666667 728.333333,316.666667 729,314 C730,310 729.642401,279.337861 729,274 C728.461934,269.529086 721.265965,266.208696 718,262 C714.075509,256.942694 714.022962,251.226499 714,249 C713.746007,224.371796 721.40635,227.71873 725,227 C730.620973,225.875805 738.954307,224.875805 750,224 C757.089995,230.672937 759.493423,219.536151 764,257 C764.88752,264.378091 751.030704,266.17014 744,274 C740.842677,277.516205 740.512525,314.033858 741,319 C741.507656,324.171728 745.576403,324.723058 750,328 C754.849012,331.592083 760.216634,337.948349 764,345 C776.310159,367.944371 782.496798,398.65765 792,433 C792.464444,434.678393 791.624888,444.924681 790,450 C787.053,459.204922 783.247192,472.640728 776,481 C767.226824,491.119418 754.275912,491.360001 757,495 C770.680875,513.280748 767.647224,502.919514 783,524 C786.845433,529.280062 781.726369,568.535077 786,575 C791.009635,582.578311 794.768334,591.316302 797,600 C798.538454,605.986322 790.063653,619.181733 794,624 C798.880476,629.973924 815.930172,625.86316 822,631 C834.684254,641.734568 841.006375,647.875729 847,663 C848.388084,666.502681 844.538356,681.242902 839,689 C833.859274,696.200172 827.005064,696.383096 828,701 C829.121838,706.205781 860,726.691551 860,731 C862,738.333333 863.666667,746 865,754 C867,766 845.849343,780.719642 847,788 C848.814883,799.482999 868.288501,804.735749 871,820 C872.599457,829.004063 877.712252,841.589864 880,855 C881.07697,861.312895 873.339025,879.486017 862,890 C858.863626,892.908167 853.299066,893.297977 849,894 C845.329289,894.599415 842.587295,895.453526 843,898 C844.609457,907.930671 861.930666,907.142057 865,925 C866.139453,931.629546 861.177076,952.105538 847,964 C839.175554,970.564652 824.602977,969.180014 816,974 C805.89386,979.662162 780.791798,965.869922 783,976 C786.815731,993.504581 800.34027,1021.5903 783,1061 C772,1086 749.781506,1083.764 738,1087 C724.995585,1090.57189 700.328918,1083.23855 664,1065 C658.188428,1102.49903 650.855095,1128.1657 642,1142 C631.791797,1157.94826 612.482128,1166 591,1166 C581.675012,1166 565.174539,1153.26609 553,1139 C544.285222,1128.78805 538.832269,1115.53384 535,1116 C524.253483,1117.30722 520.174438,1153.94098 503,1168 C495.997351,1173.73238 480.664018,1176.06571 457,1175 C447.607626,1175 432.85318,1159.53424 428,1143 C424.301762,1130.40052 429.710453,1119.55977 423,1120 C409.578802,1120.88049 406.997279,1138.06198 393,1150 C380.254182,1160.87067 358.143988,1165.75982 347,1165 C333.587473,1164.08551 329.282284,1159.72631 324,1157 C311.953671,1150.78261 309.266664,1147.29666 301,1139 C272.866293,1110.76422 282.174906,1065.29196 282,1065 Z M362,1215 C362,1214.5 361.6,1214 361,1214 C360.5,1214 360,1214.5 360,1215 C360,1215.6 360.5,1216 361,1216 C361.6,1216 362,1215.6 362,1215 Z M489.3,1169.6 C492.1,1168.8 495.1,1166.9 496.7,1165.1 C498.2,1163.4 499.8,1162 500.3,1162 C502.5,1162 507.7,1156.8 511.4,1151 C515.3,1144.9 526.4,1121.2 527.5,1116.5 C527.7,1116 528.8,1112.9 530,1109.7 L532.2,1103.8 L534.7,1107.7 C543.9,1121.5 567,1146.9 572.2,1149.1 C574,1149.8 575.7,1150.7 576,1151 C576.3,1151.4 578.5,1152.7 581,1154.1 C583.5,1155.4 586.7,1157.4 588.2,1158.6 C590.5,1160.4 591.9,1160.7 599.3,1160.5 C612.1,1160.1 615.4,1158.2 633.1,1140.8 C635.7,1138.2 638.6,1134.7 639.5,1132.9 C640.5,1131.1 642,1128.9 642.9,1127.9 C645.1,1125.5 650.4,1111.9 651.9,1105 C654.4,1093.1 656.5,1077.2 657.6,1062.7 C658.2,1054.2 659.1,1051.1 660.2,1053.8 C660.5,1054.7 674.7,1064 675.7,1064 C676,1064 678.5,1065.4 681.1,1067.1 C686.1,1070.3 701,1077 704.5,1077.6 C712,1078.9 713.7,1079.3 714.9,1080.3 C716.6,1081.8 739.6,1081.5 747,1080 C753.9,1078.5 763.5,1073.7 767.8,1069.6 C784.1,1054 787,1047.7 786.5,1028.5 C786.3,1021.9 785.5,1013.3 784.6,1009.5 C783.8,1005.6 782.8,1001.1 782.5,999.5 C782.1,997.8 781.8,995.6 781.9,994.6 C781.9,993.5 781.4,991.8 780.8,990.7 C780.2,989.6 779.2,985.9 778.5,982.4 C777.7,979 776.2,974.4 775.1,972.1 C773.9,969.9 773,967.9 773,967.6 C773,967.4 775,967.8 777.4,968.5 C782,969.9 788.2,970.6 805.2,971.5 C812.8,971.9 815.5,971.7 817.2,970.6 C818.5,969.8 821.8,968.8 824.5,968.4 C832,967.4 836.4,964.8 848.7,954.2 C853.4,950.2 855.3,947.8 856.2,944.7 C856.8,942.4 857.9,939.6 858.6,938.5 C859.3,937.4 860,934 860.1,931 C860.5,924.4 857.5,917.1 853.6,915 C852.2,914.3 850.1,912.1 849,910.3 C847.9,908.4 845.6,906.1 843.9,905.2 C842.2,904.3 839.4,902.3 837.7,900.8 C835,898.4 834.8,897.8 836,896.7 C836.8,896 840.1,894.6 843.3,893.6 C847.6,892.3 850.4,890.6 853.8,887.2 C856.4,884.6 860.2,881.4 862.3,880 C864.3,878.6 866.7,876.1 867.5,874.3 C868.4,872.5 869.5,870.8 870,870.5 C872.1,869.2 874.1,863.1 875,855.1 C875.8,847.7 875.7,846.2 874.3,844 C873.4,842.6 872.7,840.1 872.9,838.3 C873,836.6 872.3,833.5 871.2,831.3 C870.1,829.2 868.7,825.7 868,823.5 C866.4,818.6 858.1,806.2 854.5,803.5 C853.1,802.4 851.4,800.9 850.7,800.1 C846.9,795.8 841.2,790.3 839.5,789.4 C837.6,788.3 837.9,787.9 843.1,782.9 C846.2,779.9 849.8,775.7 851.1,773.5 C852.4,771.3 854.2,768.7 855.1,767.6 C857.4,765.2 859.9,757.4 860,752.4 C860.1,750.3 859.5,745.4 858.7,741.7 C857.4,735.6 856.4,733.7 852.3,729.2 C851.6,728.5 851,727.3 851,726.7 C851,725.3 841.1,716.3 836.5,713.5 C826.1,707.2 821,703.5 821,702.4 C821,701.1 822.8,699 825.8,696.8 C828.5,694.8 834.7,685.8 836.8,680.9 C843.4,665.5 840,651.9 826,638.4 C821,633.5 812,631.1 797.4,630.5 C790.9,630.2 785.4,629.8 785.2,629.5 C784.9,629.2 785.4,628.2 786.4,627.1 C787.3,626.1 788.2,623.9 788.5,622.2 C788.7,620.5 789.1,618.6 789.5,618 C791.4,615 791.8,604.7 790.3,599.2 C789.5,596.1 788.5,592.4 788.3,591 C788,589.6 787,587.6 786,586.5 C783.1,583.1 779.6,574.7 779.3,570.5 C779.1,566.8 779.2,548.9 779.4,539.5 C779.5,537.3 779,533.6 778.4,531.3 C777.7,529 777.5,526.8 777.8,526.5 C778.2,526.2 778,525.6 777.4,525.2 C776.8,524.8 775,522.1 773.6,519.1 C770.8,513.7 764.2,506.5 753.7,497.5 C750.4,494.8 747.1,491.2 746.3,489.7 C744.9,486.9 744.9,486.8 747.1,487.5 C752.5,489.3 756.5,488.8 762.5,485.8 C765.8,484.1 769,482 769.7,481.1 C770.4,480.2 771,480 771,480.5 C771,481.1 771.9,480 773,478.3 C774.1,476.5 775.4,475 776,475 C776.5,475 777,474.2 777,473.2 C777,472.2 777.6,470.6 778.3,469.5 C779.1,468.4 780.7,464.6 781.9,461 C784.8,452.7 785.9,431.3 784,420 C783.3,415.9 782.8,411.8 782.8,411 C782.7,410.2 782.4,409.1 782,408.5 C781.1,407.4 777.9,395.8 777.6,392.5 C777.5,391.3 777.1,389.9 776.7,389.3 C776.3,388.7 775.7,386 775.3,383.3 C775,380.7 774.4,378.3 774,378 C773.6,377.7 771.9,373.9 770.1,369.5 C768.3,365.1 765,358.2 762.9,354.1 C760.7,350 759,346.1 759,345.4 C759,344.8 758.3,344 757.6,343.7 C756.8,343.4 755.3,341.6 754.4,339.8 C753.5,338 752.1,336.1 751.4,335.7 C750.6,335.3 750,334.5 750,334 C750,332.7 746.3,329 745,329 C744.4,329 744,328.6 744,328 C744,327.5 743.4,327 742.6,327 C741.9,327 740.1,326.1 738.7,325 L736.1,322.9 L736.6,300.7 C736.9,288.5 737.3,277.4 737.4,276 C737.6,274.6 737.8,272.3 737.9,270.9 C738,268.5 738.4,268.2 743.7,267.6 C751.1,266.7 755.5,263.5 757.1,257.7 C757.8,255.4 758.3,252.9 758.3,252.3 C758.3,251.6 758.2,249.3 758.1,247.2 C758,244.6 757.1,242.3 755.5,240.4 C754.1,238.8 753,237.2 753,236.8 C753,236.4 750.9,234.7 748.4,232.9 C744.4,230.2 742.8,229.7 737.1,229.6 C724.1,229.4 717.4,235.3 717.7,246.7 C717.8,257 722.7,264.2 731.4,267.3 C732.6,267.7 732,319.4 730.7,320.6 C730.2,321.2 722.5,318.6 721.9,317.7 C721.5,317.2 720.7,317.1 720.1,317.4 C719.4,317.8 719,317.4 719,316.2 C719,314.5 717.1,306.8 711.2,284 C707.3,269.2 700.8,248.6 699.4,246.6 C698.6,245.5 698,244 698,243.4 C698,241 684.7,213.4 679.5,205 C678.3,203.1 676.6,199.9 675.7,198 C674.7,196.1 673.4,193.6 672.8,192.5 C670.6,188.6 670,187.4 667,181.5 C665.3,178.2 662.4,173.5 660.5,171 C658.6,168.5 656.7,165.8 656.3,165 C655.9,164.2 655.2,163.1 654.7,162.5 C653.9,161.6 649.1,154.1 639.1,138.4 C636.6,134.6 634.2,131.4 633.8,131.2 C633.4,131 633,130.4 633,129.9 C633,128.8 630.5,125.6 626,121.1 C624,119.1 620.9,115.3 619,112.5 C617.1,109.8 615.2,107.4 614.8,107.2 C614.3,107 614,106.4 614,105.8 C614,105.3 612.2,103.1 610,101 C607.8,98.9 606,96.7 606,96.2 C606,95.6 605.6,95 605.2,94.8 C603.7,94.2 599,87.3 599,85.6 C599,84.7 598.3,83.7 597.5,83.4 C596.7,83 596,82.1 596,81.3 C596,80.5 595.6,80.1 595,80.5 C594.5,80.8 593.3,79.8 592.3,78.3 C589.7,74.1 584.2,69 583.7,70.4 C583.5,71 582.5,69.8 581.5,67.8 C580.4,65.7 579.2,64 578.6,64 C577.1,64 573,59.8 573,58.3 C573,57.6 572.6,56.9 572,56.9 C571.5,56.8 570.7,56.7 570.3,56.6 C569.8,56.5 567.8,54.8 565.7,52.7 C562.1,49.3 560.8,48.6 558.7,48.9 C558.3,49 557.7,48.3 557.4,47.5 C557,46.7 556.2,46 555.6,46 C554.9,46 552.4,44.5 550,42.8 C547.5,41 545.3,39.6 545,39.6 C544,39.8 540,37.7 540,36.9 C540,36.4 539.4,36.3 538.6,36.6 C537.8,36.9 536.9,36.6 536.5,36.1 C536.2,35.5 535.4,35.2 534.9,35.6 C534.3,35.9 533.1,35.6 532.2,34.8 C531.3,34 526.5,32.1 521.5,30.6 C516.6,29.1 511.8,27.6 511,27.3 C510.2,27.1 507.9,26.6 506,26.4 C501.9,25.8 500.2,25.5 493.5,24 C490.8,23.4 484.1,22.8 478.8,22.7 C473.5,22.6 468.8,22.2 468.5,21.8 C468.1,21.4 466.7,21.5 465.4,22 C464,22.6 462,22.6 460.6,22 C459.3,21.5 456.3,21.4 453.9,21.7 C451.5,22 448.2,22.3 446.5,22.4 C444.9,22.4 443.1,22.8 442.5,23.1 C442,23.5 438.1,24.6 434,25.5 C429.9,26.5 426.1,27.7 425.5,28.1 C425,28.6 423.9,29 423,29 C422.1,29 420.3,30.1 419,31.5 C417.8,32.8 416.5,33.8 416.1,33.7 C415.8,33.7 414.5,34.1 413.3,34.8 C412,35.5 411,35.8 411,35.4 C411,35 410,35.6 408.7,36.7 C407.5,37.8 403.9,39.9 400.7,41.4 C397.6,42.9 395,44.6 395,45.1 C395,45.6 394.5,46 393.9,46 C392.3,46 382.3,52.7 381.3,54.4 C380.9,55.2 378.8,56.8 376.7,58 C374.6,59.2 372.5,61.1 371.9,62.1 C371.4,63.2 370.3,64 369.6,64 C368.8,64 367,65.4 365.6,67.1 C364.2,68.8 363,69.9 363,69.5 C363,69.1 362.4,69.5 361.7,70.2 C360.9,70.9 358.6,72.9 356.5,74.5 C351.9,78.1 349,81.1 349,82.2 C349,82.6 348.3,83 347.5,83 C346.7,83 346,83.4 346,83.8 C346,84.2 343.5,87.1 340.5,90.2 C337.5,93.3 335,96.1 335,96.5 C335,97.5 330.9,101 329.8,101 C329.3,101 328.2,102.6 327.4,104.5 C326.6,106.4 325.6,107.9 325.2,107.7 C324.8,107.6 322.5,109.4 320,111.8 C317.5,114.2 315.1,116.5 314.5,117 C314,117.5 312,119.4 310.1,121.2 C301.9,129.2 299.9,131 299.2,131 C298.8,131 297.7,132.4 296.8,134 C295.9,135.7 294.4,137 293.5,137 C292.7,137 292,137.7 292,138.5 C292,139.3 290.6,141.3 289,143 C287.3,144.7 286,146.5 286,147 C286,147.6 285.4,148 284.6,148 C283.8,148 282.9,148.8 282.6,149.8 C282.2,150.8 281.2,152.5 280.2,153.6 C279.3,154.7 276.3,158.9 273.5,163 C270.8,167.1 268.2,170.6 267.8,170.8 C267.4,171 266.3,172.7 265.4,174.6 C264.5,176.5 263.4,178 262.9,178 C262.4,178 262,178.9 262,180 C262,181.1 261.6,182 261.2,182 C260.4,182 256.5,188.9 244.4,211.8 C242.2,216 239.2,221.6 237.7,224.1 C236.3,226.6 234.3,230.7 233.4,233.1 C232.5,235.5 231.1,238.2 230.5,239 C229.8,239.8 228.5,242.9 227.4,245.8 C226.4,248.6 225.2,251 224.8,251 C224.4,251 224.1,251.3 224.1,251.8 C224.4,253.7 223.9,256.3 223.3,255.7 C222.5,254.9 218.2,264 215.5,272.2 C214.4,275.4 213.3,278 212.9,278 C212.6,278 212.2,280.8 212.1,284.2 C212,287.6 211,294.1 210,298.5 C208.9,302.9 207.8,307.6 207.5,309 C206,317.1 206.5,316.6 199.5,316.8 C195.9,316.9 192.5,317.1 191.8,317.3 C190.9,317.4 190.5,309.6 190.3,284.5 C190.1,252.8 190.3,247.9 191.8,248.2 C192.2,248.3 194.3,247.6 196.5,246.7 C202.5,244.2 205.4,238.3 204.8,230.2 C204.6,226.6 203.7,223.3 202.8,222.3 C201.9,221.3 201,219.6 200.9,218.6 C200.7,217.6 199.6,216.2 198.5,215.6 C197.4,215 195.4,213.9 194,213.1 C192.6,212.3 190.6,211.5 189.5,211.4 C187.3,211.2 183.5,210.3 183.5,210 C183.5,209.1 176.1,209.1 173.2,210.1 C164.2,213.1 159.4,220.1 160.2,229.3 C160.9,237.4 164.9,243.3 172.4,247 C175.7,248.7 179.6,250 181.2,250 C183.1,250 184.1,250.5 184.2,251.8 C184.5,255.1 184.8,263.7 185.5,290.2 C186.2,319.4 186.3,319.1 180.6,320.6 C179.2,320.9 178,321.5 178,321.9 C178,322.3 175.2,324.1 171.8,325.9 C167.6,328.1 164.2,330.8 161.8,334 C157.9,339 148.1,357.8 146,364.2 C145.4,366.3 144.4,368 143.9,368 C143.4,368 143.1,368.3 143.2,368.8 C143.4,369.5 141,383.9 138.5,396.5 C137.7,400.4 137.1,405.8 137.1,408.5 C137.1,411.3 136.8,417.8 136.5,423 C136,432.9 138.2,453.3 140,455.5 C140.5,456.2 140.7,457 140.3,457.3 C140,457.7 140.2,458.5 140.8,459.2 C141.3,459.9 142.1,462.2 142.5,464.3 C142.9,466.3 143.6,468 144,468 C144.4,468 145.2,469.2 145.8,470.6 C146.5,472 147.5,472.8 148,472.5 C148.6,472.2 149,472.3 149,472.8 C149,473.3 152.4,475.4 156.6,477.5 C169.7,483.8 179.2,481.9 190.2,470.9 C193.4,467.6 196.2,465 196.4,465 C196.9,465 195.5,470.6 193.9,475 C192.3,479.4 183.2,491.7 178,496.3 C174.1,499.9 170,506.6 170,509.4 C170,510.2 169.3,511.5 168.5,512.3 C166.2,514.7 165.4,533.4 167.5,538.3 C171.1,547 172.2,560.7 169.7,565.7 C168.8,567.4 167.8,572.8 167.5,578.6 C166.8,589.2 167.2,591.5 173.5,610.8 C173.9,612 174.6,613 175.1,613 C175.6,613 176,613.6 176,614.4 C176,615.1 177.1,617.4 178.5,619.4 C179.9,621.5 181.2,623.9 181.3,624.8 C181.5,625.7 182.5,628.3 183.5,630.5 C185.4,634.9 186.7,649.7 185.2,651.8 C184.5,652.8 183.8,652.9 181.7,651.9 C180.2,651.2 179,650.3 179,649.8 C179,649.4 178.2,649 177.3,649 C176.3,649 172.1,647.8 168,646.4 C163.9,645 157.3,643.7 153.4,643.4 C147.1,642.9 145.5,643.2 140.8,645.4 C133.5,648.8 131.7,651.2 129,660 C127.2,666.2 126.9,668.7 127.5,674.9 C127.9,679 129.1,684.3 130.1,686.7 C131.1,689.2 132,692.2 132,693.5 C132,694.7 132.7,696.3 133.4,697 C134.2,697.6 135.4,699.7 136,701.6 C136.6,703.5 137.6,705 138.1,705 C138.6,705 139,705.7 139,706.5 C139,707.3 139.5,708 140,708 C140.6,708 141,708.5 141,709.2 C141,710.5 149.6,724.2 154.2,730.1 C155.7,732.1 157,734.2 157,734.6 C157,735.1 153.7,736.5 149.7,737.8 C132.5,743.3 113.4,755.3 106.9,764.6 C100.4,774.1 99.3,786.9 103.9,799.1 C105.3,802.8 107.4,807.1 108.5,808.7 C112,813.6 127.8,828.8 131.2,830.6 C133,831.5 135.2,832.8 136,833.5 C136.8,834.1 142.1,836.2 147.7,838 C153.3,839.8 158.7,841.8 159.6,842.5 C161.2,843.6 161.2,843.8 159.4,845.7 C156.6,848.6 147.4,855 146.1,855 C145.5,855 145,855.3 145,855.8 C145,856.2 141.3,860.3 136.9,865 C132.4,869.6 127.3,875.7 125.7,878.5 C124,881.2 122.3,883.7 121.9,884 C119.4,885.8 107.5,914.7 106.4,922 C103.5,939.1 103.6,938.1 106,946 C107.3,950.1 109.5,955.3 110.9,957.5 C113.6,961.7 118.9,966.9 120.4,967 C120.9,967 122.8,968.1 124.5,969.4 C126.3,970.8 129,972.2 130.6,972.6 C132.2,973 134,973.6 134.5,974 C136.8,975.6 147.3,978.2 152.7,978.5 C155.9,978.6 158.5,978.9 158.5,979 C158.5,979.4 168.4,980.2 174.8,980.3 C179.9,980.4 180.9,980.7 180.5,982 C180.3,982.8 179.2,988.8 178,995.2 C175.2,1011.3 175.3,1025.8 178.4,1037.5 C180.7,1046.5 184,1054.3 186.1,1055.5 C186.7,1055.9 188.7,1058.7 190.7,1061.7 C192.6,1064.7 194.7,1067.3 195.5,1067.6 C196.2,1067.9 198.7,1069.9 201,1072.1 C203.2,1074.2 205.7,1076 206.5,1076 C207.3,1076 208,1076.5 208,1077 C208,1077.6 209.3,1078 210.8,1078 C212.3,1078 214.1,1078.5 214.7,1079.1 C216.2,1080.6 231.8,1081.1 240.5,1079.9 C251.9,1078.3 268.9,1071.9 274,1067.2 C275.4,1066 277.5,1064.7 278.8,1064.4 C280,1064 281,1063.3 281,1062.7 C281,1062.1 281.3,1061.9 281.6,1062.3 C282,1062.6 282.9,1062.2 283.7,1061.4 C284.6,1060.6 285.4,1060 285.5,1060.2 C285.6,1060.4 286,1067.5 286.4,1076 C287.1,1095 289.3,1108.3 292.6,1113.5 C293.3,1114.6 294.4,1117.8 295,1120.7 C296.2,1126.1 304.9,1139.1 310.6,1144 C315.4,1148.1 327.3,1156 328.6,1156 C329.3,1156 332.1,1157.1 334.9,1158.5 C340.2,1161.2 346.9,1161.8 356.5,1160.5 C363.8,1159.5 374.2,1156 376.7,1153.7 C378.8,1151.8 381.9,1149.8 385,1148.4 C387.2,1147.4 416.7,1117.3 422,1110.7 C424.5,1107.6 426.8,1105.1 427.2,1105 C428.1,1105 428.8,1109.3 429.5,1119.7 C430.2,1130.1 431.9,1137.5 436,1147.9 C442.1,1163 451.9,1170 469.4,1171.5 C473.3,1171.8 476.5,1172.2 476.7,1172.4 C477.2,1172.8 482.8,1171.6 489.3,1169.6 Z M2.5,887.2 C2.2,886.9 1.4,887.2 0.7,887.9 C-0.2,888.9 -0.1,889 1.3,888.4 C2.3,888.1 2.8,887.5 2.5,887.2 Z M899.4,426.8 C899.1,426.4 898.5,426 897.9,426 C897.4,426 897,426.4 897,426.8 C897,427.3 897.7,427.7 898.5,427.7 C899.3,427.7 899.7,427.3 899.4,426.8 Z M739.5,1 C739.2,0.5 738.4,0 737.9,0 C737.3,0 737.2,0.5 737.5,1 C737.8,1.6 738.6,2 739.1,2 C739.7,2 739.8,1.6 739.5,1 Z" id="outer-shape" fill="#000000"></path>
                    <path d="M464.9,1167.9 C457.8,1166.8 448.8,1161.8 445.7,1157.2 C442.5,1152.2 437,1140.3 437,1138.1 C437,1137.2 436.3,1133.7 435.4,1130.5 C434.5,1126.9 433.7,1118.3 433.4,1109.5 L433,1094.5 L430,1093.9 C427.6,1093.4 427,1093.6 427,1094.9 C427,1098.8 417.3,1110.4 396,1132 C377.5,1150.7 368.2,1155.9 350.4,1157.6 C344.3,1158.2 342.6,1157.9 338.9,1156.2 C336.5,1155 332.3,1153.2 329.7,1152.1 C317.6,1147 300.9,1129.4 299.5,1120.1 C299.1,1118.1 298.2,1115.3 297.5,1113.9 C293.7,1106.9 291.9,1094.9 291.5,1074.3 C291.2,1051.7 290.2,1047.4 286.5,1052.7 C285.6,1053.9 282.1,1056.6 278.7,1058.6 C275.3,1060.6 271.2,1063.2 269.5,1064.4 C264.6,1067.9 254.7,1072.1 246.7,1074 C239.5,1075.8 223.6,1076.3 217.8,1075.1 C211.3,1073.6 202.2,1069.1 201.5,1066.9 C201.2,1066 199.9,1064.8 198.5,1064.2 C197.2,1063.6 195.2,1061.3 194.1,1059.2 C193,1057 191,1054 189.7,1052.4 C182.1,1043.4 178.9,1021.2 182.1,1000 C182.8,995.3 183.4,990.4 183.5,989 C183.6,987.6 184.1,985.4 184.7,984 C187.3,977.7 187.3,977.1 184.3,975.8 C180.9,974.4 173,974.1 173,975.4 C173,975.9 171.1,976 168.8,975.6 C166.4,975.2 161.6,974.7 158,974.4 C143.3,973.2 125.9,966.9 119.9,960.7 C115.3,955.9 110.8,945.6 110.2,938.4 C109.4,928.2 115.2,906.1 121.5,895.2 C130.3,879.8 133,876 139.5,869.4 C146.5,862.3 159.2,851.6 166.2,847 C168.2,845.6 170.1,843.8 170.3,842.8 C170.9,840.5 168.3,838.4 165.4,838.8 C164.1,839 161.6,838.5 159.8,837.6 C155.8,835.8 146.2,832 139.7,829.6 C137.1,828.6 135,827.4 135,826.9 C135,826.4 134.5,826 133.9,826 C131.5,826 116.4,811.1 112.2,804.6 C107.9,798 106.6,793.1 106.694714,783.5 C106.694714,777.1 107.1,774.8 108.8,772 C110,770.1 111.4,767.6 111.9,766.5 C115.7,758.3 145.8,741.3 160.2,739.2 C163.6,738.7 165.6,738 165.8,737 C165.9,736.2 163.9,733.1 161.2,730.2 C158.5,727.3 155.3,723.1 153.9,720.9 C152.6,718.7 150.6,715.6 149.4,714.2 C148.2,712.7 146.5,709.8 145.5,707.8 C144.6,705.7 143.4,704 142.9,704 C142.4,704 142,703.3 142,702.5 C142,701.7 141.6,701 141,701 C140.5,701 140,700.3 140,699.5 C140,698.7 138.9,695.7 137.6,692.8 C134.2,685.1 133.2,681.3 132.5,673.5 C132,667.7 132.3,665.4 134.3,660 C136.3,654.3 137.1,653.2 141.5,650.5 C145.8,647.8 147.1,647.5 153.4,647.7 C160.9,647.9 172.8,651.2 179.6,655.1 C183.9,657.5 185.2,658.9 184.6,660.6 C184.3,661.3 185.4,667 187,673.3 C189.7,684.5 197.1,702 199.1,702 C199.6,702 200,702.7 200,703.6 C200,704.5 201.4,706.9 203,709 C204.7,711.1 206,713.1 206,713.6 C206,714 206.7,715.1 207.6,716.1 C209,717.7 213.2,735 213.2,739.8 C213.2,741 213.6,742 214.1,742 C214.6,742 215,742.8 215,743.8 C215.1,745.8 219.3,758.7 220.3,759.7 C220.7,760 221,761.2 221,762.2 C221,763.2 221.5,764 222.2,764 C222.8,764 223.1,764.3 222.8,764.6 C221.4,766 229,779 233.8,783.3 C237.1,786.3 240,789.5 240,790.2 C240,790.7 240.9,791.9 242,793 C243.1,794.1 244,794.8 244,794.5 C244,794.2 245,794.8 246.2,796 C247.4,797.1 248.9,798 249.6,798 C250.2,798 251,798.7 251.3,799.5 C251.7,800.3 253.4,801.6 255.2,802.3 C257,803.1 260.1,805.1 262,806.9 C263.9,808.6 266.2,810.2 267,810.5 C268.4,811.1 275,820.2 275,821.7 C275.1,822.2 277.4,824.3 280.2,826.5 C287.6,832.4 294,838.5 294,839.9 C294,840.6 295.6,841.8 297.5,842.6 C299.4,843.4 301,844.4 301,844.8 C301,845.2 302.1,845.7 303.5,845.8 C304.9,845.9 307.4,846.7 309,847.5 C310.7,848.4 312,848.8 312,848.5 C312,848.2 316.4,850.3 321.8,853.1 C337.3,861.4 346.8,866 348.2,866 C349,866 350.1,866.5 350.8,867.2 C351.5,867.9 352,868.1 352,867.7 C352,867.3 355.9,868.9 360.8,871.4 C376.6,879.4 384.3,882.2 392.3,882.5 C395.4,882.7 398.7,883.3 399.5,884 C401,885.2 405.3,886 413.6,886.4 C416.4,886.6 419.3,887 419.9,887.4 C420.6,887.8 421.7,887.6 422.5,887 C423.4,886.3 425.3,886 426.9,886.3 C428.5,886.6 430,886.6 430.4,886.3 C431.1,885.5 434.4,885.2 443,885.1 C446.6,885.1 450.3,885 451.3,885 C458.1,884.9 462.3,885.4 463.9,886.4 C464.7,886.9 468.3,887.4 471.9,887.5 C475.5,887.6 481.2,888 484.5,888.3 C487.8,888.6 494.6,889.1 499.5,889.4 C504.5,889.6 509,890 509.5,890.1 C510.1,890.2 511.2,890.1 512,889.8 C512.8,889.4 516.2,888.7 519.5,888 C530,886 530.4,885.9 531,885.2 C531.8,884.1 542.2,879 545.8,878.1 C547.9,877.5 549,877.5 549,878.1 C549,878.7 549.7,878.4 550.7,877.5 C551.6,876.5 553.3,876 554.6,876.3 C555.9,876.5 557.1,876.3 557.2,875.9 C557.4,875.5 559.5,875 562,874.9 C564.5,874.8 567.3,874.3 568.3,873.8 C569.2,873.3 570,873.3 570,873.7 C570,875.2 585.5,875.7 594,874.6 C603.2,873.3 604.3,873.1 606.9,872.1 C608.3,871.5 610.9,870.5 612.5,869.9 C614.2,869.2 615.7,868.6 616,868.5 C617.1,868.2 629.6,861.9 632,860.5 C636.6,857.9 644.6,850.2 670.5,823.9 C674.9,819.4 681.2,813.9 684.5,811.7 C687.8,809.5 690.7,807.3 690.8,806.8 C691,806.4 691.6,806 692.1,806 C692.5,806 695.9,804.7 699.5,803 C703.1,801.4 706.5,800 707,800 C709.4,800 723.1,787.6 726.8,782 C729.1,778.6 731,775.4 731,774.9 C731,774.4 732.1,771.7 733.4,768.8 C736.3,762.4 738.6,753.6 739.6,745.5 C740.5,737.9 745.1,727.1 749.1,723.1 C750.8,721.4 752.4,720 752.6,720 C753.5,720 761.3,713.5 764.6,710 C766.5,708.1 768,705.7 768,704.8 C768,703.8 769.3,701.6 770.9,699.8 C777,692.7 777.6,689.5 778.5,655.5 C778.9,640.6 780.6,633.3 783.6,634.4 C784.3,634.7 785,634.5 785,633.9 C785,633.3 788.4,633.2 794.8,633.6 C800.1,634 805.4,634.3 806.5,634.3 C807.6,634.3 811.4,635.1 815,636.3 C820.5,638 822.5,639.3 827.6,644.6 C832.8,650 834,651.8 835.9,658.2 C837.8,664.7 837.9,666.3 836.9,671.1 C835.2,679.1 830.7,686.8 823,695 C815.2,703.3 815,705.2 821.6,708.3 C823.7,709.4 826.4,711 827.5,712 C828.6,712.9 831.8,715 834.5,716.5 C839.8,719.4 843.4,722.7 849,730 C850.9,732.5 852.8,734.7 853.2,735.1 C853.6,735.4 854.9,739.1 856,743.4 C858.1,751.9 857.6,758.1 854.2,763.1 C853.3,764.5 850.8,768.2 848.8,771.3 C845.2,776.6 839,782.5 834.3,784.9 C831.8,786.2 831.3,788.5 833.3,790.3 C833.9,791 837,793.1 840,795.1 C843,797.1 847.7,801 850.4,803.6 C855.7,808.8 863,819.4 863,821.8 C863,822.6 863.9,824.7 865,826.4 C867.5,830.5 871,845.6 871,852.3 C871,858.4 869.5,864.3 867.1,867.9 C866.1,869.3 864.2,872.2 862.9,874.2 C861.6,876.3 860.1,878 859.5,878 C859,878 855.6,880.7 852.2,884 C848.7,887.3 845.4,890 844.8,890 C844.3,890 840.6,891.6 836.7,893.5 C832.8,895.4 829.1,897 828.4,897 C827.7,897 826.8,897.5 826.5,898 C825.7,899.3 827.8,902.1 829.4,901.9 C831.8,901.6 832.9,902.1 836,905 C837.8,906.7 839.8,908 840.6,908 C842.2,908 851.4,917.2 854.1,921.5 C856.4,925.1 856.7,934.5 854.6,938.7 C853.8,940.2 852.6,942.8 851.8,944.5 C848.9,951 833.5,963.1 825.7,965 C823.4,965.5 819.9,966.5 818,967.2 C814.3,968.5 793.6,968.6 786.5,967.4 C781,966.5 774.7,964.2 773.8,962.7 C772.6,960.7 769.7,963.3 769.5,966.6 C769.4,968.2 770.4,971.6 771.7,974.1 C773,976.7 774,979.5 774,980.4 C774,981.3 774.9,984.6 775.9,987.7 C781.9,1005.9 784.7,1034.4 781.5,1045.2 C780.1,1050.2 775.3,1058 771.6,1061.5 C758.5,1073.8 748.2,1077.9 729.1,1078.1 C723.1,1078.1 717.4,1077.8 716.4,1077.2 C715.3,1076.7 712.4,1076 709.9,1075.6 C705.1,1074.9 692.2,1069.7 688,1066.7 C686.7,1065.8 685.1,1065 684.5,1065 C683.4,1065 674.3,1059.1 667.2,1053.9 C664.9,1052.1 661.2,1050.4 659.1,1050 L655.2,1049.3 L654.1,1059.4 C650.7,1088.9 649.6,1096.5 647.4,1105.5 C645.3,1113.9 641.2,1123.7 637.6,1129 C633.7,1134.7 620,1148 613.4,1152.6 C608.9,1155.7 607.4,1156.2 600.3,1156.6 C592.8,1157.1 592.1,1157 589.3,1154.6 C587.6,1153.2 586,1152 585.7,1152 C585.4,1152 582,1150.2 578.1,1147.9 C570.8,1143.7 556.8,1130 548.6,1119 C546.4,1116 544.3,1113.3 544,1113 C542.4,1111.4 537,1103 537,1102.1 C537,1101.5 536.6,1101 536,1101 C535.5,1101 535,1100.5 535,1099.9 C535,1098.3 531.9,1096.1 529.8,1096 C528.5,1096 528,1096.8 528,1098.8 C528,1101.7 525.1,1111.4 522.6,1117 C521.8,1118.9 519.7,1123.9 517.9,1128 C510,1147 505.9,1153.4 497.4,1160 C487.3,1168 478.9,1170 464.9,1167.9 Z" id="Path" fill="#000000"></path>
                    <path d="M492.5,882 C489.2,881.5 484.1,880.9 481.2,880.6 C478.3,880.3 475.1,879.6 474.2,879.1 C469.6,876.7 441.7,875.9 432,877.9 C424.4,879.5 410.6,880 404,879 C401,878.5 397.5,877.9 396.3,877.7 C395.1,877.5 393.7,877.1 393.4,876.7 C392.1,875.4 390.1,876 390.6,877.4 C391.7,880.3 378.9,876.1 364.4,869 C356.7,865.1 350,862 349.4,862 C348.5,862 344.1,859.8 328.9,851.7 C322.1,848.1 316.9,845 316,844 C315.1,842.9 305,837 304.1,837 C302.8,837 296,830.5 296,829.3 C296,828.7 295.6,828 295.2,827.8 C294.8,827.7 292.9,825.6 291.1,823.3 C289.2,821 287.3,819.3 286.9,819.6 C286.4,819.9 286,819.3 286,818.2 C286,813.9 265.8,792.7 257.5,788.4 C254.5,786.9 237.4,769.5 235.2,765.8 C234.3,764.3 233.2,763 232.8,763 C232.4,763 232,762.5 232,761.9 C232,761.4 231.1,759 230.1,756.7 C226,747.7 224.8,744.2 223.4,737.5 C222,730.8 218.6,718.2 217.3,715 C217,714.2 216.5,712.6 216.3,711.5 C216.1,710.4 215.5,709.4 215,709.2 C214.4,709 214,708.3 214,707.6 C214,706.9 212.2,703.7 209.9,700.5 C198.2,683.7 196,675.9 195.6,649 C195.4,635.4 193.8,623.7 191.8,621.6 C191.4,621 191,619.9 191,619 C191,618.1 189,613.4 186.5,608.5 C184.1,603.6 181.3,597.4 180.4,594.7 C178.1,587.7 177.8,575.2 179.6,564.1 C181.4,553.4 181,543.5 178.4,535 C176.1,527.8 175.5,516.4 177.1,512.5 C177.8,510.8 178.3,509.2 178.2,508.8 C178.1,508.3 178.5,508 179,508 C179.5,508 179.9,507.7 179.9,507.3 C179.6,505.3 180.1,503.9 181.8,502.2 C182.8,501.2 184.9,498.6 186.5,496.5 C188.2,494.3 189.9,492.2 190.5,491.8 C191,491.4 191.2,491 190.7,491 C190.3,491 191.1,489.2 192.5,487 C193.9,484.8 195,482.6 195,482.1 C195,481.6 195.6,481 196.4,480.7 C197.2,480.4 198.1,478.8 198.5,477.1 C199.3,473.2 200.7,474 201.6,478.8 C202,480.8 203,484.1 204,486 C206.7,491.4 208.9,499 209.5,504.3 C209.7,506.9 210.3,509.8 210.8,510.8 C211.3,511.7 212.1,514.3 212.5,516.5 C213.4,521.9 217.6,530.2 222.8,537.5 L227.2,543.4 L226.5,554 C226.2,559.8 225.9,565.1 225.9,565.8 C226.1,571 226.4,573.3 227.7,579 C230.1,589.5 230.2,590 231,590 C231.4,590 232.2,591.2 232.9,592.7 C233.6,594.2 235,596 236.1,596.8 C237.1,597.5 238,599 238,600.1 C238,601.1 238.4,602 239,602 C241.4,602 247.8,620.9 246.6,624.7 C246,626.7 248,636.6 250.2,642 C251,643.9 253,647.7 254.8,650.4 C256.6,653.2 258,655.8 258,656.2 C258,656.6 258.7,657 259.6,657 C262.5,657 287,683.1 287,686.2 C287,687.2 289.5,690.1 298.3,699.1 C300.9,701.8 303,704.5 303,705.1 C303,705.6 303.4,705.9 303.8,705.6 C304.2,705.4 307.3,707.6 310.5,710.7 C316.2,715.9 319.6,718.4 321.2,718.5 C321.6,718.5 322.5,719.1 323.2,719.8 C323.8,720.4 325,721 325.7,721 C326.4,721 327,721.7 327,722.5 C327,723.3 327.5,724 328.1,724 C328.6,724 328.8,723.6 328.5,723 C328.2,722.5 328.4,722 328.9,722 C329.5,722 330,722.4 330,722.8 C330,724.4 341.6,728.8 346.4,728.9 C350.2,729.1 352,729.7 353.8,731.6 C355.2,732.9 358.4,734.6 361,735.4 C363.6,736.2 367.2,737.5 368.9,738.4 C370.6,739.3 372,739.8 372,739.4 C372,739 372.6,739.2 373.3,739.7 C375.2,741.3 381.9,742.8 390,743.5 C392.5,743.7 397,744.8 400,745.8 C403,746.9 407.3,747.6 409.5,747.5 C413.6,747.3 440.6,748.5 456.5,749.6 C461.5,750 468,750.2 471,750.2 C478.1,750.2 499.9,748.2 501.2,747.4 C501.8,747 504.8,746.8 508,746.9 C511.1,746.9 516,746.6 518.8,746 C521.6,745.5 526.1,744.8 528.7,744.4 C534.3,743.7 541.7,741.8 547.9,739.6 C550.3,738.7 552.5,738.2 552.8,738.5 C553.1,738.8 553.8,738.5 554.5,738 C555.1,737.5 559.4,736.2 564,735.1 C568.6,734 572.6,732.7 572.9,732.1 C573.2,731.6 575.5,730.6 578,729.9 C580.5,729.2 584.3,727.6 586.5,726.4 C588.7,725.3 591.8,724 593.5,723.6 C597.6,722.6 614.6,714.4 619.8,710.9 C622.2,709.3 625.5,707.3 627.3,706.4 C629.1,705.5 632,703.4 633.9,701.7 C635.8,700.1 638.8,698.1 640.7,697.4 C642.5,696.6 644,695.5 644,694.8 C644,694.2 644.3,693.9 644.6,694.3 C645.2,694.9 647.6,693 654.4,686.8 C656.6,684.8 658.7,683.3 659.1,683.5 C659.4,683.8 660.6,682.8 661.6,681.5 C662.6,680.1 664.2,679 665,679 C666.9,679 669,677.1 675,670.1 C677.5,667.1 680.1,664.2 680.8,663.4 C681.4,662.7 682,661.7 682,661.2 C682,660.7 682.8,660 683.8,659.8 C685.9,659.2 690.7,651.2 694.3,642.3 C696.8,636.1 699.6,626.1 699.2,624.7 C699,624.2 699.6,621.3 700.5,618.2 C701.3,615 702.7,608.7 703.5,604 C705.1,594.5 710.7,579.6 716.1,570.5 C718.1,567.1 720.5,561.1 721.4,557 C723.9,546.7 724.4,527.2 722.4,520 C720.7,513.9 720.5,503.4 722,495 C725,477.9 725.8,473.6 725.9,474.8 C725.9,475.5 726.5,475.8 727,475.5 C727.6,475.2 728,475.4 728,476.1 C728,476.8 728.3,477.1 728.6,476.8 C729.3,476 733.1,479.9 734.8,483 C738.2,489.5 739.3,490.9 745.1,496 C755,504.8 763,513 763,514.6 C763,515 763.6,516.1 764.3,516.9 C768,521.2 769.3,527.5 770.1,544.5 C771,565.6 773.4,576.5 779.9,590 C782.1,594.7 782.5,596.8 782.5,604.5 C782.4,614.3 782.3,615 779,624 C778.3,625.9 776.3,631.6 774.5,636.6 C772.8,641.6 770.9,646.3 770.5,647 C770,647.8 769.5,654.2 769.4,661.4 C769,680.4 769.5,678.5 760.4,694.9 C759.1,697.4 757.3,700.1 756.5,701 C755.7,701.9 755,703.4 755,704.2 C755,705.1 754.4,705.7 753.8,705.6 C753.1,705.6 752.4,705.9 752.3,706.5 C752.2,707 751.5,707.7 750.6,708 C748.5,708.7 744.7,714.3 740.4,723 C736.7,730.5 735.9,732.9 731.3,750 C730,755.2 728.4,760.1 727.8,760.7 C727.2,761.4 727,762 727.4,762 C728,762 722.9,772.1 719.1,778.5 C717.1,781.9 706.2,789.7 702.2,790.6 C698.4,791.4 693.4,793.9 686.8,798.3 C683.6,800.4 681,801.7 681,801.3 C681,800.9 676.8,804.9 671.6,810.3 C666.4,815.6 661.7,820 661.1,820 C660.5,820 660,820.4 660,820.9 C660,821.3 658.8,822.9 657.4,824.3 C655.9,825.8 655,827.6 655.3,828.4 C655.7,829.4 655.4,829.7 654.4,829.3 C653.5,829 651,830.8 647.5,834.5 C644.6,837.7 641.3,840.7 640.2,841.4 C637.6,842.9 625.7,850.7 624.5,851.8 C624,852.2 622.8,852.9 622,853.3 C621.2,853.7 618.7,855.1 616.5,856.5 C614.3,857.8 611.5,858.9 610.3,859 C609,859 608,859.5 608,860 C608,860.6 607.3,861 606.5,861 C605.7,861 605,861.5 605,862.1 C605,862.9 604.6,862.9 603.7,862.1 C602.9,861.5 601.9,861.4 601.4,861.9 C599.7,863.4 586.6,865.9 580,865.8 C563.5,865.7 551.6,868 540.8,873.2 C537.6,874.7 534.5,876 533.9,876 C533.4,876 528.8,877.4 523.8,879.1 C513.8,882.5 503,883.5 492.5,882 Z M235,746 C235,745.5 234.8,745 234.6,745 C234.3,745 233.8,745.5 233.5,746 C233.2,746.6 233.4,747 233.9,747 C234.5,747 235,746.6 235,746 Z" id="Shape" fill="#000000"></path>
                    <path d="M466.7,747.4 C466.6,747.2 460.8,746.9 454,746.6 C447.1,746.2 437,745.7 431.5,745.4 C414.9,744.4 413.6,744.4 411.8,745.2 C410.7,745.8 409.2,745.5 407.7,744.5 C406.4,743.7 405.1,743.2 404.8,743.5 C404.5,743.8 402.6,743.4 400.4,742.7 C398.3,741.9 393.6,741 390,740.6 C382.5,739.8 373.2,737.2 370.9,735.3 C370.1,734.6 366.9,733.6 363.9,733 C360.9,732.4 358,731.4 357.5,730.6 C356.9,729.9 354.9,728.9 353,728.5 C351.1,728.1 347.9,727 346,726 C344.1,725 339.9,723 336.8,721.5 C333.6,720.1 331,718.5 331,718 C331,717.6 329.3,716.4 327.3,715.5 C325.3,714.5 321.2,711.3 318.2,708.4 C315.3,705.4 312.4,703 311.9,703 C311.4,703 311,702.6 311,702 C311,701.5 310.5,701 309.9,701 C308.9,701 304,696 294.6,685.5 C292.7,683.3 291,680.9 291,680.2 C291,679.5 290.6,679.1 290.2,679.4 C289.7,679.7 288,677.4 286.4,674.4 C284.8,671.5 283,669 282.3,669 C281.7,669 280.8,668.1 280.5,667 C280.2,665.9 279.5,665 279.1,665 C278.7,665 276.7,663.4 274.7,661.5 C272.7,659.6 270.9,658 270.6,658 C270.4,658 268.2,656.1 265.8,653.7 C259.5,647.6 257.4,642.4 256,629.6 C254.9,618.7 252.4,610.1 249.1,605.8 C248.2,604.5 246.2,601.5 244.8,599 C243.4,596.5 241.2,593.4 240.1,592.1 C238.9,590.7 237.7,588.5 237.3,587.1 C237,585.7 236.2,583.9 235.6,583.1 C234.9,582.2 234.5,575.3 234.4,564.1 C234.3,543.2 233.8,540.4 229.1,532.7 C227.1,529.5 224.8,525.6 224,524.2 C223.2,522.7 222.2,521.4 221.8,521.2 C221.3,521 221,520 221,519 C221,518 220.4,517 219.8,516.7 C218.2,516.1 216.6,510.2 214.6,497.6 C213.6,491.3 211.7,484.9 209.5,479.8 C207.6,475.4 206.3,471.4 206.6,470.8 C207,470.2 206.6,469.4 205.9,468.9 C203.1,467.2 202.9,427.7 205.5,397 C205.7,395.1 206.1,388 206.4,381.2 C206.7,374.4 207.2,367.7 207.4,366.2 C207.7,364.7 208.2,359.9 208.5,355.5 C209.4,344.3 209.8,340.9 211.4,329.5 C214.6,308.4 215.1,305.4 216,302.5 C216.5,300.9 217.9,295.7 219,291 C220.2,286.3 222,279.9 223.1,276.8 C224.2,273.7 225.3,270.1 225.5,269 C226,266.6 230.2,255.6 233.1,249.3 C234.1,246.9 235,244.7 235,244.3 C235,243.9 236.2,242.4 237.6,241 C240.7,238 245,231.4 245,229.7 C245,229 244.4,229.3 243.6,230.3 C242.9,231.2 241.9,232 241.5,232 C241.1,232 241.2,231.4 241.7,230.8 C242.3,230.1 243,228.4 243.4,227 C243.7,225.6 245.2,223 246.7,221.2 C252.8,214.1 254,212.1 254,209.2 C254,207.5 254.5,205.8 255,205.5 C255.6,205.2 256,204.2 256,203.4 C256,201.5 265.3,186.7 270.2,180.9 C272.3,178.4 274,176 274,175.6 C274,174.3 281.7,163.6 284.4,161.1 C285.8,159.7 287,158 287,157.3 C287,156.5 287.4,156.1 287.8,156.4 C288.3,156.7 289.5,155.7 290.6,154.2 C293.2,150.6 301,142 303.8,139.5 C305.1,138.4 309.1,134.6 312.8,131 C316.5,127.4 322,122.4 325,120 C333.6,113 336,110.8 340.4,106.1 C347.5,98.5 353.5,92.7 360.1,87 C363.5,84 370.3,77.7 375.1,73.1 C387.1,61.8 397.2,54.5 409,48.9 C411.5,47.7 414.4,46.3 415.5,45.7 C426.5,39.8 430.6,37.9 437,36.1 C441.1,34.9 445.9,33.7 447.5,33.4 C449.2,33.1 453.8,32.2 457.8,31.4 C462.5,30.3 467.2,30 471.3,30.4 C484.7,31.8 490.2,32.6 490.8,33.5 C491.2,34.1 493.2,34.5 495.2,34.6 C497.3,34.6 500,35.1 501.2,35.7 C502.5,36.3 505.5,37.5 508,38.3 C526.2,44.4 538.4,49.4 544.5,53.4 C547.3,55.2 553,58.9 557.3,61.6 C566.9,67.5 576.8,76.3 577.6,79.6 C577.9,80.9 578.8,82 579.4,82 C580.1,82 581.2,83.1 581.8,84.5 C582.4,85.9 583.4,87 584,87 C584.5,87 585,87.6 585,88.3 C585,88.9 587.2,91.8 589.8,94.7 C595.7,101.1 601.2,107.7 602.4,109.8 C602.9,110.6 605.9,114.1 609.1,117.4 C612.4,120.7 615,123.9 615,124.5 C615,125.1 616.4,126.9 618.1,128.6 C619.8,130.2 621.8,132.6 622.5,134 C623.2,135.4 624.7,137.5 625.9,138.7 C627,139.8 629.4,143.2 631.2,146.2 C633,149.1 635.5,152.5 636.7,153.6 C638,154.8 639,156.2 639,156.8 C639,157.4 641,159.8 643.5,162.2 C645.9,164.6 648,166.9 648,167.3 C648,167.8 649.2,170 650.8,172.3 C655,178.8 655.8,180.2 657.8,184.5 C658.8,186.7 661,190.6 662.6,193 C664.1,195.5 666.1,198.7 667,200.1 C667.8,201.6 669.7,204.5 671.1,206.6 C672.5,208.8 674.2,212.1 675,214 C675.7,215.9 677.2,218.4 678.2,219.6 C679.2,220.7 680,222.4 680,223.3 C680,225.1 681.9,229.1 683.2,230 C683.6,230.3 684.9,233.6 686,237.2 C687.1,240.9 688.5,244.2 689,244.5 C689.6,244.8 690,246.4 690,247.9 C690,249.4 690.5,251.1 691.1,251.7 C691.7,252.3 692.7,254.9 693.5,257.6 C694.2,260.3 694.9,261.9 694.9,261.3 C695.1,258.3 696.6,260.4 696.7,263.8 C696.8,267.7 697.6,272.2 699,275.5 C700.4,279 706.8,301.4 707.3,304.5 C707.6,306.2 708.3,310.2 708.9,313.5 C709.6,316.8 710.3,321.3 710.6,323.4 C710.9,325.6 711.3,327.7 711.6,328.1 C711.8,328.5 712.3,331.5 712.5,334.7 C712.8,337.9 713.3,342.5 713.6,345 C714,347.5 714.3,353.3 714.4,358 C714.6,371 712.3,376.3 710,368.3 C708.9,364.4 704.9,359 703,359 C701.5,359 701.7,359.5 705.1,366.6 C706.7,370.1 708.8,376 709.6,379.8 C712.8,393.9 712.4,431.8 708.8,445.5 C707.8,449.5 703.6,455.4 701.6,455.6 C701,455.6 697.9,456.9 694.6,458.4 C691.4,459.9 687.8,461.3 686.6,461.4 C685.5,461.6 683.2,462.2 681.7,462.9 C676.7,464.9 652.8,466 641.5,464.7 C635.8,464 619,462.7 615.8,462.6 C614.2,462.6 613,462.3 613,462 C613,461.7 609.5,461.5 605.3,461.4 C601,461.3 595.3,461 592.5,460.7 C589.8,460.4 584.2,459.9 580.1,459.5 C576.1,459.2 571.9,458.5 570.9,457.9 C569.8,457.4 568.6,457.1 568.2,457.4 C567.7,457.7 563.7,456.6 559.3,455 C554.8,453.5 550.9,452.4 550.7,452.7 C550.4,452.9 549.1,452.5 547.8,451.7 C546.6,450.9 543.8,449.7 541.8,449 C539.7,448.4 538,447.5 538,447 C538,446.6 536.9,445.9 535.6,445.6 C533.2,445 531.4,443.7 524.4,437.5 C522.6,435.9 519.9,433.6 518.5,432.5 C517.1,431.4 516,429.9 516,429.2 C516,428.5 515.6,428.2 515,428.5 C514.5,428.8 514,428.2 514,427.2 C514,426.1 513.4,425 512.6,424.7 C509.7,423.6 507.9,403.7 510.3,399 C511,397.6 511.5,395.2 511.3,393.5 C511.2,391.9 511.7,388.5 512.4,386 C513.9,381.2 516,372.5 516.5,368.8 C516.6,367.5 517.5,364.9 518.3,362.9 C519.2,360.9 519.7,359 519.4,358.7 C519.1,358.4 519.4,357.1 520.1,355.8 C520.8,354.6 521.4,352.6 521.5,351.6 C521.6,350.6 522.4,349.2 523.3,348.5 C524.3,347.8 525,346.8 525,346.1 C525,345.5 525.4,345 525.9,345 C526.4,345 527.1,344.2 527.5,343.3 C528.2,341 536,335.3 539.6,334.4 C542,333.8 541.7,334.4 536.6,339.5 C533.2,342.9 529.8,347.5 528.4,350.5 C527.2,353.4 525.6,356.1 525.1,356.5 C524.5,356.8 524,358.8 524,360.8 C523.9,362.8 523.3,366.1 522.6,368.1 C521.9,370 521.5,372.1 521.8,372.8 C522.4,374.7 524,374.2 524,372.2 C524,371.2 524.5,369.9 525.2,369.2 C525.8,368.6 526.5,367.5 526.6,366.8 C527.7,360.4 528.4,358.2 531,353.6 C537.5,342.1 553.7,329.1 561.5,329 C564.5,329 567.4,328.5 568.7,327.7 C569.9,327 570.5,326.9 581.3,326.7 C585,326.6 588,326.2 588,325.9 C588,325.6 589.7,325.5 591.8,325.8 C593.8,326 598.7,326.2 602.7,326.3 L609.9,326.4 L606.3,330.4 C604.3,332.7 602.1,334.9 601.3,335.3 C600.6,335.7 600,336.7 600,337.5 C600,338.2 599.6,339 599.1,339.2 C598.7,339.4 596.2,343.3 593.8,348 C587.7,359.5 584.8,364.3 583.1,365.6 C579.6,368.3 583.2,368.9 602.3,368.8 C626.1,368.8 639.8,371.1 644,376 C644.9,377.1 646,377.7 646.3,377.4 C647.5,376.2 655,381.2 661.4,387.7 C665.9,392.2 669.2,396.6 671.1,400.8 C672.7,404.2 674,407.3 674,407.5 C674,407.8 675.1,409.7 676.4,411.8 C677.7,413.8 679.4,418.2 680.1,421.5 C680.8,424.8 681.5,427.8 681.6,428.3 C681.7,428.7 681.8,429.7 681.9,430.5 C681.9,431.3 682.7,432 683.6,432 C684.9,432 685.1,431.3 684.5,427.8 C684.1,425.4 683.4,422.7 682.9,421.8 C682.4,420.9 682,418.9 682,417.3 C681.9,410.3 672.9,389.9 667.7,384.9 C663.7,381.1 653.6,374.6 651.2,374.2 C649.9,374.1 647.2,372.9 645.2,371.6 C640.1,368.5 620.5,365 604.5,364.5 C597.4,364.3 591.2,364.1 590.8,364 C589.4,364 589.9,362 591.3,362 C592,362 593,361 593.5,359.8 C594.1,358.5 595.1,357.6 595.6,357.7 C596.2,357.8 597.7,355.9 598.9,353.4 C600.1,351 601.4,349 601.8,349 C602.2,349 603.1,347.8 603.7,346.3 C604.4,344.7 606.4,341.2 608.2,338.3 C610,335.5 612.3,331.8 613.2,330.1 C615.1,326.6 615.6,326.5 628,328.1 C632.7,328.7 638.1,329.3 640.1,329.5 C645.2,330.1 646.4,330.4 647.1,331.2 C647.4,331.7 650.2,332.2 653.3,332.5 C663.5,333.3 672.8,336.8 680,342.4 C688.4,349 690.5,350.8 694.5,354.8 C697.5,357.7 700,358.9 700,357.4 C700,354.8 681.6,336 679,336 C678.5,336 677.4,335.3 676.5,334.4 C674.6,332.5 660.7,328.2 654,327.4 C651.5,327.1 647.7,326.4 645.5,325.8 C643.3,325.2 639.9,324.5 638,324.4 C636.1,324.2 631,323.6 626.7,323 C622.4,322.4 618.4,322.2 617.9,322.6 C617.2,323 617,322.5 617.5,321.1 C618.2,318.7 616.3,318.1 615.4,320.5 C615,321.5 613,321.9 607.7,321.9 C593.4,322 590,321.7 589.1,320.1 C588.6,319.3 588,319.2 587.6,319.8 C587.3,320.4 582.6,320.7 576.5,320.6 C570.7,320.6 565.9,320.8 565.7,321.2 C565.6,321.6 561.9,322.1 557.5,322.4 C548,323 544.3,323.6 538.7,325.6 C533.6,327.4 525.3,332.6 522,336.1 C518.6,339.6 514,346.3 514,347.7 C514,348.4 513.4,349.5 512.7,350.2 C512,350.9 510.4,356.2 509.1,362 C507.9,367.8 506.2,374.8 505.4,377.6 C504.2,382.1 502.8,392 502.9,396 C502.9,396.8 503.6,400.9 504.5,405 C506.3,413.8 506.1,417 504,412.3 C503.2,410.5 502.1,409 501.7,409 C501.2,409 501.1,409.4 501.5,409.9 C501.8,410.5 501.2,411.7 500.1,412.7 C499.1,413.7 498,415.5 497.6,416.7 C497,418.6 492.4,421.4 485.1,424.1 C480.9,425.8 475.7,426.3 465,426.4 C456.9,426.5 453.7,426.1 451,424.8 C446.1,422.4 443.6,420.7 442.7,419.3 C442.3,418.6 441.4,418 440.8,418 C440.2,418 437.3,415.6 434.3,412.8 L428.9,407.5 L429.2,401.2 C429.3,397.7 429.8,394.6 430.2,394.3 C430.7,394.1 432.8,395.4 434.9,397.2 C439.5,401.1 453.9,408.5 459,409.5 C460.9,409.9 463.1,410.7 463.8,411.2 C464.6,411.9 465,411.9 465,411 C465,410.1 466.3,409.9 469.8,410.3 C472.5,410.6 476.6,410.4 479.1,409.9 C485.4,408.5 494,404.7 494,403.3 C494,402.6 494.7,402 495.5,402 C497.4,402 499,398 499,393.4 C499,389.4 496.6,388.7 494.9,392.3 C493.3,395.7 484.8,398.8 473.8,400 C463.1,401.2 458.7,401 452,398.7 C443.7,396 439.5,393.8 437.3,391.2 C436.1,389.7 435.1,388.8 435,389.3 C435,390 432.7,388.2 428.1,383.8 C425.5,381.3 425.1,381.2 423.9,382.6 C422.2,384.7 421.5,393.1 421.9,406.8 C422,410.4 422.3,411.1 423.8,410.8 C425,410.6 427.5,412.5 430.7,415.8 C435.6,420.9 444,427 446,427 C446.6,427 447,427.4 447,427.8 C447,430.2 469.5,432.3 476.5,430.6 C477.6,430.3 480.2,429.6 482.2,429.1 C487.7,427.8 494.8,424.1 496.7,421.6 C497.7,420.4 499.5,419.1 500.6,418.8 C502.4,418.3 503,418.9 504.1,422.4 C504.8,424.6 505.3,426.8 505.2,427.3 C505.1,427.7 505.4,428 505.9,428 C506.4,428 507.2,429 507.6,430.3 C508.9,434.5 516.9,443.2 523.5,447.7 C525.7,449.2 528.2,451.2 529,452.3 C529.9,453.3 531.3,454.2 532,454.3 C534.8,454.7 540,457.2 540,458.2 C540,458.7 540.5,458.8 541,458.5 C541.6,458.2 542,458.5 542,459.2 C542,460.2 542.2,460.2 542.9,459.1 C543.6,458 544.1,458 546.1,459.1 C547.4,459.8 549.1,460.3 549.8,460.2 C550.5,460 551.3,460.6 551.6,461.4 C551.9,462.3 552.6,462.7 553.1,462.4 C553.7,462.1 554.6,462.3 555.3,462.8 C556,463.4 558.1,464.1 560,464.4 C561.9,464.7 564.6,465.2 566,465.4 C567.4,465.7 571.5,466.5 575.3,467.3 C579.3,468.2 582.3,468.4 582.6,467.8 C583,467.3 583.7,467.3 584.4,467.9 C585.6,468.9 593.4,469.7 613,470.6 C619.3,470.9 626.1,471.3 628,471.5 C629.9,471.7 640.3,472.1 651,472.4 C677.2,473 692.8,470.7 697.5,465.6 C698.8,464.2 700.4,463 700.9,463 C702.1,463 708.6,456.1 711.1,452.3 C712,450.9 713.3,447.1 714,443.9 C714.7,440.6 715.4,438.1 715.6,438.2 C715.7,438.4 716.6,442.9 717.5,448.3 C718.9,456.4 719,459.3 718.1,464.8 C717.5,468.5 717,472.6 717,473.9 C717,475.2 716.3,479.2 715.5,482.8 C713.3,492.2 713.4,504.9 715.8,514.8 C718.7,526.9 718.4,545.8 715.2,551.5 C701.1,576.8 698.5,583.1 696.5,597.5 C695.2,606.9 690.9,620.8 681.4,646.4 C680.1,649.8 676.8,655 672.3,661 C665.2,670.4 661.1,676.2 660.6,677.7 C660.2,678.7 658.1,680.8 655.9,682.4 C653.6,684 648.9,687.7 645.4,690.7 C642,693.6 638.7,696 638.2,696 C637.7,696 635,697.8 632.1,700.1 C629.3,702.3 627,703.8 627,703.4 C627,703.1 625.9,703.8 624.6,705.1 C621.7,707.9 595,721.7 595,720.4 C595,720.1 592.9,721 590.4,722.5 C585,725.7 571.4,730.5 562.1,732.6 C558.6,733.4 554.9,734.5 553.8,735.1 C552.8,735.6 550.7,736.3 549.1,736.5 C547.6,736.7 543.2,737.8 539.4,739 C535.6,740.1 530.7,741.3 528.5,741.6 C526.3,741.9 522,742.6 519,743.2 C516,743.8 510.4,744.4 506.5,744.5 C502.7,744.6 495.2,745.3 490,745.9 C481.2,747.1 467.2,747.9 466.7,747.4 Z M492.9,724.8 C492.2,723.5 491.5,723 491.3,723.7 C491,724.4 491.4,725.9 492.1,727.2 C492.8,728.5 493.5,729 493.7,728.3 C494,727.6 493.6,726.1 492.9,724.8 Z M420,552.9 C420,552.3 419.6,552.2 419,552.5 C418.5,552.8 418,553.6 418,554.1 C418,554.7 418.5,554.8 419,554.5 C419.6,554.2 420,553.4 420,552.9 Z M656.7,522.7 C664.1,521.6 686,502.2 686,496.8 C686,493.9 683.3,494.8 681.1,498.3 C678.3,502.8 670.9,509.5 670.1,508.3 C669.2,506.7 662.3,503.1 657.1,501.4 C654.6,500.6 651.6,499.5 650.5,499.1 C645.4,496.9 633.4,492.6 633,492.8 C632.7,492.8 630.6,491.8 628.3,490.5 C626.1,489.1 621.8,487.4 618.8,486.6 C615.9,485.9 611.6,484.2 609.3,483 C603,479.8 591.8,479.8 586.8,483.1 C583,485.5 582.2,486.7 581.4,490.8 C580.8,493.7 589.8,503.4 594.6,505.2 C596.5,505.9 598,506.8 598,507.2 C598,507.6 598.9,508 599.9,508 C601,508 602.1,508.4 602.4,508.8 C603.7,510.9 624.4,519.6 633.5,522 C639.8,523.6 653.3,524.8 654,523.8 C654.3,523.4 655.5,522.9 656.7,522.7 Z M292.4,519.6 C294.5,519.4 296.7,518.7 297.3,518.1 C297.9,517.5 299.4,517 300.6,517 C301.9,517 303.2,516.5 303.5,516 C303.9,515.4 304.6,515.2 305.1,515.5 C305.6,515.9 306,515.7 306,515.2 C306,514.7 308.1,513.7 310.8,513 C316.5,511.4 328.1,505.9 332.4,502.7 C334.1,501.4 338,498.9 341,497.1 C348.2,492.7 350.9,489.4 351,484.8 C351,482 350.3,480.4 347.9,478 C344.4,474.6 342.7,474.5 342.2,477.8 C341.8,480.5 337.9,480.8 335.5,478.4 C334.4,477.3 333.1,477 331.2,477.5 C329.7,477.8 325.8,478.5 322.5,479 C319.2,479.4 315.8,480 315,480.3 C314.2,480.6 311.7,481.2 309.5,481.5 C307.3,481.8 304.6,482.3 303.5,482.5 C299.5,483.2 283.4,488.9 278.5,491.3 C273.3,493.9 260.7,502.2 258.2,504.6 C257.5,505.4 256.7,506 256.5,506 C256.2,506 253.6,503.6 250.6,500.8 C247.6,497.9 243.1,493.8 240.6,491.7 C238.2,489.7 235.3,486.2 234.4,484 C232.7,480.1 231.9,479.4 230.8,480.6 C229.3,482 236.2,497 238.3,497 C238.8,497 241.7,499.6 244.8,502.9 C248,506.1 251.5,509.1 252.7,509.4 C254,509.8 255.3,511.2 255.6,512.5 C256,514.3 257.6,515.3 263.1,517 C266.9,518.3 270.2,519.6 270.5,519.9 C270.9,520.6 285.2,520.4 292.4,519.6 Z M377.3,495.7 C377.6,494.9 377.4,493.7 376.9,492.9 C376.4,492.1 376,490.4 375.9,489 C375.9,487.6 375.6,487.1 375.3,487.8 C374.9,488.8 374.5,488.7 373.5,487.3 C372.8,486.3 372.5,485.1 373,484.5 C374.8,482.4 363.1,473 358.6,473 C357.8,473 357,472.6 356.8,472.2 C356.7,471.7 355.2,471 353.5,470.7 C350.8,470.1 350.7,470.2 352.5,471.3 C356.8,474 371.5,490.2 373.2,494.1 C374.6,497.2 376.4,497.9 377.3,495.7 Z M565.7,491.2 C567,489.9 568,488.5 568,488 C568,486.8 573.6,481 574.8,481 C575.2,481 576.4,479.7 577.3,478 C578.3,476.4 579.8,475 580.6,475 C581.4,475 581.8,474.5 581.4,473.9 C580.5,472.3 576.7,473.6 570.5,477.5 C564.6,481.3 561.7,485.7 560.7,492.3 C560,496.5 560.4,496.5 565.7,491.2 Z M680.9,454.7 C681.5,453.1 681.2,451.8 679.8,450 C677.6,447.2 677,447.1 672.2,448.1 C670.5,448.5 668.8,448.4 668.5,448 C668.2,447.6 664.3,447.2 659.8,447.1 C652.5,447 646.8,446.3 635.7,444.4 C632.6,443.9 620.8,440 620,439.3 C619.7,439 621.7,439 624.4,439.3 C632.5,440.2 640.3,435.3 643.3,427.5 C644.6,424 645.6,417.6 645,416 C644.9,415.7 644.7,414.5 644.4,413.2 C643.4,407.8 634.2,395.1 632.6,396.8 C632.2,397.1 630.9,396.8 629.6,396.1 C628,395.2 625,394.9 620.4,395.3 C615.1,395.7 612.9,396.5 609.6,398.8 C598.7,406.7 598.4,421.7 608.9,431.8 C614.4,437.1 612.8,437.3 606.3,432.1 C598.8,426.1 595.3,421.8 590.5,412.8 C586.6,405.4 584.9,400.4 582,388 C580.2,380 578.5,378.9 577.6,385 C577.3,387.2 576.7,390.8 576.4,393.1 C575.6,398.4 577.4,407.3 581.1,416.7 C584.2,424.3 590.7,435 592.3,435 C592.8,435 593.9,435.9 594.8,437 C596.4,438.8 602.3,442.5 608,445.1 C615.2,448.4 619.1,450 620.3,450 C621,450 622,450.4 622.6,450.9 C623.1,451.4 624.9,452.1 626.5,452.3 C628.2,452.6 630.2,453.1 631,453.4 C631.8,453.7 634.3,454.1 636.5,454.4 C638.7,454.6 641.2,455.1 642,455.4 C642.8,455.6 648.7,456.1 655,456.5 C661.3,456.8 666.5,457.2 666.6,457.3 C666.7,457.4 669.8,457.3 673.5,457.2 C679.2,456.9 680.2,456.5 680.9,454.7 Z M317.5,454.6 C335.9,454.5 339.9,453.9 337.9,451.4 C337.4,450.8 337.3,450 337.7,449.7 C338.3,449 333.4,448.5 331.5,449 C331,449.2 329.8,449.3 329,449.2 C319.3,448.8 302.5,449.1 299,449.7 C291.9,451 239.3,449.8 236.6,448.2 C236.2,448 234.1,447.6 232.1,447.3 C227.9,446.8 224.3,443.1 224.3,439.2 C224.3,437.7 223.8,434 223.2,431 C222.5,427.5 222.2,417.4 222.5,403.3 C223,381.7 223.1,380.8 226,372.9 C227.6,368.4 229.7,363.9 230.6,362.8 C231.6,361.8 232,361 231.6,361 C231.2,361 232,359.6 233.4,357.9 C234.8,356.2 236,354.5 236,354 C236,352.5 242.5,346.8 249.4,342.3 C256.5,337.6 266.4,333.5 268.1,334.5 C268.6,334.9 269,334.7 269,334.2 C269,333.7 269.6,333.3 270.3,333.2 C270.9,333.1 273.8,332.9 276.5,332.6 C279.3,332.4 281.7,332.1 282,332.1 C282.3,332 281.8,331.5 281,331 C279.8,330.2 279.7,329.9 280.9,329.1 C284.3,326.9 278.8,326.9 269,329.1 C266.5,329.6 263.5,330.2 262.3,330.5 C261,330.7 258.8,331.6 257.3,332.4 C255.7,333.2 252.6,334.8 250.3,335.9 C248,337.1 245,339 243.8,340.3 C242.5,341.5 239.6,344.1 237.2,346.1 C234.9,348.1 233,350.3 233,350.9 C233,351.5 232.6,352 232.1,352 C231.6,352 230.9,352.8 230.6,353.8 C229.8,355.7 227.1,360.6 224.8,364.2 C221.3,369.6 219.4,377.9 218.5,391.5 C217.2,411.2 217.9,425.8 220.5,433.5 C221.3,435.7 222.2,439.7 222.5,442.3 C222.9,445 223.4,446.9 223.7,446.6 C224,446.3 224.8,446.7 225.4,447.5 C227.3,450.1 237,452.9 246.4,453.5 C251.4,453.9 259.8,454.5 265,454.8 C270.2,455.2 279.9,455.3 286.5,455.1 C293.1,454.9 307.1,454.7 317.5,454.6 Z M349,452 C349.9,451.6 355.5,451.2 366.5,450.6 C375.7,450.1 379.4,449.7 386,448.5 C388.5,448.1 407.8,433 408.8,430.7 C409,430.3 409.8,429.3 410.5,428.6 C411.3,427.8 412.9,425.3 414.1,423 C416.1,419.2 416.4,417 416.6,403 C416.9,384.4 415.3,371.9 410.7,357.3 C409,351.6 407.2,347 406.9,347 C406.6,347 403.7,344.6 400.6,341.6 C394.2,335.7 386.1,331.2 374.6,327.5 C370.3,326.1 362.6,325.7 342.2,325.9 C338.9,325.9 335,323.2 335,320.8 C335,320.2 334.7,320 334.3,320.3 C333.6,321.1 331,316.5 330.9,314.1 C330.9,313.1 330.7,313 330.3,313.8 C329.9,314.7 329.1,314.6 326.9,313.3 C325.3,312.3 324,311.3 324,310.9 C324,310.5 323.1,310 322,309.7 C320.9,309.4 320,309.5 320,309.9 C320,311 328,322.3 329.9,323.8 C331.2,324.8 329.2,325 318.5,324.9 C301.8,324.7 291,324.9 288.8,325.6 C286.7,326.2 286.4,329.6 288.3,330.3 C288.9,330.5 292,330.5 295,330.3 C302.6,329.7 326.6,329.9 331.7,330.6 C334.6,331 336.1,331.8 336.5,333.1 C336.9,334.1 337.5,335 338,335 C338.5,335 341.2,338.9 344.1,343.8 C347,348.6 350.2,353.4 351.2,354.4 C352.2,355.5 353,356.7 353,357.2 C353,357.6 353.5,358 354.1,358 C355.8,358 354.3,353.4 350.5,346.9 C348.7,343.8 346.9,340.2 346.5,338.9 C346.1,337.6 344.9,335.3 343.9,333.8 C342.8,332.3 342.3,330.9 342.8,330.6 C343.9,330 362.4,330.6 368.6,331.6 C371.4,332 372.7,332.6 372,333 C371.1,333.6 371.6,334.3 373.6,335.3 C377.7,337.4 386,345.9 386,348 C386,348.5 386.4,349 386.9,349 C390.9,349 394,371.8 394.1,403.1 C394.2,418.1 392.4,424.2 386.1,430.6 C383.6,433.2 379.3,436.3 376.5,437.6 C370.8,440.3 372.8,440.7 380.9,438.5 C383.9,437.7 386.7,437.3 387.2,437.6 C387.6,437.9 388.3,437.4 388.6,436.6 C388.9,435.7 391.2,433 393.6,430.5 C396.3,427.8 398.3,424.8 398.7,422.8 C399,421 399.8,418.8 400.4,418 C403.2,414.4 403.8,411.5 402.5,407.5 C401.7,405.2 400.9,395.5 400.6,384.5 C399.9,362.2 399.8,361.2 398.2,358.2 C397.5,357 397.2,355.5 397.5,355 C397.8,354.4 397.7,354 397.3,354 C396.8,354 395.1,351.6 393.5,348.6 C391.9,345.6 389.7,342.9 388.8,342.7 C387.8,342.4 387,341.5 387,340.8 C387,340 385.9,338.7 384.5,338 C380.2,335.7 382.4,335.9 387.2,338.3 C397.6,343.4 403.2,349 405.4,356.5 C406.3,359.8 407.6,363.9 408.1,365.5 C410,370.8 411.1,382.1 411.6,398.5 C412,414.5 412,414.5 409.1,420.5 C404.5,430.2 388.4,442.9 380.8,443 C379.2,443 378,443.4 378,443.9 C378,444.6 363.3,446 350.3,446.3 C346.3,446.5 344.5,447 342.8,448.8 L340.6,451 L342.8,451 C344,451 345,451.4 345,451.9 C345,452.7 347.1,452.7 349,452 Z M682.3,448.5 C683.5,445.5 679.6,427.8 676.4,421.8 C675.6,420.4 675,418.4 675,417.3 C675,416.3 673.9,413.7 672.5,411.5 C671.2,409.3 669,405.2 667.6,402.4 C664,395.3 649.8,380.4 644.1,377.8 C641.6,376.7 639.1,375.7 638.5,375.6 C638,375.5 636.9,375.1 636.3,374.7 C633.3,372.8 622,371.9 602.6,372 C591.1,372 581.3,372.3 580.8,372.6 C580.3,372.9 580.1,373.7 580.3,374.3 C580.7,375.7 582.9,375.8 608,376.5 C618.2,376.7 627.4,377.1 628.5,377.4 C640.2,379.9 646.5,383.6 655.6,393.1 C663.3,401.2 672.3,414.7 671.8,417.4 C671.7,418 672.1,419.5 672.8,420.7 C674.8,424.3 677.8,435 678.5,441 C679.3,447.8 679.9,450 681,450 C681.4,450 682,449.3 682.3,448.5 Z M551.8,442.5 C552.8,441.6 550,440.2 548.1,440.7 C543.8,441.8 531.3,431 527.9,423.3 C526.1,419.2 522.9,402.4 523.1,398.5 C523.3,395.8 521.9,379.6 521.5,379.1 C521.3,379 520.6,380.7 520,383 C519.3,385.7 519.1,392.3 519.5,401.8 C520.1,417 521.1,421.5 525.6,429.5 C528,433.7 535.9,441 538.2,441 C538.9,441 540.4,441.8 541.5,442.6 C543.4,444.1 550.3,444.1 551.8,442.5 Z M292,440.5 C296.7,440.1 301.4,439.5 302.5,439 C303.6,438.5 306.3,437.9 308.5,437.7 C312.8,437.2 330.2,431.4 336,428.4 C340.3,426.3 349.3,417.1 353.2,411 C359.5,401.1 364.3,376.2 360.7,372.2 C359.8,371.3 359.1,370.1 359.1,369.6 C359,368.1 356.8,367.9 330.5,367.8 C304.7,367.7 302.1,367.9 288.4,372.5 C284.4,373.9 272.5,380.8 270.5,383 C270,383.6 268.3,385.4 266.8,387 C265.2,388.6 264,390.2 264,390.6 C264,390.9 262.6,393.1 261,395.4 C259.3,397.7 257.5,401.1 257,403 C255.6,407.6 254.5,431.3 255.5,433.6 C255.9,434.7 256.2,436.4 256.1,437.6 C255.9,439.3 256.7,439.8 260.7,440.6 C265.9,441.6 278.3,441.5 292,440.5 Z M690.9,425 C691.8,418.4 691,393.1 689.7,389 C689.5,388.2 688.8,385.9 688.1,383.8 C687.5,381.8 687,379.8 687.1,379.3 C687.4,378.2 686.5,376 682.4,367.5 C680.6,363.7 679,361.1 679,361.8 C679,362.5 679.6,364.3 680.4,365.8 C681.1,367.3 682.3,371.9 683,376 C683.7,380.1 684.4,384.4 684.6,385.5 C684.8,386.6 685.2,390.2 685.5,393.5 C685.7,396.9 686.4,403.6 687,408.5 C687.5,413.5 688,420.7 688,424.5 C688,430.9 688.1,431.3 689.3,429 C690.1,427.6 690.8,425.8 690.9,425 Z M250.9,414.8 C251.6,411.9 252.4,407.7 252.6,405.5 C253.4,398.3 257.6,390.1 264.2,383 C267.2,379.7 273.6,375 274.9,375 C275.5,375 276,374.6 276,374 C276,373.5 276.6,373 277.3,373 C277.9,373 280.6,371.9 283.2,370.5 C285.8,369.1 288.7,367.8 289.7,367.7 C290.7,367.5 292.9,366.7 294.5,366 C296.2,365.3 299.6,364.7 302.2,364.6 C304.9,364.6 307,364.2 307,363.9 C307,363 337.6,362.3 341.6,363.1 C342.1,363.2 344.7,363.2 347.5,363.1 C357,362.9 350.4,361.3 335,360 C311.5,358.1 294.1,358.9 288,362.1 C287.2,362.5 282.2,365 277,367.6 C264.2,374 259.7,377.2 256.5,382.8 C255.4,384.5 254.2,386 253.8,386 C253.4,386 253,386.8 253,387.9 C253,388.9 252.4,390.3 251.6,390.9 C250.8,391.6 249.9,393.5 249.6,395.3 C248.7,400.6 247.7,408.3 247.7,411 C247.8,421.6 248.9,422.9 250.9,414.8 Z M245.8,405 C245.8,403.6 246.1,401 246.4,399.3 C247,395.8 247.5,392.4 248.5,384.5 C248.9,381.8 249.8,376.9 250.6,373.7 C251.4,370.5 251.8,367.5 251.5,367 C251.2,366.5 251.4,365.9 252,365.5 C252.5,365.2 253,363.7 253,362.2 C253,360 252.2,360.9 248.9,366.8 C242.5,378.4 241.5,382.6 241.6,398 C241.6,405.4 242,412.9 242.4,414.5 C243.2,417.5 243.2,417.4 244.5,412.5 C245.2,409.8 245.8,406.4 245.8,405 Z M545,412.5 C545,411.7 544.6,411 544.1,411 C542.8,411 541.9,412.6 542.7,413.4 C543.8,414.5 545,414 545,412.5 Z M254.8,356.5 C254.5,356.2 253.9,356.7 253.6,357.7 C253,359.1 253.1,359.2 254.1,358.3 C254.8,357.6 255.1,356.8 254.8,356.5 Z M519.7,320.8 C521.2,318.4 524,314.6 526,312.3 C533.1,303.8 534.7,301.4 537.4,295.5 C539,292.2 540.9,288.2 541.7,286.5 C543.4,282.9 544.7,277.2 546.2,266.5 C547.3,257.9 546.3,251.5 543.5,248.6 C542.7,247.8 542,246.4 542,245.6 C542,244.7 541.6,244 541.1,244 C540.6,244 539.5,243.4 538.8,242.6 C537,240.9 531,237.7 531,238.6 C531,239 530.3,238.7 529.5,238 C528.7,237.4 527.7,237.1 527.1,237.4 C526.6,237.7 526,237.5 525.8,236.8 C525.3,235.5 518.7,235.4 508.5,236.5 C505.2,236.9 501.8,237.2 501,237.2 C498,237.1 483.2,234.8 481.2,234 C480.8,233.9 479.4,233.4 478,232.9 C476.6,232.4 474.8,231.6 474,231.2 C470.9,229.5 450.8,231 446.7,233.2 C444.2,234.5 434,235.9 434,234.9 C434,234.6 431.5,234.4 428.5,234.5 C425.5,234.7 423,234.4 423,233.9 C423,232.7 409.7,234 408.8,235.3 C408.4,235.9 406.1,236.4 403.6,236.4 C401.1,236.4 399,236.8 399,237.3 C399,237.8 398.4,238.7 397.8,239.4 C397.1,240.2 395.8,241.7 395,243 C391.5,248.1 388.1,247.6 388,242.1 C388,239.5 384.4,231.4 382.9,230.4 C382.4,230.1 382,229.2 382,228.3 C382,227.4 380.9,225.3 379.6,223.6 C378.3,221.9 377,219.5 376.6,218.3 C376.2,217.1 375.1,215.8 374.1,215.5 C373.1,215.2 371.7,213.8 371,212.5 C369.5,209.7 367.4,209.1 368.5,211.8 C368.9,212.7 369.7,214.9 370.2,216.5 C370.8,218.2 371.6,220 372,220.5 C372.4,221.1 373.1,223.3 373.5,225.5 C373.8,227.6 374.8,230.7 375.6,232.2 C376.4,233.8 376.8,235.6 376.4,236.2 C376,236.9 376.1,237 376.8,236.6 C377.6,236.2 378,236.6 378,237.7 C378,238.7 378.6,240.4 379.4,241.5 C380.8,243.5 382.5,249.7 382.2,251.5 C382.1,252.1 383.1,252.6 384.4,252.6 C386.2,252.7 387,252.1 387.6,250.1 C388.2,248.2 388.6,250.4 389.2,258 C390.4,273.2 390.4,273.5 391,274 C391.3,274.3 393.3,278.8 395.4,284 C397.5,289.2 400.8,296 402.6,299.1 C404.5,302.2 406,305.3 406,306 C406,307.1 407.7,310.9 410.2,315 C410.6,315.8 411.5,317.7 412.1,319.3 C413.3,322.2 415,323 415,320.6 C415,319.8 415.6,318.9 416.3,318.6 C417.1,318.2 416.8,317.6 415.3,316.4 C414,315.5 413,313.8 413,312.6 C413,310.8 410.5,304.6 407.8,300 C407.3,299.2 405.6,295.6 403.9,292 C402.2,288.4 400.5,284.8 400,283.9 C398.4,280.7 396.8,270.6 397.3,266.1 C398.8,254.1 403.2,247.3 412.5,242.9 C417.6,240.5 421.3,240.5 430.1,243 C434.1,244.1 437.6,244.8 437.9,244.5 C438.3,244.3 440.7,243.9 443.3,243.6 C445.9,243.3 449,242.5 450.1,241.9 C451.2,241.3 452.4,241.1 452.7,241.4 C453,241.6 454.3,241.4 455.7,240.9 C457.1,240.4 459.9,239.7 461.9,239.4 C463.9,239.1 465.7,238.8 466,238.7 C467.4,238.5 475.9,241.4 478.6,243.1 C480.3,244.1 482.9,245 484.3,245 C485.7,245 487.2,245.5 487.6,246.1 C488,246.9 488.5,246.9 489.3,246.1 C491,244.4 493,244.8 493,246.8 C493,247.9 493.3,248.1 493.8,247.3 C494.5,246.2 498.1,245.6 511.2,244.4 C523.3,243.4 533.9,248.3 535.6,255.8 C535.9,257.3 536.6,259.8 537.1,261.4 C538.1,264.8 537.4,274.3 535.5,281 C534.8,283.5 533.5,287.9 532.7,290.9 C531.8,293.8 530.5,296.9 529.7,297.9 C528.9,298.8 527.5,300.9 526.6,302.7 C525.8,304.4 524.5,306.4 523.8,307.2 C519.9,311.2 514.6,321.6 515.4,323.7 C516.2,325.7 516.8,325.3 519.7,320.8 Z M635.8,316.5 C637.8,315.6 640.5,314.4 641.8,313.8 C644.5,312.4 651,306.1 651,304.7 C651,304.2 651.8,302.6 652.9,301.2 C653.9,299.7 654.9,297.3 655.2,295.7 C655.9,292.2 653.4,281.3 651,277.5 C644.2,266.5 630.5,260.3 618,262.5 C603,265.1 596,272.8 595.7,286.8 C595.4,296.1 597.7,300.6 608.3,311.2 C611.6,314.6 616.3,317.1 620.4,317.7 C622.1,318 623.6,318.3 623.8,318.4 C624.6,319.2 632.7,317.9 635.8,316.5 Z M309.9,307.2 C312.4,305.7 316.6,302.5 319.2,300 C327.1,292.2 329.1,279.6 324,268.6 C319.6,258.8 304.3,248.8 293.4,248.7 C284,248.6 278.9,249.9 274.5,253.6 C268.5,258.7 265,262.3 265,263.7 C265,264.4 264.2,265.3 263.3,265.9 C261.8,266.7 261.5,268.2 261.6,274.7 C261.7,286.9 264,293.2 271,300.1 C278.1,307.1 281.2,308.8 288.8,309.9 C296.9,311.2 304.4,310.2 309.9,307.2 Z M694,266 C694,265.5 693.5,265 692.9,265 C692.4,265 692.2,265.5 692.5,266 C692.8,266.6 693.3,267 693.6,267 C693.8,267 694,266.6 694,266 Z M555.8,261.3 C557.9,259.2 561.2,254.9 563.1,251.8 C564.9,248.6 566.8,246 567.2,246 C567.7,246 568,245.5 568,245 C568,244.4 568.9,242 570,239.8 C571.1,237.5 572,235 572,234.2 C572,233.3 573.2,230.7 574.6,228.2 L577.2,223.8 L571.4,229.4 C568.2,232.5 564.9,235.2 564,235.5 C563.2,235.8 561.6,237.3 560.5,239 C559.4,240.6 558.2,242 557.8,242 C557.3,242 557,242.5 557,243.1 C557,243.7 555.9,245.1 554.5,246.2 C553.1,247.3 552,248.8 552,249.6 C552,250.4 551.4,251.3 550.6,251.6 C548.9,252.2 548.7,258.2 550.2,262.3 C550.8,263.8 551.4,265 551.6,265 C551.8,265 553.7,263.3 555.8,261.3 Z M445.6,227.8 C446.5,226 448.7,221.6 450.5,218 C453.8,211.5 458.2,206 460,206 C460.6,206 461,205.1 461,204.1 C461,202.5 460.5,202.3 457.9,202.7 C456.2,202.9 453.7,204.1 452.3,205.3 C449.1,208 443.4,220.3 442.5,226.4 C441.6,231.9 443.1,232.5 445.6,227.8 Z M488.2,225.3 C489,222.1 487,215.6 484.4,212.5 C482.1,209.7 482,209.7 482.6,211.9 C482.9,213.2 483.3,214.9 483.4,215.6 C483.5,216.3 483.9,217.3 484.3,217.6 C484.7,218 485,220 485,222 C485,225.6 485.6,227 487.1,227 C487.4,227 488,226.2 488.2,225.3 Z M505.8,198.3 C508.2,198.1 511.8,196.7 513.7,195.4 C515.7,194.1 518.5,192.7 519.9,192.4 C521.3,192.1 523.7,191.2 525.2,190.4 C526.6,189.6 528.5,189 529.4,189 C530.3,189 531,188.6 531,188 C531,187.5 531.6,187 532.3,187 C533,187 534.5,186.2 535.6,185.3 C538.4,182.8 541.7,181 543.5,181 C544.3,181 545,180.6 545,180 C545,179.5 545.7,179 546.5,179 C547.3,179 548,178.5 548,177.9 C548,177.4 548.4,177.1 548.9,177.4 C549.4,177.7 550.3,177.3 550.9,176.6 C551.8,175.6 552.9,175.4 555.1,176 C556.7,176.5 558,176.6 558,176.2 C558,175.8 558.4,176.1 558.9,176.9 C560.2,179 567.7,177.4 568.3,174.9 C568.6,173.7 568.1,172.6 566.9,172 C565.2,171.1 553.2,169.1 548.8,169 C547.4,169 547,168.2 547,165.6 C547,163.7 546.6,161.8 546,161.5 C545.5,161.2 545,159.8 545,158.4 C545,157 544.6,156.1 544.1,156.4 C543.7,156.7 542.7,155.1 542,153 C541.3,150.8 540.4,149 540,149 C539.7,149 538.8,147.4 538,145.5 C537.2,143.6 536.3,142 536,142 C535.3,142 529.9,131.9 529.7,130.3 C529.6,129.4 528.5,128 525.8,124.9 C524.8,123.9 524,122.7 524,122.3 C524,121.8 522.1,119.9 519.8,118 C517.5,116.1 514.5,113.4 513.1,111.9 C510.3,109.1 505.9,107 503.1,107 C502.1,107 500.7,106.3 500,105.5 C499.4,104.7 498.5,104.1 498.2,104.2 C497.8,104.3 496.4,103.9 495,103.3 C487.1,100 457.3,97.7 452.9,100.1 C451.9,100.6 448.4,101.5 445.3,102.1 C442.1,102.7 438.6,103.7 437.5,104.4 C436.4,105.1 433.1,106.5 430.2,107.5 C427.3,108.6 424.2,110.1 423.2,111 C420.5,113.4 414.2,118 413.6,118 C413.3,118 412.1,118.8 411.1,119.8 C410.1,120.7 408,122.6 406.5,123.9 C401.6,128.4 397.3,134.4 392.5,143.5 C389.9,148.5 387.4,152.7 387,153 C386.6,153.3 386.1,154.4 385.9,155.5 C385.5,157.5 385.2,157.7 380,157.9 C377.4,158 377.1,158.3 377.8,159.8 C378.3,160.7 378.6,162 378.4,162.5 C378.2,163.1 379.5,163.5 381.3,163.6 C388.8,163.8 396.4,166.2 400.9,169.8 C403.4,171.8 406,173.9 406.5,174.6 C407.1,175.2 408.5,176 409.7,176.4 C410.9,176.8 414.2,179.3 416.9,182 C421.4,186.4 430,192 430,190.4 C430,190.1 432.5,191.2 435.5,192.8 C440.5,195.5 441.8,195.8 447.7,195.4 C451.3,195.2 454.9,194.5 455.5,194 C456.2,193.4 460.2,192.1 464.5,190.9 C472.9,188.7 478.7,188.9 483.5,191.4 C485.2,192.3 487,193 487.6,193 C488.3,193 490.2,194.3 492,196 C493.8,197.6 495.6,198.8 496,198.5 C496.5,198.2 497.2,198.5 497.5,199.1 C497.9,199.6 498.9,199.8 499.9,199.5 C500.8,199.1 503.4,198.6 505.8,198.3 Z M571.3,182 C574.3,180.3 577,179.3 577.3,179.7 C577.7,180 578,179.1 578,177.7 C578,174.4 576.4,174.3 571.3,177.1 C566.4,179.8 564,182 564,183.7 C564,185.7 565.5,185.3 571.3,182 Z M378.6,167.6 C379.2,166 378.5,165 372.8,159 C370.7,156.9 369,154.8 369,154.3 C369,152.8 365.2,153.1 364.6,154.6 C364.1,156 375.4,169 377.2,169 C377.7,169 378.3,168.3 378.6,167.6 Z" id="Shape" fill="#000000"></path>
                    <path d="M585,492 C585,491.5 585.5,491 586.1,491 C586.6,491 586.8,491.5 586.5,492 C586.2,492.6 585.7,493 585.4,493 C585.2,493 585,492.6 585,492 Z" id="Path" fill="#000000"></path>
                    <path d="M617.6,425.4 C616.6,424.5 616,422.1 616,419.5 C616,413.6 619,410.6 624,411.4 C630.1,412.4 633.1,419.6 629.4,424.8 C627.5,427.5 620.1,427.9 617.6,425.4 Z" id="Path" fill="#000000"></path>
                    <path d="M275.4,431.8 C273.8,431.4 269.3,430.9 265.4,430.7 L258.3,430.5 L258.6,420.1 C258.9,410.5 261.1,400 262.8,400 C263.2,400 264.1,398.7 264.8,397.2 C266.1,394.2 275.4,384 276.9,384 C277.3,384 279.7,382.4 282.1,380.5 C284.5,378.6 287.5,377 288.7,377 C289.9,377 291,376.6 291.2,376.1 C291.4,375.6 295.2,374.4 299.7,373.5 C306.3,372.2 311.7,371.9 327.7,372.4 C338.6,372.6 349.4,372.9 351.7,372.9 C355.8,373 355.9,373.1 355,375.6 C354.4,377 354.2,378.6 354.5,379.1 C354.8,379.5 354.4,381 353.6,382.2 C352.9,383.5 351.9,386.7 351.5,389.4 C350.9,394.1 345.7,405.1 343.9,405.8 C343.4,406 343,406.6 343,407.2 C343,409.2 336,416.6 332.3,418.5 C330.2,419.5 327.8,420.9 327,421.6 C326.2,422.2 324.2,423 322.5,423.4 L319.5,424.1 L322.6,420.8 C326.1,417.1 329.1,407.2 328.3,402.5 C327.4,397.3 323.9,390.9 321.4,390 C320.1,389.5 319,388.6 319,388.1 C319,386.5 313.3,384.9 306.2,384.5 C298.8,384.1 294.7,385.3 290.6,389.2 C289.5,390.2 288.3,391 288,391 C287.6,391 286.4,393 285.2,395.4 C282.5,400.7 282.4,406.9 284.9,411.9 C286.8,415.6 293.9,424.7 294.6,424.3 C294.8,424.2 296.5,424.7 298.4,425.5 C300.4,426.3 302.9,427 304,427 C306.8,427 306.5,428.5 303.3,429.9 C299.2,431.8 280.1,433.1 275.4,431.8 Z" id="Path" fill="#000000"></path>
                    <path d="M305.5,415 C305.2,414.5 304.4,414.3 303.7,414.5 C301.3,415.4 298,411.1 298,407 C298,401 306.6,398.1 311,402.6 C314.2,405.7 314.7,411.3 312.1,413.9 C309.9,416.1 306.5,416.7 305.5,415 Z" id="Path" fill="#000000"></path>
                    <path d="M474.7,171.2 C472.3,170.9 472,170.5 472.6,168.7 C472.9,167.5 473.6,166 474.1,165.5 C474.5,164.9 476.1,160.7 477.5,156.3 C479.1,151.5 481.2,147 482.7,145.5 C485.7,142.6 485.9,142.7 487,147.2 C487.5,149 488.6,152.4 489.4,154.7 C490.3,157 491.1,160.3 491.2,162 C491.3,163.6 491.8,165 492.3,165 C493.8,165 492.5,169.5 491,169.6 C490.2,169.6 488.8,169.9 488,170.2 C486.1,171.1 478.3,171.6 474.7,171.2 Z" id="Path" fill="#000000"></path>
                    <path d="M456,168.4 C454.1,167.7 450.8,167.1 448.8,167.1 C446.8,167 444.8,166.6 444.5,166 C444.2,165.5 442.7,165 441.2,165 C439.6,165 439,164.7 439.7,164.2 C440.6,163.6 442,160.1 442.5,157 C442.8,155 449.4,143 450.3,142.7 C451.5,142.3 456.6,152.2 458.9,159.3 C459.6,161.2 460.8,163.4 461.6,164 C462.3,164.7 463,166.2 463,167.4 C463,170 461,170.2 456,168.4 Z" id="Path" fill="#000000"></path>
                    <path d="M502,167.6 C502,166.7 507.8,156 509.2,154.3 C510.1,153.2 511.4,154.1 516.1,159.2 C519.3,162.7 522,165.8 522,166.3 C522,166.7 520.5,167 518.8,167 C517,167 512.5,167.3 508.8,167.6 C505,168 502,167.9 502,167.6 Z" id="Path" fill="#000000"></path>
                    <path d="M466,163.8 C462.9,160 460.6,155.4 457.5,147 C456.2,143.4 454.9,139.8 454.5,138.9 C454,137.6 454.7,137.1 457.6,136.7 C459.6,136.3 461.7,136.3 462.2,136.6 C462.7,136.9 466.9,137.3 471.6,137.4 C476.2,137.6 480.3,138 480.7,138.3 C481.3,139 480.1,142.3 476.2,151 C473.6,156.8 468.7,167 468.6,167 C468.5,167 467.4,165.6 466,163.8 Z" id="Path" fill="#000000"></path>
                    <path d="M494.6,159.3 C493.6,155.5 492.4,151.6 492,150.5 C490.8,147.7 489,141.8 489,140.9 C489,139.8 495,141.7 497,143.5 C497.9,144.3 499,145 499.3,145 C499.7,145 500.9,145.9 502,147 C503.1,148.1 504.6,149 505.4,149 C506.4,149 506.6,149.7 506.2,151.3 C505.7,153.4 502.2,160 501,161 C500.7,161.3 500,162.4 499.4,163.4 C497.5,167 496.5,166.1 494.6,159.3 Z" id="Path" fill="#000000"></path>
                    <path d="M433,162.3 C433,161.4 432.3,160 431.5,159.1 C428.2,155.6 423,148.8 423,147.9 C423,147.4 423.7,146.9 424.5,146.9 C426.9,146.7 430.3,145.5 433.4,143.8 C434.5,143.2 437.7,142 440.6,141 L445.9,139.1 L444.9,141.8 C444.3,143.3 443.2,146.1 442.3,148 C441.5,149.9 440.4,152.4 440,153.5 C437,161.3 435.5,164 434.3,164 C433.6,164 433,163.3 433,162.3 Z" id="Path" fill="#000000"></path>
                    <path d="M417.3,160.7 C413.8,160.2 411,159.4 411,159.1 C411,158.8 412.7,156.6 414.8,154.2 L418.6,149.9 L421.1,152.7 C422.4,154.2 424.6,157 425.8,158.8 L428.1,162 L425.8,161.9 C424.5,161.8 420.7,161.3 417.3,160.7 Z" id="Path" fill="#000000"></path>
                    <path d="M748.5,480.1 C745.4,479.3 740.9,477.2 740,476.1 C739.7,475.7 737.9,474.3 736,473 C728.9,468.1 723.6,462.1 723.4,458.7 C723.2,455.1 721.9,449.2 719.6,440.7 C718,434.8 717.4,423.8 719,429 L719.7,431.5 L720.4,429 C721.4,425.1 722,420.2 722.5,410.5 C722.8,405.6 723.5,399.5 723.9,397 C724.9,392.3 724.7,373.8 723.6,366 C722.9,360.6 721,335.8 721,331.4 C721,327.7 722.8,326.9 727.7,328.2 C730.7,329 730.8,329.2 730.6,333.8 C730.4,336.4 730,339.7 729.6,341.2 C729,343.4 729.2,344.1 730.5,344.6 C733.2,345.7 734.9,342.9 735.2,336.8 C735.4,333.6 735.6,331 735.8,331 C735.9,331 736.8,331.8 737.9,332.8 C738.9,333.7 741.1,335.6 742.9,337 C744.6,338.4 746,339.9 746,340.4 C746,340.9 747.6,343.3 749.7,345.8 C751.7,348.2 753.8,351.6 754.5,353.4 C755.1,355.1 756.4,358.2 757.3,360.2 C758.3,362.3 759,364.2 759,364.5 C758.9,364.8 759.6,365.8 760.5,366.6 C761.3,367.5 762,368.9 762,369.8 C762,370.7 762.7,372.4 763.5,373.4 C764.3,374.5 765,376.2 765,377.2 C765,378.2 765.4,379.8 765.9,380.8 C766.8,382.6 768.8,388.7 769.5,391.7 C769.7,392.7 770.8,397.1 771.9,401.5 C772.9,405.9 774.1,412.4 774.5,416 C774.9,419.6 775.5,423.4 775.7,424.5 C777.7,432.2 775.4,465 772.9,465 C772.4,465 772,466.1 772,467.4 C772,468.7 770.8,471.2 769.3,472.9 C767.7,474.6 765.6,477.1 764.5,478.5 C762.8,480.6 761.7,481 757,480.9 C754,480.8 750.2,480.5 748.5,480.1 Z M757,468.6 C757,467.8 755.8,466.5 754.3,465.7 C746.4,461.7 745,460.4 743.4,456 C739.3,444.3 735.7,430.5 732.9,416 C731.7,410 728.5,403.4 726.3,402.6 C724.7,402 724.7,403 726.1,406.7 C726.7,408.2 727.5,411.8 728,414.5 C730.1,428.1 736.2,452.6 738.4,456.5 C739,457.6 739.5,459 739.5,459.5 C739.7,463.3 744.7,467.1 752,469.1 C756,470.2 757,470.1 757,468.6 Z M765.8,448.4 C767.5,440.2 767.3,424.3 765.4,417.3 C764.5,413.8 763.4,411 763.1,411 C762.7,411 762.4,419.7 762.4,430.3 C762.4,442.2 762,451 761.3,453.4 C760.6,455.6 760.3,457.7 760.6,458.2 C761.6,459.7 764.7,453.8 765.8,448.4 Z" id="Shape" fill="#000000"></path>
                    <path d="M167.7,470 C166,468.9 162.7,467.9 160.4,467.8 C159.7,467.7 158.7,467 158.1,466.1 C153.6,459.4 152.2,457.1 152.8,456.6 C153.1,456.3 152.8,456 152.2,456 C151.5,456 151,455.4 151,454.6 C151,453.9 150.4,452.7 149.7,452.1 C146.2,449.3 144.2,420.1 146.1,399.5 C147.2,388.5 151.8,366 154.1,360.5 C157.3,353.2 158.6,350 160.7,345 C163.7,337.5 177,325.8 184,324.5 C185.8,324.2 186,324.7 186,330.1 C186,334.6 186.4,336.2 187.6,336.7 C190.1,337.6 191,335.1 190.6,328.8 C190.1,323.2 190.2,323.1 193.1,322.5 C196.9,321.6 204,322.8 204,324.3 C204,325 203.3,329.6 202.6,334.5 C201.8,339.5 200.8,348.7 200.5,355 C200.1,361.3 199.5,366.9 199.2,367.5 C198.9,368 198.5,377.7 198.3,389 C197.6,437.8 197.1,450.4 195.4,454.2 C194.5,456.3 193.3,457.7 192.9,457.4 C192.4,457.1 191.8,458.1 191.4,459.5 C191,461 190.2,461.9 189.5,461.6 C188.8,461.4 187.8,462.3 187.1,463.6 C186.5,464.9 185.7,465.9 185.3,465.8 C184.3,465.6 180.9,467 179.1,468.4 C178.4,468.9 177.3,469.5 176.6,469.7 C172.5,470.8 169.3,470.9 167.7,470 Z M172.5,463.4 C174.7,462.5 177.6,460.4 179,458.8 C182.1,454.8 184.9,446.7 185,441.3 C185,439 185.7,433.7 186.5,429.6 C187.3,425.4 187.7,421.3 187.4,420.6 C187.1,419.8 187.6,417.6 188.4,415.5 C189.3,413.4 190,411.1 190,410.4 C190,408.4 188,408.7 187.4,410.8 C187.1,411.7 186.2,413.9 185.4,415.5 C183.7,419.3 181.3,429.5 180,438.6 C178.4,450.1 174.1,457.8 167.5,460.9 C165,462.1 162.6,463 162,463 C160.8,463 160.7,464.3 161.7,465.4 C162.7,466.3 167.2,465.5 172.5,463.4 Z M163,451.3 C163,450.8 162.6,448.9 162,447 C158.4,433.8 157.3,404.4 160.3,401.4 C161.2,400.4 161.2,396 160.2,396 C159.8,396 158.3,398.8 157,402.2 C154.9,407.4 154.5,410.4 154.4,419.5 C154.2,431.2 156.4,446 158.8,449.8 C160.1,451.9 163,452.9 163,451.3 Z" id="Shape" fill="#000000"></path>
                    <path d="M715.5,433.6 C715.8,431.5 716.1,425.7 716.1,420.7 C716,410.6 717.4,410 718.5,419.6 C718.9,423.7 718.8,426 718.1,426.4 C717.5,426.8 717,428.8 717,430.8 C717,432.8 716.5,435.2 715.9,436 C715.1,437.1 715,436.5 715.5,433.6 Z" id="Path" fill="#000000"></path>
                    <path d="M507.6,419.5 C507.3,418.6 507,417.3 507.1,416.7 C507.1,416 507.6,416.6 508.1,417.9 C508.6,419.2 508.9,420.5 508.6,420.7 C508.4,420.9 508,420.4 507.6,419.5 Z" id="Path" fill="#000000"></path>
                    <path d="M716.7,410.3 C716.3,410 716,409 716,408.1 C716.1,406.8 716.3,406.8 717.1,408.3 C718.2,410.2 717.9,411.6 716.7,410.3 Z" id="Path" fill="#000000"></path>
                    <path d="M715.1,388.4 C715.1,387.3 715.4,387 715.7,387.8 C716,388.5 715.9,389.4 715.6,389.7 C715.3,390.1 715,389.5 715.1,388.4 Z" id="Path" fill="#000000"></path>
                    <path d="M714.6,382.9 C714.3,381.2 714.4,379.1 714.9,378.3 C715.5,377.2 715.8,378.2 715.8,381.4 C715.9,386.7 715.5,387.3 714.6,382.9 Z" id="Path" fill="#000000"></path>
                    <path d="M732,262.9 C727.7,262 724.4,258.3 722.9,252.8 C720.6,244 723.6,237.3 730.9,234.9 C738.4,232.4 745.4,234.3 750.7,240.4 C754.1,244.2 755,246.6 755,251.1 C755,254.6 754.4,255.8 751.1,259.1 C748.4,261.8 746.3,263.1 744.1,263.2 C742.4,263.3 739.8,263.4 738.3,263.5 C736.7,263.6 733.9,263.3 732,262.9 Z" id="Path" fill="#000000"></path>
                    <path d="M173.6,244 C172,243 169.3,240 167.6,237.4 C160.6,226.6 166.5,213 178.1,213 C182,213 192,215.9 192,217 C192,217.4 192.9,218 193.9,218.3 C196,218.8 200.6,225.4 201.5,229.3 C201.9,230.6 201.7,233.5 201.1,235.6 C200.2,239 199.4,239.8 194.4,242 C191.3,243.4 188.3,244.6 187.9,244.6 C187.4,244.7 186.9,244.8 186.8,244.9 C185.7,245.8 181.6,245.8 180.1,245 C179.1,244.5 177.9,244.5 177.4,244.9 C176.9,245.4 175.2,244.9 173.6,244 Z" id="Path" fill="#000000"></path>
                    <path d="M251,211.1 C251,210.6 251.5,209.8 252,209.5 C252.6,209.2 253,209.3 253,209.9 C253,210.4 252.6,211.2 252,211.5 C251.5,211.8 251,211.7 251,211.1 Z" id="Path" fill="#000000"></path>
                    <path d="M19.6,1023.4 C17.5,1018.9 17.6,1018.7 20.4,1020.5 C23.4,1022.5 24.1,1024.2 22.5,1025.7 C21.6,1026.6 20.9,1026 19.6,1023.4 Z" id="Path" fill="#000000"></path>
                    <path d="M6.8,1013.3 C4.9,1013 3.8,1012 3.1,1009.9 C2.1,1007.1 2.2,1006.9 4.3,1007.6 C7.8,1008.6 13.4,1014.5 10.3,1013.9 C9.8,1013.8 8.3,1013.5 6.8,1013.3 Z" id="Path" fill="#000000"></path>
                    <path d="M15,1009.1 C11.8,1005.8 9.4,1002 10.5,1002 C10.8,1002 13.3,1003.6 16,1005.5 C18.7,1007.4 21.4,1009 22,1009 C23.6,1009 23.2,1011.7 21.4,1012.4 C19.1,1013.3 18.9,1013.1 15,1009.1 Z" id="Path" fill="#000000"></path>
                </g>
            </g>
        </g>
    </g>
</svg>