<?xml version="1.0" standalone="no"?>
<!DOCTYPE svg PUBLIC "-//W3C//DTD SVG 20010904//EN"
 "http://www.w3.org/TR/2001/REC-SVG-20010904/DTD/svg10.dtd">
<svg version="1.0" xmlns="http://www.w3.org/2000/svg"
 width="1037.000000pt" height="1270.000000pt" viewBox="0 0 1037.000000 1270.000000"
 preserveAspectRatio="xMidYMid meet">
<metadata>
Created by potrace 1.15, written by Peter Selinger 2001-2017
</metadata>
<g transform="translate(0.000000,1270.000000) scale(0.100000,-0.100000)"
fill="#000000" stroke="none">
<path d="M1072 12688 c-7 -7 -12 -18 -12 -25 0 -7 -6 -13 -12 -13 -12 0 -88
-74 -88 -85 0 -3 -9 -14 -20 -25 -11 -11 -20 -27 -20 -36 0 -8 -4 -13 -9 -9
-5 3 -15 -11 -21 -30 -6 -19 -15 -35 -18 -35 -10 0 -42 -59 -42 -76 0 -9 -5
-25 -12 -37 -7 -12 -13 -27 -14 -33 -1 -6 -16 -41 -34 -78 -27 -56 -31 -70
-19 -77 11 -7 11 -9 -3 -9 -10 0 -19 -6 -19 -12 -1 -7 -3 -24 -4 -38 -1 -13
-7 -26 -13 -28 -6 -2 -8 -10 -5 -18 4 -10 0 -12 -13 -7 -13 5 -16 3 -11 -9 3
-9 0 -19 -8 -21 -7 -3 -25 -28 -41 -56 -15 -28 -31 -51 -36 -51 -5 0 -12 -8
-15 -17 -4 -9 -38 -48 -76 -87 -97 -99 -137 -147 -131 -157 3 -5 1 -9 -5 -9
-9 0 -41 -50 -42 -65 0 -2 -6 -20 -14 -38 -8 -19 -24 -73 -36 -120 -16 -64
-25 -84 -35 -80 -18 6 -19 -23 -1 -31 8 -3 6 -9 -8 -17 -19 -12 -19 -12 0 -20
15 -6 16 -8 4 -8 -15 -1 -15 -8 -3 -77 7 -42 11 -80 9 -85 -3 -4 -1 -10 4 -14
6 -3 8 -12 5 -20 -3 -7 1 -29 9 -47 36 -77 50 -347 22 -411 -9 -21 -13 -47
-10 -58 4 -10 2 -19 -2 -19 -14 0 -53 -97 -64 -159 -6 -31 -19 -83 -29 -116
-58 -178 -19 -367 121 -587 44 -68 60 -104 73 -166 16 -73 16 -86 2 -169 -9
-49 -21 -149 -27 -222 -10 -129 -10 -133 16 -213 39 -120 77 -190 162 -296 77
-95 76 -91 77 -342 1 -246 3 -252 72 -361 15 -24 39 -67 54 -95 35 -71 93
-144 108 -139 6 2 12 0 12 -5 0 -6 -6 -10 -12 -10 -9 0 -9 -3 -3 -8 14 -9 55
-80 55 -94 0 -5 8 -22 18 -36 27 -41 52 -154 56 -260 1 -39 7 -67 15 -71 9 -6
10 -11 2 -15 -7 -5 -7 -15 -1 -32 12 -31 7 -53 -41 -179 -20 -55 -48 -134 -60
-175 -34 -114 -137 -398 -167 -462 -15 -32 -33 -58 -39 -58 -7 0 -13 -6 -13
-12 0 -8 -7 -5 -15 6 -14 18 -15 16 -16 -30 -2 -144 4 -229 23 -324 11 -58 20
-112 20 -120 0 -8 6 -40 13 -70 8 -30 24 -104 35 -165 24 -123 90 -311 150
-426 22 -42 41 -85 43 -96 1 -11 8 -26 15 -34 15 -17 63 -84 109 -152 59 -87
127 -159 224 -238 119 -96 222 -163 275 -179 34 -10 45 -20 63 -59 13 -25 57
-111 99 -191 42 -80 77 -154 79 -165 1 -11 9 -72 17 -135 8 -63 17 -131 20
-150 3 -19 8 -54 11 -77 l6 -42 -63 -29 c-86 -39 -128 -104 -128 -199 0 -24
-4 -43 -10 -43 -15 0 -307 -141 -411 -199 -106 -59 -136 -90 -251 -270 -112
-174 -149 -298 -155 -516 -5 -220 15 -379 71 -550 18 -55 41 -136 50 -180 27
-127 61 -223 116 -325 27 -52 50 -98 50 -102 0 -4 5 -8 10 -8 6 0 10 -5 10
-12 0 -12 30 -59 88 -138 65 -88 234 -261 300 -307 37 -26 89 -63 115 -82 27
-20 49 -34 50 -31 1 2 15 -8 30 -24 16 -16 34 -25 43 -22 8 3 13 2 10 -3 -7
-11 22 -36 31 -28 3 4 11 0 17 -8 14 -18 364 -165 516 -215 130 -44 366 -94
330 -70 -11 7 -6 10 23 10 20 0 37 -4 37 -10 0 -5 17 -10 38 -10 20 0 64 -7
97 -16 113 -29 244 -51 385 -65 135 -13 212 -25 234 -34 17 -7 18 -6 11 11 -5
10 -18 57 -31 104 -12 47 -36 135 -52 195 -67 239 -92 413 -122 865 -5 80 -14
179 -20 220 -7 58 -14 267 -11 323 1 9 150 -104 236 -180 33 -29 64 -53 68
-53 5 0 27 -16 49 -35 23 -19 45 -32 49 -29 5 3 9 -1 9 -8 0 -12 121 -141 192
-204 13 -11 57 -58 98 -104 85 -95 255 -226 411 -317 105 -62 345 -170 429
-194 25 -7 50 -16 55 -20 6 -4 30 -9 55 -12 25 -3 52 -8 60 -11 8 -3 31 -7 50
-10 19 -3 62 -11 95 -18 84 -18 546 -18 640 0 186 36 442 142 618 259 40 26
74 50 77 53 3 3 30 24 60 47 62 47 262 254 340 353 28 36 68 83 89 105 21 22
73 81 115 130 43 50 99 113 125 140 55 58 184 213 256 304 28 35 67 83 88 105
60 63 241 303 283 375 10 17 21 31 25 31 4 0 8 -63 8 -140 1 -77 4 -146 6
-153 2 -6 6 -96 10 -200 3 -103 7 -193 10 -200 3 -10 11 -146 20 -332 1 -27 5
-165 9 -305 3 -140 9 -316 13 -390 4 -74 5 -180 3 -235 -11 -224 3 -387 36
-432 21 -27 91 -52 103 -36 8 11 48 13 335 14 155 1 243 5 235 10 -10 7 -6 8
12 4 87 -21 492 86 639 167 96 53 221 149 300 229 134 138 152 160 237 290 23
35 61 88 83 117 41 52 150 272 150 302 0 9 4 20 9 25 5 6 22 48 39 95 17 47
47 127 67 179 20 51 34 100 31 107 -3 8 -2 14 3 14 16 0 65 173 66 230 0 36 4
54 11 53 16 -3 26 55 19 109 -4 35 -3 38 5 18 8 -20 9 -15 5 23 -3 30 -1 46 5
42 6 -4 10 27 10 84 0 66 -3 91 -12 91 -7 0 -5 5 4 11 10 5 18 15 18 22 0 8
-4 6 -11 -3 -9 -12 -10 -11 -4 5 9 26 6 238 -3 245 -4 3 -8 43 -10 88 -2 46
-12 123 -23 170 -11 48 -22 100 -25 117 -3 16 -12 42 -20 57 -8 15 -14 37 -14
50 0 27 -40 130 -55 140 -5 4 -6 8 -1 8 5 0 2 8 -8 18 -9 10 -29 46 -45 79
-32 64 -70 115 -171 225 -129 140 -248 214 -421 263 -68 19 -180 51 -249 70
-69 20 -151 43 -182 51 -32 7 -73 22 -91 31 -19 10 -63 33 -98 52 -48 26 -80
35 -130 39 l-66 4 -2 111 c-1 61 -4 113 -5 116 -2 3 0 49 4 101 5 52 11 191
14 309 4 133 11 220 18 228 6 7 49 37 97 65 175 105 463 337 483 389 4 11 12
19 18 19 5 0 10 6 10 14 0 8 4 16 8 18 4 2 32 32 61 68 29 36 60 74 69 85 47
56 101 163 94 188 -1 4 7 18 18 30 12 12 23 33 26 47 3 14 11 41 18 60 30 80
38 106 38 120 1 8 6 21 12 29 6 8 12 35 12 60 2 85 24 255 43 331 12 50 15 80
8 90 -6 10 -4 48 6 109 8 51 15 135 16 187 2 93 2 94 -29 122 -17 16 -32 38
-35 49 -2 12 -10 32 -19 45 -24 37 -125 284 -141 343 -7 30 -27 83 -43 117
-16 35 -41 95 -56 133 -14 39 -38 93 -52 122 -23 47 -25 56 -16 105 6 29 13
101 16 160 12 237 69 376 227 555 86 99 112 135 104 147 -3 3 -2 4 2 1 21 -16
79 148 88 248 10 106 9 190 -3 183 -5 -3 -8 5 -7 17 2 28 -5 48 -15 42 -4 -2
-5 6 -3 20 3 13 -2 38 -11 56 -9 18 -16 40 -16 51 0 10 -4 18 -9 18 -5 0 -7 8
-4 18 2 9 0 36 -5 60 -6 23 -6 44 -2 47 5 3 10 -1 13 -7 2 -7 5 23 6 66 2 83
8 124 22 142 24 30 78 154 85 194 9 52 9 50 17 70 4 8 5 60 3 115 -5 108 -25
182 -70 254 -14 22 -26 43 -26 47 0 4 -20 34 -43 68 -31 43 -49 82 -61 133
-18 74 -19 178 -2 201 5 7 6 15 2 19 -3 3 0 16 8 28 8 12 22 48 31 79 9 31 23
69 30 83 8 15 12 30 9 35 -3 4 0 8 7 8 6 0 9 8 6 20 -3 11 -2 18 3 15 4 -3 10
8 13 23 3 15 13 56 22 92 9 36 15 77 13 92 -3 15 0 24 4 22 14 -9 3 73 -12 91
-10 13 -11 15 -1 13 18 -4 21 66 5 117 -12 41 -45 116 -54 125 -9 8 -43 63
-63 100 -27 49 -95 149 -128 187 -15 17 -30 46 -34 63 -4 17 -13 43 -21 58 -8
15 -14 36 -14 48 0 12 -4 34 -9 50 -6 16 -12 56 -15 89 -7 83 -17 145 -25 145
-3 0 -7 20 -8 45 -1 25 -7 54 -13 64 -5 11 -10 27 -10 36 0 9 -6 31 -14 48 -8
18 -26 60 -42 95 l-28 62 -4116 0 c-3188 0 -4119 -3 -4128 -12z m4538 -127
c58 -6 152 -15 210 -21 58 -6 159 -23 225 -40 156 -38 294 -70 325 -75 23 -3
166 -40 265 -67 114 -31 372 -111 389 -120 11 -6 40 -25 65 -43 25 -18 98 -61
161 -96 112 -62 113 -63 83 -71 -34 -9 -37 -20 -47 -165 -2 -28 -12 -68 -23
-90 -11 -21 -32 -60 -47 -87 -31 -58 -35 -120 -8 -136 15 -9 14 -10 -5 -5 -21
6 -23 3 -23 -28 0 -45 -27 -123 -59 -172 -38 -56 -52 -93 -41 -100 6 -4 4 -13
-6 -22 -12 -13 -13 -17 -2 -24 10 -7 10 -9 1 -9 -7 0 -13 -7 -13 -15 0 -8 5
-15 10 -15 6 0 10 -5 10 -11 0 -5 -4 -8 -8 -5 -5 3 -14 -21 -20 -52 -6 -31
-23 -74 -38 -95 -14 -21 -26 -47 -27 -57 -1 -11 -5 -20 -10 -20 -5 0 -7 -36
-6 -80 2 -44 7 -80 13 -80 5 0 2 -8 -7 -18 -10 -10 -18 -31 -19 -45 -1 -15 -6
-27 -10 -27 -5 0 -13 -12 -19 -27 -6 -16 -17 -41 -25 -57 -17 -36 -18 -33 6
-39 16 -4 26 6 49 46 39 71 59 145 70 255 5 56 14 100 22 108 15 15 116 37
129 29 5 -3 29 -9 54 -14 36 -7 65 -3 137 15 54 14 120 24 162 24 l71 0 53
-57 c29 -32 52 -63 53 -68 0 -6 8 -26 19 -45 10 -19 21 -64 25 -100 4 -36 12
-70 18 -77 14 -18 113 -16 174 2 27 8 64 15 82 15 17 0 32 3 32 6 0 3 -11 20
-25 38 -14 18 -22 36 -18 39 3 4 -1 15 -9 24 -8 10 -21 41 -27 68 -10 41 -24
62 -78 115 l-66 65 2 77 c2 60 -2 85 -18 117 -19 35 -20 52 -15 143 6 100 5
104 -20 138 -14 19 -32 49 -40 65 -17 37 -28 165 -13 165 5 0 3 8 -4 17 -8 10
0 6 18 -7 18 -14 32 -29 32 -34 1 -5 -9 -1 -21 10 -12 10 0 -7 26 -38 27 -32
50 -58 52 -58 2 0 -1 12 -6 28 l-10 27 20 -25 c11 -14 18 -30 15 -37 -2 -7 2
-10 12 -6 11 4 14 2 11 -8 -2 -7 8 -27 24 -44 15 -16 28 -33 28 -38 0 -4 15
-22 33 -40 19 -17 37 -40 40 -49 10 -27 157 -238 167 -238 4 0 13 -12 19 -27
20 -49 77 -133 86 -125 5 4 5 2 2 -4 -4 -7 7 -38 24 -69 53 -99 99 -234 114
-334 8 -53 19 -111 24 -130 17 -58 75 -163 104 -190 16 -14 42 -53 60 -86 28
-55 31 -72 38 -192 9 -150 36 -244 100 -349 56 -92 82 -183 78 -274 -2 -41 -4
-129 -4 -195 0 -112 2 -124 28 -173 15 -29 34 -80 43 -113 14 -55 14 -72 0
-177 -17 -130 -13 -188 24 -306 30 -96 39 -256 34 -666 -3 -309 -12 -495 -30
-645 -9 -71 12 -47 35 41 10 38 29 87 42 110 29 49 68 99 73 93 6 -6 117 -332
114 -334 -2 0 -59 2 -128 6 -69 5 -203 11 -299 14 -159 5 -174 4 -187 -12 -10
-13 -13 -14 -14 -4 0 26 -319 5 -538 -35 -76 -14 -85 -14 -100 0 -76 71 -149
108 -277 141 -120 31 -212 19 -431 -54 -51 -17 -99 -31 -108 -31 -9 0 -24 -8
-34 -18 -10 -10 -52 -36 -93 -58 -114 -62 -151 -88 -238 -165 -45 -39 -81 -66
-81 -60 0 12 117 114 186 162 27 19 85 53 129 76 93 49 94 58 2 12 -64 -33
-160 -94 -212 -137 -67 -54 -125 -114 -119 -123 3 -5 1 -8 -4 -7 -10 3 -105
-108 -115 -135 -6 -17 -53 -44 -62 -36 -11 12 45 133 99 214 125 186 215 284
333 363 76 51 339 181 428 212 33 11 47 18 30 15 l-30 -5 25 15 c30 17 74 21
50 4 -11 -8 -9 -9 10 -3 14 3 32 10 40 15 11 6 9 9 -10 10 -20 0 -12 7 35 29
63 31 63 33 0 30 -177 -7 -435 -104 -625 -236 -123 -85 -300 -305 -387 -479
-17 -33 -42 -97 -57 -143 -24 -71 -31 -83 -54 -88 -141 -34 -657 -316 -777
-424 -42 -38 -184 -84 -367 -120 -136 -27 -396 -27 -558 -1 -192 32 -304 67
-490 154 -113 52 -188 83 -264 106 -80 25 -114 27 -72 6 15 -8 35 -15 42 -15
8 0 14 -7 14 -16 0 -9 -5 -13 -12 -9 -7 4 -4 0 6 -9 10 -8 24 -17 30 -20 7 -3
4 -9 -6 -16 -18 -11 -25 -40 -10 -40 4 0 7 -16 7 -35 0 -35 1 -36 94 -79 93
-43 161 -88 161 -107 0 -5 -24 5 -54 21 -54 31 -233 86 -244 76 -3 -3 0 -6 6
-6 6 0 35 -11 64 -24 29 -13 64 -27 78 -31 56 -17 192 -145 154 -145 -6 0 -71
48 -92 68 -7 6 -20 12 -27 12 -8 0 -32 9 -53 20 -21 11 -60 22 -87 25 l-50 6
50 -19 c199 -76 251 -141 312 -394 11 -48 12 -237 2 -323 -12 -98 -49 -218
-79 -250 -10 -11 -41 -50 -69 -88 -74 -98 -121 -147 -161 -164 -93 -41 -266
-68 -640 -102 -58 -5 -148 -15 -200 -22 -159 -21 -490 -16 -660 10 -243 37
-394 79 -535 148 -82 40 -98 50 -355 230 -14 10 -47 38 -75 63 -78 71 -94 79
-46 25 52 -61 89 -94 160 -148 30 -22 62 -46 70 -53 63 -51 112 -87 149 -110
53 -33 198 -87 235 -88 15 -1 27 -4 27 -7 0 -15 316 -74 520 -97 199 -22 692
-5 875 30 28 5 93 12 145 16 52 4 100 11 107 15 17 11 103 17 103 8 0 -18
-126 -111 -150 -112 -14 0 -34 -2 -45 -4 -11 -2 -38 -5 -60 -6 -22 -1 -69 -7
-105 -14 -36 -7 -112 -16 -170 -20 -58 -4 -154 -11 -215 -15 -418 -32 -601
-20 -988 65 -156 34 -402 132 -477 190 -177 136 -349 385 -429 620 -71 210
-98 439 -57 484 9 10 16 23 16 29 0 18 82 92 119 108 18 8 58 20 88 28 53 14
54 14 63 -9 5 -12 14 -58 20 -101 6 -44 14 -94 17 -113 3 -18 14 -63 24 -100
11 -36 29 -100 40 -141 11 -41 25 -79 30 -84 5 -6 9 -18 9 -28 0 -9 6 -32 14
-50 8 -18 28 -67 45 -108 16 -41 36 -88 44 -105 8 -16 25 -50 37 -75 35 -73
49 -95 61 -92 6 1 8 -2 4 -8 -14 -23 126 -181 173 -195 22 -6 23 -5 13 14 -7
12 -16 21 -21 21 -6 0 -10 7 -10 15 0 7 -6 18 -13 22 -7 4 -21 25 -32 46 -11
20 -25 37 -33 37 -7 0 -12 6 -11 13 3 20 -12 47 -23 41 -6 -4 -8 -1 -6 7 5 14
-83 201 -108 229 -7 8 -13 20 -13 25 -2 26 -34 105 -40 100 -5 -2 -6 7 -3 22
4 19 2 24 -8 18 -9 -5 -11 -4 -6 4 4 6 1 23 -8 36 -9 13 -16 31 -16 40 0 8 -4
23 -9 33 -17 33 -43 97 -46 112 -2 8 -11 44 -20 80 -9 36 -19 83 -22 105 -2
22 -11 44 -20 49 -11 6 -12 10 -3 16 8 5 7 11 -4 23 -9 9 -12 18 -8 21 5 3 7
28 4 56 -2 28 -1 50 4 49 16 -4 207 13 233 21 14 5 -44 6 -129 3 -85 -2 -166
-8 -180 -13 -14 -4 -56 -16 -94 -25 -59 -15 -77 -26 -122 -69 -56 -54 -90
-119 -98 -183 -4 -25 7 -101 28 -199 44 -212 100 -375 153 -447 13 -17 23 -37
23 -44 0 -14 76 -129 106 -160 11 -10 37 -41 58 -69 41 -50 141 -139 186 -162
75 -41 440 -172 517 -186 15 -3 53 -9 83 -15 85 -15 163 -32 180 -38 26 -10
-51 -22 -105 -16 -27 2 -68 6 -90 8 -22 3 -85 7 -140 10 -55 3 -113 10 -130
15 -16 5 -66 16 -110 25 -239 50 -379 145 -652 445 -59 65 -80 98 -158 245
-62 117 -90 192 -132 345 -14 52 -32 118 -39 145 -17 58 -17 66 -11 161 6 100
33 169 82 209 44 35 117 70 180 86 22 5 47 11 55 13 151 40 216 49 369 52 90
2 167 6 169 9 3 3 1 21 -5 40 -7 21 -7 37 -2 41 5 3 6 10 3 16 -4 6 -2 8 4 4
6 -3 13 -2 17 4 4 6 -23 10 -77 10 -61 0 -79 3 -68 11 11 7 -50 9 -207 6 -131
-2 -223 0 -223 6 0 19 32 117 40 122 4 3 14 -22 22 -55 10 -47 16 -58 27 -51
14 9 12 35 -13 156 -7 34 -26 167 -30 215 -3 25 -7 65 -10 90 -20 160 -37 378
-36 450 1 47 -1 146 -5 220 -10 192 14 324 112 625 37 114 55 273 34 298 -11
14 -8 200 4 236 7 19 5 22 -6 16 -8 -4 -4 2 9 14 12 12 22 26 22 31 0 5 27 65
60 133 61 126 70 157 48 157 -9 0 -8 3 2 10 19 12 24 195 5 213 -12 12 -30 80
-28 105 0 6 -2 12 -6 12 -4 0 -8 10 -9 23 -5 50 -8 73 -14 87 -8 20 -19 111
-23 190 -6 128 7 183 92 376 79 178 112 294 83 294 -6 0 -9 -4 -6 -9 3 -4 -1
-17 -9 -27 -13 -18 -14 -17 -10 11 2 17 4 33 4 37 1 3 9 4 19 1 22 -5 20 -15
27 162 9 244 10 249 115 470 58 121 117 200 202 266 34 27 88 70 119 94 31 25
61 45 67 45 6 0 19 11 30 25 11 14 25 25 31 25 6 0 11 7 11 15 0 8 5 15 11 15
15 0 79 62 79 77 0 7 9 18 20 25 11 7 20 19 20 26 0 7 5 10 10 7 5 -3 10 1 10
9 0 8 5 18 12 22 7 4 8 3 4 -4 -4 -7 -5 -12 -2 -12 3 0 13 15 22 33 9 17 28
41 40 52 13 11 24 27 24 34 0 8 3 11 7 8 8 -9 43 22 43 39 0 7 9 18 20 24 11
6 20 15 20 20 0 16 47 60 63 60 9 0 19 9 22 20 6 18 17 24 38 21 4 0 7 6 7 15
0 8 3 13 7 11 5 -2 19 10 33 27 13 17 17 25 7 17 -11 -9 -17 -10 -17 -2 0 6 6
12 13 12 6 1 17 2 22 3 20 2 95 61 95 74 0 7 5 10 11 7 5 -4 27 4 47 17 20 14
70 41 111 61 40 20 70 37 65 38 -5 0 15 7 43 14 29 8 81 29 115 47 136 70 343
149 463 177 22 5 72 20 110 34 79 28 154 43 265 52 41 3 82 8 90 10 8 2 40 7
70 10 30 4 109 15 175 25 66 10 163 21 215 24 52 4 124 9 160 12 36 3 97 6
135 7 39 1 75 6 82 10 6 4 13 2 15 -3 2 -8 50 -6 153 3 167 16 425 15 585 -2z
m3830 -281 c0 -5 -5 -10 -11 -10 -5 0 -7 5 -4 10 3 6 8 10 11 10 2 0 4 -4 4
-10z m-2100 -380 c0 -5 -5 -10 -11 -10 -5 0 -7 5 -4 10 3 6 8 10 11 10 2 0 4
-4 4 -10z m107 -92 c52 -53 52 -53 54 -123 1 -42 10 -89 22 -117 17 -41 18
-57 10 -114 -7 -44 -7 -78 0 -98 19 -60 37 -96 47 -96 6 0 8 -4 5 -10 -3 -5 1
-23 10 -39 15 -31 21 -127 8 -134 -5 -2 -46 -1 -92 2 -63 5 -101 2 -155 -12
-63 -16 -256 -31 -256 -20 0 3 6 28 14 56 8 29 17 81 20 116 3 35 13 75 21 88
9 13 13 28 10 33 -3 5 0 12 6 16 8 5 9 3 4 -7 -8 -12 -6 -12 9 0 9 8 15 20 12
27 -3 8 0 17 7 21 27 17 48 67 66 160 11 54 28 121 40 150 24 62 73 153 81
153 3 0 29 -24 57 -52z m-157 -108 c0 -5 -5 -10 -11 -10 -5 0 -7 5 -4 10 3 6
8 10 11 10 2 0 4 -4 4 -10z m-10 -40 c0 -5 -4 -10 -10 -10 -5 0 -10 5 -10 10
0 6 5 10 10 10 6 0 10 -4 10 -10z m430 -124 c0 -3 -4 -8 -10 -11 -5 -3 -10 -1
-10 4 0 6 5 11 10 11 6 0 10 -2 10 -4z m-710 -678 c0 -18 -2 -20 -9 -8 -6 8
-7 18 -5 22 9 14 14 9 14 -14z m800 -169 c0 -6 -4 -7 -10 -4 -5 3 -10 11 -10
16 0 6 5 7 10 4 6 -3 10 -11 10 -16z m-6336 -374 c-4 -8 -8 -15 -10 -15 -2 0
-4 7 -4 15 0 8 4 15 10 15 5 0 7 -7 4 -15z m-19 -152 c-5 -21 -9 -43 -10 -48
-2 -6 -12 -32 -24 -57 -11 -26 -21 -49 -21 -51 0 -13 -82 -179 -86 -174 -5 4
1 18 50 129 14 31 26 64 26 72 0 8 4 17 9 21 10 5 22 39 41 114 14 52 26 47
15 -6z m-448 -2178 c-4 -8 -11 -15 -17 -15 -14 0 -13 27 3 33 16 6 21 1 14
-18z m-162 -325 c3 -5 1 -10 -4 -10 -6 0 -11 5 -11 10 0 6 2 10 4 10 3 0 8 -4
11 -10z m8482 -18 c2 -15 210 -530 233 -577 12 -25 30 -75 27 -75 -1 0 -56 10
-122 22 -66 11 -144 24 -174 27 l-54 6 -38 105 c-21 58 -49 143 -63 190 l-25
85 79 75 c53 50 86 91 100 123 21 48 31 53 37 19z m-8427 -22 c0 -5 -2 -10 -4
-10 -3 0 -8 5 -11 10 -3 6 -1 10 4 10 6 0 11 -4 11 -10z m110 -364 c0 -3 -4
-8 -10 -11 -5 -3 -10 -1 -10 4 0 6 5 11 10 11 6 0 10 -2 10 -4z m2 -51 c3 -14
1 -25 -3 -25 -5 0 -9 11 -9 25 0 14 2 25 4 25 2 0 6 -11 8 -25z m18 -75 c7
-23 6 -30 -1 -23 -5 5 -12 23 -15 39 -7 37 4 26 16 -16z m6562 -75 c75 -13
164 -40 181 -55 5 -4 -22 -13 -60 -19 -187 -33 -343 -77 -359 -102 -10 -18 48
-2 62 17 6 7 16 14 23 14 12 0 -19 -34 -40 -44 -8 -3 0 -3 16 0 17 4 44 8 62
9 17 2 47 8 65 13 58 18 282 62 315 62 19 0 43 -10 61 -25 49 -41 61 -32 38
26 -6 14 4 19 57 28 107 19 108 18 142 -47 21 -38 38 -58 52 -60 13 -2 23 -13
26 -30 3 -15 12 -35 19 -45 13 -17 23 -17 173 -6 88 6 214 9 280 5 303 -15
357 -18 470 -32 66 -8 144 -22 174 -32 52 -16 141 -82 141 -105 0 -6 6 -18 14
-26 16 -18 56 -161 56 -200 0 -14 -7 -51 -16 -81 -8 -30 -24 -89 -36 -130 -24
-92 -88 -250 -141 -350 -114 -216 -330 -480 -472 -576 -38 -26 -122 -84 -185
-129 -67 -48 -150 -97 -200 -118 -47 -20 -107 -47 -135 -60 -27 -13 -68 -30
-90 -37 -22 -7 -46 -17 -52 -23 -7 -5 -13 -7 -13 -3 0 4 -13 0 -30 -9 -16 -8
-37 -15 -46 -15 -10 0 -46 -11 -80 -25 -63 -25 -274 -88 -329 -99 -230 -42
-395 -75 -404 -81 -5 -2 -77 -7 -162 -10 -85 -3 -188 -8 -229 -11 -77 -4 -194
7 -335 32 -124 22 -135 24 -222 39 -44 7 -101 24 -125 36 -71 36 -188 121
-233 169 -117 125 -147 161 -140 168 3 3 16 -5 28 -19 21 -23 40 -37 158 -116
159 -107 306 -161 550 -202 91 -16 147 -19 279 -16 175 5 492 34 485 45 -2 3
8 5 23 3 26 -4 100 6 334 46 145 25 165 30 356 93 171 56 403 155 514 219 103
59 243 159 308 219 l55 52 -70 -51 c-218 -157 -382 -251 -560 -321 -11 -4 -47
-19 -80 -33 -33 -14 -98 -36 -145 -48 -47 -12 -101 -27 -120 -35 -69 -26 -186
-52 -260 -59 -41 -3 -120 -15 -175 -25 -285 -54 -740 -80 -910 -53 -118 19
-123 21 -205 43 -41 12 -88 25 -105 29 -46 13 -204 98 -244 132 -20 17 -70 58
-111 91 -195 158 -310 356 -310 533 0 103 16 181 51 251 41 84 72 112 225 204
71 43 134 82 140 87 23 18 51 34 89 53 22 10 50 28 63 40 12 12 48 33 78 47
60 27 69 43 11 18 -37 -15 -127 -30 -127 -20 0 3 39 24 88 47 56 27 81 43 69
46 -10 2 -27 -4 -37 -13 -24 -21 -36 -2 -13 21 10 9 34 25 55 34 21 9 36 19
34 21 -3 2 20 20 50 39 31 19 52 40 50 47 -3 8 20 20 65 34 38 12 72 26 75 30
8 13 -16 11 -69 -5 -26 -8 -47 -11 -47 -6 0 4 30 17 68 28 64 21 60 22 -18 7
l-35 -7 40 42 c56 59 269 218 337 252 74 36 169 72 293 110 162 49 247 57 377
33z m-6542 -127 c11 -40 25 -84 31 -98 6 -13 13 -45 15 -70 3 -25 14 -94 24
-153 l19 -109 -36 -96 c-20 -53 -39 -100 -42 -104 -3 -4 -46 -9 -96 -11 -49
-3 -114 -9 -142 -12 -42 -6 -53 -5 -53 6 0 22 34 124 83 254 25 66 58 158 73
205 69 209 87 260 95 260 4 0 18 -33 29 -72z m6640 22 c0 -5 -9 -10 -21 -10
-11 0 -17 5 -14 10 3 6 13 10 21 10 8 0 14 -4 14 -10z m37 4 c-3 -3 -12 -4
-19 -1 -8 3 -5 6 6 6 11 1 17 -2 13 -5z m723 -73 c-22 -13 -207 -24 -195 -12
10 10 62 17 155 19 34 1 49 -2 40 -7z m1025 -71 c3 -5 -1 -10 -9 -10 -9 0 -16
5 -16 10 0 6 4 10 9 10 6 0 13 -4 16 -10z m-3060 -239 c-3 -6 -11 -11 -17 -11
-6 0 -6 6 2 15 14 17 26 13 15 -4z m-1832 -587 c20 -3 37 -11 37 -16 0 -6 -6
-8 -14 -5 -8 3 -31 9 -50 13 -20 3 -39 11 -42 16 -4 6 1 8 12 5 11 -3 36 -9
57 -13z m294 -20 c-3 -3 -12 -4 -19 -1 -8 3 -5 6 6 6 11 1 17 -2 13 -5z m-122
-14 c3 -5 1 -10 -4 -10 -6 0 -11 5 -11 10 0 6 2 10 4 10 3 0 8 -4 11 -10z
m615 -116 c0 -8 -5 -12 -10 -9 -6 4 -8 11 -5 16 9 14 15 11 15 -7z m-170 -180
c52 -9 98 -18 103 -21 5 -3 35 -5 67 -4 l59 1 37 -118 c64 -201 115 -313 189
-414 38 -51 87 -118 109 -148 22 -30 80 -94 128 -142 49 -49 85 -88 80 -88
-10 0 -147 116 -178 151 -12 13 -33 42 -48 64 -14 22 -26 35 -26 29 0 -37 133
-178 226 -239 62 -42 198 -105 226 -105 9 0 46 -13 83 -30 77 -35 148 -54 260
-70 44 -7 89 -14 100 -16 99 -21 511 -33 620 -19 215 28 282 38 355 51 47 9
96 20 110 24 14 5 43 12 65 14 22 3 65 12 95 21 133 38 196 57 215 65 37 15
60 22 90 27 17 3 37 9 45 13 8 4 51 20 95 35 82 27 101 34 145 53 97 43 144
62 152 62 13 0 1 -82 -33 -213 -17 -65 -32 -124 -33 -130 -1 -7 -4 -16 -8 -22
-3 -5 -13 -35 -21 -65 -20 -74 -149 -449 -182 -530 -14 -36 -48 -130 -75 -210
-27 -80 -69 -194 -94 -254 -25 -60 -43 -112 -41 -116 6 -9 -34 -124 -69 -203
-14 -32 -26 -64 -26 -71 0 -8 -4 -16 -8 -18 -12 -5 -98 -187 -107 -225 -3 -18
-12 -36 -19 -40 -6 -5 -27 -39 -46 -78 -19 -38 -38 -72 -41 -75 -3 -3 -14 -21
-24 -40 -33 -65 -128 -204 -204 -299 -42 -52 -89 -112 -105 -135 -16 -22 -36
-46 -45 -53 -9 -7 -13 -13 -10 -13 4 0 -11 -19 -32 -42 -21 -24 -73 -86 -116
-138 -73 -90 -105 -127 -180 -207 -18 -19 -33 -39 -33 -44 0 -6 -4 -8 -9 -5
-9 6 -26 -22 -22 -37 1 -5 -3 -6 -8 -3 -9 6 -68 -64 -63 -76 1 -5 -3 -8 -9 -8
-15 0 -39 -26 -32 -34 4 -3 -1 -6 -10 -6 -8 0 -19 -9 -22 -20 -3 -11 -13 -20
-21 -20 -8 0 -14 -7 -14 -15 0 -8 -7 -15 -16 -15 -11 0 -15 -6 -11 -19 3 -12
-4 -23 -24 -35 -18 -11 -26 -22 -22 -32 4 -10 -1 -17 -14 -20 -25 -7 -66 -60
-58 -74 3 -6 1 -10 -4 -10 -6 0 -11 5 -11 11 0 8 -5 8 -15 -1 -8 -7 -15 -19
-15 -26 0 -8 -5 -14 -12 -14 -7 0 -37 -26 -68 -58 -30 -32 -84 -82 -120 -112
-35 -30 -73 -63 -85 -73 -11 -10 -67 -45 -125 -78 -58 -33 -112 -64 -120 -69
-65 -40 -172 -80 -230 -86 -25 -2 -54 -8 -65 -13 -64 -28 -336 -42 -475 -25
-41 5 -103 9 -137 9 -35 -1 -63 2 -63 5 0 4 -32 7 -72 8 -39 1 -76 6 -82 11
-6 5 -31 12 -56 15 -66 8 -212 53 -325 101 -275 115 -675 393 -787 545 -52 72
-187 211 -259 268 -41 32 -106 88 -145 123 -39 35 -98 86 -130 113 -78 66
-270 289 -482 561 -22 28 -55 75 -74 105 -19 31 -42 62 -50 71 -8 8 -19 25
-22 37 -4 12 -18 34 -30 50 -30 35 -111 153 -134 195 -10 18 -49 79 -86 137
-164 253 -155 238 -212 345 -15 28 -34 61 -44 75 -9 14 -32 52 -50 85 -18 33
-36 62 -40 65 -4 3 -20 29 -36 59 -16 30 -34 61 -39 70 -6 9 -37 63 -69 121
-53 93 -142 248 -166 290 -49 82 -131 232 -128 235 1 1 29 -6 61 -16 32 -10
84 -23 115 -29 31 -6 104 -19 162 -31 167 -32 364 -49 808 -69 328 -15 458 -6
654 45 192 50 251 73 392 154 96 55 318 254 309 277 -3 8 0 14 7 14 6 0 8 -4
5 -10 -3 -5 -2 -10 2 -10 5 0 26 23 47 50 21 28 46 56 55 63 9 7 24 23 33 37
9 14 31 40 48 59 16 19 44 59 62 90 17 31 50 88 73 126 48 80 85 160 85 184 0
27 86 178 132 233 55 65 94 89 198 121 124 38 147 39 320 11z m-520 -114 c0
-5 -5 -10 -11 -10 -5 0 -7 5 -4 10 3 6 8 10 11 10 2 0 4 -4 4 -10z m-3845
-100 c3 -5 1 -10 -4 -10 -6 0 -11 5 -11 10 0 6 2 10 4 10 3 0 8 -4 11 -10z
m995 -610 c0 -5 -2 -10 -4 -10 -3 0 -8 5 -11 10 -3 6 -1 10 4 10 6 0 11 -4 11
-10z m2303 -92 c-27 -45 -219 -240 -254 -258 -13 -7 37 50 111 128 121 125
166 167 143 130z m1902 -46 c-3 -3 -11 0 -18 7 -9 10 -8 11 6 5 10 -3 15 -9
12 -12z m2620 -27 c-2 -19 0 -35 6 -35 6 0 5 -8 -2 -21 -9 -17 -8 -23 2 -30 8
-5 10 -9 4 -9 -11 0 -14 -52 -14 -346 l-1 -210 -33 -16 c-19 -9 -40 -13 -48
-8 -8 4 -36 11 -62 14 -27 4 -50 13 -53 20 -3 7 14 73 36 147 23 74 50 166 61
204 12 39 37 122 56 185 19 63 37 121 39 128 7 25 14 11 9 -23z m-2285 -95 c0
-5 -4 -10 -10 -10 -5 0 -10 5 -10 10 0 6 5 10 10 10 6 0 10 -4 10 -10z m2478
-597 c62 -32 115 -80 108 -98 -2 -7 0 -17 5 -22 16 -16 13 -107 -6 -146 -21
-45 -87 -114 -121 -127 -34 -13 -184 -13 -222 1 -29 10 -86 69 -110 116 -28
53 3 154 69 224 36 39 94 73 108 65 5 -3 14 0 20 8 17 20 85 11 149 -21z
m-6972 -130 c6 -10 35 -63 64 -118 29 -54 66 -121 82 -148 24 -40 26 -48 11
-42 -10 3 -47 14 -83 22 -36 9 -68 19 -73 23 -4 3 -10 56 -13 116 -2 60 -7
121 -9 137 -5 31 5 35 21 10z m7219 -213 c3 -5 1 -10 -4 -10 -6 0 -11 5 -11
10 0 6 2 10 4 10 3 0 8 -4 11 -10z m-7057 -139 c58 -45 74 -67 82 -111 22
-123 -77 -222 -225 -224 -57 -1 -78 4 -111 23 -23 13 -47 33 -53 45 -6 11 -20
32 -31 46 -67 83 -5 222 115 258 93 28 155 17 223 -37z m7042 -132 c37 -21 90
-90 90 -119 0 -8 -10 -35 -23 -60 -16 -33 -35 -52 -72 -72 -28 -15 -57 -28
-65 -28 -8 0 -24 17 -35 37 -19 36 -81 80 -115 82 -38 3 -43 17 -17 57 44 68
71 92 117 108 60 20 76 20 120 -5z m-450 -135 c46 -42 51 -70 19 -114 -19 -25
-21 -37 -15 -89 6 -50 4 -61 -8 -61 -8 0 -28 -11 -44 -25 -17 -14 -35 -25 -40
-25 -24 0 -122 78 -141 111 -29 50 -28 116 2 160 30 45 92 79 144 79 35 0 50
-6 83 -36z m255 -48 c158 -73 105 -275 -72 -276 -100 0 -152 38 -168 123 -12
63 9 95 105 159 35 23 77 22 135 -6z m-185 -6 c0 -5 -4 -10 -10 -10 -5 0 -10
5 -10 10 0 6 5 10 10 10 6 0 10 -4 10 -10z m310 -110 c0 -5 -2 -10 -4 -10 -3
0 -8 5 -11 10 -3 6 -1 10 4 10 6 0 11 -4 11 -10z m-6739 -65 c39 -30 58 -54
62 -74 8 -37 -16 -117 -51 -176 -23 -38 -33 -46 -67 -52 l-40 -7 49 -7 c88
-14 133 -85 124 -195 -3 -28 -13 -62 -24 -77 -23 -31 -84 -67 -113 -67 -65 0
-161 79 -161 131 0 17 -9 44 -21 61 -12 16 -20 30 -18 32 2 1 23 10 46 20 23
10 57 35 75 55 31 34 33 42 30 97 -1 32 -7 74 -13 92 -12 37 -72 102 -94 102
-41 0 -19 58 33 88 23 13 55 22 82 22 38 0 53 -7 101 -45z m74 35 c3 -5 1 -10
-4 -10 -6 0 -11 5 -11 10 0 6 2 10 4 10 3 0 8 -4 11 -10z m6670 -30 c3 -5 16
-10 28 -10 12 0 35 -10 51 -23 41 -33 48 -109 15 -159 -37 -57 -84 -83 -149
-83 -44 0 -62 5 -87 25 -18 14 -32 32 -32 41 -1 9 -8 32 -17 50 -10 24 -13 27
-9 9 3 -14 8 -37 11 -51 12 -56 -54 -110 -151 -123 -69 -10 -96 3 -124 59 -42
84 -14 166 70 211 24 12 28 11 45 -7 29 -32 67 -48 126 -54 72 -7 153 32 181
88 19 38 31 45 42 27z m-7307 -36 c42 -17 92 -61 92 -81 0 -7 -4 -13 -8 -13
-18 0 -42 -61 -42 -107 1 -107 72 -183 185 -198 42 -5 59 -12 75 -32 43 -56
38 -123 -16 -182 -37 -42 -90 -61 -166 -61 -80 0 -160 93 -160 187 0 50 33
102 86 134 17 10 27 19 23 19 -15 0 -52 -22 -79 -48 -16 -14 -28 -21 -28 -15
0 6 -16 17 -35 23 -44 14 -102 82 -116 134 -16 60 -7 146 19 183 21 29 92 73
120 73 7 0 29 -7 50 -16z m358 -53 c45 -27 73 -79 80 -148 8 -75 -10 -113 -74
-154 -74 -47 -191 -36 -252 24 -41 40 -50 65 -50 133 0 50 4 58 40 98 46 50
81 64 165 65 43 1 69 -5 91 -18z m8221 -773 c-3 -8 -6 -5 -6 6 -1 11 2 17 5
13 3 -3 4 -12 1 -19z m-2067 -228 c0 -11 -2 -20 -4 -20 -2 0 -6 9 -9 20 -3 11
-1 20 4 20 5 0 9 -9 9 -20z m-4963 -542 c-3 -8 -6 -5 -6 6 -1 11 2 17 5 13 3
-3 4 -12 1 -19z m4853 -1152 c0 -3 -4 -8 -10 -11 -5 -3 -10 -1 -10 4 0 6 5 11
10 11 6 0 10 -2 10 -4z"/>
<path d="M6469 12013 c-69 -18 -128 -25 -219 -27 -182 -4 -269 -15 -279 -35
-5 -9 -9 -47 -9 -85 -1 -75 -15 -127 -44 -168 -36 -52 -50 -134 -42 -243 11
-154 9 -165 -48 -308 -42 -105 -47 -140 -39 -284 3 -46 -4 -68 -53 -172 -59
-124 -76 -201 -62 -274 5 -28 10 -35 23 -30 10 4 14 2 10 -4 -8 -12 104 -17
182 -7 l53 7 -5 34 c-3 19 -2 44 2 56 5 12 5 44 1 71 -10 67 3 107 51 158 71
75 84 114 86 263 1 72 2 144 2 161 1 43 75 154 104 155 70 4 87 -8 117 -83 11
-26 32 -49 65 -71 44 -29 50 -37 61 -87 7 -30 11 -57 8 -59 -2 -2 21 -29 51
-59 36 -36 56 -65 56 -81 1 -14 3 -62 3 -106 2 -85 17 -145 47 -184 10 -13 16
-28 12 -34 -5 -8 109 -5 185 5 22 3 14 71 -13 110 -36 53 -47 86 -47 143 0 66
-22 118 -62 149 -27 20 -35 36 -45 85 -11 57 -16 64 -80 121 -67 60 -91 101
-88 149 2 29 3 29 175 40 127 8 134 9 162 36 55 53 96 206 69 258 -6 11 -13
54 -14 96 -4 119 -12 144 -63 201 -104 118 -170 139 -313 103z m141 -7 c0 -2
-7 -6 -15 -10 -8 -3 -15 -1 -15 4 0 6 7 10 15 10 8 0 15 -2 15 -4z m5 -76 c57
-26 62 -46 28 -112 -29 -57 -36 -125 -21 -207 17 -90 -28 -187 -104 -225 -26
-13 -45 -25 -43 -27 2 -2 -20 -5 -48 -7 -29 -1 -66 -7 -84 -13 -18 -6 -65 -11
-104 -12 l-72 -2 -5 95 c-11 208 -9 221 22 269 26 40 47 101 63 184 7 38 29
47 115 47 40 -1 98 6 128 14 73 19 74 19 125 -4z m115 -580 c0 -5 -4 -10 -10
-10 -5 0 -10 5 -10 10 0 6 5 10 10 10 6 0 10 -4 10 -10z m37 -6 c-3 -3 -12 -4
-19 -1 -8 3 -5 6 6 6 11 1 17 -2 13 -5z m-1075 -889 c-6 -34 -12 -32 -12 6 0
16 4 28 9 25 4 -3 6 -17 3 -31z m236 -47 c-3 -7 -17 -14 -31 -15 -33 -2 -35 5
-4 17 31 12 39 12 35 -2z"/>
<path d="M5560 11875 c-8 -2 -66 -11 -127 -21 l-113 -18 -6 -35 c-4 -20 -12
-47 -20 -61 -7 -14 -20 -54 -29 -89 -15 -57 -15 -68 -1 -115 29 -100 28 -126
-6 -197 -28 -56 -32 -74 -32 -149 -1 -47 1 -111 4 -144 5 -47 1 -69 -18 -115
-42 -99 -53 -161 -41 -232 22 -134 7 -193 -64 -244 -59 -43 -74 -47 -151 -46
-79 1 -126 24 -146 70 -14 35 -5 108 22 171 22 50 32 148 18 165 -5 6 -11 28
-14 48 -2 20 -8 42 -12 48 -4 7 -3 9 3 6 12 -7 34 36 39 77 3 22 1 27 -12 22
-8 -3 -12 -2 -9 4 3 6 12 10 19 10 18 0 25 49 15 108 -11 71 -2 133 32 217 30
76 34 156 11 215 -13 35 -9 88 12 132 19 40 15 58 -13 58 -13 0 -25 -16 -40
-57 -22 -63 -38 -189 -22 -179 5 4 13 1 17 -5 4 -8 3 -9 -4 -5 -9 5 -11 -10
-10 -56 2 -49 -3 -74 -22 -113 -25 -52 -26 -69 -20 -230 3 -68 0 -87 -19 -124
-25 -48 -30 -107 -17 -201 6 -43 2 -76 -17 -154 -36 -150 -19 -202 83 -254 93
-48 237 -51 335 -7 101 44 133 62 163 89 93 84 119 170 86 286 -27 96 -24 132
14 179 59 73 67 133 39 285 l-17 88 35 73 c43 92 56 146 44 188 -5 18 -10 57
-11 88 -2 48 2 63 27 98 19 29 29 55 29 83 1 41 -5 48 -34 43z m-660 -295 c0
-5 -2 -10 -4 -10 -3 0 -8 5 -11 10 -3 6 -1 10 4 10 6 0 11 -4 11 -10z m17 -72
c-3 -7 -5 -2 -5 12 0 14 2 19 5 13 2 -7 2 -19 0 -25z m543 -282 c0 -3 -4 -8
-10 -11 -5 -3 -10 -1 -10 4 0 6 5 11 10 11 6 0 10 -2 10 -4z m-20 -576 c0 -11
-4 -20 -10 -20 -5 0 -10 9 -10 20 0 11 5 20 10 20 6 0 10 -9 10 -20z"/>
<path d="M3950 11748 c-19 -4 -55 -10 -80 -13 -91 -11 -120 -21 -120 -41 0 -8
-6 -14 -12 -14 -9 0 -13 -20 -13 -68 0 -53 -6 -80 -29 -127 -19 -40 -30 -81
-33 -125 -3 -45 -12 -78 -29 -107 -14 -24 -21 -49 -18 -60 5 -14 4 -15 -4 -4
-8 11 -14 7 -27 -20 -14 -26 -17 -56 -16 -144 1 -100 -1 -113 -23 -150 -14
-22 -32 -52 -41 -68 -8 -15 -20 -69 -24 -121 -8 -78 -15 -104 -44 -159 -30
-54 -36 -76 -38 -133 -1 -38 -7 -78 -14 -90 -16 -25 -8 -39 23 -39 18 0 31 12
50 45 21 37 26 59 27 122 2 69 5 80 32 115 17 21 38 55 46 76 10 22 23 37 34
38 10 0 29 2 43 4 14 2 100 6 191 9 115 4 176 10 202 21 20 8 56 15 80 15 40
0 48 -4 73 -37 16 -21 41 -48 55 -60 36 -30 59 -82 65 -144 5 -49 25 -91 57
-118 19 -15 67 -17 185 -7 89 8 92 9 86 30 -4 11 -19 35 -34 53 -16 18 -33 53
-39 83 -14 67 -41 117 -85 159 -41 40 -65 105 -64 176 0 63 -21 116 -60 143
-38 28 -64 83 -56 119 3 15 8 58 11 95 5 62 3 69 -25 111 -17 24 -42 51 -56
60 -30 20 -50 78 -43 123 10 61 -8 99 -67 138 -53 35 -66 52 -66 85 0 23 -55
39 -100 29z m-130 -222 c0 -8 38 -54 84 -102 99 -102 112 -136 101 -256 -4
-41 -2 -84 3 -98 12 -32 82 -116 93 -112 5 1 8 -1 7 -5 -1 -5 4 -21 11 -38 7
-16 15 -50 18 -75 l5 -45 -68 -20 c-56 -16 -100 -20 -234 -21 -91 0 -186 -4
-212 -8 -46 -6 -48 -6 -48 17 0 30 28 87 46 94 8 3 14 11 14 18 0 7 6 18 13
24 21 16 44 115 54 222 7 69 15 104 29 125 47 68 68 136 66 217 -1 44 3 77 8
77 6 0 10 -6 10 -14z m100 -77 c0 -14 -17 -10 -23 5 -4 10 -1 13 9 9 7 -3 14
-9 14 -14z m-225 -59 c3 -5 1 -10 -4 -10 -6 0 -11 5 -11 10 0 6 2 10 4 10 3 0
8 -4 11 -10z m370 -200 c3 -5 1 -10 -4 -10 -6 0 -11 5 -11 10 0 6 2 10 4 10 3
0 8 -4 11 -10z m225 -20 c0 -5 -2 -10 -4 -10 -3 0 -8 5 -11 10 -3 6 -1 10 4
10 6 0 11 -4 11 -10z m-686 -38 c-4 -18 -10 -32 -15 -32 -11 0 -11 1 2 39 14
40 21 35 13 -7z m681 8 c3 -5 2 -10 -4 -10 -5 0 -13 5 -16 10 -3 6 -2 10 4 10
5 0 13 -4 16 -10z m-595 -70 c0 -5 -5 -10 -11 -10 -5 0 -7 5 -4 10 3 6 8 10
11 10 2 0 4 -4 4 -10z m-27 -117 c-7 -2 -19 -2 -25 0 -7 3 -2 5 12 5 14 0 19
-2 13 -5z m481 -9 c5 -14 4 -15 -9 -4 -17 14 -19 20 -6 20 5 0 12 -7 15 -16z
m196 -498 c0 -3 -4 -8 -10 -11 -5 -3 -10 -1 -10 4 0 6 5 11 10 11 6 0 10 -2
10 -4z m-885 -111 c-9 -20 -18 -35 -21 -32 -3 3 2 22 11 42 8 21 18 36 20 33
3 -3 -2 -22 -10 -43z m945 25 c0 -5 -4 -10 -10 -10 -5 0 -10 5 -10 10 0 6 5
10 10 10 6 0 10 -4 10 -10z m55 0 c3 -5 1 -10 -4 -10 -6 0 -11 5 -11 10 0 6 2
10 4 10 3 0 8 -4 11 -10z"/>
<path d="M2968 11720 c-54 -4 -119 -11 -145 -16 -27 -4 -52 -8 -57 -8 -17 -2
-38 -81 -39 -142 -1 -42 5 -70 16 -88 26 -39 21 -68 -30 -163 -80 -151 -84
-159 -87 -199 -2 -21 3 -59 10 -84 21 -71 18 -86 -47 -193 -74 -126 -94 -181
-85 -245 20 -136 19 -144 -15 -227 -38 -95 -44 -185 -14 -213 17 -16 17 -16
11 3 -5 18 -4 17 12 -3 16 -21 26 -23 117 -23 56 -1 113 4 130 11 42 16 178
41 255 47 36 2 89 11 118 19 30 8 61 14 70 13 38 -3 52 2 52 20 0 25 -27 31
-87 19 -26 -5 -70 -8 -98 -7 -27 2 -72 0 -100 -4 -106 -15 -135 -17 -135 -7 0
5 10 33 21 62 34 83 38 123 23 197 -17 80 -10 109 51 201 70 107 74 119 68
191 -10 115 -8 143 13 184 12 22 37 70 57 107 49 93 56 155 26 246 l-23 71 28
73 c15 40 31 81 37 90 5 10 9 26 9 35 -1 17 -1 17 -11 1 -13 -24 -25 -23 -25
2 0 11 6 20 13 20 7 0 13 5 13 10 0 11 -6 11 -152 0z m-163 -100 c3 -5 1 -10
-4 -10 -6 0 -11 5 -11 10 0 6 2 10 4 10 3 0 8 -4 11 -10z m-35 -60 c0 -5 -4
-10 -10 -10 -5 0 -10 5 -10 10 0 6 5 10 10 10 6 0 10 -4 10 -10z m235 -250 c3
-5 1 -10 -4 -10 -6 0 -11 5 -11 10 0 6 2 10 4 10 3 0 8 -4 11 -10z m-385 -500
c0 -5 -5 -10 -11 -10 -5 0 -7 5 -4 10 3 6 8 10 11 10 2 0 4 -4 4 -10z m190
-330 c0 -5 -5 -10 -11 -10 -5 0 -7 5 -4 10 3 6 8 10 11 10 2 0 4 -4 4 -10z
m-255 -340 c3 -5 -1 -10 -9 -10 -9 0 -16 5 -16 10 0 6 4 10 9 10 6 0 13 -4 16
-10z"/>
<path d="M3345 10270 c-3 -5 1 -10 9 -10 9 0 16 5 16 10 0 6 -4 10 -9 10 -6 0
-13 -4 -16 -10z"/>
<path d="M7807 10214 c-1 -1 -54 -5 -117 -8 -151 -9 -280 -18 -305 -21 -11 -1
-30 -3 -42 -4 -12 0 -29 -8 -37 -17 -9 -8 -16 -13 -16 -9 0 12 -57 -25 -86
-57 -47 -52 -62 -79 -69 -126 -8 -56 -25 -101 -69 -189 -42 -81 -49 -144 -22
-206 20 -50 67 -69 171 -73 44 -1 89 -3 101 -3 11 -1 37 -16 58 -33 30 -27 37
-40 38 -74 2 -70 -43 -149 -125 -219 -63 -54 -73 -67 -88 -119 -24 -80 -66
-121 -149 -147 -36 -11 -85 -22 -110 -24 -25 -2 -57 -6 -70 -9 -14 -4 -38 -8
-55 -9 -38 -4 -105 -29 -105 -38 0 -15 23 -21 78 -19 31 1 104 3 162 4 58 2
156 11 217 21 139 21 189 49 230 125 16 28 49 74 76 102 26 28 47 54 47 59 0
5 12 23 28 41 56 68 67 98 67 183 0 72 -3 85 -31 130 -17 28 -43 57 -59 65
-16 8 -36 23 -46 32 -22 21 -75 36 -154 43 -117 11 -142 59 -72 134 40 43 46
55 52 107 9 90 13 101 46 138 48 56 98 73 249 86 74 7 173 18 220 24 77 10 85
13 88 35 8 52 -5 69 -54 73 -25 2 -46 3 -47 2z m-297 -64 c0 -5 -2 -10 -4 -10
-3 0 -8 5 -11 10 -3 6 -1 10 4 10 6 0 11 -4 11 -10z m-320 -214 c0 -3 -4 -8
-10 -11 -5 -3 -10 -1 -10 4 0 6 5 11 10 11 6 0 10 -2 10 -4z m233 -363 c-7 -2
-21 -2 -30 0 -10 3 -4 5 12 5 17 0 24 -2 18 -5z m-206 -59 c-3 -3 -12 -4 -19
-1 -8 3 -5 6 6 6 11 1 17 -2 13 -5z m68 -484 c3 -5 1 -10 -4 -10 -6 0 -11 5
-11 10 0 6 2 10 4 10 3 0 8 -4 11 -10z"/>
<path d="M6847 10204 c-2 -2 -34 -6 -73 -10 -38 -3 -98 -9 -134 -13 -36 -4
-83 -3 -105 1 -56 10 -202 7 -254 -7 -41 -10 -44 -13 -61 -65 -9 -30 -38 -94
-64 -142 -29 -54 -43 -88 -35 -88 7 0 5 -6 -7 -14 -17 -13 -19 -27 -20 -118 0
-136 1 -130 -39 -183 -20 -25 -33 -51 -29 -57 4 -6 3 -8 -4 -4 -13 8 -72 -111
-72 -146 0 -59 13 -118 24 -109 19 16 36 -12 20 -34 -14 -18 -14 -18 -14 0 0
26 -6 16 -13 -23 -4 -18 -3 -31 1 -28 5 3 9 -1 9 -9 0 -8 -4 -12 -9 -9 -4 3
-8 -2 -8 -11 0 -9 -27 -71 -60 -138 -33 -68 -60 -136 -60 -151 0 -15 -4 -36
-10 -46 -6 -12 -6 -29 1 -50 l12 -32 66 7 c134 13 391 21 448 15 32 -4 69 -6
83 -4 14 1 32 3 40 3 13 1 13 2 0 12 -12 8 -11 9 6 4 37 -10 68 38 46 72 -10
15 -30 18 -77 9 -23 -4 -86 -8 -140 -10 -55 -2 -123 -9 -151 -16 -59 -15 -84
-9 -84 19 0 24 49 133 84 190 15 23 24 47 20 53 -4 6 -3 8 3 5 24 -15 38 58
38 203 0 188 4 194 112 204 43 4 112 14 155 22 45 8 121 14 178 12 55 -1 104
2 110 8 20 20 -1 52 -39 59 -21 3 -42 5 -47 4 -5 -1 -16 1 -26 5 -9 4 -63 -4
-121 -18 -105 -26 -217 -34 -217 -17 0 6 9 25 19 43 30 52 43 116 42 206 -2
91 13 149 58 223 16 25 32 55 35 67 7 20 15 22 84 24 42 0 91 2 107 4 17 1 92
3 168 3 207 1 242 12 180 61 -22 17 -39 21 -100 19 -40 -1 -74 -3 -76 -5z
m-480 -216 c-3 -8 -6 -5 -6 6 -1 11 2 17 5 13 3 -3 4 -12 1 -19z m-32 -108 c3
-5 1 -10 -4 -10 -6 0 -11 5 -11 10 0 6 2 10 4 10 3 0 8 -4 11 -10z m-5 -80 c0
-5 -2 -10 -4 -10 -3 0 -8 5 -11 10 -3 6 -1 10 4 10 6 0 11 -4 11 -10z m-165
-260 c3 -5 1 -10 -4 -10 -6 0 -11 5 -11 10 0 6 2 10 4 10 3 0 8 -4 11 -10z
m-5 -60 c0 -5 -4 -10 -10 -10 -5 0 -10 5 -10 10 0 6 5 10 10 10 6 0 10 -4 10
-10z m-173 -129 c2 -12 -1 -30 -6 -38 -6 -12 -10 -5 -13 25 -4 43 12 54 19 13z
m305 -573 c-7 -7 -12 -8 -12 -2 0 14 12 26 19 19 2 -3 -1 -11 -7 -17z"/>
<path d="M5487 10084 c-3 -3 -34 -6 -68 -5 -34 0 -68 -4 -75 -10 -7 -6 -18 -8
-23 -5 -21 13 -41 -38 -41 -104 0 -85 -11 -119 -61 -196 -49 -76 -63 -126 -47
-172 13 -36 -1 -113 -26 -142 -8 -8 -30 -47 -51 -86 -34 -66 -36 -77 -35 -150
1 -43 2 -95 2 -114 1 -24 -11 -55 -39 -100 -22 -36 -45 -82 -52 -102 -13 -41
-30 -177 -22 -176 18 2 24 -3 13 -10 -7 -5 -10 -16 -6 -26 6 -16 19 -17 133
-13 69 3 137 8 151 11 138 30 312 39 370 21 25 -8 111 15 117 31 2 7 -1 22 -7
34 -11 21 -16 22 -73 14 -34 -4 -107 -8 -162 -9 -55 -1 -125 -6 -155 -12 -30
-7 -73 -11 -95 -10 -37 2 -40 4 -40 32 0 47 20 110 47 146 48 64 61 119 54
216 -7 96 -7 97 62 199 30 44 32 54 31 122 -1 52 3 78 14 90 23 26 84 143 91
177 4 16 8 61 9 100 2 59 8 82 39 143 32 65 35 74 21 88 -9 8 -22 13 -31 9 -8
-3 -20 -1 -27 5 -6 5 -15 7 -18 4z m-129 -42 c-19 -2 -25 -8 -21 -18 3 -8 -1
-14 -11 -14 -20 0 -20 9 0 31 10 11 23 15 37 10 20 -5 20 -6 -5 -9z m-48 -72
c0 -5 -2 -10 -4 -10 -3 0 -8 5 -11 10 -3 6 -1 10 4 10 6 0 11 -4 11 -10z m0
-181 c0 -6 -4 -7 -10 -4 -5 3 -10 11 -10 16 0 6 5 7 10 4 6 -3 10 -11 10 -16z
m-110 -123 c0 -3 -4 -8 -10 -11 -5 -3 -10 -1 -10 4 0 6 5 11 10 11 6 0 10 -2
10 -4z m30 -6 c0 -5 -4 -10 -10 -10 -5 0 -10 5 -10 10 0 6 5 10 10 10 6 0 10
-4 10 -10z m23 -5 c-3 -9 -8 -14 -10 -11 -3 3 -2 9 2 15 9 16 15 13 8 -4z
m137 -5 c0 -5 -5 -10 -11 -10 -5 0 -7 5 -4 10 3 6 8 10 11 10 2 0 4 -4 4 -10z
m-280 -350 c0 -5 -4 -10 -10 -10 -5 0 -10 5 -10 10 0 6 5 10 10 10 6 0 10 -4
10 -10z m-25 -50 c3 -5 1 -10 -4 -10 -6 0 -11 5 -11 10 0 6 2 10 4 10 3 0 8
-4 11 -10z"/>
<path d="M3454 10029 c-72 -9 -118 -26 -140 -52 -51 -58 -73 -95 -79 -132 -5
-25 -23 -58 -47 -88 -52 -63 -77 -127 -68 -177 9 -49 -10 -120 -45 -166 -27
-35 -28 -39 -22 -128 5 -75 3 -103 -13 -155 -24 -76 -25 -107 -4 -156 14 -35
14 -42 -7 -109 -30 -99 -22 -176 25 -250 30 -47 46 -60 112 -93 l78 -38 145
-2 c163 -2 192 5 234 61 34 45 38 62 38 153 -1 81 0 82 43 141 65 88 66 90 63
203 l-2 104 48 68 c44 64 47 73 47 130 0 35 -9 88 -21 122 -19 57 -18 105 1
130 8 10 24 83 34 155 3 19 0 51 -6 70 -13 40 -119 165 -157 184 -49 25 -167
37 -257 25z m116 -62 c0 -5 5 -5 10 -2 6 3 10 2 10 -2 0 -5 12 -13 28 -19 18
-7 37 -29 56 -65 39 -75 37 -142 -8 -251 -19 -46 -30 -85 -25 -88 5 -3 0 -14
-11 -23 -28 -24 -30 -111 -4 -174 19 -44 12 -78 -34 -163 -30 -54 -36 -75 -36
-125 0 -33 4 -79 8 -101 7 -36 3 -52 -29 -123 -43 -97 -51 -137 -36 -184 14
-42 -3 -86 -43 -112 -34 -22 -133 -28 -170 -9 -16 8 -35 14 -42 14 -17 0 -64
73 -64 99 0 10 11 43 24 73 33 75 39 115 26 168 -16 64 -14 79 20 151 31 67
38 116 19 151 -22 40 -12 105 26 183 41 82 42 113 8 203 l-16 43 48 92 c34 66
49 107 52 147 6 65 24 97 64 114 33 14 119 16 119 3z m284 -162 c3 -8 1 -15
-4 -15 -6 0 -10 7 -10 15 0 8 2 15 4 15 2 0 6 -7 10 -15z m-700 -200 c-4 -8
-8 -15 -10 -15 -2 0 -4 7 -4 15 0 8 4 15 10 15 5 0 7 -7 4 -15z m6 -35 c0 -5
-4 -10 -10 -10 -5 0 -10 5 -10 10 0 6 5 10 10 10 6 0 10 -4 10 -10z m-20 -144
c0 -3 -4 -8 -10 -11 -5 -3 -10 -1 -10 4 0 6 5 11 10 11 6 0 10 -2 10 -4z m693
-16 c3 -11 2 -22 -3 -25 -4 -3 -10 6 -12 20 -6 30 7 34 15 5z m-182 -143 c-10
-9 -11 -8 -5 6 3 10 9 15 12 12 3 -3 0 -11 -7 -18z m-51 -397 c0 -5 -4 -10
-10 -10 -5 0 -10 5 -10 10 0 6 5 10 10 10 6 0 10 -4 10 -10z m-445 -210 c3 -6
-1 -7 -9 -4 -18 7 -21 14 -7 14 6 0 13 -4 16 -10z"/>
<path d="M4475 10020 c-22 -5 -83 -9 -136 -9 -151 -1 -153 -2 -174 -74 -9 -34
-28 -78 -40 -98 -37 -58 -47 -108 -33 -170 21 -95 17 -128 -27 -199 -39 -63
-40 -67 -36 -140 10 -207 9 -213 -30 -271 -44 -64 -59 -130 -52 -220 5 -64 4
-69 -32 -128 -26 -42 -36 -68 -33 -86 4 -17 1 -25 -8 -25 -16 0 -20 -75 -5
-85 5 -3 30 -1 54 5 24 5 72 12 106 15 35 2 66 7 71 10 4 3 25 7 46 10 22 3
59 10 84 16 25 5 77 14 115 18 93 11 222 47 256 72 16 11 43 42 60 69 25 38
42 53 71 62 24 7 56 30 83 59 44 47 45 50 45 114 0 39 6 78 15 95 9 16 18 58
21 92 4 51 1 72 -16 110 -21 47 -77 98 -110 98 -8 0 -23 7 -33 14 -22 17 -11
22 62 32 60 8 99 40 131 109 13 28 33 66 44 85 19 31 26 60 28 110 1 41 -22
161 -33 175 -42 50 -60 64 -77 59 -13 -5 -14 -4 -3 4 11 8 8 13 -15 25 -16 8
-45 18 -64 22 -19 4 -40 11 -46 16 -16 13 -241 20 -289 9z m206 -50 c27 -7 49
-15 49 -20 0 -4 12 -10 28 -13 45 -10 54 -22 59 -74 4 -37 0 -60 -15 -89 -16
-32 -19 -54 -16 -131 5 -126 -8 -160 -72 -192 -62 -31 -143 -52 -214 -56 -74
-4 -138 -12 -180 -25 -19 -5 -38 -10 -42 -10 -11 0 21 71 48 106 13 17 20 34
17 37 -3 4 1 17 9 29 17 26 13 66 -16 172 l-16 58 34 40 c23 26 38 58 47 97
l13 59 50 8 c84 15 166 16 217 4z m149 -540 c0 -5 -5 -10 -11 -10 -5 0 -7 5
-4 10 3 6 8 10 11 10 2 0 4 -4 4 -10z m-279 -108 c13 -10 35 -23 49 -29 14 -6
40 -23 58 -38 26 -22 32 -33 29 -59 -2 -17 -7 -37 -11 -44 -4 -7 -4 -17 0 -24
4 -6 3 -8 -3 -5 -6 4 -18 -17 -28 -48 -17 -49 -17 -57 -4 -92 23 -57 9 -95
-49 -137 -53 -39 -102 -86 -102 -99 0 -5 -14 -27 -31 -48 -36 -45 -67 -56
-189 -62 -47 -2 -93 -8 -102 -12 -25 -10 -23 11 6 87 14 35 28 72 32 83 4 11
8 60 9 109 2 70 6 91 19 98 38 21 59 88 60 195 1 56 4 104 8 108 8 9 143 33
189 34 21 1 47 -7 60 -17z m-261 -166 c0 -3 -4 -8 -10 -11 -5 -3 -10 -1 -10 4
0 6 5 11 10 11 6 0 10 -2 10 -4z m390 -116 c0 -5 -2 -10 -4 -10 -3 0 -8 5 -11
10 -3 6 -1 10 4 10 6 0 11 -4 11 -10z m-18 -42 c-7 -7 -12 -8 -12 -2 0 14 12
26 19 19 2 -3 -1 -11 -7 -17z m-781 -435 c-12 -20 -14 -14 -5 12 4 9 9 14 11
11 3 -2 0 -13 -6 -23z"/>
<path d="M2116 9885 c-32 -14 -32 -13 -45 -133 -6 -57 -15 -93 -29 -111 -32
-44 -63 -110 -64 -139 0 -15 6 -60 15 -100 16 -79 11 -108 -43 -242 -19 -45
-23 -76 -24 -175 -2 -131 4 -110 -96 -303 -28 -53 -33 -73 -32 -127 1 -109 1
-109 96 -101 206 16 221 21 231 72 4 21 18 57 31 79 27 47 35 92 33 190 -3
128 2 199 15 227 8 15 20 49 27 77 14 56 23 62 98 67 62 4 81 -8 81 -54 0 -46
31 -114 60 -135 16 -11 27 -37 40 -90 9 -41 29 -96 44 -121 15 -25 25 -47 24
-50 -2 -2 4 -12 13 -22 33 -38 44 -71 49 -149 l5 -80 101 -3 101 -3 -4 58 c-3
32 -9 74 -15 93 -13 41 -63 119 -113 174 -30 33 -35 45 -35 88 0 43 -21 111
-39 128 -4 3 -23 24 -43 48 -30 34 -38 50 -38 82 0 38 2 40 33 42 134 6 169
19 221 80 42 48 59 112 50 186 -4 39 -1 77 10 118 30 115 17 186 -46 252 -63
66 -97 78 -218 73 -247 -10 -425 -5 -460 14 -3 1 -18 -3 -34 -10z m543 -79 c9
-10 11 -23 6 -43 -5 -15 -8 -31 -7 -35 1 -5 -2 -8 -7 -8 -9 0 -22 -59 -26
-122 -2 -21 0 -36 4 -34 9 6 -5 -173 -17 -211 -6 -18 -22 -47 -36 -66 -29 -38
-97 -62 -196 -71 -30 -3 -69 -8 -86 -11 l-32 -7 -21 70 c-28 89 -28 133 -1
202 26 64 48 167 44 201 -5 37 47 134 71 135 11 0 27 3 35 7 42 18 249 13 269
-7z m17 -1323 c-10 -10 -19 5 -10 18 6 11 8 11 12 0 2 -7 1 -15 -2 -18z"/>
<path d="M7810 8809 c-25 -5 -57 -7 -72 -3 -39 8 -183 -15 -263 -43 -68 -24
-123 -42 -255 -85 -165 -54 -299 -145 -505 -343 -46 -44 -98 -92 -115 -108
-18 -15 -28 -32 -24 -39 4 -7 3 -8 -4 -4 -11 7 -95 -75 -116 -112 -5 -10 -27
-39 -48 -65 -44 -56 -70 -111 -87 -185 -7 -29 -17 -54 -21 -57 -10 -6 -11 -75
-1 -75 3 0 7 -16 8 -36 4 -72 84 -139 179 -151 42 -5 45 -4 111 61 68 66 116
101 176 132 17 9 49 32 70 50 20 19 41 34 46 34 5 0 16 6 23 13 21 20 148 102
198 127 25 12 65 37 90 55 60 44 193 121 316 183 55 29 109 60 120 70 10 10
42 26 69 36 89 33 376 176 371 185 -9 14 139 34 196 27 29 -4 80 -11 114 -15
34 -4 73 -15 89 -26 49 -35 70 -45 95 -45 40 0 100 12 100 20 0 4 -43 51 -95
104 -55 56 -95 104 -95 116 0 12 -14 27 -37 40 -21 12 -62 36 -92 55 -56 36
-110 51 -227 64 -39 5 -80 13 -92 20 -24 13 -157 13 -222 0z m-1170 -1189 c0
-5 -5 -10 -11 -10 -5 0 -7 5 -4 10 3 6 8 10 11 10 2 0 4 -4 4 -10z"/>
<path d="M1294 8295 c-12 -32 2 -37 31 -12 l30 26 -28 1 c-15 0 -30 -7 -33
-15z"/>
<path d="M1842 8233 c-7 -10 -10 -12 -7 -5 3 6 2 12 -3 12 -13 0 -52 -39 -52
-53 0 -7 7 -3 16 8 8 11 22 19 30 17 7 -2 24 6 36 18 15 14 17 20 7 20 -8 0
-20 -8 -27 -17z"/>
<path d="M1900 8237 c0 -20 -39 -52 -60 -49 -10 2 -20 -4 -23 -12 -4 -9 -13
-13 -22 -10 -8 4 -15 1 -15 -7 0 -7 -3 -9 -6 -6 -10 9 -45 -12 -43 -26 4 -29
-3 -37 -31 -37 -16 0 -30 5 -30 10 0 6 -4 10 -8 10 -5 0 -9 -7 -9 -15 0 -10
11 -15 34 -15 l34 0 -25 -33 c-15 -19 -26 -39 -26 -45 0 -7 -4 -12 -10 -12 -5
0 -10 5 -10 11 0 5 -4 7 -10 4 -5 -3 -10 -1 -10 5 0 7 -5 6 -14 -2 -16 -15 -1
-29 21 -21 25 10 16 -53 -9 -65 -18 -8 -19 -11 -5 -11 9 -1 17 -5 17 -10 0
-14 -30 -7 -41 10 -6 10 -9 10 -9 2 0 -7 -7 -13 -15 -13 -8 0 -15 7 -15 16 0
10 -6 13 -19 9 -15 -5 -18 -1 -13 20 3 20 9 24 23 20 22 -7 57 9 41 19 -6 3
-13 2 -17 -4 -11 -17 -25 -11 -25 11 0 14 5 19 14 16 7 -3 21 4 30 15 13 15
15 25 7 46 -5 15 -10 21 -10 14 -1 -7 -5 -11 -10 -7 -5 3 -12 1 -16 -5 -3 -5
-15 -10 -25 -10 -14 0 -18 -5 -13 -16 5 -13 7 -13 14 -2 5 7 9 9 9 5 0 -4 9
-3 19 3 12 6 22 6 26 1 5 -10 -11 -24 -30 -27 -5 0 -15 -2 -22 -2 -6 -1 -9
-11 -6 -22 7 -26 -9 -26 -25 1 -13 20 -14 20 -33 3 -10 -9 -19 -13 -19 -8 0 5
12 18 27 28 14 11 23 14 19 8 -3 -6 -2 -13 4 -17 5 -3 10 1 10 9 0 19 -23 33
-28 17 -2 -7 -15 -17 -29 -22 -23 -9 -25 -13 -19 -49 5 -32 3 -38 -8 -34 -8 3
-12 12 -9 20 3 8 -1 14 -10 14 -24 0 -31 -19 -13 -39 22 -24 20 -31 -6 -31
-17 0 -19 3 -9 9 10 6 10 10 1 16 -6 4 -12 5 -13 4 -31 -58 -83 -176 -92 -211
-14 -50 -8 -56 27 -28 20 16 25 36 6 24 -7 -4 -8 -3 -4 4 4 7 13 12 21 12 15
0 28 27 19 41 -3 5 -1 8 4 7 6 -2 25 14 44 35 40 46 77 56 201 57 64 0 86 3
81 12 -4 6 -3 8 4 4 5 -3 12 -3 15 1 2 5 3 3 1 -3 -3 -13 101 -28 119 -18 7 4
9 3 5 -1 -5 -5 13 -16 40 -25 26 -9 76 -31 110 -48 35 -18 69 -29 75 -25 5 3
7 2 4 -4 -3 -5 14 -19 39 -31 25 -13 42 -17 38 -11 -4 8 -3 9 4 5 7 -4 23 4
37 18 14 15 29 26 32 26 4 0 2 -5 -5 -12 -7 -7 -12 -19 -12 -27 0 -14 1 -14
10 -1 8 12 10 9 8 -10 -2 -16 2 -24 10 -22 6 1 12 -5 12 -14 0 -8 -4 -12 -10
-9 -5 3 -10 4 -10 1 0 -3 23 -17 50 -31 28 -14 50 -23 50 -20 0 2 -12 11 -27
18 -26 14 -26 15 -5 26 12 6 23 7 26 2 3 -5 16 -7 29 -5 20 4 20 4 2 -5 -12
-5 -25 -5 -32 1 -9 7 -13 7 -13 -1 0 -10 14 -15 34 -12 5 1 6 -5 3 -14 -5 -11
0 -15 19 -15 14 0 23 -4 19 -10 -3 -5 -13 -7 -23 -4 -12 4 -12 2 3 -8 11 -7
30 -13 42 -13 21 -1 21 0 6 26 -15 25 -15 29 0 44 13 12 21 14 37 5 11 -6 20
-15 20 -21 0 -6 -8 -3 -17 6 -16 16 -17 16 -30 -1 -14 -19 -2 -44 22 -44 7 0
11 -10 9 -25 -3 -31 31 -55 50 -34 8 9 7 11 -7 6 -12 -5 -16 -3 -11 5 5 8 2 9
-11 4 -15 -5 -16 -4 -5 9 7 9 16 12 19 7 3 -5 15 -14 26 -20 11 -6 14 -12 8
-12 -7 0 -13 -5 -13 -11 0 -5 5 -7 10 -4 6 3 10 2 10 -4 0 -15 111 -62 124
-52 15 12 42 6 62 -14 11 -10 25 -14 40 -11 30 8 38 -7 13 -22 -10 -7 -19 -9
-19 -4 0 4 -9 8 -19 8 -11 0 -17 -4 -15 -8 3 -4 9 -8 13 -8 5 0 35 -16 67 -35
32 -19 69 -35 82 -35 14 0 53 -15 86 -34 34 -18 67 -31 75 -28 10 3 12 0 7
-14 -6 -15 -5 -17 5 -6 17 16 26 15 33 -4 5 -12 2 -15 -11 -10 -30 11 27 -30
104 -75 74 -42 138 -54 153 -29 5 9 19 -3 41 -37 40 -61 75 -69 91 -22 5 16
14 29 19 29 5 0 9 11 9 24 0 13 7 29 15 36 11 9 16 31 16 74 0 88 2 105 13 99
5 -4 6 5 2 21 -4 17 -3 25 3 22 5 -3 7 3 4 14 -3 11 -12 20 -19 20 -8 0 -14 4
-14 9 0 5 -3 18 -6 28 -4 10 8 2 25 -17 22 -25 31 -30 31 -18 0 9 -7 21 -16
26 -9 5 -17 13 -17 18 -2 8 -14 12 -50 16 -10 1 -15 8 -12 16 2 7 -2 15 -9 18
-8 3 -12 13 -9 24 3 10 0 21 -7 25 -8 5 -8 11 1 21 7 9 8 14 3 13 -24 -4 -54
2 -54 12 0 7 11 9 28 5 25 -5 26 -5 5 6 -13 6 -23 18 -23 27 0 12 -3 12 -12 3
-16 -16 -29 -15 -22 2 3 8 0 17 -7 22 -8 4 -10 3 -5 -4 10 -17 -9 -15 -24 3
-6 8 -9 19 -5 24 4 7 0 8 -10 5 -11 -5 -18 0 -22 14 -3 12 -15 24 -27 28 -25
8 -49 31 -60 59 -6 16 -9 17 -16 5 -8 -13 -10 -13 -10 1 0 9 -7 20 -16 23 -8
3 -12 2 -9 -4 3 -6 -1 -7 -9 -4 -9 3 -14 10 -11 14 6 9 -34 26 -50 21 -5 -1
-7 1 -3 5 5 4 0 13 -10 19 -23 17 -284 128 -299 128 -7 0 -13 4 -13 9 0 5 -10
6 -22 2 -13 -3 -20 -3 -16 1 4 5 0 14 -10 21 -20 16 -36 18 -27 4 3 -5 1 -10
-4 -10 -6 0 -11 6 -11 13 0 7 -21 23 -46 35 -25 12 -43 18 -39 12 3 -5 -2 -10
-11 -10 -10 0 -14 -3 -11 -6 4 -4 -2 -15 -13 -24 -18 -15 -18 -19 -5 -30 17
-14 20 -30 5 -30 -5 0 -10 7 -10 16 0 8 -5 12 -10 9 -6 -4 -8 -11 -5 -16 4 -5
1 -9 -4 -9 -11 0 -15 15 -12 34 1 5 -4 13 -10 17 -10 6 -10 11 0 23 11 13 11
16 -1 16 -8 0 -25 11 -38 25 -12 13 -27 22 -33 18 -6 -3 -7 -1 -3 6 4 6 18 9
32 7 13 -3 24 0 24 6 0 5 -7 8 -15 5 -8 -4 -17 -2 -20 3 -4 6 -10 10 -15 10
-14 0 -21 -32 -10 -45 7 -9 6 -16 -4 -24 -10 -8 -16 -9 -21 -1 -3 5 -1 10 6
10 7 0 10 2 7 5 -3 3 -13 3 -22 -1 -12 -5 -14 -10 -5 -20 8 -10 6 -13 -8 -11
-18 1 -18 4 -6 41 10 27 11 42 3 50 -7 7 -10 6 -10 -4 0 -7 -7 -21 -16 -31 -8
-9 -16 -26 -17 -37 0 -11 -4 -19 -8 -16 -4 2 -10 -4 -14 -14 -5 -17 -17 -20
-57 -13 -5 0 -8 8 -8 17 0 8 -5 12 -10 9 -6 -4 -7 -11 -4 -17 4 -7 2 -8 -5 -4
-6 4 -9 12 -6 17 4 5 1 9 -5 9 -6 0 -8 5 -5 10 4 6 11 8 16 5 5 -4 12 1 16 11
6 16 7 16 20 -1 7 -10 16 -16 19 -12 4 4 13 2 20 -4 15 -13 27 3 18 25 -4 10
-13 14 -24 11 -10 -3 -25 1 -33 9 -8 8 -18 12 -22 8 -5 -4 -5 -1 -1 6 4 7 13
9 19 5 21 -14 68 -11 63 4 -3 7 -1 15 4 18 6 4 10 -1 10 -10 0 -9 5 -13 10
-10 16 10 12 23 -10 30 -14 5 -26 0 -39 -16 -18 -22 -19 -22 -36 -5 -14 14
-20 15 -26 4 -7 -11 -9 -11 -9 0 0 8 -5 12 -12 10 -7 -3 -23 6 -37 20 l-24 24
-23 -29 c-13 -15 -23 -24 -24 -19 0 5 -7 3 -15 -4 -8 -7 -13 -16 -10 -20 2 -4
-2 -15 -9 -25 -13 -18 -14 -18 -32 3 -10 12 -27 22 -37 22 -10 0 -21 9 -24 20
-3 11 -9 20 -14 20 -5 0 -9 4 -9 10 0 5 7 7 15 4 8 -4 15 -1 15 6 0 6 10 10
23 8 12 -2 21 -9 20 -15 -5 -24 17 -63 34 -63 15 0 16 2 3 10 -8 5 -10 10 -5
10 6 0 3 5 -5 10 -12 8 -10 10 10 11 14 1 31 2 38 2 13 -1 17 13 5 20 -5 2 -2
2 5 1 6 -2 12 1 12 7 0 7 -16 10 -39 7 -22 -2 -37 0 -35 3 7 12 -71 16 -78 5
-5 -8 -8 -7 -8 2 0 6 -9 12 -20 12 -11 0 -20 -6 -20 -13z m20 -31 c0 -11 -19
-15 -25 -6 -3 5 1 10 9 10 9 0 16 -2 16 -4z m164 -52 c3 -8 2 -12 -4 -9 -6 3
-10 10 -10 16 0 14 7 11 14 -7z m106 -14 c0 -5 -5 -10 -11 -10 -5 0 -7 -5 -3
-12 5 -7 3 -8 -6 -3 -10 6 -12 4 -7 -8 4 -11 2 -14 -8 -11 -12 5 -12 10 3 30
18 25 32 31 32 14z m395 -59 c-3 -5 -1 -12 5 -16 13 -8 13 -65 -1 -65 -5 0 -7
-4 -4 -10 3 -5 -3 -10 -14 -10 -14 0 -19 5 -15 15 4 8 13 15 21 15 8 0 12 4 8
10 -3 5 -12 7 -20 3 -8 -3 -15 0 -15 7 0 7 8 10 20 7 13 -3 20 0 20 9 0 8 -6
11 -15 8 -9 -4 -15 0 -15 9 0 13 9 21 28 26 2 1 1 -3 -3 -8z m-197 -41 c-5
-17 -15 -33 -21 -37 -5 -3 -7 -2 -4 4 4 6 11 22 16 37 14 36 22 33 9 -4z m64
8 c-9 -9 -15 -9 -24 0 -9 9 -7 12 12 12 19 0 21 -3 12 -12z m196 -26 c2 -7 -5
-12 -17 -12 -14 0 -19 5 -14 15 6 17 25 15 31 -3z m37 8 c-3 -5 -12 -10 -18
-10 -7 0 -6 4 3 10 19 12 23 12 15 0z m-225 -10 c0 -5 -2 -10 -4 -10 -3 0 -8
5 -11 10 -3 6 -1 10 4 10 6 0 11 -4 11 -10z m-757 -20 c-3 -11 -9 -20 -13 -20
-5 0 -6 9 -3 20 3 11 9 20 13 20 5 0 6 -9 3 -20z m110 0 c-3 -11 -9 -17 -15
-14 -5 3 -4 12 3 20 16 19 18 18 12 -6z m889 -22 c-9 -18 -20 -35 -25 -36 -4
-2 -5 -7 -2 -12 3 -4 -3 -6 -13 -3 -10 2 -23 13 -30 24 -10 16 -9 19 4 19 8 0
13 -4 9 -9 -3 -5 -1 -12 5 -16 5 -3 10 3 10 14 0 14 5 19 15 15 8 -4 15 -1 15
4 0 6 -6 12 -12 15 -7 2 -5 3 5 2 9 -2 17 1 17 6 0 5 4 9 10 9 5 0 1 -15 -8
-32z m-922 0 c0 -4 -4 -8 -9 -8 -6 0 -12 4 -15 8 -3 5 1 9 9 9 8 0 15 -4 15
-9z m780 -40 c0 -11 -5 -16 -10 -13 -6 4 -7 11 -4 17 5 7 1 9 -9 5 -11 -4 -14
-2 -11 7 4 9 -3 13 -20 11 -32 -4 -35 12 -3 17 27 5 57 -18 57 -44z m70 48 c0
-2 -7 -6 -15 -10 -8 -3 -15 -1 -15 4 0 6 7 10 15 10 8 0 15 -2 15 -4z m-937
-19 c20 4 20 3 4 -7 -19 -12 -37 -6 -36 13 0 9 2 9 5 1 3 -7 15 -10 27 -7z
m96 -41 c-3 -3 -11 5 -18 17 -13 21 -12 21 5 5 10 -10 16 -20 13 -22z m286 24
c-4 -6 -11 -8 -16 -5 -5 3 -6 -2 -2 -11 4 -12 3 -15 -5 -10 -20 12 -14 36 9
36 11 0 17 -5 14 -10z m-344 -14 c5 3 9 1 9 -5 0 -5 -4 -13 -10 -16 -5 -3 -10
-4 -10 -1 0 2 -2 10 -3 18 -2 7 -2 10 0 5 3 -4 9 -5 14 -1z m-233 -26 c-2 -6
-8 -6 -18 0 -13 9 -13 11 0 20 15 10 25 0 18 -20z m1104 8 c-7 -7 -12 -8 -12
-2 0 14 12 26 19 19 2 -3 -1 -11 -7 -17z m-909 -5 c-4 -11 -8 -13 -11 -5 -3
10 -7 10 -18 1 -9 -7 -14 -8 -14 -1 0 11 16 20 37 21 8 1 10 -6 6 -16z m217 3
c0 -3 -4 -8 -10 -11 -5 -3 -10 -1 -10 4 0 6 5 11 10 11 6 0 10 -2 10 -4z m744
-5 c7 -11 -22 -23 -36 -15 -6 4 -5 10 3 15 18 11 26 11 33 0z m-517 -17 c-9
-10 -47 -12 -42 -3 4 5 11 7 16 4 5 -4 9 -1 9 5 0 6 5 8 11 5 6 -4 8 -9 6 -11z
m157 -6 c-4 -6 1 -8 13 -4 10 3 28 -1 39 -9 15 -11 16 -15 4 -16 -8 -1 -18 -1
-22 0 -5 0 -8 -5 -8 -11 0 -9 -4 -8 -10 2 -6 9 -10 11 -10 3 0 -7 -7 -10 -17
-6 -12 5 -15 2 -11 -9 4 -10 1 -15 -10 -15 -36 0 -41 -3 -35 -20 4 -11 3 -14
-5 -9 -7 4 -12 17 -12 29 0 12 -4 18 -8 12 -4 -5 -11 -11 -17 -12 -5 -1 -18
-5 -27 -8 -12 -5 -18 -2 -18 7 0 7 -9 19 -19 25 -16 10 -18 9 -14 -6 3 -11 -1
-18 -11 -18 -30 0 -9 39 24 44 12 2 19 -1 16 -6 -7 -10 61 -8 71 3 3 3 1 6 -6
6 -7 0 -20 8 -29 17 -16 16 -16 16 3 9 11 -5 26 -9 33 -9 6 0 12 -6 12 -14 0
-7 5 -13 11 -13 5 0 7 -4 4 -10 -3 -5 -1 -10 5 -10 6 0 13 7 17 16 3 8 12 13
19 10 8 -3 11 0 7 10 -3 7 -11 14 -19 14 -8 0 -14 4 -14 9 0 4 11 6 25 3 14
-2 22 -9 19 -14z m-747 6 c-3 -3 -12 -4 -19 -1 -8 3 -5 6 6 6 11 1 17 -2 13
-5z m-107 -16 c0 -4 -4 -8 -9 -8 -6 0 -12 4 -15 8 -3 5 1 9 9 9 8 0 15 -4 15
-9z m954 -14 c8 -3 12 -12 9 -21 -4 -10 -2 -14 5 -10 7 5 8 -3 1 -28 -6 -20
-8 -43 -5 -53 8 -24 -9 -46 -29 -39 -13 6 -15 3 -10 -13 4 -11 3 -20 -2 -20
-15 0 -13 41 3 47 8 3 14 13 14 22 0 14 -2 14 -10 1 -5 -8 -12 -12 -15 -8 -8
7 8 40 18 39 8 -1 8 -1 0 29 -7 27 -22 25 -17 -2 l5 -23 -10 23 c-8 17 -7 27
6 42 20 23 17 22 37 14z m266 -4 c0 -5 -2 -10 -4 -10 -3 0 -8 5 -11 10 -3 6
-1 10 4 10 6 0 11 -4 11 -10z m-687 -26 c9 -1 17 3 17 9 0 6 2 8 5 5 10 -10
-7 -38 -19 -31 -6 4 -15 8 -21 9 -5 0 -17 2 -25 3 -13 1 -13 2 0 11 8 5 17 6
20 2 3 -4 13 -8 23 -8z m356 -31 c2 -2 -3 -3 -11 -3 -9 0 -19 7 -22 16 -6 15
-4 15 11 3 10 -7 20 -15 22 -16z m-82 -5 c-3 -8 -6 -5 -6 6 -1 11 2 17 5 13 3
-3 4 -12 1 -19z m47 -4 c3 -8 14 -14 25 -14 23 0 36 -16 21 -25 -5 -3 -10 -1
-10 4 0 6 -5 11 -12 11 -6 0 -3 -9 7 -20 15 -17 16 -20 3 -20 -9 0 -19 11 -22
25 -4 14 -11 25 -17 25 -6 0 -9 -7 -5 -15 3 -8 0 -15 -5 -15 -6 0 -9 9 -6 20
3 11 1 20 -4 20 -5 0 -9 7 -9 15 0 18 26 9 34 -11z m146 16 c0 -5 -4 -10 -10
-10 -5 0 -10 5 -10 10 0 6 5 10 10 10 6 0 10 -4 10 -10z m-264 -15 c-8 -8 -18
-15 -22 -15 -3 0 -1 7 6 15 7 8 17 15 22 15 5 0 3 -7 -6 -15z m-840 -35 c0
-11 -1 -20 -3 -20 -1 0 -7 9 -13 20 -8 15 -8 20 3 20 7 0 13 -9 13 -20z m780
0 c0 -12 -4 -16 -9 -11 -5 5 -16 7 -23 4 -8 -3 -14 0 -14 5 0 9 11 14 40 21 3
0 6 -8 6 -19z m154 -40 c0 -5 -5 -10 -11 -10 -5 0 -7 5 -4 10 3 6 8 10 11 10
2 0 4 -4 4 -10z m45 -12 c5 4 5 1 1 -6 -6 -10 -11 -10 -22 -1 -8 6 -14 14 -14
16 0 3 6 0 13 -6 8 -6 18 -7 22 -3z m95 -12 c0 -2 -7 -9 -15 -16 -12 -10 -15
-10 -15 4 0 9 7 16 15 16 8 0 15 -2 15 -4z m125 -106 c3 -5 1 -10 -4 -10 -6 0
-11 5 -11 10 0 6 2 10 4 10 3 0 8 -4 11 -10z m695 -20 c0 -5 -4 -10 -10 -10
-5 0 -10 5 -10 10 0 6 5 10 10 10 6 0 10 -4 10 -10z m138 -50 c3 -8 0 -10 -8
-5 -7 4 -16 2 -21 -6 -7 -11 -9 -11 -9 2 0 30 29 38 38 9z m-818 6 c0 -3 -4
-8 -10 -11 -5 -3 -10 -1 -10 4 0 6 5 11 10 11 6 0 10 -2 10 -4z m140 -36 c0
-15 -5 -12 -26 11 -19 22 -19 22 4 10 12 -6 22 -16 22 -21z m46 -38 c-4 -3
-14 2 -24 12 -16 18 -16 18 6 6 13 -6 21 -14 18 -18z m710 -9 c-4 -10 -2 -13
8 -10 8 3 17 -1 20 -9 3 -8 2 -13 -2 -10 -4 2 -14 1 -22 -5 -13 -7 -12 -9 2
-9 12 0 15 -5 11 -16 -5 -15 -7 -15 -15 0 -5 9 -17 16 -26 16 -15 0 -15 2 -2
11 12 9 11 10 -6 6 -15 -3 -21 0 -20 9 3 17 16 31 16 16 0 -6 7 -9 16 -5 8 3
13 12 10 20 -4 8 -1 11 5 8 6 -4 8 -14 5 -22z m-371 -39 c9 3 29 -8 52 -30 21
-20 39 -31 41 -25 2 6 10 11 18 11 8 0 14 8 14 18 0 14 2 15 10 2 5 -9 5 -19
-1 -26 -5 -7 -7 -25 -4 -41 5 -25 4 -26 -4 -5 -6 12 -15 22 -21 22 -6 0 -8 -4
-5 -10 3 -5 1 -10 -5 -10 -7 0 -10 -7 -7 -14 4 -10 1 -13 -9 -9 -8 3 -13 12
-10 20 4 9 1 13 -6 10 -7 -2 -12 -12 -12 -21 2 -13 -1 -14 -13 -5 -7 7 -10 15
-5 18 4 3 8 16 8 28 0 17 -4 20 -17 12 -23 -12 -42 -12 -34 1 4 6 11 8 16 5 5
-4 9 -4 9 -1 0 2 3 11 6 20 3 9 1 16 -6 16 -6 0 -9 -4 -6 -9 3 -4 -10 -1 -28
8 -19 9 -32 20 -29 24 3 4 11 3 19 -4 7 -6 21 -9 29 -5z m371 -59 c-1 -8 -5
-17 -8 -21 -5 -4 -4 16 1 34 3 9 9 -1 7 -13z m-366 -45 c0 -5 -2 -10 -4 -10
-3 0 -8 5 -11 10 -3 6 -1 10 4 10 6 0 11 -4 11 -10z m86 -52 c-1 -12 -10 -26
-19 -33 -9 -7 -13 -16 -9 -20 4 -5 1 -5 -6 -1 -7 5 -11 14 -8 22 3 8 1 14 -4
14 -6 0 -10 7 -10 16 0 14 -2 15 -17 3 -16 -13 -17 -12 -5 3 26 32 84 29 78
-4z"/>
<path d="M2386 7817 c3 -10 9 -15 12 -12 3 3 0 11 -7 18 -10 9 -11 8 -5 -6z"/>
<path d="M3132 7261 c-11 -7 -11 -9 2 -14 10 -4 16 -1 16 8 0 17 -1 17 -18 6z"/>
<path d="M2179 8207 c5 -5 21 -7 37 -5 27 3 26 4 -8 9 -22 3 -34 1 -29 -4z"/>
<path d="M1960 8202 c0 -4 9 -13 19 -19 16 -10 18 -9 14 8 -5 18 -33 28 -33
11z"/>
<path d="M2500 8130 c0 -6 7 -10 15 -10 8 0 15 2 15 4 0 2 -7 6 -15 10 -8 3
-15 1 -15 -4z"/>
<path d="M2470 8110 c0 -5 5 -10 11 -10 5 0 7 5 4 10 -3 6 -8 10 -11 10 -2 0
-4 -4 -4 -10z"/>
<path d="M2520 8096 c0 -8 -6 -16 -12 -19 -7 -2 -10 -7 -7 -11 7 -8 39 21 39
35 0 5 -4 9 -10 9 -5 0 -10 -6 -10 -14z"/>
<path d="M2239 8067 c5 -5 17 -5 28 2 16 9 15 10 -9 9 -16 -2 -24 -6 -19 -11z"/>
<path d="M1660 8061 c0 -6 4 -13 10 -16 6 -3 7 1 4 9 -7 18 -14 21 -14 7z"/>
<path d="M1631 8044 c0 -11 3 -14 6 -6 3 7 2 16 -1 19 -3 4 -6 -2 -5 -13z"/>
<path d="M1625 7959 c-4 -6 -13 -8 -19 -6 -7 3 -18 -5 -25 -16 -11 -18 -11
-20 0 -9 7 6 23 12 36 12 14 0 23 6 23 15 0 18 -6 19 -15 4z"/>
<path d="M3250 7758 c0 -6 3 -8 7 -5 3 4 12 2 20 -4 8 -7 13 -8 13 -1 0 5 -7
13 -16 16 -22 8 -24 8 -24 -6z"/>
<path d="M3327 7711 c3 -11 9 -19 13 -16 5 3 10 -1 13 -7 2 -7 7 -10 11 -7 3
3 -5 16 -18 28 -24 23 -25 23 -19 2z"/>
<path d="M2154 7701 c3 -5 16 -11 28 -14 22 -6 22 -5 4 8 -22 17 -40 20 -32 6z"/>
<path d="M3442 7566 c10 -7 16 -16 13 -19 -3 -4 -2 -5 2 -2 3 3 12 0 20 -7 12
-10 12 -7 3 13 -7 14 -21 25 -33 26 -20 2 -21 1 -5 -11z"/>
<path d="M3465 7500 c-3 -5 -1 -10 4 -10 6 0 11 5 11 10 0 6 -2 10 -4 10 -3 0
-8 -4 -11 -10z"/>
<path d="M7460 7430 c0 -6 7 -10 15 -10 8 0 15 2 15 4 0 2 -7 6 -15 10 -8 3
-15 1 -15 -4z"/>
<path d="M7680 7414 c0 -5 55 -27 55 -22 1 2 33 -32 71 -75 39 -42 85 -105
102 -140 32 -63 40 -71 22 -20 -9 26 -9 27 5 9 23 -30 18 -4 -14 66 -32 70
-63 108 -109 132 -23 12 -32 13 -35 3 -3 -7 -6 -6 -6 5 -1 10 -18 22 -46 31
-25 9 -45 14 -45 11z"/>
<path d="M1990 7129 c-19 -5 -64 -7 -100 -4 -36 2 -94 1 -130 -4 -36 -5 -57
-9 -47 -10 19 -1 24 -21 5 -21 -7 0 -24 -9 -38 -20 l-25 -19 53 4 c30 3 52 0
52 -5 0 -6 -13 -10 -29 -10 -17 0 -33 -5 -37 -11 -4 -7 0 -9 12 -5 31 9 261
26 365 27 53 0 141 -7 195 -16 94 -15 231 -51 246 -64 4 -3 -57 -7 -135 -8
-138 -1 -357 -26 -502 -57 -38 -8 -92 -19 -120 -24 l-50 -10 58 -1 c67 -1 70
-21 4 -22 -51 0 -130 -16 -102 -19 11 -2 25 -4 30 -5 6 -2 15 -3 20 -4 6 -1 2
-8 -8 -15 -26 -20 -10 -25 53 -15 30 5 107 15 170 24 63 8 126 17 140 20 104
24 294 48 375 47 289 0 690 -298 993 -737 42 -62 90 -122 75 -95 -4 8 -30 49
-58 90 -27 41 -58 90 -68 109 -10 19 -37 58 -59 88 -23 29 -38 56 -36 59 8 7
172 -195 237 -291 52 -78 92 -127 58 -73 -9 15 -33 56 -53 90 -63 112 -185
293 -227 338 -18 20 -185 219 -252 302 -7 9 -11 19 -9 22 2 3 1 4 -2 2 -3 -3
-49 27 -103 66 -91 66 -196 126 -251 143 -14 4 -45 16 -70 27 -77 34 -84 36
-143 54 -37 11 -53 21 -45 26 10 6 9 8 -2 8 -8 0 -46 5 -84 10 -96 14 -314 20
-356 9z m-150 -69 c0 -5 -12 -10 -26 -10 -14 0 -23 4 -19 10 3 6 15 10 26 10
10 0 19 -4 19 -10z m750 -110 c12 -8 11 -10 -7 -10 -13 0 -23 5 -23 10 0 13
11 13 30 0z"/>
<path d="M7957 7105 c7 -49 13 -58 13 -19 0 16 -5 36 -10 44 -6 10 -7 2 -3
-25z"/>
<path d="M2475 7090 c17 -4 39 -8 50 -8 16 0 15 2 -5 8 -14 4 -36 8 -50 8 -22
0 -22 -1 5 -8z"/>
<path d="M2558 7073 c6 -2 18 -2 25 0 6 3 1 5 -13 5 -14 0 -19 -2 -12 -5z"/>
<path d="M2650 7048 c14 -6 54 -24 89 -40 35 -16 66 -27 68 -24 6 6 -115 61
-152 69 -29 6 -29 6 -5 -5z"/>
<path d="M2834 6968 c10 -7 39 -28 65 -47 35 -26 41 -28 23 -10 -12 14 -41 35
-65 48 -23 12 -34 16 -23 9z"/>
<path d="M2990 6848 c41 -45 50 -53 50 -45 0 2 -21 23 -47 47 l-48 45 45 -47z"/>
<path d="M2495 6491 c-50 -13 -135 -63 -190 -113 -36 -33 -62 -69 -86 -120
-32 -69 -34 -78 -33 -178 1 -95 4 -111 33 -174 40 -87 105 -164 199 -234 97
-71 184 -98 307 -93 149 6 282 104 328 242 30 89 30 246 0 319 -3 8 -8 23 -9
33 -7 33 -66 128 -108 171 -48 49 -154 111 -235 138 -55 18 -150 22 -206 9z
m182 -24 c3 -4 13 -7 22 -7 25 0 140 -57 183 -91 48 -38 122 -161 149 -248 25
-82 27 -198 4 -266 -26 -78 -52 -117 -106 -158 -72 -57 -120 -70 -241 -65 -97
4 -108 6 -189 46 -110 54 -159 97 -202 175 -62 111 -76 254 -37 372 19 56 35
80 93 142 92 96 127 113 235 109 45 -1 85 -6 89 -9z m-396 -150 c-13 -12 -20
-15 -16 -7 14 26 28 41 33 35 3 -3 -5 -16 -17 -28z m-40 -92 c-12 -31 -21 -69
-21 -85 0 -16 -5 -32 -11 -36 -18 -11 -3 85 22 141 28 64 36 49 10 -20z"/>
<path d="M2580 6051 c-26 -64 3 -114 57 -95 23 8 29 16 31 46 6 68 -64 107
-88 49z"/>
<path d="M1868 6333 c-8 -70 20 -202 69 -317 26 -61 53 -118 60 -127 7 -8 13
-19 13 -24 0 -11 88 -113 127 -148 75 -66 192 -151 246 -179 186 -94 430 -92
762 7 74 22 246 88 241 92 -2 2 -48 -8 -102 -23 -55 -14 -115 -30 -134 -35
-96 -25 -257 -50 -360 -55 -190 -10 -372 41 -506 141 -22 16 -67 50 -100 74
-85 65 -159 157 -214 268 -49 101 -88 235 -89 312 -1 56 -7 63 -13 14z"/>
<path d="M1345 6084 c-169 -20 -221 -29 -293 -51 -70 -22 -90 -33 -135 -78
-100 -97 -119 -174 -82 -315 25 -98 28 -82 4 28 -31 143 42 271 196 343 60 28
212 59 292 59 23 0 45 5 48 10 3 6 5 9 3 9 -2 -1 -16 -4 -33 -5z"/>
<path d="M1448 6083 c34 -2 88 -2 120 0 31 2 3 3 -63 3 -66 0 -92 -1 -57 -3z"/>
<path d="M1761 5839 c-1 -63 46 -219 99 -326 53 -106 78 -136 39 -47 -59 136
-57 169 3 51 21 -40 45 -82 53 -93 9 -10 -9 31 -39 91 -30 61 -70 153 -90 205
-21 52 -43 109 -51 125 l-14 30 0 -36z"/>
<path d="M3602 5698 c-17 -17 -15 -27 6 -24 9 2 18 10 20 19 4 20 -9 22 -26 5z"/>
<path d="M3523 5592 c-55 -81 -196 -282 -225 -322 -9 -13 -15 -27 -12 -32 3
-5 1 -7 -3 -6 -5 2 -34 -26 -63 -62 -30 -36 -57 -67 -60 -70 -3 -3 -24 -27
-45 -54 -22 -27 -62 -67 -88 -88 -27 -21 -42 -38 -34 -38 41 0 184 110 171
132 -5 7 -3 8 5 3 22 -13 222 203 271 294 14 25 45 74 68 108 40 59 102 181
102 200 0 5 -8 9 -17 10 -12 1 -37 -26 -70 -75z"/>
<path d="M3410 5650 c-8 -5 -10 -10 -5 -10 6 0 17 5 25 10 8 5 11 10 5 10 -5
0 -17 -5 -25 -10z"/>
<path d="M862 5520 c0 -14 2 -19 5 -12 2 6 2 18 0 25 -3 6 -5 1 -5 -13z"/>
<path d="M7053 6750 c-59 -12 -111 -42 -172 -96 -102 -92 -158 -200 -181 -350
-19 -130 6 -221 94 -330 103 -129 326 -145 493 -36 124 80 197 246 187 423 -8
135 -35 206 -105 283 -33 35 -79 74 -103 85 -50 25 -151 34 -213 21z m203 -45
c112 -63 168 -156 186 -308 14 -121 -3 -202 -70 -323 -41 -75 -140 -149 -233
-174 -100 -27 -251 22 -329 106 -54 58 -74 130 -74 264 -1 99 1 109 33 178 19
39 37 72 40 72 4 0 14 12 24 28 22 37 106 124 138 144 44 28 112 47 168 48 44
0 66 -7 117 -35z"/>
<path d="M7025 6316 c-23 -35 -16 -90 12 -94 29 -4 63 31 63 66 0 53 -47 71
-75 28z"/>
<path d="M8440 6660 l-55 -7 58 -1 c32 -1 57 2 57 8 0 6 -1 9 -2 8 -2 -1 -28
-4 -58 -8z"/>
<path d="M8514 6661 c2 -3 35 -5 73 -4 37 1 80 -1 95 -3 l28 -6 -7 -75 c-5
-58 -3 -77 8 -85 11 -8 11 -9 -2 -5 -13 4 -18 -3 -23 -31 -3 -20 -10 -59 -16
-87 -19 -89 -21 -118 -8 -127 10 -6 10 -8 0 -8 -9 0 -11 -7 -7 -20 4 -11 2
-20 -4 -20 -6 0 -11 -5 -11 -11 0 -5 5 -7 10 -4 6 3 10 1 10 -4 0 -6 -6 -11
-14 -11 -17 0 -29 -27 -16 -35 6 -4 10 -11 10 -16 0 -6 -4 -8 -9 -4 -5 3 -15
-21 -22 -52 -15 -76 -15 -76 -21 -93 -3 -8 -22 -85 -43 -170 -55 -232 -82
-315 -156 -468 -28 -57 -48 -106 -46 -108 6 -7 51 54 76 104 20 38 59 130 113
267 12 28 24 64 28 80 4 17 29 107 55 200 64 235 145 600 160 728 l7 58 136
-2 c186 -3 318 -19 367 -45 52 -27 67 -69 68 -199 1 -97 0 -103 -46 -219 -59
-149 -86 -200 -156 -300 -31 -43 -56 -84 -56 -90 -1 -6 -6 -10 -12 -9 -6 1
-21 -10 -34 -25 l-24 -27 28 24 c40 36 33 17 -18 -47 -140 -175 -304 -312
-504 -421 -45 -24 -79 -46 -76 -49 2 -3 10 0 17 5 7 6 47 28 88 49 126 63 217
131 329 243 58 58 113 115 121 126 8 11 29 38 46 60 78 100 203 298 224 356
13 35 27 69 31 74 19 25 68 176 75 231 10 79 22 41 23 -78 1 -88 -9 -158 -35
-237 -8 -24 -13 -45 -11 -48 7 -7 45 91 68 172 19 71 20 86 10 188 -11 111
-18 130 -63 178 -54 58 -98 78 -198 89 -104 12 -672 22 -666 11z m896 -190 c0
-21 -16 -2 -24 29 -7 24 -6 24 8 6 9 -11 16 -27 16 -35z m17 -203 c-3 -8 -6
-5 -6 6 -1 11 2 17 5 13 3 -3 4 -12 1 -19z"/>
<path d="M7843 6163 c-26 -67 -167 -222 -248 -272 -27 -18 -81 -41 -120 -52
-38 -11 -90 -27 -115 -36 -25 -8 -63 -17 -84 -19 -22 -3 -43 -7 -47 -10 -4 -2
-54 -5 -111 -5 -82 -1 -116 3 -168 21 -119 41 -214 102 -352 223 -78 68 -97
75 -56 21 68 -90 123 -139 206 -184 20 -12 58 -34 84 -50 68 -42 196 -96 248
-105 102 -18 333 4 375 35 6 4 28 13 50 20 135 42 233 120 284 227 75 158 91
203 69 203 -5 0 -12 -8 -15 -17z"/>
<path d="M8079 6086 c-14 -22 -39 -75 -56 -116 -75 -179 -221 -476 -261 -530
-15 -19 -49 -57 -77 -83 -56 -55 -29 -47 46 12 58 46 124 123 173 203 51 81
146 278 146 301 0 9 4 25 9 35 22 40 52 153 49 185 l-3 35 -26 -42z"/>
<path d="M9342 5985 c-17 -37 -14 -45 4 -12 9 16 14 31 11 33 -2 2 -9 -7 -15
-21z"/>
<path d="M6366 5891 c19 -38 34 -76 34 -84 0 -8 9 -26 20 -40 11 -14 26 -38
33 -54 25 -58 101 -174 156 -240 104 -125 345 -286 448 -299 l48 -7 -68 36
c-111 59 -246 167 -342 275 -105 118 -152 174 -185 222 -13 19 -33 46 -45 60
-13 14 -34 46 -48 72 -27 50 -78 128 -82 128 -2 0 12 -31 31 -69z"/>
<path d="M5834 5898 c-79 -84 -99 -145 -91 -276 4 -70 12 -103 41 -171 20 -47
39 -87 44 -90 4 -3 20 -26 34 -51 28 -48 138 -177 138 -163 0 5 -8 18 -17 29
-87 96 -155 218 -173 311 -22 108 15 294 70 357 40 45 38 55 -2 17 -46 -43
-47 -30 -3 25 33 41 35 45 15 39 -15 -5 -20 -4 -16 4 14 21 0 11 -40 -31z"/>
<path d="M9302 5895 c-12 -25 -20 -45 -17 -45 7 0 47 81 43 86 -3 2 -14 -17
-26 -41z"/>
<path d="M9260 5820 c-6 -11 -8 -20 -6 -20 3 0 10 9 16 20 6 11 8 20 6 20 -3
0 -10 -9 -16 -20z"/>
<path d="M8404 5225 c-18 -13 -18 -14 4 -8 12 3 25 9 28 14 8 14 -10 11 -32
-6z"/>
<path d="M8355 5201 c-11 -3 -40 -17 -64 -30 -25 -13 -61 -30 -80 -37 -26 -10
-28 -13 -9 -9 30 6 178 72 178 80 0 3 -1 5 -2 4 -2 -1 -12 -4 -23 -8z"/>
<path d="M8140 5110 c-8 -5 -10 -10 -5 -10 6 0 17 5 25 10 8 5 11 10 5 10 -5
0 -17 -5 -25 -10z"/>
<path d="M4940 5455 c-100 -25 -201 -87 -283 -175 -81 -86 -100 -117 -230
-370 -46 -91 -100 -192 -119 -225 -19 -33 -45 -78 -57 -100 -21 -37 -22 -38
-2 -15 33 39 35 42 75 105 21 33 51 78 66 100 46 69 100 172 93 179 -3 3 -1 6
4 6 6 0 28 30 48 66 75 138 192 264 290 313 161 80 230 92 367 66 102 -20 146
-38 226 -90 28 -19 52 -32 52 -28 0 3 -12 21 -26 40 -36 47 -130 107 -189 119
-128 27 -230 30 -315 9z"/>
<path d="M6172 4085 c13 -22 54 -98 90 -170 166 -327 210 -678 111 -897 -28
-63 -103 -141 -156 -162 -17 -7 -90 -21 -162 -31 -188 -25 -227 -34 -125 -28
189 10 304 24 346 43 80 37 177 154 204 248 28 94 36 195 24 282 -7 47 -15
103 -18 125 -5 35 -25 96 -67 203 -8 17 -17 32 -21 32 -4 0 -8 7 -8 16 0 17
-62 138 -84 164 -7 8 -34 49 -59 91 -26 41 -59 86 -73 100 l-27 24 25 -40z"/>
<path d="M3862 3640 c-27 -84 -31 -100 -37 -129 -3 -12 -7 -31 -10 -43 -13
-54 -13 -246 -1 -308 28 -136 77 -258 139 -342 27 -36 101 -84 147 -94 19 -4
42 -9 50 -11 38 -9 103 -2 159 17 33 11 68 20 77 20 10 0 14 3 11 6 -4 4 -48
-1 -99 -11 -87 -16 -97 -16 -150 -1 -97 29 -192 147 -253 316 -36 103 -46 309
-21 450 10 52 16 120 14 150 l-3 55 -23 -75z"/>
<path d="M4293 2783 c9 -2 23 -2 30 0 6 3 -1 5 -18 5 -16 0 -22 -2 -12 -5z"/>
<path d="M4365 2780 c3 -5 12 -7 20 -4 8 3 20 2 27 -2 7 -4 19 -9 28 -9 29 -3
165 -37 225 -57 83 -28 138 -54 198 -92 137 -88 237 -117 387 -113 90 3 171
26 260 76 25 13 68 36 95 50 61 32 134 82 159 110 12 13 -45 -10 -157 -64
-206 -99 -272 -124 -349 -132 -111 -11 -188 12 -370 111 -75 41 -141 64 -273
94 -142 33 -260 48 -250 32z"/>
<path d="M5616 2350 c3 -30 12 -69 19 -85 22 -54 40 -302 26 -370 -11 -61 -7
-71 9 -18 48 165 27 419 -41 503 l-20 25 7 -55z"/>
<path d="M5092 2345 c-6 -22 -17 -81 -23 -132 -12 -103 -2 -155 48 -229 29
-44 104 -113 86 -79 -6 11 -21 29 -32 39 -37 34 -53 109 -60 281 -6 148 -7
157 -19 120z"/>
<path d="M6175 1810 c-80 -8 -179 -29 -172 -37 3 -2 40 4 83 13 64 13 113 15
259 10 99 -4 212 -9 250 -12 39 -3 68 -4 65 -1 -11 12 -67 17 -340 31 -36 2
-101 0 -145 -4z"/>
<path d="M6850 1754 c-30 -8 -67 -13 -82 -11 -16 2 -28 1 -28 -3 0 -3 -15 -4
-32 -2 -18 2 -44 -1 -58 -7 -24 -9 -24 -10 10 -12 19 -1 46 -3 60 -4 26 -3
163 30 189 45 22 13 5 11 -59 -6z"/>
<path d="M3900 1679 c-139 -27 -144 -29 -133 -40 18 -18 243 35 243 57 0 5 -1
5 -110 -17z"/>
<path d="M4940 1694 c-14 -2 -65 -9 -115 -15 -49 -6 -97 -12 -105 -14 -8 -1
-69 -11 -135 -21 -158 -25 -91 -32 79 -9 67 9 139 19 161 21 22 2 59 9 82 15
42 11 270 8 323 -5 14 -3 6 1 -17 8 -41 14 -225 27 -273 20z"/>
<path d="M6360 1674 c-46 -14 -87 -28 -90 -31 -3 -3 6 -3 20 1 160 42 201 54
180 55 -14 0 -63 -11 -110 -25z"/>
<path d="M5275 1650 c11 -5 27 -9 35 -9 9 0 8 4 -5 9 -11 5 -27 9 -35 9 -9 0
-8 -4 5 -9z"/>
<path d="M6220 1633 c-8 -3 -40 -17 -70 -30 -238 -108 -608 -192 -755 -171
-55 7 -53 7 -181 42 -105 29 -276 56 -384 61 -41 2 -82 6 -90 9 -8 3 -46 7
-85 10 -38 3 -117 10 -175 16 -58 5 -125 12 -150 14 -25 2 -72 13 -104 25 -33
11 -78 20 -100 20 -40 -1 -40 -1 12 -10 29 -5 65 -15 80 -23 40 -21 210 -47
387 -60 112 -9 340 -36 425 -51 47 -9 94 -17 105 -18 11 -1 25 -5 30 -9 31
-18 245 -66 269 -59 5 1 61 7 124 12 63 6 140 19 171 29 31 10 72 22 91 25 67
13 165 48 265 95 55 26 117 53 138 59 37 12 48 22 25 20 -7 0 -20 -3 -28 -6z"/>
<path d="M6529 1573 c-25 -64 -34 -78 -132 -210 -84 -113 -144 -168 -252 -232
-95 -56 -145 -76 -235 -96 -106 -24 -111 -25 -222 -25 -70 0 -108 -4 -108 -11
0 -5 -5 -7 -12 -3 -7 4 -28 9 -48 11 -296 25 -622 99 -720 163 -14 10 -47 25
-75 36 -97 36 -288 159 -364 236 -32 31 -45 41 -33 23 58 -85 221 -208 382
-290 52 -26 109 -57 127 -70 75 -52 372 -130 538 -140 28 -2 57 -6 66 -10 38
-15 395 -9 405 7 3 4 18 8 34 8 16 0 41 5 57 11 15 6 39 13 53 15 38 6 160 55
202 81 21 13 35 28 32 36 -2 7 14 25 41 41 70 45 138 122 212 241 36 57 75
153 79 191 2 24 2 44 0 44 -2 0 -14 -26 -27 -57z"/>
<path d="M5408 1613 c6 -2 18 -2 25 0 6 3 1 5 -13 5 -14 0 -19 -2 -12 -5z"/>
<path d="M5458 1603 c7 -3 16 -2 19 1 4 3 -2 6 -13 5 -11 0 -14 -3 -6 -6z"/>
<path d="M5499 1597 c5 -5 19 -7 32 -5 20 3 19 5 -9 9 -20 3 -29 2 -23 -4z"/>
<path d="M241 11334 c0 -11 3 -14 6 -6 3 7 2 16 -1 19 -3 4 -6 -2 -5 -13z"/>
</g>
</svg>
