<?xml version="1.0" standalone="no"?>
<!DOCTYPE svg PUBLIC "-//W3C//DTD SVG 20010904//EN"
 "http://www.w3.org/TR/2001/REC-SVG-20010904/DTD/svg10.dtd">
<svg version="1.0" xmlns="http://www.w3.org/2000/svg"
 width="593.000000pt" height="177.000000pt" viewBox="0 0 593.000000 177.000000"
 preserveAspectRatio="xMidYMid meet">
<metadata>
Created by potrace 1.15, written by Peter Selinger 2001-2017
</metadata>
<g transform="translate(0.000000,177.000000) scale(0.100000,-0.100000)"
fill="#000000" stroke="none">
<path d="M2300 1673 c-118 -6 -139 -12 -186 -57 -24 -23 -44 -50 -44 -59 0 -9
-4 -17 -8 -17 -4 0 -14 -21 -21 -47 -8 -27 -19 -57 -25 -68 -6 -11 -11 -24
-12 -30 -1 -5 -13 -37 -28 -70 -48 -104 -63 -138 -86 -195 -12 -30 -35 -82
-51 -115 -16 -33 -29 -66 -29 -73 0 -7 -4 -20 -9 -30 -10 -18 -92 -238 -95
-256 -6 -26 -40 -132 -47 -146 -18 -35 -61 -136 -64 -154 -3 -10 -8 -23 -13
-30 -23 -28 -49 -122 -41 -144 5 -12 12 -22 16 -23 4 0 24 -2 43 -5 69 -8 415
-12 425 -4 6 4 26 8 46 8 20 1 48 6 63 12 15 5 61 10 102 10 41 0 82 4 92 9 9
5 29 14 45 20 41 16 34 43 -15 56 -5 2 -9 4 -10 5 -7 7 -105 6 -118 0 -8 -4
-46 -10 -85 -13 -38 -3 -81 -9 -95 -12 -53 -12 -210 -16 -210 -4 0 18 30 122
40 141 6 10 10 24 10 32 0 26 78 250 115 331 69 152 75 165 75 175 0 5 4 10
10 10 5 0 7 7 4 15 -5 12 6 15 62 16 38 0 89 0 114 -2 83 -4 234 6 255 19 13
7 13 11 1 27 -19 26 -87 44 -149 39 -95 -7 -257 -12 -257 -7 0 3 37 92 68 163
9 19 17 40 18 47 1 7 14 38 28 69 14 31 26 63 26 70 0 8 5 14 10 14 6 0 10 6
10 12 0 11 49 147 57 157 6 9 264 7 269 -1 3 -5 16 -2 29 6 26 17 84 14 95 -5
5 -7 10 -8 14 -1 3 6 27 9 54 8 54 -3 72 7 72 39 0 25 -28 39 -105 51 -41 6
-364 11 -465 7z"/>
<path d="M790 1660 c0 -6 -11 -15 -25 -20 -14 -5 -25 -14 -25 -19 0 -6 -13
-30 -30 -54 -16 -25 -30 -48 -30 -52 0 -3 -34 -77 -76 -163 -41 -86 -94 -197
-116 -247 -22 -49 -47 -102 -54 -117 -8 -15 -16 -41 -17 -58 -1 -16 -5 -30 -8
-30 -3 0 -21 -37 -39 -82 -17 -46 -43 -104 -56 -130 -13 -27 -21 -48 -17 -48
3 0 -1 -10 -9 -22 -8 -13 -25 -53 -37 -91 -13 -37 -28 -67 -33 -67 -6 0 -9 -3
-6 -6 9 -8 -32 -124 -59 -168 -14 -21 -27 -52 -30 -70 -4 -27 -1 -34 21 -44
15 -7 33 -12 40 -12 15 0 69 106 110 215 15 39 33 82 41 97 8 14 15 33 15 41
0 8 7 20 15 27 8 7 13 15 10 19 -2 4 7 29 20 55 13 26 29 64 36 84 6 20 20 49
30 64 11 14 19 32 19 40 0 7 9 28 20 46 11 18 20 41 20 51 0 10 6 24 14 30 8
7 17 24 21 39 8 34 46 113 63 130 6 7 12 20 12 28 0 8 4 14 8 14 7 0 28 -82
37 -140 2 -8 8 -44 14 -80 6 -36 13 -108 17 -160 3 -51 10 -105 16 -119 9 -25
63 -280 75 -353 3 -21 12 -43 19 -49 8 -6 14 -16 14 -21 0 -13 48 -51 69 -56
18 -4 20 -4 81 -4 25 0 62 0 83 0 62 0 93 40 122 156 13 52 28 102 33 113 5
10 12 36 16 58 8 46 25 102 37 127 5 10 9 28 9 41 0 12 9 39 20 60 11 20 17
37 14 37 -3 0 3 15 14 33 11 17 28 55 37 82 10 28 23 56 28 62 5 7 7 19 4 27
-3 8 3 30 13 49 10 19 16 38 12 41 -3 4 -2 10 4 14 15 10 44 67 44 88 0 9 11
32 24 49 14 18 28 45 32 61 4 16 10 34 14 39 4 6 17 41 29 78 11 38 27 81 35
95 8 15 23 50 34 79 22 56 18 63 -33 63 -64 0 -85 -29 -135 -185 -13 -38 -27
-76 -33 -83 -5 -7 -25 -56 -44 -110 -18 -53 -38 -98 -43 -100 -6 -2 -10 -12
-10 -23 0 -11 -7 -31 -16 -44 -9 -14 -13 -25 -9 -25 5 0 1 -8 -7 -17 -8 -10
-27 -52 -41 -93 -15 -41 -38 -106 -53 -145 -14 -38 -30 -87 -36 -107 -6 -21
-13 -38 -17 -38 -4 0 -8 -10 -8 -22 -1 -13 -15 -57 -30 -98 l-27 -75 -8 56
c-4 31 -16 85 -27 120 -24 81 -71 298 -71 336 -1 15 -7 57 -16 93 -23 104 -52
268 -64 365 -11 91 -39 191 -66 233 -14 22 -54 31 -54 12z"/>
<path d="M5506 1653 c-3 -3 -58 -7 -123 -8 -65 -2 -137 -8 -160 -13 -24 -6
-43 -8 -43 -6 0 3 -10 -1 -22 -8 -13 -7 -25 -13 -28 -13 -19 -3 -80 -30 -80
-35 0 -4 -10 -18 -21 -31 -30 -34 -85 -120 -93 -146 -4 -13 -12 -23 -18 -23
-6 0 -9 -3 -6 -6 4 -3 -3 -36 -13 -72 -33 -113 -22 -217 31 -292 11 -16 32
-54 46 -84 14 -31 30 -58 35 -61 5 -4 9 -14 9 -24 0 -9 9 -27 20 -39 11 -12
20 -28 20 -36 0 -8 5 -18 10 -21 6 -4 8 -10 5 -15 -3 -4 7 -32 22 -62 36 -68
35 -127 -2 -200 -37 -72 -50 -88 -123 -136 -101 -67 -95 -65 -215 -87 -65 -12
-131 -12 -210 -1 -49 8 -103 -16 -103 -44 0 -11 6 -20 13 -20 6 0 28 -10 48
-21 38 -23 36 -22 230 -13 92 4 111 6 155 18 14 3 39 8 55 10 17 2 43 8 58 15
16 6 32 11 37 11 4 0 10 7 14 15 3 8 12 15 19 15 20 0 130 67 140 85 4 8 12
15 17 15 10 0 70 59 70 69 0 4 8 16 18 27 10 10 27 34 37 52 11 17 23 32 27
32 4 0 8 9 8 19 0 11 4 23 10 26 10 6 27 62 40 127 5 26 3 43 -6 55 -7 10 -14
24 -14 31 0 22 -51 125 -78 157 -59 73 -134 190 -149 233 -11 34 -14 66 -10
118 12 134 33 199 66 206 22 5 51 30 45 40 -3 4 8 8 23 8 16 0 34 5 40 11 12
12 135 15 153 4 5 -3 11 -1 15 5 4 7 12 7 25 0 12 -7 21 -7 25 0 3 5 18 9 33
8 69 -4 101 2 107 22 9 28 -17 61 -59 75 -35 12 -140 18 -150 8z m-531 -683
c3 -5 1 -10 -4 -10 -6 0 -11 5 -11 10 0 6 2 10 4 10 3 0 8 -4 11 -10z"/>
<path d="M3198 1644 c-4 -3 -3 -16 2 -29 5 -13 7 -25 5 -27 -2 -2 -6 -35 -10
-73 -9 -108 -16 -169 -20 -185 -3 -8 -7 -44 -9 -80 -5 -66 -27 -246 -45 -375
-6 -38 -13 -101 -16 -140 -8 -100 -9 -105 -15 -105 -3 0 -6 -42 -7 -93 -1 -50
-4 -112 -6 -137 -3 -25 -6 -59 -6 -77 -1 -17 -8 -38 -16 -46 -12 -12 -12 -17
-1 -26 7 -6 11 -21 9 -34 -2 -12 1 -35 6 -51 9 -21 16 -27 31 -23 13 3 20 0
20 -9 0 -22 34 -16 58 9 12 13 22 26 22 30 0 9 60 96 84 122 10 11 49 67 87
125 38 58 76 112 84 121 8 9 15 21 15 28 0 6 11 24 24 38 13 14 30 37 37 52
13 25 25 42 79 111 14 18 32 44 40 58 44 77 156 242 165 242 6 0 18 14 27 31
18 31 38 32 36 1 -1 -19 12 -236 17 -292 2 -19 6 -89 10 -155 15 -293 25 -385
41 -407 6 -7 16 -42 23 -78 7 -36 17 -70 21 -75 5 -6 25 -12 46 -13 50 -4 96
33 119 95 10 26 31 74 47 105 15 32 28 59 27 60 -3 11 15 58 23 58 5 0 7 4 4
8 -4 7 6 36 40 107 8 17 17 46 20 65 4 19 13 47 20 62 8 15 14 43 14 61 0 19
11 55 25 78 14 24 25 51 25 61 0 9 17 51 37 95 20 43 38 89 39 102 2 13 7 27
12 30 4 3 14 33 22 66 7 33 18 69 24 80 6 11 11 25 12 30 0 6 10 33 23 60 12
28 26 59 30 70 5 11 16 39 26 62 9 23 14 46 11 52 -4 6 0 11 8 11 9 0 16 8 16
18 0 10 5 23 12 30 17 17 -5 60 -38 72 -44 17 -126 12 -154 -10 -14 -11 -34
-20 -45 -20 -15 0 -25 -13 -39 -52 -10 -29 -29 -81 -42 -115 -13 -35 -35 -93
-49 -130 -14 -38 -32 -79 -39 -93 -8 -14 -35 -88 -60 -165 -26 -77 -51 -147
-55 -155 -5 -9 -12 -31 -16 -50 -4 -19 -12 -44 -18 -55 -6 -11 -12 -22 -13
-25 0 -3 -4 -14 -8 -25 -4 -11 -13 -33 -19 -50 -6 -16 -12 -35 -13 -42 -5 -29
-26 -83 -34 -83 -4 0 -8 17 -8 38 0 20 -3 73 -6 117 -4 44 -8 112 -9 152 -1
39 -5 74 -9 78 -4 4 -3 18 2 31 5 13 8 29 5 36 -6 19 -16 150 -21 256 -2 51
-6 97 -9 102 -4 6 -3 16 2 22 4 7 6 26 4 41 -1 15 3 35 9 42 10 12 9 20 -3 39
-19 29 -82 46 -171 46 -63 0 -66 -1 -82 -32 -9 -17 -36 -59 -60 -93 -24 -35
-41 -65 -38 -67 2 -3 -6 -16 -18 -29 -26 -28 -98 -164 -98 -184 0 -7 -4 -15
-8 -17 -4 -1 -36 -59 -70 -128 -34 -69 -72 -141 -84 -160 -19 -30 -57 -103
-63 -120 -7 -19 -19 -46 -24 -50 -3 -3 -22 -38 -43 -79 l-36 -73 3 63 c1 35 6
82 10 104 5 22 8 65 8 95 0 30 3 60 8 66 5 6 9 38 8 70 0 33 2 82 5 109 3 28
8 70 10 95 3 25 8 88 12 140 3 52 10 100 14 105 4 6 6 26 5 45 -1 19 4 69 12
110 18 95 12 120 -26 120 -16 0 -36 2 -43 5 -8 3 -17 3 -20 -1z m-48 -1468 c0
-3 -4 -8 -10 -11 -5 -3 -10 -1 -10 4 0 6 5 11 10 11 6 0 10 -2 10 -4z"/>
</g>
</svg>
