<?xml version="1.0" encoding="UTF-8"?>
<svg width="164px" height="720px" viewBox="0 0 164 720" version="1.1" xmlns="http://www.w3.org/2000/svg" xmlns:xlink="http://www.w3.org/1999/xlink">
    <title>news</title>
    <g id="Home-pages" stroke="none" stroke-width="1" fill="none" fill-rule="evenodd">
        <g id="News" transform="translate(-192.000000, -37.000000)" fill="#000000" fill-rule="nonzero">
            <g id="news" transform="translate(192.000000, 37.000000)">
                <g id="Group" transform="translate(82.000000, 359.900000) scale(-1, 1) rotate(-180.000000) translate(-82.000000, -359.900000) translate(0.000000, 0.400000)">
                    <path d="M91.0478672,540.25625 C79.2478672,539.65625 77.1478672,539.05625 72.4478672,534.55625 C70.0478672,532.25625 68.0478672,529.55625 68.0478672,528.65625 C68.0478672,527.75625 67.6478672,526.95625 67.2478672,526.95625 C66.8478672,526.95625 65.8478672,524.85625 65.1478672,522.25625 C64.3478672,519.55625 63.2478672,516.55625 62.6478672,515.45625 C62.0478672,514.35625 61.5478672,513.05625 61.4478672,512.45625 C61.3478672,511.95625 60.1478672,508.75625 58.6478672,505.45625 C53.8478672,495.05625 52.3478672,491.65625 50.0478672,485.95625 C48.8478672,482.95625 46.5478672,477.75625 44.9478672,474.45625 C43.3478672,471.15625 42.0478672,467.85625 42.0478672,467.15625 C42.0478672,466.45625 41.6478672,465.15625 41.1478672,464.15625 C40.1478672,462.35625 31.9478672,440.35625 31.6478672,438.55625 C31.0478672,435.95625 27.6478672,425.35625 26.9478672,423.95625 C25.1478672,420.45625 20.8478672,410.35625 20.5478672,408.55625 C20.2478672,407.55625 19.7478672,406.25625 19.2478672,405.55625 C16.9478672,402.75625 14.3478672,393.35625 15.1478672,391.15625 C15.6478672,389.95625 16.3478672,388.95625 16.7478672,388.85625 C17.1478672,388.85625 19.1478672,388.65625 21.0478672,388.35625 C27.9478672,387.55625 62.5478672,387.15625 63.5478672,387.95625 C64.1478672,388.35625 66.1478672,388.75625 68.1478672,388.75625 C70.1478672,388.85625 72.9478672,389.35625 74.4478672,389.95625 C75.9478672,390.45625 80.5478672,390.95625 84.6478672,390.95625 C88.7478672,390.95625 92.8478672,391.35625 93.8478672,391.85625 C94.7478672,392.35625 96.7478672,393.25625 98.3478672,393.85625 C102.447867,395.45625 101.747867,398.15625 96.8478672,399.45625 C96.3478672,399.65625 95.9478672,399.85625 95.8478672,399.95625 C95.1478672,400.65625 85.3478672,400.55625 84.0478672,399.95625 C83.2478672,399.55625 79.4478672,398.95625 75.5478672,398.65625 C71.7478672,398.35625 67.4478672,397.75625 66.0478672,397.45625 C60.7478672,396.25625 45.0478672,395.85625 45.0478672,397.05625 C45.0478672,398.85625 48.0478672,409.25625 49.0478672,411.15625 C49.6478672,412.15625 50.0478672,413.55625 50.0478672,414.35625 C50.0478672,416.95625 57.8478672,439.35625 61.5478672,447.45625 C68.4478672,462.65625 69.0478672,463.95625 69.0478672,464.95625 C69.0478672,465.45625 69.4478672,465.95625 70.0478672,465.95625 C70.5478672,465.95625 70.7478672,466.65625 70.4478672,467.45625 C69.9478672,468.65625 71.0478672,468.95625 76.6478672,469.05625 C80.4478672,469.05625 85.5478672,469.05625 88.0478672,468.85625 C96.3478672,468.45625 111.447867,469.45625 113.547867,470.75625 C114.847867,471.45625 114.847867,471.85625 113.647867,473.45625 C111.747867,476.05625 104.947867,477.85625 98.7478672,477.35625 C89.2478672,476.65625 73.0478672,476.15625 73.0478672,476.65625 C73.0478672,476.95625 76.7478672,485.85625 79.8478672,492.95625 C80.7478672,494.85625 81.5478672,496.95625 81.6478672,497.65625 C81.7478672,498.35625 83.0478672,501.45625 84.4478672,504.55625 C85.8478672,507.65625 87.0478672,510.85625 87.0478672,511.55625 C87.0478672,512.35625 87.5478672,512.95625 88.0478672,512.95625 C88.6478672,512.95625 89.0478672,513.55625 89.0478672,514.15625 C89.0478672,515.25625 93.9478672,528.85625 94.7478672,529.85625 C95.3478672,530.75625 121.147867,530.55625 121.647867,529.75625 C121.947867,529.25625 123.247867,529.55625 124.547867,530.35625 C127.147867,532.05625 132.947867,531.75625 134.047867,529.85625 C134.547867,529.15625 135.047867,529.05625 135.447867,529.75625 C135.747867,530.35625 138.147867,530.65625 140.847867,530.55625 C146.247867,530.25625 148.047867,531.25625 148.047867,534.45625 C148.047867,536.95625 145.247867,538.35625 137.547867,539.55625 C133.447867,540.15625 101.147867,540.65625 91.0478672,540.25625 Z" id="Path"></path>
                    <path d="M76.9,717.9 C76.9,717.3 75.8,716.4 74.4,715.9 C73,715.4 71.9,714.5 71.9,714 C71.9,713.4 70.6,711 68.9,708.6 C67.3,706.1 65.9,703.8 65.9,703.4 C65.9,703.1 62.5,695.7 58.3,687.1 C54.2,678.5 48.9,667.4 46.7,662.4 C44.5,657.5 42,652.2 41.3,650.7 C40.5,649.2 39.7,646.6 39.6,644.9 C39.5,643.3 39.1,641.9 38.8,641.9 C38.5,641.9 36.7,638.2 34.9,633.7 C33.2,629.1 30.6,623.3 29.3,620.7 C28,618 27.2,615.9 27.6,615.9 C27.9,615.9 27.5,614.9 26.7,613.7 C25.9,612.4 24.2,608.4 23,604.6 C21.7,600.9 20.2,597.9 19.7,597.9 C19.1,597.9 18.8,597.6 19.1,597.3 C20,596.5 15.9,584.9 13.2,580.5 C11.8,578.4 10.5,575.3 10.2,573.5 C9.8,570.8 10.1,570.1 12.3,569.1 C13.8,568.4 15.6,567.9 16.3,567.9 C17.8,567.9 23.2,578.5 27.3,589.4 C28.8,593.3 30.6,597.6 31.4,599.1 C32.2,600.5 32.9,602.4 32.9,603.2 C32.9,604 33.6,605.2 34.4,605.9 C35.2,606.6 35.7,607.4 35.4,607.8 C35.2,608.2 36.1,610.7 37.4,613.3 C38.7,615.9 40.3,619.7 41,621.7 C41.6,623.7 43,626.6 44,628.1 C45.1,629.5 45.9,631.3 45.9,632.1 C45.9,632.8 46.8,634.9 47.9,636.7 C49,638.5 49.9,640.8 49.9,641.8 C49.9,642.8 50.5,644.2 51.3,644.8 C52.1,645.5 53,647.2 53.4,648.7 C54.2,652.1 58,660 59.7,661.7 C60.3,662.4 60.9,663.7 60.9,664.5 C60.9,665.3 61.3,665.9 61.7,665.9 C62.4,665.9 64.5,657.7 65.4,651.9 C65.6,651.1 66.2,647.5 66.8,643.9 C67.4,640.3 68.1,633.1 68.5,627.9 C68.8,622.8 69.5,617.4 70.1,616 C71,613.5 76.4,588 77.6,580.7 C77.9,578.6 78.8,576.4 79.5,575.8 C80.3,575.2 80.9,574.2 80.9,573.7 C80.9,572.4 85.7,568.6 87.8,568.1 C89.6,567.7 89.8,567.7 95.9,567.7 C98.4,567.7 102.1,567.7 104.2,567.7 C110.4,567.7 113.5,571.7 116.4,583.3 C117.7,588.5 119.2,593.5 119.7,594.6 C120.2,595.6 120.9,598.2 121.3,600.4 C122.1,605 123.8,610.6 125,613.1 C125.5,614.1 125.9,615.9 125.9,617.2 C125.9,618.4 126.8,621.1 127.9,623.2 C129,625.2 129.6,626.9 129.3,626.9 C129,626.9 129.6,628.4 130.7,630.2 C131.8,631.9 133.5,635.7 134.4,638.4 C135.4,641.2 136.7,644 137.2,644.6 C137.7,645.3 137.9,646.5 137.6,647.3 C137.3,648.1 137.9,650.3 138.9,652.2 C139.9,654.1 140.5,656 140.1,656.3 C139.8,656.7 139.9,657.3 140.5,657.7 C142,658.7 144.9,664.4 144.9,666.5 C144.9,667.4 146,669.7 147.3,671.4 C148.7,673.2 150.1,675.9 150.5,677.5 C150.9,679.1 151.5,680.9 151.9,681.4 C152.3,682 153.6,685.5 154.8,689.2 C155.9,693 157.5,697.3 158.3,698.7 C159.1,700.2 160.6,703.7 161.7,706.6 C163.9,712.2 163.5,712.9 158.4,712.9 C152,712.9 149.9,710 144.9,694.4 C143.6,690.6 142.2,686.8 141.6,686.1 C141.1,685.4 139.1,680.5 137.2,675.1 C135.4,669.8 133.4,665.3 132.9,665.1 C132.3,664.9 131.9,663.9 131.9,662.8 C131.9,661.7 131.2,659.7 130.3,658.4 C129.4,657 129,655.9 129.4,655.9 C129.9,655.9 129.5,655.1 128.7,654.2 C127.9,653.2 126,649 124.6,644.9 C123.1,640.8 120.8,634.3 119.3,630.4 C117.9,626.6 116.3,621.7 115.7,619.7 C115.1,617.6 114.4,615.9 114,615.9 C113.6,615.9 113.2,614.9 113.2,613.7 C113.1,612.4 111.7,608 110.2,603.9 L107.5,596.4 L106.7,602 C106.3,605.1 105.1,610.5 104,614 C101.6,622.1 96.9,643.8 96.9,647.6 C96.8,649.1 96.2,653.3 95.3,656.9 C93,667.3 90.1,683.7 88.9,693.4 C87.8,702.5 85,712.5 82.3,716.7 C80.9,718.9 76.9,719.8 76.9,717.9 Z" id="Path"></path>
                    <path d="M106.2,152.895121 C105.9,152.595121 100.4,152.195121 93.9,152.095121 C87.4,151.895121 80.2,151.295121 77.9,150.795121 C75.5,150.195121 73.6,149.995121 73.6,150.195121 C73.6,150.495121 72.6,150.095121 71.4,149.395121 C70.1,148.695121 68.9,148.095121 68.6,148.095121 C66.7,147.795121 60.6,145.095121 60.6,144.595121 C60.6,144.195121 59.6,142.795121 58.5,141.495121 C55.5,138.095121 50,129.495121 49.2,126.895121 C48.8,125.595121 48,124.595121 47.4,124.595121 C46.8,124.595121 46.5,124.295121 46.8,123.995121 C47.2,123.695121 46.5,120.395121 45.5,116.795121 C42.2,105.495121 43.3,95.0951212 48.6,87.5951212 C49.7,85.9951212 51.8,82.1951212 53.2,79.1951212 C54.6,76.0951212 56.2,73.3951212 56.7,73.0951212 C57.2,72.6951212 57.6,71.6951212 57.6,70.6951212 C57.6,69.7951212 58.5,67.9951212 59.6,66.7951212 C60.7,65.5951212 61.6,63.9951212 61.6,63.1951212 C61.6,62.3951212 62.1,61.3951212 62.6,61.0951212 C63.2,60.6951212 63.4,60.0951212 63.1,59.5951212 C62.8,59.1951212 63.8,56.3951212 65.3,53.3951212 C68.9,46.5951212 68.8,40.6951212 65.1,33.3951212 C61.4,26.1951212 60.1,24.5951212 52.8,19.7951212 C42.7,13.0951212 43.3,13.2951212 31.3,11.0951212 C24.8,9.89512125 18.2,9.89512125 10.3,10.9951212 C5.4,11.7951212 -9.97602001e-11,9.39512125 -9.97602001e-11,6.59512125 C-9.97602001e-11,5.49512125 0.6,4.59512125 1.3,4.59512125 C1.9,4.59512125 4.1,3.59512125 6.1,2.49512125 C9.9,0.195121249 9.7,0.295121249 29.1,1.19512125 C38.3,1.59512125 40.2,1.79512125 44.6,2.99512125 C46,3.29512125 48.5,3.79512125 50.1,3.99512125 C51.8,4.19512125 54.4,4.79512125 55.9,5.49512125 C57.5,6.09512125 59.1,6.59512125 59.6,6.59512125 C60,6.59512125 60.6,7.29512125 61,8.09512125 C61.3,8.89512125 62.2,9.59512125 62.9,9.59512125 C64.9,9.59512125 75.9,16.2951212 76.9,18.0951212 C77.3,18.8951212 78.1,19.5951212 78.6,19.5951212 C79.6,19.5951212 85.6,25.4951212 85.6,26.4951212 C85.6,26.8951212 86.4,28.0951212 87.4,29.1951212 C88.4,30.1951212 90.1,32.5951212 91.1,34.3951212 C92.2,36.0951212 93.4,37.5951212 93.8,37.5951212 C94.2,37.5951212 94.6,38.4951212 94.6,39.4951212 C94.6,40.5951212 95,41.7951212 95.6,42.0951212 C96.6,42.6951212 98.3,48.2951212 99.6,54.7951212 C100.1,57.3951212 99.9,59.0951212 99,60.2951212 C98.3,61.2951212 97.6,62.6951212 97.6,63.3951212 C97.6,65.5951212 92.5,75.8951212 89.8,79.0951212 C83.9,86.3951212 76.4,98.0951212 74.9,102.395121 C73.8,105.795121 73.5,108.995121 73.9,114.195121 C75.1,127.595121 77.2,134.095121 80.5,134.795121 C82.7,135.295121 85.6,137.795121 85,138.795121 C84.7,139.195121 85.8,139.595121 87.3,139.595121 C88.9,139.595121 90.7,140.095121 91.3,140.695121 C92.5,141.895121 104.8,142.195121 106.6,141.095121 C107.1,140.795121 107.7,140.995121 108.1,141.595121 C108.5,142.295121 109.3,142.295121 110.6,141.595121 C111.8,140.895121 112.7,140.895121 113.1,141.595121 C113.4,142.095121 114.9,142.495121 116.4,142.395121 C123.3,141.995121 126.5,142.595121 127.1,144.595121 C128,147.395121 125.4,150.695121 121.2,152.095121 C117.7,153.295121 107.2,153.895121 106.2,152.895121 Z M53.1,84.5951212 C53.4,84.0951212 53.2,83.5951212 52.7,83.5951212 C52.1,83.5951212 51.6,84.0951212 51.6,84.5951212 C51.6,85.1951212 51.8,85.5951212 52,85.5951212 C52.3,85.5951212 52.8,85.1951212 53.1,84.5951212 Z" id="Shape"></path>
                    <path d="M15.2129077,343.086156 C14.8129077,342.786156 14.9129077,341.486156 15.4129077,340.186156 C15.9129077,338.886156 16.1129077,337.686156 15.9129077,337.486156 C15.7129077,337.286156 15.3129077,333.986156 14.9129077,330.186156 C14.0129077,319.386156 13.3129077,313.286156 12.9129077,311.686156 C12.6129077,310.886156 12.2129077,307.286156 12.0129077,303.686156 C11.5129077,297.086156 9.31290774,279.086156 7.51290774,266.186156 C6.91290774,262.386156 6.21290774,256.086156 5.91290774,252.186156 C5.11290774,242.186156 5.01290774,241.686156 4.41290774,241.686156 C4.11290774,241.686156 3.81290774,237.486156 3.71290774,232.386156 C3.61290774,227.386156 3.31290774,221.186156 3.11290774,218.686156 C2.81290774,216.186156 2.51290774,212.786156 2.51290774,210.986156 C2.41290774,209.286156 1.71290774,207.186156 0.912907737,206.386156 C-0.287092263,205.186156 -0.287092263,204.686156 0.812907737,203.786156 C1.51290774,203.186156 1.91290774,201.686156 1.71290774,200.386156 C1.51290774,199.186156 1.81290774,196.886156 2.31290774,195.286156 C3.21290774,193.186156 3.91290774,192.586156 5.41290774,192.986156 C6.71290774,193.286156 7.41290774,192.986156 7.41290774,192.086156 C7.41290774,189.886156 10.8129077,190.486156 13.2129077,192.986156 C14.4129077,194.286156 15.4129077,195.586156 15.4129077,195.986156 C15.4129077,196.886156 21.4129077,205.586156 23.8129077,208.186156 C24.8129077,209.286156 28.7129077,214.886156 32.5129077,220.686156 C36.3129077,226.486156 40.1129077,231.886156 40.9129077,232.786156 C41.7129077,233.686156 42.4129077,234.886156 42.4129077,235.586156 C42.4129077,236.186156 43.5129077,237.986156 44.8129077,239.386156 C46.1129077,240.786156 47.8129077,243.086156 48.5129077,244.586156 C49.8129077,247.086156 51.0129077,248.786156 56.4129077,255.686156 C57.8129077,257.486156 59.6129077,260.086156 60.4129077,261.486156 C64.8129077,269.186156 76.0129077,285.686156 76.9129077,285.686156 C77.5129077,285.686156 78.7129077,287.086156 79.6129077,288.786156 C81.4129077,291.886156 83.4129077,291.986156 83.2129077,288.886156 C83.1129077,286.986156 84.4129077,265.286156 84.9129077,259.686156 C85.1129077,257.786156 85.5129077,250.786156 85.9129077,244.186156 C87.4129077,214.886156 88.4129077,205.686156 90.0129077,203.486156 C90.6129077,202.786156 91.6129077,199.286156 92.3129077,195.686156 C93.0129077,192.086156 94.0129077,188.686156 94.4129077,188.186156 C94.9129077,187.586156 96.9129077,186.986156 99.0129077,186.886156 C104.012908,186.486156 108.612908,190.186156 110.912908,196.386156 C111.912908,198.986156 114.012908,203.786156 115.612908,206.886156 C117.112908,210.086156 118.412908,212.786156 118.312908,212.886156 C118.012908,213.986156 119.812908,218.686156 120.612908,218.686156 C121.112908,218.686156 121.312908,219.086156 121.012908,219.486156 C120.612908,220.186156 121.612908,223.086156 125.012908,230.186156 C125.812908,231.886156 126.712908,234.786156 127.012908,236.686156 C127.412908,238.586156 128.312908,241.386156 129.012908,242.886156 C129.812908,244.386156 130.412908,247.186156 130.412908,248.986156 C130.412908,250.886156 131.512908,254.486156 132.912908,256.786156 C134.312908,259.186156 135.412908,261.886156 135.412908,262.886156 C135.412908,263.786156 137.112908,267.986156 139.112908,272.386156 C141.112908,276.686156 142.912908,281.286156 143.012908,282.586156 C143.212908,283.886156 143.712908,285.286156 144.212908,285.586156 C144.612908,285.886156 145.612908,288.886156 146.412908,292.186156 C147.112908,295.486156 148.212908,299.086156 148.812908,300.186156 C149.412908,301.286156 149.912908,302.686156 150.012908,303.186156 C150.012908,303.786156 151.012908,306.486156 152.312908,309.186156 C153.512908,311.986156 154.912908,315.086156 155.312908,316.186156 C155.812908,317.286156 156.912908,320.086156 157.912908,322.386156 C158.812908,324.686156 159.312908,326.986156 159.012908,327.586156 C158.612908,328.186156 159.012908,328.686156 159.812908,328.686156 C160.712908,328.686156 161.412908,329.486156 161.412908,330.486156 C161.412908,331.486156 161.912908,332.786156 162.612908,333.486156 C164.312908,335.186156 162.112908,339.486156 158.812908,340.686156 C154.412908,342.386156 146.212908,341.886156 143.412908,339.686156 C142.012908,338.586156 140.012908,337.686156 138.912908,337.686156 C137.412908,337.686156 136.412908,336.386156 135.012908,332.486156 C134.012908,329.586156 132.112908,324.386156 130.812908,320.986156 C129.512908,317.486156 127.312908,311.686156 125.912908,307.986156 C124.512908,304.186156 122.712908,300.086156 122.012908,298.686156 C121.212908,297.286156 118.512908,289.886156 116.012908,282.186156 C113.412908,274.486156 110.912908,267.486156 110.512908,266.686156 C110.012908,265.786156 109.312908,263.586156 108.912908,261.686156 C108.512908,259.786156 107.712908,257.286156 107.112908,256.186156 C106.512908,255.086156 105.912908,253.986156 105.812908,253.686156 C105.812908,253.386156 105.412908,252.286156 105.012908,251.186156 C104.612908,250.086156 103.712908,247.886156 103.112908,246.186156 C102.512908,244.586156 101.912908,242.686156 101.812908,241.986156 C101.312908,239.086156 99.2129077,233.686156 98.4129077,233.686156 C98.0129077,233.686156 97.6129077,235.386156 97.6129077,237.486156 C97.6129077,239.486156 97.3129077,244.786156 97.0129077,249.186156 C96.6129077,253.586156 96.2129077,260.386156 96.1129077,264.386156 C96.0129077,268.286156 95.6129077,271.786156 95.2129077,272.186156 C94.8129077,272.586156 94.9129077,273.986156 95.4129077,275.286156 C95.9129077,276.586156 96.2129077,278.186156 95.9129077,278.886156 C95.3129077,280.786156 94.3129077,293.886156 93.8129077,304.486156 C93.6129077,309.586156 93.2129077,314.186156 92.9129077,314.686156 C92.5129077,315.286156 92.6129077,316.286156 93.1129077,316.886156 C93.5129077,317.586156 93.7129077,319.486156 93.5129077,320.986156 C93.4129077,322.486156 93.8129077,324.486156 94.4129077,325.186156 C95.4129077,326.386156 95.3129077,327.186156 94.1129077,329.086156 C92.2129077,331.986156 85.9129077,333.686156 77.0129077,333.686156 C70.7129077,333.686156 70.4129077,333.586156 68.8129077,330.486156 C67.9129077,328.786156 65.2129077,324.586156 62.8129077,321.186156 C60.4129077,317.686156 58.7129077,314.686156 59.0129077,314.486156 C59.2129077,314.186156 58.4129077,312.886156 57.2129077,311.586156 C54.6129077,308.786156 47.4129077,295.186156 47.4129077,293.186156 C47.4129077,292.486156 47.0129077,291.686156 46.6129077,291.486156 C46.2129077,291.386156 43.0129077,285.586156 39.6129077,278.686156 C36.2129077,271.786156 32.4129077,264.586156 31.2129077,262.686156 C29.3129077,259.686156 25.5129077,252.386156 24.9129077,250.686156 C24.2129077,248.786156 23.0129077,246.086156 22.5129077,245.686156 C22.2129077,245.386156 20.3129077,241.886156 18.2129077,237.786156 L14.6129077,230.486156 L14.9129077,236.786156 C15.0129077,240.286156 15.5129077,244.986156 15.9129077,247.186156 C16.4129077,249.386156 16.7129077,253.686156 16.7129077,256.686156 C16.7129077,259.686156 17.0129077,262.686156 17.5129077,263.286156 C18.0129077,263.886156 18.4129077,267.086156 18.3129077,270.286156 C18.3129077,273.586156 18.5129077,278.486156 18.8129077,281.186156 C19.1129077,283.986156 19.6129077,288.186156 19.8129077,290.686156 C20.1129077,293.186156 20.6129077,299.486156 21.0129077,304.686156 C21.3129077,309.886156 22.0129077,314.686156 22.4129077,315.186156 C22.8129077,315.786156 23.0129077,317.786156 22.9129077,319.686156 C22.8129077,321.586156 23.3129077,326.586156 24.1129077,330.686156 C25.9129077,340.186156 25.3129077,342.686156 21.5129077,342.686156 C19.9129077,342.686156 17.9129077,342.886156 17.2129077,343.186156 C16.4129077,343.486156 15.5129077,343.486156 15.2129077,343.086156 Z M10.4129077,196.286156 C10.4129077,195.986156 10.0129077,195.486156 9.41290774,195.186156 C8.91290774,194.886156 8.41290774,195.086156 8.41290774,195.586156 C8.41290774,196.186156 8.91290774,196.686156 9.41290774,196.686156 C10.0129077,196.686156 10.4129077,196.486156 10.4129077,196.286156 Z" id="Shape"></path>
                </g>
            </g>
        </g>
    </g>
</svg>