<?xml version="1.0" encoding="UTF-8"?>
<svg width="859px" height="138px" viewBox="0 0 859 138" version="1.1" xmlns="http://www.w3.org/2000/svg" xmlns:xlink="http://www.w3.org/1999/xlink">
    <title>projects copy</title>
    <defs>
        <filter id="filter-1">
            <feColorMatrix in="SourceGraphic" type="matrix" values="0 0 0 0 1.000000 0 0 0 0 1.000000 0 0 0 0 1.000000 0 0 0 1.000000 0"></feColorMatrix>
        </filter>
    </defs>
    <g id="Home-pages" stroke="none" stroke-width="1" fill="none" fill-rule="evenodd">
        <g id="projects-copy" transform="translate(0.000000, -458.000000)" filter="url(#filter-1)">
            <g transform="translate(0.000000, 458.000000)">
                <g id="Group" transform="translate(429.045205, 68.576712) scale(-1, 1) rotate(-180.000000) translate(-429.045205, -68.576712) translate(0.180822, 0.090411)" fill="#000000" fill-rule="nonzero">
                    <path d="M66.2712329,136.068493 C55.8739726,134.350685 54.3369863,134.079452 49.9972603,133.89863 C47.5561644,133.808219 42.4027397,132.542466 38.6958904,131.276712 C34.9890411,129.920548 30.1068493,128.293151 27.8465753,127.660274 C24.4109589,126.756164 24.139726,126.484932 25.8575342,126.032877 C28.0273973,125.4 28.3890411,123.320548 26.9424658,119.342466 C26.4,118.076712 25.2246575,112.019178 24.230137,105.961644 C23.2356164,99.9945205 21.4273973,90.7726027 20.2520548,85.5287671 C18.9863014,80.2849315 17.3589041,72.1479452 16.4547945,67.4465753 C15.6410959,62.7452055 14.0136986,56.2356164 12.9287671,52.9808219 C10.3972603,45.8383562 9.40273973,41.2273973 7.05205479,27.2136986 C4.79178082,14.1945205 3.70684932,10.7589041 1.35616438,10.1260274 C-0.180821918,9.76438356 -0.271232877,9.49315068 0.723287671,8.22739726 C1.35616438,7.50410959 2.07945205,7.05205479 2.35068493,7.32328767 C2.62191781,7.59452055 3.61643836,7.14246575 4.52054795,6.23835616 C5.78630137,5.15342466 7.95616438,4.79178082 14.1041096,4.79178082 C23.7780822,4.79178082 25.5863014,5.60547945 26.7616438,10.6684932 C28.2082192,16.9068493 33.1808219,36.7068493 34.6273973,42.1315068 C35.3506849,44.8438356 36.1643836,48.6410959 36.4356164,50.539726 C36.8876712,54.1561644 40.0520548,64.3726027 41.2273973,66.2712329 C41.6794521,66.9945205 46.109589,67.5369863 53.9753425,67.8986301 C60.6657534,68.169863 66.8136986,68.8027397 67.8082192,69.3452055 C68.8027397,69.8876712 70.6109589,70.5205479 71.8767123,70.7013699 C73.1424658,70.9726027 75.0410959,71.6958904 76.0356164,72.4191781 C77.1205479,73.0520548 80.6465753,73.7753425 83.9013699,73.9561644 C87.1561644,74.2273973 90.5917808,74.860274 91.6767123,75.4027397 C95.9260274,77.6630137 101.983562,84.8958904 101.983562,87.6986301 C101.983562,88.4219178 102.526027,89.5972603 103.158904,90.230137 C104.243836,91.2246575 106.956164,104.69589 106.775342,107.679452 C106.50411,111.838356 105.328767,118.076712 104.515068,120.336986 C101.80274,127.208219 93.7561644,133.084932 84.0821918,135.345205 C76.6684932,137.153425 73.4136986,137.334247 66.2712329,136.068493 Z M79.7424658,127.117808 C82.9068493,125.128767 84.1726027,123.50137 84.4438356,120.336986 C84.5342466,119.342466 84.6246575,118.347945 84.8054795,118.076712 C85.9808219,115.00274 84.5342466,100.084932 82.4547945,95.4739726 C78.2958904,85.890411 74.2273973,78.9287671 72.1479452,77.8438356 C69.2547945,76.3972603 56.1452055,73.6849315 52.6191781,73.8657534 C51.1726027,73.9561644 48.460274,73.6849315 46.6520548,73.3232877 C44.3917808,72.8712329 43.2164384,72.9616438 43.2164384,73.5945205 C43.2164384,75.3123288 45.7479452,84.0821918 47.2849315,87.6082192 C48.0986301,89.5068493 49.9972603,95.8356164 51.4438356,101.621918 C52.9808219,107.408219 54.8794521,114.460274 55.6027397,117.172603 C56.3260274,119.884932 57.139726,123.230137 57.4109589,124.586301 C57.7726027,126.665753 58.4958904,127.117808 61.7506849,127.660274 C63.9205479,127.931507 66.090411,127.931507 66.6328767,127.569863 C67.1753425,127.29863 67.6273973,127.389041 67.6273973,127.750685 C67.6273973,129.468493 76.5780822,128.926027 79.7424658,127.117808 Z M23.3260274,11.9342466 C23.3260274,11.6630137 22.9643836,11.2109589 22.4219178,10.939726 C21.969863,10.6684932 21.5178082,10.8493151 21.5178082,11.3013699 C21.5178082,11.8438356 21.969863,12.2958904 22.4219178,12.2958904 C22.9643836,12.2958904 23.3260274,12.1150685 23.3260274,11.9342466 Z" id="Shape"></path>
                    <path d="M170.69589,129.739726 C170.69589,129.468493 167.712329,129.287671 164.186301,129.378082 C160.569863,129.468493 155.59726,129.016438 153.065753,128.383562 C150.624658,127.750685 146.646575,127.117808 144.29589,127.027397 C141.854795,126.936986 139.956164,126.484932 139.956164,126.032877 C139.956164,125.671233 139.684932,125.4 139.323288,125.490411 C137.605479,126.032877 132.723288,123.139726 132.723288,121.693151 C132.723288,120.789041 132.090411,118.528767 131.276712,116.630137 C130.463014,114.641096 129.558904,111.928767 129.378082,110.482192 C129.106849,109.126027 128.20274,105.509589 127.208219,102.526027 C126.30411,99.4520548 125.490411,96.4684932 125.490411,95.8356164 C125.490411,95.1123288 125.038356,94.569863 124.49589,94.569863 C124.043836,94.569863 123.772603,94.2082192 124.043836,93.8465753 C124.224658,93.4849315 123.50137,90.139726 122.235616,86.4328767 C121.060274,82.7260274 119.884932,78.6575342 119.613699,77.3917808 C119.342466,76.1260274 118.528767,72.8712329 117.805479,70.1589041 C116.991781,67.4465753 116.087671,64.1917808 115.816438,62.9260274 C115.545205,61.660274 114.369863,58.0438356 113.10411,54.8794521 C111.838356,51.7150685 110.663014,48.0082192 110.482192,46.7424658 C109.668493,42.2219178 106.413699,29.3835616 105.509589,26.9424658 C104.967123,25.5863014 103.972603,21.8794521 103.249315,18.6246575 C101.893151,12.2054795 99.4520548,5.96712329 98.1863014,5.96712329 C97.8246575,5.96712329 97.4630137,5.60547945 97.4630137,5.0630137 C97.4630137,4.6109589 98.0958904,4.15890411 98.8191781,4.15890411 C99.5424658,4.15890411 100.175342,3.61643836 100.175342,2.98356164 C100.175342,2.26027397 100.89863,1.62739726 101.80274,1.5369863 C103.068493,1.44657534 119.252055,1.26575342 121.060274,1.44657534 C121.421918,1.44657534 123.953425,11.9342466 124.134247,14.2849315 C124.134247,14.5561644 124.405479,15.1890411 124.857534,15.5506849 C125.219178,15.9123288 125.490411,17.630137 125.490411,19.4383562 C125.580822,21.2465753 126.213699,24.3205479 126.936986,26.309589 C127.750685,28.2986301 128.745205,32.1863014 129.287671,34.8986301 C129.739726,37.6109589 130.282192,40.3232877 130.372603,40.7753425 C130.463014,41.3178082 130.734247,42.1315068 131.005479,42.5835616 C131.367123,43.1260274 132.090411,45.7479452 132.723288,48.460274 C133.356164,51.1726027 134.169863,53.8849315 134.531507,54.3369863 C134.893151,54.8794521 135.435616,56.5068493 135.79726,57.9534247 C136.158904,59.490411 137.063014,62.7452055 137.786301,65.2767123 L139.232877,69.9780822 L144.838356,70.0684932 C147.821918,70.1589041 151.980822,70.339726 154.060274,70.430137 L157.676712,70.6109589 L159.30411,61.569863 C161.564384,48.369863 163.372603,39.9616438 165.723288,31.2821918 C166.89863,27.0328767 168.164384,21.6082192 168.435616,19.1671233 C168.706849,16.8164384 169.610959,13.109589 170.334247,11.030137 C171.057534,9.04109589 171.961644,6.6 172.232877,5.69589041 C172.594521,4.70136986 173.408219,4.15890411 174.673973,4.33972603 C175.758904,4.43013699 178.109589,3.61643836 179.827397,2.53150685 C183.353425,0.452054795 191.128767,-0.81369863 192.032877,0.632876712 C192.30411,1.08493151 192.846575,1.26575342 193.29863,0.994520548 C193.660274,0.723287671 194.20274,1.17534247 194.473973,1.80821918 C195.19726,3.70684932 194.383562,10.7589041 193.29863,11.3917808 C192.394521,11.9342466 190.49589,20.4328767 191.309589,20.4328767 C191.490411,20.4328767 191.309589,20.9753425 190.767123,21.6082192 C190.224658,22.2410959 189.591781,23.7780822 189.320548,24.9534247 C189.049315,26.2191781 188.145205,29.2931507 187.421918,31.7342466 C185.70411,37.0684932 184.8,40.3232877 182.810959,48.9123288 C181.99726,52.4383562 181.00274,55.4219178 180.550685,55.6931507 C180.189041,55.9643836 179.736986,58.1342466 179.646575,60.4849315 C179.465753,62.8356164 179.10411,64.7342466 178.652055,64.7342466 C178.290411,64.7342466 178.290411,65.6383562 178.742466,66.8136986 C179.194521,67.8986301 179.194521,69.6164384 178.832877,70.6109589 C178.019178,72.690411 179.194521,73.7753425 182.449315,73.7753425 C183.805479,73.7753425 185.161644,74.1369863 185.613699,74.5890411 C186.156164,75.0410959 189.591781,76.2164384 193.208219,77.3013699 C198.180822,78.6575342 200.531507,79.8328767 201.978082,81.6410959 C203.063014,83.0876712 203.786301,84.4438356 203.605479,84.7150685 C203.424658,85.0767123 203.967123,85.2575342 204.780822,85.1671233 C205.684932,85.1671233 206.950685,86.2520548 207.673973,87.7890411 C210.024658,92.2191781 213.09863,102.164384 212.465753,103.158904 C212.194521,103.610959 211.832877,105.509589 211.742466,107.227397 C211.380822,113.013699 209.30137,118.980822 207.583562,118.980822 C207.221918,118.980822 206.860274,119.342466 206.860274,119.794521 C206.860274,120.969863 202.430137,125.580822 199.627397,127.208219 C195.920548,129.468493 187.60274,130.824658 178.923288,130.643836 C174.40274,130.463014 170.69589,130.10137 170.69589,129.739726 Z M186.608219,121.964384 C190.224658,121.421918 194.112329,118.257534 194.654795,115.545205 C196.463014,105.871233 193.479452,92.4 188.687671,88.1506849 C187.783562,87.3369863 187.241096,86.5232877 187.512329,86.2520548 C187.783562,85.9808219 184.980822,84.8054795 181.364384,83.7205479 C177.747945,82.5452055 173.769863,81.1890411 172.50411,80.5561644 C170.153425,79.3808219 164.638356,78.4767123 156.230137,77.8438356 C153.517808,77.6630137 149.268493,77.1205479 146.736986,76.5780822 C144.29589,76.1260274 142.035616,75.8547945 141.854795,76.1260274 C141.312329,76.6684932 150.263014,103.158904 153.427397,110.391781 C153.879452,111.386301 154.783562,114.09863 155.326027,116.539726 C155.958904,118.890411 156.863014,121.060274 157.405479,121.421918 C157.947945,121.783562 162.830137,122.145205 168.345205,122.326027 C173.769863,122.506849 178.471233,122.868493 178.742466,123.049315 C178.923288,123.320548 180.189041,123.230137 181.454795,122.958904 C182.720548,122.687671 185.071233,122.235616 186.608219,121.964384 Z M165.90411,48.2794521 C165.632877,47.5561644 165.361644,47.8273973 165.361644,48.8219178 C165.271233,49.8164384 165.542466,50.3589041 165.813699,49.9972603 C166.084932,49.7260274 166.175342,48.9123288 165.90411,48.2794521 Z" id="Shape"></path>
                    <path d="M841.906849,129.920548 C841.635616,129.649315 839.736986,129.287671 837.657534,129.19726 C827.621918,128.654795 817.49589,126.846575 816.230137,125.309589 C815.958904,125.038356 813.789041,123.772603 811.347945,122.59726 C805.109589,119.432877 797.69589,111.657534 795.978082,106.413699 C793.175342,98.0958904 791.728767,84.6246575 793.175342,81.2794521 C793.627397,80.3753425 793.989041,79.4712329 794.079452,79.2 C794.079452,78.9287671 795.073973,76.939726 796.249315,74.769863 C798.057534,71.3342466 800.136986,68.5315068 808.816438,57.9534247 C810.715068,55.6027397 813.517808,50.1780822 812.523288,50.8109589 C811.619178,51.3534247 811.438356,50.1780822 811.709589,46.7424658 C811.980822,43.0356164 806.284932,29.6547945 802.487671,25.4054795 C800.49863,23.1452055 798.328767,21.3369863 797.605479,21.3369863 C796.882192,21.3369863 796.339726,20.9753425 796.339726,20.4328767 C796.339726,18.4438356 789.016438,16.3643836 783.230137,16.6356164 C782.235616,16.7260274 778.167123,16.9068493 774.189041,17.1780822 C770.210959,17.3589041 766.956164,17.630137 766.956164,17.7205479 C766.956164,17.7205479 765.419178,17.9917808 763.520548,18.1726027 C761.079452,18.4438356 759.90411,18.1726027 759.542466,17.2684932 C759.271233,16.5452055 758.638356,15.9123288 758.005479,15.9123288 C757.463014,15.9123288 755.835616,14.8273973 754.29863,13.5616438 C752.852055,12.2958904 752.128767,11.5726027 752.852055,11.9342466 C753.484932,12.2054795 754.29863,12.1150685 754.660274,11.5726027 C755.021918,11.030137 757.463014,10.3972603 760.175342,10.1260274 C762.887671,9.94520548 766.956164,9.22191781 769.126027,8.67945205 C772.380822,7.68493151 773.194521,7.68493151 773.827397,8.76986301 C774.369863,9.6739726 774.821918,9.76438356 775.364384,9.04109589 C776.087671,7.95616438 782.778082,7.86575342 782.778082,8.95068493 C782.778082,9.31232877 785.761644,9.58356164 789.378082,9.49315068 C793.084932,9.40273973 796.972603,9.85479452 797.967123,10.3972603 C799.052055,11.030137 799.956164,11.2109589 799.956164,10.939726 C799.956164,10.6684932 801.40274,11.030137 803.210959,11.8438356 C804.928767,12.5671233 806.736986,13.109589 807.09863,12.9287671 C808.093151,12.6575342 819.123288,19.9808219 821.564384,22.6027397 C822.830137,23.8684932 823.553425,24.9534247 823.191781,24.9534247 C822.920548,24.9534247 823.824658,26.2191781 825.361644,27.8465753 C826.808219,29.4739726 828.435616,32.1863014 828.978082,33.9041096 C829.610959,35.6219178 830.786301,38.2438356 831.6,39.7808219 C832.684932,41.769863 833.227397,44.7534247 833.227397,49.8164384 C833.317808,57.9534247 832.50411,66.9041096 831.780822,66.1808219 C831.509589,65.909589 830.153425,67.2657534 828.706849,69.1643836 C827.350685,71.0630137 825.180822,73.3232877 823.915068,74.1369863 C822.649315,74.9506849 821.654795,76.1260274 821.654795,76.6684932 C821.654795,77.2109589 821.112329,78.3863014 820.389041,79.109589 C819.756164,79.9232877 817.676712,83.3589041 815.778082,86.7945205 C812.613699,92.8520548 812.523288,93.3041096 813.065753,99.4520548 C813.427397,102.978082 813.69863,106.413699 813.789041,107.046575 C813.789041,107.589041 814.150685,108.131507 814.60274,108.131507 C814.964384,108.131507 815.326027,108.764384 815.326027,109.578082 C815.326027,111.205479 818.761644,114.369863 820.569863,114.460274 C821.112329,114.460274 821.654795,114.821918 821.654795,115.183562 C821.654795,116.087671 829.339726,119.884932 831.147945,119.884932 C831.871233,119.884932 832.50411,119.342466 832.50411,118.8 C832.50411,117.89589 832.684932,117.89589 833.227397,118.709589 C833.589041,119.252055 836.482192,120.156164 839.736986,120.608219 C842.991781,121.150685 846.427397,121.693151 847.421918,121.964384 C848.416438,122.145205 850.947945,122.687671 853.027397,123.049315 C855.19726,123.410959 857.09589,123.953425 857.367123,124.405479 C859.084932,127.117808 852.394521,130.734247 846.156164,130.463014 C844.076712,130.372603 842.178082,130.10137 841.906849,129.920548 Z" id="Path"></path>
                    <path d="M623.021918,127.660274 C622.117808,127.208219 619.49589,126.665753 617.145205,126.575342 C614.794521,126.394521 612.082192,125.852055 611.087671,125.4 C610.093151,124.857534 608.646575,124.405479 607.832877,124.405479 C605.30137,124.405479 591.920548,118.167123 590.835616,116.539726 C590.473973,115.906849 589.479452,115.364384 588.846575,115.364384 C588.123288,115.364384 587.490411,115.00274 587.490411,114.460274 C587.490411,114.008219 587.038356,113.556164 586.586301,113.556164 C586.043836,113.556164 583.873973,111.747945 581.794521,109.487671 C576.460274,103.70137 575.736986,102.887671 575.736986,102.254795 C575.736986,101.983562 574.561644,100.084932 573.024658,98.0958904 C569.589041,93.3041096 560.819178,75.4027397 559.463014,70.339726 C558.920548,68.169863 558.287671,64.9150685 558.106849,63.1068493 C557.293151,56.5068493 557.564384,34.3561644 558.468493,31.4630137 C558.920548,29.8356164 559.10137,27.8465753 558.830137,27.1232877 C558.468493,26.2191781 559.010959,25.8575342 560.638356,25.8575342 C562.175342,25.8575342 563.531507,24.8630137 564.978082,22.6931507 C566.153425,20.9753425 568.50411,18.8958904 570.131507,17.9917808 C571.668493,17.0876712 573.024658,16.1835616 573.024658,15.8219178 C573.024658,15.460274 574.290411,14.7369863 575.827397,14.1041096 C577.364384,13.4712329 579.172603,12.3863014 579.805479,11.6630137 C582.336986,9.22191781 599.063014,7.32328767 606.476712,8.67945205 C609.189041,9.22191781 613.076712,9.85479452 614.975342,10.0356164 C619.676712,10.5780822 620.490411,11.5726027 618.139726,13.7424658 C616.60274,15.0986301 615.246575,15.369863 611.087671,15.0986301 C603.673973,14.6465753 596.621918,14.5561644 592.191781,15.0082192 C587.490411,15.460274 581.884932,20.2520548 579.353425,26.1287671 C577.183562,31.1917808 576.279452,41.4986301 577.545205,46.6520548 C578.087671,48.9123288 578.991781,52.709589 579.534247,55.2410959 C580.8,61.660274 584.416438,72.1479452 588.213699,80.5561644 C591.739726,88.2410959 596.441096,96.6493151 597.616438,97.1013699 C597.978082,97.2821918 598.339726,97.9150685 598.339726,98.5479452 C598.339726,99.9945205 607.109589,109.216438 610.093151,111.024658 C611.358904,111.747945 614.794521,113.013699 617.778082,113.917808 C620.761644,114.731507 625.010959,116.178082 627.271233,116.991781 C629.80274,117.986301 634.323288,118.528767 639.476712,118.619178 C652.676712,118.8 653.490411,118.890411 653.490411,120.156164 C653.490411,122.506849 649.241096,125.4 645.263014,125.761644 C643.093151,126.032877 640.290411,126.394521 639.024658,126.665753 C633.328767,127.931507 624.468493,128.473973 623.021918,127.660274 Z" id="Path"></path>
                    <path d="M280.273973,126.123288 C279.09863,125.671233 277.742466,125.490411 277.380822,125.761644 C276.928767,126.032877 276.476712,125.761644 276.29589,125.219178 C276.115068,124.586301 273.764384,124.043836 270.961644,123.863014 C266.079452,123.682192 265.808219,123.50137 260.112329,117.443836 C253.331507,110.391781 247.183562,98.4575342 244.2,86.8849315 C244.019178,85.890411 243.567123,84.4438356 243.205479,83.7205479 C242.934247,82.9972603 242.663014,81.369863 242.572603,80.1041096 C242.482192,78.8383562 241.306849,74.4082192 240.041096,70.1589041 C237.419178,61.4794521 236.786301,57.8630137 236.153425,48.9123288 C235.610959,41.6794521 235.70137,36.8876712 236.515068,27.6657534 C236.786301,25.3150685 246.189041,15.2794521 250.257534,13.109589 C251.975342,12.1150685 254.054795,11.030137 254.778082,10.5780822 C257.671233,8.76986301 262.643836,6.96164384 264.361644,6.96164384 C265.265753,7.05205479 267.345205,6.6 268.972603,6.14794521 C270.509589,5.60547945 271.956164,5.42465753 272.136986,5.60547945 C272.317808,5.78630137 274.668493,6.14794521 277.380822,6.50958904 C283.167123,7.23287671 286.150685,8.40821918 289.676712,11.3917808 C292.750685,14.0136986 298.175342,21.2465753 298.175342,22.6931507 C298.175342,23.2356164 299.169863,24.6821918 300.345205,25.7671233 C301.610959,27.0328767 302.69589,29.2027397 302.967123,31.5534247 C303.238356,33.6328767 303.961644,35.4410959 304.413699,35.6219178 C304.956164,35.8027397 305.408219,36.6164384 305.408219,37.339726 C305.408219,38.1534247 306.40274,40.5945205 307.668493,42.6739726 C308.934247,44.8438356 309.838356,46.9232877 309.747945,47.2849315 C309.476712,48.0986301 311.646575,54.8794521 312.641096,56.1452055 C313.00274,56.6876712 313.816438,59.6712329 314.449315,62.9260274 C315.082192,66.1808219 316.347945,71.2438356 317.161644,74.2273973 C320.868493,86.4328767 321.049315,87.2465753 320.506849,94.2986301 C320.235616,98.1863014 319.421918,102.345205 318.789041,103.610959 C316.890411,107.136986 314.178082,111.115068 312.189041,113.284932 C310.290411,115.273973 302.063014,119.975342 298.265753,121.241096 C297.180822,121.60274 295.372603,122.687671 294.468493,123.591781 C293.564384,124.49589 292.117808,125.309589 291.394521,125.309589 C290.671233,125.309589 290.038356,125.580822 290.038356,126.032877 C290.038356,126.936986 282.805479,127.027397 280.273973,126.123288 Z M286.873973,119.342466 C290.942466,117.805479 293.926027,114.912329 296.005479,110.30137 C297.180822,107.679452 298.175342,104.967123 298.175342,104.243836 C298.175342,103.520548 298.808219,102.706849 299.531507,102.345205 C301.339726,101.712329 300.887671,96.739726 297.723288,82.8164384 C296.457534,77.1205479 295.191781,71.4246575 295.010959,70.1589041 C294.739726,68.8931507 294.287671,66.9041096 294.016438,65.6383562 C293.745205,64.3726027 293.293151,62.2027397 293.021918,60.6657534 C291.032877,47.6465753 282.353425,22.8739726 279.189041,20.8849315 C278.736986,20.6136986 278.556164,19.8 278.917808,19.0767123 C279.189041,18.3534247 279.008219,17.7205479 278.465753,17.7205479 C278.013699,17.7205479 277.290411,16.7260274 277.019178,15.460274 C276.476712,13.3808219 276.115068,13.2 270.6,13.2 C264.090411,13.2 261.106849,14.1041096 258.394521,16.8164384 C255.953425,19.2575342 254.958904,25.7671233 254.687671,41.0465753 C254.506849,50.1780822 255.139726,57.7726027 256.224658,59.4 C256.767123,60.3945205 259.117808,69.1643836 259.750685,73.0520548 C260.383562,76.3068493 262.643836,84.0821918 266.260274,94.569863 C267.526027,98.2767123 269.153425,103.520548 269.876712,106.232877 C272.950685,117.715068 278.917808,122.326027 286.873973,119.342466 Z" id="Shape"></path>
                    <path d="M540.386301,124.947945 C540.205479,124.767123 536.950685,124.405479 533.243836,124.134247 C525.739726,123.591781 508.109589,121.693151 506.30137,121.150685 C505.668493,120.969863 505.035616,120.789041 504.764384,120.789041 C504.493151,120.69863 502.413699,120.156164 500.063014,119.432877 C497.621918,118.709589 494.819178,118.076712 493.734247,118.076712 C492.558904,118.076712 490.117808,117.443836 488.128767,116.630137 C484.150685,115.093151 483.246575,113.284932 481.709589,105.057534 C481.257534,102.073973 480.172603,98.7287671 479.449315,97.5534247 C478.635616,96.3780822 478.273973,95.4739726 478.545205,95.4739726 C478.816438,95.4739726 478.545205,94.569863 478.00274,93.4849315 C477.369863,92.309589 476.736986,90.4109589 476.556164,89.1452055 C476.013699,84.6246575 475.109589,80.5561644 474.476712,79.6520548 C474.115068,79.2 473.30137,76.7589041 472.668493,74.2273973 C472.035616,71.7863014 471.131507,69.3452055 470.769863,68.8931507 C470.317808,68.3506849 469.956164,67.3561644 469.956164,66.5424658 C469.956164,64.8246575 464.441096,47.6465753 461.367123,39.8712329 C460.191781,36.8876712 458.383562,31.0109589 457.29863,26.7616438 C456.213699,22.5123288 454.586301,16.9972603 453.682192,14.3753425 C452.778082,11.8438356 452.235616,9.49315068 452.416438,9.31232877 C452.687671,9.13150685 452.235616,8.40821918 451.421918,7.77534247 C449.70411,6.32876712 449.70411,5.0630137 451.331507,5.0630137 C452.054795,5.0630137 453.772603,4.6109589 455.219178,4.06849315 C457.931507,2.98356164 472.216438,2.71232877 478.99726,3.5260274 C481.257534,3.79726027 487.134247,4.33972603 492.106849,4.70136986 C497.079452,4.97260274 501.509589,5.51506849 501.961644,5.78630137 C502.50411,6.05753425 504.673973,6.32876712 506.934247,6.32876712 C510.731507,6.41917808 511.093151,6.6 510.821918,8.5890411 C510.550685,11.1205479 508.471233,12.8383562 504.945205,13.5616438 C502.775342,14.0136986 480.082192,12.1150685 473.30137,10.939726 C470.769863,10.4876712 470.769863,10.5780822 471.312329,13.4712329 C471.673973,15.0082192 472.758904,17.539726 473.753425,18.8958904 C474.747945,20.2520548 475.742466,22.6931507 476.013699,24.3205479 C476.284932,25.8575342 477.189041,28.569863 478.093151,30.3780822 C478.906849,32.0958904 479.90137,34.9890411 480.263014,36.6164384 C480.89589,40.3232877 483.608219,46.6520548 484.421918,46.6520548 C484.783562,46.6520548 484.964384,47.5561644 484.873973,48.7315068 C484.783562,49.8164384 485.235616,52.4383562 485.778082,54.5178082 C486.410959,56.5972603 486.772603,58.4958904 486.50137,58.7671233 C486.320548,58.9479452 486.682192,60.3041096 487.49589,61.7506849 C488.490411,63.830137 489.484932,64.4630137 491.835616,64.5534247 C493.463014,64.6438356 500.967123,64.9150685 508.380822,65.1863014 C522.936986,65.7287671 527.819178,66.1808219 527.819178,67.3561644 C527.819178,68.4410959 524.293151,71.9671233 523.027397,72.0575342 C522.394521,72.1479452 521.038356,72.0575342 519.953425,71.9671233 C518.778082,71.8767123 517.873973,72.2383562 517.873973,72.7808219 C517.873973,73.4136986 517.150685,73.4136986 515.794521,72.9616438 C514.619178,72.509589 513.082192,72.509589 512.358904,72.8712329 C511.726027,73.3232877 510.912329,73.3232877 510.641096,72.8712329 C510.369863,72.4191781 506.030137,71.7863014 500.967123,71.5150685 L491.745205,71.0630137 L491.835616,73.9561644 C491.835616,75.5835616 492.558904,78.2054795 493.372603,79.6520548 C494.186301,81.1890411 494.819178,82.8164384 494.909589,83.2684932 C494.909589,83.8109589 495.452055,85.8 495.994521,87.7890411 C496.536986,89.7780822 497.169863,92.6712329 497.441096,94.1178082 C498.616438,100.446575 499.249315,102.254795 500.424658,102.978082 C501.057534,103.430137 501.419178,104.063014 501.147945,104.515068 C500.334247,105.780822 502.50411,113.284932 503.679452,113.284932 C504.764384,113.284932 518.054795,114.460274 523.750685,114.912329 C525.287671,115.093151 526.553425,115.273973 526.734247,115.364384 C526.824658,115.454795 529.084932,115.635616 531.706849,115.726027 C546.89589,116.358904 546.89589,116.358904 546.534247,118.890411 C546.263014,120.879452 541.290411,125.852055 540.386301,124.947945 Z" id="Path"></path>
                    <path d="M696.526027,122.778082 C696.254795,122.326027 694.446575,121.873973 692.638356,121.783562 C687.394521,121.693151 685.043836,121.241096 684.410959,120.156164 C684.049315,119.70411 682.60274,118.890411 681.156164,118.438356 C678.715068,117.624658 679.076712,117.443836 685.676712,116.087671 C689.564384,115.183562 694.446575,114.641096 696.435616,114.821918 C701.49863,115.273973 709.545205,114.369863 709.545205,113.375342 C709.545205,112.923288 708.821918,110.843836 707.827397,108.764384 C705.567123,103.520548 704.753425,101.531507 704.482192,100.084932 C704.391781,99.4520548 703.849315,98.4575342 703.306849,97.9150685 C702.764384,97.3726027 702.312329,95.7452055 702.312329,94.3890411 C702.312329,93.0328767 701.860274,91.8575342 701.317808,91.8575342 C700.865753,91.8575342 700.594521,91.4958904 700.865753,91.0438356 C701.136986,90.5917808 700.775342,88.1506849 700.052055,85.6191781 C699.328767,83.0876712 698.063014,78.9287671 697.339726,76.3972603 C696.616438,73.8657534 695.983562,71.2438356 695.983562,70.6109589 C695.983562,69.9780822 695.169863,67.6273973 694.084932,65.2767123 C692.367123,61.2986301 691.915068,59.9424658 691.010959,55.2410959 C689.835616,49.5452055 688.569863,44.3917808 686.490411,36.7068493 C685.224658,32.0054795 683.416438,25.1342466 682.421918,21.4273973 C681.427397,17.7205479 679.980822,13.7424658 679.257534,12.5671233 C678.443836,11.3917808 678.172603,10.4876712 678.534247,10.4876712 C688.208219,9.85479452 692.09589,10.2164384 693.632877,11.6630137 C694.627397,12.4767123 696.073973,13.2 696.978082,13.2 C698.515068,13.2 700.865753,17.9917808 699.871233,18.9863014 C699.6,19.2575342 699.871233,20.6136986 700.413699,22.1506849 C701.046575,23.5972603 701.679452,26.309589 701.860274,28.2082192 C702.041096,31.0109589 706.019178,43.5780822 709.273973,52.0767123 C709.635616,52.8 709.726027,53.7945205 709.635616,54.2465753 C709.545205,54.6082192 709.906849,55.5123288 710.449315,56.1452055 C710.991781,56.7780822 711.624658,58.4958904 711.89589,59.9424658 C712.890411,65.8191781 717.953425,81.5506849 720.484932,86.7041096 C721.389041,88.7835616 722.20274,91.1342466 722.20274,92.0383562 C722.20274,92.9424658 722.564384,94.3890411 723.016438,95.2931507 C726.361644,101.893151 729.435616,108.945205 729.435616,110.030137 C729.435616,111.657534 732.690411,115.364384 734.227397,115.454795 C734.860274,115.545205 738.747945,115.635616 742.99726,115.816438 C750.230137,116.087671 756.558904,116.810959 759.090411,117.624658 C760.808219,118.257534 760.356164,119.523288 757.734247,121.241096 C755.745205,122.59726 753.032877,122.868493 740.556164,122.958904 C732.419178,122.958904 725.819178,122.868493 725.819178,122.59726 C725.819178,121.693151 698.243836,121.873973 697.70137,122.778082 C697.339726,123.410959 696.887671,123.410959 696.526027,122.778082 Z" id="Path"></path>
                    <path d="M430.175342,121.241096 C429.452055,121.060274 425.20274,120.427397 420.682192,119.884932 C416.252055,119.342466 411.369863,118.619178 409.832877,118.347945 C408.386301,118.076712 406.306849,117.715068 405.312329,117.624658 C404.317808,117.443836 401.063014,116.90137 398.079452,116.358904 C395.09589,115.816438 391.208219,115.273973 389.490411,115.00274 C387.772603,114.821918 383.70411,114.09863 380.449315,113.556164 C377.194521,113.013699 372.583562,112.380822 370.142466,112.2 C365.169863,111.838356 364.808219,111.657534 365.621918,109.668493 C366.254795,107.860274 370.052055,107.046575 374.572603,107.679452 C376.561644,107.950685 380.630137,108.40274 383.613699,108.673973 C386.59726,108.945205 391.29863,109.487671 394.010959,109.939726 C399.435616,110.753425 400.158904,110.572603 398.712329,108.854795 C398.260274,108.221918 397.356164,105.057534 396.723288,101.80274 C396.180822,98.5479452 395.367123,94.7506849 394.915068,93.2136986 C394.463014,91.7671233 393.19726,84.8958904 392.20274,77.9342466 C391.208219,71.0630137 390.213699,65.1863014 390.032877,64.8246575 C389.761644,64.4630137 389.490411,61.9315068 389.4,59.2191781 C389.309589,56.5068493 388.947945,53.9753425 388.676712,53.4328767 C388.405479,52.9808219 388.134247,50.7205479 388.043836,48.460274 C387.863014,46.2 387.410959,41.9506849 386.868493,38.9671233 C386.416438,35.9835616 385.693151,31.5534247 385.331507,29.0219178 C384.517808,22.4219178 381.443836,15.9123288 379.093151,15.9123288 C378.731507,15.9123288 377.917808,15.2794521 377.10411,14.5561644 C376.380822,13.8328767 375.386301,13.3808219 374.934247,13.6520548 C374.482192,14.0136986 374.120548,13.7424658 374.120548,13.290411 C374.120548,12.7479452 373.306849,12.2958904 372.312329,12.2958904 C371.317808,12.2958904 370.50411,12.8383562 370.50411,13.4712329 C370.50411,14.2849315 370.232877,14.1945205 369.690411,13.290411 C367.882192,10.4876712 356.942466,17.1780822 356.942466,21.0657534 C356.942466,22.060274 356.580822,23.1452055 356.128767,23.5972603 C355.676712,24.139726 354.863014,28.9315068 354.410959,34.3561644 C353.59726,44.030137 352.512329,46.7424658 350.252055,44.6630137 C348.89589,43.3972603 350.071233,26.0383562 351.789041,20.2520548 C352.512329,17.9013699 354.591781,14.4657534 356.4,12.5671233 C358.208219,10.6684932 359.654795,8.86027397 359.654795,8.49863014 C359.654795,8.04657534 360.287671,7.77534247 361.010959,7.77534247 C361.734247,7.77534247 362.367123,7.41369863 362.367123,7.05205479 C362.367123,5.87671233 373.39726,5.24383562 377.284932,6.05753425 C380.810959,6.87123288 387.682192,10.3972603 387.682192,11.3013699 C387.682192,11.8438356 388.315068,12.2958904 389.038356,12.2958904 C390.575342,12.2958904 397.627397,18.6246575 397.627397,19.9808219 C397.627397,20.5232877 398.621918,22.9643836 399.887671,25.4054795 C401.063014,27.9369863 402.147945,31.0109589 402.147945,32.3671233 C402.147945,33.7232877 402.6,35.0794521 403.142466,35.3506849 C403.684932,35.7123288 403.956164,37.0684932 403.775342,38.5150685 C403.684932,39.8712329 403.956164,41.5890411 404.589041,42.2219178 C405.131507,42.9452055 405.764384,44.9342466 406.035616,46.6520548 C406.306849,48.369863 407.30137,53.0712329 408.386301,57.0493151 C409.380822,61.0273973 410.284932,65.1863014 410.284932,66.2712329 C410.284932,67.3561644 411.008219,69.9780822 411.912329,72.1479452 C412.816438,74.3178082 413.630137,77.3917808 413.720548,79.109589 C413.90137,80.8273973 414.263014,82.6356164 414.624658,83.1780822 C415.076712,83.7205479 415.438356,85.4383562 415.528767,86.8849315 C415.8,92.2191781 417.69863,102.254795 418.693151,103.430137 C419.235616,104.153425 419.868493,106.323288 420.139726,108.40274 L420.682192,112.2 L426.106849,113.284932 C429.090411,113.917808 435.057534,114.460274 439.39726,114.550685 C447.986301,114.821918 449.342466,115.635616 446.539726,119.161644 C445.093151,120.879452 443.917808,121.241096 438.221918,121.421918 C434.515068,121.512329 430.89863,121.421918 430.175342,121.241096 Z" id="Path"></path>
                </g>
            </g>
        </g>
    </g>
</svg>