<?xml version="1.0" standalone="no"?>
<!DOCTYPE svg PUBLIC "-//W3C//DTD SVG 20010904//EN"
 "http://www.w3.org/TR/2001/REC-SVG-20010904/DTD/svg10.dtd">
<svg version="1.0" xmlns="http://www.w3.org/2000/svg"
 width="1005.000000pt" height="175.000000pt" viewBox="0 0 1005.000000 175.000000"
 preserveAspectRatio="xMidYMid meet">
<metadata>
Created by potrace 1.15, written by Peter Selinger 2001-2017
</metadata>
<g transform="translate(0.000000,175.000000) scale(0.100000,-0.100000)"
fill="#000000" stroke="none">
<path d="M935 1639 c-115 -19 -132 -22 -180 -24 -27 -1 -84 -15 -125 -29 -41
-15 -95 -33 -120 -40 -38 -10 -41 -13 -22 -18 24 -7 28 -30 12 -74 -6 -14 -19
-81 -30 -148 -11 -66 -31 -168 -44 -226 -14 -58 -32 -148 -42 -200 -9 -52 -27
-124 -39 -160 -28 -79 -39 -130 -65 -285 -25 -144 -37 -182 -63 -189 -17 -4
-18 -7 -7 -21 7 -8 15 -13 18 -10 3 3 14 -2 24 -12 14 -12 38 -16 106 -16 107
0 127 9 140 65 16 69 71 288 87 348 8 30 17 72 20 93 5 40 40 153 53 174 5 8
54 14 141 18 74 3 142 10 153 16 11 6 31 13 45 15 14 3 35 11 46 19 12 7 51
15 87 17 36 3 74 10 86 16 47 25 114 105 114 136 0 8 6 21 13 28 12 11 42 160
40 193 -3 46 -16 115 -25 140 -30 76 -119 141 -226 166 -82 20 -118 22 -197 8z
m149 -99 c35 -22 49 -40 52 -75 1 -11 2 -22 4 -25 13 -34 -3 -199 -26 -250
-46 -106 -91 -183 -114 -195 -32 -16 -177 -46 -216 -44 -16 1 -46 -2 -66 -6
-25 -5 -38 -4 -38 3 0 19 28 116 45 155 9 21 30 91 46 155 17 64 38 142 46
172 8 30 17 67 20 82 4 23 12 28 48 34 24 3 48 3 54 -1 6 -3 11 -2 11 2 0 19
99 13 134 -7z m-624 -1274 c0 -3 -4 -8 -10 -11 -5 -3 -10 -1 -10 4 0 6 5 11
10 11 6 0 10 -2 10 -4z"/>
<path d="M2090 1569 c0 -3 -33 -5 -72 -4 -40 1 -95 -4 -123 -11 -27 -7 -71
-14 -97 -15 -27 -1 -48 -6 -48 -11 0 -4 -3 -7 -7 -6 -19 6 -73 -26 -73 -42 0
-10 -7 -35 -16 -56 -9 -22 -19 -52 -21 -68 -3 -15 -13 -55 -24 -88 -10 -34
-19 -67 -19 -74 0 -8 -5 -14 -11 -14 -5 0 -8 -4 -5 -8 2 -4 -6 -41 -20 -82
-13 -41 -26 -86 -29 -100 -3 -14 -12 -50 -20 -80 -9 -30 -19 -66 -22 -80 -3
-14 -16 -54 -30 -89 -14 -35 -27 -76 -29 -90 -9 -50 -45 -192 -55 -219 -6 -15
-17 -56 -25 -92 -15 -71 -42 -140 -56 -140 -4 0 -8 -4 -8 -10 0 -5 7 -10 15
-10 8 0 15 -6 15 -13 0 -8 8 -15 18 -16 14 -1 193 -3 213 -1 4 0 32 116 34
142 0 3 3 10 8 14 4 4 7 23 7 43 1 20 8 54 16 76 9 22 20 65 26 95 5 30 11 60
12 65 1 6 4 15 7 20 4 6 12 35 19 65 7 30 16 60 20 65 4 6 10 24 14 40 4 17
14 53 22 81 l16 52 62 1 c33 1 79 3 102 4 l40 2 18 -100 c25 -146 45 -239 71
-335 13 -47 27 -107 30 -134 3 -26 13 -67 21 -90 8 -22 18 -49 21 -59 4 -11
13 -17 27 -15 12 1 38 -8 57 -20 39 -23 125 -37 135 -21 3 5 9 7 14 4 4 -3 10
2 13 9 8 21 -1 99 -13 106 -10 6 -31 100 -22 100 2 0 0 6 -6 13 -6 7 -13 24
-16 37 -3 14 -13 48 -21 75 -19 59 -29 95 -51 190 -9 39 -20 72 -25 75 -4 3
-9 27 -10 53 -2 26 -6 47 -11 47 -4 0 -4 10 1 23 5 12 5 31 1 42 -9 23 4 35
40 35 15 0 30 4 35 9 6 5 44 18 84 30 55 15 81 28 97 48 12 16 20 31 18 34 -2
4 4 6 13 5 10 0 24 12 32 29 26 49 60 159 53 170 -3 5 -7 26 -8 45 -4 64 -27
130 -46 130 -4 0 -8 4 -8 9 0 13 -49 64 -80 82 -41 25 -133 40 -229 38 -50 -2
-91 -6 -91 -10z m176 -86 c40 -6 83 -41 89 -71 20 -107 -13 -256 -66 -303 -10
-9 -16 -18 -13 -21 3 -3 -28 -16 -68 -28 -40 -13 -84 -28 -98 -35 -26 -13 -87
-23 -180 -30 -30 -2 -77 -8 -105 -14 -27 -5 -52 -8 -54 -5 -6 6 93 299 128
379 5 11 15 41 21 68 7 26 17 50 23 54 6 4 60 8 121 10 60 2 112 6 115 8 2 3
16 2 30 -1 14 -3 40 -8 57 -11z m-229 -815 c-3 -8 -6 -5 -6 6 -1 11 2 17 5 13
3 -3 4 -12 1 -19z"/>
<path d="M9514 1571 c-3 -3 -24 -7 -47 -8 -111 -6 -223 -26 -237 -43 -3 -3
-27 -17 -54 -30 -69 -35 -151 -121 -170 -179 -31 -92 -47 -241 -31 -278 5 -10
9 -20 10 -23 0 -3 11 -25 24 -49 20 -38 43 -69 139 -186 21 -26 52 -86 41 -79
-10 6 -12 -7 -9 -45 3 -41 -60 -189 -102 -236 -22 -25 -46 -45 -54 -45 -8 0
-14 -4 -14 -10 0 -22 -81 -45 -145 -42 -11 1 -56 3 -100 6 -44 2 -80 5 -80 6
0 0 -17 3 -38 5 -27 3 -40 0 -44 -10 -3 -8 -10 -15 -17 -15 -6 0 -24 -12 -41
-26 -16 -14 -24 -22 -16 -18 7 3 16 2 20 -4 4 -6 31 -13 61 -16 30 -2 75 -10
99 -16 36 -11 45 -11 52 1 6 10 11 11 17 3 8 -12 82 -13 82 -1 0 4 33 7 73 6
41 -1 84 4 95 10 12 7 22 9 22 6 0 -3 16 1 36 10 19 8 39 14 43 12 11 -3 133
78 160 107 14 14 22 26 18 26 -3 0 7 14 24 32 16 18 34 48 40 67 7 19 20 48
29 65 12 22 18 55 18 111 1 90 -8 189 -16 181 -3 -3 -18 12 -34 33 -15 21 -39
46 -53 55 -14 9 -25 22 -25 28 0 6 -6 19 -14 27 -7 9 -30 47 -51 85 -35 67
-36 72 -30 140 4 39 7 77 8 84 0 6 4 12 9 12 4 0 8 7 8 16 0 18 38 53 58 54 6
0 12 4 12 8 0 10 85 52 105 52 8 0 15 -6 15 -12 0 -10 2 -10 8 -1 4 6 36 16
72 21 36 6 74 12 85 15 11 2 39 8 62 12 24 4 45 10 48 15 19 30 -55 70 -124
67 -23 -1 -44 -4 -47 -6z"/>
<path d="M7093 1546 c-10 -5 -39 -11 -65 -12 -26 -2 -56 -8 -67 -13 -11 -6
-27 -11 -36 -11 -28 0 -176 -69 -188 -87 -4 -7 -15 -13 -22 -13 -8 0 -15 -4
-15 -10 0 -5 -5 -10 -10 -10 -6 0 -30 -20 -53 -45 -59 -64 -67 -73 -67 -80 0
-3 -13 -24 -30 -46 -38 -53 -135 -251 -150 -307 -6 -24 -13 -60 -15 -80 -9
-73 -6 -318 4 -350 5 -18 7 -40 4 -48 -4 -10 2 -14 20 -14 17 0 32 -11 48 -35
13 -19 39 -42 57 -52 17 -10 32 -20 32 -24 0 -4 14 -12 31 -19 17 -7 37 -19
44 -27 28 -27 213 -48 295 -33 30 6 73 13 94 15 52 6 61 17 35 41 -17 15 -32
18 -78 15 -82 -5 -160 -6 -209 -1 -52 5 -114 58 -142 123 -24 56 -34 170 -20
227 6 25 16 67 22 95 14 71 54 187 96 280 39 85 91 178 104 183 4 2 8 9 8 16
0 16 97 118 130 138 14 8 52 22 85 32 33 9 80 25 105 34 28 11 78 17 135 18
146 2 155 3 155 17 0 26 -47 58 -91 62 -24 3 -55 7 -69 10 -63 14 -161 20
-177 11z"/>
<path d="M3302 1529 c-13 -5 -28 -7 -32 -4 -5 3 -10 0 -12 -6 -2 -7 -28 -13
-59 -15 -54 -2 -57 -4 -120 -71 -75 -78 -143 -210 -176 -338 -2 -11 -7 -27
-11 -35 -3 -8 -6 -26 -7 -40 -1 -14 -14 -63 -28 -110 -29 -96 -36 -136 -43
-235 -6 -80 -5 -133 4 -235 3 -26 107 -137 152 -161 19 -11 42 -23 50 -28 32
-20 87 -40 106 -40 10 1 33 -4 51 -9 17 -6 33 -8 35 -6 2 2 28 6 58 10 64 8
97 21 136 54 34 29 94 109 94 125 0 6 11 22 24 34 14 14 26 38 29 64 3 23 11
43 16 45 6 2 11 11 11 19 0 9 11 36 25 59 14 24 24 47 23 51 -3 9 21 84 32 98
4 6 13 39 20 75 7 36 21 92 30 125 41 135 43 144 37 222 -3 43 -12 89 -19 103
-21 39 -51 83 -73 107 -21 22 -112 74 -154 88 -12 4 -32 16 -42 26 -10 10 -26
19 -34 19 -8 0 -15 3 -15 8 0 10 -80 11 -108 1z m73 -75 c45 -17 78 -49 101
-100 13 -29 24 -59 24 -67 0 -8 7 -17 15 -21 20 -7 15 -62 -20 -216 -14 -63
-28 -126 -30 -140 -3 -14 -8 -36 -11 -50 -3 -14 -8 -38 -11 -55 -22 -144 -118
-418 -153 -440 -5 -3 -7 -12 -3 -20 3 -8 1 -15 -5 -15 -5 0 -13 -11 -16 -25
-6 -23 -10 -25 -71 -25 -72 0 -105 10 -135 40 -27 27 -38 99 -41 268 -2 101 5
185 17 203 6 11 32 108 39 151 7 36 32 122 72 238 14 41 32 99 40 129 34 127
100 178 188 145z"/>
<path d="M6179 1516 c-2 -2 -38 -6 -79 -9 -83 -6 -278 -27 -298 -33 -7 -2 -14
-4 -17 -4 -3 -1 -26 -7 -52 -15 -27 -8 -58 -15 -70 -15 -13 0 -40 -7 -62 -16
-44 -17 -54 -37 -71 -128 -5 -33 -17 -70 -25 -83 -9 -13 -13 -23 -10 -23 3 0
0 -10 -6 -22 -7 -13 -14 -34 -16 -48 -6 -50 -16 -95 -23 -105 -4 -5 -13 -32
-20 -60 -7 -27 -17 -54 -21 -59 -5 -6 -9 -17 -9 -26 0 -19 -61 -209 -95 -295
-13 -33 -33 -98 -45 -145 -12 -47 -30 -108 -40 -137 -10 -28 -16 -54 -14 -56
3 -2 -2 -10 -11 -17 -19 -16 -19 -30 -1 -30 8 0 27 -5 43 -11 30 -12 188 -15
263 -6 25 3 90 9 145 13 55 3 104 9 109 12 6 3 30 6 55 6 42 1 46 3 43 25 -3
28 -26 47 -65 55 -24 5 -275 -16 -350 -29 -28 -5 -28 -4 -22 28 4 17 16 45 27
60 11 15 22 42 25 60 3 17 13 47 23 67 9 19 20 51 24 69 7 41 37 111 46 111 4
0 6 10 5 23 -1 12 4 41 10 64 7 23 11 44 8 47 -2 2 2 17 11 33 11 23 22 30 48
31 18 1 101 4 183 7 161 6 215 11 215 24 0 12 -39 51 -53 52 -7 1 -22 0 -34
-1 -13 -1 -23 3 -23 9 0 7 -8 7 -23 2 -13 -5 -30 -5 -38 -1 -7 5 -16 5 -19 0
-3 -5 -51 -12 -107 -15 l-102 -5 1 32 c0 18 8 47 17 63 9 17 16 35 17 40 0 6
6 28 12 50 6 22 13 54 16 70 13 70 20 90 33 98 7 5 11 12 8 17 -9 14 15 97 28
97 12 0 159 13 222 18 17 2 31 4 33 5 1 1 26 3 55 4 168 7 168 7 164 35 -3 22
-58 77 -68 67z"/>
<path d="M7906 1492 c-3 -5 -23 -10 -43 -11 -58 -1 -84 -6 -91 -18 -4 -5 -20
-14 -36 -19 -27 -9 -23 -11 50 -26 43 -10 97 -16 119 -14 56 5 145 -5 145 -16
0 -5 -8 -28 -19 -51 -25 -58 -34 -80 -37 -96 -1 -7 -7 -18 -13 -24 -6 -6 -11
-24 -11 -39 0 -15 -5 -28 -11 -28 -5 0 -8 -4 -5 -9 3 -5 -1 -32 -9 -60 -8 -28
-22 -74 -30 -102 -8 -28 -15 -57 -15 -64 0 -7 -9 -33 -21 -59 -19 -44 -24 -59
-34 -111 -13 -63 -27 -120 -50 -205 -14 -52 -34 -128 -45 -169 -11 -41 -27
-85 -35 -98 -9 -13 -12 -23 -8 -23 107 -7 150 -3 167 13 11 9 27 17 37 17 17
0 43 53 32 64 -3 3 0 18 6 35 7 16 14 46 16 67 2 31 46 170 82 264 4 8 5 19 4
24 -1 4 3 14 9 21 6 7 13 26 16 42 11 65 67 239 95 296 10 23 19 49 19 59 0
10 4 26 9 36 37 73 71 151 71 163 0 18 36 59 53 60 7 1 50 2 97 4 80 3 150 11
178 20 19 7 14 21 -15 40 -22 15 -52 18 -190 19 -90 0 -163 -1 -163 -4 0 -10
-305 -8 -311 2 -4 7 -9 7 -13 0z"/>
<path d="M4960 1475 c-8 -2 -55 -9 -105 -15 -49 -6 -103 -14 -120 -17 -16 -3
-39 -7 -50 -8 -11 -2 -47 -8 -80 -14 -33 -6 -76 -12 -95 -15 -19 -2 -64 -10
-100 -16 -36 -6 -87 -13 -114 -15 -55 -4 -59 -6 -50 -28 7 -20 49 -29 99 -22
22 3 67 8 100 11 33 3 85 9 115 14 60 9 68 7 52 -12 -5 -7 -15 -42 -22 -78 -6
-36 -15 -78 -20 -95 -5 -16 -19 -92 -30 -169 -11 -76 -22 -141 -24 -145 -3 -4
-6 -32 -7 -62 -1 -30 -5 -58 -8 -64 -3 -5 -6 -30 -7 -55 -2 -25 -7 -72 -13
-105 -5 -33 -13 -82 -17 -110 -9 -73 -43 -145 -69 -145 -4 0 -13 -7 -22 -15
-8 -8 -19 -13 -24 -10 -5 4 -9 1 -9 -4 0 -6 -9 -11 -20 -11 -11 0 -20 6 -20
13 0 9 -3 8 -9 -2 -20 -31 -141 43 -141 86 0 11 -4 23 -9 28 -5 6 -14 59 -19
119 -9 107 -21 137 -46 114 -15 -14 -2 -206 17 -270 8 -26 31 -64 51 -85 20
-21 36 -41 36 -45 0 -5 7 -8 15 -8 8 0 15 -4 15 -8 0 -13 122 -20 165 -11 39
9 115 48 115 58 0 6 7 11 15 11 17 0 95 70 95 85 0 6 11 33 25 60 13 28 25 62
25 77 0 15 5 30 11 33 6 4 9 19 7 35 -1 15 2 34 9 41 6 8 13 30 16 49 3 19 14
71 26 115 11 44 21 90 21 102 0 12 8 41 18 65 10 24 19 58 20 77 2 19 6 39 10
45 5 6 9 25 10 41 3 59 24 170 35 183 6 8 13 32 16 55 l6 42 60 12 c33 7 99
13 147 14 95 3 110 12 79 51 -16 19 -29 23 -92 25 -41 1 -81 0 -89 -2z"/>
</g>
</svg>
