<?xml version="1.0" encoding="UTF-8"?>
<svg width="498px" height="169px" viewBox="0 0 498 169" version="1.1" xmlns="http://www.w3.org/2000/svg" xmlns:xlink="http://www.w3.org/1999/xlink">
    <title>video</title>
    <defs>
        <filter id="filter-1">
            <feColorMatrix in="SourceGraphic" type="matrix" values="0 0 0 0 1.000000 0 0 0 0 1.000000 0 0 0 0 1.000000 0 0 0 1.000000 0"></feColorMatrix>
        </filter>
    </defs>
    <g id="Home-pages" stroke="none" stroke-width="1" fill="none" fill-rule="evenodd">
        <g id="video" transform="translate(-902.000000, -48.000000)" filter="url(#filter-1)">
            <g transform="translate(902.000000, 48.000000)">
                <g id="Group" transform="translate(248.700000, 84.450000) scale(-1, 1) rotate(-180.000000) translate(-248.700000, -84.450000) translate(0.500000, 0.500000)" fill="#000000" fill-rule="nonzero">
                    <path d="M78.3,167.7 C74.7,167.4 72.8,166.5 70.1,164 C68.1,162.2 66.5,160.1 66.5,159.2 C66.5,158.3 65.8,157.1 65,156.4 C64.2,155.7 63.5,154.4 63.5,153.4 C63.5,152.5 62.6,150.5 61.5,149.1 C60.4,147.7 59.5,146 59.5,145.2 C59.5,144.5 58.8,143 58,142 C57.2,140.9 56.5,138.8 56.5,137.2 C56.5,135.6 55.9,134.4 55.3,134.4 C53.9,134.3 50.5,128.3 50.5,125.9 C50.5,125.1 49.8,124.1 49,123.7 C48.2,123.2 47.4,121.6 47.3,120.1 C47.2,118.6 46.7,117.4 46.2,117.4 C45.7,117.4 45.6,116.5 46,115.5 C46.4,114.2 46.1,113.5 45,113.2 C43.5,112.9 38.7,103.4 35,93.4 C32.2,85.9 29.7,79.7 27.5,74.9 C26.3,72.2 24.7,68.6 24,66.9 C23.2,65.3 20.8,59.9 18.4,54.9 C16.1,50 13.6,44.2 13,42 C11.9,38.4 11.7,39.4 10.6,54 C9.2,72 9,93.7 9.9,126.4 C10.5,147 10.4,149.6 8.5,156.8 C7.4,161.1 6.8,165 7.1,165.5 C8.1,167.2 3.5,166.4 1.7,164.6 C2.49106291e-15,162.9 -0.2,153.7 0.3,73.9 C0.3,72.8 0.4,59.3 0.4,43.9 C0.5,7.1 0.3,9 3.4,5.5 C6.3,2.2 8.2,1.7 14,2.9 C17.8,3.7 19.9,5.4 26.7,13.6 C29.4,16.7 37.5,32.4 43.1,45.4 C44.7,49 47.2,53.9 48.7,56.4 C50.2,58.9 52.2,62.5 53.1,64.4 C57.2,73.8 73.4,106.6 79.7,118.4 C82.2,123.1 85,128.3 85.8,129.9 C86.7,131.6 89,136.3 90.9,140.4 C92.7,144.5 95.9,151.3 97.9,155.5 C101.3,162.6 102.4,167.3 100.8,167.5 C98.4,167.9 82.3,168 78.3,167.7 Z M23.5,16 C23.5,15.7 23.1,15.2 22.5,14.9 C22,14.6 21.5,14.8 21.5,15.3 C21.5,15.9 22,16.4 22.5,16.4 C23.1,16.4 23.5,16.2 23.5,16 Z" id="Shape"></path>
                    <path d="M465.6,164.7 C464.6,164.3 465.1,163.7 467.1,162.8 L470,161.4 L467,162.1 C465.4,162.5 459.7,162.8 454.4,162.8 C445.4,162.7 444.4,162.4 436.4,158.6 C421.2,151.4 415.4,145.3 406.4,127.9 C404.1,123.5 401.7,119.2 400.9,118.3 C400.1,117.5 399.5,116.4 399.5,116.1 C399.5,115.7 396.1,108.3 391.9,99.7 C383.4,81.9 383.1,81.1 381.7,76.9 C381.1,75.3 379.7,71.5 378.6,68.6 C373.5,55.1 373.1,35.2 377.8,25.1 C379.3,21.9 381.5,18.4 382.7,17.3 C385.5,14.9 390.5,12.1 390.5,13 C390.5,13.3 392.1,12.7 394.1,11.5 C399.9,8.1 417.4,6.9 424.5,9.4 C427,10.3 429.5,10.9 430.2,10.7 C430.8,10.5 431.6,10.8 432,11.3 C432.3,11.9 433.4,12.4 434.4,12.4 C436.5,12.4 448.2,17.9 450.1,19.9 C450.9,20.6 451.8,21.4 452.2,21.6 C453,21.9 457.2,26.8 460.8,31.5 C466.8,39.4 469.4,43.6 472,49.4 C473.6,53 475.5,56.6 476.2,57.5 C476.9,58.3 477.5,59.7 477.5,60.5 C477.5,61.3 479.1,65.1 481.1,68.9 C484.5,75.7 489.4,89 491.6,97.6 C494.6,109.4 495.4,114.6 496,126.8 C496.6,138.7 496.4,140.6 494.5,146.4 C491.4,155.9 483.7,162.5 474.1,164.3 C467.6,165.5 467.6,165.5 465.6,164.7 Z M467.5,155.8 C467.5,155.2 468.2,154.4 469,154 C469.8,153.7 470.4,153.1 470.3,152.7 C470.3,152.3 470.7,150.6 471.4,148.9 C472.2,147 472.5,143.7 472.1,139.9 C471.8,136.6 471.2,131 470.9,127.4 C470.6,123.8 469.9,120.1 469.4,119.2 C468.8,118.2 468.7,117.4 469,117.4 C469.3,117.4 469.1,116.6 468.6,115.7 C468.1,114.7 467.4,112.1 467.1,109.9 C466.3,105.2 462.4,93.4 458.9,85.6 C457.6,82.6 456.5,79.5 456.5,78.8 C456.5,78 456.2,77.4 455.7,77.4 C455.3,77.4 454.5,76.2 453.8,74.7 C453.1,73.1 451.1,68.3 449.2,63.9 C442,47.2 435.6,36.1 428.6,28.5 C426.3,26.1 424.5,23.9 424.5,23.5 C424.5,23.2 422.5,21.5 420.2,19.7 C414.3,15.3 410.6,14.5 400.2,15.3 C398.3,15.4 396.9,18.3 395,26 C393.9,30.4 394,31.8 395.7,37 C396.7,40.2 397.6,44.4 397.6,46.2 C397.7,47.9 398.1,49.7 398.6,50 C399.1,50.3 399.5,51.5 399.5,52.7 C399.5,54 400.4,56.7 401.5,58.9 C402.6,61.1 403.5,63.6 403.5,64.5 C403.5,65.5 404.2,66.9 405,67.8 C405.8,68.6 406.6,70.1 406.8,71.1 C406.9,72.1 408.7,76.3 410.6,80.4 C418.5,96.8 420.5,101.2 420.5,101.9 C420.5,103.9 428.7,120.4 429.8,120.4 C430.2,120.4 430.5,121.3 430.5,122.4 C430.5,124.2 432.2,128.1 433.5,129.4 C433.8,129.7 435.2,132.5 436.7,135.7 C438.2,138.8 439.9,141.4 440.5,141.4 C441,141.4 441.5,142 441.5,142.7 C441.5,143.8 445.1,148.5 449.2,152.7 C452.7,156.3 467.5,158.9 467.5,155.8 Z" id="Shape"></path>
                    <path d="M130.5,161.6 C125,161 123.2,160.3 124.3,159.2 C125,158.5 125,157.6 124.4,156.5 C123.1,154.2 119.4,144.1 110.5,118.4 C106.3,106 101.2,91.9 99.2,86.9 C97.3,82 94.1,73 92.1,66.9 C86.5,49.4 84.7,44.4 81.5,36.9 C79.9,33.1 77.4,26.8 76,22.9 C74.5,19.1 72.8,14.6 72.1,13 C70.5,9.7 71,7.2 73.4,5 C75.7,2.9 91.9,1.2 95.5,2.6 C96.9,3.2 98.8,3.7 99.9,3.8 C101.2,3.9 102.2,5.3 103.4,8.9 C104.3,11.7 105.6,14.9 106.3,16.1 C106.9,17.3 107.5,19.3 107.5,20.5 C107.5,21.6 108.2,24.7 109,27.3 C109.7,29.8 110.9,33.9 111.6,36.4 C112.2,38.9 113.1,41.8 113.5,42.9 C113.9,44 115,47.4 115.9,50.4 C116.9,53.4 119,58.7 120.6,62.1 C122.2,65.5 123.5,69.1 123.5,70.2 C123.5,71.2 125.2,76.1 127.3,81 C129.5,85.9 131.5,91.3 131.9,92.9 C132.3,94.6 133.5,96.8 134.5,97.9 C135.5,99 138.3,106.1 140.9,113.6 C143.4,121.1 147.3,131.2 149.6,136.1 C156.2,150 158.4,155.5 157.9,156.9 C156.6,160.2 141.3,162.8 130.5,161.6 Z" id="Path"></path>
                    <path d="M336.1,155.7 C335.7,155.3 333.3,154.9 330.7,154.7 C328.1,154.6 324.2,154.2 322,154 C319.8,153.7 317.5,153.5 316.8,153.5 C316.1,153.4 315.8,152.8 316.1,152 C316.4,151.3 315,148.9 313,146.8 C310.4,143.9 309.6,142.3 310,140.7 C310.3,139.4 310.1,138.4 309.6,138.4 C309.1,138.4 308.1,136.4 307.4,133.9 C306.7,131.4 305.7,129.4 305.2,129.4 C304.8,129.4 304.7,129 305,128.4 C305.3,127.9 304.9,126.3 304,125 C303.1,123.6 302.4,122.3 302.4,122 C302.5,121.6 302.5,121.3 302.4,121.2 C302.4,121 302.2,119.9 301.9,118.6 C301.7,117.4 300.8,115.2 299.9,113.9 C299,112.5 298.6,111.4 298.9,111.4 C299.3,111.4 298.7,109.7 297.7,107.7 C296.6,105.6 295.9,102.9 296,101.7 C296.1,100.4 295.7,99.4 295.2,99.4 C294.6,99.4 294.4,99.1 294.8,98.8 C295.1,98.4 294.8,97.6 294.1,96.8 C293.3,96.1 291.9,92.9 290.9,89.7 C290,86.5 288.9,83.5 288.5,82.9 C288.1,82.4 287.5,81.1 287.2,80.2 C286.8,78.9 287,78.7 288.2,79.1 C289.3,79.5 289.6,79.3 289.1,78.6 C288.7,77.9 287.6,77.4 286.7,77.4 C285.2,77.4 285.2,77.2 286.5,76.4 C287.5,75.8 287.6,75.4 286.8,75.4 C286.1,75.4 285.2,74.2 284.9,72.7 C284.5,71.1 283.9,69.5 283.5,68.9 C283,68.4 281.8,65.2 280.7,61.8 C279.6,58.5 277.5,53.1 276,49.8 C272.5,42.1 272.1,41.1 269.4,33.4 C268.2,29.8 265.4,23.5 263.3,19.2 C261.2,15 259.8,10.9 260.1,10.1 C260.6,8.6 265.9,7.2 270.5,7.4 C275.3,7.6 276,7.6 280,7.1 C282.2,6.8 286.9,6.5 290.5,6.5 C301,6.4 303.7,6.3 304.4,6.2 C304.7,6.1 307.4,6.4 310.3,6.8 C314,7.4 316,7.2 317,6.4 C318,5.6 318.5,5.5 318.5,6.2 C318.5,7.4 322.5,8.4 328.8,8.7 C333.6,9 335.8,11.9 333,14 C332,14.8 329.7,15.7 327.8,16 C326,16.3 324.5,17 324.5,17.4 C324.5,17.9 323.7,18 322.8,17.8 C315,16.2 286.5,14.8 286.5,16.1 C286.5,16.6 286.9,17.4 287.3,17.9 C287.8,18.5 289.5,22.1 291,25.9 C292.6,29.8 294.2,33.4 294.6,33.9 C295,34.5 296.1,37.2 297,39.9 C298,42.7 299.6,46.7 300.7,48.9 C302.9,53.6 309.7,70.4 309.9,72 C310,72.7 310.6,73.8 311.1,74.5 C311.7,75.3 313.1,78 314.3,80.5 L316.4,85.2 L323.2,85.8 C326.9,86.1 331.4,86.2 333,85.9 C338.1,85.2 355.9,85.2 357.8,85.9 C359.3,86.5 359.6,87.2 359.5,90.2 C359.4,91.8 353.1,92.5 336.8,92.4 C327.3,92.4 319.5,92.6 319.5,92.9 C319.5,93.2 321.2,97.1 323.4,101.7 C329,113.8 331.5,120 331.5,122.3 C331.5,123.4 331.9,124.5 332.4,124.8 C332.9,125.1 333.6,126.9 333.9,128.8 C334.3,130.7 335.2,132.7 335.9,133.3 C336.7,134 337.6,136 337.9,137.9 C338.7,142 343,146.8 345.2,146 C349,144.5 351.6,144.3 352.9,145.3 C353.7,146 355.5,146.3 357.1,146 C358.6,145.7 360.3,145.8 360.9,146.2 C361.5,146.5 366.6,146.9 372.3,147 C378.5,147.2 383.2,147.7 384.1,148.4 C386.5,150.5 385.7,153.2 382.2,154.9 C379.5,156.2 375.8,156.4 361,156 C351.1,155.8 342.2,155.2 341.2,154.9 C340.3,154.5 338.9,154.7 338.1,155.3 C337.4,155.9 336.5,156.1 336.1,155.7 Z M308.2,130.2 C307.9,129.5 307.7,130 307.7,131.4 C307.7,132.8 307.9,133.3 308.2,132.7 C308.4,132 308.4,130.8 308.2,130.2 Z" id="Shape"></path>
                    <path d="M199.3,153.7 C199.9,153.4 200.5,152.8 200.5,152.3 C200.5,151.7 200.1,151.6 199.5,151.9 C199,152.2 198.5,152 198.5,151.5 C198.5,150.9 199.1,150.4 199.8,150.3 C200.4,150.3 199.5,149.6 197.8,148.8 C194.9,147.6 193.9,145.9 194.4,143.2 C194.4,142.7 194.1,142.4 193.5,142.4 C193,142.4 192.5,141.5 192.5,140.4 C192.5,139.3 192.1,137.6 191.5,136.6 C190,134 185.6,123.6 183.3,117.4 C182.2,114.4 180.2,109.5 178.9,106.6 C177.6,103.7 176.5,101 176.5,100.6 C176.5,99.5 171,86.3 165,72.9 C163.5,69.6 161.6,65.3 160.8,63.4 C160,61.5 158.7,58.6 157.9,56.9 C157.2,55.3 155.4,50.5 153.9,46.4 C152.4,42.3 150.7,37.6 150,35.9 C146.8,28.3 141.6,10.9 142.5,10.6 C143.1,10.4 143.5,9.4 143.5,8.3 C143.5,6.2 144.5,5.8 146.2,7.5 C146.9,8.2 147.7,8.1 148.8,6.9 C151.9,3.8 158.8,1.6 163.8,2 C166.4,2.2 168.5,1.9 168.5,1.4 C168.5,0.6 170.7,0.3 180,0.1 C185.2,-2.60902411e-15 197.9,1.4 200.5,2.4 C200.8,2.5 201.4,2.6 201.8,2.5 C202.2,2.4 204.4,3.3 206.6,4.3 C208.8,5.4 211.3,6 212.1,5.7 C212.9,5.4 213.5,5.8 213.5,6.7 C213.5,8.3 222.3,14.4 224.6,14.4 C226.9,14.4 234.5,18.8 234.5,20.1 C234.5,20.8 235.6,22.6 237,24.1 C238.4,25.6 240,27.5 240.7,28.3 C242.1,29.9 244.6,34.1 246.9,39 C247.7,40.7 249.1,42.6 249.9,43.3 C250.7,44 251.9,46.2 252.6,48.2 C253.2,50.2 256.1,56.6 258.9,62.4 C261.8,68.2 265.4,76.3 266.9,80.4 C268.5,84.5 270.1,88.8 270.6,89.9 C275.6,102.2 277,111.6 274.8,118.4 C270.9,130.4 264,140.4 259.5,140.4 C258.4,140.4 257.5,140.9 257.5,141.5 C257.5,142 257.1,142.3 256.7,142 C256.2,141.7 254.7,142.6 253.3,143.9 C251.9,145.2 250.5,146 250.2,145.7 C249.8,145.4 248.9,145.9 248,146.8 C247.1,147.7 245.5,148.4 244.5,148.4 C243.5,148.4 242.4,148.8 242,149.4 C241.7,149.9 240.8,150.1 240.1,149.8 C239.3,149.5 238.4,149.7 238,150.3 C237.7,150.9 235.6,151.4 233.5,151.4 C231.4,151.4 228.4,151.9 226.8,152.5 C225.3,153.1 218.2,153.7 211,153.8 C203.9,154 198.6,153.9 199.3,153.7 Z M237.7,143.1 C240.3,141.9 242.5,140.4 242.5,139.7 C242.5,139 243.1,138.7 243.8,138.9 C244.4,139.1 245.8,138.7 246.7,138 C248.7,136.5 251.8,128.7 250.9,127.2 C250.6,126.7 250.7,125.8 251.2,125.1 C251.7,124.4 252.1,123.5 252,122.9 C250.9,114 247.6,103.2 244,96.7 C242.7,94.4 241.4,91.1 241,89.4 C240.6,87.8 239.9,86.2 239.4,85.9 C238.9,85.5 238.5,84.6 238.5,83.8 C238.5,81.6 228.5,59 227.2,58.2 C226.5,57.8 226.3,57.4 226.7,57.4 C227.4,57.4 225.9,53.2 221.7,44.4 C217.5,35.5 207,22 199,15.5 C194.6,12 176.3,8.6 171.1,10.4 C169.4,11 169.4,11.1 170.9,12.6 C171.8,13.5 172.5,15.1 172.5,16.2 C172.5,17.3 173.4,19.3 174.6,20.8 C175.7,22.2 176.4,23.8 176,24.4 C175.3,25.6 177,32.7 179.5,37.9 C183.8,47.2 184.8,50 184.7,51 C184.6,51.7 185.4,54.3 186.5,56.9 C187.6,59.4 188.5,62.5 188.5,63.5 C188.5,64.6 188.9,65.2 189.5,64.9 C190,64.6 190.3,64.9 190,65.6 C189.7,66.3 190.4,68.7 191.5,70.9 C192.6,73 193.5,75.8 193.5,77 C193.5,78.3 194.1,79.9 194.8,80.6 C195.6,81.3 196,83 195.8,84.4 C195.6,85.8 196.1,87.1 197,87.6 C197.8,88.1 198.5,89.6 198.5,91 C198.5,93.4 201.3,100.8 206.1,111 C207.4,113.8 208.5,116.4 208.5,116.8 C208.5,117.4 210,120.7 218.2,138.5 L221.7,146.1 L227.3,145.7 C230.5,145.5 235.1,144.4 237.7,143.1 Z M221.6,33.1 C220.6,32.2 220.5,32.3 221.1,33.7 C221.4,34.7 222,35.2 222.3,34.9 C222.6,34.6 222.3,33.8 221.6,33.1 Z" id="Shape"></path>
                </g>
            </g>
        </g>
    </g>
</svg>