<?xml version="1.0" encoding="UTF-8"?>
<svg width="1090px" height="1345px" viewBox="0 0 1090 1345" version="1.1" xmlns="http://www.w3.org/2000/svg" xmlns:xlink="http://www.w3.org/1999/xlink">
    <title>Artboard</title>
    <g id="Artboard" stroke="none" stroke-width="1" fill="none" fill-rule="evenodd">
        <rect fill="#FFFFFF" x="0" y="0" width="1090" height="1345"></rect>
        <g id="astrocombo" transform="translate(-48.000000, -48.000000)" fill="#000000" fill-rule="nonzero">
            <g id="Group" transform="translate(626.500000, 732.000000) scale(-1, 1) rotate(-180.000000) translate(-626.500000, -732.000000) translate(0.000000, -0.000000)">
                <path d="M56,1464 L201,1436 L472,1464 L812,1436 L1095,1464 L1219,1436 L1219,1353 L1219,1242 L1237,1076 L1253,885 L1253,594 L1253,334 L1237,109 L1119,0 L920,0 L762,0 L541,0 L357,0 L173,0 L24,23 L1.13686838e-13,161 L1.13686838e-13,397 L1.13686838e-13,628 L1.13686838e-13,926 L24,1124 L24,1209 C4.98209467,1310.08384 12.9820947,1378.08384 48,1413 C100.526858,1465.37424 231.1,1415.9 230.5,1414.9 C229.8,1413.9 244,1412.6 247.6,1413.3 C249.2,1413.7 252.3,1413.5 254.5,1413.1 L258.5,1412.2 L254,1412 C251.5,1411.8 246.1,1411.6 242,1411.5 C230.8,1411.3 219.1,1410 218.4,1408.9 C218.1,1408.4 217.4,1408.3 216.8,1408.6 C216.3,1408.9 214.2,1408.5 212.2,1407.7 C210.1,1406.8 204,1405.1 198.5,1403.9 C193,1402.7 188.1,1401.4 187.5,1401 C187,1400.5 184.7,1399.8 182.5,1399.4 C177.8,1398.4 177.9,1398.5 176,1397.8 C171.7,1396.2 156.7,1393.2 155.4,1393.7 C154.7,1394 154,1393.7 154,1393 C154,1391.7 160.4,1392 166.4,1393.6 C168.5,1394.1 169.1,1394 168.6,1393.2 C167.8,1391.8 176.3,1392.4 180.4,1393.9 C181.7,1394.5 184.7,1395.2 186.9,1395.5 C189.2,1395.8 193.1,1397 195.4,1398 C200.4,1400.1 208,1401.6 206.5,1400.1 C205.4,1399.1 194.8,1395.3 191,1394.6 C189.6,1394.4 186.1,1393.6 183.2,1393 C180.2,1392.3 177.3,1391.7 176.7,1391.6 C176,1391.4 174.3,1390.8 172.8,1390.2 C168.9,1388.6 146,1387.5 146,1388.9 C146,1389.5 146.5,1390 147,1390 C147.6,1390 148,1390.4 148,1390.9 C148,1391.3 145.5,1391.8 142.5,1391.9 C139.5,1391.9 135.2,1392.4 133.1,1392.9 C131,1393.3 124.3,1393.7 118.4,1393.6 C108.9,1393.5 106.9,1393.1 103,1391 C100.5,1389.6 97.6,1388.3 96.5,1388 C95,1387.5 94.5,1386.6 94.5,1384 C94.5,1381 94,1380.3 90.9,1378.7 C88.5,1377.6 86.8,1375.8 86,1373.7 C85.4,1371.9 83.8,1368.3 82.5,1365.5 C77.6,1355 75.8,1347.7 75.9,1337.8 C75.9,1336 75.4,1335 74.5,1335 C73.7,1335 72.8,1333.8 72.4,1332.3 C72.1,1330.7 71.5,1328.4 71,1327 C69.3,1321.8 69,1315 70.5,1310.7 C72.3,1305.2 73,1299.9 73.5,1286.5 C73.7,1280.5 74.2,1268.5 74.6,1260 C75.8,1232.1 75.7,1227.6 74.4,1225.4 C72.7,1222.6 71.6,1216.6 70.5,1204.5 C69.4,1191.9 68.9,1188.3 67.7,1182.9 C66.9,1179.9 66.5,1174.9 66.7,1171.9 C66.9,1169 66.6,1163.8 66,1160.5 C65.4,1157.2 64.8,1149.8 64.5,1144 C64.3,1138.2 63.7,1130.8 63.2,1127.6 C62,1119.8 62.5,1069.4 63.9,1059.9 C64.4,1055.8 64.9,1048.2 64.8,1043 C64.8,1035.7 65.3,1032.2 66.9,1028 C68.1,1025 69,1021.3 69,1019.8 C69,1018.4 69.5,1017 70,1016.8 C70.6,1016.6 71.6,1013.8 72.2,1010.5 C72.9,1007.2 73.7,1004.3 74.1,1004 C74.4,1003.7 75,1002.2 75.3,1000.5 C75.6,998.9 76.1,996.4 76.5,995 C76.9,993.6 77.3,989.9 77.3,986.8 C77.3,983.6 77.6,981 78,981 C78.4,981 78.8,977.8 78.9,973.9 C78.9,970 79.2,966.4 79.5,965.9 C79.8,965.5 79.4,963.9 78.5,962.6 C77.6,961.2 77.1,959.7 77.4,959.2 C78.5,957.4 79.1,933 78,933 C77.5,933 76.9,933.6 76.9,934.3 C76.8,934.9 76.6,936.6 76.4,938 C76.2,939.4 76,945.5 76,951.5 C75.8,965.7 72.9,980.1 69.5,984.2 C68.1,985.8 67,986.8 66.9,986.3 C66.9,985.9 66.6,983.7 66.2,981.5 C65.9,979.3 65.6,975.8 65.6,973.8 C65.5,971.7 65.3,970 65,970 C64.8,970 63.6,971.2 62.4,972.7 L60.2,975.5 L59.1,971.2 C58,967.2 58.2,954.5 59.6,935.5 C60.8,919.4 61.1,903.8 61.5,854 C61.8,825.1 62.2,797.9 62.5,793.5 C63,786.4 64,743.7 64,730.5 C64,727.8 63.5,721.6 62.9,716.8 C62.2,711 62.2,707.5 62.9,706.3 C63.4,705.2 63.6,703.9 63.2,703.3 C62.8,702.7 62.8,696.9 63.2,690.3 C65.3,652.3 65.7,639 65.1,619 C64.7,605.1 64.8,603 66.5,603.6 C67.6,604.1 68,605.8 68.1,609.9 C68.1,613 68.5,616.4 69,617.5 C70.5,621.2 71.3,616.5 70.5,609.2 C70.1,605.5 69.8,601.6 69.8,600.5 C69.7,599.4 68.8,592.2 67.8,584.5 C66.6,576.2 65.5,561.1 65.1,547.5 C64.7,534.8 64.1,523.9 63.7,523.3 C62.7,521.8 62,508.9 61.5,487 C61,461.5 59.6,441.1 57.9,432.3 C57.3,429.4 57.2,426 57.5,424.9 C58.6,421.4 58.9,414 57.9,413.4 C57.4,413.1 57.2,412.5 57.5,412.1 C58.4,410.6 59.1,368.2 58.2,367.6 C57.1,366.9 57.8,331.7 59.4,312.5 C59.8,307.3 61.1,299.7 61.7,298.7 C62.3,297.8 62.5,291.1 63.5,256 C63.9,243.1 64.2,231.4 64.3,230 C64.4,228.5 64,227.6 63.3,227.8 C62.4,227.9 62,226.3 62,222.3 C62.1,216.6 64.3,197 65.4,192 C66.8,186.2 67.9,172.4 68.5,156.6 C68.8,147.3 69.4,138.1 69.9,136.1 C71.1,131.4 72.6,124.1 74,115.8 C75,110.1 75.5,109 77.2,109 C78.9,109 79.1,108.5 78.5,106 C78,103.7 78.2,103 79.3,103 C80.1,103 81.8,101.4 82.9,99.4 C84.4,96.9 85.5,96 86.6,96.4 C87.5,96.7 88.6,97 89.1,97 C89.5,97 90.4,98.5 90.9,100.3 C91.4,102 91.9,102.8 91.9,101.9 C92,101 92.7,100 93.5,99.6 C94.4,99.3 95,97.8 95,96.1 L95,93.1 L100,95.8 C102.8,97.3 105,99.1 105,99.9 C105,100.8 105.4,100.9 106.3,100.2 C106.9,99.7 108.9,99 110.5,98.7 C114.5,98 117.6,97.3 121.4,96.1 C123.1,95.5 126.5,95 129,94.8 C132.6,94.5 133.6,94 133.8,92.5 C134,90.7 133.5,90.5 127.1,90.5 C122,90.4 119.6,90 118.2,88.7 C117.2,87.8 115.6,87 114.7,87 C113.9,87 112.4,86.3 111.6,85.4 C110.3,84.2 110.2,83.4 111.1,81.8 C111.9,80.2 111.9,79.6 110.9,78.9 C110,78.4 110.5,77.9 112.6,77.5 C114.2,77.1 116.5,76.5 117.7,76 C119.1,75.4 120.2,75.4 120.5,76 C120.9,76.6 122.9,76.7 125.1,76.4 C129.5,75.7 141.3,77.8 140.4,79.1 C140.1,79.6 140.6,80 141.4,80 C142.3,80 143,80.5 143,81 C143,81.6 146.3,82 150.9,82 C155.3,82 159.1,82.4 159.4,82.9 C159.8,83.4 157.7,84.4 155,85.1 C150,86.4 148.8,88.2 152.6,88.8 C153.6,89 155.4,89.5 156.5,90 C158.9,91.2 168.6,89.9 168.3,88.5 C168.1,87.9 167.2,87.5 166.3,87.5 C164.7,87.5 162.4,84.3 163.3,83.4 C163.5,83.2 167.9,82.8 173.1,82.5 C178.3,82.2 185.7,81.5 189.6,80.9 C193.6,80.4 198.7,79.9 201.1,80 C203.5,80 212.6,79.7 221.3,79.3 C236.2,78.5 239,78.9 239,81.2 C239,81.6 237.1,81.8 234.8,81.5 C230.9,81.2 225,83.3 226.3,84.6 C226.5,84.8 230.9,84.6 236.1,84.1 C241.3,83.5 250.2,82.8 256,82.4 C261.8,82.1 266.8,81.6 267.2,81.4 C268.3,80.7 283,79 292.5,78.4 C297.5,78.1 311.4,77.2 323.5,76.4 C355.9,74.2 373,73.7 374.5,75 C376.4,76.6 402.5,76.8 414,75.3 C428.6,73.4 453.6,71.7 462.5,71.9 C470.1,72 473.3,71.7 489,69 C496,67.8 496.3,67.7 506,66.1 C513.1,64.9 535.3,64.6 536.3,65.7 C537.5,66.9 544.3,67.1 546.9,66 C550.4,64.6 568.3,64 575.1,65.1 C578.1,65.6 586.6,66 594,66.1 C601.4,66.2 608,66.6 608.6,67.1 C609.3,67.7 610.2,68 610.6,67.8 C611.1,67.7 613.3,67.9 615.5,68.3 C617.7,68.7 623.6,69.3 628.5,69.6 C633.5,69.9 642,70.5 647.5,71.1 C661.7,72.5 701.9,73.2 705,72.1 C706.5,71.6 710,71.6 713.1,72 C724.6,73.8 728.8,74.2 736,74.7 C747.1,75.4 857.9,75.4 869.5,74.7 C887.3,73.6 930.4,73.2 931.7,74.2 C932.4,74.7 933.4,74.9 934,74.5 C935.1,73.8 942.4,73.3 960.7,72.6 C972,72.1 981.2,71.3 986.8,70.4 C991.5,69.7 998.9,72.6 1002.7,76.8 C1004.5,78.7 1007.7,83.7 1009.7,87.9 C1011.8,92.1 1014.7,97.4 1016.3,99.7 C1017.9,102.1 1018.9,104.4 1018.5,104.9 C1018.2,105.4 1019.3,108.5 1020.9,111.7 C1026.9,123.6 1029,131.1 1027,133.5 C1026.2,134.4 1026.2,135 1027,135.5 C1027.5,135.8 1028,135.6 1028,134.9 C1028,133.9 1028.3,133.9 1029.2,134.8 C1031,136.6 1033.8,136.2 1035,134 C1035.8,132.4 1035.5,131 1033.6,127.3 C1031.8,124 1031.4,122.4 1032.2,121.9 C1032.8,121.5 1033.5,119.7 1033.7,117.9 C1033.9,116.1 1034.4,114.2 1034.9,113.7 C1036.3,112.3 1038,113.8 1038,116.5 C1038,118.4 1038.6,118.9 1041.2,119.2 C1043.4,119.4 1044.6,120.1 1044.8,121.3 C1045,122.4 1046,124 1047.1,125.1 C1048.1,126.1 1049,128.3 1049,129.9 C1049,131.6 1049.5,133.2 1050,133.5 C1050.6,133.8 1051,133.2 1051,132.1 C1051,130.9 1051.5,130 1052,130 C1052.6,130 1053,128.7 1053,127 C1053,124.5 1053.4,124 1055.4,124 C1057.2,124 1058.2,125 1059.6,127.8 C1060.6,129.8 1061.3,132.5 1061.1,133.8 C1061,135.1 1061.4,136.8 1062.1,137.6 C1062.8,138.4 1063.3,142.3 1063.3,147.3 C1063.3,156.9 1063.1,159.1 1061.8,160.7 C1061.3,161.3 1060.9,173.5 1060.8,187.8 C1060.8,213.1 1061.4,220.2 1064.3,227 C1064.9,228.4 1065.5,238.8 1065.7,251 C1066.3,282.7 1066.3,283.2 1064.9,284 C1064.3,284.5 1063.6,285.9 1063.5,287.2 C1063.4,288.4 1062.8,290.8 1062.1,292.5 C1061.3,294.5 1060.9,302.9 1061,319.8 C1061,333.3 1061.2,344.5 1061.4,344.9 C1061.7,345.3 1061.9,355.4 1062.1,367.5 C1062.2,383.3 1062.7,390.3 1063.6,392.5 C1067.5,401.1 1068.6,407.4 1068,417 C1067.6,422.2 1067.3,425.7 1067.2,424.8 C1067.1,423.8 1066.6,423 1066.2,423 C1065.8,423 1065.5,428.8 1065.7,436 C1066,446.8 1066.3,449.5 1068,452.2 C1069.7,455.1 1070,457.2 1069.9,468 C1069.8,478 1069.6,479.6 1068.9,476.1 C1068.4,473.6 1067.9,471.1 1067.6,470.6 C1066.9,468.7 1068.6,513.6 1069.5,518 C1069.7,519.4 1070.2,522.1 1070.4,524 C1070.7,525.9 1071.5,529.4 1072.4,531.7 C1073.2,533.9 1073.7,536 1073.4,536.3 C1073.2,536.5 1073.6,540.2 1074.4,544.6 C1076.4,555.2 1077.1,569.5 1075.9,575 C1075.4,577.5 1074.8,584.1 1074.6,589.7 C1074.4,595.3 1074,600.2 1073.7,600.7 C1073.3,601.4 1074.9,610 1077.5,621.3 C1078.4,625.2 1080.6,630.6 1081.8,631.8 C1082.4,632.5 1083,634.2 1083,635.5 C1083,636.7 1083.7,639.1 1084.5,640.6 C1085.3,642.2 1086,644.5 1086,645.8 C1086,647 1086.4,648 1086.8,648 C1089.6,648 1090.4,685.1 1088.1,707 C1087.7,711.1 1087.4,717.3 1087.5,720.7 C1087.5,724.1 1087.2,726.6 1086.8,726.4 C1085.8,725.7 1085.7,725.3 1088,735.6 C1089.1,740.5 1090,746.4 1090,748.7 C1090,751 1090.5,754.1 1091.1,755.7 C1093.6,762.2 1092.5,790 1089.6,794.2 C1088.8,795.4 1088.3,797.5 1088.5,798.9 C1089.6,806 1089.9,811.1 1089.2,810.6 C1088.3,810.1 1088.5,819.5 1089.4,826.3 C1089.8,828.9 1089.7,832.5 1089.1,834.3 C1088.6,836.1 1087.6,839.5 1086.8,841.9 C1085.7,845.8 1085.5,846.1 1085,843.9 C1084.6,842.6 1084.7,839.7 1085.2,837.5 C1087.1,828.1 1087.2,822.4 1085.6,821.1 C1084.2,819.9 1084,820.1 1084,822.5 C1084,824.1 1083.5,825 1082.8,824.8 C1080.4,824 1077,815.6 1075.5,806.5 C1073.8,796.9 1073.9,796.9 1077.1,785 C1077.7,782.5 1078.2,778.1 1078.1,775.1 C1077.9,770.3 1078,769.8 1079.4,770.9 C1080.2,771.6 1081,773.3 1081.2,774.7 C1081.4,776.2 1082.1,777.5 1082.8,777.8 C1083.9,778.1 1084,777.8 1083.1,776.1 C1082.4,775 1082.3,774 1082.8,774 C1083.6,774 1083.6,772.2 1082.6,754.5 C1082,745.5 1081.8,743.4 1079.9,728.5 C1078.1,714.8 1078,713.6 1077.6,709.5 C1077.4,707.3 1077.9,701.2 1078.7,696 C1080,687.2 1080.5,672.3 1079.6,665.7 C1079.4,664.2 1079.6,662.7 1080,662.5 C1080.8,662 1080.4,657.4 1079,650.3 C1078.4,647.7 1077.5,641.9 1076.9,637.5 C1076.4,633.1 1075.3,627.5 1074.5,625 C1073.1,620.4 1072.2,614 1071.5,603.5 C1071.3,600.2 1070.8,595.5 1070.4,593 C1070,590.5 1069.6,587.8 1069.6,587 C1069.5,586.2 1069.1,583 1068.7,580 C1067.5,570.6 1067.2,565.9 1067.1,555.6 C1067,550.1 1066.7,545.9 1066.4,546.2 C1065.6,547.1 1065.7,572.5 1066.5,575.1 C1067.1,576.9 1066.9,577.2 1065.6,576.7 C1064.4,576.2 1064,576.7 1064,578.5 C1064,580.5 1063.5,581 1061.6,581 C1058.7,581 1058,581.9 1057.4,586.3 C1057.2,588.1 1056.7,591.5 1056.3,594 C1055.4,600.5 1055.6,602.7 1057.4,610.5 C1058.3,614.4 1059,619.1 1058.9,621 C1058.7,622.9 1059.4,625.9 1060.2,627.5 C1061.8,630.5 1064.3,644 1063.5,644.9 C1063.2,645.1 1063.7,646.1 1064.6,647.1 C1065.5,648.1 1066,649.6 1065.8,650.6 C1065.5,652.2 1065.4,652.3 1063.8,650.7 C1062.9,649.8 1062,649 1061.7,649 C1061.1,649 1062.1,655.3 1063,657.5 C1064.4,660.5 1064.8,669.8 1063.8,674.9 C1063.3,677.4 1062.7,682.4 1062.5,685.8 C1062.1,692.5 1061.1,695.4 1060.9,690.4 C1060.8,687.6 1060.8,687.6 1059.9,691 C1058.3,697.4 1058.2,703.4 1059.6,714 C1061.1,725.5 1064.6,733.9 1068.7,736.1 C1070,736.8 1071.1,738 1071.2,738.9 C1071.4,742 1071.6,742.5 1072.8,744.8 C1073.8,746.4 1073.8,748 1073,750.8 C1072.5,752.8 1072,756 1072,757.9 C1072,759.8 1071.7,761.1 1071.4,760.7 C1071.1,760.4 1070.6,755.8 1070.4,750.6 C1070.1,742 1069.8,740.7 1067.5,738.3 C1065.1,735.7 1065,735.6 1065,737.6 C1065,738.8 1065.7,741.5 1066.6,743.6 C1067.5,745.8 1068.3,750.8 1068.4,755.1 L1068.6,762.8 L1066.3,757.9 C1065,755.2 1063.7,753 1063.4,753 C1063.1,753 1063.2,753.5 1063.6,754.2 C1064,754.8 1064.4,758.2 1064.5,761.7 C1064.6,766.6 1065.1,768.5 1066.8,770.3 C1068.1,771.7 1069,773.9 1069,775.7 C1069,777.4 1069.7,779.3 1070.5,780 C1071.3,780.7 1072,782.1 1072,783.1 C1072,784.1 1072.5,785.2 1073,785.5 C1073.6,785.8 1073.7,787.3 1073.4,788.8 C1072.5,792.3 1072.1,792.7 1071,791 C1070.4,790.1 1070.5,789.3 1071.2,788.9 C1072,788.4 1072.1,787.8 1071.3,786.8 C1070.7,786.1 1070.4,784.7 1070.5,783.8 C1070.7,782.8 1070.4,781.7 1069.8,781.4 C1069,780.9 1069.3,791.2 1070.5,801.2 C1070.7,802.7 1070.4,804.2 1069.9,804.6 C1069.3,805 1069.3,805.7 1070,806.5 C1070.6,807.2 1071,808.2 1070.9,808.6 C1070.8,809.1 1070.9,811.1 1071,813 L1071.3,816.5 L1071.9,813 C1072.5,809.7 1072.6,809.6 1073.7,811.6 C1075,813.8 1077.8,825.1 1078.4,830.7 C1078.7,832.5 1079.2,834.5 1079.6,835.2 C1081.2,837.7 1080.9,846.6 1078.4,866.5 C1078.2,868.7 1078.7,873.6 1079.6,877.4 C1081.1,883.6 1081.4,884.1 1082.6,882.5 C1083.4,881.5 1084,879.8 1084,878.9 C1084,877.1 1088,873.7 1091.5,872.6 C1093.7,872 1093.9,872.7 1093.9,881.9 C1094,885.7 1094.2,886.1 1095.5,885 C1096.3,884.3 1097,883.1 1097,882.4 C1097,881.5 1098.1,881 1100.1,881 L1103.3,881 L1102.6,887.9 C1102,894.7 1099.8,901 1098.6,899.2 C1098.3,898.7 1097.2,898 1096.2,897.8 C1094.5,897.3 1094.4,898.2 1094.6,912.6 C1094.8,927.8 1094.8,927.9 1092.7,927.7 C1091.5,927.6 1090.2,926.6 1089.8,925.5 C1089.3,924.3 1089.2,924.8 1089.5,926.9 C1089.8,928.7 1090,931.6 1090,933.2 C1090,935.4 1090.6,936.3 1092.1,936.7 C1093.8,937.2 1094.1,937.8 1093.6,939.9 C1093.2,941.3 1092.7,946.3 1092.3,951 C1091.9,956.3 1091.4,958.7 1091,957.5 C1090.3,955.6 1090.5,948.8 1091.5,942.8 C1091.7,941.3 1091.5,939.8 1091,939.5 C1090.4,939.2 1090,939.8 1090,940.9 C1090,942 1089.6,943.1 1089.1,943.4 C1088.2,944 1088.3,964 1089.3,965.6 C1090.2,967.1 1090.2,983.7 1089.2,991.8 C1088.3,1000.3 1089.3,1002 1095.2,1002 C1098.8,1002 1098.8,1002 1098,1005.3 C1097.4,1008.1 1097.6,1008.9 1099.2,1009.9 C1100.7,1010.8 1101.2,1010.7 1101.6,1009.5 C1102,1008.7 1101.7,1007.3 1101,1006.5 C1100,1005.3 1100.3,1005 1102.3,1004.5 C1103.6,1004.1 1106.1,1004 1107.6,1004.2 C1110,1004.4 1110.4,1004.9 1110.2,1006.8 C1110,1008.3 1110.4,1009 1111.4,1009 C1112.3,1009 1113,1009.7 1113,1010.5 C1113,1011.3 1113.6,1012 1114.4,1012 C1116.4,1012 1116.7,1014.3 1115.8,1022 C1115.4,1025.6 1114.8,1036.8 1114.5,1047 C1114.2,1057.2 1113.5,1066.9 1113,1068.5 C1112.5,1070.2 1111.8,1073.5 1111.6,1076 C1111.3,1078.5 1110.7,1084.3 1110.1,1089 C1109.5,1093.7 1109.4,1099.7 1109.8,1102.5 C1110.2,1105.2 1110.1,1110.1 1109.6,1113.3 C1108.9,1117.6 1109,1120.3 1109.9,1123.8 C1110.7,1126.4 1111.4,1130 1111.5,1131.7 C1111.6,1133.5 1111.8,1135.2 1112.1,1135.4 C1112.3,1135.6 1115.4,1135.4 1119,1134.9 C1122.6,1134.5 1128.3,1134 1131.8,1133.8 C1137.7,1133.4 1138,1133.5 1138,1135.7 C1138,1137.8 1137.6,1138 1132.2,1138 C1124.8,1138 1109.8,1140.3 1100,1142.9 C1095.9,1144 1087.8,1145.4 1082,1146 C1071.7,1147 1037.9,1147.4 1033,1146.5 C1031.6,1146.3 1027.4,1145.6 1023.5,1145 C1010.9,1143 990.7,1137.6 982.5,1134 C981.4,1133.5 977.9,1132 974.7,1130.6 C952.8,1120.9 929.3,1112.8 914.9,1110 C894.9,1106.1 871.5,1107.3 857.4,1112.8 C852.5,1114.8 824.9,1128.2 822,1130.1 C821.2,1130.6 818.9,1131.7 817,1132.6 C813.1,1134.3 812.5,1134.7 802.2,1140.9 C797.1,1144 795.1,1145.7 795.5,1146.8 C795.8,1147.6 795.5,1148.9 794.9,1149.6 C794.1,1150.6 794.5,1151.7 796.9,1154.1 C806.4,1163.5 818,1205 818.1,1229.4 C818.1,1235.8 817.6,1240 815.1,1255 C814.3,1259.6 809.1,1275.1 807.1,1278.9 C804.8,1283.1 800.1,1289.6 797.6,1291.9 L795,1294.3 L760.8,1294.2 C718.2,1294 715.8,1293.9 715.2,1292.2 C714.8,1291 718,1290.9 733.6,1291.6 C755.3,1292.6 757.3,1292.6 777,1291.5 C785,1291 792.9,1290.7 794.6,1290.6 C797.3,1290.6 798.1,1290 799.9,1286.3 C801,1283.9 802,1281.5 802,1281 C802,1279.6 724.7,1281.1 720.7,1282.6 C720,1282.8 718.9,1282.6 718.1,1282.1 C716.9,1281.3 716.9,1280.9 717.9,1279.6 C718.6,1278.7 719.6,1278.3 720.1,1278.6 C721,1279.1 776.3,1279.1 782.5,1278.5 C796.5,1277.3 801.7,1276.6 803.1,1275.9 C804.5,1275.2 807,1268.9 807,1266.1 C807,1265.2 796.4,1264.9 763.5,1265.1 C739.5,1265.2 719.6,1265 719.3,1264.6 C718.9,1264.3 718.9,1263.8 719.2,1263.5 C719.7,1262.9 720,1262.9 738.5,1262.9 C746.2,1262.9 765.1,1262.6 780.5,1262.2 L808.5,1261.5 L809.4,1257.2 C809.9,1254.9 810,1252.7 809.7,1252.3 C809.2,1251.9 730.4,1251.7 724,1252.2 C720.4,1252.5 718.9,1251.9 719.2,1250.4 C719.5,1249 724.5,1248.9 765.2,1248.9 L810.8,1248.8 L812,1242.4 C812.7,1238.8 812.9,1235.6 812.6,1235.2 C811.9,1234.6 799,1234.6 740.8,1235.4 C722,1235.6 716.7,1235.1 721.8,1233.6 C722.7,1233.3 738.1,1232.8 756,1232.4 C773.9,1232.1 791,1231.7 794,1231.6 C797,1231.5 802.5,1231.3 806.1,1231.2 L812.7,1231 L812.4,1224.9 C812.3,1221.6 811.9,1218.5 811.5,1218.2 C811.1,1217.8 802.9,1217.4 793.2,1217.3 C783.5,1217.2 767.2,1217 757,1216.8 C746.8,1216.7 734,1217 728.5,1217.4 C719.6,1218.1 718.7,1218 720,1216.7 C721.6,1215 738.6,1213.4 751,1213.7 C758.8,1213.9 809,1214.2 810.8,1214.1 C811.8,1214 812,1212.8 811.4,1209.3 C811,1206.6 810.4,1203.5 809.9,1202.3 L809.1,1200.2 L765.9,1200.1 C742.1,1200 722.4,1199.7 722.1,1199.4 C720.1,1197.4 727.4,1197 765.7,1197 C788.8,1196.9 808,1196.7 808.2,1196.4 C809,1195.6 805.9,1183.6 804.7,1182.7 C803.5,1181.9 741.6,1182.6 735.5,1183.5 C730.5,1184.2 723.1,1184.4 722.5,1183.8 C722.2,1183.5 722.2,1182.6 722.5,1181.8 C722.9,1180.7 724.9,1180.4 730.3,1180.4 C734.3,1180.4 744,1180 752,1179.7 C760,1179.3 774.9,1178.9 785.3,1178.9 C795.6,1178.9 804,1178.6 804,1178.1 C804,1177.7 803.5,1175.9 802.9,1174.3 C802,1171.5 801.3,1171.2 796.7,1170.6 C791.4,1170 768,1170.3 737.9,1171.6 C726.5,1172 721.1,1171.9 720.6,1171.2 C719.4,1169.3 722.2,1168.7 733.9,1168.3 C760.2,1167.6 781,1167.1 789.5,1166.9 C794.5,1166.8 798.8,1166.6 799.3,1166.3 C799.7,1166.1 799.3,1164.5 798.3,1162.9 C796.1,1159.2 796,1159.2 763,1160.4 C753.9,1160.8 744.3,1161.3 741.5,1161.5 C721.8,1163.1 719,1163.2 719,1162.2 C719,1161.6 719.4,1160.9 719.8,1160.6 C720.9,1159.9 742.4,1158.2 760,1157.4 C780.6,1156.4 781.1,1156.3 787.8,1156.2 C794.3,1156 794.9,1155.6 792.7,1152.6 C791.5,1151 789.8,1150.8 779.4,1150.8 C772.9,1150.8 763.7,1151.3 759,1151.9 C754.3,1152.5 748.7,1153.2 746.5,1153.5 C744.3,1153.8 737.5,1154.2 731.3,1154.4 C725.2,1154.6 719.8,1155 719.3,1155.3 C718.8,1155.6 715.9,1156.1 712.9,1156.4 C710,1156.7 704.1,1158 700,1159.3 L692.6,1161.7 L697.3,1162.4 C700,1162.8 702.7,1162.7 703.9,1162.1 C705.2,1161.4 706.1,1161.3 706.5,1162 C706.8,1162.5 708.6,1163 710.4,1163 C713.7,1163 713.7,1163 713.8,1168.3 C714.3,1192.8 713.4,1272.9 712.5,1282.2 C711.8,1289.7 709.5,1293.8 706.6,1292.7 C705,1292.1 705,1291.9 706.4,1290.4 C709,1287.9 708.4,1285.9 705.4,1286.6 C703.4,1287.1 702.9,1286.9 703.2,1285.9 C703.4,1285.2 704.7,1284.3 706.1,1284 C707.8,1283.6 708.6,1282.6 708.8,1280.6 C709.1,1277.9 709,1277.8 706,1278.5 C703.2,1279.1 702.9,1278.9 703.2,1277.3 C703.4,1276 704.4,1275.5 706.5,1275.5 C709.3,1275.5 709.5,1275.2 709.8,1271.3 C710.1,1267 710.1,1267 707.1,1267.6 C703.2,1268.4 699,1267.3 699,1265.5 C699,1263.5 701.1,1262.5 702,1264 C702.5,1264.9 703.9,1265 706.4,1264.6 C709.8,1263.9 710,1263.7 709.8,1259.9 C709.7,1256.8 709.3,1256.1 708.1,1256.4 C703.9,1257.6 698,1258.1 698,1257.3 C698,1255.3 700.6,1254 704.7,1254 C708.7,1254 709,1253.8 709,1251.3 L709,1248.5 L700.9,1248.5 L692.8,1248.4 L693.4,1251 C693.8,1252.4 694.4,1256.4 694.9,1260 C695.4,1263.6 697.2,1271.9 698.9,1278.5 C704.4,1300.1 704.7,1300.3 726.8,1300 C735.4,1299.9 745.4,1299.7 749,1299.5 C756.8,1299.2 777.8,1298.8 780.3,1298.9 C783,1299 782.3,1300.6 779,1302 C775.5,1303.4 775.3,1304.1 777.9,1305.7 C779.4,1306.7 780.5,1306.5 783.6,1304.9 C785.7,1303.9 788.2,1303 789.1,1303 C790.9,1303 799.7,1307.4 802.1,1309.6 C802.9,1310.4 804,1311 804.5,1311 C804.9,1311 807.7,1312.6 810.6,1314.5 C813.5,1316.4 817,1318 818.4,1318 C819.8,1318 821,1318.4 821,1318.8 C821,1321.3 846.6,1330 854.2,1330 C880.4,1330.3 892.7,1329.4 903.4,1326.4 C906.1,1325.6 909.8,1325 911.6,1325 C913.4,1325 917.2,1324.1 920,1323 C922.8,1321.9 927.1,1321 929.5,1321 C931.9,1321 934.2,1320.5 934.5,1320 C935.4,1318.6 956,1320.7 959,1322.5 C959.6,1322.8 964.4,1324.2 969.8,1325.6 C975.1,1327 982,1328.7 985,1329.5 C997.6,1332.9 1008.2,1334.2 1033.5,1335.6 C1039.6,1335.9 1044.8,1336.4 1045.2,1336.6 C1045.5,1336.8 1047,1336.5 1048.4,1335.9 C1050.4,1334.9 1053.2,1335.1 1062.5,1336.9 C1068.8,1338.1 1075.5,1339.7 1077.4,1340.5 C1079.2,1341.3 1082.9,1342.2 1085.6,1342.6 C1088.3,1342.9 1091.6,1344 1093,1345 C1094.4,1345.9 1097.9,1347 1100.8,1347.4 C1103.8,1347.8 1106.9,1348.5 1107.8,1349 C1111.4,1350.9 1124.9,1355 1131.3,1356.1 L1138,1357.2 L1138,1360.6 C1138,1363.7 1137.7,1364 1135,1364 C1131.6,1364 1115.8,1360.6 1111.5,1359 C1108.2,1357.8 1094.7,1354 1091,1353.4 C1089.6,1353.1 1085.9,1352.2 1082.7,1351.4 C1079.5,1350.6 1075,1349.5 1072.7,1349.1 C1070.4,1348.6 1065.1,1347.4 1061,1346.5 C1056.9,1345.5 1050.1,1344.6 1046,1344.6 C1038.4,1344.4 1023.1,1342 1000.3,1337.5 C993.4,1336.1 986.4,1334.8 984.7,1334.5 C982.9,1334.2 977.9,1332.9 973.5,1331.5 C959.6,1327.4 941.8,1323.8 938,1324.4 C936.1,1324.7 931.6,1325.4 928,1325.9 C924.4,1326.4 919.7,1327.4 917.5,1328.3 C913.8,1329.6 895.4,1333.2 884.9,1334.5 C882.3,1334.8 874.2,1335.3 866.9,1335.5 C849.8,1336 836.1,1333.6 823,1327.8 C811.9,1322.9 799.5,1316.6 798.2,1315.3 C796.9,1314 783.7,1307 782.5,1307 C780.9,1307 782.5,1309.1 785.8,1311.1 C801.6,1321 821.8,1330.2 837.5,1334.8 C852.3,1339.1 858.4,1339.9 869.1,1338.7 C873.2,1338.2 876.7,1338.3 878.4,1339 C880.6,1339.8 883.5,1339.6 891.4,1337.9 C896.9,1336.8 904.7,1335.2 908.5,1334.4 C915.4,1333 918.3,1332.3 927,1330 C929.5,1329.3 936.3,1328.7 942.2,1328.5 C951.6,1328.3 953.1,1328.5 954.6,1330.1 C955.6,1331.2 957.2,1332 958.2,1332 C959.2,1332 963.5,1332.8 967.8,1333.9 C982.2,1337.4 985.5,1338 991,1338.6 C994,1338.8 997.3,1339.3 998.2,1339.6 C999.1,1339.9 1002.3,1340.3 1005.2,1340.5 C1014.8,1341.4 1026.1,1343.8 1027.9,1345.4 C1028.9,1346.3 1030.7,1347 1032.1,1347 C1035.4,1347 1050,1349.7 1053,1350.8 C1054.4,1351.3 1058.6,1352.1 1062.3,1352.5 C1067.5,1353 1069.8,1353.8 1071.8,1355.6 C1073.3,1356.9 1075.3,1358.6 1076.2,1359.3 C1077.2,1359.9 1078.6,1362.1 1079.4,1364.2 C1080.9,1367.6 1080.8,1368 1078.3,1372.7 C1076.9,1375.3 1075.1,1378.7 1074.3,1380.1 C1072.6,1383.5 1070.4,1385.4 1069.1,1384.6 C1067.7,1383.7 1062.9,1388.6 1058.1,1395.7 C1054.7,1400.9 1053,1402.4 1048.4,1404.5 C1045.3,1405.9 1042,1406.8 1041,1406.5 C1039.7,1406.1 1038.8,1406.7 1037.9,1408.9 C1037.1,1410.6 1036.1,1411.6 1035.3,1411.3 C1034.6,1411 1034,1411.2 1034,1411.7 C1034,1412.8 1025.2,1411.8 1023,1410.5 C1021.1,1409.3 962,1409 962,1410.1 C962,1410.6 962.6,1411 963.4,1411 C964.2,1411 965.1,1411.4 965.5,1412 C965.8,1412.5 963.9,1412.3 961.3,1411.5 C957.8,1410.5 954.3,1410.3 948,1410.9 C943.3,1411.3 935.5,1411.5 930.5,1411.2 C925.6,1411 914.5,1410.8 905.9,1410.7 C892.2,1410.5 890,1410.3 888.2,1408.7 C886.3,1407 874.5,1405 850.5,1402.4 C841.3,1401.3 833,1399.8 832.4,1398.9 C832.1,1398.4 831,1398 829.9,1398 C828.8,1398 828.2,1398.5 828.5,1399 C829.3,1400.3 828.4,1400.3 825.8,1398.9 C824.3,1398.1 823.9,1398.1 824.4,1398.9 C825.5,1400.6 813.5,1400.3 812.1,1398.6 C811,1397.3 806.5,1396.4 795.8,1395.3 C790.9,1394.9 790,1395 790,1396.4 C790,1397.3 789.3,1398 788.4,1398 C787.6,1398 787.2,1398.5 787.5,1399 C788.4,1400.5 783.4,1400.2 781.8,1398.7 C780,1396.9 777,1395.9 777,1397 C777,1397.6 777.5,1398 778,1398 C778.6,1398 779,1398.4 779,1398.9 C779,1399.4 776.9,1399.7 774.3,1399.5 C771.7,1399.4 768.5,1399.6 767.3,1400.1 C765.8,1400.6 763.9,1400.4 761.6,1399.5 C757.5,1397.8 751.6,1397.5 752.5,1399 C752.9,1399.6 753.5,1399.8 753.9,1399.6 C754.3,1399.3 755.2,1399.6 756,1400.1 C757.3,1400.9 757.2,1401.3 755.6,1402.5 C753.1,1404.4 746.1,1404.4 743.6,1402.5 C742.4,1401.6 739.3,1401 736.1,1400.9 C732.2,1400.9 731.1,1400.6 732.5,1400.1 C734,1399.5 733.3,1399.2 729.7,1398.9 C727,1398.7 724.6,1398.8 724.4,1399.2 C724.1,1399.7 725.1,1400 726.5,1400 C727.9,1400 728.9,1400.4 728.6,1400.8 C727.8,1402.1 724,1401.5 723,1400 C722.4,1399 719.8,1398.8 710.8,1399.3 C700.1,1399.9 689.6,1399.3 675,1397 C669.5,1396.1 655.9,1395.4 632.8,1394.8 C630.1,1394.7 626.3,1395.2 624.3,1395.8 C613.6,1399 606.7,1400.3 599.5,1400.7 C585.9,1401.4 575.7,1401.2 571,1400.1 C564.8,1398.7 559.4,1398.7 556.2,1400.4 C552.7,1402.1 546.8,1403 534.5,1403.6 C529,1403.9 523.2,1404.3 521.5,1404.6 C519.9,1404.9 509.6,1405.3 498.8,1405.5 C488,1405.7 475.9,1406.3 471.8,1406.9 C467.8,1407.6 462.8,1407.8 460.8,1407.6 C458.7,1407.3 456.8,1407.5 456.5,1408 C456.2,1408.5 453.1,1408.7 449.7,1408.3 C445.6,1408 439.4,1408.5 431.5,1409.8 C421.2,1411.5 416,1411.8 394.5,1411.5 C380.8,1411.3 367.7,1411.6 365.5,1412 C358.6,1413.4 347.5,1414 316.9,1414.6 C291.7,1415.1 286.4,1414.9 281.9,1413.6 C276.1,1411.8 260.5,1411.4 259.5,1413 C259.2,1413.6 257.6,1414 255.9,1414 C254.3,1414 253,1414.3 253,1414.8 M940,1409 C936.5,1407.9 932.8,1407.8 933.4,1408.9 C933.7,1409.4 935.9,1409.8 938.2,1409.8 C941.7,1409.7 942.1,1409.6 940,1409 Z M674,1393.6 C674,1392.7 671,1392.2 670.5,1393 C670.1,1393.6 670.8,1394 671.9,1394 C673.1,1394 674,1393.8 674,1393.6 Z M707,1392.9 C707,1392.3 706.4,1392 705.8,1392.3 C705.1,1392.5 703.7,1392.3 702.8,1391.8 C701.7,1391.3 701,1391.3 701,1391.9 C701,1392.5 698.4,1393.1 695.3,1393.3 C690.8,1393.5 691.5,1393.7 698.3,1393.8 C704,1393.9 707,1393.6 707,1392.9 Z M681.7,1391.4 C681.4,1391.1 680.5,1391 679.8,1391.3 C679,1391.6 679.3,1391.9 680.4,1391.9 C681.5,1392 682.1,1391.7 681.7,1391.4 Z M687,1248.3 C687,1246.7 685.3,1245.4 680.1,1243 C672.8,1239.6 669.9,1237.3 664.3,1230.4 C661.7,1227.2 658.9,1223.8 658.1,1223 C655.7,1220.6 650,1211.2 648.1,1206.7 C645.6,1201 641.8,1196.6 635.7,1192.6 C625.8,1186.2 622,1184.6 601,1177.8 C594.1,1175.6 586.6,1172.6 584.3,1171.3 C581.9,1169.9 580,1169 580,1169.3 C580,1170.6 598.4,1179.5 611,1184.4 C632.2,1192.5 643.3,1201.2 650.5,1215.4 C652.6,1219.5 655.5,1224.2 657.1,1226 C658.7,1227.7 660,1229.5 660,1230 C660,1231 671.8,1242 673,1242 C673.5,1242 674.5,1242.7 675.4,1243.5 C676.9,1245 684.7,1248.9 686.3,1249 C686.7,1249 687,1248.7 687,1248.3 Z M708.6,1208.2 C708.2,1189.1 707.5,1172.1 706.9,1170.4 C706,1167.3 705.8,1167.3 697.8,1166.6 C678.7,1165 671.5,1157.3 667.9,1134.6 C664.3,1111.8 662.9,1107.9 655.7,1101.3 C653.2,1099 647.5,1095.3 642.9,1093 C634.3,1088.7 631.8,1087.4 629.1,1085.3 C623.2,1080.9 620.7,1078.2 618.4,1073.7 C614.5,1066 614.8,1057.7 619.5,1043.5 C624.1,1029.6 626.2,1019.8 624.8,1018.9 C624.1,1018.5 624.2,1018 625,1017.5 C626.7,1016.5 625.5,1006.4 622.9,999.5 C619.8,991.1 607,979.5 597,975.8 C589.5,973 580.2,967.2 574.2,961.5 C568.9,956.5 567.7,954.6 566.5,950 C564.3,941.9 564.6,932.2 567.1,925.3 C569,920.3 571.2,917.5 583.2,905.4 C598.2,890.3 601.9,885 604.5,875.2 C606.1,868.9 606,865.4 603.9,855.5 C602.8,850.5 602.5,849.5 599.6,842.8 C598.7,840.8 598,838.9 598,838.6 C598,835.7 582.6,819.3 576.2,815.3 C574.7,814.4 571.9,812.3 570,810.8 C568.1,809.2 566,807.6 565.5,807.2 C557.1,801.2 549.1,794.2 539,784 C523.2,768.1 512.6,740.7 511.3,712.7 C510.6,697.3 512.3,675.4 515.6,658.5 C516.8,651.9 518.2,644 518.5,641 C518.9,638 519.8,633.3 520.6,630.6 C524.8,615.9 526.6,586.3 524,576 L522.6,570.5 L521.9,577.2 C520.7,588.6 516.4,593.9 509.5,592.6 C506.2,592 505.6,591.3 503.4,586.4 C502.1,583.4 500.9,581 500.6,581 C500.4,581 500.2,591.9 500.1,605.2 C499.9,631.2 499.2,636.9 495.6,641.4 C492.5,645.2 485.1,647.1 478.4,645.9 C468.8,644.1 460.8,632.2 458.5,616.3 C455.6,596.9 454.7,567.1 456.1,542.5 C457,527.6 460.4,498.7 462.3,490.5 C464.7,480.3 467.7,468.9 470,461 C471.6,455.8 473.3,448.2 473.9,444.3 C474.5,440.3 475.5,433.7 476.1,429.8 C476.8,425.4 477,415.7 476.7,405.5 C476.1,385.4 476.3,386.3 462.1,349 C457,335.8 456.1,330.6 455.6,310.8 C455.1,294.5 455.2,292.1 456.5,292.6 C457.7,293.1 457.9,292.6 457.4,289.9 C455.5,278.7 453.6,278.1 452.4,288 C451.5,295.9 449.3,300.5 445.3,303.6 C442.3,305.9 441.1,306.2 436.4,305.8 C432.1,305.4 430.3,304.7 427.9,302.4 C423.5,298.3 422.3,295.4 421.7,288.1 C421.4,284.7 420.9,281.6 420.7,281.3 C419.6,280.3 418,288 417.5,295.9 C416.8,307.1 420,324.8 424.1,332.2 C424.6,333.2 425,334.6 425,335.4 C425,336.1 426.1,339.2 427.4,342.1 C428.6,345.1 430.8,350.3 432.1,353.7 C433.4,357.1 434.7,359.8 435,359.8 C435.3,359.8 438.9,359.9 443,360 C449.2,360.1 450,360.3 447.5,361.1 C445.9,361.6 442.6,362.1 440.3,362.2 C437.9,362.4 436,363 436,363.6 C436,365.9 442.4,367.5 451,367.4 C458.9,367.2 459.3,367.3 456.5,368.6 C454.9,369.3 450,369.9 445.7,370 C438,370 437.9,370 438.6,372.3 C440.4,377.9 442.2,385 443.4,390.5 C445.7,401.9 442.8,419 435.6,437.5 C430.1,451.5 428.5,455.5 428.5,456 C428.5,456.3 428.2,457 427.8,457.5 C426.5,459.6 422.9,473 421.5,481.3 C419,495.9 419.1,510.9 421.9,529.5 C422.4,532.8 423.4,538.9 424,543 C424.7,547.1 425.6,553.2 426.1,556.5 C430.1,582.9 426.1,607.1 416.5,613 C413.4,614.9 412,615.2 407.2,614.7 C402.4,614.2 401,613.6 398.4,610.7 C396.7,608.8 394.2,604.7 392.9,601.4 C390.9,596.3 390.6,593.9 390.6,583.5 C390.7,575 391.3,569 392.8,563 C395.9,550.3 395.3,537.5 391,525.1 C389.3,519.9 386.3,512.4 384.5,508.3 C378,494.2 373.9,477.6 373.7,464.3 L373.6,457 L370,456 C365.3,454.7 360.3,454.7 356.3,456.2 C352.5,457.6 350.6,456.5 353.5,454.4 C357,451.8 362.7,450.8 368.3,451.9 C371.1,452.4 373.6,452.7 373.8,452.5 C374.8,451.5 375.6,418.7 374.6,417.2 C374.4,416.8 373.9,414.3 373.6,411.7 C372.5,403.5 368.2,393.9 362.2,386.1 C355.8,377.8 353.3,376 354.4,380.6 C354.8,382.2 355.5,383.7 356,384 C356.7,384.5 359.8,395.7 360.7,401.5 C361.3,405.3 358.7,411.5 355.7,413.4 C353.2,415.1 347.6,414.3 343.5,411.6 L341.1,410 L342.7,413.8 C344.3,417.4 344.8,419.4 346.9,429.1 C348.2,435.1 347.5,447.6 345.4,457 C344.5,461.1 343.6,465.9 343.4,467.5 C343.3,469.2 342.4,475.7 341.6,482 C339.6,496.3 340.3,511.1 343.6,524.5 C345.3,531.5 347.9,539.8 349,542.1 C349.5,543 350.4,545.7 351,548 C351.6,550.3 353.2,553.9 354.5,555.9 C356.7,559.3 360.6,572.1 360.9,576.5 C361.3,585.2 360.7,595.4 359,607 C355.9,628.4 355.4,637.8 356.5,651 C357.8,667.4 360.6,678.1 370,701.5 C373.8,710.9 376.2,717.9 376.6,721 C378.4,735.2 378.3,736.8 375.6,742.3 C373.2,747.3 370.6,750.5 366.7,753.7 C364.2,755.6 357.8,757 348.7,757.4 C340.8,757.7 339.4,757.5 333.9,754.9 C320.4,748.5 310.3,732.4 305.3,709 C303.9,702.3 303.4,688 304.4,682.5 C304.6,681.4 305.1,678.5 305.5,676 C306.1,672 309,662 313.7,648 C317.5,636.5 318.3,632.1 318.2,622.7 C318.2,617.2 317.7,611.6 317.1,610.2 C316.5,608.7 315.9,606.5 315.7,605.3 C315.5,604.1 315.1,602.7 314.7,602.4 C314.3,602 314,600.8 314,599.7 C314,597.8 313.3,595.9 307.4,583.3 C305.5,579.4 304,575.9 304,575.6 C304,575.2 303.1,573.1 302.1,570.7 C299.7,565.3 297.6,558.4 295.5,548.6 C293.4,539.1 293.9,527.2 296.9,515.6 C299.8,504.7 299.8,490.6 296.9,484.3 C295.8,481.8 294.7,480 294.5,480.2 C294.2,480.5 291,496.4 290.5,500.5 C289.9,504.9 286.6,511.1 283.5,513.9 C276.3,520.2 267.4,518.3 263.1,509.6 C261,505.5 260.7,503.3 260.7,495.7 C260.8,487.4 260.7,486.8 259.4,489.2 C255.5,496.6 254.1,515.5 256.6,526.6 C258.4,534.9 263.4,548 265.1,549 C265.6,549.4 268.9,548.2 272.4,546.4 C277.4,543.9 279.5,543.4 282.1,543.9 C286.4,544.8 287.2,547 283.2,547 C278.9,547 269.3,551.5 268.5,553.9 C267.2,558 269.9,559.1 274.8,556.6 C278.4,554.8 283,553.8 283,554.7 C283,555.2 280.5,556.8 277.5,558.5 C271.8,561.5 271.6,561.9 272.6,565.8 C273.2,567.9 273.6,568 277.9,567.4 C280.4,567 283.3,566.3 284.3,565.8 C285.5,565.2 286,565.3 286,566.4 C286,568.2 283,570 280,570 C277.1,570 276.6,572.3 278.3,577.7 C282.5,590.7 283.2,595.7 283.2,612.2 C283.1,632.6 279.9,651.9 271.8,680 C269.3,688.7 268,712.9 269.4,724 C271.6,742.2 281.8,769.6 291.5,783.5 C307.3,806.2 329,819.7 363.5,828.3 C375.2,831.3 384.5,833.2 387.5,833.5 C402.7,834.7 415,837 421.7,840 C424.2,841.1 426.8,842 427.5,842 C428.1,842 430,842.6 431.6,843.4 C433.2,844.2 436.3,845.6 438.5,846.6 C446.6,850.2 462,864 462,867.5 C462,868.2 462.8,870.6 463.9,872.9 C464.9,875.2 465.6,878.2 465.5,879.5 C464.5,888.2 462.9,890.1 453,894.5 C447.3,897.1 445.3,897.4 437,897.5 C427.8,897.5 427,897.3 412.9,891.8 C380.2,879.1 363.2,875.1 353.8,877.9 C346,880.2 339.4,887.1 338.4,894 C337.8,897.3 341.2,906 344,908.5 C345.7,910 345.8,909.9 346.9,906.9 C347.5,905.1 348,902 348,900 C348,893 352.3,886.4 354.5,890 C354.8,890.6 357,891 359.3,891 C365.1,891.1 374.1,893.4 378.7,895.9 C386.6,900.4 388.9,907.3 385.5,916.9 L384.2,920.8 L387.2,921.4 C393.2,922.6 397,922.1 397,920.3 C397.1,917.2 402.5,908.9 405.8,906.8 C408.3,905.2 409,905.1 409,906.2 C409,907 408.1,908.5 407,909.5 C404.2,912 400.6,919.5 401.3,921.3 C401.6,922.1 403.2,923.2 405,923.8 C408.1,924.9 408.1,924.9 410.1,920.4 C411.1,917.9 412,915.5 412,915 C412,914.6 412.7,913.7 413.5,913 C415.4,911.5 415.4,911.5 413.4,919 C411.7,925.7 411.8,926 416.8,928 C420.8,929.6 421.1,929.2 423.7,921.2 C424.6,918.3 425.9,916.1 426.4,916.3 C427.9,916.8 427.8,918.5 426.2,924.9 C425.5,927.8 425.2,930.6 425.7,931 C426.1,931.5 430.1,933.7 434.5,936 C438.9,938.4 443.4,941 444.5,942 C445.6,942.9 448.5,944.8 451,946.2 C461.6,952.3 473.6,968.1 478.5,982.5 C481,989.7 484.6,999.3 487,1004.5 C487.5,1005.6 488.6,1009.2 489.5,1012.5 C491.5,1019.7 499.1,1035.9 502.3,1039.5 C507.9,1045.9 514.8,1052 517.5,1053.1 C520.7,1054.4 524.6,1056.8 540.5,1067.3 C563.2,1082.1 569.3,1093.2 566,1113.6 C564.5,1122.6 564.6,1134.9 566.1,1140.2 C567.4,1144.6 573.5,1154 575,1154 C575.5,1154 576.1,1154.8 576.5,1155.8 C576.8,1156.9 579.2,1159.2 581.8,1161 C584.4,1162.9 586.7,1164.6 587,1165 C587.3,1165.3 589.3,1166.4 591.5,1167.5 C593.7,1168.6 595.7,1169.8 595.8,1170.3 C596,1170.7 596.8,1171 597.6,1171 C598.4,1171 600.3,1171.6 601.8,1172.4 C603.3,1173.2 606.1,1174 608.1,1174.3 C610,1174.5 612.6,1175.2 613.7,1175.8 C614.8,1176.4 618,1177.7 620.6,1178.6 C628.9,1181.3 641.3,1188.6 645.5,1193.2 C647.7,1195.6 650.8,1200.2 652.4,1203.5 C656.9,1212.5 667.7,1227.6 671.5,1230.2 C672.1,1230.5 673.5,1231.7 674.7,1232.7 C680.2,1237.5 694,1242.3 703.5,1242.7 L709.2,1243 L708.6,1208.2 Z M564.6,1154.3 C559.3,1146.3 557.3,1128.5 560.4,1117.3 C561.2,1114.4 561.7,1108.6 561.6,1104.3 C561.2,1089.5 554.7,1080.9 533.5,1066.9 C515.8,1055.2 514.5,1054.2 506.6,1046 C495.4,1034.2 487.1,1020 477,995 C474,987.6 471.7,983.4 470.7,983.2 C469.2,982.9 469.2,983.2 470.5,986.9 C471.3,989.2 471.9,991.1 471.9,991.3 C471.3,994.7 487.8,1030 494.6,1039.6 C501.6,1049.5 513.7,1059.4 527.1,1066 C537.2,1071 549.3,1079.8 549.9,1082.5 C550.1,1083.6 550.6,1084.7 551,1085 C551.4,1085.3 552.8,1087.8 554.1,1090.5 C556.3,1095.1 556.4,1096.7 556.5,1112.7 C556.5,1122.2 556.1,1130 555.7,1130 C554.2,1130 556.7,1140.8 559.8,1148 C560.7,1149.9 561.4,1151.7 561.4,1152 C561.5,1152.9 566.5,1158.8 566.8,1158.5 C567,1158.3 566,1156.5 564.6,1154.3 Z M686,1157.2 C686,1156.8 684.2,1154.6 682,1152.5 C679.8,1150.4 678,1148.1 677.9,1147.5 C677.9,1147 677,1144.7 676,1142.5 C674.3,1139 674.1,1138.9 674.6,1141.5 C675,1143.2 676.1,1146.3 677.2,1148.5 C680.1,1154.4 686,1160.2 686,1157.2 Z M675.1,1127.3 C674.6,1125.6 674.4,1124 674.6,1123.7 C674.8,1123.5 674.5,1120.7 673.9,1117.5 C671.4,1104 663.9,1095.4 649.2,1088.9 C636.2,1083.2 633.2,1081.2 628.3,1074.9 C625.3,1070.8 624.1,1068.3 623.7,1064.7 C623.2,1059.6 625,1050 627.5,1044.6 C630.3,1038.5 634.2,1025.4 635.1,1019 C636.2,1010.9 634.6,996.6 631.8,989 C628.3,979.8 620.4,972.7 607.8,967.4 C603.3,965.5 599.1,964 598.5,964 C595.6,964 583.1,956.8 579.5,953.1 C575.7,949.1 572.8,948 571.5,950 C570.8,951.1 582.5,963 584.2,963 C584.7,963 586.4,963.8 587.8,964.8 C590.4,966.6 600,970 602.4,970 C604.7,970 611.5,973.8 613.9,976.4 C615.3,977.8 616.9,979 617.5,979 C618.1,979 619.6,980.1 620.8,981.5 C622,982.9 623.3,984 623.7,984 C625.4,984 629.9,992.9 631,998.5 C632.4,1005.2 632.4,1016 631,1020.5 C630.5,1022.2 629.4,1025.8 628.7,1028.5 C624.7,1042.4 622.6,1048.6 621.7,1049.8 C621.2,1050.5 621,1051.3 621.3,1051.7 C621.7,1052 621.5,1052.9 620.9,1053.6 C619.2,1055.7 619,1065.2 620.6,1070.1 C621.4,1072.6 623.5,1076.2 625.3,1078.1 C628.9,1082.1 634.5,1086.2 635.2,1085.4 C635.5,1085.2 636.3,1085.6 637,1086.5 C637.7,1087.3 638.8,1088 639.4,1088 C640,1088 642.8,1089.1 645.5,1090.5 C648.3,1091.8 651,1093 651.6,1093 C652.2,1093 654.4,1094.5 656.3,1096.3 C658.3,1098 660.8,1100.1 661.9,1100.9 C666.3,1104.1 670.3,1114.4 672.6,1128.5 C672.9,1130.2 673.4,1132.6 673.7,1134 L674.3,1136.5 L675.1,1133.5 C675.6,1131.8 675.6,1129.1 675.1,1127.3 Z M688,1116.9 C688,1115.8 689.4,1111.7 691.2,1107.7 C694.9,1099.2 695.6,1090.2 692.8,1087.4 C690.5,1085 686.4,1086.4 683.9,1090.3 C681.6,1094 681.7,1100.4 684.6,1112.7 C686.1,1119.4 688,1121.7 688,1116.9 Z M501.4,1075.5 C491.8,1064.8 478.2,1051 477.2,1051 C476.7,1051 474.5,1049.6 472.4,1047.9 C467.8,1044.3 457.9,1039.6 452.8,1038.6 C446.9,1037.5 443.7,1040 442.6,1046.6 C441.9,1050.3 445.6,1058 448.7,1059.6 C450,1060.2 451.8,1061.4 452.7,1062.2 C454.3,1063.6 469.5,1069.7 476,1071.5 C477.4,1071.8 482.4,1073.2 487.3,1074.5 C492.1,1075.7 498.1,1077.9 500.8,1079.3 C503.4,1080.7 505.9,1081.9 506.4,1081.9 C506.8,1082 504.6,1079.1 501.4,1075.5 Z M1111,1011 C1111,1010.5 1110.5,1010 1109.9,1010 C1109.4,1010 1109.2,1010.5 1109.5,1011 C1109.8,1011.6 1110.3,1012 1110.6,1012 C1110.8,1012 1111,1011.6 1111,1011 Z M400.8,999.6 C403,998.8 410.9,996.5 418.2,994.6 C436.3,989.8 468,977.9 468,975.9 C468,975.5 466.3,972.3 464.3,968.8 C460.2,961.7 449.6,950.7 445.9,949.5 C444.6,949.1 443.1,948.1 442.5,947.4 C442,946.6 436.7,943.6 430.7,940.5 C422.1,936.2 419.4,935.2 416.9,935.7 C414.7,936.1 413.1,935.7 410.9,934.1 C408.6,932.4 404.8,931.5 393.7,930 C385.9,929 377.5,927.8 375,927.5 C369.4,926.7 353.1,921.2 350.9,919.3 C350.1,918.6 348.8,918 348.1,918 C346.1,918 338.3,910.1 336.5,906.4 C333.5,900 333,894 335.1,889.5 C337.7,884.1 343.4,878.1 349,875 C357.9,870.1 377.7,872.3 397.5,880.5 C401.9,882.3 406.6,884.1 408,884.5 C409.4,884.9 413.2,886.5 416.5,888 C426.9,892.7 428.5,893.4 430,893.7 C443.2,896.2 454.9,893.8 458.3,887.9 C462.4,880.6 458.8,869.5 449,860 C445.8,856.8 441,852.9 438.5,851.4 C428,845.3 404.8,839 387.4,837.6 C371.7,836.3 360.6,833.8 344.2,827.7 C338.7,825.7 335.6,825 335.2,825.7 C334.6,826.6 323.1,830.3 317.2,831.5 C310,832.9 287.5,839.8 281.5,842.5 C279.9,843.2 275.4,844.8 271.5,846 C261.3,849.2 231.1,859.9 227.1,861.7 C223.9,863.1 223.8,863.4 225.4,864.6 C226.4,865.3 228.6,867.2 230.4,868.7 C232.1,870.2 235.4,872.8 237.8,874.4 C240.1,876 242,877.6 242,878.1 C242,878.5 242.9,879.1 244,879.5 C245.1,879.8 248.5,882.6 251.7,885.6 C254.9,888.6 257.8,891 258.2,891 C258.5,891 259.5,891.6 260.2,892.3 C262.5,894.5 286,913.3 293.2,918.8 C297.1,921.6 302.4,925.8 304.9,928 C307.4,930.2 310.3,932.7 311.3,933.5 C312.3,934.4 314.2,935.6 315.5,936.2 C316.9,936.8 318,937.7 318,938.1 C318,938.9 327.6,946 328.8,946 C329.2,946 332.6,948.9 336.4,952.5 C340.1,956.1 343.6,959 344,959 C344.5,959 346.6,960.5 348.8,962.3 C351,964 355.4,967.5 358.6,970 C361.7,972.5 365.2,975.4 366.4,976.6 C367.6,977.7 373.7,982.5 380,987.2 C386.3,991.9 392.6,996.9 394,998.3 C395.4,999.8 396.6,1001 396.6,1001 C396.7,1001 398.6,1000.4 400.8,999.6 Z M578,941.4 C579.4,940.7 584.3,938.9 589,937.4 C593.7,935.9 597.9,934.3 598.5,933.8 C599,933.4 600,933 600.7,933 C602.7,933 632.1,921.5 656,911.5 C680.4,901.2 685.6,899.1 697,895 C703.3,892.7 711.7,889.5 715.5,887.9 C719.4,886.2 726.1,883.5 730.5,881.8 C734.9,880.1 740.2,877.6 742.2,876.3 C744.3,875.1 746.8,874 747.7,874 C749.7,874 752.7,872.3 752,871.7 C751.7,871.5 748.4,869.2 744.5,866.6 C737.5,862 732.6,858.4 730.6,856.5 C730,855.9 727.2,853.8 724.5,851.8 C721.7,849.8 718.6,847.2 717.5,846 C716.4,844.8 713.8,843 711.7,842 C709.6,840.9 705.9,838.7 703.7,837 C698.3,833 690.9,827.9 684,823.4 C681,821.4 676.6,818.2 674.3,816.4 C672,814.5 669.9,813 669.6,813 C668.7,813 651.8,801.4 649.4,799.1 C648.2,798 645,795.6 642.2,793.8 C631.2,786.5 621.3,779.5 617.5,776.5 C615.3,774.7 611.9,772.5 610,771.5 C608.1,770.6 604,767.9 601,765.6 C592.8,759.5 570.7,746 568.8,746 C567.9,746 566.9,746.4 566.5,746.9 C566.2,747.4 564.5,748.2 562.7,748.5 C561,748.9 556.8,750.5 553.5,752 C534.1,760.9 530,763 530,763.4 C530,766.4 546.3,786.9 548.7,787 C549.2,787 552.2,789.6 555.5,792.6 C558.8,795.7 563.8,799.7 566.5,801.5 C569.3,803.4 573.3,806.3 575.5,807.9 C577.7,809.6 580.4,811.4 581.6,811.9 C585,813.4 594.4,823.1 598.7,829.5 C605.9,840.2 609.1,849.8 609.8,862.8 C610.7,880.4 606.5,888.9 587.8,907.2 C581.8,913.1 577.4,918.4 575.9,921.5 C574.6,924.3 572.7,927.4 571.8,928.4 C570.2,930.2 569.8,932.4 569.8,939 C569.8,943.9 569.9,944.1 572.8,943.4 C574.3,943 576.6,942.1 578,941.4 Z M381,918 C381.6,916.9 382.3,913.8 382.7,911.2 C383.1,907.3 382.8,906 381,903.7 C378,900 374.9,898.5 365.6,896.6 C354.6,894.4 352.1,894.5 351.6,897.3 C349.9,906.2 349.5,912.2 350.4,912.9 C353,914.9 371.5,919.6 377.7,919.9 C379,920 380.4,919.1 381,918 Z M752.4,828.3 C752.1,808.6 751.9,791.4 751.9,790 C751.9,784.8 751.8,761.2 751.8,752 C751.8,746.8 752,733.1 752.4,721.5 C752.8,710 753.3,693.3 753.5,684.5 C753.7,675.7 754.4,660.2 755.1,650.1 C756,637.2 756.1,631.5 755.3,631.3 C754.6,631 754.7,629.1 755.6,625.2 C757.2,618.8 757.3,598.1 755.9,582.8 C755.3,576.7 755.3,572.2 756,570.6 C756.5,569.2 756.6,568 756.2,568 C755.8,568 755.4,555.1 755.3,539.3 C755.2,523.4 754.8,507.1 754.2,503 C753.7,498.9 753.7,494 754.1,492.2 C754.5,490.5 754.4,488.8 754,488.5 C753.4,488.1 753.5,475.2 754.2,449 C754.3,446.7 753.3,434.2 752.9,432.3 C752.8,431.9 753,430.7 753.5,429.6 C754,428.6 753.8,425.7 753.2,423.1 C752.4,420 752.3,416.3 752.9,411.7 C753.6,406.2 753.7,401.5 753,401.5 C752.8,401.5 752.9,382.5 753.5,354 C753.8,337.2 754.1,323.1 754.1,322.5 C754.2,316.4 752.5,297.2 751.8,296.3 C751.2,295.6 751.2,293.8 751.8,291.6 C753,287.4 752.3,286.3 745.5,282.5 C742.8,280.9 735.6,276.2 729.5,272 C715,262 698.3,251.2 691.7,247.7 C688.9,246.1 684.9,243.8 683,242.6 C679.4,240.2 674.9,237.6 667,233.2 C664.5,231.9 661.2,229.7 659.5,228.5 C657.9,227.3 654.5,225.3 652,224 C649.5,222.7 643,218.7 637.5,215.1 C632,211.4 626.2,207.9 624.6,207.2 C623,206.5 617.8,203.3 613.1,200.1 C608.4,197 602.5,193.3 600,191.9 C597.5,190.6 589.9,185.4 583.1,180.3 C571.1,171.5 566.5,169.1 566.2,171.4 C566.1,172 565.5,194.1 564.9,220.5 C564.1,255.5 564.1,273.3 564.9,286 C567.2,322.6 567.5,352.2 566.5,407 C566.2,422.7 565.8,451.9 565.5,472 C565.3,492.1 564.8,512.3 564.4,517 C561.2,557 560.8,635.2 563.6,680.5 C563.9,684.9 564.3,692.8 564.5,698 C564.7,703.2 565.4,713.8 566,721.5 C566.7,729.2 567.3,736.6 567.4,737.9 C567.5,739.7 568.5,740.6 571.6,741.9 C573.8,742.8 578.1,745 581.1,746.9 C584.1,748.8 588.1,751.3 590,752.5 C591.9,753.7 595.5,756 597.9,757.6 C600.3,759.2 603.7,761.4 605.6,762.5 C607.4,763.7 610.3,765.8 612,767.3 C613.6,768.8 615.4,770 615.9,770 C616.5,770 619.7,772.2 623.2,774.8 C626.7,777.4 631.3,780.7 633.5,782 C635.7,783.3 638.4,785.3 639.5,786.3 C640.6,787.4 643.8,789.7 646.5,791.6 C649.3,793.4 654.7,797.2 658.5,799.9 C662.4,802.7 667.3,806.2 669.5,807.6 C671.7,809.1 674.6,811.1 676,812.1 C677.4,813.2 681.7,816.1 685.5,818.6 C689.4,821.2 695,825.2 698,827.6 C701,829.9 705.3,832.9 707.6,834.2 C713.3,837.4 725.8,845.8 726.5,846.9 C727,847.8 734.3,853 743,858.7 C744.9,859.9 747,861.4 747.5,861.8 C748.6,862.7 751,863.8 752.2,863.900463 C752.6,864 752.6,847.9 752.4,828.3 Z M235.5,853.1 C241.8,850.5 250.1,847.4 256.4,845.4 C260.3,844.2 269.4,841.2 276.5,838.8 C293.4,833 313.7,826.7 324.3,824 C326.9,823.3 329.3,822.4 329.5,822 C329.8,821.6 326.3,819.3 321.7,816.9 C306.2,808.9 294.9,798.9 285.7,785.2 C282,779.8 278.8,774.5 278.4,773.6 C278,772.7 275.8,768.5 273.5,764.4 C271.1,760.2 268.6,754.5 267.9,751.7 C267.3,748.8 266.3,745.7 265.8,744.7 C265.3,743.7 264.5,740.5 263.9,737.5 C263.4,734.5 262.5,729.4 262,726.3 C260,715.1 260.6,702.6 264,688.1 C265.7,680.7 267.6,673.7 268.2,672.6 C268.8,671.4 269.2,670.5 269.1,670.5 C269,670.5 269.1,669.8 269.3,669 C275.7,648.8 280,613.9 277.9,600 C277.4,597 276.8,592.7 276.4,590.5 C275.6,585.3 269.5,568.9 265.7,562 C248.9,531 247.7,527.6 247.6,512.5 C247.5,500.1 247.5,500.1 252.9,489.2 C255.7,483.4 266.3,474.3 272.2,472.5 C285.4,468.6 297.2,472.8 302.8,483.5 C304.6,487 307.1,499.5 306.4,501.3 C306.2,502 305.8,504.1 305.6,506 C304.9,512 303.9,517.4 303,519.5 C301.9,522.1 300.3,529.4 299.6,534.3 C298,546.1 304.9,570.8 314.3,587 C316.3,590.6 318,594.1 318,594.8 C318,595.5 318.9,598.9 320.1,602.3 C322.5,609.4 322.8,610.7 323.8,621.5 C324.8,632.7 322.8,644.5 317.9,655.5 C314.9,662.2 311.1,676.6 311.1,681.2 C310.9,700.5 315.2,723.6 320.6,732.2 C321.9,734.3 323,736.2 323,736.5 C323,738.5 328.6,745.3 332.3,747.8 C342.4,754.6 354.8,754.1 362.5,746.7 C366.3,742.9 366.8,741.9 367.5,736.4 C367.8,733.1 367.9,728.4 367.5,725.9 C366.6,719.3 360.2,699.9 358,696.8 C356.9,695.3 356,693.5 356,692.7 C356,692 355.6,691 355.1,690.4 C353.3,688.6 350,674.5 348.3,661.3 C346.8,649.6 346.8,646.2 347.8,635.2 C348.5,628.2 350.2,617.1 351.6,610.5 C354.7,595.7 355.7,578.4 354.1,569.8 C352.9,563.7 348.5,550.5 346.9,548.5 C345.1,546.2 341.5,534.1 337.9,518.5 C335.6,508.6 336.1,480.3 338.9,464.1 C340.7,453.5 341.1,448.7 340.6,440.6 C339.6,422.3 338.1,416.7 332.8,410.4 C330.7,408 328.8,400.5 328.5,393 C328,382.7 333.3,376.6 344.3,374.8 C349.9,373.8 350.9,373.9 355.3,376 C357.9,377.2 361.1,379.6 362.3,381.2 C363.5,382.8 365.9,385.8 367.6,387.8 C373.1,394.5 377.8,407.1 379.6,420 C380.6,428 380.8,441.4 379.9,447 C378.3,456.6 378.6,476.3 380.4,484.6 C381.9,491.7 385.7,502.7 388.4,507.8 C389.1,509.3 390.6,513 391.7,516 C392.8,519 394.2,523.1 394.9,525 C398.6,535.3 399.7,541.9 399.5,552.3 C399.3,558.1 398.7,564.3 398.1,566.2 C394.8,576.3 395.3,592 399.3,601.1 C401.4,605.8 402.8,606.9 408.2,607.6 C412.5,608.2 413,608 416.4,604.6 C422.6,598.1 425.2,583.4 423.1,566 C421.8,555.9 417.8,529.5 415.9,519.5 C414,509.5 414.7,486 417.2,474.5 C418.7,467.7 422.8,454.4 428.8,437 C431.6,429 434.4,419.5 435,415.8 C436.6,406.5 435.7,387.5 433.1,376.1 C431.2,367.6 429.3,361.2 420.5,334.5 C419,330.1 417.2,324.5 416.4,322 C415.6,319.5 414.4,312.9 413.9,307.2 C412.9,297.7 413,296.1 415,288.7 C419.5,272.3 426.7,266.1 440.1,267.3 C447.4,268 451.2,270.3 456.2,277 C461,283.5 461.6,289.6 460.6,321.5 C460.5,324.8 460.8,329.1 461.2,331 C461.7,332.9 462.5,337 463.1,340 C463.7,343 464.5,346 465,346.5 C465.4,347.1 467,351.1 468.4,355.5 C469.9,359.9 471.5,364.5 472,365.8 C476.5,376.2 479.7,386 481.5,394.4 C483.8,405 483,427.9 479.9,439.5 C478.7,443.9 477.4,449.5 477,452.1 C475.7,459.3 474,465.3 472.4,467.8 C471.6,469 471,470.6 471.1,471.3 C471.2,471.9 471.1,473.2 470.8,474 C468.6,480 463.3,507.2 462,519.5 C461.5,524.5 460.8,530.1 460.5,532 C460.2,533.9 460,544.1 460,554.5 C460.1,597.5 464.9,628.7 473,637.9 C477.6,643.2 484.8,644 488.8,639.7 C494.2,633.7 494.4,632.6 495.1,600.5 C495.5,584 496.2,569.2 496.6,567.5 C497.6,563.2 499.7,560.3 503.7,557.9 C507.8,555.3 513.4,555.7 517.8,558.8 C521.7,561.6 527.5,571.4 529.1,578 C530.9,585.2 530.7,602.4 528.7,613 C527.4,620.3 525.7,631 525.8,631.7 C525.9,631.9 525.4,633.4 524.9,635.2 C524.3,637 523.5,640.5 523.1,643 C522.6,645.5 521.2,652.2 519.9,658 C516.5,673.5 516.6,704.1 520.4,734.3 C521.1,739.9 526.4,756.2 527.8,756.7 C528.5,757 530.1,756.8 531.3,756.2 C532.5,755.7 537.4,753.3 542.2,751.1 C547,748.8 552.9,746.3 555.2,745.4 C562.7,742.8 564.1,741.4 563.5,737.2 C562.3,727.6 559,672.9 558.3,648 C557.4,621.7 557.7,541.6 558.6,535 C559.4,528.8 560,518.1 560.4,501 C562.2,434 562.5,412.7 562.5,372.5 C562.5,330.1 561.9,306.8 560.1,277 C559.8,270.7 559.6,257.2 559.7,247 C559.9,228.6 560.1,172 559.9,168.9 C559.9,167.5 559.2,167.4 555.7,168.1 C549.2,169.4 543.4,171.9 525,181.4 C516.8,185.6 513,187.2 510.7,187.7 C509.7,187.9 497.5,193.6 483.7,200.4 C431.8,225.9 389.8,245.8 384.1,247.5 C382.7,247.9 378.2,250 374.1,252.1 C369.9,254.2 366.1,256 365.7,256 C365.2,256 363.6,256.8 362.2,257.9 C360.7,258.9 357.7,260.3 355.5,261 C353.3,261.7 340.5,267.6 327,274.3 C286.8,294 275,299.7 265,304.4 C259.8,306.8 252.5,310.2 248.8,311.9 C245.1,313.6 241.7,315 241.1,315 C240.6,315 239.7,315.6 239.3,316.4 C238.9,317.1 237.1,318.5 235.3,319.4 C232.7,320.7 232,321.7 231.6,325.2 C231,330.5 229.9,353.2 229.5,371 C229.3,378.4 228.9,389.7 228.6,396 C228.2,402.3 227.7,415.4 227.4,425 C227.2,434.6 226.5,445.4 226,449 C224.7,458.8 224.8,488 226.1,488 C226.9,488 226.9,488.4 226.1,489.4 C224.8,490.9 224.4,511.6 224.7,546.5 C224.8,555.9 224.9,564.4 224.9,565.5 C224.9,566.6 225.2,579.4 225.4,594 C225.7,608.6 226.2,641.9 226.5,668 C226.8,694.1 227.1,719.8 227.3,725.1 C227.5,730.4 227.2,738.7 226.8,743.6 C226.4,748.5 225.8,755 225.6,758.1 C225.4,761.2 225,764.1 224.8,764.6 C223.7,766.4 223,784.3 222.5,820.7 L222,857.8 L227.8,855.9 C230.9,854.8 234.4,853.6 235.5,853.1 Z M1056.5,634.3 C1055.6,630 1054.7,625.4 1054.4,624.2 C1054.1,622.8 1054.3,622.1 1054.9,622.4 C1056.8,623.6 1057.1,621 1055.4,618.1 C1051.3,611.2 1051.3,617.5 1055.2,634.3 C1057.7,645.1 1058.8,645.1 1056.5,634.3 Z M515.4,587.1 C517.1,585.2 518.9,576.5 518.5,572 C518.4,569.7 518,569.6 512.4,569.4 C503.9,569.3 503.7,569.4 504.5,575.3 C506.1,587 510.9,592.1 515.4,587.1 Z M517.8,563.3 C514.7,560.3 510.8,560 506.1,562.5 C501,565.1 502.4,566 511.7,566 L520.5,566 L517.8,563.3 Z M1065.7,533.8 C1065.4,533.1 1065.2,533.6 1065.2,535 C1065.2,536.4 1065.4,536.9 1065.7,536.3 C1065.9,535.6 1065.9,534.4 1065.7,533.8 Z M282.9,508.9 C284.8,506.3 286.2,502.5 287.3,496.8 C289.5,485.2 290.4,477 289.4,477 C288.9,476.9 286.6,476.5 284.2,476.1 C278.9,475.1 272.6,476.4 268.4,479.5 C265.5,481.7 265.4,482.1 265.1,490.7 C264.8,501 266.3,508 269.3,510.8 C273.8,514.9 279.1,514.2 282.9,508.9 Z M1058.7,461.3 C1058.5,459.7 1058.3,460.8 1058.3,463.5 C1058.3,466.3 1058.5,467.5 1058.7,466.3 C1058.9,465 1058.9,462.8 1058.7,461.3 Z M1068.3,464.5 C1067.6,462.4 1067,462.6 1067,465.1 C1067,466.2 1067.4,466.9 1068,466.5 C1068.5,466.2 1068.7,465.3 1068.3,464.5 Z M1066.7,455.8 C1066.4,455.1 1066.2,455.6 1066.2,457 C1066.2,458.4 1066.4,458.9 1066.7,458.3 C1066.9,457.6 1066.9,456.4 1066.7,455.8 Z M1052.4,445.7 C1052.1,440.7 1052.1,440.6 1053.3,443.7 C1055,448 1056.5,449.2 1055.5,445.5 C1055.1,443.9 1054.4,438.5 1053.9,433.5 C1053.2,425.2 1052.6,422 1051.4,418 C1049.8,413 1048.7,429 1050.3,434.8 C1050.6,436.1 1050.4,438.2 1049.8,439.5 C1049,441.3 1049,442.3 1050,443.5 C1050.7,444.3 1050.9,445.7 1050.6,446.7 C1050.2,447.6 1050.3,450.4 1050.6,452.9 L1051.4,457.5 L1052.1,454.2 C1052.4,452.4 1052.6,448.6 1052.4,445.7 Z M1050.5,415 C1050.2,414.5 1049.5,414 1048.9,414 C1048.4,414 1048,414.5 1048,415 C1048,415.6 1048.7,416 1049.6,416 C1050.4,416 1050.8,415.6 1050.5,415 Z M355,409 C356.2,407.8 357,405.7 357,403.6 C357,399.5 352.7,385.3 350.6,382.5 C349.2,380.6 349.1,380.6 347.3,382.3 C346.2,383.2 344.7,384 343.9,384 C343.1,384.1 341.2,385.1 339.6,386.4 C336.9,388.6 336.8,389.2 337.2,394.3 C337.9,402.7 344.5,410 352.3,410.9 C352.7,411 353.9,410.1 355,409 Z M1049.8,404.4 C1049.4,404.1 1048.6,404.9 1048,406.2 C1046.8,408.4 1046.8,408.4 1048.6,406.8 C1049.6,405.8 1050.1,404.8 1049.8,404.4 Z M1060,377.3 C1058.9,375.6 1058.9,375.6 1059.4,377.3 C1059.7,378.3 1060.1,380.1 1060.1,381.3 C1060.3,383.5 1060.3,383.5 1060.7,381.3 C1060.9,380.1 1060.6,378.3 1060,377.3 Z M343.9,379.9 C347.6,377.7 347.6,376.4 343.8,377.9 C341.3,378.8 338.1,382 339.6,382 C340.1,382 342,381.1 343.9,379.9 Z M442,299.7 C443.4,298.5 445.1,296.8 445.8,295.9 C447.1,294.2 451,279.7 451,276.4 C451,273.5 444.1,269.9 437.2,269.3 C432,268.8 431.1,269 428.1,271.5 L424.9,274.3 L425.5,281.9 C426.5,293.8 427.6,296.6 431.8,299.5 C436.3,302.6 438.7,302.6 442,299.7 Z M1057,177.6 C1057,177.4 1056.3,176.7 1055.5,176 C1054.2,174.9 1054.1,175 1054.6,176.4 C1055.1,177.8 1057,178.7 1057,177.6 Z M137.5,90 C137.8,89.5 137.7,89 137.1,89 C136.6,89 135.8,89.5 135.5,90 C135.2,90.6 135.3,91 135.9,91 C136.4,91 137.2,90.6 137.5,90 Z M222.4,86 C223.8,85.5 225,84.5 225,83.9 C225,83.1 224.6,83.1 223.6,83.9 C222.8,84.6 221.9,84.7 221.6,84.2 C221,83.2 216,83.8 216,84.9 C216,87.1 218.5,87.5 222.4,86 Z M120.7,80.4 C120.4,80.1 119.5,80 118.8,80.3 C118,80.6 118.3,80.9 119.4,80.9 C120.5,81 121.1,80.7 120.7,80.4 Z" id="Shape"></path>
                <path d="M572,1080.2 C568,1074.1 557.1,1063.3 550.7,1059.4 C539.6,1052.4 531.2,1046.5 527.7,1043.1 C517.7,1033.5 515.6,1020.2 523,1013.5 C524.7,1011.9 526.6,1011.5 531.4,1011.6 C539.3,1011.7 544.2,1014.3 549.8,1021.5 C553.5,1026.2 557.8,1035.5 556.8,1036.6 C556.5,1036.8 554.8,1034.8 552.8,1032.2 C547.8,1025.7 538.8,1017.3 535.6,1016 C532.4,1014.8 527,1014.7 525.4,1015.8 C523.6,1017 522.9,1020.2 523.6,1024.7 C524.5,1030.5 530.2,1036.8 541.6,1044.5 C554.6,1053.2 566.5,1065.5 571.8,1075.8 C576.9,1085.5 577,1088 572,1080.2 Z" id="Path"></path>
                <path d="M583.1,1043.4 C583.1,1042.3 583.4,1042 583.7,1042.8 C584,1043.5 583.9,1044.4 583.6,1044.7 C583.3,1045.1 583,1044.5 583.1,1043.4 Z" id="Path"></path>
                <path d="M597.9,1034.8 C597.8,1029.9 597.7,1025.7 597.6,1025.3 C594.3,1010.1 589.1,997.7 582.5,989.3 C578.8,984.4 569.1,975.6 562.8,971.2 C554.2,965.3 545.3,964.9 544.8,970.4 C544.3,977.6 547,981.6 559.9,992.3 C569,999.9 571.8,1002.8 576.2,1009.2 C581.6,1017.1 585.5,1031.7 584,1038.3 L583.3,1041.5 L582.6,1037.5 C579.9,1021.7 573.6,1010.3 561.7,1000 C549,989.1 542.2,981.6 541.5,977.8 C540.5,972.7 541.5,969.3 545,965.9 C547.1,963.8 548.8,963 551.4,963 C554.6,963 559.7,964.6 561,966 C561.3,966.3 562.5,967 563.7,967.5 C566.1,968.6 577.3,978.4 584.8,986 C592.4,993.7 603,1018.9 600.5,1023.1 C600.1,1023.6 599.8,1027.8 599.9,1032.3 C599.9,1036.8 599.5,1041.2 599,1042 C598.3,1043 598,1040.8 597.9,1034.8 Z" id="Path"></path>
                <path d="M485.5,976.3 C485.2,974.7 484.5,972.1 483.9,970.4 C482.1,964.4 481.8,955.7 483.3,951.4 C484.2,949.1 484.5,946.7 484,946 C483.5,945.3 483.4,944.1 483.7,943.4 C484.4,941.5 480.9,936.3 475.5,931 C469.7,925.4 468.2,922.6 467.4,915.8 C466.8,910.6 466.9,910.1 470.1,906.6 C473.3,902.9 473.6,902.8 478.6,903.2 C487,903.9 496.7,911.4 501.8,921.2 C505.4,927.9 506.4,933.9 504.9,939.3 C502.4,948.8 499.7,957.6 499,958.3 C498.1,959.3 499.6,950.4 500.6,948.9 C501.2,947.8 502.2,938.2 502.1,933.8 C502.1,929.7 497.7,921.9 492,915.6 C484.8,907.8 478.8,905.2 473.8,907.7 C471,909 470.8,909.5 470.8,912.5 C470.8,913.3 470.8,914.9 470.9,916 C470.9,917.1 474.2,921.3 478.1,925.2 C489,936.4 491.2,942.6 487.5,951.8 C486,955.4 485.8,957.8 486.4,966.1 C486.8,971.6 487.3,976.7 487.7,977.5 C488,978.3 487.7,979 487.1,979 C486.5,979 485.8,977.8 485.5,976.3 Z" id="Path"></path>
                <path d="M540.4,936.6 C539.5,934.3 540.7,917.8 541.9,915 C542.8,913.1 542.9,914.9 542.5,923 C542.2,928.8 542,934.5 542,935.8 C542,938.3 541.2,938.7 540.4,936.6 Z" id="Path"></path>
                <path d="M551.5,925 C552.3,920.8 557.3,910.7 560.9,906.3 C569,896.4 572.9,888.6 572.5,883 C572.2,877.9 562.1,874.1 557.8,877.4 C554.6,879.8 549.4,889.7 548.1,895.6 C544.7,911.5 543.1,913 544.9,898.6 C546.5,885.6 554.8,871.7 561.8,870.4 C568.4,869.2 575,874.8 576.6,882.9 C577.4,887 574.7,896.4 572.2,898.2 C567,902 554,919.9 554,923.2 C554,924 553.3,925.5 552.5,926.6 C551,928.4 550.9,928.3 551.5,925 Z" id="Path"></path>
                <path d="M524,899.9 C524,897.1 520.3,888.6 516.4,882.3 C509.5,871.5 494.1,859.2 478,851.9 C467.8,847.3 466.3,846.3 462.3,842.2 C459.1,838.9 458,837 458,834.7 C458,831 461.2,825.2 463.8,824.3 C464.7,824 466.8,822.8 468.4,821.6 C472.6,818.8 479.9,819.1 488.5,822.5 C492.4,824.1 496.9,826.3 498.5,827.4 C510.3,835.5 526,856.4 526,864 C526,865.5 526.5,868.1 527.1,869.9 C527.7,871.7 528,873.3 527.7,873.6 C527.5,873.9 525.8,870.5 524.1,866.1 C522.3,861.8 519.4,856.2 517.7,853.8 C512.9,847.1 502.2,836.4 496.5,832.4 C490.2,828.1 475.5,822.8 472,823.5 C468.1,824.4 463,827.3 463,828.7 C463,829.4 462.5,830 461.9,830 C460.3,830 461.9,834.2 464.9,837.4 C466.3,839 472.6,842.7 478.9,845.7 C485.1,848.7 493.2,853 496.9,855.2 C504.9,860 516.8,872.2 519.9,878.7 C521.1,881.4 522.6,884.3 523.1,885.4 C524.3,887.5 525.6,902 524.6,902 C524.3,902 524,901.1 524,899.9 Z" id="Path"></path>
                <path d="M390.5,820.9 C388.9,820.3 380,818.6 370.8,817 C361.6,815.4 353.2,813.6 352.1,813.1 C351,812.5 349.4,812 348.4,812 C345.9,812 337.3,806.2 334.9,802.9 C328.2,793.4 334.6,781.8 347.3,780.6 C354.5,779.9 361.1,782.2 373.1,789.7 C389,799.6 395.2,795.6 387.5,780.4 C384.5,774.5 384.4,771.7 387,767.5 C389.3,763.8 390.6,763 397,762 C401.9,761.2 406.4,762.3 409.6,765.1 C410.7,766.2 412.1,767 412.6,767 C413.8,767 420,775 420,776.6 C420,777.2 420.7,778.3 421.5,779 C422.3,779.7 423,780.9 423,781.7 C423,784.1 429.2,796.4 431.5,798.6 C432.7,799.7 434.3,801.7 435,803 L436.2,805.3 L433,803 C428.7,799.9 423,792.5 418,783.6 C413.4,775.2 409.3,771.1 402.4,768.1 C396.5,765.5 393,765.4 390.2,768 C387.4,770.6 387.4,772.3 390.5,779.8 C393,785.9 393.7,791.5 392.2,793.6 C391.2,795.2 388,796.6 383.8,797.4 C380.6,798 378.7,797.3 369.3,792.4 C354.7,784.8 345,783.6 338.6,788.9 C335.3,791.6 337,797.4 342.3,801.9 C350.9,809.2 360,813 372.2,814.6 C378.8,815.4 396,820.2 396,821.1 C396,822.2 394.4,822.1 390.5,820.9 Z" id="Path"></path>
                <path d="M540.3,809.4 C533.4,798.9 526.2,792.2 511,781.9 C494.7,770.9 487.6,763.7 481.7,752.2 C475.9,741.1 473.3,729.7 472.1,710.3 C471.2,694.3 469.7,690.2 464.4,688.7 C461.9,688 460.6,688.2 457.9,690 C453,693.2 451.1,696.2 448.9,704 C445.2,717.3 447.1,734.1 454,750 C456.3,755.2 459,760.6 460.1,762.1 C461.1,763.6 462,765.1 462,765.5 C462,765.8 463.9,768.9 466.2,772.3 C470.4,778.5 476.4,789.9 475.8,790.6 C475.6,790.8 473.9,788.3 472,785.2 C470.2,782.1 467.4,778.1 465.9,776.3 C464.4,774.5 461.9,770.9 460.4,768.3 C458.9,765.7 456.4,761.5 454.9,759.1 C453.3,756.7 451.1,752.2 450,749.1 C448.9,746 447.5,742.6 447.1,741.5 C445.6,738.2 445.1,735 444.4,723.9 C443.5,708.3 446.9,697 455,688.8 C459,684.7 467,684.5 469.6,688.4 C471.6,691.5 473.9,701.2 474,706.7 C474,710.8 474.6,714.4 477.7,729 C481.5,747.1 494,763.1 514.4,776.4 C524.7,783 537.5,796.5 542.3,805.8 C544.4,809.9 546,814.1 545.8,815.3 C545.6,816.9 544.3,815.6 540.3,809.4 Z" id="Path"></path>
                <path d="M390.5,710 C390.7,707 391.9,701.6 393.1,698 C395.7,690.2 395.3,681.2 391.9,671 C389.7,664 389.3,654.3 391.1,648 C392.3,643.6 399.1,638 403.1,638 C407.8,638 412.4,640.4 415.8,644.8 C420.2,650.3 422,655.9 422.7,665.8 C423.1,673.2 422.9,675.1 420.5,681.8 C417.2,691.2 411.8,702.8 411.3,701.5 C411.1,700.9 412.1,696.6 413.6,692 C418.2,676.7 418.7,669.1 415.4,657.7 C413.4,650.6 406.8,642 403.4,642 C400.7,642 398.1,644 396.4,647.2 C394.4,651 394.9,656.9 398,666.1 C399.5,670.3 400.3,675.3 400.4,680.5 C400.5,688 400.2,689 396.3,697.2 C393.9,702 392,707 391.9,708.2 C391.8,709.5 391.4,711.6 390.9,713 C390.3,714.8 390.1,714 390.5,710 Z" id="Path"></path>
                <path d="M287.7,647.5 C281.6,644.2 282.4,642.7 289.3,644.7 C294.2,646.2 305.4,646.5 309.3,645.4 C310.2,645.1 311,645.3 311,645.9 C311,647.2 305,648.9 298,649.5 C293.4,650 291.7,649.6 287.7,647.5 Z" id="Path"></path>
                <path d="M293.5,636 C292,635.4 293,635.1 297,635 C300,634.9 303.7,634.6 305.3,634.4 C309.1,633.8 308.7,635.6 304.9,636.4 C300.7,637.2 296,637.1 293.5,636 Z" id="Path"></path>
                <path d="M286.5,626.9 C285.4,625.3 289,623.2 294.9,621.9 C299.2,621 301.3,621.1 305.3,622.2 C308.1,623 310.6,624.2 310.8,625 C311.2,626 309.7,626.1 303.2,625.6 C297,625 294.4,625.2 291.5,626.4 C287.1,628.3 287.3,628.3 286.5,626.9 Z" id="Path"></path>
                <path d="M501.7,622.4 C500.1,620.7 502.8,620 510.3,620.1 C518.5,620.2 518.5,620.2 514.5,621.5 C510.2,622.9 502.8,623.4 501.7,622.4 Z" id="Path"></path>
                <path d="M502.6,616.1 C501.1,613.7 513.5,611.1 517.2,613.1 C520.3,614.8 519.2,615.5 513.3,615.6 C510.1,615.6 506.5,616 505.4,616.4 C504.1,616.9 503,616.7 502.6,616.1 Z" id="Path"></path>
                <path d="M357,553.3 C357,552.8 360.3,551.9 364.3,551.3 C369.7,550.5 373.2,549.2 378.5,546.2 C382.3,543.9 385.6,542.2 385.7,542.4 C386.5,543.2 384.7,545.7 382.2,547.3 C380.7,548.2 378.1,549.9 376.3,551.1 C374,552.6 370.8,553.3 365,553.7 C360.6,554 357,553.8 357,553.3 Z" id="Path"></path>
                <path d="M355.6,545.8 C356.2,544.1 367.4,539.3 372.4,538.5 C378.3,537.5 376.5,540.1 370.2,541.7 C367.3,542.4 363.5,543.9 361.7,545 C358.1,547.3 354.8,547.6 355.6,545.8 Z" id="Path"></path>
                <path d="M350.3,540.4 C348.3,535.2 369.8,528.3 378.6,531.3 C385,533.6 383.6,534.6 374.3,534.6 C364,534.6 358.3,536 354.6,539.5 C351.4,542.5 351.1,542.5 350.3,540.4 Z" id="Path"></path>
                <path d="M432.4,502.6 C427.5,499.9 425.4,497 428.4,497 C429.1,497 431.8,497.9 434.3,499 C437.7,500.5 440.6,501 444.9,500.8 C451.3,500.5 453.6,502 448.4,503.1 C443.6,504.2 434.6,503.9 432.4,502.6 Z" id="Path"></path>
                <path d="M438.5,493.3 C436.9,493.1 434.4,492.7 433,492.4 C430.7,491.8 430.7,491.7 432.5,491 C433.6,490.6 436,490.7 438,491.1 C439.9,491.6 443,492 444.8,492 C446.6,492 447.9,492.4 447.6,492.8 C447.1,493.7 443.1,493.9 438.5,493.3 Z" id="Path"></path>
                <path d="M449,484.5 C443.8,481.6 435.6,481.1 432.4,483.5 C430,485.3 429,485.4 429,483.7 C429,481.8 433.3,479.7 437.7,479.5 C443.3,479.3 448.1,480.9 451.8,484.1 C455.8,487.6 455,487.7 449,484.5 Z" id="Path"></path>
                <path d="M353.5,472 C351.7,471.2 351.7,471.1 354,471 C355.4,471 359.4,470.8 362.9,470.6 C368.4,470.4 369,470.5 367.4,471.7 C365.4,473.1 356.6,473.3 353.5,472 Z" id="Path"></path>
                <path d="M354.5,461.5 C357.8,460 370,459.4 368.5,460.9 C367.9,461.4 363.9,462 359.5,462.3 C352.1,462.9 351.7,462.8 354.5,461.5 Z" id="Path"></path>
                <path d="M434,353.1 C434,351.2 437.7,350 443.4,350 C450.8,350 450.6,351.7 443.3,352.2 C440.1,352.4 436.7,353 435.8,353.4 C434.7,353.9 434,353.8 434,353.1 Z" id="Path"></path>
                <path d="M260,669 C260,668.5 260.5,668 261,668 C261.6,668 262,668.5 262,669 C262,669.6 261.6,670 261,670 C260.5,670 260,669.6 260,669 Z" id="Path"></path>
                <path d="M497.2,461 C492.8,425.9 493.8,410.7 501.4,400.7 C503.8,397.5 505.9,396 510.1,394.6 C515.3,392.8 515.7,392.8 519.1,394.4 C522.8,396.1 527,402.5 527.2,406.5 C527.3,412.2 522.5,429 519,435 C516.4,439.4 512,448.8 512,449.9 C512,450.6 511.4,452.4 510.6,453.8 C509.9,455.3 508.3,458.6 507.1,461.2 C505.1,465.5 503,468.2 503,466.4 C503,465.3 510.2,442.7 511.1,441 C511.5,440.2 513.8,434.4 516.1,428.2 C521.2,414.4 521.8,405.6 518.2,401.7 C517,400.4 516,398.8 516,398.2 C516,396.7 515.6,396.7 511.7,398.4 C507.6,400.1 504.7,403.4 502.5,409 C501.1,412.7 500.7,417.7 500.3,437 C500,449.9 499.5,463 499.1,466 L498.5,471.5 L497.2,461 Z" id="Path"></path>
                <path d="M502.1,469.4 C502.1,468.3 502.4,468 502.7,468.8 C503,469.5 502.9,470.4 502.6,470.7 C502.3,471.1 502,470.5 502.1,469.4 Z" id="Path"></path>
                <path d="M391.7,396.1 C391.3,394.4 391.4,394 392.2,394.8 C392.7,395.3 393,396.4 392.8,397.1 C392.5,397.9 392.1,397.4 391.7,396.1 Z" id="Path"></path>
                <path d="M396.6,375.1 C396.9,365.5 397.4,356.7 397.6,355.6 C398.1,352.8 396.2,337.2 394.8,333.7 C392.3,327.2 386.4,326.3 382.3,331.7 C378.3,336.9 378.6,343.8 383.3,360 C385.3,366.9 387.2,374 387.5,375.9 C387.8,377.7 388.7,380.8 389.5,382.7 C391.2,386.7 391.4,388 390.2,388 C389.7,388 388.7,386.1 388.1,383.8 C387.4,381.4 386.4,379.1 386,378.5 C384.3,376.4 376.7,357.2 375.1,351 C373.1,343.5 373.4,338.1 376,333 C378.3,328.6 381.6,325.6 385.8,324.2 C389.6,322.9 392.6,323.8 395.7,327.1 C398.7,330.4 399.6,333.1 401.1,343.8 C402.8,355.8 401,374.6 396.9,389.5 C396.4,391.2 396.3,385.1 396.6,375.1 Z" id="Path"></path>
                <path d="M650.5,1403 C649.7,1401.7 650.8,1400 652.5,1400 C654.8,1400 655,1401.5 653,1402.8 C651.8,1403.5 650.9,1403.6 650.5,1403 Z" id="Path"></path>
                <path d="M661,1402.5 C660,1401.3 660.1,1401 661.8,1401 C664.7,1401 667.1,1402.1 666.4,1403.1 C665.6,1404.5 662.4,1404.2 661,1402.5 Z" id="Path"></path>
                <path d="M53.2,963.2 C53,959.4 53.5,956.3 54.5,954.4 L56,951.5 L56,957.1 C56,963.3 55.1,969 54.1,969 C53.8,969 53.4,966.4 53.2,963.2 Z" id="Path"></path>
                <path d="M1091,964.3 C1091,961.5 1091.3,960.9 1092,962 C1093.3,964 1093.3,966.7 1092,967.5 C1091.4,967.9 1091,966.6 1091,964.3 Z" id="Path"></path>
                <path d="M1093.2,805.3 C1093.2,804.3 1092.8,802.2 1092.3,800.5 C1091.2,797.1 1092.1,791.7 1093.4,793.8 C1094.6,795.9 1095.3,807 1094.1,807 C1093.6,807 1093.1,806.2 1093.2,805.3 Z" id="Path"></path>
                <path d="M1064.1,724.4 C1064.1,723.3 1064.4,723 1064.7,723.8 C1065,724.5 1064.9,725.4 1064.6,725.7 C1064.3,726.1 1064,725.5 1064.1,724.4 Z" id="Path"></path>
                <path d="M1076.2,718 C1076.2,716.6 1076.4,716.1 1076.7,716.8 C1076.9,717.4 1076.9,718.6 1076.7,719.3 C1076.4,719.9 1076.2,719.4 1076.2,718 Z" id="Path"></path>
                <path d="M1062.2,704.1 C1060.8,699.6 1060.6,694 1061.9,694 C1062.8,694 1064.5,706.8 1063.7,707.6 C1063.5,707.8 1062.8,706.3 1062.2,704.1 Z" id="Path"></path>
                <path d="M1075.1,703.8 C1075.1,702.9 1074.7,701.3 1074.4,700.3 C1073.9,698.6 1073.9,698.6 1075,700.3 C1075.6,701.3 1075.9,702.8 1075.7,703.8 C1075.3,705.3 1075.2,705.3 1075.1,703.8 Z" id="Path"></path>
                <path d="M1068.1,647.4 C1068.1,646.3 1068.4,646 1068.7,646.8 C1069,647.5 1068.9,648.4 1068.6,648.7 C1068.3,649.1 1068,648.5 1068.1,647.4 Z" id="Path"></path>
                <path d="M1064.5,628.4 C1064.1,625.9 1064.3,624.5 1065.1,624 C1065.7,623.6 1065.9,622.7 1065.6,622.1 C1065.2,621.5 1064.4,621.2 1063.9,621.5 C1063.4,621.9 1063,621 1063,619.7 C1063,618.3 1062.8,615.7 1062.5,613.9 L1062,610.5 L1063.1,613.5 C1064.8,618.2 1066.3,621 1067.1,621 C1067.5,621 1067.5,619.8 1067,618.3 C1066.5,616.7 1065.9,613 1065.6,609.9 C1065.3,606.9 1064.8,603.5 1064.4,602.4 C1064,601.4 1064,600.8 1064.3,601.1 C1065.7,602.3 1069.8,616 1069.3,617.8 C1069.1,618.9 1069.3,620.1 1069.9,620.4 C1071.3,621.3 1071.3,625.7 1070,626.5 C1069.5,626.8 1068.2,626.6 1067.1,626 C1065.3,625.1 1065.2,625.3 1065.7,628.5 C1066.4,633.2 1065.4,633 1064.5,628.4 Z" id="Path"></path>
                <path d="M1061.6,606.5 C1061.3,605.6 1061,604.3 1061.1,603.7 C1061.1,603 1061.6,603.6 1062.1,604.9 C1062.6,606.2 1062.9,607.5 1062.6,607.7 C1062.4,607.9 1062,607.4 1061.6,606.5 Z" id="Path"></path>
                <path d="M1060,600.6 C1060,599.8 1059.7,598.5 1059.4,597.6 C1059.1,596.7 1059.2,596 1059.7,596 C1060.2,596 1060.7,597.4 1060.8,599 C1060.9,600.7 1060.8,602 1060.5,602 C1060.2,602 1060,601.4 1060,600.6 Z" id="Path"></path>
                <path d="M1062.6,597.3 C1062,595.9 1062.1,595.8 1063.1,596.7 C1063.8,597.4 1064.1,598.2 1063.8,598.5 C1063.5,598.8 1062.9,598.3 1062.6,597.3 Z" id="Path"></path>
                <path d="M1059.1,586.4 C1059.1,585.3 1059.4,585 1059.7,585.8 C1060,586.5 1059.9,587.4 1059.6,587.7 C1059.3,588.1 1059,587.5 1059.1,586.4 Z" id="Path"></path>
                <path d="M52.6,477.4 C52.3,476.5 52,474.9 52,473.8 C52,470.8 54.5,472.2 54.6,475.4 C54.7,478.5 53.5,479.7 52.6,477.4 Z" id="Path"></path>
                <path d="M50.6,461.4 C50.2,457.2 50.1,453.6 50.4,453.3 C50.6,453.1 51.1,456.3 51.5,460.5 C51.9,464.7 52,468.3 51.8,468.6 C51.5,468.8 51,465.6 50.6,461.4 Z" id="Path"></path>
                <path d="M48.1,431.4 C48.1,430.3 48.4,430 48.7,430.8 C49,431.5 48.9,432.4 48.6,432.7 C48.3,433.1 48,432.5 48.1,431.4 Z" id="Path"></path>
                <path d="M48.2,425 C48.2,423.6 48.4,423.1 48.7,423.8 C48.9,424.4 48.9,425.6 48.7,426.3 C48.4,426.9 48.2,426.4 48.2,425 Z" id="Path"></path>
                <path d="M48.2,414.5 C48.2,412.9 48.4,412.3 48.7,413.3 C48.9,414.2 48.9,415.6 48.7,416.3 C48.4,416.9 48.2,416.2 48.2,414.5 Z" id="Path"></path>
                <path d="M48.2,406 C48.2,404.6 48.4,404.1 48.7,404.8 C48.9,405.4 48.9,406.6 48.7,407.3 C48.4,407.9 48.2,407.4 48.2,406 Z" id="Path"></path>
                <path d="M1066.3,355 C1066.3,352 1066.5,350.7 1066.7,352.3 C1066.9,353.8 1066.9,356.2 1066.7,357.8 C1066.5,359.3 1066.3,358 1066.3,355 Z" id="Path"></path>
                <path d="M50.2,356 C50.2,354.6 50.4,354.1 50.7,354.8 C50.9,355.4 50.9,356.6 50.7,357.3 C50.4,357.9 50.2,357.4 50.2,356 Z" id="Path"></path>
                <path d="M1027.5,113 C1027.8,112.5 1028.3,112 1028.6,112 C1028.8,112 1029,112.5 1029,113 C1029,113.6 1028.5,114 1027.9,114 C1027.4,114 1027.2,113.6 1027.5,113 Z" id="Path"></path>
                <path d="M297,72.5 C305.8,70.7 325.5,69 343,68.5 L357.5,68.1 L350.5,69.5 C342.9,71.1 323,72.7 303,73.4 C290.5,73.9 290.5,73.9 297,72.5 Z" id="Path"></path>
            </g>
        </g>
    </g>
</svg>