<?xml version="1.0" standalone="no"?>
<!DOCTYPE svg PUBLIC "-//W3C//DTD SVG 20010904//EN"
 "http://www.w3.org/TR/2001/REC-SVG-20010904/DTD/svg10.dtd">
<svg version="1.0" xmlns="http://www.w3.org/2000/svg"
 width="1124.000000pt" height="1441.000000pt" viewBox="0 0 1124.000000 1441.000000"
 preserveAspectRatio="xMidYMid meet">
<metadata>
Created by potrace 1.15, written by Peter Selinger 2001-2017
</metadata>
<g transform="translate(0.000000,1441.000000) scale(0.100000,-0.100000)"
fill="#000000" stroke="none">
<path d="M2165 14039 c-7 -10 135 -23 171 -16 16 4 47 2 69 -2 l40 -9 -45 -2
c-25 -2 -79 -4 -120 -5 -112 -2 -229 -15 -236 -26 -3 -5 -10 -6 -16 -3 -5 3
-26 -1 -46 -9 -21 -9 -82 -26 -137 -38 -55 -12 -104 -25 -110 -29 -5 -5 -28
-12 -50 -16 -47 -10 -46 -9 -65 -16 -43 -16 -193 -46 -206 -41 -7 3 -14 0 -14
-7 0 -13 64 -10 124 6 21 5 27 4 22 -4 -8 -14 77 -8 118 7 13 6 43 13 65 16
23 3 62 15 85 25 50 21 126 36 111 21 -11 -10 -117 -48 -155 -55 -14 -2 -49
-10 -78 -16 -30 -7 -59 -13 -65 -14 -7 -2 -24 -8 -39 -14 -39 -16 -268 -27
-268 -13 0 6 5 11 10 11 6 0 10 4 10 9 0 4 -25 9 -55 10 -30 0 -73 5 -94 10
-21 4 -88 8 -147 7 -95 -1 -115 -5 -154 -26 -25 -14 -54 -27 -65 -30 -15 -5
-20 -14 -20 -40 0 -30 -5 -37 -36 -53 -24 -11 -41 -29 -49 -50 -6 -18 -22 -54
-35 -82 -49 -105 -67 -178 -66 -277 0 -18 -5 -28 -14 -28 -8 0 -17 -12 -21
-27 -3 -16 -9 -39 -14 -53 -17 -52 -20 -120 -5 -163 18 -55 25 -108 30 -242 2
-60 7 -180 11 -265 12 -279 11 -324 -2 -346 -17 -28 -28 -88 -39 -209 -11
-126 -16 -162 -28 -216 -8 -30 -12 -80 -10 -110 2 -29 -1 -81 -7 -114 -6 -33
-12 -107 -15 -165 -2 -58 -8 -132 -13 -164 -12 -78 -7 -582 7 -677 5 -41 10
-117 9 -169 0 -73 5 -108 21 -150 12 -30 21 -67 21 -82 0 -14 5 -28 10 -30 6
-2 16 -30 22 -63 7 -33 15 -62 19 -65 3 -3 9 -18 12 -35 3 -16 8 -41 12 -55 4
-14 8 -51 8 -82 0 -32 3 -58 7 -58 4 0 8 -32 9 -71 0 -39 3 -75 6 -80 3 -4 -1
-20 -10 -33 -9 -14 -14 -29 -11 -34 11 -18 17 -262 6 -262 -5 0 -11 6 -11 13
-1 6 -3 23 -5 37 -2 14 -4 75 -4 135 -2 142 -31 286 -65 327 -14 16 -25 26
-26 21 0 -4 -3 -26 -7 -48 -3 -22 -6 -57 -6 -77 -1 -21 -3 -38 -6 -38 -2 0
-14 12 -26 27 l-22 28 -11 -43 c-11 -40 -9 -167 5 -357 12 -161 15 -317 19
-815 3 -289 7 -561 10 -605 5 -71 15 -498 15 -630 0 -27 -5 -89 -11 -137 -7
-58 -7 -93 0 -105 5 -11 7 -24 3 -30 -4 -6 -4 -64 0 -130 21 -380 25 -513 19
-713 -4 -139 -3 -160 14 -154 11 5 15 22 16 63 0 31 4 65 9 76 15 37 23 -10
15 -83 -4 -37 -7 -76 -7 -87 -1 -11 -10 -83 -20 -160 -12 -83 -23 -234 -27
-370 -4 -127 -10 -236 -14 -242 -10 -15 -17 -144 -22 -363 -5 -255 -19 -459
-36 -547 -6 -29 -7 -63 -4 -74 11 -35 14 -109 4 -115 -5 -3 -7 -9 -4 -13 9
-15 16 -439 7 -445 -11 -7 -4 -359 12 -551 4 -52 17 -128 23 -138 6 -9 8 -76
18 -427 4 -129 7 -246 8 -260 1 -15 -3 -24 -10 -22 -9 1 -13 -15 -13 -55 1
-57 23 -253 34 -303 14 -58 25 -196 31 -354 3 -93 9 -185 14 -205 12 -47 27
-120 41 -203 10 -57 15 -68 32 -68 17 0 19 -5 13 -30 -5 -23 -3 -30 8 -30 8 0
25 -16 36 -36 15 -25 26 -34 37 -30 9 3 20 6 25 6 4 0 13 15 18 33 5 17 10 25
10 16 1 -9 8 -19 16 -23 9 -3 15 -18 15 -35 l0 -30 50 27 c28 15 50 33 50 41
0 9 4 10 13 3 6 -5 26 -12 42 -15 40 -7 71 -14 109 -26 17 -6 51 -11 76 -13
36 -3 46 -8 48 -23 2 -18 -3 -20 -67 -20 -51 -1 -75 -5 -89 -18 -10 -9 -26
-17 -35 -17 -8 0 -23 -7 -31 -16 -13 -12 -14 -20 -5 -36 8 -16 8 -22 -2 -29
-9 -5 -4 -10 17 -14 16 -4 39 -10 51 -15 14 -6 25 -6 28 0 4 6 24 7 46 4 44
-7 162 14 153 27 -3 5 2 9 10 9 9 0 16 5 16 10 0 6 33 10 79 10 44 0 82 4 85
9 4 5 -17 15 -44 22 -50 13 -62 31 -24 37 10 2 28 7 39 12 24 12 121 -1 118
-15 -2 -6 -11 -10 -20 -10 -16 0 -39 -32 -30 -41 2 -2 46 -6 98 -9 52 -3 126
-10 165 -16 40 -5 91 -10 115 -9 24 0 115 -3 202 -7 149 -8 177 -4 177 19 0 4
-19 6 -42 3 -39 -3 -98 18 -85 31 2 2 46 0 98 -5 52 -6 141 -13 199 -17 58 -3
108 -8 112 -10 11 -7 158 -24 253 -30 50 -3 189 -12 310 -20 324 -22 495 -27
510 -14 19 16 280 18 395 3 146 -19 396 -36 485 -34 76 1 108 -2 265 -29 70
-12 73 -13 170 -29 71 -12 293 -15 303 -4 12 12 80 14 106 3 35 -14 214 -20
282 -9 30 5 115 9 189 10 74 1 140 5 146 10 7 6 16 9 20 7 5 -1 27 1 49 5 22
4 81 10 130 13 50 3 135 9 190 15 142 14 544 21 575 10 15 -5 50 -5 81 -1 115
18 157 22 229 27 111 7 1219 7 1335 0 178 -11 609 -15 622 -5 7 5 17 7 23 3
11 -7 84 -12 267 -19 113 -5 205 -13 261 -22 47 -7 121 22 159 64 18 19 50 69
70 111 21 42 50 95 66 118 16 24 26 47 22 52 -3 5 8 36 24 68 60 119 81 194
61 218 -8 9 -8 15 0 20 5 3 10 1 10 -6 0 -10 3 -10 12 -1 18 18 46 14 58 -8 8
-16 5 -30 -14 -67 -18 -33 -22 -49 -14 -54 6 -4 13 -22 15 -40 2 -18 7 -37 12
-42 14 -14 31 1 31 28 0 19 6 24 32 27 22 2 34 9 36 21 2 11 12 27 23 38 10
10 19 32 19 48 0 17 5 33 10 36 6 3 10 -3 10 -14 0 -12 5 -21 10 -21 6 0 10
-13 10 -30 0 -25 4 -30 24 -30 18 0 28 10 42 38 10 20 17 47 15 60 -1 13 3 30
10 38 7 8 12 47 12 97 0 96 -2 118 -15 134 -5 6 -9 128 -10 271 0 253 6 324
35 392 6 14 12 118 14 240 6 317 6 322 -8 330 -6 5 -13 19 -14 32 -1 12 -7 36
-14 53 -8 20 -12 104 -11 273 0 135 2 247 4 251 3 4 5 105 7 226 1 158 6 228
15 250 39 86 50 149 44 245 -4 52 -7 87 -8 78 -1 -10 -6 -18 -10 -18 -4 0 -7
58 -5 130 3 108 6 135 23 162 17 29 20 50 19 158 -1 100 -3 116 -10 81 -5 -25
-10 -50 -13 -55 -7 -19 10 430 19 474 2 14 7 41 9 60 3 19 11 54 20 77 8 22
13 43 10 46 -2 2 2 39 10 83 20 106 27 249 15 304 -5 25 -11 91 -13 147 -2 56
-6 105 -9 110 -4 7 12 93 38 206 9 39 31 93 43 105 6 7 12 24 12 37 0 12 7 36
15 51 8 16 15 39 15 52 0 12 4 22 8 22 28 0 36 371 13 590 -4 41 -7 103 -6
137 0 34 -3 59 -7 57 -10 -7 -11 -11 12 92 11 49 20 108 20 131 0 23 5 54 11
70 25 65 14 343 -15 385 -8 12 -13 33 -11 47 11 71 14 122 7 117 -9 -5 -7 89
2 157 4 26 3 62 -3 80 -5 18 -15 52 -23 76 -11 39 -13 42 -18 20 -4 -13 -3
-42 2 -64 19 -94 20 -151 4 -164 -14 -12 -16 -10 -16 14 0 16 -5 25 -12 23
-24 -8 -58 -92 -73 -183 -17 -96 -16 -96 16 -215 6 -25 11 -69 10 -99 -2 -48
-1 -53 13 -42 8 7 16 24 18 38 2 15 9 28 16 31 11 3 12 0 3 -17 -7 -11 -8 -21
-3 -21 8 0 8 -18 -2 -195 -6 -90 -8 -111 -27 -260 -18 -137 -19 -149 -23 -190
-2 -22 3 -83 11 -135 13 -88 18 -237 9 -303 -2 -15 0 -30 4 -32 8 -5 4 -51
-10 -122 -6 -26 -15 -84 -21 -128 -5 -44 -16 -100 -24 -125 -14 -46 -23 -110
-30 -215 -2 -33 -7 -80 -11 -105 -4 -25 -8 -52 -8 -60 -1 -8 -5 -40 -9 -70
-12 -94 -15 -141 -16 -244 -1 -55 -4 -97 -7 -94 -8 9 -7 263 1 289 6 18 4 21
-9 16 -12 -5 -16 0 -16 18 0 20 -5 25 -24 25 -29 0 -36 9 -42 53 -2 18 -7 52
-11 77 -9 65 -7 87 11 165 9 39 16 86 15 105 -2 19 5 49 13 65 16 30 41 165
33 174 -3 2 2 12 11 22 9 10 14 25 12 35 -3 16 -4 17 -20 1 -9 -9 -18 -17 -21
-17 -6 0 4 63 13 85 14 30 18 123 8 174 -5 25 -11 75 -13 109 -4 67 -14 96
-16 46 -1 -28 -1 -28 -10 6 -16 64 -17 124 -3 230 15 115 50 199 91 221 13 7
24 19 25 28 2 31 4 36 16 59 10 16 10 32 2 60 -5 20 -10 52 -10 71 0 19 -3 32
-6 28 -3 -3 -8 -49 -10 -101 -3 -86 -6 -99 -29 -123 -24 -26 -25 -27 -25 -7 0
12 7 39 16 60 9 22 17 72 18 115 l2 77 -23 -49 c-13 -27 -26 -49 -29 -49 -3 0
-2 5 2 12 4 6 8 40 9 75 1 49 6 68 23 86 13 14 22 36 22 54 0 17 7 36 15 43 8
7 15 21 15 31 0 10 5 21 10 24 6 3 7 18 4 33 -9 35 -13 39 -24 22 -6 -9 -5
-17 2 -21 8 -5 9 -11 1 -21 -6 -7 -9 -21 -8 -30 2 -10 -1 -21 -7 -24 -8 -5 -5
98 7 198 2 15 -1 30 -6 34 -6 4 -6 11 1 19 6 7 10 17 9 21 -1 5 0 25 1 44 l3
35 6 -35 c6 -33 7 -34 18 -14 13 22 41 135 47 191 3 18 8 38 12 45 16 25 13
114 -12 313 -2 22 3 71 12 109 15 62 18 67 30 51 8 -10 14 -27 14 -36 0 -18
40 -52 75 -63 22 -6 24 1 24 93 1 38 3 42 16 31 8 -7 15 -19 15 -26 0 -9 11
-14 31 -14 l32 0 -7 69 c-6 68 -28 131 -40 113 -3 -5 -14 -12 -24 -14 -17 -5
-18 4 -16 148 2 152 2 153 -19 151 -12 -1 -25 -11 -29 -22 -5 -12 -6 -7 -3 14
3 18 5 47 5 63 0 22 6 31 21 35 17 5 20 11 15 32 -4 14 -9 64 -13 111 -4 53
-9 77 -13 65 -7 -19 -5 -87 5 -147 2 -15 0 -30 -5 -33 -6 -3 -10 3 -10 14 0
11 -4 22 -9 25 -9 6 -8 206 2 222 9 15 9 181 -1 262 -9 85 1 102 60 102 36 0
36 0 28 33 -6 28 -4 36 12 46 15 9 20 8 24 -4 4 -8 1 -22 -6 -30 -10 -12 -7
-15 13 -20 13 -4 38 -5 53 -3 24 2 28 7 26 26 -2 15 2 22 12 22 9 0 16 7 16
15 0 8 6 15 14 15 20 0 23 23 14 100 -4 36 -10 148 -13 250 -3 102 -10 199
-15 215 -5 17 -12 50 -14 75 -3 25 -9 83 -15 130 -6 47 -7 107 -3 135 4 27 3
76 -2 108 -7 43 -6 70 3 105 8 26 15 62 16 79 1 18 3 35 6 37 2 2 33 0 69 -5
36 -4 93 -9 128 -11 59 -4 62 -3 62 19 0 21 -4 23 -58 23 -74 0 -224 23 -322
49 -41 11 -122 25 -180 31 -103 10 -441 14 -490 5 -14 -2 -56 -9 -95 -15 -126
-20 -328 -74 -410 -110 -11 -5 -46 -20 -78 -34 -219 -97 -454 -178 -598 -206
-200 -39 -434 -27 -575 28 -49 20 -325 154 -354 173 -8 5 -31 16 -50 25 -39
17 -45 21 -148 83 -51 31 -71 48 -67 59 3 8 0 21 -6 28 -8 10 -4 21 20 45 95
94 211 509 212 753 0 64 -5 106 -30 256 -8 46 -60 201 -80 239 -23 42 -70 107
-95 130 l-26 24 -342 -1 c-426 -2 -450 -3 -456 -20 -4 -12 28 -13 184 -6 217
10 237 10 434 -1 80 -5 159 -8 176 -9 27 0 35 -6 53 -43 11 -24 21 -48 21 -53
0 -14 -773 1 -813 16 -7 2 -18 0 -26 -5 -12 -8 -12 -12 -2 -25 7 -9 17 -13 22
-10 9 5 562 5 624 -1 140 -12 192 -19 206 -26 14 -7 39 -70 39 -98 0 -9 -106
-12 -435 -10 -240 1 -439 -1 -442 -5 -4 -3 -4 -8 -1 -11 5 -6 8 -6 193 -6 77
0 266 -3 420 -7 l280 -7 9 -43 c5 -23 6 -45 3 -49 -5 -4 -793 -6 -857 -1 -36
3 -51 -3 -48 -18 3 -14 53 -15 460 -15 l456 -1 12 -64 c7 -36 9 -68 6 -72 -7
-6 -136 -6 -718 2 -188 2 -241 -3 -190 -18 9 -3 163 -8 342 -12 179 -3 350 -7
380 -8 30 -1 85 -3 121 -4 l66 -2 -3 -61 c-1 -33 -5 -64 -9 -67 -4 -4 -86 -8
-183 -9 -97 -1 -260 -3 -362 -5 -102 -1 -230 2 -285 6 -89 7 -98 6 -85 -7 16
-17 186 -33 310 -30 78 2 580 5 598 4 10 -1 12 -13 6 -48 -4 -27 -10 -58 -15
-70 l-8 -21 -432 -1 c-238 -1 -435 -4 -438 -7 -20 -20 53 -24 436 -24 231 -1
423 -3 425 -6 8 -8 -23 -128 -35 -137 -12 -8 -631 -1 -692 8 -50 7 -124 9
-130 3 -3 -3 -3 -12 0 -20 4 -11 24 -14 78 -14 40 0 137 -4 217 -7 80 -4 229
-8 333 -8 103 0 187 -3 187 -8 0 -4 -5 -22 -11 -38 -9 -28 -16 -31 -62 -37
-53 -6 -287 -3 -588 10 -114 4 -168 3 -173 -4 -12 -19 16 -25 133 -29 263 -7
471 -12 556 -14 50 -1 93 -3 98 -6 4 -2 0 -18 -10 -34 -22 -37 -23 -37 -353
-25 -91 4 -187 9 -215 11 -197 16 -225 17 -225 7 0 -6 4 -13 8 -16 11 -7 226
-24 402 -32 206 -10 211 -11 278 -12 65 -2 71 -6 49 -36 -12 -16 -29 -18 -133
-18 -65 0 -157 5 -204 11 -47 6 -103 13 -125 16 -22 3 -90 7 -152 9 -61 2
-115 6 -120 9 -5 3 -34 8 -64 11 -29 3 -88 16 -129 29 l-74 24 47 7 c27 4 54
3 66 -3 13 -7 22 -8 26 -1 3 5 21 10 39 10 33 0 33 0 34 53 5 245 -4 1046 -13
1139 -7 75 -30 116 -59 105 -16 -6 -16 -8 -2 -23 26 -25 20 -45 -10 -38 -20 5
-25 3 -22 -7 2 -7 15 -16 29 -19 17 -4 25 -14 27 -34 3 -27 2 -28 -28 -21 -28
6 -31 4 -28 -12 2 -13 12 -18 33 -18 28 0 30 -3 33 -42 3 -43 3 -43 -27 -37
-39 8 -81 -3 -81 -21 0 -20 21 -30 30 -15 5 9 19 10 44 6 34 -7 36 -9 34 -47
-1 -31 -5 -38 -17 -35 -42 12 -101 17 -101 9 0 -20 26 -33 67 -33 40 0 43 -2
43 -27 l0 -28 -81 0 -81 -1 6 26 c4 14 10 54 15 90 5 36 23 119 40 185 55 216
58 218 279 215 86 -1 186 -3 222 -5 78 -3 288 -7 313 -6 27 1 20 17 -13 31
-35 14 -37 21 -11 37 15 10 26 8 57 -8 21 -10 46 -19 55 -19 18 0 106 44 130
66 8 8 19 14 24 14 4 0 32 16 61 35 29 19 64 35 78 35 14 0 26 4 26 8 0 25
256 112 332 112 262 3 385 -6 492 -36 27 -8 64 -14 82 -14 18 0 56 -9 84 -20
28 -11 71 -20 95 -20 24 0 47 -5 50 -10 9 -14 215 7 245 25 6 3 54 17 108 31
53 14 122 31 152 39 126 34 232 47 485 61 61 3 113 8 117 10 3 2 18 -1 32 -7
20 -10 48 -8 141 10 63 12 130 28 149 36 18 8 55 17 82 21 27 3 60 14 74 24
14 9 49 20 78 24 30 4 61 11 70 16 36 19 171 60 235 71 l67 11 0 34 c0 31 -3
34 -30 34 -34 0 -192 -34 -235 -50 -33 -12 -168 -50 -205 -56 -14 -3 -51 -12
-83 -20 -32 -8 -77 -19 -100 -23 -23 -5 -76 -17 -117 -26 -41 -10 -109 -19
-150 -19 -76 -2 -229 -26 -457 -71 -69 -14 -139 -27 -156 -30 -18 -3 -68 -16
-112 -30 -139 -41 -317 -77 -355 -71 -19 3 -64 10 -100 15 -36 5 -83 15 -105
24 -37 13 -221 49 -326 62 -26 3 -107 8 -180 10 -171 5 -308 -19 -439 -77
-111 -49 -235 -112 -248 -125 -13 -13 -145 -83 -157 -83 -16 0 0 21 33 41 158
99 360 191 517 237 148 43 209 51 316 39 41 -5 76 -4 93 3 22 8 51 6 130 -11
55 -11 133 -27 171 -35 69 -14 98 -21 185 -44 25 -7 93 -13 152 -15 94 -2 109
0 124 16 10 11 26 19 36 19 10 0 53 8 96 19 144 35 177 41 232 47 30 2 63 7
72 10 9 3 41 7 70 9 96 9 209 33 227 49 10 9 28 16 42 16 33 0 179 27 209 38
14 5 56 13 93 17 52 5 75 13 95 31 15 13 35 30 44 37 10 6 24 28 32 49 15 34
14 38 -11 85 -14 26 -32 60 -40 74 -17 34 -39 53 -52 45 -14 -9 -62 40 -110
111 -34 52 -51 67 -97 88 -31 14 -64 23 -74 20 -13 -4 -22 2 -31 24 -8 17 -18
27 -26 24 -7 -3 -13 -1 -13 4 0 11 -88 1 -110 -12 -19 -12 -610 -15 -610 -4 0
5 6 9 14 9 8 0 17 4 21 10 3 5 -16 3 -42 -5 -35 -10 -70 -12 -133 -6 -47 4
-125 6 -175 3 -49 -2 -160 -4 -246 -5 -137 -2 -159 -4 -177 -20 -19 -17 -137
-37 -377 -63 -92 -11 -175 -26 -181 -35 -3 -5 -14 -9 -25 -9 -11 0 -17 5 -14
10 8 13 -1 13 -27 -1 -15 -8 -19 -8 -14 0 11 17 -109 14 -123 -3 -11 -13 -56
-22 -163 -33 -49 -4 -58 -3 -58 11 0 9 -7 16 -16 16 -8 0 -12 5 -9 10 9 15
-41 12 -57 -3 -18 -18 -48 -28 -48 -17 0 6 5 10 10 10 6 0 10 4 10 9 0 5 -21
8 -47 6 -26 -1 -58 1 -70 6 -15 5 -34 3 -57 -6 -41 -17 -100 -20 -91 -5 4 6
10 8 14 6 4 -3 13 0 21 5 13 8 12 12 -4 24 -25 19 -95 19 -120 0 -12 -9 -43
-15 -75 -16 -39 0 -50 -3 -36 -8 15 -6 8 -9 -28 -12 -27 -2 -51 -1 -53 3 -3 5
7 8 21 8 14 0 24 4 21 8 -8 13 -46 7 -56 -8 -6 -10 -32 -12 -122 -7 -107 6
-212 0 -358 -23 -55 -9 -191 -16 -422 -22 -27 -1 -65 4 -85 10 -107 32 -176
45 -248 49 -136 7 -238 5 -285 -6 -62 -14 -116 -14 -148 3 -35 17 -94 26 -217
32 -55 3 -113 7 -130 10 -16 3 -119 7 -227 9 -108 2 -229 8 -270 14 -40 7 -90
9 -110 7 -21 -3 -40 -1 -43 4 -3 5 -34 7 -68 3 -41 -3 -103 2 -182 15 -103 17
-155 20 -370 17 -137 -2 -268 1 -290 5 -69 14 -180 20 -486 26 -252 5 -305 3
-350 -10 -58 -18 -214 -22 -224 -6 -3 6 -19 10 -36 10 -16 0 -29 3 -29 8 0 9
-219 11 -225 1z m7095 -59 c-35 -11 -72 -12 -66 -1 3 5 25 9 48 9 35 -1 39 -2
18 -8z m-2660 -154 c0 -9 -30 -14 -35 -6 -4 6 3 10 14 10 12 0 21 -2 21 -4z
m330 -7 c0 -6 -6 -9 -12 -6 -7 2 -21 0 -30 -5 -11 -5 -18 -5 -18 1 0 6 -26 12
-57 14 -45 2 -38 4 30 5 57 1 87 -2 87 -9z m-253 -15 c-3 -3 -12 -4 -19 -1 -8
3 -5 6 6 6 11 1 17 -2 13 -5z m53 -1431 c0 -16 -17 -29 -69 -53 -73 -34 -102
-57 -158 -126 -26 -32 -54 -66 -62 -74 -24 -24 -81 -118 -100 -163 -25 -57
-63 -101 -124 -141 -99 -64 -137 -80 -347 -148 -69 -22 -144 -52 -167 -65 -24
-14 -43 -23 -43 -20 0 13 184 102 310 151 212 81 323 168 395 310 21 41 50 88
66 106 16 17 29 35 29 40 0 10 118 120 130 120 5 0 15 7 24 15 15 15 93 54
109 55 4 0 7 -3 7 -7z m216 -401 c-4 -191 -11 -361 -17 -378 -9 -31 -11 -31
-91 -38 -191 -16 -263 -93 -299 -320 -36 -228 -50 -267 -122 -333 -25 -23 -82
-60 -128 -83 -86 -43 -111 -56 -138 -77 -59 -44 -84 -71 -107 -116 -39 -77
-36 -160 11 -302 46 -139 67 -237 53 -246 -7 -4 -6 -9 2 -14 17 -10 5 -111
-21 -180 -31 -84 -159 -200 -259 -237 -75 -28 -168 -86 -228 -143 -53 -50 -65
-69 -77 -115 -22 -81 -19 -178 6 -247 19 -50 41 -78 161 -199 150 -151 187
-204 213 -302 16 -63 15 -98 -6 -197 -11 -50 -14 -60 -43 -127 -9 -20 -16 -39
-16 -42 0 -29 -154 -193 -218 -233 -15 -9 -43 -30 -62 -45 -19 -16 -40 -32
-45 -36 -84 -60 -164 -130 -265 -232 -158 -159 -264 -433 -277 -713 -7 -154
10 -373 43 -542 12 -66 26 -145 29 -175 4 -30 13 -77 21 -104 42 -147 60 -443
34 -546 l-14 -55 -7 67 c-12 114 -55 167 -124 154 -33 -6 -39 -13 -61 -62 -13
-30 -25 -54 -28 -54 -2 0 -4 109 -5 242 -2 260 -9 317 -45 362 -31 38 -105 57
-172 45 -96 -18 -176 -137 -199 -296 -29 -194 -38 -492 -24 -738 9 -149 43
-438 62 -520 24 -102 54 -216 77 -295 16 -52 33 -128 39 -167 6 -40 16 -106
22 -145 7 -44 9 -141 6 -243 -6 -201 -4 -192 -146 -565 -51 -132 -60 -184 -65
-382 -5 -163 -4 -187 9 -182 12 5 14 0 9 -27 -19 -112 -38 -118 -50 -19 -9 79
-31 125 -71 156 -30 23 -42 26 -89 22 -43 -4 -61 -11 -85 -34 -44 -41 -56 -70
-62 -143 -3 -34 -8 -65 -10 -68 -11 -10 -27 67 -32 146 -7 112 25 289 66 363
5 10 9 24 9 32 0 7 11 38 24 67 12 30 34 82 47 116 13 34 26 61 29 61 3 0 39
1 80 2 62 1 70 3 45 11 -16 5 -49 10 -72 11 -24 2 -43 8 -43 14 0 23 64 39
150 38 79 -2 83 -1 55 12 -16 7 -65 13 -108 14 -77 0 -78 0 -71 23 18 56 36
127 48 182 23 114 -6 285 -78 470 -55 140 -71 180 -71 185 0 3 -3 10 -7 15
-13 21 -49 155 -63 238 -25 146 -24 296 4 482 5 33 15 94 21 135 7 41 16 102
21 135 40 264 0 506 -96 565 -31 19 -45 22 -93 17 -48 -5 -62 -11 -88 -40 -17
-19 -42 -60 -55 -93 -20 -51 -23 -75 -23 -179 1 -85 7 -145 22 -205 31 -127
25 -255 -18 -379 -17 -52 -47 -127 -65 -168 -65 -141 -106 -307 -108 -440 l-1
-73 -36 -10 c-47 -13 -97 -13 -137 2 -38 14 -57 3 -28 -18 35 -26 92 -36 148
-25 28 5 53 8 55 6 10 -10 18 -338 8 -353 -2 -4 -7 -29 -10 -55 -11 -82 -54
-178 -114 -256 -64 -83 -89 -101 -78 -55 4 16 11 31 16 34 7 5 38 117 47 175
6 38 -20 100 -50 119 -25 17 -81 9 -122 -18 l-24 -16 16 38 c16 36 21 56 42
153 13 60 6 185 -15 279 -9 41 -18 89 -20 105 -1 17 -10 82 -18 145 -20 143
-13 291 20 425 17 70 43 153 54 176 5 9 14 36 20 59 6 23 22 59 35 79 22 34
61 162 64 206 4 87 -2 189 -19 305 -31 214 -36 308 -25 440 13 164 41 271 135
505 38 94 62 164 66 195 18 142 17 158 -10 213 -24 50 -50 82 -89 114 -25 19
-89 33 -180 37 -79 3 -93 1 -148 -25 -135 -64 -236 -225 -286 -459 -14 -67
-19 -210 -9 -265 2 -11 7 -40 11 -65 6 -40 35 -140 82 -280 38 -115 46 -159
45 -253 0 -55 -5 -111 -11 -125 -6 -15 -12 -37 -14 -49 -2 -12 -6 -26 -10 -29
-4 -4 -7 -16 -7 -27 0 -19 -7 -38 -66 -164 -19 -39 -34 -74 -34 -77 0 -4 -9
-25 -19 -49 -24 -54 -45 -123 -66 -221 -21 -95 -16 -214 14 -330 29 -109 29
-250 0 -313 -11 -25 -22 -43 -24 -41 -3 3 -35 162 -40 203 -6 44 -39 106 -70
134 -72 63 -161 44 -204 -43 -21 -41 -24 -63 -24 -139 1 -83 0 -89 -13 -65
-39 74 -53 263 -28 374 18 83 68 214 85 224 5 4 38 -8 73 -26 50 -25 71 -30
97 -25 43 9 51 31 11 31 -43 0 -139 45 -147 69 -13 41 14 52 63 27 36 -18 82
-28 82 -19 0 5 -25 21 -55 38 -57 30 -59 34 -49 73 6 21 10 22 53 16 25 -4 54
-11 64 -16 12 -6 17 -5 17 6 0 18 -30 36 -60 36 -29 0 -34 23 -17 77 42 130
49 180 49 345 -1 204 -33 397 -114 678 -25 87 -38 329 -24 440 22 182 124 456
221 595 158 227 375 362 720 448 117 30 210 49 240 52 152 12 275 35 342 65
25 11 51 20 58 20 6 0 25 6 41 14 16 8 47 22 69 32 81 36 235 174 235 209 0 7
8 31 19 54 10 23 17 53 16 66 -10 87 -26 106 -125 150 -57 26 -77 29 -160 30
-92 0 -100 -2 -241 -57 -327 -127 -497 -167 -591 -139 -78 23 -144 92 -154
161 -6 33 28 120 56 145 17 15 18 14 29 -16 6 -18 11 -49 11 -69 0 -70 43
-136 65 -100 3 6 25 10 48 10 58 1 148 24 194 49 79 45 102 114 68 210 l-13
39 30 6 c60 12 98 7 98 -11 1 -31 55 -114 88 -135 25 -16 32 -17 32 -6 0 8 -9
23 -20 33 -28 25 -64 100 -57 118 3 8 19 19 37 25 31 11 31 11 51 -34 10 -25
19 -49 19 -54 0 -4 7 -13 15 -20 19 -15 19 -15 -1 60 -17 67 -16 70 34 90 40
16 43 12 69 -68 9 -29 22 -51 27 -49 15 5 14 22 -2 86 -7 29 -10 57 -5 61 4 5
44 27 88 50 44 24 89 50 100 60 11 9 40 28 65 42 106 61 226 219 275 363 25
72 61 168 85 220 5 11 16 47 25 80 20 72 96 234 128 270 56 64 125 125 152
136 32 13 71 37 230 142 227 148 288 259 255 463 -15 90 -14 213 1 266 13 44
74 138 89 138 5 0 11 8 15 18 3 11 27 34 53 52 26 19 49 36 52 40 3 3 23 14
45 25 22 11 42 23 43 28 2 4 10 7 18 7 8 0 27 6 42 14 15 8 43 16 63 19 19 2
45 9 56 15 11 6 43 19 69 28 83 27 207 100 249 146 22 24 53 70 69 103 45 90
153 241 191 267 6 3 20 15 32 25 55 48 193 96 288 100 l57 3 -6 -348z m-1440
-539 c-53 -80 -73 -258 -42 -370 8 -29 13 -87 12 -130 -4 -148 -69 -234 -281
-374 -177 -117 -190 -127 -269 -209 -112 -118 -195 -260 -296 -510 -30 -74
-53 -116 -63 -118 -15 -3 -15 0 -2 37 8 23 14 42 14 44 -6 34 159 387 227 483
70 99 191 198 325 264 101 50 222 138 228 165 2 11 7 22 11 25 4 3 18 28 31
55 22 46 23 62 24 222 0 95 -4 173 -8 173 -15 0 10 108 41 180 9 19 16 37 16
40 1 9 51 68 54 65 2 -2 -8 -20 -22 -42z m1214 29 c0 -4 -18 -26 -40 -47 -22
-21 -40 -44 -41 -50 0 -5 -9 -28 -19 -50 -17 -35 -19 -36 -14 -10 4 17 15 48
26 70 29 59 88 117 88 87z m-109 -299 c-5 -17 -7 -33 -5 -36 2 -2 -1 -30 -7
-62 -25 -135 -100 -221 -247 -286 -130 -57 -160 -77 -209 -140 -30 -41 -42
-66 -46 -102 -5 -51 13 -147 38 -201 28 -61 67 -192 76 -256 11 -81 -5 -224
-33 -300 -35 -92 -114 -163 -240 -216 -45 -19 -87 -34 -93 -34 -29 0 -154 -72
-190 -109 -38 -40 -67 -51 -80 -31 -7 11 110 130 127 130 5 0 22 8 36 18 26
18 122 52 146 52 23 0 91 38 115 64 14 14 30 26 36 26 6 0 21 11 33 25 12 14
25 25 29 25 17 0 62 89 73 145 14 67 14 175 0 220 -5 17 -16 53 -23 80 -40
139 -61 201 -70 213 -5 7 -7 15 -4 19 4 3 2 12 -4 19 -17 21 -19 116 -3 165 8
25 29 61 47 80 36 40 92 81 99 73 3 -2 11 2 18 11 7 8 18 15 24 15 6 0 34 11
61 25 28 13 55 25 61 25 6 0 28 15 47 33 20 17 45 38 56 46 44 32 84 135 107
276 3 17 8 41 11 55 l6 25 8 -30 c5 -17 5 -44 0 -62z m129 -104 c0 -11 14 -52
32 -92 37 -85 44 -175 16 -203 -23 -24 -64 -10 -89 29 -23 37 -22 101 7 224
15 67 34 90 34 42z m-1866 -414 c-96 -107 -232 -245 -242 -245 -5 0 -27 -14
-48 -31 -46 -36 -145 -83 -196 -93 -59 -11 -91 14 -102 80 -7 37 30 114 61
130 13 6 31 18 40 26 16 14 168 75 233 93 14 3 64 17 113 30 48 12 108 34 135
48 26 14 51 26 56 26 4 1 -18 -28 -50 -64z m6096 -645 c0 -5 -5 -10 -11 -10
-5 0 -7 5 -4 10 3 6 8 10 11 10 2 0 4 -4 4 -10z m-7102 -114 c22 -8 101 -31
174 -50 181 -48 498 -167 498 -187 0 -4 -17 -36 -37 -71 -41 -71 -147 -181
-184 -193 -13 -4 -28 -14 -34 -21 -5 -8 -58 -38 -118 -69 -86 -43 -113 -53
-138 -48 -22 4 -38 0 -60 -16 -23 -17 -61 -26 -172 -41 -78 -10 -162 -22 -187
-25 -56 -8 -219 -63 -241 -82 -8 -7 -21 -13 -28 -13 -20 0 -98 -79 -116 -116
-30 -64 -35 -124 -14 -169 26 -54 83 -114 139 -145 89 -49 287 -27 485 55 44
18 91 36 105 40 14 4 52 20 85 35 104 47 120 54 135 57 132 25 249 1 283 -58
41 -73 5 -184 -93 -279 -32 -32 -80 -71 -105 -86 -105 -61 -337 -124 -511
-138 -157 -13 -268 -38 -432 -99 -55 -20 -86 -27 -90 -20 -6 9 -121 46 -180
58 -72 14 -297 83 -357 110 -16 7 -61 23 -100 35 -102 32 -404 139 -444 157
-32 14 -33 17 -17 29 10 7 32 26 50 41 17 15 50 41 74 57 23 16 42 32 42 37 0
4 9 10 20 14 11 3 45 31 77 61 32 30 61 54 65 54 3 0 13 6 20 13 23 22 258
210 330 265 39 28 92 70 117 92 25 22 54 47 64 55 10 9 29 21 42 27 14 6 25
15 25 19 0 8 96 79 108 79 4 0 38 29 76 65 37 36 72 65 76 65 5 0 26 15 48 33
22 17 66 52 98 77 31 25 66 54 78 66 12 11 73 59 136 106 63 47 126 97 140
111 14 15 26 27 26 27 1 0 20 -6 42 -14z m1772 -582 c14 -7 63 -25 110 -40 47
-15 89 -31 95 -36 5 -4 15 -8 22 -8 20 0 314 -115 553 -215 244 -103 296 -124
410 -165 63 -23 147 -55 185 -71 39 -17 106 -44 150 -61 44 -17 97 -42 117
-55 21 -12 46 -23 55 -23 20 0 50 -17 43 -23 -3 -2 -36 -25 -75 -51 -70 -46
-119 -82 -139 -101 -6 -6 -34 -27 -61 -47 -28 -20 -59 -46 -70 -58 -11 -12
-37 -30 -58 -40 -21 -11 -58 -33 -80 -50 -54 -40 -128 -91 -197 -136 -30 -20
-74 -52 -97 -70 -23 -19 -44 -34 -47 -34 -9 0 -178 -116 -202 -139 -12 -11
-44 -35 -72 -53 -110 -73 -209 -143 -247 -173 -22 -18 -56 -40 -75 -50 -19 -9
-60 -36 -90 -59 -82 -61 -303 -196 -322 -196 -9 0 -19 4 -23 9 -3 5 -20 13
-38 16 -17 4 -59 20 -92 35 -194 89 -235 110 -235 114 0 30 163 235 187 236 5
0 35 26 68 56 33 31 83 71 110 89 28 19 68 48 90 64 22 17 49 35 61 40 34 15
128 112 171 176 72 107 104 203 111 333 9 176 -33 261 -220 444 -60 59 -104
112 -119 143 -13 28 -32 59 -41 69 -16 18 -20 40 -20 106 0 49 1 51 30 44 15
-4 38 -13 52 -20z m-1970 -234 c6 -11 13 -42 17 -68 4 -39 1 -52 -17 -75 -30
-37 -61 -52 -154 -71 -110 -22 -135 -21 -140 7 -17 89 -21 149 -12 156 26 20
211 67 273 70 13 1 27 -8 33 -19z m3714 -897 c-3 -197 -5 -369 -5 -383 0 -52
-1 -288 -1 -380 0 -52 2 -189 6 -305 4 -115 9 -282 11 -370 2 -88 9 -243 16
-344 9 -129 10 -186 2 -188 -7 -3 -6 -22 3 -61 16 -64 17 -271 3 -424 -6 -61
-6 -106 1 -122 5 -14 6 -26 2 -26 -4 0 -8 -129 -9 -287 -1 -159 -5 -322 -11
-363 -5 -41 -5 -90 -1 -108 4 -17 3 -34 -1 -37 -6 -4 -5 -133 2 -395 1 -23 -9
-148 -13 -167 -1 -4 1 -16 6 -27 5 -10 3 -39 -3 -65 -8 -31 -9 -68 -3 -114 7
-55 8 -102 1 -102 -2 0 -1 -190 5 -475 3 -168 6 -309 6 -315 1 -61 -16 -253
-23 -262 -6 -7 -6 -25 0 -47 12 -42 5 -53 -63 -91 -27 -16 -99 -63 -160 -105
-145 -100 -312 -208 -378 -243 -28 -16 -68 -39 -87 -51 -36 -24 -81 -50 -160
-94 -25 -13 -58 -35 -75 -47 -16 -12 -50 -32 -75 -45 -25 -13 -90 -53 -145
-89 -55 -37 -113 -72 -129 -79 -16 -7 -68 -39 -115 -71 -47 -31 -106 -68 -131
-82 -25 -13 -101 -65 -169 -116 -120 -88 -166 -112 -169 -89 -1 6 -7 227 -13
491 -8 350 -8 528 0 655 23 366 26 662 16 1210 -3 157 -7 449 -10 650 -2 201
-7 403 -11 450 -32 400 -36 1182 -8 1635 3 44 7 123 9 175 2 52 9 158 15 235
7 77 13 151 14 164 1 18 11 27 42 40 22 9 65 31 95 50 30 19 70 44 89 56 19
12 55 35 79 51 24 16 58 38 77 49 18 12 47 33 64 48 16 15 34 27 39 27 6 0 38
22 73 48 35 26 81 59 103 72 22 13 49 33 60 43 11 11 43 34 70 53 28 18 82 56
120 83 39 28 88 63 110 77 22 15 51 35 65 45 14 11 57 40 95 65 39 26 95 66
125 90 30 23 73 53 96 66 57 32 182 116 189 127 5 9 78 61 165 118 19 12 40
27 45 31 11 9 35 20 47 21 4 1 4 -160 2 -356z m-5169 248 c63 -26 146 -57 209
-77 39 -12 130 -42 201 -66 169 -58 372 -121 478 -148 26 -7 50 -16 52 -20 3
-4 -32 -27 -78 -51 -155 -80 -268 -180 -360 -317 -37 -54 -69 -107 -73 -116
-4 -9 -26 -51 -49 -92 -24 -42 -49 -99 -56 -127 -6 -29 -16 -60 -21 -70 -5
-10 -13 -42 -19 -72 -5 -30 -14 -81 -19 -112 -20 -112 -14 -237 20 -382 17
-74 36 -144 42 -155 6 -12 10 -21 9 -21 -1 0 0 -7 2 -15 64 -202 107 -551 86
-690 -5 -30 -11 -73 -15 -95 -8 -52 -69 -216 -107 -285 -168 -310 -180 -344
-181 -495 -1 -124 -1 -124 53 -233 28 -58 134 -149 193 -167 132 -39 250 3
306 110 18 35 43 160 36 178 -2 7 -6 28 -8 47 -7 60 -17 114 -26 135 -11 26
-27 99 -34 148 -16 118 53 365 147 527 20 36 37 71 37 78 0 7 9 41 21 75 24
71 27 84 37 192 10 112 -10 230 -59 340 -30 67 -68 211 -68 257 -2 193 41 424
95 510 13 21 24 40 24 43 0 20 56 88 93 113 101 68 225 63 302 -11 38 -38 43
-48 50 -103 3 -33 4 -80 0 -105 -9 -66 -73 -260 -95 -291 -11 -15 -20 -33 -20
-41 0 -7 -4 -17 -9 -23 -18 -18 -51 -159 -68 -291 -15 -117 -15 -151 -5 -261
7 -70 24 -181 38 -247 31 -148 41 -321 25 -407 -12 -61 -56 -193 -72 -213 -18
-23 -54 -144 -90 -300 -23 -99 -18 -382 10 -544 18 -106 22 -154 17 -235 -10
-183 -25 -239 -78 -302 -21 -24 -40 -99 -43 -174 -5 -103 48 -164 158 -182 56
-10 66 -9 110 12 26 12 58 36 70 52 12 16 36 46 53 66 55 67 102 193 120 322
10 80 12 214 3 270 -16 96 -13 293 5 376 15 71 53 181 80 232 7 15 22 52 33
82 11 30 25 71 32 90 37 103 48 169 46 273 -2 58 -8 120 -14 139 -33 101 -28
258 12 349 21 47 35 58 89 65 43 6 48 4 82 -30 62 -65 88 -212 67 -386 -13
-101 -53 -365 -72 -465 -19 -100 -12 -335 13 -450 15 -68 56 -201 116 -375 28
-80 56 -175 62 -212 16 -93 7 -283 -19 -397 -19 -85 -38 -149 -126 -416 -15
-44 -33 -100 -41 -125 -8 -25 -20 -91 -25 -148 -10 -95 -9 -111 11 -185 45
-164 117 -226 251 -214 73 7 111 30 161 97 48 65 54 126 44 445 -1 33 2 76 6
95 5 19 13 60 19 90 6 30 14 60 19 65 4 6 20 46 34 90 15 44 31 90 36 103 45
104 77 202 95 286 23 106 15 335 -16 451 -12 44 -25 100 -29 126 -13 72 -30
132 -46 157 -8 12 -14 28 -13 35 1 6 0 19 -3 27 -22 60 -75 332 -88 455 -5 50
-12 106 -15 125 -3 19 -5 121 -5 225 1 430 49 742 130 834 46 53 118 61 158
18 54 -60 56 -71 63 -392 4 -165 11 -313 15 -330 10 -43 31 -72 71 -96 41 -26
97 -22 141 9 39 28 97 126 113 192 18 72 16 244 -4 350 -13 73 -30 180 -29
187 1 2 -4 17 -9 35 -6 18 -14 53 -18 78 -5 25 -19 92 -32 150 -34 155 -33
461 5 763 7 56 60 219 74 224 7 3 23 1 35 -5 12 -5 61 -29 109 -51 48 -23 107
-48 130 -57 75 -26 89 -40 83 -82 -12 -96 -45 -643 -52 -892 -9 -263 -6 -1064
3 -1130 8 -62 14 -169 18 -340 18 -670 21 -883 21 -1285 0 -424 -6 -657 -24
-955 -3 -63 -5 -198 -4 -300 2 -184 4 -750 2 -781 0 -14 -7 -15 -42 -8 -65 13
-123 38 -307 133 -82 42 -120 58 -143 63 -10 2 -132 59 -270 127 -519 255
-939 454 -996 471 -14 4 -59 25 -100 46 -42 21 -80 39 -84 39 -5 0 -21 8 -35
19 -15 10 -45 24 -67 31 -22 7 -150 66 -285 133 -402 197 -520 254 -620 301
-52 24 -125 58 -162 75 -37 17 -71 31 -77 31 -5 0 -14 6 -18 14 -4 7 -22 21
-40 30 -26 13 -33 23 -37 58 -6 53 -17 280 -21 458 -2 74 -6 187 -9 250 -4 63
-9 194 -12 290 -2 96 -9 204 -14 240 -13 98 -12 390 1 390 8 0 8 4 0 14 -13
15 -17 222 -14 571 1 94 2 179 2 190 0 11 3 139 5 285 3 146 8 479 11 740 3
261 6 518 8 571 2 53 -1 136 -5 185 -4 49 -10 114 -12 145 -2 31 -6 60 -8 65
-11 18 -18 197 -23 561 l-5 371 58 -19 c31 -11 66 -23 77 -28z m8210 -2188
c-9 -43 -18 -89 -21 -101 -3 -14 -1 -21 5 -18 19 12 22 -14 5 -43 -41 -69 -41
-6 -2 162 25 108 36 108 13 0z m-5411 -472 c17 -19 35 -106 31 -151 -1 -23 -5
-24 -61 -26 -85 -1 -87 0 -79 59 16 117 64 168 109 118z m24 -238 c-31 -30
-70 -33 -117 -8 -51 26 -37 35 56 35 l88 0 -27 -27z m5479 -295 c-3 -7 -5 -2
-5 12 0 14 2 19 5 13 2 -7 2 -19 0 -25z m-7828 -249 c19 -26 33 -64 44 -121
22 -116 31 -198 21 -198 -5 -1 -28 -5 -52 -9 -53 -10 -116 3 -158 34 -29 22
-30 26 -33 112 -3 103 12 173 42 201 45 41 98 34 136 -19z m7758 -476 c-2 -16
-4 -5 -4 22 0 28 2 40 4 28 2 -13 2 -35 0 -50z m96 32 c-7 -21 -13 -19 -13 6
0 11 4 18 10 14 5 -3 7 -12 3 -20z m-16 -87 c-3 -7 -5 -2 -5 12 0 14 2 19 5
13 2 -7 2 -19 0 -25z m-143 -101 c-3 -50 -3 -51 9 -20 17 43 32 55 22 18 -4
-16 -11 -70 -16 -120 -7 -83 -13 -115 -25 -155 -16 -50 -27 110 -11 168 3 13
1 34 -5 47 -8 18 -8 28 2 40 7 8 9 22 6 32 -4 9 -3 37 0 62 l8 46 7 -33 c3
-18 5 -56 3 -85z m-19 -307 c-3 -5 -10 -10 -16 -10 -5 0 -9 5 -9 10 0 6 7 10
16 10 8 0 12 -4 9 -10z m-6955 -60 c12 -12 20 -33 20 -54 0 -41 -43 -183 -64
-211 -14 -19 -15 -19 -33 -2 -11 9 -26 17 -34 17 -8 1 -27 11 -43 24 -27 22
-28 28 -24 79 7 84 73 157 151 166 4 1 16 -8 27 -19z m6948 -46 c-4 -3 -12 5
-18 18 -12 22 -12 22 6 6 10 -10 15 -20 12 -24z m102 -271 c-11 -17 -11 -17
-6 0 3 10 7 28 7 40 2 22 2 22 6 0 2 -12 -1 -30 -7 -40z m-7161 26 c37 -22 37
-35 -1 -20 -25 9 -57 41 -42 41 5 0 24 -9 43 -21z m981 -802 c14 -12 31 -29
38 -38 13 -17 52 -162 52 -195 0 -29 -69 -65 -138 -71 -52 -5 -61 -3 -91 22
l-32 28 6 76 c10 119 21 147 63 176 45 31 69 31 102 2z m6150 -1221 c0 -2 -7
-9 -15 -16 -13 -11 -14 -10 -9 4 5 14 24 23 24 12z m-9195 -876 c3 -5 2 -10
-4 -10 -5 0 -13 5 -16 10 -3 6 -2 10 4 10 5 0 13 -4 16 -10z m849 -40 c14 -5
26 -15 26 -21 0 -8 -4 -8 -14 0 -8 7 -17 8 -20 3 -6 -10 -56 -4 -56 7 0 22 25
26 64 11z m-1017 -56 c-3 -3 -12 -4 -19 -1 -8 3 -5 6 6 6 11 1 17 -2 13 -5z"/>
<path d="M5580 10692 c-40 -61 -149 -169 -213 -208 -111 -70 -195 -129 -230
-163 -100 -96 -121 -229 -47 -296 17 -16 36 -20 84 -19 79 1 128 27 184 99 37
47 80 140 70 151 -3 2 -20 -18 -40 -44 -50 -65 -140 -149 -172 -162 -32 -12
-86 -13 -102 -2 -18 12 -25 44 -18 89 9 58 66 121 180 198 130 87 249 210 302
313 51 97 52 122 2 44z"/>
<path d="M5691 10324 c0 -11 3 -14 6 -6 3 7 2 16 -1 19 -3 4 -6 -2 -5 -13z"/>
<path d="M5839 10238 c-1 -49 -2 -91 -3 -95 -33 -152 -85 -276 -151 -360 -37
-49 -134 -137 -197 -181 -86 -59 -175 -63 -180 -8 -5 72 22 112 151 219 91 76
119 105 163 169 54 79 93 225 78 291 l-7 32 -7 -40 c-27 -158 -90 -272 -209
-375 -127 -109 -195 -184 -202 -222 -10 -51 0 -85 35 -119 21 -21 38 -29 64
-29 32 0 83 16 96 30 3 3 15 10 27 15 24 11 136 109 211 185 76 77 182 329
157 371 -4 5 -7 47 -6 92 0 45 -4 89 -9 97 -7 10 -10 -12 -11 -72z"/>
<path d="M4715 9653 c-3 -16 -10 -42 -16 -59 -18 -60 -21 -147 -6 -190 9 -23
12 -47 7 -54 -5 -7 -6 -19 -3 -26 7 -19 -28 -71 -82 -124 -58 -56 -73 -84 -81
-152 -6 -52 -5 -57 27 -92 32 -37 35 -38 85 -34 84 7 181 82 232 180 36 67 46
127 31 181 -25 95 -52 183 -59 190 -9 10 6 -79 16 -94 6 -11 16 -107 15 -151
0 -41 -44 -119 -101 -182 -72 -78 -132 -104 -182 -79 -28 13 -30 18 -30 48 0
8 0 24 1 35 0 11 33 53 72 92 109 112 131 174 94 266 -15 36 -17 60 -11 143 4
55 9 106 13 114 3 8 0 15 -6 15 -6 0 -13 -12 -16 -27z"/>
<path d="M5264 9256 c-9 -23 3 -188 15 -216 9 -19 10 -1 6 80 -3 58 -5 115 -5
128 0 25 -8 29 -16 8z"/>
<path d="M5375 9140 c8 -42 58 -143 94 -187 81 -99 120 -177 116 -233 -3 -51
-104 -89 -147 -56 -32 24 -84 123 -97 182 -34 159 -50 174 -32 30 16 -130 99
-269 169 -282 66 -12 132 44 148 125 8 41 -19 135 -44 153 -52 38 -182 217
-182 250 0 8 -7 23 -15 34 -15 18 -16 17 -10 -16z"/>
<path d="M5100 8889 c0 -28 -37 -113 -76 -176 -69 -108 -223 -231 -384 -304
-102 -46 -117 -56 -157 -97 -32 -33 -43 -52 -43 -75 0 -37 32 -95 58 -104 9
-3 30 -15 46 -27 42 -28 115 -25 201 9 39 16 84 38 100 49 118 81 275 290 275
366 0 15 5 41 11 59 6 18 9 34 6 37 -2 3 -19 -31 -36 -75 -18 -43 -47 -99 -64
-123 -48 -67 -155 -174 -212 -214 -63 -43 -210 -96 -245 -89 -39 9 -90 38 -90
52 0 7 -5 13 -11 13 -16 0 0 42 30 74 14 16 77 53 140 83 62 30 143 73 180 95
80 48 199 170 230 235 12 27 27 56 32 67 12 21 25 166 15 166 -3 0 -6 -9 -6
-21z"/>
<path d="M3765 8099 c-16 -6 -105 -23 -197 -39 -92 -16 -176 -34 -187 -39 -11
-6 -27 -11 -37 -11 -25 0 -111 -58 -135 -91 -67 -95 -3 -211 124 -223 72 -7
138 16 258 91 159 99 221 59 144 -93 -30 -59 -31 -87 -5 -129 23 -37 36 -45
100 -55 49 -8 94 3 126 31 11 11 25 19 30 19 12 0 74 80 74 96 0 6 7 17 15 24
8 7 15 19 15 27 0 24 62 147 85 169 12 11 28 31 35 44 l12 23 -32 -23 c-43
-31 -100 -105 -150 -194 -46 -84 -87 -125 -156 -155 -59 -26 -94 -27 -122 -1
-28 26 -28 43 3 118 25 61 32 117 17 138 -10 16 -42 30 -84 38 -32 6 -51 -1
-145 -50 -146 -76 -243 -88 -307 -35 -33 27 -16 85 37 130 86 73 177 111 299
127 66 8 238 56 238 65 0 11 -16 10 -55 -2z"/>
<path d="M5263 7984 c-69 -105 -141 -172 -293 -275 -163 -110 -234 -182 -293
-297 -58 -111 -84 -225 -96 -419 -9 -160 -24 -201 -77 -216 -25 -7 -38 -5 -65
13 -49 32 -68 62 -90 140 -37 133 -18 301 51 460 23 52 50 106 61 121 10 15
19 30 19 34 0 3 19 34 42 68 42 62 102 176 96 183 -2 2 -19 -23 -38 -54 -18
-31 -46 -71 -61 -89 -15 -18 -40 -54 -55 -80 -15 -26 -40 -68 -55 -92 -16 -24
-38 -69 -49 -100 -11 -31 -25 -65 -29 -76 -15 -33 -20 -65 -27 -176 -9 -156
25 -269 106 -351 40 -41 120 -43 146 -4 20 31 43 128 44 183 0 41 6 77 37 223
38 181 163 341 367 474 103 66 231 201 279 294 21 41 37 83 35 95 -2 16 -15 3
-55 -59z"/>
<path d="M3765 6990 c2 -30 14 -84 26 -120 26 -78 22 -168 -12 -270 -22 -70
-26 -167 -8 -230 12 -44 80 -100 120 -100 47 0 93 24 127 68 44 55 62 111 69
210 4 74 2 93 -22 160 -33 94 -87 210 -92 197 -2 -6 8 -49 23 -95 46 -153 51
-229 18 -343 -20 -71 -86 -157 -120 -157 -27 0 -53 20 -70 52 -20 38 -15 97
16 189 15 42 23 92 24 144 1 75 -2 85 -41 167 -24 48 -43 98 -44 110 -1 13 -5
34 -10 48 -6 18 -8 10 -4 -30z"/>
<path d="M2737 6365 c-61 -33 -53 -48 16 -28 49 15 161 18 200 7 9 -3 17 -1
17 5 0 13 -60 30 -130 36 -46 5 -63 1 -103 -20z"/>
<path d="M2795 6250 c-15 -6 -5 -9 35 -10 30 -1 67 -4 83 -6 38 -6 34 12 -4
20 -42 8 -89 7 -114 -4z"/>
<path d="M2725 6159 c-11 -16 25 -37 84 -50 43 -9 64 -8 104 3 28 8 53 20 55
28 4 10 -11 11 -76 6 -62 -6 -88 -4 -117 8 -44 19 -42 19 -50 5z"/>
<path d="M4877 6114 c-16 -17 11 -24 86 -23 82 1 82 1 42 14 -43 14 -117 19
-128 9z"/>
<path d="M4886 6051 c-15 -24 109 -50 146 -30 31 17 20 24 -39 25 -32 0 -68 4
-79 8 -13 5 -24 3 -28 -3z"/>
<path d="M3430 5423 c0 -5 33 -14 73 -20 54 -8 89 -21 142 -51 38 -23 71 -40
72 -38 8 8 -10 33 -35 49 -15 9 -41 26 -59 38 -23 15 -55 22 -113 26 -44 3
-80 1 -80 -4z"/>
<path d="M3416 5348 c6 -17 118 -65 168 -73 59 -10 41 16 -22 32 -29 7 -67 22
-85 33 -36 23 -69 26 -61 8z"/>
<path d="M3363 5294 c-20 -52 195 -121 283 -91 64 23 50 33 -43 33 -103 0
-160 14 -197 49 -32 30 -35 30 -43 9z"/>
<path d="M4184 4916 c-49 -27 -70 -56 -40 -56 7 0 34 9 59 20 34 15 63 20 106
18 64 -3 87 12 35 23 -48 11 -138 8 -160 -5z"/>
<path d="M4245 4823 c-16 -2 -41 -6 -55 -9 -23 -6 -23 -7 -5 -14 11 -4 35 -3
55 1 19 5 50 9 68 9 18 0 31 4 28 8 -5 9 -45 11 -91 5z"/>
<path d="M4350 4735 c-52 -29 -134 -34 -166 -10 -24 18 -34 19 -34 2 0 -19 43
-40 87 -42 56 -2 104 14 141 46 40 35 32 36 -28 4z"/>
<path d="M3395 4610 c-18 -8 -18 -9 5 -10 14 0 54 -2 89 -4 55 -2 61 -1 45 11
-20 14 -108 16 -139 3z"/>
<path d="M3405 4505 c33 -15 155 -21 140 -6 -6 5 -46 11 -90 14 -74 6 -78 5
-50 -8z"/>
<path d="M4200 3421 c0 -19 37 -31 94 -31 74 0 72 17 -1 22 -32 2 -66 8 -75
12 -11 5 -18 4 -18 -3z"/>
<path d="M2460 6580 c0 -5 5 -10 10 -10 6 0 10 5 10 10 0 6 -4 10 -10 10 -5 0
-10 -4 -10 -10z"/>
<path d="M4832 4500 c-44 -351 -34 -503 42 -603 24 -32 45 -47 87 -61 52 -18
56 -18 90 -2 37 17 79 81 81 121 1 57 -47 225 -82 285 -26 44 -70 138 -70 149
0 7 -6 25 -14 39 -7 15 -23 48 -35 74 -20 43 -41 70 -41 52 0 -11 72 -237 81
-254 4 -8 27 -66 50 -128 51 -138 57 -226 21 -265 -12 -13 -22 -29 -22 -35 0
-15 -4 -15 -43 2 -41 17 -70 50 -92 106 -14 37 -18 87 -22 280 -3 129 -8 260
-12 290 l-6 55 -13 -105z"/>
<path d="M4881 4584 c0 -11 3 -14 6 -6 3 7 2 16 -1 19 -3 4 -6 -2 -5 -13z"/>
<path d="M3777 3851 c-4 -17 -3 -21 5 -13 5 5 8 16 6 23 -3 8 -7 3 -11 -10z"/>
<path d="M3826 3641 c3 -96 8 -184 10 -195 5 -28 -14 -184 -28 -219 -25 -65
-84 -74 -125 -20 -40 52 -37 121 10 283 20 69 39 140 42 159 3 18 12 49 20 68
17 40 19 53 7 53 -5 0 -15 -19 -21 -42 -7 -24 -17 -47 -21 -53 -17 -21 -93
-213 -109 -275 -20 -75 -17 -129 9 -180 23 -44 56 -74 98 -88 38 -13 68 -4 99
29 30 33 39 60 54 167 17 120 -1 308 -42 457 -5 17 -6 -44 -3 -144z"/>
<path d="M6365 13920 c-8 -13 3 -30 20 -30 23 0 25 15 5 28 -12 7 -21 8 -25 2z"/>
<path d="M6470 13915 c-10 -12 -9 -15 8 -15 29 0 53 11 46 21 -8 14 -40 11
-54 -6z"/>
<path d="M392 9522 c-2 -38 3 -69 13 -88 l15 -29 0 56 c0 62 -9 119 -19 119
-3 0 -7 -26 -9 -58z"/>
<path d="M10770 9533 c0 -28 3 -34 10 -23 13 20 13 47 0 55 -6 4 -10 -9 -10
-32z"/>
<path d="M10792 7943 c0 -10 -4 -31 -9 -48 -11 -34 -2 -88 11 -67 12 21 19
132 7 132 -5 0 -10 -8 -9 -17z"/>
<path d="M10501 7134 c0 -11 3 -14 6 -6 3 7 2 16 -1 19 -3 4 -6 -2 -5 -13z"/>
<path d="M10622 7070 c0 -14 2 -19 5 -12 2 6 2 18 0 25 -3 6 -5 1 -5 -13z"/>
<path d="M10482 6931 c-14 -45 -16 -101 -3 -101 9 0 26 128 18 136 -2 2 -9
-13 -15 -35z"/>
<path d="M10611 6928 c0 -9 -4 -25 -7 -35 -5 -17 -5 -17 6 0 6 10 9 25 7 35
-4 15 -5 15 -6 0z"/>
<path d="M10541 6364 c0 -11 3 -14 6 -6 3 7 2 16 -1 19 -3 4 -6 -2 -5 -13z"/>
<path d="M10505 6174 c-4 -25 -2 -39 6 -44 6 -4 8 -13 5 -19 -4 -6 -12 -9 -17
-6 -5 4 -9 -5 -9 -18 0 -14 -2 -40 -5 -58 l-5 -34 11 30 c17 47 32 75 40 75 4
0 4 -12 -1 -27 -5 -16 -11 -53 -14 -84 -3 -30 -8 -64 -12 -75 -4 -10 -4 -16
-1 -13 14 12 55 149 50 167 -2 11 0 23 6 26 14 9 14 53 1 61 -5 3 -18 1 -29
-5 -18 -9 -19 -7 -14 25 7 47 -3 45 -12 -1z"/>
<path d="M10476 5955 c-3 -9 -6 -22 -5 -28 0 -7 5 -1 10 12 5 13 8 26 5 28 -2
2 -6 -3 -10 -12z"/>
<path d="M10460 5896 c0 -8 -3 -21 -6 -30 -3 -9 -2 -16 3 -16 5 0 10 14 11 30
1 17 0 30 -3 30 -3 0 -5 -6 -5 -14z"/>
<path d="M10486 5863 c-6 -14 -5 -15 5 -6 7 7 10 15 7 18 -3 3 -9 -2 -12 -12z"/>
<path d="M10451 5754 c0 -11 3 -14 6 -6 3 7 2 16 -1 19 -3 4 -6 -2 -5 -13z"/>
<path d="M386 4664 c-3 -9 -6 -25 -6 -36 0 -30 25 -16 26 16 1 31 -11 43 -20
20z"/>
<path d="M366 4504 c-4 -42 -5 -78 -2 -81 2 -2 7 30 11 72 4 42 5 78 3 81 -3
2 -8 -30 -12 -72z"/>
<path d="M341 4204 c0 -11 3 -14 6 -6 3 7 2 16 -1 19 -3 4 -6 -2 -5 -13z"/>
<path d="M342 4140 c0 -14 2 -19 5 -12 2 6 2 18 0 25 -3 6 -5 1 -5 -13z"/>
<path d="M342 4035 c0 -16 2 -22 5 -12 2 9 2 23 0 30 -3 6 -5 -1 -5 -18z"/>
<path d="M342 3950 c0 -14 2 -19 5 -12 2 6 2 18 0 25 -3 6 -5 1 -5 -13z"/>
<path d="M10523 3440 c0 -30 2 -43 4 -27 2 15 2 39 0 55 -2 15 -4 2 -4 -28z"/>
<path d="M362 3450 c0 -14 2 -19 5 -12 2 6 2 18 0 25 -3 6 -5 1 -5 -13z"/>
<path d="M10135 1020 c3 -5 8 -10 11 -10 2 0 4 5 4 10 0 6 -5 10 -11 10 -5 0
-7 -4 -4 -10z"/>
<path d="M2830 615 c88 -18 285 -35 460 -40 l145 -4 -70 14 c-76 16 -275 32
-475 39 -125 5 -125 5 -60 -9z"/>
<path d="M9127 584 c-2 -2 -61 -6 -131 -10 -119 -5 -130 -7 -174 -35 -40 -26
-43 -29 -21 -30 30 -2 17 -2 339 7 255 6 268 6 345 -16 44 -12 84 -26 90 -31
15 -15 28 -10 15 6 -15 18 -7 19 23 4 21 -11 21 -10 -2 15 -27 29 -62 49 -131
74 -33 12 -86 16 -197 18 -84 1 -154 0 -156 -2z"/>
</g>
</svg>
