<?xml version="1.0" encoding="UTF-8"?>
<svg width="423px" height="182px" viewBox="0 0 423 182" version="1.1" xmlns="http://www.w3.org/2000/svg" xmlns:xlink="http://www.w3.org/1999/xlink">
    <title>Contact-button</title>
    <defs>
        <filter id="filter-1">
            <feColorMatrix in="SourceGraphic" type="matrix" values="0 0 0 0 1.000000 0 0 0 0 1.000000 0 0 0 0 1.000000 0 0 0 1.000000 0"></feColorMatrix>
        </filter>
    </defs>
    <g id="Home-pages" stroke="none" stroke-width="1" fill="none" fill-rule="evenodd">
        <g id="main-page" transform="translate(-155.000000, -1769.000000)">
            <g id="Contact-button" transform="translate(157.000000, 1770.000000)">
                <g id="Contact-button-bg" stroke-linecap="round" stroke-linejoin="round">
                    <path d="M45.828032,15.8443075 C176.127746,12.7718166 243.349325,-20.5485144 339.442795,41.2865784 C356.561954,52.3025688 363.582769,101.097953 363.276261,118.178647 C363.250232,119.62917 363.076419,121.274966 362.134709,122.37854 C355.291877,130.39754 344.057408,130.509664 334.36077,131.26522 C301.590623,133.818648 282.205201,127.905475 249.936829,122.593015 C230.617938,119.412475 211.254194,116.130003 191.721746,114.781348 C120.678475,109.87603 106.588219,135.316722 98.1691942,73.9251355 C97.7389319,70.7876599 97.399723,67.5335495 98.0094374,64.4259575 C99.2259966,58.2253986 114.628802,52.4868181 115.416674,52.2708106 C135.234605,46.8374134 155.403448,42.4701725 175.757353,39.6433796 C196.127175,36.8143759 216.831808,37.3054276 237.303291,35.3429417 C259.084554,33.2548944 281.114999,25.5455576 302.251218,35.7865477 C305.339201,37.2827472 321.709626,45.8320637 325.483276,51.1906201 C336.392642,66.6818435 343.466461,96.1754138 338.397487,114.97374 C335.56512,125.477596 297.523601,124.92265 297.304229,124.926246 C270.691356,125.362471 244.019895,125.8803 217.458468,124.169771 C184.776089,122.065058 152.412515,116.381206 119.789907,113.494499 C99.6484666,111.712226 79.3647317,111.921318 59.2207811,110.16765 C57.0192365,109.97599 54.7518723,109.123353 53.073027,107.686338 C51.5532522,106.385481 50.3666835,104.420275 50.1793283,102.428581 C49.1370212,91.3482573 46.6853054,79.8324037 49.4384867,69.0490846 C50.7475533,63.9218947 57.0654416,61.6541453 61.3741268,58.582181 C105.009944,27.4711415 114.748012,36.1036121 169.662851,30.6159971 C182.293397,29.3538323 194.472353,24.9166866 207.104518,23.670827 C243.533094,20.0780232 287.046068,21.7680888 321.655855,33.5763344 C329.763908,36.3426585 344.38969,45.9561997 350.448719,51.7812806 C357.088734,58.1649139 363.711354,64.7534214 368.841367,72.4034887 C396.84466,114.163043 331.353254,133.657844 301.823148,137.693696 C287.291453,139.67973 272.724576,141.6316 258.080663,142.450345 C239.026633,143.515661 209.848621,145.77561 188.182669,140.680415 C171.139795,136.672432 154.421728,131.351069 137.362861,127.41171 C75.8957797,113.217279 82.5371721,120.975488 39.5638557,101.083595 C37.3790882,100.072289 35.4017319,98.5690135 33.7026868,96.8633774 C30.8235791,93.9731011 27.1340747,91.3039276 25.937041,87.4039188 C24.3775726,82.3230758 23.9537579,76.4030532 25.9054804,71.4596045 C34.2372528,50.3563551 69.694647,33.6264515 89.5216127,30.2112799 C102.807318,27.9228326 116.483479,28.7170609 129.812813,26.6981938 C181.127663,18.9260232 228.077425,6.11922322 280.046978,19.3216803 C326.421223,31.1026932 335.066417,61.4200831 329.506314,105.684884 C328.535058,113.417196 323.766429,121.704845 317.499931,126.541109 C291.997573,146.222934 207.397909,142.856794 177.175817,137.466617 C147.426023,132.160676 55.1892919,124.699539 14.0354041,97.4220865 C10.971161,95.3910573 8.20589715,92.8824224 5.73401122,90.1613113 C4.03487982,88.2908668 2.56740519,86.1309867 1.6422831,83.7794426 C0.676735058,81.3251409 0.296625768,78.64045 0.165290016,76.006322 C0.0564164229,73.8227049 -0.404567846,71.2238661 0.929924137,69.4920555 C3.50988504,66.1439622 24.0076258,39.8585067 36.8293275,32.2299315 C48.1996986,25.46486 61.9136978,23.6411592 74.5497141,21.1552682 C129.857731,10.2744891 182.862076,7.49819175 239.705505,8.22796341 C265.246351,8.55586384 308.483515,17.4881089 321.700899,43.2946773 C322.451346,44.7599025 322.558538,46.4789103 322.829261,48.1027216 C324.735928,59.5389829 326.076849,71.0708165 328.231093,82.4630369 C329.062166,86.8579766 335.274016,104.596057 333.392068,112.493259 C329.072717,130.618511 298.637284,138.103627 283.351257,138.576902 C242.3921,139.845051 223.78377,130.349072 181.532048,118.240595 C152.952889,110.050395 122.759975,110.776815 93.5157279,107.857723 C83.5059897,106.858574 51.4298779,97.7999177 46.9986535,89.1249929 C44.3611739,83.9616485 46.0530774,77.5197984 46.4920242,71.7384705 C49.6016114,30.7823885 107.810878,22.4675772 135.119719,15.2560409 C193.224335,-0.087837698 258.776372,-4.37225739 309.214269,32.9931977 C326.743223,45.979015 348.992891,62.5290363 351.448494,86.3098534 C351.861227,90.3068852 351.84038,94.3668263 351.435889,98.3647005 C349.973034,112.823167 338.298292,125.041708 330.434662,135.645976 C301.370706,174.839321 213.311923,134.979639 187.443342,128.432297 C161.853587,121.955526 135.728596,117.759767 110.083338,111.506382 C93.9960706,107.583635 35.6275815,101.059026 43.0824136,68.6684042 C47.363238,50.0685803 72.7236055,38.8935414 87.7819736,34.509275 C110.666366,27.84645 133.930902,22.5316874 157.186871,17.3116761 C213.654284,4.6370579 285.57965,-1.13694894 322.761157,53.8125858 C333.145725,69.1596561 346.824315,91.945569 341.758145,112.382455 C334.814434,140.393325 310.274074,144.248273 285.704811,145.041239 C217.250158,147.250592 211.468007,136.434214 139.801277,109.843495 C75.7323521,86.0718111 91.407621,96.8616812 50.4198428,76.5298552 C49.4788023,76.0630557 48.4588839,75.4953534 47.9445896,74.5794055 C47.4216441,73.6480498 46.721642,72.0872667 47.5398724,71.4006851 C63.4235289,58.0726234 84.8230982,39.9468722 107.293212,36.4315841 C135.948914,31.9486051 164.607774,27.1233976 193.509215,24.6834994 C226.222211,21.9218246 269.15774,20.2460692 295.510068,45.2553866 C309.822504,58.8384088 309.780144,110.88302 283.787632,120.056742 C234.185606,137.563137 167.001602,115.325686 120.003258,109.227772 C102.142491,106.910383 84.0280765,107.15525 66.1179753,105.256423 C62.2207909,104.843244 58.3667688,103.784775 54.7365496,102.308202 C52.9057981,101.563552 50.3618607,100.657481 50.0238219,98.7102051 C43.6615722,62.0604105 95.1960822,37.9551405 120.988034,31.8969827 C181.14641,17.7666471 236.853479,18.7012389 293.905758,41.3918126 C303.234834,45.1021304 311.35583,51.3320962 319.925987,56.5618683 C323.858183,58.9614147 327.8506,63.3671401 329.210739,67.6800617 C338.616387,97.5048244 298.631263,114.399781 274.982932,119.570925 C257.999595,123.284645 240.687728,125.66153 223.347973,126.909868 C204.890663,128.238663 186.271811,128.861322 167.834002,127.284882 C160.444783,126.6531 83.864096,116.074247 71.8525113,101.549772 C65.3629816,93.7025969 80.9317789,75.7118922 81.8132253,73.9875237 C94.8045283,48.5727134 97.1020132,36.7945154 124.372435,25.4980148 C182.31684,1.49512202 251.030477,-5.75586554 311.998435,8.99411205 C328.7268,13.0412053 349.447527,18.3865541 359.897918,33.3486688 C361.363394,35.4468314 362.347389,37.8616007 363.247046,40.2575394 C365.530128,46.3377695 368.498868,52.3070357 369.430171,58.7346584 C370.53272,66.3441725 370.173416,74.1657202 369.266311,81.8009989 C367.751162,94.5542897 351.880544,109.701243 346.079591,116.163073 C304.142886,162.877441 205.204662,152.379361 153.350168,129.420737 C135.42742,121.485424 118.570057,111.294969 100.734976,103.164537 C81.5022727,94.3969748 56.9268368,94.38105 55.0350554,70.3205923 C54.3656242,61.8064903 54.380423,61.0515498 59.7642473,53.9117132 C67.4316664,43.7434541 75.154773,33.5849757 83.6091457,24.0609853 C105.215518,-0.278949236 138.625986,2.76799048 168.966858,1.52873083 C184.587169,0.890726096 200.251055,0.78863162 215.866861,1.52873083 C228.224749,2.11442356 240.713547,2.72089429 252.769019,5.50047037 C273.949566,10.3839742 294.711728,17.0852609 315.171292,24.4249084 C319.82701,26.0950965 353.244691,38.7543841 355.098668,51.1201708 C358.830186,76.0089216 347.592697,86.2657041 333.00318,109.488952 C317.605975,133.997857 286.998918,139.496401 260.151346,141.922415 C248.003376,143.020135 226.963374,144.70214 213.845913,139.577752 C195.081823,132.247485 177.28779,122.623109 158.727474,114.791216 C150.088222,111.145713 141.489491,107.005266 132.294809,105.16565 C106.385851,99.9819413 63.9206054,103.553777 39.0599623,83.7309782 C36.247238,81.4882339 33.272746,78.9268347 32.0127824,75.557293 C30.6123298,71.8120396 29.7674875,67.1648596 31.5218844,63.5717716 C39.3506369,47.5381156 61.9910137,21.6598946 80.6538404,17.2941859 C138.788733,3.69495925 207.337664,11.0937886 264.455106,21.4355021 C287.750092,25.6533043 402.314683,36.817989 385.196555,96.2763323 C381.726508,108.329238 369.57105,122.176936 360.247527,129.499785 C318.304965,162.442163 261.746969,153.58659 213.54086,142.632477 C162.979937,131.143268 181.958432,132.411177 150.05483,119.184186 C122.218295,107.643371 82.0971595,97.248002 56.7877388,77.3027947 C50.7552498,72.5488636 42.092331,61.4754277 45.7634941,52.4869464 C47.3369081,48.6345973 59.9235149,43.4792638 61.2725078,43.0587062 C72.183903,39.6570057 101.155437,31.9264045 116.009973,30.2232006 C159.78166,25.2043893 244.821018,20.4090447 284.157955,40.2024795 C296.098749,46.2108101 304.949752,76.6887273 307.645722,82.2823212 C314.29258,96.0732165 315.522174,86.1884375 313.130509,106.396314 C310.108569,131.929579 270.433124,133.196831 252.660462,128.775456 C200.027521,115.681755 147.554374,101.802942 95.6870524,85.9456861 C91.7381476,84.7383981 88.22394,81.5383568 86.2643329,77.9036171 C84.6186547,74.8511623 85.1914287,70.9355675 85.7493493,67.5129278 C88.6568509,49.6764647 144.290424,39.5184286 151.019673,38.2971232 C193.175975,30.6460885 218.979046,29.8794855 262.392875,31.7381053 C274.460233,32.2547294 298.373418,37.9084076 305.823615,46.0515812 C319.166219,60.6352423 319.215442,88.7216584 320.044901,107.488523 C320.131456,109.446882 320.440277,111.621669 319.505147,113.344514 C312.680163,125.918582 281.872982,124.44215 274.944825,124.69731 C220.163566,126.714875 203.262228,122.049696 147.880134,102.97493 C145.626845,102.198849 73.3418729,80.186972 82.6864647,62.8005909 C88.1874675,52.5655231 144.590764,39.2762485 153.001048,38.0478636 C157.520829,37.3877157 311.645502,-1.53144175 320.262893,54.6442005 C322.435875,68.8095864 319.999824,75.8300085 312.658372,88.0741156 C284.267544,135.42447 203.365828,107.158975 163.773541,95.8800671 C150.757055,92.1719773 99.4217107,77.0293279 105.495631,55.2457068 C109.117603,42.2557998 143.451099,36.9445363 151.60193,35.5692394 C198.310578,27.6880479 316.488891,11.7241518 317.685972,89.7701758 C318.013923,111.151577 283.920898,118.080655 268.036736,120.856014 C211.998248,130.647337 158.706456,136.831821 111.919075,100.085775 C100.235815,90.9099318 78.1088485,74.685322 76.9353178,59.4236157 C76.6439584,55.6345006 75.9291835,51.1136478 78.2415128,48.0977873 C81.6377962,43.6681774 87.2453126,41.2688041 92.4335344,39.2100332 C125.714379,26.0036517 213.315781,-5.76607906 250.824285,9.83598638 C262.604709,14.7361801 283.887607,36.4081119 288.587176,41.8675166 C293.28556,47.3255457 297.165025,53.6110763 299.904308,60.2714992 C320.517951,110.392497 258.48906,114.410608 222.988594,115.843755 C186.663364,117.310197 181.014607,118.654846 152.802695,108.228241 C121.831215,96.7817505 99.4674297,86.963771 70.6525766,70.3694476 C69.2387201,69.5552151 68.5286566,67.8227257 67.9185858,66.3095243 C67.5793919,65.4681979 67.379607,64.317785 67.9185858,63.5881382 C78.3556914,49.4588233 131.201485,38.9333693 142.124981,36.9851633 C151.210479,35.3647643 160.497273,34.9828348 169.724018,34.7849654 C196.358021,34.2137938 223.032962,33.4418909 249.644332,34.6793891 C280.77076,36.1268493 335.789135,36.1593362 349.924893,73.5411818 C350.9756,76.3197644 351.703428,79.242296 352.076382,82.1893984 C352.468185,85.2854479 353.956655,88.9686628 352.203992,91.5507557 C347.361044,98.6855775 340.0639,103.823731 333.553388,109.478204 C322.232012,119.310981 307.316513,132.830645 292.285912,139.095843 C237.241474,162.03999 188.05733,126.055625 144.936945,96.2858102 C144.257536,95.8167541 145.146081,94.4683525 145.799876,93.9642069 C155.5472,86.4479777 165.605586,79.3300166 175.824284,72.4683685 C200.197907,56.1019773 229.947555,46.6349126 259.364385,54.2059197 C280.463399,59.6361712 297.520699,82.7001597 292.543868,104.652718 C290.050015,115.652979 268.967489,121.613568 260.565395,122.881164 C216.097572,129.589872 186.056676,115.647137 147.522318,94.3688753 C137.446305,88.8050081 120.559391,87.5218453 118.112265,76.2748795 L116.093613,72.8163159 C115.405907,69.6556247 114.327801,66.2471226 115.256234,63.1485871 C118.190672,53.3552416 145.705036,48.6415342 152.057359,47.3776603 C172.879899,43.2347563 224.596286,34.4698472 242.457719,45.4734766 C255.211999,53.3308171 267.540905,61.9215133 279.343267,71.1472238 C280.661483,72.1776519 281.050107,74.1308212 281.244714,75.7926289 C282.588949,87.2714426 255.934649,95.7769105 247.775275,98.5426314 C224.646962,106.382261 197.129812,110.780661 172.897559,106.982431 C154.6445,104.121397 138.61973,88.8192665 125.420723,77.1074224 C123.67445,75.5579057 119.106063,68.3052418 122.436105,66.3807064 C136.084309,58.4929822 151.445054,53.9604879 166.356032,48.8465434 C184.184393,42.7320382 209.134796,35.9172208 229.095993,33.8919396 C253.715934,31.3939781 274.859301,32.3804235 295.76988,46.6458081 C298.822694,48.7284652 301.819273,51.1881615 303.756547,54.3352396 C305.758572,57.5875032 306.81777,61.4575066 307.225175,65.2547875 C307.86377,71.2069045 308.257101,77.3901593 306.854461,83.20979 C298.821883,116.537402 226.29014,124.143826 203.066677,122.08619 C195.958021,121.456352 189.249392,118.212805 182.832869,115.089038 C177.947807,112.710836 114.626442,89.8438862 119.736654,64.3677709 C123.161665,47.2929497 165.547301,40.0634971 176.770514,38.229019 C218.269042,31.4459218 278.976719,17.1648799 273.662471,78.026195 C273.137991,84.0327992 268.957547,91.8283536 265.759005,96.7291231 C239.339754,137.208394 173.568557,93.7485042 148.751908,80.1564321 C143.375944,77.2120181 135.767729,75.4897534 133.582439,69.7630558 L131.2346,66.5353334 C130.788027,65.3650601 130.453654,63.9524441 130.92178,62.7906244 C134.570871,53.7341136 169.328753,50.1270989 171.472402,49.7817313 C210.987631,43.4153536 303.072557,30.2095403 294.842705,96.9656804 C291.686973,122.563282 237.526097,126.663569 220.238187,122.195919 C213.552053,120.468047 207.519178,116.69086 201.640298,113.067504 C173.723695,95.8615437 151.342096,75.4327257 198.06839,68.4689769 C209.215012,66.8077651 220.398224,65.1881991 231.65005,64.5532255 C255.194433,63.224547 279.076521,61.5773196 299.330649,75.1344993 C301.087728,76.3106068 302.352791,78.1543823 303.434787,79.9709286 C304.250929,81.3411381 304.86032,82.9252902 304.920378,84.519014 C305.077351,88.6844991 305.781328,93.1920138 304.076354,96.9958241 C301.744903,102.197311 286.696884,108.511677 283.414769,109.737821 C257.65487,119.361294 226.237406,118.766255 199.537078,116.814705 C187.508095,115.935496 164.808958,104.096096 170.787011,88.7028832 C173.200192,82.4890528 184.459889,76.0975858 188.452693,74.0172277 C208.523389,63.5598537 283.246091,38.5902103 283.400308,79.2734217 C283.441851,90.2327816 266.680115,97.9565664 258.740698,100.889639 C238.661861,108.307401 163.014818,110.031901 174.298436,69.5850271 C175.786074,64.2524907 191.348795,56.1078031 193.367241,55.0943043 C217.224426,43.115179 271.433552,30.428232 285.819719,63.2964721 C286.878375,65.7151943 287.092444,68.4464514 287.292511,71.0791195 C288.366236,85.208247 264.550757,94.9808685 253.171147,96.0709447 C232.211525,98.0787096 185.727024,96.4495046 177.088757,67.7788471 C170.293403,45.2248684 190.549896,38.600758 209.726239,37.2246031 C226.564071,36.0162671 269.703915,31.2745056 279.49892,55.74022 C288.092233,77.2043804 270.997816,90.2497045 252.585616,97.6104725 C217.325506,111.706642 179.402184,109.403225 149.49231,85.9742176 C138.043991,77.0065185 123.034113,63.7318952 124.404386,47.2671496 C124.59405,44.9882191 127.806155,43.5656516 130.088699,43.4260491 C145.731647,42.4693121 161.521046,42.3479833 177.101166,44.0441663 C196.179855,46.1212329 226.624503,58.8629701 241.362091,71.2940828 C249.886246,78.4841832 239.571321,87.9093486 234.117877,90.5150724 C227.80421,93.531822 221.10463,95.7234456 214.38635,97.6799447 C207.763355,99.6086948 201.001216,101.121315 194.179607,102.145904 C185.080106,103.512628 175.896569,104.375228 166.706813,104.841299 C155.443627,105.412527 131.498979,105.377354 119.717894,102.298626 C113.740958,100.736685 108.256669,97.643715 102.75309,94.8376418 C99.9203362,93.3933241 97.2913343,91.5490938 94.7884082,89.5879944 C92.5249328,87.8145101 90.3470007,85.8849905 88.5068395,83.6753809 C87.1577614,82.0554489 86.0423436,80.1938593 85.316638,78.214581 C84.8496006,76.9407904 83.9869019,75.0391969 85.0163734,74.1555371 C93.6800352,66.7189738 114.583073,66.1319799 122.419494,65.846425 C139.749004,65.2149471 183.316902,64.2003417 207.154008,67.8406002 C218.962886,69.6439804 262.640524,83.4441596 242.433096,106.408284 C224.992821,126.227761 183.013277,107.297076 166.417638,95.5719367 C148.806597,83.1293967 126.207665,68.8473596 157.245498,56.658504 C170.4847,51.459342 183.952055,46.7718295 197.645304,42.924403 C214.986097,38.0521167 241.889022,36.6319613 258.294259,38.5626029 C262.704535,39.0816239 266.390503,42.2791257 270.139614,44.6590589 C273.473792,46.7755925 276.743925,49.1107356 279.446742,51.9901858 C281.397297,54.0682121 282.849926,56.6433579 283.882314,59.2998652 C284.924416,61.9813701 285.353705,64.894372 285.576322,67.7626271 C285.773143,70.2985202 286.098389,73.0280313 285.130371,75.3801437 C279.687029,88.6064952 259.609098,90.0648451 248.661071,90.9610235 C222.083709,93.1365804 198.404301,80.8311772 179.478416,62.6989719 C172.593617,56.1028953 162.124125,42.4892535 168.246047,31.890827 C170.188858,28.5273839 175.038366,27.8853476 178.817941,26.9897621 C186.389689,25.1956062 194.18359,24.2517749 201.957174,23.9028407 C246.557202,21.9008716 291.714463,35.9582481 329.28197,60.1012385 C340.086504,67.0448391 352.134607,82.2336738 348.13122,96.2417428 C344.518337,108.883415 328.104055,116.908645 316.993204,120.310691 C266.85815,135.661613 215.424318,125.175776 171.991636,96.4365776 C160.599653,88.8985569 109.619172,62.2733434 118.926341,37.2013968 C123.123122,25.8959746 159.219678,16.0524942 168.219959,14.7257168 C209.467828,8.64515767 249.286025,9.83208456 287.538741,27.226808 C303.751172,34.5991147 330.546065,51.3615093 322.102588,74.1403431 C316.192234,90.0853111 272.454882,104.397635 259.664747,107.655022 C174.626363,129.312571 100.656635,116.140163 40.8687805,49.6855353 C40.1257536,48.8596556 38.8238424,46.5875316 39.9302704,46.4876147 C99.8744214,41.074306 159.943214,37.0434748 220.027279,33.5064714 C235.929672,32.570336 251.925828,31.9349863 267.81508,33.0725876 C272.378518,33.3993099 276.591827,35.8001673 280.682488,37.8491203 C284.038464,39.53008 287.098982,41.7919251 289.993524,44.1814496 C291.948702,45.7955032 293.918872,47.5604924 295.13867,49.7830993 C296.332114,51.9576851 296.756713,54.5165839 297.019305,56.9831963 C299.687632,82.0476435 267.125832,93.9757429 248.671184,100.683568 C212.800308,113.721776 176.140763,119.591978 137.811059,117.239648 C120.396916,116.170926 97.8200311,101.79894 92.1494409,84.5266354 C83.9211116,59.4635978 131.013541,51.294854 143.923002,48.9111301 C188.540665,40.6725069 202.27204,41.6605808 252.615906,42.1648987 C262.088699,42.2597921 271.800423,41.544808 280.984707,43.8668216 C283.349991,44.4648238 309.666539,53.2417298 312.415073,63.6022573 C319.746834,91.2391466 291.771244,109.672532 269.942239,118.807512 C239.543672,131.528673 198.578499,135.740234 167.16615,124.162247 C151.433536,118.363508 127.613138,103.157313 124.668791,84.5210171 C124.159023,81.2944306 123.040722,69.1610968 127.313621,65.9418882 C139.919068,56.444925 162.895408,54.2946398 176.576558,53.7664664 C211.098504,52.4337147 245.784182,49.9739642 280.215138,52.8112478 C300.915924,54.5170964 320.77869,61.8437255 340.819928,67.3009447 C345.09526,68.4651154 349.102444,70.5184675 352.997988,72.6299818 C355.461062,73.96505 358.124329,75.3289554 359.788678,77.5826378 C361.052439,79.2938877 361.471225,81.681162 361.24437,83.7963466 C359.51261,99.943194 309.870182,104.941843 306.09867,105.514477 C253.778752,113.458274 197.044759,112.896266 146.186566,97.2979452 C141.256137,95.7857718 93.879378,79.4826007 99.2582763,68.245122 C102.455457,61.5656417 122.965293,54.113324 123.447604,53.9475729 C170.102417,37.9141902 224.619624,37.303595 272.717903,40.1884092 C281.740213,40.7295447 328.819494,48.1600066 323.861671,69.7803506 C320.083595,86.255989 293.802892,98.3223765 280.291157,103.391323 C239.897936,118.544898 166.46336,125.215058 139.792434,80.8818355 C118.443417,45.394851 144.045334,32.20325 177.925453,27.6010395 C200.642526,24.5151957 263.907359,26.6165551 277.664501,53.404351 C287.442629,72.4442435 240.071905,83.567711 233.235306,85.6912966 C196.603991,97.0697224 148.764842,101.045504 122.337124,67.7506087 C120.187564,65.0424915 118.348657,61.9735104 117.31822,58.6731007 C116.324103,55.4890199 116.093074,52.0312991 116.39207,48.7090646 C117.707888,34.0886284 121.164777,29.245939 137.581733,23.5607072 C170.383131,12.2015026 211.833458,10.4636949 244.872538,21.6373233 C254.872259,25.0191718 292.885339,40.5115044 287.820929,59.9893599 C285.245684,69.8938237 260.445292,77.5723873 258.679336,78.2629966 C228.764928,89.9615709 197.308537,92.5378803 165.488166,93.757549 C157.621314,94.059084 144.828076,94.0837948 142.26202,84.1432191 C141.744455,82.1382369 140.08763,78.6376044 142.035576,77.9352265 C171.92129,67.1592246 202.278954,56.9674735 233.526728,51.235567 C240.048099,50.0393254 284.630365,47.5544759 301.656063,55.2630016 C304.309816,56.4645103 306.67591,58.6487386 308.055813,61.2142597 C308.937214,62.8529641 308.96918,65.3006982 307.857558,66.7928497 C288.1761,93.2116512 207.278323,106.222305 177.474225,98.9373333 C152.534685,92.8413981 121.824052,52.8505219 136.958046,26.6914518 C142.357037,17.3593089 158.14982,15.098481 166.502695,14.4099162 C192.757029,12.2456543 219.092706,38.1382022 226.041903,61.9078094 C228.038134,68.7358843 229.336617,80.2039333 223.458191,86.4478208 C208.659435,102.166614 175.64007,95.5006612 160.142518,85.142554 C155.069747,81.7520633 123.630714,60.0390266 149.021101,55.8048067 C158.577836,54.2110807 168.31851,53.8983491 178.002009,53.5805231 C190.92452,53.1563883 203.867664,53.1639176 216.790421,53.5805231 C232.867924,54.0988318 239.875494,54.0474364 253.252588,60.3247026 C256.382964,61.7936466 259.58258,63.4115339 262.02905,65.8552678 C263.584283,67.408762 264.580259,69.6572009 264.786491,71.8457079 C264.981752,73.9177838 264.691407,76.4631452 263.161662,77.8743528 C239.104748,100.067141 181.656797,96.0707984 154.028572,94.4778226 C138.715563,93.5949119 112.923383,76.5543862 146.899218,70.4138571 C164.069284,67.3106723 181.457936,64.9772359 198.896341,64.3916122 C227.502057,63.4309634 256.223164,63.4613555 284.75057,65.7844765 C297.835971,66.8500823 310.535149,70.9010542 323.157862,74.5108127 C324.975132,75.0305035 326.718961,76.3643654 327.597928,78.037676 C329.49068,81.6409529 319.836207,83.6552068 313.131877,84.296527 C303.834155,85.185925 294.477606,85.3645221 285.139165,85.5439491 C238.032493,86.4490477 199.345939,79.7033786 153.332678,66.976399 C145.39865,64.7818967 126.845147,59.2472154 118.098488,52.2063216 C117.460921,51.6930924 117.329199,50.6192268 117.513153,49.821695 C120.356696,37.4934649 166.685167,30.6940871 169.82251,30.1646719 C191.282263,26.5434175 247.293754,24.0974663 263.555192,25.5479449 C271.501477,26.2567331 279.400902,33.5951401 281.739032,41.0466012 C287.882172,60.6243672 268.125041,84.7555724 251.561023,92.3772894 C219.044071,107.339541 178.863699,71.650677 180.356834,38.5045628 C180.442924,36.5934465 182.532936,34.9884516 184.34621,34.3786848 C189.258019,32.7269445 194.535349,32.2934181 199.708951,31.996843 C213.553323,31.2032184 281.501087,35.2725704 276.995868,62.8455378 C274.820341,76.1602559 233.853519,88.343168 223.129053,89.675592 C170.36791,96.2307162 152.999699,89.8370022 156.249436,34.0656201 C156.251127,34.0366039 171.164981,36.2211033 175.62134,38.3622962 C194.133612,47.2570798 212.109633,57.2317509 230.18786,66.9784998 C232.955011,68.4703894 235.877363,69.8714482 238.130557,72.0637002 C239.340652,73.2410645 241.623591,75.8271557 240.176617,76.6970869 C236.580655,78.8590048 231.856496,77.7902076 227.696436,78.3367681" id="Path-18" stroke="#055D83" stroke-width="3"></path>
                    <path d="M65.1792698,54.1997151 C111.577789,53.9283728 157.97661,53.0663903 204.374826,53.3856883 C219.211929,53.4877925 234.292662,52.5371724 248.83866,55.4636014 C260.711459,57.8522243 278.319658,68.1828533 282.445968,81.1138981 C282.913936,82.5804176 282.952669,84.3012058 282.383776,85.7316022 C278.057276,96.6099352 257.55736,104.205731 249.413051,105.329706 C199.222874,112.25632 200.311403,100.329226 145.838081,92.2912064 C133.069681,90.4071164 119.986878,92.4260983 107.131355,91.2783386 C106.314291,91.2053899 106.218316,89.123963 106.981027,88.8219924 C140.012326,75.7443333 178.237589,66.4526147 213.809467,65.5018975 C225.790661,65.1816803 238.02861,64.2203301 249.744241,66.7492707 C251.431864,67.1135615 258.40674,73.7077112 257.643751,77.9842283 C257.472168,78.9459428 257.055546,80.1796224 256.130653,80.4941199 C251.441229,82.088696 246.49767,82.9654183 241.568358,83.4504511 C214.636739,86.1004594 187.69482,90.4597851 160.639132,89.8902621 C157.887202,89.8323339 159.036478,84.4455487 159.431234,81.7214625 C159.905439,78.449128 161.094484,75.113286 163.155229,72.5274834 C170.112687,63.7973311 193.478774,49.1409071 201.492658,48.7537184 C230.192384,47.3670984 259.810976,48.3909113 287.329054,56.6584552 C293.8678,58.6229589 293.257893,69.4670803 293.158467,76.2938353 C293.034658,84.7948345 274.517001,91.3736313 271.132256,92.4086545 C239.137198,102.192445 206.567534,102.303736 177.615124,84.0299726 C176.188662,83.1296388 156.958902,67.5321061 160.976087,62.3908905 C167.669899,53.8241134 209.553804,59.150479 222.240521,66.1443446 C236.740994,74.1380873 238.135572,80.523558 222.263386,84.7762859 C216.510193,86.3177727 210.583754,87.3779454 204.636593,87.7045742 C183.400071,88.8709223 170.770747,92.806462 154.445748,83.9021671 C151.739324,82.4259776 149.084122,80.7050782 146.960287,78.4705339 C145.549042,76.9857253 143.869813,75.0610569 144.108994,73.0265891 C146.196875,55.2671791 197.361389,62.6081035 212.802657,73.7027462 C215.961295,75.9722467 220.047248,81.9549957 216.993757,86.2831785 C207.501067,99.7386255 177.624785,99.6789046 165.861372,98.7637505 C154.441541,97.8753258 144.376012,78.6578032 165.79957,74.9361469 C173.335667,73.6269915 181.098238,73.9272211 188.737812,74.3061091 C200.63795,74.8963015 212.636673,75.4377625 224.307198,77.8378579 C228.377074,78.6748461 232.013053,81.2210705 235.218343,83.8650371 C237.212481,85.5099536 238.555106,87.9320209 239.473687,90.3483293 C240.179644,92.205333 241.172323,94.7302429 239.94177,96.2899141 C231.315395,107.223452 193.200538,103.663361 186.529553,102.456429 C180.84428,101.427833 170.3496,88.3221956 172.685234,81.9401387 C178.223127,66.8079992 226.427063,70.8301398 232.909051,70.9603035 C235.712213,71.0165933 253.153802,72.2429634 246.373764,83.0166162 C243.669102,87.3143927 237.416476,88.2854905 232.402519,89.0894262 C209.35585,92.784719 191.405938,94.7341878 170.176515,87.2755271 C169.318414,86.9740453 152.094542,76.6792331 153.531177,73.4036542 C155.979168,67.8221459 162.9414,65.0899426 168.764891,63.2919285 C186.858151,57.7055991 229.898152,55.9568214 244.308358,69.0777138 C254.759014,78.5933267 229.899209,87.265885 227.663556,87.6738931 C219.378508,89.18592 185.242368,96.5381392 172.417459,86.3631057 C171.021601,85.2556597 169.863224,83.4487518 169.864086,81.66694 C169.864732,80.3310137 171.119746,78.8823816 172.42122,78.5809468 C178.493867,77.17446 184.801596,76.9241608 191.032936,76.7640186 C201.70885,76.4896532 235.483615,71.6738304 247.376567,85.2692358 C248.307259,86.333154 249.199699,88.2489123 248.368476,89.3922313 C240.135106,100.716963 191.388934,97.3508907 185.168054,79.047124 C184.624005,77.4463636 184.348199,74.5432683 185.961464,74.0375027 C196.691274,70.6736597 208.021911,69.4317962 219.216672,68.372732 C228.051836,67.536894 237.010476,67.4843175 245.840508,68.372732 C247.92369,68.5823268 249.953049,69.9368414 251.232715,71.5939566 C252.23492,72.8917702 252.893132,75.0223411 252.07117,76.4411829 C245.078253,88.5121035 205.013283,85.8923475 200.50412,84.4662503 C179.641127,77.8679845 179.683463,60.2269448 195.444666,52.0334716 C200.78682,49.2563489 206.879181,48.0419987 212.832459,47.1422755 C223.514543,45.5278842 234.34434,45.0126022 245.13665,44.5234855 C247.854732,44.4002997 250.946775,43.879556 253.261285,45.3100068 C254.924639,46.3380201 256.018043,48.9873212 255.305781,50.8083764 C251.894751,59.5294247 237.848333,65.4282536 230.985814,67.8368872 C209.001402,75.5530615 179.378807,82.4516703 155.567318,78.5032669 C131.03518,74.4353659 124.780729,53.2864312 154.563635,44.0720138 C164.918227,40.8684469 175.610266,38.4828879 186.400673,37.4594016 C186.708899,37.4301659 233.29775,28.2609064 243.387191,43.3678625 C256.9071,63.6112692 221.511886,81.388806 210.602508,85.663498 C183.870942,96.1378993 145.300871,101.792883 116.476785,97.1659871 C111.756867,96.408337 96.2721506,86.9598675 93.9889403,81.864413 C86.1050795,64.2699528 155.590404,60.1973825 156.654202,60.1397853 C180.24475,58.8625228 203.926862,58.445703 227.526908,59.5334423 C233.514439,59.809411 265.402722,65.4963435 257.640331,80.9972317 C245.049949,106.139238 176.974686,108.323367 156.502116,94.5146106 C131.578778,77.7038095 145.664973,59.4439607 171.440499,56.4629852 C181.480098,55.3018916 191.702731,54.9885508 201.756769,56.0171318 C213.131802,57.1808574 224.587935,59.1141299 235.341653,63.000409 C246.730325,67.1161536 261.581653,80.1864992 268.087839,90.3925922 C270.387465,93.9999597 272.067086,98.3912006 271.847546,102.663575 C271.072456,117.747314 261.457526,120.389419 247.732429,122.731569 C218.208955,127.769669 183.449118,127.839233 155.774025,115.155775 C144.713658,110.086823 132.324986,100.145997 127.200668,88.4370127 C125.803592,85.2447169 123.245101,79.661224 126.319221,78.0203812 C139.769041,70.8414008 155.146131,67.1831016 170.291618,65.4367734 C184.792005,63.7648276 200.053075,63.6396516 214.011141,67.909193 C236.767404,74.869957 257.990063,86.4661729 278.499243,98.535694 C284.382139,101.997741 291.260915,107.080493 292.086973,113.856322 C295.895225,145.09391 271.770487,143.711587 250.124824,146.721665 C212.310196,151.980223 169.794344,155.745807 134.48333,138.066658 C122.986332,132.310461 110.69248,125.369162 108.462906,111.424892 C102.485494,74.0407785 183.158772,79.3258389 206.410724,81.2751205 C215.603184,82.0457523 224.864941,83.8142495 233.439815,87.2152397 C246.148954,92.2559734 270.68135,108.656524 263.04397,127.252637 C258.843984,137.479104 228.433739,144.149795 225.820735,144.54096 C207.589239,147.270209 173.202072,146.138586 156.687228,135.488369 C145.768257,128.44686 97.1601345,87.8488243 124.887956,64.6086763 C132.787429,57.9877117 143.523557,55.1965282 153.642909,53.237559 C167.001118,50.651591 180.806755,50.7885741 194.408152,51.15051 C226.507209,52.0046721 242.712693,51.8309887 268.247644,68.8481916 C276.252964,74.1831595 283.700202,80.654649 289.635415,88.2256647 C293.486728,93.138438 295.909578,99.3096511 296.952471,105.464351 C297.881597,110.947647 298.916018,117.788559 295.37083,122.073586 C284.19969,135.576013 252.21801,137.072201 239.17054,137.690472 C207.483988,139.191978 187.974238,139.726826 159.267716,127.080178 C145.325349,120.937873 112.26309,101.297496 116.060783,80.0594055 C118.839691,64.5187284 140.682017,65.0894483 150.648568,64.262732 C190.033096,60.9958211 228.936921,64.813981 263.995573,83.7196438 C269.512058,86.6944531 303.006005,107.357307 290.943564,118.08035 C281.273563,126.676606 240.69125,128.456376 235.740606,128.734125 C198.719493,130.811138 183.882454,131.91746 148.974346,118.5477 C132.953109,112.411586 92.9448869,84.02637 122.991589,62.6842176 C134.403071,54.57865 150.211753,55.7271704 164.134289,54.2831599 C177.348979,52.9125654 190.728565,53.49967 203.991019,54.2831599 C221.290083,55.3051157 238.773593,55.9618079 255.696525,59.6922709 C269.013096,62.6277534 294.87948,76.1891553 305.542111,86.4321871 C308.959898,89.7154771 314.37319,94.3456176 312.634921,98.7546634 C301.846052,126.120176 281.627998,123.804797 257.360439,124.684021 C218.416607,126.094974 181.808774,123.065556 152.377166,94.6510146 C120.396213,63.7752263 140.923474,44.872976 178.899432,40.9006704 C194.471776,39.2717948 210.213153,39.2175566 225.858891,39.8192586 C240.649484,40.3880736 255.626226,40.9801599 270.026026,44.4052068 C282.368432,47.3408949 311.926804,63.4338257 322.062624,72.274413 C326.080841,75.7791518 328.962914,80.569221 331.175894,85.4201986 C332.708171,88.7790373 334.221445,92.8399626 333.040114,96.3376945 C322.673219,127.032426 245.969609,113.555919 222.026535,105.300881 C213.636138,102.408059 206.346935,96.87536 199.138175,91.6983963 C187.345095,83.2292092 162.89973,61.3076431 174.422919,42.3794712 C186.870947,21.9321459 245.221267,23.5050613 263.619387,32.4021464 C277.928703,39.3219398 284.497834,60.4358917 273.89385,73.9208363 C257.911351,94.2455669 193.624092,106.473391 176.05791,82.1066376 C154.301004,51.9267615 233.588595,40.8828901 241.955291,62.5968644 C249.331026,81.7390097 211.696897,90.8440088 202.467223,78.3178122 C192.621326,64.9552983 223.21494,60.6862995 225.902128,68.4529524 C230.566109,81.9330392 199.181652,82.3090126 196.035766,73.5147511 C190.564691,58.2204699 249.400717,65.6652406 232.998309,83.3711101 C229.20898,87.4615695 224.151446,90.4160269 218.977135,92.4938582 C213.92845,94.5212417 208.342195,94.9441066 202.924997,95.4475512 C196.235963,96.0691932 189.487187,96.1486493 182.77561,95.8582287 C177.493052,95.629644 171.962565,95.8123427 167.03512,93.8945393 C163.356567,92.462815 160.201004,89.5083542 158.015359,86.2213277 C156.358233,83.7291486 155.863354,80.4328942 156.100281,77.4494583 C157.932572,54.3768546 223.044858,56.5524879 237.514883,59.155107 C245.442247,60.5809448 244.72339,71.5283219 239.606769,74.9959457 C231.840498,80.2592831 222.594548,83.2107874 213.4986,85.5089198 C197.111603,89.649169 180.346939,92.3729321 163.545485,94.2131735 C146.373755,96.0939706 129.052354,96.8861424 111.779545,96.6500753 C95.6036721,96.4289999 79.2411312,96.1103251 63.3968334,92.8444437 C54.7641116,91.0650373 47.0523622,86.1103463 39.4027799,81.7315266 C33.0322225,78.0848541 26.5151926,74.2575129 21.523845,68.8752575 C19.1426901,66.3076174 18.061615,62.3975828 18.2292887,58.8997893 C19.2634867,37.325678 41.1889155,36.9394142 60.0176597,32.6374824 C93.3140407,25.0300306 137.79048,24.7245628 171.145316,32.4949715 C183.4347,35.3579309 222.35228,51.5324978 213.207863,71.884841 C200.965826,99.1314248 134.775191,101.602287 110.43832,93.5399476 C106.473109,92.2263487 78.8532643,69.8997331 93.1197558,62.3924538 C117.337547,49.6486252 143.563421,40.0385239 170.400077,34.6812456 C194.013365,29.9674336 218.529674,32.9067573 242.606239,32.5511551 C258.177206,32.3211774 274.106485,29.6121827 289.322741,32.9248003 C312.684393,38.0106912 335.379198,46.6682326 356.744505,57.3993456 C361.872897,59.9751739 364.762332,66.1484958 366.413162,71.6448638 C367.903051,76.6053849 369.155657,83.3215427 365.684925,87.1660912 C347.208724,107.632276 305.582449,114.277458 282.864609,117.755853 C266.054925,120.329633 248.974046,120.830961 231.97782,121.394986 C213.292742,122.015055 194.500579,123.103008 175.891802,121.305776 C164.340251,120.19013 152.904943,117.083204 142.151265,112.719557 C132.805223,108.927102 123.739373,103.839614 116.236564,97.0987622 C96.0930088,79.0009114 107.802293,56.2618694 128.683963,46.7477202 C158.82031,33.0169361 194.653801,31.4740021 226.781132,33.7629616 C239.659241,34.6804817 247.329293,42.8847158 248.9927,54.9171061 C251.776222,75.0519345 242.418848,80.6394118 224.751879,91.9075947 C190.967361,113.455722 118.456851,131.066631 78.3222218,117.409469 C71.4658714,115.076365 65.3737818,110.012773 61.0950165,104.169393 C57.5326838,99.3044232 56.2147293,92.8555692 55.9324293,86.8324096 C54.6984041,60.5032129 65.093013,54.8647136 89.2517361,39.9905453 C128.881962,15.5908013 232.57988,-9.58470759 237.426015,64.5136527 C238.013373,73.4944657 240.976863,84.6039041 235.091026,91.4124952 C212.946308,117.02896 162.272344,134.596215 128.295906,121.88774 C105.09163,113.208462 85.9233841,82.1447056 91.6066587,57.0017613 C97.7001458,30.0440269 137.850701,18.2485356 156.598947,13.4045721 C208.516943,-0.00942326321 325.318062,5.07957503 330.489184,79.994428 C331.935336,100.945053 315.008933,111.448098 297.930457,118.693972 C261.552093,134.128198 207.807392,137.110509 171.020735,121.039906 C148.361415,111.140965 127.337767,77.4169733 133.773902,52.3964664 C139.334973,30.777779 164.766334,24.6921157 182.598608,21.9880554 C215.867582,16.9431961 265.316135,18.1137738 290.768467,44.2264942 C309.404945,63.3465158 324.012099,93.693158 299.078751,115.885184 C288.003598,125.742669 274.820872,133.462638 261.04872,138.954163 C248.747117,143.859319 235.211719,145.038928 222.06005,146.595716 C206.111764,148.483546 190.004488,149.836546 173.955081,149.263606 C149.230793,148.380984 135.039734,146.108299 118.10264,128.768519 C112.741604,123.280022 108.035222,116.735203 105.547466,109.477422 C103.067677,102.24288 101.861293,94.0475073 103.652809,86.6125608 C108.060535,68.320123 131.081257,62.5532766 145.609047,59.9385504 C181.188531,53.5349195 223.588421,51.7975197 254.844587,72.9593642 C267.369467,81.4392773 281.859774,105.474524 270.273282,121.011863 C251.630417,146.011708 192.800091,153.316388 166.35867,141.437282 C139.158152,129.217142 130.699945,98.0279734 165.998655,87.7841106 C179.677253,83.814513 193.977073,82.0069399 208.183487,80.9873629 C240.795396,78.6468459 256.497803,78.8858463 284.941203,91.3437069 C295.047946,95.7703362 304.729441,101.286917 313.76172,107.624048 C318.616945,111.03052 322.903381,115.406721 326.2334,120.314698 C328.089914,123.050936 329.557683,126.647261 328.862108,129.879879 C324.441927,150.422249 276.668125,145.78835 266.113743,144.684204 C231.609124,141.074507 200.628878,127.340199 174.913622,104.01247 C166.233944,96.1386545 157.52846,86.8547487 158.453298,74.1789876 C159.658157,57.6652706 171.331193,60.4280469 186.10119,59.1939469 C215.452184,56.7415387 246.046184,56.6457285 272.735638,70.9083215 C307.844888,89.6703746 279.101948,105.024285 254.78684,109.851165 C240.999754,112.588089 226.873882,113.43659 212.833729,114.106363 C194.789082,114.967166 176.577605,116.574465 158.639241,114.437797 C141.881984,112.441813 125.483586,107.545437 109.611884,101.811441 C100.444567,98.4995494 92.2484699,92.8683572 84.1056131,87.5109119 C77.2870592,83.0247676 70.3914534,78.3734492 64.8624921,72.3693877 C62.0254039,69.2885104 60.0937593,65.1054723 59.6391289,60.942038 C59.2688844,57.5513968 59.630869,52.9056416 62.5432827,51.1304304 C80.4250188,40.2309287 136.648463,42.7986212 155.642409,46.6842572 C163.942447,48.3822154 171.417908,52.9323455 178.974767,56.762175 C189.395144,62.0432416 210.321668,73.8133601 207.607776,88.5823083 C203.831535,109.132542 157.280933,108.6458 144.747435,106.412828 C139.14888,105.415387 133.393404,95.6952709 137.973454,90.391322 C142.084849,85.6301016 148.105572,82.6934529 153.927344,80.3102286 C161.88341,77.053301 170.314508,74.7197545 178.845789,73.6596559 C192.355936,71.9808824 206.056735,71.5940552 219.659741,72.1423083 C223.549214,72.299069 227.641537,73.4300799 230.765672,75.7522256 C233.370917,77.6886853 234.979214,80.9607915 235.762102,84.1110723 C236.474587,86.9780552 236.728271,90.5211129 235.038067,92.9440108 C228.042749,102.971755 189.979405,119.01845 182.262483,103.73546 C170.824277,81.0826472 224.484164,71.6568335 237.153598,77.4193635 C239.58156,78.5236908 238.356505,91.7728547 237.689248,92.8676011 C233.041497,100.493005 202.893103,115.884648 196.912963,103.520692 C188.173002,85.4508001 239.053338,74.5555613 247.980321,83.0479813 C249.609923,84.5982544 250.150596,87.152578 250.259127,89.3991688 C250.376233,91.8232586 250.38421,94.8182514 248.62995,96.4953017 C238.033205,106.625656 204.727926,111.50304 191.467894,104.981465 C183.604061,101.11386 175.180472,89.0172014 185.379597,81.4885204 C202.030051,69.1976665 215.064529,70.9817948 236.080736,71.20927 C240.517953,71.2572976 261.262528,76.198292 253.964996,86.885271 C240.371465,106.792519 188.037186,103.020852 174.219584,101.725065 C165.672807,100.923565 155.880037,94.5312505 153.62664,85.7064906 C145.39336,53.4632932 224.66845,45.8648534 238.821713,61.3074756 C251.52483,75.167843 232.736475,89.0835631 222.260064,93.4113605 C202.499811,101.574306 154.575582,108.350532 138.102676,91.0218483 C135.504877,88.2890917 133.899001,84.5352912 133.192915,80.8315145 C132.544403,77.4297409 132.267001,73.3712469 134.188537,70.4902179 C144.92438,54.3935831 193.426364,49.7860785 210.129784,55.1603078 C220.540657,58.5099462 231.818407,75.3714513 225.394961,86.5790461 C214.625705,105.369186 169.858757,110.571727 151.544672,105.583851 C142.3557,103.081217 128.974843,87.9073684 136.136984,77.3452011 C153.377715,51.9199165 232.342733,48.6094964 244.438313,82.4093449 C254.419919,110.301914 203.729638,105.859317 194.624483,105.960037 C176.40381,106.161591 156.285707,93.8983044 149.721783,76.5162246 C141.274957,54.1479871 164.918213,47.6559162 181.95191,45.4271129 C217.155898,40.8207868 253.706752,44.7829869 282.437809,66.614137 C288.694042,71.3679039 294.983869,76.3655536 299.749339,82.6128761 C302.410608,86.1016837 303.621098,90.6717077 304.114852,95.0317927 C304.537386,98.7629695 304.97988,103.423888 302.416838,106.16816 C282.447115,127.549921 224.356596,123.745873 199.679247,114.084183 C188.269523,109.617041 166.485056,96.5922403 170.192247,80.1608291 C173.064207,67.4314161 184.965592,66.9779796 196.334663,65.4742454 C214.66764,63.0494277 271.996589,67.3183852 269.265447,97.033687 C268.102002,109.692168 259.104016,110.8727 246.469813,112.347279 C229.740661,114.299794 160.294808,122.054542 153.748094,89.731287 C153.08463,86.4555477 152.716268,82.3617505 154.816217,79.7615837 C171.475308,59.1342197 220.456337,63.5707255 240.369986,66.7559151 C245.778771,67.6210505 267.893304,83.7868548 259.951088,92.6206865 C251.727071,101.767955 236.237585,104.193689 225.150147,105.129985 C194.725019,107.699284 154.467395,108.45581 138.89467,75.3769193 C137.070259,71.5015877 135.922376,66.8777611 136.835908,62.6930116 C140.540137,45.7244981 153.022309,43.0675532 169.215336,40.8173722 C193.896327,37.3877049 243.23359,33.7154752 264.863292,52.4070191 C273.431013,59.8109088 279.511274,70.0707273 284.032593,80.4524952 C285.679703,84.2345594 285.254919,89.7249949 282.420954,92.7225986 C276.555847,98.9263699 268.647654,103.927688 260.272605,105.584437 C217.583986,114.029083 119.882354,122.027376 94.8213367,68.1037348 C93.5310024,65.3273301 92.6263821,61.6639412 94.0465895,58.9516736 C101.177987,45.3323541 125.027383,48.5504881 134.465547,48.2212446 C171.090244,46.9436184 203.216042,48.6435829 235.735525,66.9634523 C245.028279,72.1985309 255.234807,78.3739872 254.820257,90.4932341 C254.303474,105.601233 242.766657,108.712442 229.60272,113.443201 C203.236071,122.918655 127.633363,135.284346 111.638011,102.580228 C100.590839,79.9931652 129.633278,68.8071675 144.547324,64.6633942 C179.797413,54.8693803 247.724003,47.6494435 266.077004,90.8164607 C267.836673,94.9552749 268.923734,99.6365694 268.412775,104.104806 C267.771202,109.715236 266.752388,116.099242 262.732322,120.065047 C234.27895,148.134373 159.192891,145.069971 130.447297,118.445006 C103.708517,93.6788073 123.572744,67.5965611 154.498756,62.556119 C168.923298,60.2051508 183.684856,60.7625322 198.298499,60.5729852 C212.502478,60.3887517 226.938309,58.8449523 240.905294,61.4353787 C252.58865,63.6022656 277.62846,79.746779 285.878345,88.4174706 C289.276874,91.9893493 291.728418,96.7083472 292.698348,101.542346 C293.7062,106.565339 294.414468,112.5989 291.587574,116.871475 C281.983017,131.387826 254.236639,138.593552 240.303006,140.734156 C202.518855,146.538882 157.969084,145.214109 124.625212,124.584064 C112.373357,117.00377 87.1465784,97.4472088 95.7366405,77.84118 C103.619619,59.849005 123.401044,57.9099461 140.181518,55.8279641 C175.604409,51.4329858 214.113187,51.2863816 246.569283,67.4579656 C253.467236,70.894942 279.943254,86.2433211 272.548522,99.1678814 C265.424767,111.618826 247.258994,116.637558 235.102898,118.577501 C206.756587,123.101177 171.381169,123.77283 145.703436,109.179014 C133.579724,102.288561 113.623434,82.4642681 121.25962,65.2741342 C136.991711,29.8589764 203.042568,49.4658242 224.343839,68.632349 C227.916833,71.8472683 244.99378,93.0803381 234.942701,99.8829274 C210.286919,116.570008 170.536194,107.372312 147.890198,91.007094 C129.257097,77.5418097 119.36774,50.8826303 148.113369,42.4465983 C157.127974,39.8010659 166.726883,39.6881143 176.108036,39.1822345 C186.939118,38.5981671 197.927785,37.5330186 208.648492,39.1822345 C222.628106,41.3327833 240.558866,51.3204679 250.399928,61.4800325 C254.473866,65.6858216 257.551193,70.9513816 259.632014,76.4245721 C261.06288,80.1881841 262.220407,84.7495903 260.657389,88.4602678 C253.96183,104.355838 238.046827,109.513008 222.586417,112.656436 C183.714988,120.559818 136.724148,123.102192 98.3768291,111.292201 C88.6591883,108.299416 56.0442742,93.4940746 62.3137117,77.6183999 C69.1766456,60.2398542 109.161034,58.5896846 115.264783,58.1448773 C165.167786,54.5082245 194.390134,53.3318846 237.68959,66.8937847 C242.959174,68.5442806 260.024277,77.6695439 263.018223,83.853605 C264.240669,86.3785928 263.256602,90.4706505 260.904743,91.9999312 C254.700173,96.0344128 247.064196,97.4507388 239.814941,98.9413883 C227.769729,101.418221 215.518897,102.992699 203.251936,103.85496 C162.709804,106.704722 84.8166877,109.686844 71.1621861,56.2745992 C70.0054125,51.7496538 75.7768355,47.3132821 80.0600044,45.4511009 C89.2111405,41.4724873 99.4874893,40.5308458 109.426137,39.6386895 C142.448777,36.6743668 177.688212,37.9983787 202.87878,62.2667492 C210.757995,69.8575156 227.594224,93.1206686 218.652101,106.409017 C200.101087,133.976553 138.125019,117.722628 120.35526,97.2079049 C109.230297,84.3644257 113.049518,66.276232 129.251662,59.4256676 C138.156949,55.6603479 148.251516,55.5715533 157.892146,54.8366903 C182.618648,52.9518976 191.84697,52.3752642 212.873888,63.4505617 C225.340197,70.016816 236.222719,77.7835568 241.788695,91.0831128 C243.207157,94.4724407 244.229746,98.6507652 242.846803,102.05474 C237.430783,115.38573 217.067635,118.649269 206.552697,120.404689 C195.385223,122.269047 183.979786,122.655381 172.657875,122.603763 C164.362172,122.565943 155.905462,122.286927 147.893032,120.137255 C135.435679,116.795046 83.9548719,88.3713789 117.839262,71.5359165 C127.278778,66.8458917 138.290902,65.8175457 148.810681,65.1579563 C184.514154,62.919351 202.905268,60.1974024 220.511973,88.5938382" id="Path-19" stroke="#004D6E" stroke-width="3"></path>
                    <path d="M77.2226886,18.2416037 C147.548618,18.3542766 217.880607,17.6495146 288.200477,18.5796224 C332.112643,19.1604405 327.253327,19.2935518 356.355192,25.0072661 C361.54722,26.0266428 346.033039,22.6005695 340.78774,21.9055048 C333.131697,20.8909876 325.426505,20.1179819 317.707024,19.8859221 C297.444271,19.2767918 277.163069,19.0837114 256.893379,19.3835081 C243.28415,19.584794 229.678382,20.3097891 216.110484,21.388575 C183.575656,23.9754246 151.160756,27.9793357 118.611537,30.3783207 C104.748982,31.4000368 90.5187433,28.7191175 76.9303619,31.6466101 C65.8609307,34.031418 99.6348027,30.8768835 110.898311,32.0400647 C148.20226,35.892439 185.176801,42.5304155 222.449487,46.6743527 C238.133495,48.4180839 253.923583,49.1541807 269.69496,49.6949058 C283.305383,50.1615422 296.969413,50.7063805 310.550218,49.6949058 C329.682495,48.2699673 348.589638,44.6555906 367.641849,42.3999927 C375.405328,41.4808717 352.231081,45.3643174 344.419966,45.6850547 C283.169536,48.2000989 221.852722,48.7675228 160.587849,50.9019731 C135.059763,51.7913642 58.5919953,52.7178021 84.0541125,54.7561251 C103.339969,56.3000189 356.553772,54.2370304 362.080943,52.1391028 C406.603123,35.239985 90.0665546,49.957126 126.202485,42.9456878 C172.366642,33.9884773 314.097928,42.3188952 267.213451,38.6847461 L328.785772,35.2087847 C292.729013,32.4139228 256.431166,33.7059397 220.291148,35.047665 C190.837468,36.1411551 156.578588,59.0499249 132.184497,42.5077549 C126.678636,38.7741091 262.855044,10.4480871 265.131832,10.0068757 C279.729189,7.17810066 294.360175,4.29602427 309.155378,2.81724733 C324.114499,1.32208678 369.255756,1.32308909 354.223724,1.10216258 C300.308144,0.309762698 246.373224,0.191267748 192.459514,1.10216258 C156.84658,1.70385808 50.0891043,5.02470597 85.7018229,5.63895315 C168.617549,7.06908128 251.558712,2.29446869 334.477237,3.55168031 C342.548038,3.67404989 350.544818,6.40039772 357.881523,9.76574488 C359.248134,10.3926095 355.931389,12.3393872 354.478489,12.7262564 C348.479,14.3237634 342.265491,15.1449296 336.07174,15.5731195 C279.528017,19.4821317 222.937498,22.7098591 166.339488,25.7327868 C153.783319,26.4034181 119.069188,18.4841326 128.628508,26.6527652 C139.332,35.799116 156.783321,27.8939692 170.768483,29.5174528 C206.665613,33.6846125 245.013588,42.1752676 279.507963,51.7375008 C288.842874,54.3252445 316.424166,60.4688981 306.813705,61.6838218 C245.774678,69.4001802 183.908424,67.7224085 122.50498,71.5853152 C108.779034,72.448818 67.7395259,75.0350305 81.4678176,75.8603903 C100.287422,76.9918453 300.349819,68.6791925 360.156353,96.0619696 C362.122122,96.9620087 365.791309,98.3064862 365.03773,100.332921 C364.051804,102.984155 360.04329,103.156449 357.284997,103.783276 C314.784989,113.44149 220.118774,113.000756 205.602422,113.525146 C205.185122,113.540221 204.542703,112.57068 204.945007,112.458797 C233.623827,104.483066 312.630764,108.997608 340.563703,112.149228 C356.75119,113.975631 372.765946,117.316817 388.596717,121.158328 C392.97905,122.221749 397.731664,123.578366 400.897414,126.789867 C402.167849,128.078663 397.507305,128.235833 395.702344,128.366645 C389.089052,128.845935 382.44253,128.601038 375.811897,128.607909 C304.831232,128.68146 233.850411,128.718428 162.869796,128.607909 C162.037676,128.606614 159.637516,128.614588 160.396068,128.272501 C162.704816,127.231318 165.265122,126.836436 167.760318,126.402415 C178.532303,124.528707 189.311152,122.62567 200.170677,121.353999 C250.735418,115.432773 306.769673,106.688928 356.209802,121.326231 C357.797521,121.796293 361.208432,122.540896 360.403902,123.988148 C359.233852,126.092924 355.916656,125.968946 353.516959,126.17033 C313.616638,129.51879 273.688816,132.730964 233.692912,134.621813 C197.266434,136.343914 93.3591342,117.733214 124.317401,137.005985 C151.138532,153.703221 255.796326,129.020833 302.645811,150.104132 C303.480917,150.479948 303.770377,152.626613 302.880157,152.841437 C281.069443,158.104724 258.961344,162.089192 236.864193,165.978327 C224.749217,168.110583 212.55529,169.958912 200.289962,170.897481 C180.392649,172.420067 160.332248,171.387294 140.473946,173.354315 C131.274135,174.265583 159.000375,173.153495 168.199049,174.076178 C178.947089,175.154272 189.410653,178.431925 200.174169,179.342613 C208.264626,180.027137 216.600733,180.601726 224.527116,178.842028 C227.522802,178.17697 229.605415,175.105848 231.164248,172.462656 C231.815491,171.35839 231.617141,169.343168 230.526121,168.669973 C227.110796,166.562605 223.020468,165.650933 219.061318,164.994749 C211.935965,163.813802 204.689413,163.360893 197.468855,163.191106 C-67.0025703,156.972248 261.766748,164.888643 71.1355743,165.867987 C66.4071968,165.892279 80.3229726,163.550476 85.0055831,162.893742 C100.293921,160.749556 115.582929,158.254925 131.001024,157.471874 C167.350428,155.625766 203.766787,154.753059 240.162108,155.013676 C246.858957,155.061631 266.660502,158.193485 259.966525,158.39536 C205.490798,160.038228 150.967835,159.121072 96.467809,159.34718 C81.1044531,159.410919 78.7977142,155.565667 102.343223,152.554415 C538.986411,96.7118121 -164.29848,186.499698 279.394031,140.917817 C288.201982,140.01295 262.069814,137.074393 253.265809,136.131915 C245.301438,135.279321 224.472697,141.983404 229.243249,135.549124 C233.586006,129.691834 287.679283,108.427075 297.983816,105.073663 C305.745372,102.547814 313.719779,100.645148 321.746056,99.1617191 C329.219426,97.7804797 351.982483,96.8244208 344.389605,96.4968763 C303.593359,94.7369923 214.504289,104.661044 186.345945,106.66105 C175.757246,107.413134 143.944585,108.61832 154.514918,107.641469 C183.718837,104.942605 308.193432,93.0621451 369.308681,91.9286267 C385.198914,91.6339069 432.771524,90.2144341 416.987366,92.0709573 C371.74668,97.3921398 196.999323,112.62901 151.506104,103.442048 C151.0694,103.35386 150.528699,102.368914 150.950781,102.226318 C206.831206,83.3478093 275.855513,80.6309983 335.031728,77.00429 C352.762099,75.917656 400.316382,62.5065415 388.303942,75.5927221 C375.289482,89.7704877 350.057926,79.9938979 330.874209,81.5334319 C276.625256,85.8870257 188.104545,97.1715565 134.652771,88.1112379 C133.933392,87.9893 132.275601,87.3979155 132.820878,86.9130995 C133.922006,85.9340669 135.658284,86.0381632 137.126298,85.9119794 C215.44329,79.1802048 327.506854,67.058614 409.083523,71.8962812 C434.254279,73.3889597 358.682654,73.9670733 333.550458,76.0085904 C301.194005,78.6369422 268.975522,82.7570092 236.665196,85.9020196 C225.894623,86.9504016 215.119948,88.0453982 204.312101,88.588345 C188.126342,89.4014585 171.897559,89.128427 155.713189,89.9687531 C153.367107,90.0905666 151.173943,91.574172 148.827045,91.4692444 C116.995294,90.046077 85.2128713,87.6552755 53.4295374,85.395748 C47.3124473,84.9608744 41.1776853,84.4723078 35.1419233,83.3871894 C30.0831266,82.4777112 15.6831002,81.8082963 20.2389861,79.4287003 C27.1791539,75.8037643 35.9036482,78.4933127 43.722618,78.9053856 C82.1484177,80.9304904 92.619644,83.3648099 130.345106,92.7047612 C151.004614,97.8195773 206.688103,93.6110151 192.061453,109.071859 C175.363539,126.722096 143.607684,105.125727 119.322742,104.355758 C93.9995125,103.55287 68.6452464,103.823691 43.3148804,104.355758 C32.0883361,104.591573 -1.4855311,107.567724 9.70659862,106.658256 C124.69238,97.3145584 43.9372986,104.40155 215.97507,100.718943 C220.851463,100.61456 234.716544,100.888448 230.443849,98.5359629 C221.859858,93.8097384 211.367245,93.7110702 201.609714,92.8095804 C154.877275,88.4920113 107.913258,87.0363101 61.1647445,82.8964145 C54.786933,82.3316164 48.5462898,80.565772 42.4177316,78.7120587 C41.2945477,78.3723277 39.2057138,77.459229 39.7473186,76.4182567 C40.8439613,74.3104936 43.4094715,73.1796406 45.6726148,72.4561263 C54.7393911,69.5575284 64.0120202,67.1819149 73.4079435,65.6571424 C115.488656,58.8282754 163.806738,58.5521038 204.936361,60.3538945 C221.899466,61.0970077 272.399945,67.9528523 255.45431,66.8829987 C220.849537,64.6982449 186.344719,61.0123285 151.903316,57.0056815 C146.383687,56.3635705 140.949124,54.8693284 135.732256,52.955459 C135.009785,52.6904122 134.308299,51.2152675 134.946161,50.7847498 C137.265444,49.2193774 140.124341,48.430903 142.904525,48.1146195 C152.815532,46.987109 162.809942,46.5462675 172.784657,46.4801112 C196.152708,46.325125 219.584157,45.6557176 242.883617,47.4515182 C260.870542,48.8378563 314.227887,53.7819218 296.324732,56.0019343 C270.628369,59.1883137 244.720852,51.3834642 218.845162,50.4323151 C179.825124,48.9980008 140.731045,50.4301063 101.716702,48.8484539 C96.9925071,48.6569337 110.954076,46.6986869 115.660736,46.2491897 C140.973283,43.8317811 166.318585,41.6500857 191.707954,40.2540749 C214.907153,38.9784886 238.151023,38.6559237 261.381485,38.23687 C270.738455,38.0680799 280.114896,37.917519 289.455813,38.4908039 C291.00967,38.5861696 295.347715,40.1727805 293.791844,40.2260078 C248.593331,41.7722772 189.233264,41.295635 143.892842,38.4104935 C86.8003453,34.7775337 110.196102,29.2817888 139.938127,28.9338804 C199.225226,28.2403676 258.553858,30.6022254 317.811278,28.6024794 C324.79838,28.3666873 304.363516,24.5795079 297.438769,23.6187439 C286.070056,22.0414081 274.5684,21.577633 263.104717,21.0122966 C227.610434,19.2618808 192.063445,18.6453071 156.580841,16.6722748 C152.835309,16.4640022 149.113967,15.625726 145.543429,14.4752278 C145.123489,14.3399149 145.237005,13.2119345 145.674919,13.1581701 L157.097455,10.7031654 C164.418541,9.80432708 171.787477,9.04985766 179.163533,9.04664238 C201.211367,9.03703156 223.343559,8.52419961 245.287243,10.6647228 C259.736449,12.074188 273.751399,16.413113 287.902879,19.6537535 C289.670485,20.0585293 291.470391,20.5946313 292.98751,21.5879211 C293.321517,21.8066026 292.968342,22.6513916 292.57372,22.7118513 L256.799268,29.2857165 C213.497004,35.9200057 170.008542,41.3119734 126.733265,48.1200733 C108.109709,51.0499454 89.4952519,54.2137925 71.1350755,58.4945503 C69.9914037,58.7612025 72.9730422,60.0755077 74.1042831,60.3907575 C81.412006,62.4272451 88.8244348,64.1079407 96.2813824,65.5022248 C148.493686,75.2647696 200.923986,83.8492306 253.089825,93.857091 C270.11434,97.1231935 287.23363,100.265949 303.816347,105.317189 C308.134233,106.632454 294.766548,105.638596 290.275711,105.184236 C278.606041,104.003558 267.079031,101.626454 255.412009,100.419882 C243.470928,99.1849678 231.476208,98.5041915 219.488543,97.8636167 C204.457476,97.0604142 189.417128,96.284935 174.365892,96.0890889 C143.950464,95.6933245 52.6938859,96.0996072 83.1118867,96.0890889 C97.9076711,96.0839726 230.475078,86.3705911 293.162098,99.4192445 C298.594503,100.55003 304.060006,101.790112 309.198941,103.883207 C310.525532,104.423529 312.099803,105.676802 312.039237,107.107928 C311.972055,108.69538 310.441581,110.27994 308.910289,110.703806 C301.448315,112.769306 293.673547,113.583257 285.966583,114.324925 C273.250123,115.548675 260.475143,116.135107 247.708162,116.593503 C195.993596,118.450305 129.670501,120.20022 76.7794848,119.13966 C72.3253264,119.050346 59.0808823,117.550205 63.5322226,117.368341 C127.497898,114.754963 186.468076,121.070693 248.912386,134.936337 C257.713392,136.890584 283.748457,142.869989 274.733799,142.982809 C242.672202,143.384069 210.840036,137.269715 178.809003,135.813699 C146.335215,134.337558 113.798576,134.967823 81.3005624,134.190032 C80.343409,134.167124 77.6877863,133.859477 78.535157,133.413798 C80.2694755,132.501623 82.4005775,132.726186 84.3549523,132.583558 C91.5372961,132.059396 98.7267659,131.504981 105.927645,131.414717 C168.021261,130.636364 228.768372,130.571108 290.512585,136.203346 C292.363466,136.372182 297.827432,137.279635 295.970036,137.34555 C250.729923,138.951026 167.075961,133.076017 137.979617,131.491768 C118.161427,130.4127 105.522489,129.514245 86.4413772,124.836412 C85.9633435,124.71922 86.8185462,123.654683 87.310592,123.642796 L101.545157,122.432354 C113.698071,122.138779 125.870743,121.863112 138.014535,122.417954 C152.296707,123.070498 166.585774,124.118354 180.751584,126.051244 C196.761974,128.235823 212.609561,131.514641 228.439813,134.756262 C240.637339,137.253996 252.797926,139.988235 264.809858,143.264179 C278.545974,147.010348 319.812289,154.455842 305.639078,155.810362 C277.812734,158.4697 250.109656,149.047819 222.209021,147.335501 C206.494896,146.371094 62.1918771,150.847124 186.399153,138.721535 C218.997237,135.539186 251.588942,132.06093 284.290905,130.232275 C311.913206,128.687669 340.624972,136.046972 367.271357,128.607377 C382.454323,124.368336 336.349025,122.397436 320.761181,120.049878 C308.821129,118.251683 296.778441,117.170369 284.744535,116.178683 C263.350595,114.415658 241.943769,112.660137 220.495067,111.787182 C185.678508,110.370161 150.392973,114.834545 115.988263,109.310362 C99.6820892,106.692166 148.690465,104.609492 165.116293,102.895306 C217.966983,97.3798495 270.919143,92.880186 323.796217,87.6236888 C331.16883,86.890779 338.560007,86.1996252 345.858969,84.9277195 C347.876284,84.5761855 353.572833,83.370102 351.613086,82.7763646 C299.806954,67.0808481 215.159532,74.0495224 166.136484,75.8018285 C142.049511,76.6628062 83.3218772,102.110681 93.9818107,80.4938027 C105.408959,57.3211189 144.822756,71.2189204 170.353264,67.2507805 C218.264235,59.804104 360.095936,62.1446328 314.288261,46.2521494 L315.820477,45.3287957 C312.919222,44.3222361 309.814566,43.9908191 306.76359,43.6415452 C298.667612,42.7147223 290.558803,41.6107188 282.410644,41.5040576 C250.706196,41.0890392 218.997469,41.8864327 187.290881,42.0776203" id="Path-20" stroke="#00608A"></path>
                </g>
                <g filter="url(#filter-1)" id="CONTACT-Copy">
                    <g transform="translate(92.500000, 52.000000)">
                        <g id="news-copy" transform="translate(55.000000, 0.000000)" fill="#000000" fill-rule="nonzero">
                            <g id="Group" transform="translate(21.500000, 21.826207) scale(-1, 1) rotate(-180.000000) translate(-21.500000, -21.826207) translate(0.000000, 0.826207)">
                                <path d="M18.8071117,41.4080553 C18.8071117,41.2437259 18.4999148,40.9972319 18.1089369,40.8602908 C17.7179591,40.7233497 17.4107622,40.4768556 17.4107622,40.3399145 C17.4107622,40.1755852 17.0477114,39.5182677 16.5729525,38.8609503 C16.1261207,38.1762447 15.7351429,37.5463155 15.7351429,37.4367626 C15.7351429,37.354598 14.7856252,35.3278693 13.6126917,32.9724819 C12.4676851,30.6170946 10.9875547,27.5770016 10.373161,26.2075903 C9.75876721,24.8655673 9.06059248,23.4139913 8.86510356,23.003168 C8.64168765,22.5923446 8.41827174,21.8802507 8.39034475,21.4146509 C8.36241776,20.9764393 8.2507098,20.5930041 8.16692883,20.5930041 C8.08314787,20.5930041 7.58046206,19.5796398 7.07777626,18.3471697 C6.60301745,17.0873113 5.87691573,15.4987943 5.51386488,14.7867004 C5.15081402,14.0472183 4.92739811,13.4720656 5.03910606,13.4720656 C5.12288703,13.4720656 5.01117907,13.1981833 4.78776316,12.8695246 C4.56434725,12.5134777 4.08958843,11.4179487 3.75446456,10.3771961 C3.39141371,9.36383181 2.97250887,8.54218505 2.83287393,8.54218505 C2.66531199,8.54218505 2.58153102,8.46002037 2.66531199,8.3778557 C2.91665489,8.1587499 1.77164834,4.98171577 1.01761964,3.77663386 C0.626641791,3.20148114 0.263590934,2.35244615 0.179809967,1.8594581 C0.0681020103,1.11997602 0.151882977,0.928258444 0.766276737,0.654376192 C1.18518157,0.462658616 1.68786738,0.32571749 1.8833563,0.32571749 C2.30226113,0.32571749 3.81031854,3.22886936 4.95532509,6.21418591 C5.37422993,7.28232669 5.87691573,8.46002037 6.10033165,8.87084375 C6.32374756,9.2542789 6.51923648,9.77465518 6.51923648,9.99376099 C6.51923648,10.2128668 6.7147254,10.5415255 6.93814132,10.7332431 C7.16155723,10.9249606 7.30119217,11.1440664 7.21741121,11.2536193 C7.16155723,11.3631722 7.41290013,12.0478779 7.77595099,12.7599717 C8.13900185,13.4720656 8.58583367,14.5128181 8.78132259,15.0605826 C8.94888453,15.6083472 9.33986237,16.4026057 9.61913227,16.8134291 C9.92632914,17.1968642 10.1497451,17.6898523 10.1497451,17.9089581 C10.1497451,18.1006756 10.401088,18.6758284 10.7082848,19.1688164 C11.0154817,19.6618045 11.2668246,20.2917337 11.2668246,20.5656159 C11.2668246,20.8394982 11.4343866,21.2229333 11.6578025,21.3872627 C11.8812184,21.5789802 12.1325613,22.0445801 12.2442692,22.4554035 C12.4676851,23.3866031 13.5289107,25.5502729 14.0036695,26.0158727 C14.1712315,26.2075903 14.3387934,26.5636372 14.3387934,26.782743 C14.3387934,27.0018488 14.4505014,27.1661782 14.5622093,27.1661782 C14.7576983,27.1661782 15.344165,24.9203437 15.5955079,23.3318267 C15.6513619,23.1127209 15.8189238,22.1267447 15.9864858,21.1407686 C16.1540477,20.1547925 16.3495366,18.1828403 16.4612446,16.7586526 C16.5450255,15.3618531 16.7405145,13.882889 16.9080764,13.4994538 C17.1594193,12.8147482 18.6674767,5.83075075 19.0026006,3.83141032 C19.0863816,3.25625759 19.3377245,2.65371663 19.5332134,2.48938728 C19.7566293,2.32505793 19.9241912,2.05117568 19.9241912,1.91423455 C19.9241912,1.55818762 21.2646867,0.517435066 21.8511535,0.38049394 C22.3538393,0.270941039 22.4096933,0.270941039 24.1132396,0.270941039 C24.8114143,0.270941039 25.8447129,0.270941039 26.4311797,0.270941039 C28.162653,0.270941039 29.0283897,1.36647005 29.8382723,4.54350417 C30.2013232,5.96769188 30.620228,7.33710314 30.759863,7.63837362 C30.8994979,7.91225587 31.0949868,8.62434973 31.2066948,9.22689068 C31.4301107,10.486749 31.9048695,12.0204896 32.2399934,12.7051953 C32.3796283,12.9790775 32.4913363,13.4720656 32.4913363,13.8281125 C32.4913363,14.1567712 32.7426792,14.8962533 33.0498761,15.471406 C33.357073,16.0191705 33.5246349,16.4847704 33.4408539,16.4847704 C33.357073,16.4847704 33.5246349,16.8955937 33.8318318,17.3885818 C34.1390287,17.8541816 34.6137875,18.8949342 34.8651304,19.6344163 C35.1444003,20.4012866 35.5074511,21.1681569 35.6470861,21.3324862 C35.786721,21.5242038 35.842575,21.8528625 35.758794,22.0719683 C35.675013,22.2910741 35.842575,22.8936151 36.1218449,23.4139913 C36.4011148,23.9343676 36.5686767,24.4547439 36.4569687,24.5369086 C36.3731878,24.6464615 36.4011148,24.8107908 36.5686767,24.9203437 C36.9875815,25.194226 37.7974642,26.7553548 37.7974642,27.3305075 C37.7974642,27.5770016 38.1046611,28.2069307 38.467712,28.6725306 C38.8586898,29.1655186 39.2496676,29.9050007 39.3613756,30.3432123 C39.4730836,30.7814239 39.6406455,31.274412 39.7523535,31.4113531 C39.8640614,31.5756824 40.2271123,32.5342703 40.5622361,33.5476347 C40.869433,34.5883872 41.3162648,35.7660809 41.5396807,36.1495161 C41.7630967,36.5603394 42.1820015,37.5189273 42.4891984,38.3131858 C43.1035921,39.8469265 42.9918842,40.038644 41.5676077,40.038644 C39.7802804,40.038644 39.1938137,39.2443855 37.7974642,34.9718224 C37.4344134,33.9310698 37.0434355,32.8903173 36.8758736,32.6985997 C36.7362386,32.5068821 36.1776989,31.1648591 35.6470861,29.6858949 C35.1444003,28.234319 34.5858605,27.0018488 34.4462255,26.9470724 C34.2786636,26.8922959 34.1669556,26.6184137 34.1669556,26.3171432 C34.1669556,26.0158727 33.9714667,25.4681082 33.7201238,25.1120613 C33.4687809,24.7286261 33.357073,24.4273557 33.4687809,24.4273557 C33.6084159,24.4273557 33.4967079,24.2082499 33.273292,23.9617558 C33.0498761,23.6878736 32.5192633,22.5375681 32.1282854,21.4146509 C31.7093806,20.2917337 31.0670599,18.511499 30.648155,17.4433582 C30.2571772,16.4026057 29.8103453,15.0605826 29.6427834,14.5128181 C29.4752215,13.9376654 29.2797326,13.4720656 29.1680246,13.4720656 C29.0563166,13.4720656 28.9446087,13.1981833 28.9446087,12.8695246 C28.9166817,12.5134777 28.5257039,11.3083958 28.106799,10.1854786 L27.3527703,8.13136167 L27.1293544,9.66510228 C27.0176464,10.5141373 26.6825226,11.9931014 26.3753257,12.9516893 C25.705078,15.1701355 24.3925095,21.1133804 24.3925095,22.154133 C24.3645825,22.5649564 24.1970205,23.7152618 23.9456776,24.7012379 C23.3033569,27.5496133 22.4934742,32.0412823 22.1583503,34.6979401 C21.8511535,37.1902686 21.0691978,39.9290911 20.3151691,41.0793966 C19.9241912,41.6819375 18.8071117,41.9284316 18.8071117,41.4080553 Z" id="Path"></path>
                            </g>
                        </g>
                        <path d="M27.1753601,41.8310537 C27.1753601,41.7433316 26.5028184,41.6556095 25.7133129,41.6848502 C24.8945666,41.7140909 24.2512658,41.6263688 24.2512658,41.5386467 C24.2512658,41.4216838 23.9588564,41.3339617 23.6079651,41.3339617 C20.3914614,41.2754803 18.2276317,40.8661105 16.2100066,39.9304079 C15.0403689,39.3748345 13.8999722,38.936224 13.7537675,38.936224 C13.2274305,38.936224 10.3618182,37.2402631 9.7769993,36.5969676 C9.48458988,36.2753199 9.07521668,36.0121535 8.84128914,36.0121535 C8.63660255,36.0121535 8.46115689,35.9244314 8.46115689,35.8074686 C8.46115689,35.6612651 8.08102464,35.1641731 7.6424105,34.6670811 C5.47858076,32.1523806 4.16273835,30.3102162 3.19778725,28.4095704 C2.84689594,27.6785528 2.37904086,27.0060166 2.2035952,26.8890538 C2.02814955,26.772091 1.96966766,26.5966467 2.08663143,26.5089246 C2.17435426,26.3919618 2.02814955,25.6317035 1.73574012,24.7544824 C1.15092127,23.0877622 1.09243939,22.7076331 0.302933941,17.2981028 C-0.340366793,12.7950343 0.0105245165,10.1633709 1.64801729,6.91765271 C2.4082818,5.42637679 3.49019667,3.90586016 3.81184704,3.87661946 C3.92881081,3.84737875 4.63059343,3.55497171 5.42009887,3.20408326 C6.20960432,2.8531948 7.20379636,2.59002847 7.67165144,2.64850987 C8.11026558,2.67775058 8.46115689,2.59002847 8.46115689,2.44382494 C8.46115689,2.29762142 9.07521668,1.94673297 9.80624024,1.65432593 C11.3560102,1.06951184 15.7713925,0.747864091 15.7713925,1.24495607 C15.7713925,1.42040029 16.3269704,1.5081224 17.1749577,1.42040029 C19.2803056,1.24495607 21.0055212,1.85901086 21.0347622,2.76547269 C21.0347622,3.26256467 19.4557513,3.525731 15.6251878,3.67193453 C13.4028762,3.75965664 11.5022149,3.93510087 11.4144921,4.08130439 C11.3267693,4.22750791 10.946637,4.43219284 10.5957457,4.54915566 C10.2156134,4.66611847 9.92320401,4.90004411 9.92320401,5.04624763 C9.92320401,5.22169186 9.54307176,5.83574665 9.07521668,6.42056074 C8.6073616,7.00537482 7.87633804,8.14576229 7.46696485,8.96450201 C6.79442317,10.2803337 6.73594129,10.6312222 6.85290505,13.0582006 C6.94062788,14.9880871 7.23303731,16.5378444 7.87633804,18.6431752 C9.19218045,22.7076331 11.0928417,27.56159 11.6776606,28.2633669 C11.940829,28.5850146 12.467166,29.3745137 12.8765392,30.0178091 C13.2566715,30.6611046 13.7830084,31.4506037 14.0754178,31.7430107 C14.3678273,32.0646585 14.6017548,32.4740283 14.6017548,32.6494725 C14.6017548,33.0880831 17.2334396,35.4858209 18.1983907,35.9244314 C18.6370049,36.1291164 18.9878962,36.4215234 18.9878962,36.5969676 C18.9878962,36.7724119 19.10486,36.860134 19.2510647,36.7431712 C19.3972694,36.655449 19.601956,36.7139304 19.7189197,36.860134 C20.0113292,37.3864666 21.5903401,38.0297621 21.7950267,37.7373551 C21.8827495,37.5619109 22.116677,37.649633 22.3213636,37.94204 C22.5260502,38.2052064 23.0231462,38.4683727 23.4032785,38.4683727 C23.7834107,38.4976134 24.2512658,38.5853355 24.3974705,38.7022983 C24.5729162,38.7900205 25.7133129,38.8777426 26.9706735,38.8777426 C28.228034,38.8777426 29.3391898,38.936224 29.4269126,39.0531868 C29.5146355,39.1409089 29.777804,39.0824275 29.9532496,38.936224 C30.3333819,38.6145762 31.6492243,38.9654647 31.9708746,39.4625567 C32.0585975,39.6380009 31.9416337,40.1350929 31.7077062,40.5737034 C31.4737786,41.0415547 31.269092,41.3339617 31.269092,41.2169989 C31.269092,41.1000361 30.771996,41.2169989 30.1871771,41.4801653 C29.0467804,41.9480165 27.1753601,42.1819422 27.1753601,41.8310537 Z" id="Path" fill="#000000" fill-rule="nonzero" transform="translate(16.000000, 21.500000) scale(-1, 1) rotate(-180.000000) translate(-16.000000, -21.500000) "></path>
                        <path d="M178.17536,43.8310537 C178.17536,43.7433316 177.502818,43.6556095 176.713313,43.6848502 C175.894567,43.7140909 175.251266,43.6263688 175.251266,43.5386467 C175.251266,43.4216838 174.958856,43.3339617 174.607965,43.3339617 C171.391461,43.2754803 169.227632,42.8661105 167.210007,41.9304079 C166.040369,41.3748345 164.899972,40.936224 164.753767,40.936224 C164.227431,40.936224 161.361818,39.2402631 160.776999,38.5969676 C160.48459,38.2753199 160.075217,38.0121535 159.841289,38.0121535 C159.636603,38.0121535 159.461157,37.9244314 159.461157,37.8074686 C159.461157,37.6612651 159.081025,37.1641731 158.642411,36.6670811 C156.478581,34.1523806 155.162738,32.3102162 154.197787,30.4095704 C153.846896,29.6785528 153.379041,29.0060166 153.203595,28.8890538 C153.02815,28.772091 152.969668,28.5966467 153.086631,28.5089246 C153.174354,28.3919618 153.02815,27.6317035 152.73574,26.7544824 C152.150921,25.0877622 152.092439,24.7076331 151.302934,19.2981028 C150.659633,14.7950343 151.010525,12.1633709 152.648017,8.91765271 C153.408282,7.42637679 154.490197,5.90586016 154.811847,5.87661946 C154.928811,5.84737875 155.630593,5.55497171 156.420099,5.20408326 C157.209604,4.8531948 158.203796,4.59002847 158.671651,4.64850987 C159.110266,4.67775058 159.461157,4.59002847 159.461157,4.44382494 C159.461157,4.29762142 160.075217,3.94673297 160.80624,3.65432593 C162.35601,3.06951184 166.771393,2.74786409 166.771393,3.24495607 C166.771393,3.42040029 167.32697,3.5081224 168.174958,3.42040029 C170.280306,3.24495607 172.005521,3.85901086 172.034762,4.76547269 C172.034762,5.26256467 170.455751,5.525731 166.625188,5.67193453 C164.402876,5.75965664 162.502215,5.93510087 162.414492,6.08130439 C162.326769,6.22750791 161.946637,6.43219284 161.595746,6.54915566 C161.215613,6.66611847 160.923204,6.90004411 160.923204,7.04624763 C160.923204,7.22169186 160.543072,7.83574665 160.075217,8.42056074 C159.607362,9.00537482 158.876338,10.1457623 158.466965,10.964502 C157.794423,12.2803337 157.735941,12.6312222 157.852905,15.0582006 C157.940628,16.9880871 158.233037,18.5378444 158.876338,20.6431752 C160.19218,24.7076331 162.092842,29.56159 162.677661,30.2633669 C162.940829,30.5850146 163.467166,31.3745137 163.876539,32.0178091 C164.256671,32.6611046 164.783008,33.4506037 165.075418,33.7430107 C165.367827,34.0646585 165.601755,34.4740283 165.601755,34.6494725 C165.601755,35.0880831 168.23344,37.4858209 169.198391,37.9244314 C169.637005,38.1291164 169.987896,38.4215234 169.987896,38.5969676 C169.987896,38.7724119 170.10486,38.860134 170.251065,38.7431712 C170.397269,38.655449 170.601956,38.7139304 170.71892,38.860134 C171.011329,39.3864666 172.59034,40.0297621 172.795027,39.7373551 C172.882749,39.5619109 173.116677,39.649633 173.321364,39.94204 C173.52605,40.2052064 174.023146,40.4683727 174.403278,40.4683727 C174.783411,40.4976134 175.251266,40.5853355 175.397471,40.7022983 C175.572916,40.7900205 176.713313,40.8777426 177.970673,40.8777426 C179.228034,40.8777426 180.33919,40.936224 180.426913,41.0531868 C180.514635,41.1409089 180.777804,41.0824275 180.95325,40.936224 C181.333382,40.6145762 182.649224,40.9654647 182.970875,41.4625567 C183.058597,41.6380009 182.941634,42.1350929 182.707706,42.5737034 C182.473779,43.0415547 182.269092,43.3339617 182.269092,43.2169989 C182.269092,43.1000361 181.771996,43.2169989 181.187177,43.4801653 C180.04678,43.9480165 178.17536,44.1819422 178.17536,43.8310537 Z" id="Path-Copy-2" fill="#000000" fill-rule="nonzero" transform="translate(167.000000, 23.500000) scale(-1, 1) rotate(-180.000000) translate(-167.000000, -23.500000) "></path>
                        <path d="M137.071541,45.6754031 C136.196313,45.2970364 135.817048,44.9768799 135.817048,44.569408 C135.817048,44.2492516 135.671176,43.89999 135.496131,43.8126746 C135.321085,43.696254 135.262737,43.4052027 135.35026,43.1723616 C135.437782,42.9395205 135.379434,42.8522051 135.233563,42.9395205 C135.058517,43.0268359 134.94182,42.9395205 134.94182,42.7357846 C134.94182,42.5320486 134.475032,41.3969484 133.891547,40.232743 C132.637053,37.6423861 132.199439,36.6237064 132.170265,36.2453396 C132.170265,36.099814 132.082742,35.8378678 131.966045,35.663237 C131.295037,34.5572419 130.565681,33.1310903 130.565681,32.8982492 C130.565681,32.7527235 129.836324,31.0937309 128.931922,29.2310023 C128.02752,27.3391685 127.035595,25.0689681 126.714679,24.1667089 C126.393762,23.2935549 125.751928,21.7218776 125.255965,20.6740928 C124.760003,19.626308 124.351563,18.6658385 124.293215,18.4912077 C124.264041,18.3456821 123.855601,17.4143178 123.417987,16.4538483 C122.980373,15.4933789 122.221842,13.5433349 121.755054,12.0880782 C120.938175,9.58503663 120.675607,8.91561854 119.421113,6.17973592 C118.720931,4.66626894 118.866802,4.20058679 120.062947,4.02595598 C121.084046,3.88043031 121.31744,4.20058679 122.396888,7.57678237 C122.717805,8.6245672 123.09707,9.67235204 123.184593,9.90519311 C123.272116,10.1380342 123.388813,10.5455061 123.447161,10.7783471 C123.50551,11.0111882 123.651381,11.4477652 123.797252,11.7970268 C123.943124,12.1171833 124.351563,13.1649681 124.701655,14.1254376 C125.051746,15.085907 125.664405,16.5411637 126.043671,17.3852126 C126.743853,18.8695745 126.743853,18.8986796 127.706603,18.6076283 C128.260914,18.4621026 130.594855,18.4329975 133.220539,18.5203129 L137.800897,18.7240488 L137.975943,16.8613202 C138.09264,15.8426405 138.267686,14.2709633 138.355208,13.3978092 C138.442731,12.5246552 138.559428,11.5350806 138.646951,11.2149242 C138.967868,9.7305623 139.347133,5.88868458 139.201262,5.19016136 C139.113739,4.78268948 139.201262,4.28790219 139.405482,4.14237652 C139.930618,3.73490464 142.322908,3.26922249 143.606575,3.3565379 C144.219235,3.38564303 144.890243,3.29832763 145.094463,3.15280196 C145.327857,2.94906601 145.444554,2.94906601 145.444554,3.15280196 C145.444554,3.32743276 145.619599,3.41474816 145.852993,3.32743276 C146.465653,3.09459169 147.282532,4.05506112 146.903267,4.5498484 C146.699047,4.75358434 146.640698,5.16105622 146.728221,5.45210756 C146.815744,5.74315891 146.757395,6.4998924 146.58235,7.14020535 C146.407304,7.78051831 146.232259,9.09024935 146.17391,10.0507188 C145.998865,12.4373398 145.96969,12.5246552 145.648774,12.5246552 C145.502902,12.5246552 145.473728,12.8448117 145.561251,13.2522836 C145.677948,13.6597554 145.648774,13.9799119 145.532076,13.9799119 C145.386205,13.9799119 145.298682,14.7366454 145.298682,15.6680097 C145.298682,16.5702689 145.21116,17.6471588 145.094463,18.0546307 C144.80272,19.1024155 143.869144,26.2331734 143.927492,27.0190121 C143.985841,27.863061 143.985841,28.1250072 143.869144,29.8422101 C143.810795,30.6571539 143.664924,32.4907773 143.577401,33.9169289 C143.460704,35.3721856 143.256484,37.0020731 143.139787,37.5550707 C142.877219,38.5737504 142.935567,41.5715792 143.22731,43.2305719 C143.43153,44.3947772 142.381256,45.1515107 140.251535,45.4425621 C139.376308,45.5589826 138.559428,45.7918237 138.471905,45.9373494 C138.384383,46.082875 137.771723,45.9664545 137.071541,45.6754031 Z M136.92567,32.3161465 C136.954844,29.2018971 137.042367,25.4473348 137.159064,23.9920781 L137.334109,21.3435109 L134.32916,20.9942493 C132.666228,20.7905133 130.478158,20.5285671 129.486233,20.4121466 C127.385687,20.1502004 127.239815,20.3539363 128.260914,22.012929 C128.581831,22.5659265 128.786051,23.0025035 128.669354,23.0025035 C128.581831,23.0025035 128.698528,23.3517652 128.931922,23.8174473 C129.369536,24.5741808 130.915772,27.9212712 132.053568,30.5116282 C132.345311,31.1810463 132.724576,31.7340438 132.899622,31.7340438 C133.074667,31.7340438 133.191364,31.9086746 133.16219,32.1124106 C133.074667,32.5780927 133.453933,33.3930365 134.270812,34.6154521 C134.650077,35.1684497 134.94182,35.896078 134.94182,36.2744448 C134.94182,36.6237064 135.14604,37.1184937 135.379434,37.3804399 C135.612828,37.613281 135.817048,37.9916477 135.817048,38.1953836 C135.817048,38.4282247 135.992093,38.7774863 136.196313,38.9812223 C136.779798,39.5633249 136.896495,38.486435 136.92567,32.3161465 Z" id="Shape" fill="#000000" fill-rule="nonzero" transform="translate(133.000000, 24.500000) scale(-1, 1) rotate(-180.000000) translate(-133.000000, -24.500000) "></path>
                        <path d="M104.025774,43.966431 C103.318916,43.9085379 102.435345,43.6769654 102.052464,43.4453929 C101.669582,43.1848738 101.316154,43.0111944 101.227797,43.0111944 C99.8729866,43.2138204 99.9907961,42.9243548 101.492868,42.2006907 C103.966869,41.0428283 105.203869,40.6375764 106.057989,40.6954695 C107.972394,40.7823092 108.355275,40.7823092 109.651181,40.6954695 C110.888181,40.5796833 111.064895,40.4928436 111.064895,39.9139123 C111.064895,39.5665536 110.947086,39.0455155 110.799824,38.7560499 C110.623109,38.4955308 109.945704,36.4982181 109.268299,34.3561725 C107.707323,29.4063105 106.116894,24.5722347 105.734012,23.7327844 C105.056607,22.0828304 104.909346,21.6775785 104.46756,20.3170901 C104.231941,19.5355329 103.937417,18.406617 103.819607,17.8566324 C103.525083,16.5250905 103.495631,16.4093043 103.407274,16.3514112 C103.377821,16.293518 103.318916,16.0619455 103.260012,15.830373 C103.230559,15.5988006 102.818226,14.2962053 102.37644,12.9357169 C101.934654,11.5752285 101.551773,10.3594729 101.52232,10.1857935 C101.463416,10.0410607 101.375059,9.69370198 101.286701,9.46212948 C101.080535,8.88319825 100.226415,6.01748864 100.049701,5.26487804 C99.9613437,4.94646586 99.9907961,4.51226744 100.138058,4.28069494 C100.344225,3.96228277 100.462034,3.99122933 100.697654,4.42542775 C100.874368,4.71489337 101.109987,4.85962618 101.227797,4.74383993 C101.375059,4.59910712 101.286701,4.39648119 101.051082,4.22280182 C100.668201,3.99122933 100.668201,3.93333621 101.051082,3.67281715 C101.551773,3.35440497 102.847678,3.26756529 105.115512,3.35440497 C105.969632,3.4122981 106.823751,3.29651185 107.029918,3.12283248 C107.589513,2.68863405 108.620347,3.47019122 108.767609,4.45437431 C108.855966,4.9175193 109.386109,6.82799237 109.975157,8.73846544 C110.564205,10.6489385 111.153252,12.7330909 111.329967,13.3699153 C112.154634,16.8145561 113.745063,21.9670441 115.18823,26.1064024 C116.042349,28.5379136 116.513588,30.1010279 117.544421,33.9219741 C117.89785,35.1956228 118.427993,36.7297906 118.751969,37.3087218 C119.046493,37.887653 119.311565,38.6113171 119.311565,38.9007827 C119.341017,39.1902483 119.517732,39.740233 119.723898,40.1454848 C120.077327,40.7244161 120.342399,40.8402023 121.167066,40.7823092 C121.726661,40.7244161 122.728042,40.8402023 123.405447,41.0138817 C124.082852,41.1875611 125.555472,41.3322939 126.704115,41.3322939 C129.001402,41.3322939 129.413735,41.6796526 128.647973,42.8664616 C128.176735,43.5611791 126.380139,44.0532707 124.465733,43.9953775 C121.402685,43.9085379 105.763465,43.8506447 105.557298,43.9374844 C105.439489,43.9953775 104.732631,44.0243241 104.025774,43.966431 Z" id="Path" fill="#000000" fill-rule="nonzero" transform="translate(114.500000, 23.500000) scale(-1, 1) rotate(-180.000000) translate(-114.500000, -23.500000) "></path>
                        <path d="M188.025774,45.966431 C187.318916,45.9085379 186.435345,45.6769654 186.052464,45.4453929 C185.669582,45.1848738 185.316154,45.0111944 185.227797,45.0111944 C183.872987,45.2138204 183.990796,44.9243548 185.492868,44.2006907 C187.966869,43.0428283 189.203869,42.6375764 190.057989,42.6954695 C191.972394,42.7823092 192.355275,42.7823092 193.651181,42.6954695 C194.888181,42.5796833 195.064895,42.4928436 195.064895,41.9139123 C195.064895,41.5665536 194.947086,41.0455155 194.799824,40.7560499 C194.623109,40.4955308 193.945704,38.4982181 193.268299,36.3561725 C191.707323,31.4063105 190.116894,26.5722347 189.734012,25.7327844 C189.056607,24.0828304 188.909346,23.6775785 188.46756,22.3170901 C188.231941,21.5355329 187.937417,20.406617 187.819607,19.8566324 C187.525083,18.5250905 187.495631,18.4093043 187.407274,18.3514112 C187.377821,18.293518 187.318916,18.0619455 187.260012,17.830373 C187.230559,17.5988006 186.818226,16.2962053 186.37644,14.9357169 C185.934654,13.5752285 185.551773,12.3594729 185.52232,12.1857935 C185.463416,12.0410607 185.375059,11.693702 185.286701,11.4621295 C185.080535,10.8831982 184.226415,8.01748864 184.049701,7.26487804 C183.961344,6.94646586 183.990796,6.51226744 184.138058,6.28069494 C184.344225,5.96228277 184.462034,5.99122933 184.697654,6.42542775 C184.874368,6.71489337 185.109987,6.85962618 185.227797,6.74383993 C185.375059,6.59910712 185.286701,6.39648119 185.051082,6.22280182 C184.668201,5.99122933 184.668201,5.93333621 185.051082,5.67281715 C185.551773,5.35440497 186.847678,5.26756529 189.115512,5.35440497 C189.969632,5.4122981 190.823751,5.29651185 191.029918,5.12283248 C191.589513,4.68863405 192.620347,5.47019122 192.767609,6.45437431 C192.855966,6.9175193 193.386109,8.82799237 193.975157,10.7384654 C194.564205,12.6489385 195.153252,14.7330909 195.329967,15.3699153 C196.154634,18.8145561 197.745063,23.9670441 199.18823,28.1064024 C200.042349,30.5379136 200.513588,32.1010279 201.544421,35.9219741 C201.89785,37.1956228 202.427993,38.7297906 202.751969,39.3087218 C203.046493,39.887653 203.311565,40.6113171 203.311565,40.9007827 C203.341017,41.1902483 203.517732,41.740233 203.723898,42.1454848 C204.077327,42.7244161 204.342399,42.8402023 205.167066,42.7823092 C205.726661,42.7244161 206.728042,42.8402023 207.405447,43.0138817 C208.082852,43.1875611 209.555472,43.3322939 210.704115,43.3322939 C213.001402,43.3322939 213.413735,43.6796526 212.647973,44.8664616 C212.176735,45.5611791 210.380139,46.0532707 208.465733,45.9953775 C205.402685,45.9085379 189.763465,45.8506447 189.557298,45.9374844 C189.439489,45.9953775 188.732631,46.0243241 188.025774,45.966431 Z" id="Path-Copy" fill="#000000" fill-rule="nonzero" transform="translate(198.500000, 25.500000) scale(-1, 1) rotate(-180.000000) translate(-198.500000, -25.500000) "></path>
                        <path d="M46.0465315,43.8591898 C45.7135896,43.7082472 44.8358338,43.5874932 44.1396826,43.5874932 C42.2025662,43.5573047 38.2072638,41.5044859 36.2701475,39.5724211 C34.6357056,37.9422415 32.9407288,34.9837674 31.5484264,31.3309575 C31.0944148,30.183794 30.3377287,28.4026719 29.8534496,27.3762625 C29.399438,26.3800416 28.5519496,24.2064688 28.0071356,22.5461006 C27.0688449,19.7687576 27.00831,19.2857414 27.00831,15.3310464 C26.9780425,11.1348432 26.9780425,11.0744662 27.9768682,9.05183595 C28.5216821,7.93486102 29.2783682,6.87826311 29.6415775,6.66694353 C30.0047868,6.48581246 30.4890659,6.09336181 30.700938,5.76128819 C30.9128101,5.45940307 31.3062869,5.21789498 31.5484264,5.21789498 C31.7905659,5.21789498 31.9721706,5.09714093 31.9721706,4.97638689 C31.9721706,4.64431326 33.7882172,3.61790386 34.5449032,3.52733833 C34.8778451,3.49714982 35.7556009,3.31601875 36.512287,3.13488768 C37.2387056,2.98394512 37.9348568,2.95375661 38.0256591,3.07451066 C38.1164615,3.22545321 38.4494033,3.28583024 38.7823452,3.22545321 C39.0850196,3.16507619 39.5390313,3.28583024 39.7509034,3.46696131 C39.9930429,3.64809238 40.4470546,3.82922345 40.8405313,3.85941196 C41.9604267,4.01035451 43.1711244,4.58393623 43.3527291,5.06695242 C43.4737988,5.30846051 43.6554035,5.51978009 43.8067407,5.51978009 C44.2002175,5.51978009 45.4714501,6.60656651 47.2269617,8.47825423 C48.7100664,10.0480568 50.0115665,11.8593675 49.6180897,11.8593675 C49.5272874,11.8593675 49.6483572,12.1008756 49.9207641,12.4027607 C50.3445083,12.8857769 52.5540317,17.3536766 52.5540317,17.7461273 C52.5540317,17.8366928 53.0080433,18.8932907 53.5528573,20.1008312 C54.1279387,21.3083716 54.8240899,22.8177972 55.1267643,23.4819445 C55.4294387,24.1460917 56.2466597,25.8970254 56.9730783,27.3762625 C59.000997,31.4819 60.302497,36.3422504 59.9392877,38.4252577 C59.5760784,40.3573224 58.3956481,42.1082561 56.9428109,42.8931574 C55.6413108,43.5874932 47.1966943,44.3120175 46.0465315,43.8591898 Z M49.0238783,41.6172341 C49.145219,41.3763912 49.3272299,41.2258644 49.4485706,41.3161805 C49.6002464,41.4064966 50.4192956,41.0452322 51.2383449,40.5334411 C52.9067787,39.5399642 53.2404654,38.8776462 52.967449,37.0412192 C52.785438,35.7466887 50.8136527,30.1169861 50.3586253,29.5750896 C50.2069495,29.3643521 50.1462792,29.1536146 50.2372847,29.0632985 C50.3586253,28.9127717 49.9642683,27.9795055 47.5981259,22.9519102 C47.234104,22.1390654 46.9004172,21.3864314 46.8700821,21.2961153 C46.8397469,21.2057992 46.7184063,20.7542188 46.5667305,20.2424277 C46.4453898,19.7607419 46.2027086,19.1586347 46.0206976,18.9780025 C45.8690218,18.767265 45.8386867,18.5866328 45.9903625,18.5866328 C46.1420383,18.5866328 46.0510328,18.436106 45.8083515,18.2855792 C45.5656702,18.1350524 45.3533241,17.8942095 45.322989,17.773788 C45.2623186,17.021154 44.8072913,15.8771503 44.56461,15.8771503 C44.4129342,15.8771503 44.382599,15.6965181 44.4736045,15.4556752 C44.56461,15.2449377 44.4432694,14.853568 44.2005881,14.6428305 C43.988242,14.4019876 43.4422091,13.4687214 43.0175169,12.5655606 C42.5624895,11.6623997 41.8647809,10.3979746 41.4400886,9.76576197 C41.0153964,9.13354938 40.6513745,8.56154752 40.6513745,8.5013368 C40.6513745,8.44112607 40.1963471,7.92933493 39.6503143,7.35733307 C38.6189189,6.24343471 36.6167984,5.49080068 35.1000404,5.61122212 C34.6450131,5.64132748 33.7349583,6.03269718 33.0675848,6.45417224 C32.0361894,7.14659554 31.8238433,7.47775452 31.5204917,8.89270649 C31.2778104,10.1571317 31.2778104,10.7291335 31.5508269,11.3312407 C32.2182004,12.7160874 32.8249035,14.3116715 32.9765793,15.1245163 C33.0372496,15.4255699 33.492277,16.8706272 33.9776396,18.3156845 C34.4933373,19.7306365 34.8876943,21.0853778 34.8876943,21.2961153 C34.8876943,21.4767475 35.1303756,22.018644 35.4640624,22.440119 C35.7674139,22.8916994 36.2527765,24.0055978 36.5561281,24.9087586 C36.8291445,25.8119195 37.2538367,26.8355018 37.4661828,27.1666607 C37.6481938,27.4978197 37.9212102,28.1300323 38.0425509,28.5816127 C38.4065728,30.1771969 42.1074621,37.2519567 42.5321544,37.2519567 C42.653495,37.2519567 42.7748356,37.4626943 42.7748356,37.7035371 C42.7748356,37.9744854 42.9871817,38.2454337 43.229863,38.3357497 C43.4725443,38.4561712 43.6848904,38.6669087 43.6848904,38.8776462 C43.6848904,39.0582784 44.0185771,39.6001749 44.4432694,40.0818607 C44.8679616,40.5635465 45.2016483,41.0753376 45.2016483,41.195759 C45.2016483,41.9182877 48.7811971,42.3096574 49.0238783,41.6172341 Z" id="Shape" fill="#000000" fill-rule="nonzero" transform="translate(43.500000, 23.500000) scale(-1, 1) rotate(-180.000000) translate(-43.500000, -23.500000) "></path>
                    </g>
                </g>
            </g>
        </g>
    </g>
</svg>